<?xml version="1.0" encoding="UTF-8"?>
<svg width="438px" height="212px" viewBox="0 0 438 212" version="1.1" xmlns="http://www.w3.org/2000/svg" xmlns:xlink="http://www.w3.org/1999/xlink">
    <title>undraw_development_re_g5hq</title>
    <g id="Page-1" stroke="none" stroke-width="1" fill="none" fill-rule="evenodd">
        <g id="Innovation-final-v3" transform="translate(-871.000000, -911.000000)" fill-rule="nonzero">
            <g id="undraw_development_re_g5hq" transform="translate(871.000000, 911.000000)">
                <polygon id="Path" fill="#FFFFFF" points="60 169 389 169 389 2 60 2"></polygon>
                <path d="M392,172 L57,172 L57,0 L392,0 L392,172 Z M62.4372108,166.571509 L386.562808,166.571509 L386.562808,5.42846679 L62.4372108,5.42846679 L62.4372108,166.571509 Z" id="Shape" fill="#E5E5E5"></path>
                <polygon id="Path" fill="#0238FC" points="213 38 213 94.7225962 130.832645 94.7225962 115.652755 113 117.386093 94.7225962 110 94.7225962 110 38"></polygon>
                <polygon id="Path" fill="#F0F0F0" points="263 41 263 77.3028194 315.6509 77.3028194 325.377836 89 324.267485 77.3028194 329 77.3028194 329 41"></polygon>
                <polygon id="Path" fill="#976E33" points="45.0004781 207 49.7434777 207 52 188 45 188"></polygon>
                <path d="M44,205.000369 L53.7720887,205 L53.7724838,205 C57.2117344,205.000186 59.9997597,207.601568 60,210.810619 L60,210.999445 L44.0002701,211 L44,205.000369 Z" id="Path" fill="#0B0B0C"></path>
                <polygon id="Path" fill="#976E33" points="102.382821 207 107 205.833628 104.814101 187 98 188.721271"></polygon>
                <path d="M101,205.298577 L110.448466,203.16607 L110.448844,203.165984 C113.774282,202.41574 117.133342,204.279534 117.951851,207.329069 L118,207.508511 L102.530123,211 L101,205.298577 Z" id="Path" fill="#0B0B0C"></path>
                <path d="M42,203.053772 L42.998142,197.967767 C42.998142,197.967767 44.8354801,178.329906 58.021514,158.731043 L62.3135165,137.440776 C62.3135165,137.440776 61.0388584,121.32542 73.3416131,112.602141 L77.1345469,110 L90.4327168,110.759116 L93.5040345,127.505332 L99.6925015,167.128869 C99.6925015,167.128869 101.289527,167.277957 101.888434,171.860036 C103.105645,173.784184 103.825753,175.978448 103.984528,178.247116 C103.984528,178.247116 107.151582,186.948396 108,193.354876 L107.900185,199.623675 L101.212645,203.172053 L87.2741431,163.914101 L77.3047438,141.966565 C77.3047438,141.966565 72.5064176,157.429973 65.1568862,170.677242 C65.1568862,170.677242 55.0904523,192.376471 53.0793915,196.784968 L50.8834587,204 L42,203.053772 Z" id="Path" fill="#0B0B0C"></path>
                <circle id="Oval" fill="#FFB7B7" cx="86.5" cy="66.5" r="9.5"></circle>
                <circle id="Oval" fill="#976E33" cx="86.5" cy="66.5" r="9.5"></circle>
                <path d="M74,111.552282 L77.0777762,103.842501 C74.9032277,96.7790324 75.036516,89.2034962 77.4581912,82.2213568 L77.4581912,82.2213568 L78.0470134,81.7350661 C83.1769144,77.4984164 87.6793844,78.269725 91.8575876,83.4522148 L91.8575876,83.4522148 C92.5303883,84.2947298 93.3173015,85.038814 94.1954939,85.6628769 C96.0382232,86.9594284 98.9617213,94.0035507 95.1016564,98.1326534 L92.0136093,116.197523 C92.3388119,126.171457 85.1218022,122.415805 74,111.552282 Z" id="Path" fill="#C42C90"></path>
                <path d="M118.600752,101.703572 C117.783687,101.083069 116.734893,100.857865 115.73658,101.088559 C114.738267,101.319252 113.892985,101.982145 113.428182,102.898866 L105.541985,102.282291 L104,107.003451 L115.149011,107.717099 C116.769941,108.414431 118.654078,107.784109 119.534699,106.249906 C120.415319,104.715703 120.014075,102.76255 118.600728,101.703572 L118.600752,101.703572 Z" id="Path" fill="#976E33"></path>
                <path d="M110.774423,109 L88.5395703,104.88309 L81.3076994,92.8597023 C80.3400733,90.1992414 81.7305802,87.2646575 84.4134836,86.3051255 C87.0963869,85.3455935 90.0557258,86.7244688 91.023352,89.3849297 L94.4153516,98.6864557 L112,101.572807 L110.774423,109 Z" id="Path" fill="#F492D2"></path>
                <circle id="Oval" fill="#0B0B0C" cx="70" cy="56" r="9"></circle>
                <path d="M62.04808,63.0029191 C64.4208483,64.6273297 67.4774887,65.062069 70.2492842,64.1693587 C73.0210797,63.2766483 75.1644076,61.1671586 76,58.5094334 C75.5751299,61.7097637 73.2866656,64.4119835 70.0805758,65.4990922 C66.874486,66.586201 63.2954284,65.8735184 60.8228566,63.6556417 C58.3502849,61.4377651 57.404245,58.0914721 58.3757957,55 C57.9635591,58.1028984 59.3716842,61.1715909 62.04808,63.0029191 L62.04808,63.0029191 Z" id="Path" fill="#0B0B0C"></path>
                <path d="M98,62.999089 C96.4184729,60.2244735 95.813317,59.065441 93.7741194,57.3782353 C91.970859,55.8860703 89.7527803,55.4478662 87.9637189,56.8617224 C83.6176572,55.0216013 78.5543851,56.1948728 75.5096352,59.7476074 C72.4648852,63.3003421 72.1605725,68.3901807 74.7611201,72.2670366 C77.3616677,76.1438925 82.2504815,77.8885569 86.7860903,76.5583714 C91.3216991,75.228186 94.4287027,71.1385399 94.4283585,66.4991066 C94.4267479,66.1023561 94.4023755,65.7060081 94.3553568,65.311939 C95.910473,65.0979151 96.444879,63.2131082 98,62.999089 Z" id="Path" fill="#0B0B0C"></path>
                <path d="M375.006472,131.322394 C375.067938,130.017427 375.700932,128.80687 376.735128,128.016457 C377.769323,127.226044 379.098484,126.93697 380.364962,127.227018 L386.169048,119 L392,121.328216 L383.641273,132.830571 C383.001759,134.985536 380.860821,136.318829 378.65785,135.934052 C376.45488,135.549276 374.886204,133.568052 375.006472,131.322394 Z" id="Path" fill="#A0616A"></path>
                <path d="M382,124.733643 L392.086927,107.814897 L387.977315,96.8856457 L393.57445,82 L393.78087,82.0883168 C393.916213,82.1461475 397.096532,83.5614728 397.567879,88.6300537 L404,108.790332 L386.833537,131 L382,124.733643 Z" id="Path" fill="#029775"></path>
                <path d="M326.886235,61.0388237 C328.148037,61.2027046 329.274953,61.9370929 329.963754,63.0443801 C330.652554,64.1516673 330.832485,65.5181102 330.45513,66.7760277 L338,73.2858583 L335.299108,79 L324.768946,69.6518517 C322.725987,68.8372497 321.594103,66.5686209 322.134281,64.3712052 C322.674459,62.1737895 324.715955,60.7421586 326.886235,61.0388237 Z" id="Path" fill="#976E33"></path>
                <path d="M333.574598,69 L349.553896,80.2848904 L360.689927,77.0587569 L375,83.7437144 L374.896751,83.9412048 C374.829124,84.0707039 373.184246,87.1092926 368.129625,87.1857117 L347.675866,92 L327,73.3014348 L333.574598,69 Z" id="Path" fill="#00A982"></path>
                <polygon id="Path" fill="#976E33" points="362.999068 206 357.578405 206 355 184 363 184.000491"></polygon>
                <path d="M352.954539,205 L364,205 L364,211 L346,211 L346,211 C346,209.408701 346.732706,207.882578 348.036936,206.75736 C349.341165,205.632141 351.11008,205 352.954539,205 L352.954539,205 Z" id="Path" fill="#0B0B0C"></path>
                <polygon id="Path" fill="#976E33" points="384.999068 206 379.578405 206 377 184 385 184.000491"></polygon>
                <path d="M374.954539,205 L386,205 L386,211 L368,211 L368,211 C368,209.408701 368.732706,207.882578 370.036936,206.75736 C371.341165,205.632141 373.11008,205 374.954539,205 L374.954539,205 Z" id="Path" fill="#0B0B0C"></path>
                <polygon id="Path" fill="#0B0B0C" points="387 127 386.554257 158.975398 386.108045 201 376.297475 200.086348 371.391955 142.074047 365.148738 200.086348 355.020318 200.086348 354 141.616981 357.567822 128.826822"></polygon>
                <path d="M355.545123,129.704962 L354,129.638135 L361.176937,90.1273595 L358.238359,78.1851064 C357.922265,76.8990992 358.6186,75.5800669 359.859219,75.114796 L365.146441,73.1335545 L367.014326,68 L381.751926,69.5870062 L382.114342,73.5990278 C383.711365,74.110887 396.862602,78.4878277 395.95517,83.4750833 C395.05957,88.3976151 389.771503,103.884721 389.50296,104.669587 L388.576877,126.880013 L388.462963,126.936931 C388.325843,127.005448 378.167713,131.996916 367.132129,131.996075 C363.150873,132.062647 359.201032,131.28164 355.545123,129.704962 L355.545123,129.704962 Z" id="Path" fill="#00A982"></path>
                <circle id="Oval" fill="#976E33" cx="374.5" cy="55.5" r="10.5"></circle>
                <path d="M382.89025,65.9034916 C380.894759,68.0300696 377.188863,66.8884749 376.928849,63.9832688 C376.908459,63.7577151 376.909938,63.5307163 376.933267,63.3054477 C377.067514,62.0185665 377.810644,60.8502333 377.632638,59.4914719 C377.592346,59.1533018 377.46641,58.8310254 377.266764,58.5551814 C375.676614,56.4248797 371.943851,59.5080083 370.443138,57.5795125 C369.522922,56.396999 370.604625,54.535196 369.898466,53.2135384 C368.966456,51.4691652 366.205871,52.3296693 364.474691,51.3743662 C362.548545,50.3114707 362.663749,47.3548895 363.931674,45.5565449 C365.47796,43.3633893 368.189087,42.1931126 370.866437,42.0244659 C373.543787,41.8558192 376.202694,42.5798809 378.702244,43.5544173 C381.542236,44.6616915 384.358495,46.1919548 386.106189,48.6902858 C388.231557,51.7285224 388.436098,55.8131467 387.373155,59.3657931 C386.726542,61.5269027 384.51978,64.1669163 382.89025,65.9034916 Z" id="Path" fill="#0B0B0C"></path>
                <polygon id="Path" fill="#976E33" points="268.443463 202 270 198.30305 255.297609 191 253 196.456347"></polygon>
                <path d="M276.840176,192.385151 C275.53446,191.840841 274.080239,191.874631 272.797801,192.47908 C271.515364,193.083529 270.509897,194.209057 270.002853,195.607772 L268.973963,198.439642 L267.387764,202.810817 L267,203.88261 L272.083188,206 L277,192.453085 L276.840176,192.385151 Z" id="Path" fill="#0B0B0C"></path>
                <path d="M268,196.351716 L267.323394,198.178426 L265.63488,202.737851 L265.594376,202.851883 C261.292415,203.414659 256.576354,202.311373 252.214318,200.59744 C250.469086,199.912072 248.759744,199.135492 247.093108,198.270794 C244.626329,197.001785 242.417648,195.66244 240.655622,194.516938 C238.002683,192.783358 236.362262,191.481691 236.362262,191.481691 C236.362262,191.481691 235.928889,191.880415 235.14469,192.564163 C234.093611,193.479789 232.414076,194.909601 230.286648,196.592679 C229.475109,197.239217 228.603765,197.915481 227.672616,198.621471 C220.808645,203.805046 212,189.973381 212,189.973381 C212,189.973381 214.47739,188.367546 215.124591,188.05574 C217.208589,187.051898 222.104525,184.683188 226.328442,182.578164 C228.504562,181.492005 230.499757,180.473732 231.839312,179.749976 C236.582805,177.178681 242.479325,182.044164 242.479325,182.044164 L268,196.351716 Z" id="Path" fill="#2F2E41"></path>
                <path d="M268,196.351716 L267.323394,198.178426 L265.63488,202.737851 L265.594376,202.851883 C261.292415,203.414659 256.576354,202.311373 252.214318,200.59744 C250.469086,199.912072 248.759744,199.135492 247.093108,198.270794 C244.626329,197.001785 242.417648,195.66244 240.655622,194.516938 C238.002683,192.783358 236.362262,191.481691 236.362262,191.481691 C236.362262,191.481691 235.928889,191.880415 235.14469,192.564163 C234.093611,193.479789 232.414076,194.909601 230.286648,196.592679 C229.475109,197.239217 228.603765,197.915481 227.672616,198.621471 C220.808645,203.805046 212,189.973381 212,189.973381 C212,189.973381 214.47739,188.367546 215.124591,188.05574 C217.208589,187.051898 222.104525,184.683188 226.328442,182.578164 C228.504562,181.492005 230.499757,180.473732 231.839312,179.749976 C236.582805,177.178681 242.479325,182.044164 242.479325,182.044164 L268,196.351716 Z" id="Path" fill="#200469"></path>
                <path d="M198.45524,158 L178.544774,158 C177.692016,157.999022 177.000959,157.29604 177,156.428569 L177,147.698408 C177,141.237556 182.148725,136 188.5,136 C194.851275,136 200,141.237556 200,147.698408 L200,156.428569 C199.999041,157.296035 199.307993,157.999014 198.45524,158 Z" id="Path" fill="#0B0B0C"></path>
                <path d="M218.410514,168.055436 C217.528221,168.228395 216.759866,168.828768 216.312204,169.695006 C215.864541,170.561244 215.783555,171.604361 216.091039,172.543671 L211,177.771231 L213.090942,182 L220.187601,174.504964 C221.597735,173.808389 222.318348,172.044437 221.864969,170.399017 C221.41159,168.753596 219.927522,167.746788 218.410509,168.055471 L218.410514,168.055436 Z" id="Path" fill="#976E33"></path>
                <path d="M200.90712,192 C200.662703,192 200.417921,191.989209 200.172777,191.967627 C197.205498,191.714477 194.574436,189.917938 193.208857,187.212531 L184.539871,170.152353 C183.359972,167.830139 184.175074,164.969775 186.390252,163.65898 C188.605431,162.348186 191.437155,163.0506 192.81861,165.253547 L200.816322,183.601461 L211.698894,174.560763 L218,177.068746 L207.358663,189.080584 C205.704628,190.937006 203.363214,191.99653 200.90712,192 Z" id="Path" fill="#200469"></path>
                <polygon id="Path" fill="#976E33" points="268.117966 209 270 205.093997 255.77787 196 253 201.765083"></polygon>
                <path d="M276.842523,198.568794 C275.555194,197.906451 274.074645,197.818892 272.72696,198.325402 C271.379275,198.831911 270.274993,199.890945 269.657328,201.269254 L268.404439,204.059622 L266.472517,208.366898 L266,209.423125 L271.011722,212 L277,198.65118 L276.842523,198.568794 Z" id="Path" fill="#0B0B0C"></path>
                <path d="M267,201.501964 L266.19556,203.233961 L264.187975,207.55701 L264.139468,207.665261 C259.850449,207.885255 255.277084,206.44657 251.098872,204.43869 C249.427155,203.63571 247.797684,202.746406 246.216957,201.774325 C243.876519,200.346125 241.796133,198.86901 240.142219,197.615406 C237.652712,195.719278 236.130516,194.32249 236.130516,194.32249 C236.130516,194.32249 235.672892,194.678655 234.847626,195.286274 C233.741576,196.099886 231.976683,197.367492 229.750695,198.84806 C228.90122,199.417251 227.990487,200.010888 227.018496,200.628971 C219.854976,205.165026 209.668053,210.689307 201.00316,211.855612 C185.785144,213.905389 189.366923,193.452999 189.366923,193.452999 L201.478224,187.118574 L206.620271,188.169658 L212.344806,189.335963 L214.373133,189.751508 C214.373133,189.751508 214.75804,189.604852 215.420269,189.349944 C217.55263,188.52932 222.562967,186.591286 226.890163,184.859264 C229.119599,183.965326 231.165385,183.12377 232.541898,182.519647 C237.416873,180.372105 242.874503,185.575115 242.874503,185.575115 L267,201.501964 Z" id="Path" fill="#412E8F"></path>
                <path d="M166.850621,211.91049 C167.748678,211.691893 168.509334,211.062563 168.927914,210.191837 C169.346495,209.321111 169.380003,208.298433 169.019423,207.39898 L174,202.009483 L171.650704,198 L164.71795,205.715807 C163.302586,206.475223 162.646362,208.237582 163.190469,209.818018 C163.734575,211.398454 165.307028,212.297415 166.850639,211.910514 L166.850621,211.91049 Z" id="Path" fill="#976E33"></path>
                <circle id="Oval" fill="#976E33" cx="191.5" cy="150.5" r="8.5"></circle>
                <path d="M181,172.825319 L188.03866,193.164114 L187.9964,193.235298 C187.017396,194.884807 186.697448,196.215343 187.071213,197.082998 C187.270526,197.529434 187.651645,197.86453 188.114158,198 L204.770792,186.13364 L204.187575,181.377708 L204.220052,181.324579 C205.830017,178.699092 206.351319,176.321384 205.769707,174.257825 C205.242792,172.588055 204.10497,171.189371 202.592627,170.352351 L202.534593,170.305754 L194.226811,160 L183.121376,162.010941 L181,172.825319 Z" id="Path" fill="#412E8F"></path>
                <path d="M170.793834,208 L166,202.133363 L177.556306,183.164688 L182.944175,166.604911 L183.111316,166.658634 L182.944175,166.604911 C183.747928,164.134513 185.92373,162.354855 188.516581,162.047059 C191.109432,161.739264 193.645433,162.959589 195.011486,165.172411 C196.37754,167.385232 196.32397,170.18611 194.87429,172.345687 L184.982881,187.081013 L170.793834,208 Z" id="Path" fill="#412E8F"></path>
                <path d="M203,148 L190.770488,148 L190.645051,146.302731 L190.01803,148 L188.134948,148 L187.886428,144.636063 L186.643683,148 L183,148 L183,147.83334 C183.005656,142.957118 187.093485,139.005511 192.137847,139 L193.862068,139 C198.906447,139.005503 202.994304,142.957102 203,147.83334 L203,148 Z" id="Path" fill="#0B0B0C"></path>
                <path d="M190.561103,160 C190.475703,160 190.390473,159.991499 190.30638,159.974874 L182,158.337491 L182,143 L191.143726,143 L190.917346,143.294886 C187.767714,147.398838 190.140594,154.053456 191.835356,157.654881 C192.090282,158.193163 192.046478,158.847055 191.722677,159.336946 C191.45312,159.753365 191.021083,160 190.561103,160 Z" id="Path" fill="#0B0B0C"></path>
                <polygon id="Path" fill="#F0F0F0" points="327 132 327 153.499077 232.689289 153.499077 219.070816 170 220.626207 153.499077 214 153.499077 214 132"></polygon>
                <circle id="Oval" fill="#FFFFFF" cx="253.5" cy="142.5" r="3.5"></circle>
                <circle id="Oval" fill="#FFFFFF" cx="240.5" cy="142.5" r="3.5"></circle>
                <circle id="Oval" fill="#FFFFFF" cx="227.5" cy="142.5" r="3.5"></circle>
                <path d="M437.520263,212 L0.47973713,212 C0.214785629,212 0,211.776142 0,211.5 C0,211.223858 0.214785629,211 0.47973713,211 L437.520263,211 C437.785214,211 438,211.223858 438,211.5 C438,211.776142 437.785214,212 437.520263,212 Z" id="Path" fill="#F0F0F0"></path>
            </g>
        </g>
    </g>
</svg>