<?xml version="1.0" encoding="UTF-8"?>
<svg width="510px" height="590px" viewBox="0 0 510 590" version="1.1" xmlns="http://www.w3.org/2000/svg" xmlns:xlink="http://www.w3.org/1999/xlink">
    <title>Group 5</title>
    <defs>
        <linearGradient x1="49.9996071%" y1="0.210517477%" x2="49.9996071%" y2="78.0773209%" id="linearGradient-1">
            <stop stop-color="#662D91" offset="0%"></stop>
            <stop stop-color="#290175" offset="55%"></stop>
        </linearGradient>
        <linearGradient x1="49.9996071%" y1="0.210517477%" x2="49.9996071%" y2="43.0372593%" id="linearGradient-2">
            <stop stop-color="#662D91" stop-opacity="0" offset="0%"></stop>
            <stop stop-color="#290175" stop-opacity="0.176147461" offset="100%"></stop>
        </linearGradient>
        <path d="M469.097584,21.8660553 L447.72948,388.157722 L446.648172,406.625951 L445.112225,433.022305 L437.125297,569.877722 C436.79343,575.554636 434.136669,580.843588 429.781194,584.498006 C425.425718,588.152425 419.756833,589.849026 414.110656,589.18793 L47.6703946,546.308451 C37.7670571,545.151195 30.1048361,537.080432 29.4601985,527.127305 L15.5998063,313.338347 L0.0437279109,73.3927219 C-0.664133514,62.4485561 7.30124355,52.8588638 18.1863423,51.5504303 L446.021506,0.146680273 C452.094288,-0.580713559 458.17707,1.42149641 462.631485,5.61402488 C467.0859,9.80655336 469.453867,15.7582501 469.097584,21.8660553 Z" id="path-3"></path>
        <linearGradient x1="50.0007039%" y1="0.216334035%" x2="50.0007039%" y2="78.0778653%" id="linearGradient-5">
            <stop stop-color="#662D91" offset="0%"></stop>
            <stop stop-color="#290175" offset="55%"></stop>
        </linearGradient>
        <path d="M21.9979657,0 L41.2603416,34.6418128 C47.1278667,45.1940783 43.2603761,58.4664738 32.6220596,64.2865377 C29.368552,66.0664831 25.7135276,67 21.9979657,67 C9.84882473,67 0,57.2308402 0,45.1799709 C0,41.4944634 0.941129472,37.8690035 2.73558984,34.6418128 L21.9979657,0 L21.9979657,0 Z" id="path-6"></path>
        <path d="M13.4987517,0 L25.318846,21.7157633 C28.9193727,28.3306163 26.5461399,36.6506253 20.0180821,40.2990236 C18.0216115,41.4148103 15.7787555,42 13.4987517,42 C6.04359699,42 0,35.8760491 0,28.3217728 C0,26.0114546 0.577511267,23.7387783 1.6786574,21.7157633 L13.4987517,0 L13.4987517,0 Z" id="path-8"></path>
    </defs>
    <g id="Page-1" stroke="none" stroke-width="1" fill="none" fill-rule="evenodd">
        <g id="Innovation-final-v3" transform="translate(-790.000000, -124.000000)">
            <g id="Group-5" transform="translate(790.515357, 124.510924)">
                <g id="nxt_illu-01-01">
                    <g id="Layer_2">
                        <path d="M469.097584,21.8660553 L447.72948,388.157722 L446.648172,406.625951 L445.112225,433.022305 L437.125297,569.877722 C436.79343,575.554636 434.136669,580.843588 429.781194,584.498006 C425.425718,588.152425 419.756833,589.849026 414.110656,589.18793 L47.6703946,546.308451 C37.7670571,545.151195 30.1048361,537.080432 29.4601985,527.127305 L15.5998063,313.338347 L0.0437279109,73.3927219 C-0.664133514,62.4485561 7.30124355,52.8588638 18.1863423,51.5504303 L446.021506,0.146680273 C452.094288,-0.580713559 458.17707,1.42149641 462.631485,5.61402488 C467.0859,9.80655336 469.453867,15.7582501 469.097584,21.8660553 Z" id="Path" fill="url(#linearGradient-1)" opacity="0.243313017"></path>
                        <g id="Path-29">
                            <mask id="mask-4" fill="white">
                                <use xlink:href="#path-3"></use>
                            </mask>
                            <use id="Mask" fill="url(#linearGradient-2)" xlink:href="#path-3"></use>
                            <path d="M-9.85928588,474.810286 C82.9890416,486.156913 112.695741,428.719308 235.465028,428.719308 C358.234316,428.719308 358.234316,474.810286 481.011866,474.810286 C562.863567,474.810286 558.124776,512.306729 466.795494,587.299616 C413.651563,641.57941 377.500549,668.719308 358.342452,668.719308 C339.184355,668.719308 251.505227,668.719308 95.3050668,668.719308 L2.46596632,587.299616 C-67.6497535,504.742311 -71.7581709,467.245868 -9.85928588,474.810286 Z" fill="url(#linearGradient-5)" opacity="0.768870762" mask="url(#mask-4)"></path>
                        </g>
                        <g id="Group" opacity="0.31" transform="translate(51.092486, 47.426576)" fill="#7D66DE">
                            <ellipse id="Oval" cx="342.841961" cy="126.456667" rx="2.02130719" ry="2.02197917"></ellipse>
                            <ellipse id="Oval" cx="385.049804" cy="109.106979" rx="2.02130719" ry="2.02197917"></ellipse>
                            <ellipse id="Oval" cx="389.669935" cy="27.5640625" rx="2.02130719" ry="2.02197917"></ellipse>
                            <ellipse id="Oval" cx="338.793203" cy="103.907604" rx="2.02130719" ry="2.02197917"></ellipse>
                            <ellipse id="Oval" cx="39.3202614" cy="25.2532292" rx="2.02130719" ry="2.02197917"></ellipse>
                            <ellipse id="Oval" cx="183.275425" cy="102.168333" rx="2.02130719" ry="2.02197917"></ellipse>
                            <ellipse id="Oval" cx="157.840131" cy="64.0027083" rx="2.02130719" ry="2.02197917"></ellipse>
                            <ellipse id="Oval" cx="84.9932026" cy="22.93625" rx="2.02130719" ry="2.02197917"></ellipse>
                            <ellipse id="Oval" cx="115.054771" cy="6.16427083" rx="2.02130719" ry="2.02197917"></ellipse>
                            <ellipse id="Oval" cx="253.228627" cy="2.1203125" rx="2.02130719" ry="2.02197917"></ellipse>
                            <ellipse id="Oval" cx="106.963399" cy="49.5415625" rx="2.02130719" ry="2.02197917"></ellipse>
                            <ellipse id="Oval" cx="2.31620915" cy="29.8810417" rx="2.02130719" ry="2.02197917"></ellipse>
                            <ellipse id="Oval" cx="195.993072" cy="42.6029167" rx="2.02130719" ry="2.02197917"></ellipse>
                            <ellipse id="Oval" cx="276.353856" cy="104.485312" rx="2.02130719" ry="2.02197917"></ellipse>
                            <ellipse id="Oval" cx="211.026928" cy="75.5691667" rx="2.02130719" ry="2.02197917"></ellipse>
                            <ellipse id="Oval" cx="402.393725" cy="59.9526042" rx="2.02130719" ry="2.02197917"></ellipse>
                        </g>
                    </g>
                    <g id="Layer_1" transform="translate(36.245299, 18.519841)">
                        <path d="M0,521.683567 L357.239344,498.057714 L393.698459,565.683793 C391.38501,572.058319 378.808711,570.606207 373.677286,569.990905 L9.91829458,527.436638 C7.53101276,526.895172 1.15057139,523.418718 0,521.683567 Z" id="Path" fill="#4D33B7"></path>
                        <polyline id="Path" stroke="#5233D3" points="170.223038 57.3153556 211.908178 32.4202478 255.334558 79.8969289 352.603986 56.1585884"></polyline>
                        <ellipse id="Oval" fill="#7D66DE" cx="353.471529" cy="55.8693966" rx="2.02426732" ry="2.02434267"></ellipse>
                        <ellipse id="Oval" fill="#7D66DE" cx="255.045377" cy="80.1861207" rx="2.02426732" ry="2.02434267"></ellipse>
                        <ellipse id="Oval" fill="#7D66DE" cx="212.197359" cy="32.7094397" rx="2.02426732" ry="2.02434267"></ellipse>
                        <ellipse id="Oval" fill="#7D66DE" cx="169.933857" cy="58.1890841" rx="2.02426732" ry="2.02434267"></ellipse>
                        <polyline id="Path" stroke="#5233D3" points="332.047521 14.1827047 355.791131 23.4491487 394.578307 2.02434267 438.583049 32.7094397 470.42988 20.5510776"></polyline>
                        <ellipse id="Oval" fill="#7D66DE" cx="332.047521" cy="14.1827047" rx="2.02426732" ry="2.02434267"></ellipse>
                        <ellipse id="Oval" fill="#7D66DE" cx="355.206616" cy="23.4429957" rx="2.02426732" ry="2.02434267"></ellipse>
                        <ellipse id="Oval" fill="#7D66DE" cx="394.578307" cy="2.02434267" rx="2.02426732" ry="2.02434267"></ellipse>
                        <ellipse id="Oval" fill="#7D66DE" cx="438.583049" cy="32.7094397" rx="2.02426732" ry="2.02434267"></ellipse>
                        <ellipse id="Oval" fill="#7D66DE" cx="470.42988" cy="21.1294612" rx="2.02426732" ry="2.02434267"></ellipse>
                    </g>
                </g>
                <g id="undraw_animating_re_5gvn" transform="translate(22.596362, 219.489076)">
                    <path d="M98.8882805,64.9289527 C98.8882805,66.6585508 99.3429749,68.3881489 100.251471,69.9644764 C102.068472,73.1171237 105.32343,75 108.958301,75 L161.818268,75 C165.453139,75 168.708097,73.1171237 170.525097,69.9644764 C171.433601,68.3881565 171.88828,66.6585585 171.88828,64.9289527 C171.88828,63.199347 171.433594,61.4697566 170.525097,59.8934291 L144.09511,14.0355236 C142.278109,10.8828763 139.023151,9 135.38828,9 C131.754279,9 128.499321,10.8828763 126.681451,14.0355236 L100.251464,59.8934291 C99.3429596,61.4697489 98.8882805,63.199347 98.8882805,64.9289527 L98.8882805,64.9289527 Z" id="Path" fill="#00A982"></path>
                    <path d="M194.88828,104.354109 C194.88828,105.323732 195.137421,106.293355 195.635229,107.177054 C196.630843,108.944445 198.414384,110 200.406095,110 L229.370466,110 C231.362177,110 233.14571,108.944445 234.141332,107.177054 C234.63914,106.293362 234.88828,105.323732 234.88828,104.354109 C234.88828,103.384485 234.63914,102.414862 234.141332,101.531163 L219.659147,75.8229457 C218.663532,74.0555547 216.879992,73 214.88828,73 C212.897043,73 211.11351,74.0555547 210.117414,75.8229457 L195.635229,101.531163 C195.137421,102.414855 194.88828,103.384485 194.88828,104.354109 Z" id="Path" fill="#33DBC8"></path>
                    <path d="M3.88828049,102.354109 C3.88828049,103.323732 4.13742123,104.293355 4.63522864,105.177054 C5.63084346,106.944445 7.4143842,108 9.40609531,108 L38.3704657,108 C40.3621768,108 42.1457101,106.944445 43.1413323,105.177054 C43.6391398,104.293362 43.8882805,103.323732 43.8882805,102.354109 C43.8882805,101.384485 43.6391398,100.414862 43.1413323,99.5311628 L28.6591472,73.8229457 C27.6635323,72.0555547 25.8799916,71 23.8882805,71 C21.8970435,71 20.1135101,72.0555547 19.1174138,73.8229457 L4.63522864,99.5311628 C4.13742123,100.414855 3.88828049,101.384485 3.88828049,102.354109 Z" id="Path" fill="#33DBC8"></path>
                    <path d="M357.88828,74.2849348 C357.88828,75.2519443 358.13314,76.2189615 358.62241,77.1027831 C359.640918,78.9426479 361.624623,80 363.68899,80 L376.08757,80 C378.151938,80 380.135643,78.9426479 381.15415,77.1027831 C381.64342,76.2189538 381.88828,75.2519443 381.88828,74.2849348 C381.88828,73.3034317 381.636025,72.3219286 381.131995,71.4274021 L374.844025,54.0797426 C373.804,52.2339834 371.908368,50.9784403 369.828438,51 C367.83646,51.0211985 366.056335,52.0861663 365.057785,53.8574904 L358.644573,71.4274021 C358.140543,72.3219209 357.88828,73.3034317 357.88828,74.2849348 L357.88828,74.2849348 Z" id="Path" fill="#FFFFFF"></path>
                    <path d="M228.702244,110 L200.074317,110 C197.902554,110 195.937065,109.237242 194.816689,107.959576 C194.20931,107.267477 193.88828,106.471795 193.88828,105.658735 C193.88828,104.846045 194.20931,104.050364 194.81633,103.357894 L209.131012,87.0404242 C210.252105,85.7627576 212.217235,85 214.38828,85 C216.560043,85 218.525532,85.7627576 219.645908,87.0404242 L233.959872,103.357894 C234.56725,104.050364 234.88828,104.846045 234.88828,105.658735 C234.88828,106.471795 234.56725,107.267477 233.959872,107.959576 C232.839496,109.237242 230.874007,110 228.702244,110 L228.702244,110 Z M214.38828,86.5151515 C212.623348,86.5151515 211.063254,87.0922121 210.21492,88.0587879 C207.986767,94.9916894 203.305658,100.483765 195.900597,104.375886 C195.53703,104.790924 195.352559,105.222614 195.352559,105.658735 C195.352559,106.095227 195.537022,106.526545 195.900597,106.941583 C196.748565,107.907788 198.308659,108.484848 200.074309,108.484848 L228.702237,108.484848 C230.467887,108.484848 232.027981,107.907788 232.875949,106.941583 C233.239517,106.526545 233.423987,106.095227 233.423987,105.658735 C233.423987,105.222614 233.239524,104.790924 232.875598,104.375886 L218.561634,88.0584167 C217.714025,87.0922121 216.153931,86.5151515 214.388273,86.5151515 L214.38828,86.5151515 Z" id="Shape" fill="#3F3D56" fill-rule="nonzero"></path>
                    <path d="M141.702737,75 C139.483469,75 137.281917,74.3370002 135.350809,73.0280383 L91.8613964,43.5599536 C88.4691464,41.2617298 86.6220561,37.452762 86.9194063,33.3712568 C87.0657836,31.3717742 87.7274316,29.4548468 88.8347636,27.8274795 C89.9407913,26.2014291 91.4813477,24.8793578 93.289709,24.0054096 L140.603929,1.1489684 C144.294181,-0.635622419 148.523986,-0.326398099 151.914917,1.97247665 C155.307819,4.2713514 157.155569,8.08032684 156.856907,12.1611735 L153.032752,64.4863504 C152.886375,66.4864839 152.224727,68.4034189 151.118047,70.0294692 C150.010707,71.656829 148.470151,72.9789003 146.662442,73.851539 C145.072653,74.620013 143.382436,75 141.702729,75 L141.702737,75 Z M145.559053,2.68854281 C144.27777,2.68854281 142.988615,2.97811041 141.77494,3.56445888 C130.284472,15.0863611 118.365861,26.2178463 94.4613721,26.4202416 C93.0770364,27.0897886 91.9001179,28.0973903 91.0586265,29.3342952 C90.2171276,30.5725019 89.7130199,32.0360835 89.6014283,33.5664842 C89.3736569,36.6803521 90.7829349,39.5865415 93.371103,41.3403491 L136.860516,70.8084338 C139.448676,72.561583 142.67289,72.7961239 145.491446,71.436707 C146.87447,70.767811 148.051381,69.7602093 148.894192,68.5220025 C149.735691,67.2851052 150.239146,65.8221822 150.35073,64.2911229 L154.174885,11.9659461 C154.403309,8.8520782 152.993378,5.94653976 150.40521,4.19208117 C148.932261,3.19430404 147.252547,2.68854281 145.559053,2.68854281 Z" id="Shape" fill="#FFFFFF" fill-rule="nonzero"></path>
                    <rect id="Rectangle" fill="#3F3D56" fill-rule="nonzero" x="0" y="108" width="390.88828" height="1"></rect>
                    <path d="M72.0467866,50.1657718 C53.2958504,55.500688 44.9721883,72.1582171 44.8882805,72.3297635 L46.2842551,73 C46.3648519,72.8350208 54.336157,56.917568 72.2398343,51.7075511 L70.862555,58.4680831 C73.7781754,55.076859 78.7726643,51.544356 82.8882805,49.2986814 C78.2919138,48.3399812 72.4767629,46.4025333 68.6918695,44 L72.0467866,50.1657718 L72.0467866,50.1657718 Z" id="Path" fill="#6C63FF" fill-rule="nonzero"></path>
                    <path d="M171.290897,35 L170.88828,36.4992683 C171.067195,36.5471651 188.366596,41.3704446 196.904301,57.9866745 L189.934451,57.9125823 C193.848979,60.137125 198.294571,64.3788051 201.297568,68 C201.385082,63.2993691 202.214974,57.2151566 203.88828,53.0389844 L198.398685,57.5047882 C189.577375,40.0796683 171.477257,35.0496043 171.290897,35 L171.290897,35 Z" id="Path" fill="#6C63FF" fill-rule="nonzero"></path>
                    <path d="M270.88828,53.0937578 C266.980007,50.8656261 262.238838,47.3610779 259.473327,44 L260.79171,50.7981411 C242.258037,50.4548031 230.012663,63.8269266 229.88828,63.9647808 L230.969006,65 C231.08831,64.8674423 242.794489,52.1050278 260.534174,52.3132588 L257.385212,58.3137556 C260.986862,55.9428917 266.517561,54.0358541 270.88828,53.0937578 L270.88828,53.0937578 Z" id="Path" fill="#6C63FF" fill-rule="nonzero"></path>
                    <g id="Group" transform="translate(234.888280, 13.000000)">
                        <g transform="translate(27.110613, 293.683297)" fill-rule="nonzero" id="Path">
                            <polygon fill="#976E33" points="20.3932359 25.1582427 14.0262989 25.1046334 11.207811 0 20.6048235 0.0791263232"></polygon>
                            <path d="M23.2687862,38.0260369 L22.0842154,22.2277947 L20.4217021,22.117053 L13.6399056,21.6534296 L11.4578482,21.5080921 L11.416285,26.0545084 L1.24709792,32.9468055 C0.478144001,33.4727273 0.00709421854,34.3446071 0,35.2718998 C-0.013660614,36.5659292 0.852243546,37.6731093 2.03677608,38.0260292 C2.28618598,38.1021828 2.54942733,38.1437023 2.82649249,38.1437023 L15.4825798,38.2474744 L15.5933997,38.0260292 L17.6993076,33.7633488 L18.4682232,38.0260292 L18.5097865,38.275177 L23.2895563,38.3166966 L23.2687938,38.0260292 L23.2687862,38.0260369 Z" fill="#2F2E41"></path>
                        </g>
                        <g transform="translate(121.617469, 290.571234)" fill-rule="nonzero" id="Path">
                            <polygon fill="#976E33" points="17.2165175 24.300562 11.0472296 25.8739256 1.90071334 2.32213673 11.006003 0"></polygon>
                            <path d="M23.2881055,36.0071693 L18.1017689,21.0357567 L16.4661228,21.3530568 L9.79086988,22.6359211 L7.64407966,23.0523928 L8.76684495,27.4584925 L0.698256531,36.7177319 C0.0893588575,37.4224789 -0.143029476,38.3856512 0.0874616226,39.2839268 C0.405095477,40.5385307 1.52546628,41.3879198 2.76094875,41.4267722 C3.02155845,41.4367299 3.28668174,41.4096768 3.55454378,41.3389568 L15.8170237,38.2087442 L15.8675146,37.9663673 L16.8131485,33.3076503 L18.6469026,37.2325498 L18.7508145,37.4628216 L23.3825311,36.2828963 L23.2881131,36.0071769 L23.2881055,36.0071693 Z" fill="#2F2E41"></path>
                        </g>
                        <path d="M54.5105366,108.542236 L92.0941187,115.082041 L92.0941187,120.931306 C92.0941187,120.931306 94.6761943,120.579265 94.6761943,122.298845 L94.6761943,125.318262 L96.7657997,127.405672 C96.7657997,127.405672 117.054203,151.531642 113.611433,180.191252 L116.480412,204.838513 L119.349391,209.997245 L118.201801,215.729165 C118.201801,215.729165 122.21837,219.741513 122.21837,220.314701 C122.21837,220.887897 121.07078,226.046622 121.07078,226.046622 C121.07078,226.046622 126.80873,228.33939 126.234939,228.912586 C125.661147,229.485782 126.808737,232.924934 126.808737,232.924934 C126.808737,232.924934 141.153616,274.767956 137.137047,303.427565 L127.382529,306.293529 L94.1024108,228.912593 L74.5933808,173.312955 L58.1449579,212.290021 L58.1449579,219.827273 L58.7187568,221.461093 L58.7187568,222.607477 L56.9973679,226.619825 L58.1449579,228.912593 L55.8497779,235.790898 L55.8497779,244.388782 C55.8497779,244.388782 56.2319407,290.244152 48.1988107,305.147145 L38.4442919,305.147145 L28.689773,216.875557 L30.4111618,207.704484 L30.9849607,203.118948 L33.8539395,201.972564 L30.9849607,198.533412 L40.7394795,137.775049 L54.5105595,108.542236 L54.5105366,108.542236 Z" id="Path" fill="#412E8F" fill-rule="nonzero"></path>
                        <path d="M63.6687575,39.1460051 L83.9954729,39.1460051 L86.5978826,47.7624673 L94.6575815,50.9505459 C100.244472,53.1604813 103.774851,58.7090982 103.40613,64.7004144 L103.283116,66.6992061 L105.374396,78.9315595 C105.374396,78.9315595 102.892124,83.6086863 101.653131,84.6116129 C100.414137,85.6145394 95.5862934,106.520258 95.5862934,106.520258 L104.806932,138.654815 L92.3810143,131.469917 L50.4909307,115.728509 L50.4939678,107.395844 L52.8325623,101.327114 L54.284452,99.8767496 L47.9958984,88.3722148 L42.595595,54.6556356 L58.8941898,49.0024672 L63.6687499,39.1460051 L63.6687575,39.1460051 Z" id="Path" fill="#6C63FF" fill-rule="nonzero"></path>
                        <g transform="translate(0.000000, 38.991355)" fill-rule="nonzero" id="Path">
                            <path d="M2.93622357,33.1223034 L6.46590683,6.83349571 L6.51486008,6.84311712 C6.09056796,5.63613883 6.11006817,4.2715269 6.68171731,3.01499722 C7.85756693,0.430285512 10.9082137,-0.71270546 13.4955602,0.461832109 C16.0829067,1.63653016 17.2271842,4.6839635 16.0514111,7.26859879 C15.5127264,8.45258964 14.5786366,9.32921515 13.4780108,9.82396482 L10.9183195,29.064011 L44.631374,16.2415193 C44.631374,16.2415193 57.7800998,23.3281856 52.8245679,25.1849412 C49.599804,26.3932187 14.4999778,39.6094773 8.08276413,39.2996665 C4.88704778,39.1453725 2.51086808,36.2899699 2.93621592,33.122311 L2.93622357,33.1223034 Z" fill="#976E33"></path>
                            <path d="M52.6408651,18.9069851 L57.0551112,25.2395669 C49.8065643,30.4484083 15.3195145,42.9259662 15.1879473,41.3645777 C15.0563802,39.8031893 13.3398492,41.2208604 13.1642785,41.8234936 C12.9887078,42.4261268 11.0278083,41.5244734 11.0393906,42.2330186 C11.0509729,42.9415637 9.4049074,42.5042215 8.58110197,42.61721 C8.58110197,42.61721 2.19341018,40.447495 1.23042573,36.8348288 C0.267441279,33.2221627 1.43633692,29.1262024 1.43633692,29.1262024 L0,25.3116473 L15.9510719,22.3408795 L12.9970005,27.1477845 L45.3232451,14.5391035 L52.6408574,18.9069927 L52.6408651,18.9069851 Z" fill="#6C63FF"></path>
                        </g>
                        <g transform="translate(87.893709, 51.135966)" fill-rule="nonzero" id="Path">
                            <path d="M36.2145129,42.883097 L50.4987108,20.5437582 L50.4551356,20.519548 C51.8322146,19.7110748 52.8402431,18.2696368 52.9847772,16.4537664 C53.1463558,14.4237719 52.0299095,12.4389729 50.2087017,11.5240451 C47.2149873,10.0200948 43.7647125,11.6453406 42.9017154,14.6981998 C42.5481947,15.9490285 42.694978,17.2201011 43.2154783,18.3070372 L32.7432691,34.6413805 L18.7147159,9.3062231 C16.1179597,4.61655555 11.0418004,1.73554427 5.69495622,2.17517911 C3.64093161,2.34406956 2.33140342,3.00813001 3.26417747,4.67316825 C4.94508175,7.67365615 23.1990144,40.3817683 28.2969459,44.2810438 C30.8356758,46.2228407 34.4933765,45.5748898 36.2145129,42.883097 Z" fill="#976E33"></path>
                            <path d="M7.45890278,0 L0,1.98838321 C2.16830242,10.635475 20.4316217,42.3848625 21.5404332,41.2779423 C22.6492446,40.171022 23.0437853,42.3593073 22.7885843,42.9324115 C22.5333832,43.5055156 24.612332,44.0810958 24.1458953,44.6144152 C23.6794585,45.1477346 25.2182385,45.8747888 25.7740212,46.4919497 C25.7740212,46.4919497 32.0506024,48.9526683 35.1187603,46.8159672 C38.1869182,44.6792661 39.9400857,40.7997683 39.9400857,40.7997683 L43.4999181,38.8140522 L33.2441162,26.2665691 L32.3943079,31.8391898 L19.106602,7.35546195 C17.0615051,3.587195 13.387502,0.974918225 9.15354672,0.278676888 L7.45889513,0 L7.45890278,0 Z" fill="#6C63FF"></path>
                        </g>
                        <ellipse id="Oval" fill="#976E33" fill-rule="nonzero" cx="69.1176546" cy="19.3526172" rx="15.9633962" ry="15.9466212"></ellipse>
                        <path d="M48.1684473,12.4363622 C47.9991879,4.63298133 51.395621,2.64951963 56.359897,2.52554181 C66.6089745,-1.35818967 68.6737016,0.161640994 71.6726334,1.06464704 L72.8264277,0.954570204 C76.3674179,0.616743447 79.7634991,1.33553663 82.6991565,2.85526794 C88.8918692,6.05457277 92.421912,12.7415189 92.0832173,19.6973142 C91.8490388,24.4923816 89.913316,29.7045473 92.220675,33.8911735 C94.1508056,37.3868544 96.1870972,40.8381881 92.2134762,41.2172898 L81.8093304,42.2098842 C81.0610854,40.9978698 80.4955028,39.7533611 79.8705398,38.203711 C79.4040878,39.4664308 79.1946422,40.9503359 79.1834424,42.4604 C75.3822021,43.8268078 71.3745533,44.1070284 67.2177498,43.6019695 C66.65333,42.6331038 66.1704149,41.5712032 66.3806713,40.4632436 C66.018376,41.5556592 65.6048858,42.6378572 65.4223535,43.7732519 C63.0037537,41.7839899 60.7833156,42.0251288 58.7531824,44.4095104 C54.816045,40.2882548 55.4454297,31.9754361 60.8723174,30.5102465 C65.4634806,29.2706899 59.9862474,16.1875184 55.298723,15.3848226 C55.2685432,15.3796566 53.4554291,19.9776877 53.421256,19.8832542 C52.911726,18.4754873 53.3017072,17.7821959 52.6767901,16.2325457 C52.2868013,17.2974726 52.0720465,18.516151 52.0117481,19.7752637 C50.9167987,19.3984546 49.8208625,18.9064025 48.7284223,18.2937047 C47.6084417,16.3304563 47.3156478,14.3767835 48.168432,12.4363469 L48.1684473,12.4363622 Z" id="Path" fill="#131212"></path>
                    </g>
                    <circle id="Oval" fill="#412E8F" fill-rule="nonzero" cx="135.38828" cy="107.5" r="8.5"></circle>
                    <circle id="Oval" fill="#412E8F" fill-rule="nonzero" cx="215.38828" cy="108.5" r="8.5"></circle>
                    <circle id="Oval" fill="#412E8F" fill-rule="nonzero" cx="371.38828" cy="113.5" r="8.5"></circle>
                    <circle id="Oval" fill="#412E8F" fill-rule="nonzero" cx="23.3882805" cy="107.5" r="8.5"></circle>
                    <path d="M27.4412668,111.260942 C26.9767595,111.260395 26.5120787,111.255257 26.0473978,111.250128 C26.062881,111.175046 26.0796666,111.099563 26.092796,111.025429 C26.3057607,109.823428 26.4049789,108.605974 26.394377,107.390618 C26.3842478,106.229353 26.320067,104.980491 25.8685831,103.87401 C25.5385052,103.065015 24.6302798,102.80926 23.7429012,103.141747 C22.1807616,103.727137 20.8351174,104.89359 19.6011069,105.639772 C18.9660234,106.023751 18.6619149,106.708009 19.0819597,107.316091 C19.4491395,107.847597 20.4224814,108.142232 21.0617999,107.755663 C21.9275694,107.232188 22.6593919,106.675263 23.441137,106.174969 C23.4678685,106.476939 23.4871237,106.779359 23.4950727,107.081876 C23.5225663,108.123943 23.4667495,109.171189 23.3259146,110.206721 C23.3190846,110.257078 23.2831113,110.468855 23.2873463,110.450607 C23.2763971,110.511926 23.2660363,110.573302 23.2535533,110.634474 C23.2131617,110.832994 23.1662972,111.030918 23.102348,111.225051 L23.0957495,111.242703 C22.413512,111.251328 21.7314385,111.268424 21.050021,111.3125 C20.3343957,111.358765 19.7176895,111.742744 19.628832,112.374857 C19.5456952,112.966684 19.9557361,113.561599 20.6653514,113.719188 C21.8596167,113.984369 23.223918,114.203375 24.3667172,113.685682 C25.3915252,113.690771 26.4166806,113.710162 27.4412475,113.711404 C28.2232338,113.7124 28.8882805,113.147593 28.8882805,112.486173 C28.8882805,111.820914 28.2260603,111.261939 27.4412475,111.260942 L27.4412668,111.260942 Z" id="Path" fill="#FFFFFF" fill-rule="nonzero"></path>
                    <g id="Group" transform="translate(129.888280, 102.000000)" fill="#FFFFFF" fill-rule="nonzero">
                        <path d="M5.47924683,2.65771284 L5.47184718,2.65334088 C5.49061427,2.66831752 5.50535715,2.68033013 5.51672459,2.68736149 C5.50392799,2.67766249 5.49164853,2.66765885 5.47924683,2.65771284 Z" id="Path"></path>
                        <path d="M8.58963814,9.42518085 C7.39500379,9.42895177 6.20289867,9.50618977 5.00861221,9.52342238 C4.84356336,9.52578538 4.69292832,9.52437746 4.53636979,9.5247809 C5.1245902,9.11561959 5.71573473,8.70967756 6.28140829,8.27649927 C7.77216024,7.13489845 9.38061081,5.55313737 9.15255682,3.68388068 C8.92317709,1.80452155 6.96759178,-0.184597711 4.65057073,0.0137049393 C2.80223802,0.171902454 1.26592228,1.43998554 0.738704326,2.97451131 C0.44505014,3.82911051 0.54748874,4.77653364 1.17978736,5.49223454 C1.91176028,6.32085722 3.12573526,6.57835014 4.27537937,6.52805199 C4.18700669,6.59564039 4.10419079,6.66866286 4.01467102,6.73504093 C3.30226438,7.26360374 2.55496562,7.75421858 1.83527217,8.27489374 C1.22002001,8.72003524 0.58566228,9.20507603 0.185611104,9.820123 C-0.268146294,10.5176362 0.147108482,11.413345 1.02845654,11.6343555 C3.4868137,12.2508104 6.07780041,11.9031118 8.58964754,11.8952159 C9.351755,11.8928035 10,11.3293144 10,10.6601984 C10,9.99228444 9.3545663,9.42276845 8.58964754,9.42518085 L8.58963814,9.42518085 Z M3.74310295,4.06093154 C3.73145344,4.0606763 3.71963469,4.05947422 3.70780653,4.05837094 C3.64375772,4.04193697 3.57489491,4.02952916 3.50952978,4.01751656 C3.52950037,4.0278166 3.55090952,4.03761441 3.56134613,4.05294509 C3.55337294,4.04123713 3.52105706,4.02656512 3.48749067,4.01294699 L3.48375794,4.01218952 C3.45735614,4.00706008 3.45661335,4.00505111 3.44083621,4.00113199 C3.46798079,4.01857044 3.48669147,4.03575365 3.48083381,4.04766745 C3.48026026,4.04882014 3.45202501,4.02409508 3.42057415,3.99630719 C3.44502026,4.05957302 3.4352042,4.11153433 3.41391728,4.00776815 C3.41391728,4.00294335 3.41414294,3.99957587 3.41403011,3.99424883 L3.40714759,3.99243747 L3.40622616,3.99062611 L3.40587827,3.98338891 L3.40473119,3.98233502 L3.40587827,3.98218682 L3.40582186,3.98113294 L3.40151558,3.97952742 L3.39973854,3.97792189 L3.39951288,3.97751846 L3.40582186,3.98113294 L3.40232419,3.95420132 C3.40863316,3.96244301 3.40920671,3.97128573 3.41368223,3.9802849 C3.41253514,3.92722031 3.40909388,3.85947548 3.40650823,3.81334346 C3.41442501,3.77887 3.42268968,3.74449535 3.43285362,3.71087817 C3.44754009,3.66253135 3.51066746,3.51705451 3.53018674,3.46454157 C3.57001509,3.39920914 3.60863995,3.33367911 3.65202239,3.27000984 C3.68180903,3.22643842 3.78217912,3.10452572 3.82086038,3.05337129 C3.88324497,2.99216382 3.96742421,2.90899774 4.00002216,2.88050177 C4.05706621,2.83054943 4.11720364,2.78381636 4.17648546,2.73602118 C4.22687265,2.69546321 4.3783163,2.54370425 4.2206765,2.6998928 C4.07605896,2.84316307 4.19955882,2.71451541 4.27358352,2.67576879 C4.34170355,2.64014265 4.40798071,2.60254872 4.47788718,2.56953258 L4.5035932,2.56028642 C4.46021076,2.56721899 4.45177685,2.55918314 4.57165681,2.53008612 L4.59455153,2.52451208 C4.62249532,2.51330635 4.65233838,2.50179599 4.65917388,2.4909937 C4.65211272,2.50219943 4.63311997,2.51003767 4.61734283,2.51893803 L4.76063464,2.48386353 C4.74576952,2.48170637 4.72849741,2.48406114 4.71690431,2.47748261 C4.72040199,2.47944217 4.74491391,2.48070189 4.76838218,2.48195337 L4.79615672,2.47516901 C4.98157105,2.42944043 4.92602197,2.46808001 4.84125979,2.48431637 C4.89991165,2.48537026 4.96154405,2.48541966 5.01714954,2.48421757 C4.92297561,2.46954556 4.83575001,2.42562011 5.01892659,2.47281424 L5.06070123,2.48306489 C5.09145631,2.48180517 5.1170025,2.48024905 5.12066942,2.47793545 C5.10838995,2.48567489 5.08612518,2.48391294 5.06626742,2.48446458 C5.11097559,2.4954727 5.17403715,2.51119859 5.22442434,2.52446268 L5.23211547,2.528283 C5.30115692,2.56295406 5.36967184,2.59773215 5.43801752,2.63351473 C5.45425538,2.64200341 5.4595395,2.64627658 5.47181897,2.65336558 C5.45678461,2.64140237 5.44410084,2.63251025 5.42527734,2.6150224 C5.44169384,2.63024605 5.46137296,2.64341133 5.47921862,2.65773754 C5.5435495,2.69572668 5.5511842,2.70864496 5.51669639,2.68738619 C5.56610573,2.72477429 5.61540225,2.76216239 5.66125751,2.80181469 C5.74263485,2.87212012 5.81574752,2.9479996 5.89396567,3.02076683 C5.90635797,3.03232659 5.91198997,3.03679736 5.92013241,3.04383696 L5.93568389,3.06600141 C6.0493677,3.22007396 6.14446307,3.38158956 6.25194133,3.53762167 C6.25630402,3.54772412 6.26094878,3.55771952 6.26427721,3.5680278 C6.28798054,3.64184892 6.30989741,3.71808244 6.33612997,3.79115431 C6.34060549,3.80366915 6.34284325,3.80733304 6.34657598,3.81668624 C6.3486445,3.89372663 6.35633562,3.97030595 6.35421069,4.04770039 L6.35139938,4.10584501 C6.34462969,4.14674879 6.33647786,4.19670114 6.33062959,4.21870915 C6.31180609,4.28966502 6.28954133,4.35971522 6.26440885,4.42911497 C6.25459279,4.45625242 6.24305611,4.48343928 6.23307081,4.51072493 C6.06986483,4.75972917 5.90814441,5.00039292 5.72920829,5.2404968 C5.69535043,4.62017219 5.06874024,4.01889978 4.32522123,4.05724296 C4.13021649,4.067296 3.93808888,4.0651306 3.74308415,4.06096447 L3.74310295,4.06093154 Z" id="Shape"></path>
                        <path d="M3.41370103,3.98026843 L3.41375744,3.98408875 L3.41324031,3.98394055 L3.41375744,3.98413815 L3.41381386,3.98569427 L3.4087648,3.98277963 L3.40589708,3.98217859 L3.40589708,3.98338067 L3.41392669,3.99046967 L3.41403951,3.99424059 L3.41995359,3.99574731 L3.42058355,3.99629896 L3.42041431,3.99584612 L3.44084561,4.00112376 L3.41674739,3.98735743 L3.41565672,3.98484623 C3.43683081,3.99278327 3.45892633,4.00128019 3.48750948,4.01293876 L3.50954858,4.01750832 C3.47706346,4.00082735 3.44349708,3.98896295 3.41554389,3.98454159 L3.41371043,3.98026843 L3.41370103,3.98026843 Z" id="Path"></path>
                        <path d="M4.84126919,2.48428344 C4.81159538,2.4837318 4.78921778,2.48302372 4.76839158,2.48192044 L4.76064404,2.4838306 C4.78871006,2.48789793 4.81304334,2.48965988 4.84126919,2.48428344 Z" id="Path"></path>
                        <path d="M5.06628622,2.48443988 L5.06072003,2.48303196 L5.01715895,2.48418464 C5.03598245,2.48709928 5.04883546,2.48494212 5.06628622,2.48443988 L5.06628622,2.48443988 Z" id="Path"></path>
                        <polygon id="Path" points="3.4087648 3.98277963 3.41324031 3.98394055 3.40595349 3.98117411"></polygon>
                        <polygon id="Path" points="3.40584067 3.98112471 3.40584067 3.98112471 3.40595349 3.98117411"></polygon>
                        <path d="M4.61734283,2.51891333 L4.59456094,2.52448738 C4.55944316,2.53850894 4.5308036,2.55026631 4.50360261,2.56026995 C4.53585266,2.55509111 4.5803916,2.53966986 4.61734283,2.51891333 Z" id="Path"></path>
                    </g>
                    <path d="M219.11749,110.088251 C219.06808,110.034139 219.00526,109.991621 218.952732,109.940069 C219.13596,109.777433 219.300937,109.594014 219.421171,109.364147 C220.096603,108.073309 219.311949,106.678577 218.319919,105.704596 C216.467962,103.886343 212.911539,103.456695 210.568042,104.736026 C209.959824,105.068022 209.670438,105.831004 210.077451,106.388647 C210.470726,106.927415 211.297388,107.177332 211.948389,106.821943 C212.049214,106.766897 212.152593,106.717752 212.25547,106.666144 C212.285517,106.651054 212.301543,106.642155 212.317342,106.633314 C212.332256,106.629038 212.341099,106.626928 212.362686,106.620237 C212.590145,106.54981 212.819392,106.498644 213.05419,106.452004 C213.084574,106.445957 213.102041,106.441777 213.116955,106.438049 C213.133036,106.437703 213.145444,106.437703 213.170705,106.436575 C213.29278,106.431172 213.414191,106.421582 213.536604,106.419818 C213.755385,106.416621 213.97072,106.432058 214.18827,106.446995 C214.237844,106.45442 214.287363,106.462086 214.336664,106.47108 C214.457737,106.492315 214.577816,106.517036 214.697048,106.545244 C214.890011,106.590901 215.079967,106.648163 215.266148,106.712744 C215.318393,106.735009 215.422337,106.776882 215.451381,106.790152 C215.557877,106.838757 215.66276,106.89051 215.765089,106.94571 C215.866243,107.000314 215.960505,107.064847 216.061377,107.119402 C215.803369,106.979869 216.029944,107.100133 216.092317,107.150268 C216.242052,107.270636 216.376252,107.40343 216.506952,107.539573 C216.523252,107.558497 216.541949,107.58081 216.560145,107.604299 C216.626584,107.689913 216.689231,107.777452 216.747603,107.867535 C216.758679,107.88459 216.811982,107.974827 216.847198,108.032676 C216.86667,108.078873 216.904065,108.161395 216.910236,108.179682 C216.920365,108.209758 216.926983,108.237185 216.932717,108.262051 C216.897109,108.274629 216.86038,108.28707 216.835009,108.292868 C216.761897,108.30948 216.687618,108.320488 216.613502,108.33243 C216.579335,108.336263 216.516907,108.343244 216.4522,108.347174 C216.241596,108.360001 216.030491,108.362458 215.819504,108.362804 C215.13718,108.363883 214.565965,108.821651 214.476489,109.410111 C214.381625,110.033704 214.808166,110.525341 215.455939,110.735398 C215.457443,110.735841 215.529052,110.760119 215.585308,110.778793 C215.639449,110.80022 215.727968,110.834331 215.745836,110.841948 C215.92116,110.9167 216.093256,110.998046 216.260129,111.086712 C216.361064,111.140382 216.45777,111.198327 216.556644,111.2548 L216.59754,111.278442 C216.730081,111.372656 216.858611,111.47233 216.975399,111.581441 C217.042559,111.644154 217.172146,111.8495 217.0311,111.625923 C217.06287,111.676251 217.102544,111.729872 217.140267,111.776955 C217.149173,111.78806 217.153175,111.791112 217.159967,111.798729 L217.160578,111.801676 C217.162027,111.806983 217.169758,111.828709 217.178327,111.853285 C217.156238,111.889948 217.133256,111.926369 217.106828,111.960923 C217.205257,111.811017 217.115288,111.951582 217.040453,112.019754 C216.870745,112.174273 216.783001,112.231043 216.60167,112.328656 C216.511364,112.377212 216.417385,112.422282 216.321846,112.462931 C216.296303,112.469123 216.191976,112.504119 216.151254,112.514733 C216.066956,112.536796 215.981491,112.552974 215.895698,112.568894 C215.863034,112.572091 215.791034,112.580199 215.738844,112.581721 C215.630898,112.584918 215.524566,112.579853 215.41663,112.577985 C215.387978,112.577494 215.368441,112.577542 215.352807,112.577792 L215.330882,112.571994 C215.117334,112.524814 214.904224,112.488635 214.693903,112.428579 C214.587516,112.398157 214.483135,112.363555 214.378025,112.330033 C214.331896,112.315337 214.314038,112.309982 214.300518,112.305948 C214.307747,112.30747 214.307638,112.305948 214.266132,112.289086 C213.827066,112.11053 213.402969,111.907543 212.982044,111.697977 C212.358748,111.38765 211.459758,111.548418 211.111107,112.131273 C210.769302,112.702726 210.936111,113.452486 211.601698,113.783894 C212.788743,114.374906 214.033166,114.921389 215.416621,114.993732 C216.902907,115.071487 218.391418,114.419485 219.292805,113.388935 C220.200538,112.351114 220.013363,111.069077 219.117481,110.088267 L219.11749,110.088251 Z M217.021482,108.232353 L217.030881,108.218398 C217.042012,108.21992 217.069771,108.211618 217.145727,108.169592 C217.104276,108.192542 217.062432,108.211812 217.021482,108.232353 L217.021482,108.232353 Z" id="Shape" fill="#FFFFFF" fill-rule="nonzero"></path>
                    <path d="M376.8293,112.681125 C376.653768,112.216984 376.140467,111.836981 375.567402,111.807838 C375.49573,111.23621 375.443634,110.662708 375.438442,110.083649 C375.432862,109.46364 374.80504,108.869192 374.052665,108.898042 C373.3066,108.926599 372.660912,109.419061 372.666889,110.083649 C372.67258,110.720067 372.729822,111.347412 372.811074,111.969879 C372.283454,111.942816 371.755279,111.909769 371.227769,111.926075 C370.593971,111.945661 369.965364,112.03274 369.332923,112.069352 C369.242589,112.074561 369.152763,112.068245 369.062826,112.070893 C369.150906,111.846521 369.239032,111.622188 369.343862,111.402882 C369.361452,111.369646 369.385869,111.323233 369.406674,111.28565 C369.446372,111.21396 369.487594,111.142902 369.530387,111.072517 C369.622246,110.921423 369.721088,110.77327 369.830592,110.630902 C369.867353,110.58309 370.082139,110.362338 369.858899,110.581841 C369.925324,110.516475 369.98797,110.449899 370.058396,110.387426 C370.109087,110.342412 370.163779,110.301461 370.21752,110.259341 C370.23838,110.246125 370.26483,110.230103 370.300131,110.21115 C370.913512,109.881511 371.211805,109.139108 370.797301,108.589041 C370.401181,108.06339 369.557964,107.810745 368.901272,108.163685 C367.105112,109.129062 366.496183,111.043999 365.938223,112.68333 C365.766239,113.188715 366.052975,113.757253 366.575062,114.022253 C367.972904,114.731657 369.609099,114.368197 371.125351,114.301337 C371.811699,114.271088 372.505206,114.319958 373.196856,114.349433 C373.397202,115.498713 373.579672,116.645725 373.583451,117.81339 C373.585483,118.433502 374.219384,119.027752 374.969227,118.998997 C375.718332,118.97029 376.357147,118.478025 376.355004,117.81339 C376.350948,116.555271 376.147276,115.330736 375.933284,114.112374 C376.581403,113.891377 377.06041,113.292298 376.829281,112.681117 L376.8293,112.681125 Z" id="Shape" fill="#FFFFFF" fill-rule="nonzero"></path>
                </g>
                <g id="Group-15" opacity="0.900000036" transform="translate(53.484643, 394.489076)">
                    <g id="Path-29">
                        <mask id="mask-7" fill="white">
                            <use xlink:href="#path-6"></use>
                        </mask>
                        <use id="Mask" fill="#8E66DA" xlink:href="#path-6"></use>
                    </g>
                    <rect id="Rectangle" fill="#000000" x="22" y="1" width="1" height="70"></rect>
                    <polygon id="Rectangle" fill="#000000" points="31.0909091 15 32 15.9090909 22.9090909 25 22 24.0909091"></polygon>
                    <polygon id="Rectangle-Copy-14" fill="#000000" points="6.91891892 28 6 28.9189189 22.0810811 45 23 44.0810811"></polygon>
                    <polygon id="Rectangle-Copy-16" fill="#000000" points="43.0638298 39 44 39.9361702 22.9361702 61 22 60.0638298"></polygon>
                </g>
                <g id="Group-15-Copy" opacity="0.699999988" transform="translate(103.484643, 406.489076)">
                    <g id="Path-29">
                        <mask id="mask-9" fill="white">
                            <use xlink:href="#path-8"></use>
                        </mask>
                        <use id="Mask" fill="#8E66DA" xlink:href="#path-8"></use>
                    </g>
                    <rect id="Rectangle" fill="#000000" x="13" y="1" width="1" height="43"></rect>
                    <polygon id="Rectangle" fill="#000000" points="19.4545455 9 20 9.54545455 14.5454545 15 14 14.4545455"></polygon>
                    <polygon id="Rectangle-Copy-14" fill="#000000" points="3.59459459 17 3 17.5945946 13.4054054 28 14 27.4054054"></polygon>
                    <polygon id="Rectangle-Copy-16" fill="#000000" points="26.4042553 24 27 24.5957447 13.5957447 38 13 37.4042553"></polygon>
                </g>
                <g id="Group-2" transform="translate(33.484643, 96.489076)">
                    <rect id="Rectangle" fill="#F96A00" x="0" y="8" width="140" height="14"></rect>
                    <path d="M149,16 L8,16 L8,0 L149,0 L149,16 Z M9.56666667,14.4 L147.433333,14.4 L147.433333,1.6 L9.56666667,1.6 L9.56666667,14.4 Z" id="Shape" fill="#FFFFFF" fill-rule="nonzero"></path>
                </g>
                <g id="Group-2-Copy" transform="translate(85.484643, 128.489076)">
                    <rect id="Rectangle" fill="#F96A00" x="0" y="8" width="140" height="14"></rect>
                    <path d="M149,16 L8,16 L8,0 L149,0 L149,16 Z M9.56666667,14.4 L147.433333,14.4 L147.433333,1.6 L9.56666667,1.6 L9.56666667,14.4 Z" id="Shape" fill="#FFFFFF" fill-rule="nonzero"></path>
                </g>
                <g id="Group-2-Copy-2" transform="translate(135.484643, 160.489076)">
                    <rect id="Rectangle" fill="#F96A00" x="0" y="8" width="140" height="14"></rect>
                    <path d="M149,16 L8,16 L8,0 L149,0 L149,16 Z M9.56666667,14.4 L147.433333,14.4 L147.433333,1.6 L9.56666667,1.6 L9.56666667,14.4 Z" id="Shape" fill="#FFFFFF" fill-rule="nonzero"></path>
                </g>
            </g>
        </g>
    </g>
</svg>