<?xml version="1.0" encoding="UTF-8"?>
<svg width="465px" height="433px" viewBox="0 0 465 433" version="1.1" xmlns="http://www.w3.org/2000/svg" xmlns:xlink="http://www.w3.org/1999/xlink">
    <title>Group 34</title>
    <g id="Page-1" stroke="none" stroke-width="1" fill="none" fill-rule="evenodd">
        <g id="Innovation-final-v3" transform="translate(-130.000000, -2430.000000)">
            <g id="Group-34" transform="translate(130.000000, 2430.000000)">
                <circle id="Oval" fill="#FFE45D" opacity="0.900000036" cx="234" cy="133" r="133"></circle>
                <circle id="Oval-Copy-3" fill="#FC85B7" opacity="0.900000036" cx="332" cy="300" r="133"></circle>
                <circle id="Oval-Copy-4" fill="#A89EE2" opacity="0.900000036" cx="136" cy="300" r="133"></circle>
                <text id="Design-Thinking" font-family="Lato-Bold, Lato" font-size="24" font-weight="bold" line-spacing="32" fill="#20201D">
                    <tspan x="195.588" y="98">Design </tspan>
                    <tspan x="185.562" y="130">Thinking</tspan>
                </text>
                <text id="LEAN" font-family="Lato-Bold, Lato" font-size="24" font-weight="bold" line-spacing="32" fill="#20201D">
                    <tspan x="305.334" y="310">LEAN</tspan>
                </text>
                <text id="Agile" font-family="Lato-Bold, Lato" font-size="24" font-weight="bold" line-spacing="32" fill="#20201D">
                    <tspan x="105.352" y="310">Agile</tspan>
                </text>
                <text id="Explore-the-problem" font-family="Lato-Regular, Lato" font-size="14" font-weight="normal" fill="#20201D">
                    <tspan x="172.298" y="160">Explore the problem</tspan>
                </text>
                <text id="Build-the-thing-righ" font-family="Lato-Regular, Lato" font-size="14" font-weight="normal" fill="#212121">
                    <tspan x="75.901" y="340">Build the thing right</tspan>
                </text>
                <text id="Build-the-right-thin" font-family="Lato-Regular, Lato" font-size="14" font-weight="normal" fill="#212121">
                    <tspan x="268.363" y="340">Build the right things</tspan>
                </text>
                <path d="M232.000029,31.7894737 C234.822966,31.7894737 237.555844,32.8419958 239.717454,34.7613662 C241.879447,36.6811414 243.331878,39.3451292 243.81969,42.2849463 C244.285692,45.095184 243.841672,47.9852104 242.566008,50.4906942 C242.860708,50.7336134 242.946737,51.1539259 242.754335,51.49503 L237.507668,60.3363656 C237.421569,60.4813281 237.293143,60.593769 237.142698,60.6621641 L237.142857,64.2722428 C237.141642,65.7900045 236.546065,67.245073 235.487265,68.3185221 C234.428901,69.3924963 232.993253,69.9970596 231.495104,70 L231.367636,70 C229.868762,69.9983593 228.431455,69.3945335 227.371847,68.3206224 C226.311825,67.2470683 225.71553,65.7908446 225.714286,64.2722428 L225.714286,59.3029989 C225.714286,59.2329305 225.722338,59.1647785 225.737556,59.0994405 L221.24072,51.5089687 C221.053042,51.1649055 221.143797,50.7453677 221.44029,50.5035339 L221.462,50.545 L221.436538,50.4956629 C220.158643,47.9890317 219.714039,45.0970419 220.180367,42.2849463 C220.668247,39.3450281 222.12061,36.6810402 224.282221,34.7613662 C226.444214,32.8419958 229.176709,31.7894737 232.000029,31.7894737 Z M235.401,64.21 L227.455,64.21 L227.455648,64.3251697 C227.456862,65.3757258 227.869841,66.3832263 228.603047,67.1260926 C229.336252,67.8689589 230.330261,68.2874381 231.367584,68.2885932 L231.495125,68.2885932 C232.531215,68.2857217 233.523958,67.8669006 234.256034,67.1239923 C234.988058,66.3811051 235.40022,65.3748857 235.401464,64.3251697 L235.401,64.21 Z M235.401464,60.2087413 L232.5099,60.2092252 C232.476212,60.3040952 232.429224,60.3917775 232.370264,60.4677137 C232.232329,60.6457894 232.041392,60.7435259 231.843537,60.7364865 C231.555344,60.7364759 231.307599,60.5200254 231.197118,60.2093297 L227.927919,60.2091811 C227.861252,60.3562232 227.749784,60.4852812 227.599558,60.5747462 C227.554912,60.6092011 227.506732,60.6386954 227.455979,60.6628293 L227.455,61.894 L235.401,61.894 L235.401464,60.2087413 Z M232.002699,33.491021 C229.55914,33.491021 227.193867,34.4012877 225.321958,36.0621214 C223.450432,37.7225605 222.192093,40.0276466 221.768116,42.5719331 C221.34414,45.1162195 221.781949,47.736698 223.004061,49.973788 L223.121827,50.1777357 C223.235104,50.3718077 223.269874,50.6057971 223.218279,50.8271384 C223.181239,50.9860501 223.101997,51.1288665 222.991622,51.2397897 L227.264,58.421 L231.135,58.421 L231.135682,55.2269836 L229.370512,53.01845 C229.229281,52.8544532 229.147314,52.6254472 229.143033,52.3840054 C229.138752,52.1425636 229.212824,51.9089989 229.347799,51.7375492 C229.483105,51.565686 229.667789,51.4708543 229.859711,51.4736842 C230.051963,51.4770616 230.234674,51.5781079 230.366356,51.7536955 L232.321,54.154 L233.668973,52.7914445 C233.964323,52.5554666 234.387571,52.5837549 234.649795,52.8563038 C234.911722,53.12919 234.927411,53.5583644 234.685946,53.8498858 L232.657059,55.8974598 L232.57,55.969 L232.57,58.421 L236.272368,58.4210526 C236.427935,58.4210526 236.57393,58.4623318 236.700272,58.5346757 L241.030211,51.2463439 C240.968597,51.1866395 240.915336,51.1163052 240.873103,51.0370155 C240.731411,50.7714059 240.735153,50.4453183 240.883572,50.1832705 L241.001338,49.973788 C242.2235,47.736698 242.661258,45.1161183 242.237282,42.5719331 C241.813305,40.0277478 240.554966,37.7225605 238.68344,36.0621214 C236.811531,34.4012776 234.446259,33.491021 232.002699,33.491021 Z M235.911253,36.5168473 C238.118826,37.648821 239.796877,39.7569334 240.537154,42.3278344 C240.595911,42.5293917 240.578649,42.7490041 240.489019,42.9365627 C240.399389,43.1237534 240.244696,43.2622976 240.061119,43.3208866 C239.99539,43.348154 239.926346,43.3643676 239.856635,43.3684211 C239.546238,43.367604 239.272367,43.1428328 239.180748,42.8137775 C238.560975,40.6655744 237.159795,38.9030913 235.316369,37.953554 C235.131797,37.8754365 234.984745,37.7158867 234.910054,37.5128483 C234.835363,37.3101873 234.840011,37.0817267 234.922337,36.8827446 C235.004995,36.6833946 235.158025,36.5312101 235.345257,36.4615749 C235.532812,36.3923 235.737635,36.412567 235.911253,36.5168473 Z M231.428571,30.6315789 C230.797077,30.6315789 230.285714,30.282006 230.285714,29.8507573 L230.285714,26.7804592 C230.285714,26.3495729 230.797077,26 231.428571,26 C232.060066,26 232.571429,26.3495729 232.571429,26.7804592 L232.571429,29.8507573 C232.571429,30.282006 232.060066,30.6315789 231.428571,30.6315789 Z M251.229319,48 L248.198895,48 C247.773247,48 247.428571,47.4819088 247.428571,46.8421053 C247.428571,46.2023017 247.773247,45.6842105 248.198895,45.6842105 L251.229319,45.6842105 C251.654967,45.6842105 252,46.2023017 252,46.8421053 C252,47.4819088 251.654967,48 251.229319,48 Z M215.821559,48 L212.770681,48 C212.345033,48 212,47.4819088 212,46.8421053 C212,46.2023017 212.345033,45.6842105 212.770681,45.6842105 L215.801105,45.6842105 C216.226753,45.6842105 216.571429,46.2023017 216.571429,46.8421053 C216.571429,47.4819088 216.226753,48 215.801105,48 L215.821559,48 Z M244.71725,35.2631579 C244.427136,35.26282 244.165731,35.0858088 244.054557,34.8145532 C243.943716,34.5432976 244.004813,34.2311638 244.21013,34.0234177 L246.205926,32.003983 L246.205926,32.0036451 C246.3398,31.8664997 246.522414,31.7894737 246.713046,31.7894737 C246.903677,31.7894737 247.086625,31.8664927 247.220499,32.0036451 C247.497929,32.2884173 247.497929,32.7457995 247.220499,33.0305716 L245.195986,35.0500063 C245.067787,35.178037 244.897189,35.2540425 244.717241,35.2631579 L244.71725,35.2631579 Z M217.28013,63.0526316 C217.090987,63.0496059 216.910774,62.9716086 216.777517,62.8357893 C216.502732,62.5523753 216.502732,62.0971744 216.777517,61.8137604 L218.768499,59.8090344 C218.900106,59.665477 219.083298,59.5824409 219.276403,59.5790758 C219.469178,59.5753776 219.65502,59.6516936 219.791578,59.7905389 C219.928145,59.9293886 220.003205,60.1183284 219.999895,60.3146612 C219.996258,60.5106584 219.914584,60.6969129 219.773387,60.8307191 L217.782404,62.8357893 C217.650468,62.973632 217.469265,63.0516246 217.280121,63.0526316 L217.28013,63.0526316 Z M246.710902,63.0526316 C246.515454,63.0515648 246.328211,62.9715574 246.191876,62.8301679 L244.149224,60.7685603 L244.149224,60.7682154 C243.928155,60.4740532 243.95549,60.0609106 244.212778,59.7988573 C244.470068,59.5364155 244.879413,59.5050393 245.172961,59.7254023 L247.215614,61.78701 C247.499557,62.0773849 247.499557,62.5443189 247.215614,62.8350292 C247.080644,62.9691767 246.900573,63.0471138 246.710942,63.0526316 L246.710902,63.0526316 Z M219.268378,35.2630268 C219.088431,35.2539063 218.917835,35.1779027 218.789637,35.0498838 L216.7795,33.030525 C216.502072,32.7457636 216.502072,32.2883985 216.7795,32.0036371 C216.913372,31.8664968 217.096318,31.7894737 217.286948,31.7894737 C217.477578,31.7894737 217.660191,31.8664898 217.794064,32.0036371 L219.789843,34.0229959 L219.789843,34.0233337 C219.996831,34.2327669 220.057254,34.5485987 219.942748,34.8212018 C219.827901,35.0937962 219.561164,35.2684406 219.268378,35.2630359 L219.268378,35.2630268 Z" id="Combined-Shape" fill="#20201D" fill-rule="nonzero" transform="translate(232.000000, 48.000000) scale(-1, 1) translate(-232.000000, -48.000000) "></path>
                <path d="M356.232432,262.027558 C355.662371,262.032937 355.09772,262.137379 354.563686,262.335506 L338.749533,240.914782 L338.749083,240.91523 C339.795922,239.747056 340.197483,238.141449 339.823414,236.621905 C339.448929,235.102361 338.346634,233.862927 336.875738,233.308446 C335.405303,232.753965 333.754092,232.955228 332.461203,233.846345 C331.168314,234.737462 330.399065,236.20461 330.404487,237.769022 C330.404937,238.930425 330.836203,240.050632 331.615813,240.915287 L315.733595,262.42896 C315.131993,262.164492 314.480853,262.027329 313.822468,262.027329 C312.122228,262.016571 310.54312,262.903207 309.673849,264.356906 C308.804105,265.810582 308.774364,267.613907 309.595888,269.094894 C310.416959,270.57634 311.965819,271.513633 313.666059,271.558042 C315.365839,271.601971 316.962021,270.746713 317.860132,269.310513 L330.430238,275.642978 L330.430689,275.642978 C330.299104,276.077784 330.227002,276.527818 330.21528,276.981443 C330.145431,278.287664 330.618606,279.564737 331.523513,280.51362 C332.427947,281.46256 333.685211,282 334.999789,282 C336.314712,282 337.572069,281.462548 338.476526,280.51362 C339.381421,279.564679 339.854554,278.287664 339.784758,276.981443 C339.780702,276.625082 339.735638,276.270521 339.650012,275.924028 L352.27434,269.444566 C353.217536,270.820211 354.816394,271.604655 356.487794,271.511935 C358.159655,271.419595 359.660315,270.463035 360.443985,268.991411 C361.228106,267.519834 361.179883,265.747377 360.318261,264.319749 C359.456178,262.892122 357.90553,262.017598 356.231362,262.014385 L356.232432,262.027558 Z M335.072311,234.139609 C335.834021,234.158212 336.557524,234.473051 337.084702,235.015425 C337.612339,235.557799 337.901073,236.283863 337.888494,237.035132 C337.87592,237.786913 337.563013,238.502987 337.017474,239.027605 C336.471934,239.552224 335.738775,239.843316 334.976607,239.837112 C334.214897,239.831388 333.486071,239.528484 332.949236,238.995171 C332.412895,238.461382 332.111594,237.740655 332.111111,236.988776 C332.129972,236.226492 332.45062,235.501869 333.003885,234.969558 C333.557162,234.437198 334.299546,234.139059 335.072361,234.139535 L335.072311,234.139609 Z M314.19976,269.465116 C313.433924,269.465116 312.699126,269.164599 312.157243,268.630715 C311.615385,268.096369 311.311111,267.371722 311.311111,266.616042 C311.311111,265.860362 311.615373,265.135739 312.157243,264.601843 C312.699101,264.067497 313.433936,263.767442 314.19976,263.767442 C314.966064,263.767442 315.700874,264.067485 316.242757,264.601843 C316.784615,265.135727 317.088889,265.860362 317.088889,266.616042 C317.088889,267.371722 316.784627,268.096345 316.242757,268.630715 C315.700899,269.164599 314.966064,269.465116 314.19976,269.465116 Z M319.384172,267.52927 C319.418866,267.320369 319.440549,267.110122 319.449223,266.898518 C319.443585,265.720141 319.013817,264.586273 318.244444,263.718765 L333.52843,242.116728 L333.52843,242.116279 C333.814216,242.2533 334.113878,242.356624 334.422222,242.424916 L334.422222,272.453621 C333.387925,272.641406 332.449082,273.196679 331.76687,274.023256 L319.384172,267.52927 Z M334.999771,279.72093 L335.00024,279.72093 C334.233936,279.72093 333.499126,279.420887 332.957243,278.886529 C332.415385,278.352183 332.111111,277.627536 332.111111,276.871856 C332.111111,276.116638 332.415373,275.392027 332.957243,274.857657 C333.499101,274.323311 334.233936,274.023256 335.00024,274.023256 C335.766076,274.023256 336.500874,274.323299 337.042757,274.857657 C337.584615,275.392003 337.888889,276.11665 337.888889,276.871856 C337.888889,277.627536 337.584627,278.352159 337.042757,278.886529 C336.500899,279.420875 335.766064,279.72093 335.00024,279.72093 L334.999771,279.72093 Z M339.254926,274.023256 L339.255363,274.023256 C338.625304,273.181004 337.737956,272.576376 336.733333,272.305286 L336.733333,242.422594 C337.043983,242.354821 337.346334,242.252269 337.634671,242.116279 L352.910674,263.423392 L352.911111,263.423392 C352.055283,264.315136 351.584458,265.518491 351.604172,266.766076 C351.609422,267.03405 351.635675,267.301122 351.682492,267.565079 L339.254926,274.023256 Z M357.039327,269.463946 L357.039797,269.463946 C356.268816,269.485707 355.521299,269.203278 354.963086,268.679157 C354.404813,268.154574 354.082242,267.432239 354.067216,266.671997 C354.052191,265.911756 354.34565,265.177473 354.882804,264.632005 C355.419957,264.086585 356.155731,263.775448 356.9267,263.767577 C357.69768,263.760169 358.439548,264.056953 358.987544,264.591717 C359.535492,265.126482 359.843976,265.854756 359.844444,266.614997 C359.840688,267.364594 359.539242,268.083208 359.003976,268.615638 C358.469178,269.148554 357.743789,269.452745 356.983519,269.463851 L357.039327,269.463946 Z" id="Shape" fill="#000000" fill-rule="nonzero"></path>
                <path d="M140.25372,242.25 C140.739992,242.25 141.206201,242.443184 141.549967,242.787068 L147.386974,248.624754 C147.731759,248.968272 147.925868,249.434839 147.926326,249.921583 C147.926766,250.408458 147.733579,250.875387 147.389377,251.21959 C147.045184,251.563804 146.578261,251.756988 146.091399,251.75653 C145.604645,251.75606 145.138076,251.561957 144.794233,251.216851 L142.083085,248.505697 L142.083181,267.915813 C142.035066,269.676289 142.457471,271.417442 143.306799,272.959922 C144.156322,274.502554 145.401714,275.790551 146.914932,276.691166 C148.428153,277.591782 150.154011,278.072281 151.916498,278.083373 C152.244023,278.083326 152.559082,278.170659 152.833196,278.328893 C153.10735,278.487149 153.340546,278.716327 153.504314,278.999973 C153.668105,279.283557 153.75,279.600082 153.75,279.916606 C153.75,280.23313 153.668105,280.549655 153.504295,280.833273 C153.176818,281.400462 152.571589,281.75 151.91593,281.750001 C148.891448,281.758488 145.953156,280.741818 143.580703,278.865815 C141.208232,276.989535 139.541472,274.365037 138.85238,271.419925 C138.203454,269.301167 136.900737,267.459612 135.123644,266.166295 C133.345975,264.872696 131.192158,264.199254 128.999874,264.249933 L125.505686,264.249933 L128.216507,266.960759 C128.67815,267.424097 128.85793,268.098307 128.688236,268.72998 C128.518513,269.361706 128.025009,269.85521 127.393314,270.02491 C126.761633,270.194601 126.087452,270.014814 125.624405,269.553496 L119.787039,263.716783 C119.443174,263.373068 119.25,262.90683 119.25,262.420561 C119.25,261.934394 119.443164,261.468078 119.787077,261.124399 L125.624069,255.287395 C126.087411,254.825862 126.761628,254.64608 127.393307,254.815775 C128.025026,254.985497 128.518535,255.478872 128.688234,256.110567 C128.857929,256.742267 128.678124,257.416462 128.21682,257.879615 L125.513405,260.583356 L129.001686,260.583348 C132.461019,260.557864 135.81466,261.80863 138.416518,264.107628 L138.416518,248.513417 L135.713119,251.216506 C135.249656,251.678158 134.575436,251.857956 133.943748,251.688258 C133.312024,251.518535 132.818652,251.025023 132.648954,250.393333 C132.479261,249.761642 132.659051,249.087451 133.120224,248.624429 L138.957623,242.787017 C139.301241,242.443161 139.767584,242.25 140.25372,242.25 Z" id="Path" stroke="#9990CD" stroke-width="0.5" fill="#000000" fill-rule="nonzero"></path>
            </g>
        </g>
    </g>
</svg>