<?xml version="1.0" encoding="UTF-8"?>
<svg width="380px" height="342px" viewBox="0 0 380 342" version="1.1" xmlns="http://www.w3.org/2000/svg" xmlns:xlink="http://www.w3.org/1999/xlink">
    <title>AI</title>
    <defs>
        <polygon id="path-1" points="0.840655738 0.434229508 3.04131148 0.434229508 3.04131148 11.8032787 0.840655738 11.8032787"></polygon>
        <polygon id="path-3" points="0.781114754 0.434229508 2.98177049 0.434229508 2.98177049 11.8032787 0.781114754 11.8032787"></polygon>
        <polygon id="path-5" points="0.722098361 0.434229508 2.9227541 0.434229508 2.9227541 11.8032787 0.722098361 11.8032787"></polygon>
        <polygon id="path-7" points="0.900196721 0.434229508 3.10085246 0.434229508 3.10085246 11.8032787 0.900196721 11.8032787"></polygon>
        <polygon id="path-9" points="0.32157377 0.894032787 11.6904918 0.894032787 11.6904918 3.09468852 0.32157377 3.09468852"></polygon>
        <polygon id="path-11" points="0.32157377 0.95304918 11.6904918 0.95304918 11.6904918 3.15370492 0.32157377 3.15370492"></polygon>
        <polygon id="path-13" points="0.32157377 1.0132459 11.6904918 1.0132459 11.6904918 3.21390164 0.32157377 3.21390164"></polygon>
        <polygon id="path-15" points="0.32157377 0.835147541 11.6904918 0.835147541 11.6904918 3.03580328 0.32157377 3.03580328"></polygon>
    </defs>
    <g id="Screens" stroke="none" stroke-width="1" fill="none" fill-rule="evenodd">
        <g id="Customer-Experience" transform="translate(-533.000000, -1844.000000)">
            <g id="AI" transform="translate(533.000000, 1844.000000)">
                <g id="thor_diagram">
                    <g id="Thor_1" transform="translate(16.000000, 0.000000)">
                        <circle id="Oval" fill="#FFFFFF" cx="171" cy="171" r="171"></circle>
                        <circle id="Oval-Copy" fill="#120033" cx="170" cy="171" r="110"></circle>
                        <rect id="size" x="100" y="101" width="140" height="140"></rect>
                        <path d="M170.500136,112 C203.360866,112 230,138.639134 230,171.500136 C230,204.361138 203.360866,231 170.500136,231 C137.639407,231 111,204.360866 111,171.500136 C111,138.639407 137.639134,112 170.500136,112 Z" id="circle" fill="#FFFFFF" fill-rule="nonzero" opacity="0.2"></path>
                    </g>
                    <g id="Group-23" transform="translate(271.613761, 14.000000)" fill="#41335B">
                        <circle id="Oval" cx="101.386239" cy="6" r="6"></circle>
                        <circle id="Oval-Copy-8" cx="101.386239" cy="158" r="6"></circle>
                        <circle id="Oval-Copy-9" cx="101.386239" cy="306" r="6"></circle>
                        <path d="M0.772477147,223.5 L67.6222386,304.817521 L101.386239,304.817521 L101.386239,305.817521 L67.1500132,305.817521 L5.1159077e-13,224.135043 L0.772477147,223.5 Z M101.386239,157 L101.386239,158 L24.3862386,158 L24.3862386,157 L101.386239,157 Z M101.386239,5 L101.386239,6 L67.6222386,6 L0.772477147,87.3175213 L5.1159077e-13,86.6824787 L67.1500132,5 L101.386239,5 Z" id="Combined-Shape" fill-rule="nonzero"></path>
                    </g>
                    <g id="Group-23-Copy" transform="translate(54.000000, 170.000000) scale(-1, 1) translate(-54.000000, -170.000000) translate(0.000000, 14.000000)" fill="#41335B">
                        <circle id="Oval" cx="101.386239" cy="6" r="6"></circle>
                        <circle id="Oval-Copy-8" cx="101.386239" cy="158" r="6"></circle>
                        <circle id="Oval-Copy-9" cx="101.386239" cy="306" r="6"></circle>
                        <path d="M0.772477147,223.5 L67.6222386,304.817521 L101.386239,304.817521 L101.386239,305.817521 L67.1500132,305.817521 L5.1159077e-13,224.135043 L0.772477147,223.5 Z M101.386239,157 L101.386239,158 L24.3862386,158 L24.3862386,157 L101.386239,157 Z M101.386239,5 L101.386239,6 L67.6222386,6 L0.772477147,87.3175213 L5.1159077e-13,86.6824787 L67.1500132,5 L101.386239,5 Z" id="Combined-Shape" fill-rule="nonzero"></path>
                    </g>
                </g>
                <g id="Group-49" transform="translate(147.000000, 131.000000)">
                    <path d="M57.1817705,54.6468197 C57.1791475,56.0632131 56.0316066,57.2120656 54.6139016,57.213377 L25.2735738,57.213377 C23.8558689,57.2120656 22.7083279,56.0632131 22.7070164,54.6468197 L22.7070164,25.3064918 C22.7083279,23.8887869 23.8558689,22.7399344 25.2735738,22.738623 L54.6139016,22.738623 C56.0316066,22.7399344 57.180459,23.8887869 57.1817705,25.3064918 L57.1817705,54.6468197 Z M54.6139016,20.5379672 L25.2735738,20.5379672 C22.6414426,20.5405902 20.5089836,22.6743607 20.5063607,25.3064918 L20.5063607,54.6468197 C20.5089836,57.2789508 22.6414426,59.4114098 25.2735738,59.4153443 L54.6139016,59.4153443 C57.2460328,59.4114098 59.3798033,57.2789508 59.3824262,54.6468197 L59.3824262,25.3064918 C59.3798033,22.6743607 57.2460328,20.5405902 54.6139016,20.5379672 L54.6139016,20.5379672 Z" id="Fill-1" fill="#FEFEFE"></path>
                    <path d="M62.6831475,58.3135738 C62.6805246,60.7450492 60.7106885,62.7122623 58.2818361,62.7148852 L21.6064262,62.7148852 C19.1762623,62.7122623 17.2077377,60.7450492 17.2051148,58.3135738 L17.2051148,21.6381639 C17.2077377,19.2093115 19.1762623,17.2407869 21.6064262,17.2381639 L58.2818361,17.2381639 C60.7106885,17.2407869 62.6805246,19.2093115 62.6831475,21.6381639 L62.6831475,58.3135738 Z M58.2818361,15.0375082 L21.6064262,15.0375082 C17.9618361,15.0414426 15.0083934,17.9935738 15.004459,21.6381639 L15.004459,58.3135738 C15.0083934,61.9581639 17.9618361,64.9116066 21.6064262,64.915541 L58.2818361,64.915541 C61.9251148,64.9116066 64.8785574,61.9581639 64.8838033,58.3135738 L64.8838033,21.6381639 C64.8785574,17.9935738 61.9251148,15.0414426 58.2818361,15.0375082 L58.2818361,15.0375082 Z" id="Fill-3" fill="#FEFEFE"></path>
                    <g id="Group-7" transform="translate(41.967213, 68.084197)">
                        <mask id="mask-2" fill="white">
                            <use xlink:href="#path-1"></use>
                        </mask>
                        <g id="Clip-6"></g>
                        <path d="M1.94098361,0.434229508 C1.33245902,0.434229508 0.840655738,0.926032787 0.840655738,1.53455738 L0.840655738,10.703082 C0.840655738,11.3116066 1.33245902,11.8034098 1.94098361,11.8034098 C2.54819672,11.8034098 3.04131148,11.3116066 3.04131148,10.703082 L3.04131148,1.53455738 C3.04131148,0.926032787 2.54819672,0.434229508 1.94098361,0.434229508" id="Fill-5" fill="#FEFEFE" mask="url(#mask-2)"></path>
                    </g>
                    <g id="Group-10" transform="translate(34.098361, 68.084197)">
                        <mask id="mask-4" fill="white">
                            <use xlink:href="#path-3"></use>
                        </mask>
                        <g id="Clip-9"></g>
                        <path d="M1.88144262,0.434229508 C1.27422951,0.434229508 0.781114754,0.926032787 0.781114754,1.53455738 L0.781114754,10.703082 C0.781114754,11.3116066 1.27422951,11.8034098 1.88144262,11.8034098 C2.48865574,11.8034098 2.98177049,11.3116066 2.98177049,10.703082 L2.98177049,1.53455738 C2.98177049,0.926032787 2.48865574,0.434229508 1.88144262,0.434229508" id="Fill-8" fill="#FEFEFE" mask="url(#mask-4)"></path>
                    </g>
                    <g id="Group-13" transform="translate(26.229508, 68.084197)">
                        <mask id="mask-6" fill="white">
                            <use xlink:href="#path-5"></use>
                        </mask>
                        <g id="Clip-12"></g>
                        <path d="M1.82242623,0.434229508 C1.21521311,0.434229508 0.722098361,0.926032787 0.722098361,1.53455738 L0.722098361,10.703082 C0.722098361,11.3116066 1.21521311,11.8034098 1.82242623,11.8034098 C2.42963934,11.8034098 2.9227541,11.3116066 2.9227541,10.703082 L2.9227541,1.53455738 C2.9227541,0.926032787 2.42963934,0.434229508 1.82242623,0.434229508" id="Fill-11" fill="#FEFEFE" mask="url(#mask-6)"></path>
                    </g>
                    <g id="Group-16" transform="translate(49.836066, 68.084197)">
                        <mask id="mask-8" fill="white">
                            <use xlink:href="#path-7"></use>
                        </mask>
                        <g id="Clip-15"></g>
                        <path d="M2.00052459,0.434229508 C1.392,0.434229508 0.900196721,0.926032787 0.900196721,1.53455738 L0.900196721,10.703082 C0.900196721,11.3116066 1.392,11.8034098 2.00052459,11.8034098 C2.6077377,11.8034098 3.10085246,11.3116066 3.10085246,10.703082 L3.10085246,1.53455738 C3.10085246,0.926032787 2.6077377,0.434229508 2.00052459,0.434229508" id="Fill-14" fill="#FEFEFE" mask="url(#mask-8)"></path>
                    </g>
                    <path d="M37.0798689,10.2692459 L37.0798689,1.10072131 C37.0798689,0.493508197 36.5880656,0.000393442623 35.979541,0.000393442623 C35.3723279,0.000393442623 34.8792131,0.493508197 34.8792131,1.10072131 L34.8792131,10.2692459 C34.8792131,10.876459 35.3723279,11.3695738 35.979541,11.3695738 C36.5880656,11.3695738 37.0798689,10.876459 37.0798689,10.2692459" id="Fill-17" fill="#FEFEFE"></path>
                    <path d="M45.0082623,10.2692459 L45.0082623,1.10072131 C45.0082623,0.493508197 44.516459,0.000393442623 43.9079344,0.000393442623 C43.2994098,0.000393442623 42.8076066,0.493508197 42.8076066,1.10072131 L42.8076066,10.2692459 C42.8076066,10.876459 43.2994098,11.3695738 43.9079344,11.3695738 C44.516459,11.3695738 45.0082623,10.876459 45.0082623,10.2692459" id="Fill-19" fill="#FEFEFE"></path>
                    <path d="M52.9367869,10.2692459 L52.9367869,1.10072131 C52.9367869,0.493508197 52.4436721,0.000393442623 51.836459,0.000393442623 C51.2279344,0.000393442623 50.7361311,0.493508197 50.7361311,1.10072131 L50.7361311,10.2692459 C50.7361311,10.876459 51.2279344,11.3695738 51.836459,11.3695738 C52.4436721,11.3695738 52.9367869,10.876459 52.9367869,10.2692459" id="Fill-21" fill="#FEFEFE"></path>
                    <path d="M29.1521311,10.2692459 L29.1521311,1.10072131 C29.1521311,0.493508197 28.6590164,0.000393442623 28.0518033,0.000393442623 C27.4445902,0.000393442623 26.9514754,0.493508197 26.9514754,1.10072131 L26.9514754,10.2692459 C26.9514754,10.876459 27.4445902,11.3695738 28.0518033,11.3695738 C28.6590164,11.3695738 29.1521311,10.876459 29.1521311,10.2692459" id="Fill-23" fill="#FEFEFE"></path>
                    <g id="Group-27" transform="translate(68.196721, 33.985836)">
                        <mask id="mask-10" fill="white">
                            <use xlink:href="#path-9"></use>
                        </mask>
                        <g id="Clip-26"></g>
                        <path d="M10.5904262,0.894032787 L1.42190164,0.894032787 C0.813377049,0.894032787 0.32157377,1.38583607 0.32157377,1.99436066 C0.32157377,2.60157377 0.813377049,3.09468852 1.42190164,3.09468852 L10.5904262,3.09468852 C11.1989508,3.09468852 11.6907541,2.60157377 11.6907541,1.99436066 C11.6907541,1.38583607 11.1989508,0.894032787 10.5904262,0.894032787" id="Fill-25" fill="#FEFEFE" mask="url(#mask-10)"></path>
                    </g>
                    <g id="Group-30" transform="translate(68.196721, 41.854689)">
                        <mask id="mask-12" fill="white">
                            <use xlink:href="#path-11"></use>
                        </mask>
                        <g id="Clip-29"></g>
                        <path d="M10.5904262,0.95304918 L1.42190164,0.95304918 C0.813377049,0.95304918 0.32157377,1.44485246 0.32157377,2.05337705 C0.32157377,2.66190164 0.813377049,3.15370492 1.42190164,3.15370492 L10.5904262,3.15370492 C11.1989508,3.15370492 11.6907541,2.66190164 11.6907541,2.05337705 C11.6907541,1.44485246 11.1989508,0.95304918 10.5904262,0.95304918" id="Fill-28" fill="#FEFEFE" mask="url(#mask-12)"></path>
                    </g>
                    <g id="Group-33" transform="translate(68.196721, 49.723541)">
                        <mask id="mask-14" fill="white">
                            <use xlink:href="#path-13"></use>
                        </mask>
                        <g id="Clip-32"></g>
                        <path d="M10.5904262,1.0132459 L1.42190164,1.0132459 C0.813377049,1.0132459 0.32157377,1.50504918 0.32157377,2.11357377 C0.32157377,2.72078689 0.813377049,3.21390164 1.42190164,3.21390164 L10.5904262,3.21390164 C11.1989508,3.21390164 11.6907541,2.72078689 11.6907541,2.11357377 C11.6907541,1.50504918 11.1989508,1.0132459 10.5904262,1.0132459" id="Fill-31" fill="#FEFEFE" mask="url(#mask-14)"></path>
                    </g>
                    <g id="Group-36" transform="translate(68.196721, 26.116984)">
                        <mask id="mask-16" fill="white">
                            <use xlink:href="#path-15"></use>
                        </mask>
                        <g id="Clip-35"></g>
                        <path d="M10.5904262,0.835147541 L1.42190164,0.835147541 C0.813377049,0.835147541 0.32157377,1.32695082 0.32157377,1.93547541 C0.32157377,2.54268852 0.813377049,3.03580328 1.42190164,3.03580328 L10.5904262,3.03580328 C11.1989508,3.03580328 11.6907541,2.54268852 11.6907541,1.93547541 C11.6907541,1.32695082 11.1989508,0.835147541 10.5904262,0.835147541" id="Fill-34" fill="#FEFEFE" mask="url(#mask-16)"></path>
                    </g>
                    <path d="M10.2689836,42.8077377 L1.10045902,42.8077377 C0.493245902,42.8077377 0.000131147541,43.299541 0.000131147541,43.9080656 C0.000131147541,44.5165902 0.493245902,45.0083934 1.10045902,45.0083934 L10.2689836,45.0083934 C10.8761967,45.0083934 11.3693115,44.5165902 11.3693115,43.9080656 C11.3693115,43.299541 10.8761967,42.8077377 10.2689836,42.8077377" id="Fill-37" fill="#FEFEFE"></path>
                    <path d="M10.2689836,34.8798689 L1.10045902,34.8798689 C0.493245902,34.8798689 0.000131147541,35.3716721 0.000131147541,35.9801967 C0.000131147541,36.5874098 0.493245902,37.0805246 1.10045902,37.0805246 L10.2689836,37.0805246 C10.8761967,37.0805246 11.3693115,36.5874098 11.3693115,35.9801967 C11.3693115,35.3716721 10.8761967,34.8798689 10.2689836,34.8798689" id="Fill-39" fill="#FEFEFE"></path>
                    <path d="M10.2689836,26.9521311 L1.10045902,26.9521311 C0.493245902,26.9521311 0.000131147541,27.4439344 0.000131147541,28.052459 C0.000131147541,28.6596721 0.493245902,29.1527869 1.10045902,29.1527869 L10.2689836,29.1527869 C10.8761967,29.1527869 11.3693115,28.6596721 11.3693115,28.052459 C11.3693115,27.4439344 10.8761967,26.9521311 10.2689836,26.9521311" id="Fill-41" fill="#FEFEFE"></path>
                    <path d="M10.2689836,50.7367869 L1.10045902,50.7367869 C0.493245902,50.7367869 0.000131147541,51.2285902 0.000131147541,51.8371148 C0.000131147541,52.4443279 0.493245902,52.9374426 1.10045902,52.9374426 L10.2689836,52.9374426 C10.8761967,52.9374426 11.3693115,52.4443279 11.3693115,51.8371148 C11.3693115,51.2285902 10.8761967,50.7367869 10.2689836,50.7367869" id="Fill-43" fill="#FEFEFE"></path>
                    <path d="M35.5264262,41.2605902 L37.5434754,34.3412459 L39.5605246,41.2605902 L35.5264262,41.2605902 Z M38.9152787,32.1432131 C38.7539672,31.6592787 38.149377,31.4166557 37.5434754,31.4166557 C36.9388852,31.4166557 36.3526557,31.6592787 36.1913443,32.1432131 L32.1782295,45.213377 C32.1611803,45.2737049 32.154623,45.3340328 32.1572459,45.3943607 C32.1572459,45.9202623 32.9034754,46.2822295 33.4897049,46.2822295 C33.8529836,46.2822295 34.1349508,46.1615738 34.2359344,45.8389508 L35.0621639,42.976 L40.044459,42.976 L40.872,45.8389508 C40.9729836,46.1615738 41.2549508,46.2822295 41.5985574,46.2822295 C42.2031475,46.2822295 42.949377,45.8992787 42.949377,45.3943607 C42.9467541,45.3327213 42.9323279,45.2723934 42.9087213,45.213377 L38.9152787,32.1432131 Z" id="Fill-45" fill="#FEFEFE"></path>
                    <path d="M45.6121967,31.5371803 C45.0876066,31.5371803 44.5433443,31.7378361 44.5433443,32.2217705 L44.5433443,45.5765246 C44.5433443,46.0407869 45.0876066,46.2820984 45.6121967,46.2820984 C46.156459,46.2820984 46.6810492,46.0407869 46.6810492,45.5765246 L46.6810492,32.223082 C46.6810492,31.7378361 46.156459,31.5371803 45.6121967,31.5371803" id="Fill-47" fill="#FEFEFE"></path>
                </g>
            </g>
        </g>
    </g>
</svg>