<?xml version="1.0" encoding="UTF-8"?>
<svg width="32px" height="28px" viewBox="0 0 32 28" version="1.1" xmlns="http://www.w3.org/2000/svg" xmlns:xlink="http://www.w3.org/1999/xlink">
    <title>analytics</title>
    <defs>
        <filter id="filter-1">
            <feColorMatrix in="SourceGraphic" type="matrix" values="0 0 0 0 1.000000 0 0 0 0 1.000000 0 0 0 0 1.000000 0 0 0 1.000000 0"></feColorMatrix>
        </filter>
    </defs>
    <g id="Screens" stroke="none" stroke-width="1" fill="none" fill-rule="evenodd">
        <g id="Customer-Experience" transform="translate(-1157.000000, -1097.000000)">
            <g filter="url(#filter-1)" id="analytics">
                <g transform="translate(1157.000000, 1097.000000)">
                    <path d="M31.062375,25.4620625 L29.6328125,25.4620625 L29.6328125,7.3819375 C29.6328125,6.1811875 28.6559375,5.2043125 27.4551875,5.2043125 L23.814,5.2043125 C22.61325,5.2043125 21.636375,6.1811875 21.636375,7.3819375 L21.636375,25.4620625 L19.9981875,25.4620625 L19.9981875,2.2154375 C19.9981875,1.0146875 19.0213125,0.0378125 17.8205625,0.0378125 L14.179375,0.0378125 C12.978625,0.0378125 12.00175,1.0146875 12.00175,2.2154375 L12.00175,25.462 L10.3885625,25.462 L10.3885625,12.3986875 C10.3885625,11.1979375 9.4116875,10.2210625 8.2109375,10.2210625 L4.5696875,10.2210625 C3.3689375,10.2210625 2.3920625,11.1979375 2.3920625,12.3986875 L2.3920625,25.462 L0.937625,25.462 C0.4198125,25.462 0,25.8818125 0,26.399625 C0,26.9174375 0.4198125,27.33725 0.937625,27.33725 L31.0624375,27.33725 C31.58025,27.33725 32.0000625,26.9174375 32.0000625,26.399625 C32.0000625,25.8818125 31.5801875,25.4620625 31.062375,25.4620625 Z M8.5133125,25.4620625 L4.2673125,25.4620625 L4.2673125,12.39875 C4.2673125,12.232 4.4029375,12.0963125 4.56975,12.0963125 L8.211,12.0963125 C8.37775,12.0963125 8.5134375,12.2319375 8.5134375,12.39875 L8.5134375,25.4620625 L8.5133125,25.4620625 Z M18.1229375,25.462 L13.876875,25.462 L13.876875,2.2154375 C13.876875,2.0486875 14.0125,1.913 14.1793125,1.913 L17.8205,1.913 C17.98725,1.913 18.1229375,2.048625 18.1229375,2.2154375 L18.1229375,25.462 Z M27.757625,25.4620625 L23.5115625,25.4620625 L23.5115625,7.3819375 C23.5115625,7.2151875 23.6471875,7.0795 23.814,7.0795 L27.45525,7.0795 C27.622,7.0795 27.7576875,7.215125 27.7576875,7.3819375 L27.7576875,25.4620625 L27.757625,25.4620625 Z" id="Shape" fill="#120033" fill-rule="nonzero"></path>
                    <path d="M6.991125,13.687625 C6.816125,13.5131875 6.5748125,13.41325 6.3279375,13.41325 C6.0810625,13.41325 5.839125,13.51325 5.66475,13.687625 C5.490375,13.862625 5.3903125,14.1039375 5.3903125,14.3508125 C5.3903125,14.5976875 5.4903125,14.839625 5.66475,15.014 C5.839125,15.188375 6.0810625,15.2884375 6.3279375,15.2884375 C6.5748125,15.2884375 6.816125,15.1884375 6.991125,15.014 C7.1655,14.839625 7.2655625,14.5976875 7.2655625,14.3508125 C7.2655625,14.1039375 7.1655625,13.862625 6.991125,13.687625 Z" id="Path" fill="#000000" fill-rule="nonzero"></path>
                    <path d="M16.679125,3.499 C16.5046875,3.3245625 16.2634375,3.2245625 16.0165625,3.2245625 C15.7696875,3.2245625 15.52775,3.3245625 15.353375,3.499 C15.179,3.674 15.079,3.9153125 15.079,4.1621875 C15.079,4.4090625 15.179,4.651 15.353375,4.825375 C15.52775,4.99975 15.7696875,5.0998125 16.0165625,5.0998125 C16.2634375,5.0998125 16.50475,4.9998125 16.679125,4.825375 C16.8541875,4.650375 16.954125,4.4090625 16.954125,4.1621875 C16.954125,3.9153125 16.854125,3.674 16.679125,3.499 Z" id="Path" fill="#000000" fill-rule="nonzero"></path>
                    <path d="M26.3051875,8.7495625 C26.13075,8.575125 25.8895,8.4751875 25.642625,8.4751875 C25.39575,8.4751875 25.1538125,8.5751875 24.9794375,8.7495625 C24.8050625,8.9245625 24.705,9.165875 24.705,9.41275 C24.705,9.659625 24.805,9.9009375 24.9794375,10.0759375 C25.1538125,10.2503125 25.39575,10.3503125 25.642625,10.3503125 C25.8888125,10.3503125 26.1308125,10.2503125 26.3051875,10.0759375 C26.48025,9.9009375 26.5801875,9.659625 26.5801875,9.41275 C26.5801875,9.165875 26.4801875,8.924625 26.3051875,8.7495625 Z" id="Path" fill="#000000" fill-rule="nonzero"></path>
                </g>
            </g>
        </g>
    </g>
</svg>