<svg width="431" height="423" viewBox="0 0 431 423" fill="none" xmlns="http://www.w3.org/2000/svg">
<path d="M286.097 218.171C286.097 218.171 281.881 205.363 283.249 203.525C284.618 201.686 303.23 193.608 327.002 188.564C350.774 183.519 351.891 185.437 353.731 186.804C355.572 188.171 357.806 202.676 357.759 205.662C357.712 208.648 286.113 218.171 286.113 218.171H286.097Z" fill="url(#paint0_linear_2_281)"/>
<path d="M398.679 315.258L397.027 318.888L385.495 344.268L374.451 368.579C368.96 364.729 367.261 350.68 367.529 339.993C367.796 329.292 366.317 322.188 366.317 322.188C363.029 320.617 360.292 317.788 358.231 315.054C356.815 313.168 355.714 311.345 354.974 309.994C354.266 308.705 353.904 307.872 353.904 307.872C341.019 308.501 332.241 300.156 330.164 298.805C328.087 297.453 324.186 298.71 320.315 307.432C316.823 315.274 307.965 318.448 306.235 318.998C306.046 319.061 305.936 319.093 305.936 319.093C305.558 321.198 305.165 323.1 304.756 324.813C301.468 338.689 297.456 340.543 297.456 340.543C297.015 345.038 299.706 351.575 300.524 359.951C301.342 368.343 300.492 381.324 300.492 381.324L288.897 374.126L266.211 360.061C266.211 360.061 257.621 339.789 258.156 333.032C258.297 331.177 258.738 329.449 259.304 327.909C259.965 326.117 260.783 324.593 261.491 323.461C262.357 322.078 263.064 321.277 263.064 321.277C263.064 321.277 263.033 320.193 263.08 318.511C263.096 317.757 263.143 316.877 263.206 315.918C263.363 313.781 263.647 311.251 264.197 308.784C264.339 308.155 264.512 307.542 264.716 306.961C265.078 305.892 265.534 304.886 266.038 303.975C266.526 303.063 267.061 302.246 267.58 301.523C267.58 301.523 267.611 301.492 267.643 301.445C267.643 301.429 267.674 301.413 267.674 301.397C267.674 301.397 267.674 301.397 267.69 301.382C267.69 301.382 267.69 301.366 267.706 301.35L267.753 301.272C267.753 301.272 267.831 301.162 267.879 301.099C267.926 301.052 267.957 300.989 268.005 300.926C268.162 300.722 268.303 300.533 268.445 300.36C269.405 299.182 270.144 298.49 270.191 298.427C270.191 298.427 270.695 296.652 271.387 294.106C271.922 292.141 272.567 289.721 273.149 287.285C274.518 281.722 274.376 279.742 277.916 277.024C281.409 274.352 282.274 272.089 284.319 270.455C284.351 270.423 284.382 270.408 284.414 270.376C285.609 269.465 287.78 268.082 289.464 267.06C289.464 267.06 289.464 267.06 289.479 267.06C290.785 266.259 291.792 265.662 291.792 265.662C291.776 261.686 293.035 258.37 293.035 258.37C292.657 257.836 292.311 256.893 292.044 256.028C291.713 254.975 291.493 254.017 291.493 254.017C290.911 254.41 290.361 254.755 289.81 255.07C283.8 258.48 279.552 257.317 279.552 257.317C277.932 257.993 276.343 258.464 274.801 258.763C272.677 259.171 270.648 259.234 268.728 259.046C258.707 258.134 251.753 250.764 251.753 250.764L256.992 243.362L268.539 227.019C270.616 227.411 272.095 228.024 273.149 228.669C273.511 228.889 273.826 229.109 274.093 229.329C274.25 229.454 274.376 229.58 274.502 229.69C275.116 230.256 275.383 230.743 275.477 230.916L275.509 230.994C275.509 230.994 275.509 230.994 275.509 230.979C275.54 230.602 275.588 230.24 275.666 229.91C275.824 229.109 276.06 228.464 276.343 227.946C276.406 227.836 276.469 227.726 276.532 227.631C276.862 227.081 277.24 226.704 277.601 226.437C278.294 225.903 278.891 225.808 278.891 225.808C278.923 225.478 278.97 225.148 279.017 224.834C280.669 212.796 288.425 212.498 288.425 212.498C290.046 203.446 299.234 203.32 299.234 203.32C299.234 203.32 301.185 203.776 304.252 204.2C304.252 204.2 304.252 204.2 304.268 204.2C309.177 204.892 316.917 205.505 324.154 204.09C332.13 202.535 337.071 198.229 339.43 195.62C340.547 194.363 341.098 193.498 341.098 193.498C348.681 191.738 354.565 201.277 354.565 201.277C358.923 201.277 362.4 204.185 364.398 206.338C365.594 207.642 366.27 208.679 366.27 208.679C366.317 208.616 366.365 208.553 366.412 208.491C366.915 207.862 367.466 207.312 368.032 206.825C368.032 206.825 368.032 206.825 368.048 206.825C368.064 206.809 368.079 206.793 368.079 206.793C368.174 206.699 368.284 206.62 368.378 206.542C369.307 205.803 370.266 205.238 371.194 204.798C373.554 203.65 375.584 203.352 375.584 203.352L385.826 224.504L388.044 229.077C388.044 229.077 386.817 235.662 379.659 239.323C379.029 239.653 378.337 239.952 377.613 240.219C377.094 240.408 376.559 240.565 376.024 240.691C370.266 242.026 363.957 239.465 360.355 237.595C360.355 237.595 360.308 237.563 360.213 237.516C360.182 237.516 360.15 237.485 360.134 237.469C360.072 237.438 359.993 237.39 359.898 237.343C358.357 236.51 357.413 235.882 357.413 235.882C357.79 236.856 358.058 237.909 358.262 238.946C358.294 239.15 358.341 239.355 358.372 239.559C359.159 244.274 358.545 248.957 358.545 248.957C359.647 252.052 360.15 254.394 360.308 256.138C360.591 259.14 359.914 260.381 359.678 260.711C359.647 260.759 359.615 260.79 359.615 260.806C359.647 260.79 359.836 260.664 360.197 260.507C360.197 260.507 360.197 260.507 360.213 260.507C360.654 260.303 361.33 260.036 362.227 259.816C362.353 259.784 362.494 259.753 362.636 259.721C362.652 259.721 362.667 259.721 362.683 259.721C363.187 259.627 363.737 259.533 364.351 259.486C366.569 259.297 369.527 259.517 373.208 260.79C373.303 260.821 373.397 260.853 373.491 260.884C373.664 260.947 373.853 261.01 374.026 261.089C383.466 264.672 387.493 279.789 387.493 279.789C388.548 280.434 390.137 281.989 391.678 284.205C393.928 287.427 396.131 292.047 396.634 297.296C397.484 306.175 398.616 315.29 398.616 315.29L398.679 315.258Z" fill="url(#paint1_linear_2_281)"/>
<path d="M268.76 259.03C258.738 258.119 251.784 250.748 251.784 250.748L257.023 243.346C258.801 245.625 262.671 249.742 268.225 251.125C270.144 251.597 271.906 251.707 273.448 251.581C272.394 254.158 270.884 256.688 268.775 259.03H268.76Z" fill="url(#paint2_linear_2_281)"/>
<path d="M353.857 259.69L345.975 271.618C345.975 271.618 339.037 282.807 326.026 281.707C313.015 280.607 301.263 268.742 291.934 274.101C282.604 279.459 277.208 291.497 277.208 291.497L282.573 289.894C282.573 289.894 273.149 296.117 271.466 300.046C271.072 300.957 271.088 301.743 271.733 302.309L266.054 303.975C266.541 303.063 267.076 302.246 267.595 301.523C267.595 301.523 267.627 301.492 267.658 301.445C267.658 301.429 267.69 301.413 267.69 301.397C267.69 301.397 267.69 301.397 267.706 301.382C267.706 301.382 267.706 301.366 267.721 301.35L267.769 301.272C267.769 301.272 267.847 301.162 267.894 301.099C267.942 301.052 267.973 300.989 268.02 300.926C268.178 300.722 268.319 300.533 268.461 300.36C269.42 299.182 270.16 298.49 270.207 298.427C270.207 298.427 270.711 296.652 271.403 294.106C271.938 292.141 272.583 289.721 273.165 287.285C274.534 281.722 274.392 279.742 277.932 277.024C281.424 274.352 282.29 272.089 284.335 270.455C284.366 270.423 284.398 270.408 284.429 270.376C285.625 269.465 287.796 268.082 289.479 267.06C289.479 267.06 289.479 267.06 289.495 267.06C290.801 266.259 291.808 265.662 291.808 265.662C291.792 261.686 293.051 258.37 293.051 258.37C292.673 257.836 292.327 256.893 292.06 256.028C291.729 254.975 291.509 254.017 291.509 254.017C290.927 254.41 290.376 254.755 289.826 255.07C283.816 258.48 279.568 257.317 279.568 257.317C277.948 257.993 276.359 258.464 274.817 258.763C275.808 256.987 276.972 254.315 277.712 250.622C279.804 249.805 280.968 248.784 280.968 248.784C280.968 248.784 282.604 250.905 286.569 250.638C290.534 250.371 298.243 246.866 298.211 242.639C298.211 242.639 301.31 256.798 317.169 261.717C332.917 266.604 347.281 262.141 353.841 259.721L353.857 259.69Z" fill="url(#paint3_linear_2_281)"/>
<path d="M297.456 340.543C297.015 345.038 299.706 351.575 300.524 359.951C301.342 368.343 300.492 381.324 300.492 381.324L288.897 374.126C291.588 366.756 288.095 355.646 287.733 347.411C287.293 337.259 293.476 336.835 293.476 336.835C290.581 328.097 294.593 321.214 298.762 317.82C301.609 320.444 303.513 322.88 304.756 324.813C301.468 338.689 297.456 340.543 297.456 340.543Z" fill="url(#paint4_linear_2_281)"/>
<path d="M359.851 298.616C356.846 303.535 355.509 307.809 354.974 309.994C354.266 308.721 353.904 307.888 353.904 307.888C341.019 308.516 332.241 300.172 330.164 298.82C328.087 297.469 324.186 298.726 320.315 307.448C316.823 315.29 307.965 318.464 306.235 319.014C305.495 318.071 304.252 316.531 302.632 314.724C305.668 311.722 308.217 307.416 312.402 300.769C317.782 292.204 324.626 290.476 328.056 289.768C333.452 288.653 335.922 291.969 348.225 297.343C352.473 299.197 356.469 299.292 359.867 298.616H359.851Z" fill="url(#paint5_linear_2_281)"/>
<path d="M385.511 344.268L374.467 368.579C368.976 364.729 367.277 350.68 367.545 339.993C367.812 329.292 366.333 322.188 366.333 322.188C363.045 320.617 360.308 317.788 358.247 315.054C359.946 311.549 363.8 304.195 368.772 298.003C367.01 305.169 370.487 310.732 374.593 315.667C374.593 315.667 373.35 326.683 375.505 336.222C376.905 342.429 382.066 343.954 385.527 344.268H385.511Z" fill="url(#paint6_linear_2_281)"/>
<path d="M398.679 315.258L397.027 318.888C393.912 315.415 391.206 308.076 389.79 297.972C387.855 284.19 379.344 282.288 379.344 282.288C382.711 271.256 375.018 262.409 373.554 260.837C373.727 260.9 373.916 260.963 374.089 261.041C383.529 264.624 387.556 279.742 387.556 279.742C388.61 280.387 390.199 281.942 391.741 284.158C393.991 287.38 396.194 292 396.697 297.249C397.547 306.128 398.679 315.242 398.679 315.242V315.258Z" fill="url(#paint7_linear_2_281)"/>
<path d="M294.341 211.084C295.175 216.002 303.387 216.175 303.387 216.175C298.274 217.762 294.01 217.307 288.74 216.427C283.454 215.547 279.867 224.976 281.299 225.588C282.73 226.201 284.099 228.669 284.099 228.669C279.993 226.72 279.379 228.747 280.669 233.132C281.959 237.516 281.424 244.258 281.424 244.258C280.622 239.7 277.617 233.54 275.698 229.91C275.855 229.109 276.091 228.464 276.374 227.946C276.437 227.836 276.5 227.726 276.563 227.631C276.893 227.081 277.271 226.704 277.633 226.437C278.325 225.903 278.923 225.808 278.923 225.808C278.954 225.478 279.002 225.148 279.049 224.834C280.701 212.796 288.457 212.498 288.457 212.498C290.077 203.446 299.265 203.32 299.265 203.32C299.265 203.32 301.216 203.776 304.284 204.2C300.508 203.713 293.507 206.196 294.341 211.099V211.084Z" fill="url(#paint8_linear_2_281)"/>
<path d="M366.443 208.491L366.254 209.418C360.544 203.603 353.086 204.609 353.086 204.609C352.142 208.899 344.732 209.653 344.732 209.653C344.732 209.653 350.49 206.526 349.735 202.849C348.98 199.172 339.556 195.84 339.556 195.84C339.525 195.761 339.509 195.683 339.478 195.604C340.595 194.347 341.145 193.483 341.145 193.483C348.728 191.723 354.612 201.262 354.612 201.262C358.97 201.262 362.447 204.169 364.445 206.322C365.641 207.626 366.317 208.663 366.317 208.663C366.365 208.601 366.412 208.538 366.459 208.475L366.443 208.491Z" fill="url(#paint9_linear_2_281)"/>
<path d="M269.2 309.192C269.027 309.616 263.395 323.163 259.304 327.909C259.965 326.117 260.783 324.593 261.491 323.461C262.357 322.078 263.064 321.277 263.064 321.277C263.064 321.277 263.033 320.193 263.08 318.511C263.096 317.757 263.143 316.877 263.206 315.918C264.921 314.661 267.737 312.272 269.184 309.192H269.2Z" fill="#CEC4D6"/>
<path d="M371.855 233.635C372.957 235.976 374.341 238.349 376.056 240.659C370.298 241.995 363.989 239.433 360.386 237.563C360.386 237.563 360.339 237.532 360.245 237.485C360.213 237.485 360.182 237.453 360.166 237.438C360.103 237.406 360.024 237.359 359.93 237.312C358.388 236.479 357.444 235.85 357.444 235.85C357.822 236.825 358.089 237.878 358.294 238.915C358.325 239.119 358.372 239.323 358.404 239.528C351.01 229.266 347.737 215.829 347.58 215.169C347.816 215.814 352.536 229.077 363.942 232.66C366.884 233.587 369.511 233.823 371.84 233.619L371.855 233.635Z" fill="#E5DFE9"/>
<path d="M388.076 229.046C388.076 229.046 386.848 235.63 379.69 239.292C378.573 237.83 377.157 235.693 375.741 232.817C381.326 230.916 384.614 226.484 385.857 224.473L388.076 229.046Z" fill="#E5DFE9"/>
<path d="M362.274 259.784C362.274 259.784 351.702 265.724 350.018 267.61C348.319 269.512 346.825 272.403 338.738 274.886C336.787 275.483 334.443 276.065 331.879 276.505C324.815 277.699 316.02 277.762 308.815 273.692C308.815 273.692 305.983 268.789 299.596 266.07C299.942 266.149 305.165 267.296 309.129 267.547C309.444 267.563 309.743 267.579 310.026 267.579C310.514 267.579 310.954 267.579 311.364 267.563C311.364 267.563 312.087 266.589 313.015 266.212C313.881 265.85 316.083 265.882 318.994 265.866C319.371 265.866 319.749 265.866 320.142 265.866C321.826 265.834 323.698 265.787 325.649 265.614C327.379 265.473 329.063 265.269 330.589 265.064C330.982 265.017 331.375 264.954 331.737 264.907C334.459 264.514 336.488 264.137 336.976 264.106C338.298 264.012 339.383 264.797 339.824 265.19C339.965 265.316 340.044 265.394 340.044 265.394C340.044 265.394 340.311 265.3 340.799 265.127C341.712 264.797 343.364 264.184 345.377 263.399C345.661 263.289 345.944 263.179 346.243 263.053C346.825 262.817 347.423 262.581 348.052 262.33C348.256 262.236 348.477 262.157 348.681 262.063C350.207 261.419 351.812 260.727 353.354 260.004C353.511 259.926 353.684 259.847 353.841 259.769C356.359 258.574 358.687 257.333 360.339 256.154C360.37 256.515 360.402 256.861 360.402 257.176C360.465 259.438 359.914 260.429 359.71 260.727C359.678 260.774 359.647 260.806 359.647 260.821C359.678 260.806 359.867 260.68 360.229 260.523C360.229 260.523 360.229 260.523 360.245 260.523C360.685 260.319 361.362 260.051 362.258 259.831L362.274 259.784Z" fill="url(#paint10_linear_2_281)"/>
<path d="M360.433 257.144C357.838 258.731 348.445 264.279 340.909 266.164L340.783 269.48C340.783 269.135 340.689 265.347 332.949 266.589C324.831 267.893 316.87 267.925 316.87 267.925C316.87 267.925 319.057 277.526 331.879 276.505C324.815 277.699 316.02 277.762 308.815 273.692C308.815 273.692 305.983 268.789 299.596 266.07C299.942 266.149 305.165 267.296 309.129 267.547C309.444 267.563 309.743 267.579 310.026 267.579C310.514 267.579 310.954 267.579 311.364 267.563C311.364 267.563 312.087 266.589 313.015 266.212C313.881 265.85 316.083 265.882 318.994 265.866C319.371 265.866 319.749 265.866 320.142 265.866C321.826 265.834 323.698 265.787 325.649 265.614C327.379 265.473 329.063 265.269 330.589 265.064C330.982 265.017 331.375 264.954 331.737 264.907C334.459 264.514 336.488 264.137 336.976 264.106C338.298 264.012 339.383 264.797 339.824 265.19C339.965 265.316 340.044 265.394 340.044 265.394C340.044 265.394 340.311 265.3 340.799 265.127C341.712 264.797 343.364 264.184 345.377 263.399C345.661 263.289 345.944 263.179 346.243 263.053C346.825 262.817 347.423 262.581 348.052 262.33C348.256 262.236 348.477 262.157 348.681 262.063C350.207 261.419 351.812 260.727 353.354 260.004C353.511 259.926 353.684 259.847 353.841 259.769C356.359 258.574 358.687 257.333 360.339 256.154C360.37 256.515 360.402 256.861 360.402 257.176L360.433 257.144Z" fill="url(#paint11_linear_2_281)"/>
<path d="M320.158 265.834V276.143L319.01 265.85C319.387 265.85 319.765 265.85 320.158 265.85V265.834Z" fill="#5C479E"/>
<path d="M331.753 264.876L331.297 275.389L330.589 265.033C330.982 264.986 331.375 264.923 331.737 264.876H331.753Z" fill="#5C479E"/>
<path d="M310.026 267.579L309.428 271.916L309.129 267.547C309.444 267.563 309.743 267.579 310.026 267.579Z" fill="#5C479E"/>
<path d="M340.327 272.796C340.296 269.81 340.013 266.714 339.855 265.159C339.997 265.284 340.075 265.363 340.075 265.363C340.075 265.363 340.343 265.269 340.831 265.096C341.098 269.355 340.327 272.796 340.327 272.796Z" fill="#5C479E"/>
<path d="M346.258 263.021L345.818 269.433L345.409 263.351C345.692 263.241 345.975 263.131 346.274 263.006L346.258 263.021Z" fill="#5C479E"/>
<path d="M348.697 262.031L348.367 266.777L348.068 262.283C348.272 262.189 348.492 262.11 348.697 262.016V262.031Z" fill="#5C479E"/>
<path d="M353.873 259.737L353.621 263.43L353.385 259.957C353.543 259.878 353.716 259.8 353.873 259.721V259.737Z" fill="#5C479E"/>
<path d="M316.524 277.401C311.159 279.004 304.834 266.526 294.467 267.485C290.895 267.815 286.947 269.323 284.366 270.486C284.398 270.455 284.429 270.439 284.461 270.408C285.656 269.496 287.828 268.113 289.511 267.092C289.511 267.092 289.511 267.092 289.527 267.092C289.794 266.966 292.736 265.677 298.573 265.976C306.062 266.369 311.253 276.788 316.508 277.416L316.524 277.401Z" fill="#ACA5B5"/>
<path d="M373.271 260.759C358.671 258.92 344.858 273.488 344.858 273.488C350.868 265.724 356.17 262.251 359.741 260.711C359.914 260.633 360.087 260.57 360.245 260.507C360.245 260.507 360.245 260.507 360.26 260.507C361.22 260.114 362.038 259.878 362.683 259.737C362.699 259.737 362.715 259.737 362.73 259.737C363.753 259.501 364.351 259.501 364.398 259.501C366.616 259.313 369.574 259.533 373.255 260.806L373.271 260.759Z" fill="#ACA5B5"/>
<path d="M282.557 289.894C273.495 293.776 268.256 300.596 267.643 301.429C269.011 299.543 270.223 298.427 270.223 298.427C270.223 298.427 270.726 296.652 271.418 294.106C276.296 291.513 282.321 289.941 282.557 289.878V289.894Z" fill="#ACA5B5"/>
<path d="M266.148 315.352C264.103 320.538 261.649 323.288 261.507 323.461C262.372 322.078 263.08 321.277 263.08 321.277C263.08 321.277 263.049 320.193 263.096 318.511C264.952 317.364 266.101 315.447 266.148 315.352Z" fill="#ACA5B5"/>
<path d="M368.064 206.825C367.497 207.343 362.825 212.058 364.256 226.201C364.256 226.201 361.267 215.609 364.429 206.338C365.625 207.642 366.302 208.679 366.302 208.679C366.837 207.972 367.45 207.359 368.079 206.825H368.064Z" fill="#C0B8CC"/>
<path d="M275.525 230.916C274.974 230.177 274.518 229.659 274.14 229.329C275.037 230.052 275.415 230.696 275.525 230.916Z" fill="#ACA5B5"/>
<path d="M281.44 244.258C279.175 236.966 277.082 233.053 275.572 230.979C275.698 229.659 275.997 228.669 276.39 227.946C280.213 234.986 281.44 244.274 281.44 244.274V244.258Z" fill="#ACA5B5"/>
<path d="M284.052 227.93C280.874 225.164 277.633 226.421 277.633 226.421C278.325 225.887 278.923 225.793 278.923 225.793C278.954 225.463 279.002 225.133 279.049 224.818C282.51 225.51 284.052 227.93 284.052 227.93Z" fill="#ACA5B5"/>
<path d="M298.416 249.067C298.29 249.224 295.222 253.184 292.091 256.013C291.761 254.96 291.54 254.001 291.54 254.001C290.958 254.394 298.416 249.067 298.416 249.067Z" fill="#ACA5B5"/>
<path d="M357.46 235.85C357.838 236.825 358.105 237.878 358.31 238.915C355.179 235.426 353.873 230.932 353.826 230.759C355.824 234.672 358.813 236.667 359.946 237.312C358.404 236.479 357.46 235.85 357.46 235.85Z" fill="#ACA5B5"/>
<path d="M305.637 254.598L307.997 258.103C304.221 261.089 297.535 265.033 293.837 265.52C290.14 266.023 287.859 265.426 287.466 263.226C287.167 261.544 290.14 258.668 291.588 257.38C292.044 256.971 292.343 256.735 292.343 256.735L293.098 258.37C293.098 258.37 288.74 262.864 291.666 263.399C291.761 263.414 291.855 263.43 291.965 263.446C295.489 263.729 305.511 254.3 305.511 254.3" fill="#34254C"/>
<path d="M291.666 263.399C291.666 263.399 288.976 263.619 289.102 261.623C289.165 260.539 290.439 258.763 291.588 257.38C292.044 256.971 292.343 256.736 292.343 256.736L293.098 258.37C293.098 258.37 288.74 262.864 291.666 263.399Z" fill="#51347F"/>
<path d="M366.475 251.031C365.814 252.021 364.603 253.043 362.683 254.127C357.932 256.798 348.288 254.614 348.288 254.614L347.187 249.475C347.187 249.475 353.385 252.775 359.568 252.351C360.953 252.257 362.054 252.021 362.872 251.722C364.996 250.937 365.389 249.617 364.791 248.768C363.958 247.589 358.64 248.517 358.64 248.517L358.766 244.211C358.766 244.211 361.236 244.336 363.423 244.965C364.697 245.342 365.877 245.877 366.396 246.662C367.261 247.982 367.56 249.444 366.475 251.015V251.031Z" fill="#34254C"/>
<path d="M366.475 251.031C365.027 252.1 362.888 251.723 362.888 251.723C366.931 250.512 364.492 246.458 363.438 244.965C364.713 245.342 365.893 245.877 366.412 246.662C367.277 247.982 367.576 249.444 366.49 251.015L366.475 251.031Z" fill="#51347F"/>
<path d="M296.37 199.234C296.37 199.234 289.039 202.519 289.904 218.847C290.77 235.175 304.284 243.708 304.284 243.708L304.52 247.165C304.52 247.165 294.105 243.896 288.221 230.633C282.337 217.37 286.931 200.916 296.166 197.553L296.386 199.234H296.37Z" fill="url(#paint12_linear_2_281)"/>
<path d="M340.783 188.061C340.783 188.061 350.207 191.644 354.313 204.53C358.42 217.417 351.073 226.359 343.757 232.079L346.132 237.626C346.132 237.626 359.033 229.8 360.323 216.049C361.629 202.299 352.048 189.538 342.483 184.227L340.783 188.061Z" fill="url(#paint13_linear_2_281)"/>
<path d="M348.697 256.814C348.65 257.553 342.152 258.684 339.635 259.14C329.503 260.994 319.104 262.283 308.484 263.022C308.107 263.053 307.745 262.817 307.635 262.44C305.023 254.205 303.214 245.751 302.113 237.092C301.782 234.53 301.515 231.969 301.31 229.376C301.247 228.559 301.767 227.82 302.553 227.6C316.288 223.734 329.912 221.518 343.426 221.534C344.229 221.534 344.921 222.1 345.094 222.87C347.328 232.77 349.059 251.298 348.681 256.798L348.697 256.814Z" fill="url(#paint14_linear_2_281)"/>
<path d="M348.288 254.614C348.241 255.353 341.743 256.484 339.226 256.94C329.094 258.794 318.695 260.083 308.075 260.821C307.698 260.853 307.336 260.617 307.226 260.24C304.614 252.005 302.805 243.551 301.704 234.892C301.373 232.33 301.106 229.769 300.901 227.176C300.838 226.359 301.358 225.62 302.144 225.4C315.879 221.534 329.503 219.318 343.017 219.334C343.82 219.334 344.512 219.9 344.685 220.67C346.919 230.57 348.65 249.098 348.272 254.598L348.288 254.614Z" fill="url(#paint15_linear_2_281)"/>
<path d="M339.226 256.94C329.22 258.778 318.978 260.051 308.5 260.79C307.871 260.837 307.289 260.444 307.1 259.831C304.567 251.722 302.789 243.394 301.704 234.892C307.1 244.211 318.978 259.061 339.226 256.924V256.94Z" fill="url(#paint16_linear_2_281)"/>
<path d="M306.738 232.362C306.738 232.362 308.972 246.867 311.285 255.148L314.243 254.693C314.243 254.693 311.757 240.203 311.159 231.309L306.754 232.362H306.738Z" fill="url(#paint17_linear_2_281)"/>
<path d="M318.742 229.8C318.742 229.8 320.819 245.562 322.817 253.121L326.262 252.634C326.262 252.634 323.761 237.893 323.163 228.999L318.742 229.8Z" fill="url(#paint18_linear_2_281)"/>
<path d="M313.487 232.88C313.487 232.88 314.101 238.302 314.856 241.979L317.814 241.524L316.445 232.425C316.445 232.425 314.715 232.55 313.487 232.88Z" fill="url(#paint19_linear_2_281)"/>
<path d="M338.534 231.796C338.628 233.226 337.543 234.467 336.111 234.562C334.679 234.656 333.436 233.572 333.342 232.142C333.248 230.712 334.333 229.47 335.765 229.376C337.196 229.282 338.439 230.366 338.534 231.796Z" fill="url(#paint20_linear_2_281)"/>
<path d="M340.28 242.859C340.374 244.289 339.289 245.531 337.857 245.625C336.425 245.719 335.183 244.635 335.088 243.205C334.994 241.775 336.079 240.533 337.511 240.439C338.943 240.345 340.186 241.429 340.28 242.859Z" fill="url(#paint21_linear_2_281)"/>
<path d="M345.535 210.706C345.739 213.645 343.521 216.191 340.579 216.379C337.637 216.584 335.088 214.368 334.899 211.429C334.695 208.491 336.913 205.945 339.855 205.756C342.797 205.568 345.346 207.768 345.535 210.706Z" fill="url(#paint22_linear_2_281)"/>
<path d="M300.052 223.938C302.49 223.373 308.406 222.178 314.872 220.78C316.256 220.481 316.272 219.365 316.13 218.674L314.903 214.604C314.762 213.944 314.132 213.504 313.472 213.614C310.545 214.101 302.978 214.588 298.305 216.144C297.723 216.348 297.078 216.474 297.44 218.391C297.645 219.522 298.007 221.377 298.589 223.106C298.793 223.718 299.438 224.08 300.068 223.938H300.052Z" fill="url(#paint23_linear_2_281)"/>
<path d="M296.37 199.234C296.37 199.234 297.535 203.179 298.903 205.08C298.903 205.08 324.327 216.757 344.119 193.561C344.119 193.561 342.75 188.187 341.098 185.814C341.098 185.814 329.204 205.41 296.355 199.25L296.37 199.234Z" fill="url(#paint24_linear_2_281)"/>
<path d="M286.711 175.835C286.711 175.835 281.692 178.679 280.968 179.214C279.411 180.376 285.452 197.301 287.686 197.38C289.023 197.427 293.538 195.809 293.538 195.809L286.711 175.835Z" fill="url(#paint25_linear_2_281)"/>
<path d="M285.074 180.926C285.106 181.476 284.697 181.948 284.146 181.979C283.595 182.011 283.124 181.602 283.092 181.052C283.061 180.502 283.47 180.031 284.02 179.999C284.571 179.968 285.043 180.376 285.074 180.926Z" fill="#C8B8D3"/>
<path d="M337.763 159.586C337.763 159.586 343.489 158.863 344.386 158.863C346.337 158.863 351.623 176.055 349.877 177.438C348.838 178.271 344.245 179.669 344.245 179.669L337.763 159.586Z" fill="url(#paint26_linear_2_281)"/>
<path d="M342.121 162.681C342.42 163.137 343.033 163.279 343.489 162.98C343.946 162.681 344.087 162.069 343.788 161.613C343.489 161.157 342.876 161.016 342.42 161.314C341.963 161.613 341.822 162.226 342.121 162.681Z" fill="#C8B8D3"/>
<path d="M299.737 152.184L299.124 150.157C302.868 147.249 307.619 145.835 313.251 145.725L314.431 148.381L299.753 152.2L299.737 152.184Z" fill="url(#paint27_linear_2_281)"/>
<path d="M344.874 182.812L332.445 186.82L295.002 198.873C280.512 183.221 283.973 157.653 303.088 149.889C303.969 149.528 304.85 149.214 305.731 148.931C326.781 142.315 346.557 158.863 344.858 182.812H344.874Z" fill="url(#paint28_linear_2_281)"/>
<path d="M332.445 186.82L295.002 198.873C280.512 183.221 283.973 157.653 303.088 149.889C303.969 149.528 304.85 149.214 305.731 148.931C292.925 154.242 291.776 162.823 303.23 159.318C314.683 155.814 322.895 158.03 322.895 158.03L332.429 186.82H332.445Z" fill="url(#paint29_linear_2_281)"/>
<path d="M344.874 182.812C344.874 182.812 340.469 198.512 322.361 202.723C304.252 206.935 294.986 198.873 294.986 198.873L344.874 182.812Z" fill="url(#paint30_linear_2_281)"/>
<path d="M344.874 182.812C344.874 182.812 341.491 188.721 334.066 193.813C326.042 199.313 313.283 203.839 295.002 198.889C287.041 183.96 291.651 168.842 302.884 161.66C303.733 161.126 304.614 160.623 305.527 160.167C319.403 153.394 340.249 158.8 344.874 182.828V182.812Z" fill="url(#paint31_linear_2_281)"/>
<path d="M334.066 193.797C326.042 199.297 313.283 203.823 295.002 198.873C287.041 183.944 291.651 168.826 302.884 161.644C301.452 165.164 299.564 172.252 301.122 183.064C303.466 199.297 314.715 204.153 334.05 193.813L334.066 193.797Z" fill="url(#paint32_linear_2_281)"/>
<path d="M313.236 160.12C313.236 160.12 328.732 157.48 337.385 171.718C338.077 172.849 337.778 174.326 336.693 175.096C335.466 175.961 333.767 175.583 333.027 174.279C330.73 170.24 324.941 162.556 313.236 160.104V160.12Z" fill="url(#paint33_linear_2_281)"/>
<path d="M339.965 178.349C340.516 179.292 340.186 180.518 339.226 181.052C338.282 181.602 337.055 181.272 336.52 180.314C335.969 179.371 336.3 178.145 337.259 177.611C338.219 177.076 339.43 177.391 339.965 178.349Z" fill="url(#paint34_linear_2_281)"/>
<path d="M371.997 294.106C371.147 295.74 369.92 296.479 368.772 298.003C363.8 304.195 359.946 311.549 358.247 315.054C356.831 313.168 355.729 311.345 354.99 309.994C355.525 307.809 356.846 303.535 359.867 298.616C366.192 297.359 371.871 294.231 372.013 294.106H371.997Z" fill="#2D2244"/>
<path d="M391.741 284.174C388.406 284.677 382.978 286.154 376.591 290.444C373.806 292.314 371.147 295.017 368.756 298.003C369.684 296.746 370.675 296.259 371.525 294.64C371.399 294.766 366.16 297.375 359.851 298.616C361.094 296.573 362.636 294.42 364.524 292.251C373.051 282.477 387.541 279.758 387.541 279.758C388.595 280.402 390.184 281.958 391.726 284.174H391.741Z" fill="url(#paint35_linear_2_281)"/>
<path d="M306.235 319.014C306.046 319.077 305.936 319.108 305.936 319.108C305.558 321.214 305.165 323.116 304.756 324.829C303.513 322.896 301.609 320.444 298.762 317.835C299.108 317.552 299.47 317.285 299.832 317.05C300.838 316.374 301.751 315.604 302.632 314.74C304.268 316.531 305.495 318.071 306.235 319.03V319.014Z" fill="#2D2244"/>
<path d="M302.632 314.724C301.751 315.588 300.838 316.358 299.832 317.034C299.485 317.27 299.124 317.537 298.762 317.82C296.276 315.541 293.066 313.121 288.96 310.811C278.608 304.996 269.42 305.861 264.716 306.945C265.078 305.876 265.534 304.871 266.038 303.959C266.526 303.048 267.061 302.23 267.58 301.508C267.58 301.508 267.611 301.476 267.643 301.429C267.643 301.413 267.674 301.398 267.674 301.382C267.674 301.382 267.674 301.382 267.69 301.366C267.69 301.366 267.69 301.35 267.706 301.335L267.753 301.256C267.753 301.256 267.831 301.146 267.879 301.083C267.926 301.036 267.957 300.973 268.005 300.91C268.162 300.706 268.303 300.517 268.445 300.345C269.31 300.219 270.317 300.109 271.434 300.03C275.729 299.747 281.66 300.062 287.403 302.702C293.538 305.531 299.029 310.732 302.616 314.708L302.632 314.724Z" fill="url(#paint36_linear_2_281)"/>
<path d="M379.69 239.292C379.061 239.622 378.369 239.921 377.645 240.188C377.126 240.376 376.591 240.533 376.056 240.659C374.341 238.333 372.957 235.976 371.855 233.635C373.255 233.509 374.546 233.226 375.741 232.817C377.157 235.693 378.573 237.815 379.69 239.292Z" fill="#2D2244"/>
<path d="M375.741 232.817C374.546 233.226 373.255 233.509 371.855 233.635C366.648 222.571 367.513 211.759 368.426 206.526C369.354 205.788 370.313 205.222 371.242 204.782C370.266 210.204 370.612 220.073 373.869 228.543C374.483 230.13 375.112 231.56 375.741 232.833V232.817Z" fill="url(#paint37_linear_2_281)"/>
<path d="M277.743 250.607C277.004 254.3 275.839 256.971 274.848 258.747C272.724 259.156 270.695 259.218 268.775 259.03C270.884 256.688 272.394 254.158 273.448 251.581C275.147 251.455 276.579 251.062 277.743 250.607Z" fill="#2D2244"/>
<path d="M277.743 250.607C276.579 251.062 275.147 251.455 273.448 251.581C277.098 242.718 275.43 233.336 274.549 229.69C275.163 230.256 275.43 230.743 275.525 230.916L275.556 230.994C275.556 230.994 275.556 230.994 275.556 230.979C275.682 229.659 275.981 228.669 276.374 227.946C276.437 227.836 276.5 227.726 276.563 227.631C279.002 237.705 278.813 245.248 277.727 250.607H277.743Z" fill="url(#paint38_linear_2_281)"/>
<path d="M300.225 222.933C302.663 222.367 308.846 220.968 315.045 219.774C315.737 219.648 316.178 218.972 316.036 218.281L315.061 213.614C314.919 212.954 314.29 212.514 313.629 212.624C310.703 213.111 303.104 214.431 298.431 215.987C297.849 216.191 297.487 216.788 297.597 217.401C297.786 218.532 298.164 220.387 298.746 222.1C298.95 222.713 299.596 223.074 300.225 222.933Z" fill="url(#paint39_linear_2_281)"/>
<path d="M260.626 249.161C258.093 250.151 255.67 250.512 253.546 250.528C248.59 250.56 245.177 248.721 245.177 248.721C245.177 248.721 244.972 249.161 244.217 249.585C243.241 250.135 241.353 250.654 237.845 250.198C231.568 249.381 229.35 246.049 229.428 243.566C229.444 242.859 229.869 242.325 230.498 241.916C232.071 240.911 234.95 240.706 236.177 240.628C237.908 240.502 238.364 239.983 237.546 238.789C237.499 238.726 237.452 238.679 237.405 238.616C236.351 237.595 232.889 237.548 230.923 236.495C228.862 235.395 227.682 232.739 227.745 230.004C227.776 228.653 228.988 227.883 230.624 227.647C232.307 227.396 234.4 227.679 236.099 228.449C239.434 229.957 240.646 229.376 240.771 227.631C240.866 226.39 238.301 224.708 235.957 223.09C234.998 222.43 234.069 221.785 233.377 221.173C231.001 219.098 232.449 214.777 236.618 213.991C237.058 213.912 237.468 213.912 237.845 213.991C241.102 214.619 242.502 220.214 244.437 219.428C246.608 218.532 244.988 216.662 242.046 213.629C241.668 213.237 241.259 212.796 240.882 212.341C238.317 209.308 236.083 205.175 238.962 203.037C239.623 202.55 240.441 202.409 241.354 202.582C245.003 203.242 250.195 208.726 253.247 215.484C254.364 217.951 255.214 219.475 255.875 220.403C257.023 222.021 257.558 221.817 257.763 221.565C257.841 221.471 257.873 221.377 257.873 221.377C258.659 220.198 259.147 212.718 259.572 207.972C259.635 207.202 259.729 206.463 259.839 205.74C260.421 202.063 261.664 199.297 263.914 198.732C264.307 198.637 264.685 198.574 265.031 198.574C266.982 198.543 268.036 200.115 268.492 203.886C268.602 204.829 268.618 205.725 268.571 206.589C268.382 209.811 267.297 212.671 267.359 216.395C267.438 221.11 270.27 226.138 271.182 232.283C272.095 238.428 269.121 245.829 260.642 249.145L260.626 249.161Z" fill="url(#paint40_linear_2_281)"/>
<path d="M245.995 209.669C245.68 212.341 242.785 212.545 240.866 212.372C240.583 212.042 240.315 211.696 240.048 211.335C237.877 208.459 236.398 204.97 238.946 203.053C239.607 202.566 240.425 202.425 241.338 202.598C242.124 203.556 243.729 204.782 244.83 206.243C245.601 207.265 246.136 208.396 245.995 209.669Z" fill="url(#paint41_linear_2_281)"/>
<path d="M240.96 219.695C240.472 221.345 238.883 223.718 235.941 223.121C235.139 222.571 234.353 222.021 233.707 221.503C233.582 221.408 233.471 221.298 233.361 221.204C230.986 219.13 232.433 214.808 236.602 214.022C237.043 213.944 237.452 213.944 237.829 214.022C238.459 214.698 239.529 215.908 240.252 217.118C240.819 218.061 241.165 218.988 240.96 219.68V219.695Z" fill="url(#paint42_linear_2_281)"/>
<path d="M238.773 238.726C238.459 238.789 237.987 238.742 237.389 238.648C236.555 238.443 235.784 238.271 235.076 238.082C233.55 237.673 232.244 237.249 230.907 236.542C228.846 235.442 227.666 232.786 227.729 230.052C227.761 228.7 228.972 227.93 230.608 227.694C231.709 228.637 233.692 230.224 235.249 230.79C235.706 230.963 236.177 231.152 236.649 231.372C238.569 232.236 240.457 233.477 240.724 234.64C241.07 236.102 240.976 238.349 238.773 238.742V238.726Z" fill="url(#paint43_linear_2_281)"/>
<path d="M244.217 249.585C243.32 250.088 241.668 250.56 238.726 250.292C238.443 250.261 238.144 250.23 237.845 250.198C231.568 249.381 229.35 246.049 229.428 243.566C229.444 242.859 229.869 242.325 230.498 241.916C230.655 241.853 233.157 240.926 239.104 243.409C239.277 243.488 239.45 243.566 239.623 243.629C245.334 246.065 246.718 247.778 244.217 249.569V249.585Z" fill="url(#paint44_linear_2_281)"/>
<path d="M253.767 237.815C253.609 237.516 248.874 228.354 255.859 220.418C257.007 222.037 257.542 221.833 257.747 221.581L257.888 221.88C257.888 221.88 251.328 231.262 253.751 237.799L253.767 237.815Z" fill="url(#paint45_linear_2_281)"/>
<path d="M260.626 249.161C258.093 250.151 255.67 250.512 253.546 250.528C268.791 247.055 266.872 232.802 265.047 228.37C262.954 223.294 262.467 216.128 265.204 208.742C267.202 203.305 265.865 199.989 265.015 198.606C266.966 198.575 268.02 200.146 268.476 203.918C268.587 204.86 268.602 205.756 268.555 206.621C268.366 209.842 267.281 212.702 267.344 216.427C267.422 221.141 270.254 226.17 271.167 232.315C272.079 238.459 269.106 245.861 260.626 249.177V249.161Z" fill="url(#paint46_linear_2_281)"/>
<path d="M268.571 206.605C264.858 208.365 261.554 206.872 259.839 205.772C260.421 202.095 261.664 199.329 263.914 198.763C266.604 198.087 267.942 199.486 268.492 203.917C268.602 204.86 268.618 205.756 268.571 206.62V206.605Z" fill="url(#paint47_linear_2_281)"/>
<path d="M245.995 209.669C245.68 212.341 240.677 213.629 240.048 211.351C240.551 206.432 243.336 206.071 244.83 206.259C245.601 207.281 246.136 208.412 245.995 209.685V209.669Z" fill="url(#paint48_linear_2_281)"/>
<path d="M240.96 219.695C240.85 223.655 235.171 224.19 233.707 221.503C233.283 220.292 233.22 218.831 234.337 217.417C236.807 214.337 240.111 217.024 240.252 217.134C240.819 218.077 240.976 218.972 240.96 219.695Z" fill="url(#paint49_linear_2_281)"/>
<path d="M238.773 238.726C238.459 238.789 237.987 238.742 237.389 238.648C236.555 238.443 235.784 238.27 235.076 238.082C234.101 234.703 235.611 232.424 236.649 231.356C238.569 232.22 240.457 233.462 240.724 234.625C241.07 236.086 240.976 238.333 238.773 238.726Z" fill="url(#paint50_linear_2_281)"/>
<path d="M244.217 249.585C243.32 250.088 241.668 250.56 238.726 250.292C238.05 249.287 237.672 247.715 238.065 246.207C238.443 244.761 239.167 243.991 239.639 243.629C245.35 246.065 246.734 247.778 244.233 249.57L244.217 249.585Z" fill="url(#paint51_linear_2_281)"/>
<path d="M385.322 231.984C387.997 232.487 390.435 232.393 392.528 232.016C397.405 231.136 400.426 228.684 400.426 228.684C400.426 228.684 400.709 229.077 401.543 229.36C402.612 229.722 404.563 229.894 407.93 228.794C413.94 226.83 415.497 223.153 414.963 220.717C414.805 220.025 414.302 219.57 413.61 219.287C411.879 218.58 409.016 218.925 407.788 219.067C406.058 219.271 405.507 218.847 406.105 217.527C406.137 217.464 406.168 217.401 406.215 217.338C407.049 216.144 410.447 215.452 412.178 214.054C414.003 212.592 414.664 209.763 414.097 207.092C413.814 205.772 412.477 205.253 410.841 205.3C409.141 205.363 407.128 206.039 405.602 207.108C402.612 209.213 401.322 208.868 400.866 207.171C400.551 205.976 402.754 203.839 404.752 201.812C405.57 200.979 406.373 200.177 406.939 199.454C408.89 196.971 406.671 192.996 402.424 193.011C401.983 193.011 401.574 193.09 401.212 193.231C398.129 194.457 397.798 200.224 395.737 199.8C393.425 199.329 394.667 197.176 396.996 193.656C397.295 193.2 397.609 192.697 397.908 192.178C399.859 188.721 401.291 184.242 398.066 182.671C397.326 182.309 396.508 182.325 395.643 182.671C392.182 183.991 388.091 190.355 386.361 197.553C385.731 200.177 385.165 201.843 384.693 202.88C383.875 204.688 383.309 204.578 383.057 204.373C382.962 204.295 382.915 204.2 382.915 204.2C381.924 203.195 380.052 195.934 378.746 191.346C378.542 190.607 378.306 189.884 378.07 189.208C376.811 185.704 375.08 183.221 372.768 183.079C372.359 183.048 371.981 183.079 371.651 183.127C369.716 183.457 368.992 185.201 369.228 188.988C369.291 189.931 369.448 190.811 369.653 191.66C370.439 194.787 372.044 197.396 372.673 201.057C373.476 205.709 371.635 211.162 371.871 217.37C372.107 223.577 376.418 230.303 385.37 231.984H385.322Z" fill="url(#paint52_linear_2_281)"/>
<path d="M392.355 190.466C393.157 193.027 396.052 192.681 397.893 192.178C398.113 191.801 398.317 191.408 398.506 191.016C400.095 187.778 400.913 184.07 398.034 182.687C397.295 182.325 396.477 182.341 395.611 182.687C395.014 183.771 393.676 185.264 392.858 186.914C392.292 188.061 391.977 189.271 392.355 190.497V190.466Z" fill="url(#paint53_linear_2_281)"/>
<path d="M399.167 199.392C399.954 200.916 401.967 202.959 404.736 201.827C405.429 201.136 406.089 200.444 406.624 199.816C406.734 199.69 406.829 199.58 406.907 199.454C408.858 196.971 406.64 192.996 402.392 193.011C401.952 193.011 401.543 193.09 401.181 193.231C400.693 194.017 399.859 195.4 399.387 196.736C399.01 197.757 398.837 198.747 399.167 199.392Z" fill="url(#paint54_linear_2_281)"/>
<path d="M404.846 217.684C405.161 217.684 405.633 217.558 406.184 217.354C406.97 216.992 407.678 216.678 408.339 216.364C409.771 215.688 410.966 215.028 412.146 214.069C413.971 212.608 414.632 209.779 414.066 207.108C413.783 205.788 412.445 205.269 410.809 205.316C409.897 206.448 408.26 208.365 406.829 209.213C406.42 209.465 405.979 209.732 405.554 210.046C403.824 211.256 402.203 212.812 402.156 214.022C402.093 215.531 402.597 217.715 404.846 217.7V217.684Z" fill="url(#paint55_linear_2_281)"/>
<path d="M401.527 229.36C402.502 229.69 404.201 229.863 407.049 229.046C407.317 228.967 407.6 228.889 407.899 228.779C413.908 226.814 415.466 223.137 414.931 220.701C414.774 220.01 414.27 219.554 413.578 219.271C413.421 219.24 410.778 218.784 405.397 222.335C405.24 222.445 405.082 222.555 404.925 222.65C399.781 226.107 398.727 228.04 401.527 229.344V229.36Z" fill="url(#paint56_linear_2_281)"/>
<path d="M389.963 219.57C390.058 219.24 393.016 209.371 384.662 202.865C383.843 204.672 383.277 204.562 383.025 204.358L382.931 204.688C382.931 204.688 391.128 212.686 389.963 219.57Z" fill="url(#paint57_linear_2_281)"/>
<path d="M385.322 231.984C387.997 232.487 390.435 232.393 392.528 232.016C376.905 231.434 376.135 217.071 377.11 212.372C378.211 206.998 377.362 199.863 373.303 193.106C370.329 188.14 371.021 184.619 371.604 183.111C369.668 183.441 368.945 185.185 369.181 188.973C369.244 189.915 369.401 190.795 369.605 191.644C370.392 194.771 371.997 197.38 372.626 201.042C373.429 205.693 371.588 211.146 371.824 217.354C372.06 223.561 376.371 230.287 385.322 231.969V231.984Z" fill="url(#paint58_linear_2_281)"/>
<path d="M369.605 191.66C373.586 192.713 376.559 190.623 378.022 189.208C376.764 185.704 375.033 183.221 372.721 183.079C369.952 182.907 368.898 184.541 369.181 188.988C369.244 189.931 369.401 190.811 369.605 191.66Z" fill="url(#paint59_linear_2_281)"/>
<path d="M392.355 190.465C393.157 193.027 398.317 193.373 398.506 191.015C397.09 186.27 394.29 186.442 392.858 186.898C392.292 188.045 391.977 189.255 392.355 190.481V190.465Z" fill="url(#paint60_linear_2_281)"/>
<path d="M399.167 199.392C400.017 203.257 405.696 202.739 406.624 199.816C406.813 198.559 406.624 197.097 405.24 195.919C402.235 193.341 399.497 196.594 399.387 196.736C399.01 197.757 399.01 198.684 399.167 199.392Z" fill="url(#paint61_linear_2_281)"/>
<path d="M404.846 217.684C405.161 217.684 405.633 217.558 406.184 217.354C406.97 216.992 407.678 216.678 408.339 216.364C408.669 212.859 406.75 210.911 405.539 210.046C403.808 211.256 402.188 212.812 402.14 214.022C402.078 215.531 402.581 217.715 404.831 217.7L404.846 217.684Z" fill="url(#paint62_linear_2_281)"/>
<path d="M401.527 229.36C402.502 229.69 404.201 229.863 407.049 229.046C407.521 227.93 407.615 226.327 406.939 224.913C406.294 223.561 405.444 222.933 404.909 222.666C399.765 226.123 398.711 228.056 401.511 229.36H401.527Z" fill="url(#paint63_linear_2_281)"/>
<path d="M372.343 369.443C372.343 369.443 370.188 362.293 370.675 358.537C371.163 354.781 392.701 302.388 420.815 302.466L372.359 369.443H372.343Z" fill="#ACA5B5"/>
<path d="M378.998 387.531C378.998 387.531 372.721 382.518 372.138 366.033C371.556 349.533 405.193 292.094 425.661 304.116L379.014 387.531H378.998Z" fill="url(#paint64_linear_2_281)"/>
<path d="M430.931 324.671C430.931 325.347 430.9 326.023 430.884 326.73C430.758 330.156 430.428 333.88 429.846 337.809C429.751 338.469 429.657 339.129 429.531 339.789C428.965 343.215 428.225 346.798 427.281 350.507C427.108 351.135 426.951 351.78 426.778 352.424C425.645 356.541 424.26 360.8 422.593 365.137C422.357 365.75 422.105 366.363 421.853 366.992C420.375 370.669 418.675 374.394 416.756 378.134C416.457 378.731 416.142 379.328 415.828 379.925C414.113 383.147 412.241 386.368 410.18 389.59C410.007 389.857 409.834 390.124 409.661 390.391C409.236 390.643 408.811 390.879 408.386 391.114C393.488 398.972 375.537 388.773 375.474 381.292C375.474 381.214 375.474 381.135 375.474 381.041C375.489 380.57 375.584 379.894 375.741 379.045C376.166 376.672 377.078 372.932 378.369 368.453C378.542 367.84 378.73 367.196 378.919 366.552C379.958 363 381.216 359.056 382.616 354.986C382.837 354.357 383.041 353.744 383.261 353.115C384.725 348.935 386.345 344.661 388.044 340.591C388.296 339.978 388.563 339.365 388.815 338.752C390.357 335.185 391.946 331.806 393.566 328.804C393.897 328.192 394.227 327.61 394.557 327.029C394.951 326.337 395.344 325.677 395.753 325.033C397.436 322.314 399.183 319.831 400.929 317.568C401.37 317.002 401.826 316.437 402.266 315.902C405.696 311.769 409.189 308.548 412.508 306.332C413.279 305.813 414.034 305.358 414.789 304.949C418.864 302.749 422.609 302.168 425.598 303.362C427.061 303.943 428.367 306.065 429.311 309.396C429.515 310.088 429.688 310.842 429.861 311.644C430.585 315.117 430.994 319.533 430.915 324.671H430.931Z" fill="url(#paint65_linear_2_281)"/>
<path d="M429.877 311.659L412.524 306.348C413.295 305.829 414.05 305.373 414.805 304.965L429.326 309.412C429.531 310.104 429.704 310.858 429.877 311.659Z" fill="#988CA5"/>
<path d="M430.931 324.671C430.931 325.347 430.9 326.023 430.884 326.73L400.929 317.568C401.37 317.003 401.826 316.437 402.266 315.902L430.931 324.671Z" fill="#988CA5"/>
<path d="M429.846 337.825C429.751 338.485 429.657 339.145 429.531 339.805L393.566 328.804C393.897 328.192 394.227 327.61 394.557 327.029L429.846 337.825Z" fill="#988CA5"/>
<path d="M427.281 350.507C427.108 351.135 426.951 351.78 426.778 352.424L388.044 340.575C388.296 339.962 388.563 339.349 388.815 338.736L427.281 350.507Z" fill="#988CA5"/>
<path d="M422.577 365.137C422.341 365.75 422.089 366.363 421.838 366.992L382.585 354.986C382.805 354.357 383.01 353.744 383.23 353.115L422.561 365.137H422.577Z" fill="#988CA5"/>
<path d="M416.756 378.134C416.457 378.731 416.142 379.328 415.828 379.925L378.353 368.469C378.526 367.856 378.715 367.212 378.903 366.568L416.756 378.149V378.134Z" fill="#988CA5"/>
<path d="M410.18 389.606C410.007 389.873 409.834 390.14 409.661 390.407C409.236 390.659 408.811 390.894 408.386 391.13L375.474 381.057C375.489 380.585 375.584 379.91 375.741 379.061L410.18 389.59V389.606Z" fill="#988CA5"/>
<path d="M304.127 383.272C304.127 383.272 301.31 376.358 298.573 373.733C295.835 371.109 246.12 343.875 224.299 361.554L304.127 383.257V383.272Z" fill="#ACA5B5"/>
<path d="M310.341 401.518C310.341 401.518 312.087 393.676 302.16 380.475C292.233 367.275 229.947 343.686 221.593 365.876L310.357 401.502L310.341 401.518Z" fill="url(#paint66_linear_2_281)"/>
<path d="M230.404 385.205C230.828 385.724 231.269 386.243 231.741 386.777C233.991 389.37 236.587 392.057 239.513 394.76C240.001 395.216 240.488 395.656 240.992 396.112C243.588 398.422 246.419 400.748 249.487 403.026C250.022 403.419 250.541 403.812 251.092 404.205C254.553 406.704 258.313 409.139 262.356 411.465C262.923 411.795 263.505 412.125 264.087 412.44C267.548 414.372 271.198 416.211 275.053 417.908C275.666 418.175 276.28 418.443 276.909 418.71C280.26 420.14 283.753 421.476 287.387 422.686C287.686 422.796 287.985 422.89 288.3 422.984C288.787 422.921 289.275 422.843 289.747 422.749C306.282 419.511 313.834 400.323 309.177 394.462C309.129 394.399 309.082 394.336 309.019 394.273C308.705 393.912 308.217 393.456 307.556 392.89C305.731 391.303 302.679 388.977 298.856 386.29C298.321 385.913 297.786 385.535 297.22 385.158C294.168 383.052 290.722 380.758 287.072 378.479C286.522 378.134 285.955 377.788 285.389 377.427C281.613 375.101 277.68 372.791 273.778 370.685C273.196 370.371 272.598 370.056 272.016 369.742C268.587 367.935 265.22 366.3 262.058 364.98C261.428 364.713 260.799 364.462 260.17 364.226C259.43 363.943 258.707 363.66 257.983 363.424C254.962 362.372 252.036 361.523 249.267 360.879C248.559 360.722 247.867 360.564 247.175 360.423C241.904 359.354 237.169 359.04 233.188 359.401C232.26 359.48 231.379 359.606 230.545 359.763C225.983 360.612 222.71 362.497 221.137 365.31C220.366 366.678 220.681 369.145 222.034 372.335C222.317 373.011 222.647 373.702 223.009 374.425C224.63 377.584 227.1 381.261 230.372 385.221L230.404 385.205Z" fill="url(#paint67_linear_2_281)"/>
<path d="M223.041 374.409L233.204 359.386C232.276 359.464 231.395 359.59 230.561 359.747L222.05 372.319C222.333 372.995 222.663 373.686 223.025 374.409H223.041Z" fill="#988CA5"/>
<path d="M230.404 385.205C230.828 385.724 231.269 386.243 231.741 386.777L249.283 360.863C248.575 360.706 247.883 360.549 247.19 360.407L230.404 385.205Z" fill="#988CA5"/>
<path d="M239.513 394.744C240.001 395.2 240.488 395.64 240.992 396.096L262.058 364.965C261.428 364.697 260.799 364.446 260.17 364.21L239.497 394.744H239.513Z" fill="#988CA5"/>
<path d="M249.487 403.011C250.022 403.403 250.541 403.796 251.092 404.189L273.778 370.669C273.196 370.355 272.598 370.04 272.016 369.726L249.487 403.011Z" fill="#988CA5"/>
<path d="M262.356 411.449C262.923 411.779 263.505 412.109 264.087 412.424L287.072 378.464C286.522 378.118 285.955 377.772 285.389 377.411L262.356 411.449Z" fill="#988CA5"/>
<path d="M275.053 417.908C275.666 418.175 276.28 418.443 276.909 418.71L298.856 386.29C298.321 385.913 297.786 385.535 297.22 385.158L275.053 417.908Z" fill="#988CA5"/>
<path d="M287.387 422.686C287.686 422.796 287.985 422.89 288.3 422.984C288.787 422.921 289.275 422.843 289.747 422.748L309.019 394.273C308.705 393.911 308.217 393.456 307.556 392.89L287.387 422.701V422.686Z" fill="#988CA5"/>
<defs>
<linearGradient id="paint0_linear_2_281" x1="282.896" y1="204.028" x2="357.327" y2="198.948" gradientUnits="userSpaceOnUse">
<stop stop-color="#34254C"/>
<stop offset="1" stop-color="#51397F"/>
</linearGradient>
<linearGradient id="paint1_linear_2_281" x1="276.38" y1="290.38" x2="362.88" y2="284.476" gradientUnits="userSpaceOnUse">
<stop stop-color="#E1DAE5"/>
<stop offset="1" stop-color="#F7F4F9"/>
</linearGradient>
<linearGradient id="paint2_linear_2_281" x1="247.521" y1="252.242" x2="271.866" y2="250.58" gradientUnits="userSpaceOnUse">
<stop stop-color="#C8B8D3"/>
<stop offset="1" stop-color="#C8B8D3" stop-opacity="0.3"/>
</linearGradient>
<linearGradient id="paint3_linear_2_281" x1="245.752" y1="275.769" x2="348.137" y2="268.781" gradientUnits="userSpaceOnUse">
<stop stop-color="#C8B8D3"/>
<stop offset="1" stop-color="#C8B8D3" stop-opacity="0.3"/>
</linearGradient>
<linearGradient id="paint4_linear_2_281" x1="287.273" y1="350.407" x2="308.306" y2="348.971" gradientUnits="userSpaceOnUse">
<stop stop-color="#C8B8D3" stop-opacity="0.9"/>
<stop offset="1" stop-color="#C8B8D3" stop-opacity="0.3"/>
</linearGradient>
<linearGradient id="paint5_linear_2_281" x1="302.002" y1="305.363" x2="365.775" y2="301.01" gradientUnits="userSpaceOnUse">
<stop stop-color="#C8B8D3" stop-opacity="0.9"/>
<stop offset="1" stop-color="#C8B8D3" stop-opacity="0.3"/>
</linearGradient>
<linearGradient id="paint6_linear_2_281" x1="359.55" y1="334.113" x2="387.175" y2="332.227" gradientUnits="userSpaceOnUse">
<stop stop-color="#C8B8D3" stop-opacity="0.9"/>
<stop offset="1" stop-color="#C8B8D3" stop-opacity="0.3"/>
</linearGradient>
<linearGradient id="paint7_linear_2_281" x1="400.413" y1="280.579" x2="376.803" y2="295.127" gradientUnits="userSpaceOnUse">
<stop stop-color="white"/>
<stop offset="1" stop-color="white" stop-opacity="0"/>
</linearGradient>
<linearGradient id="paint8_linear_2_281" x1="279.889" y1="205.713" x2="298.049" y2="231.696" gradientUnits="userSpaceOnUse">
<stop stop-color="#C8B8D3"/>
<stop offset="1" stop-color="#C8B8D3" stop-opacity="0.3"/>
</linearGradient>
<linearGradient id="paint9_linear_2_281" x1="360.595" y1="186.293" x2="348.009" y2="212.743" gradientUnits="userSpaceOnUse">
<stop stop-color="white"/>
<stop offset="1" stop-color="white" stop-opacity="0"/>
</linearGradient>
<linearGradient id="paint10_linear_2_281" x1="286.472" y1="270.507" x2="349.287" y2="266.22" gradientUnits="userSpaceOnUse">
<stop stop-color="#34254C"/>
<stop offset="1" stop-color="#51397F"/>
</linearGradient>
<linearGradient id="paint11_linear_2_281" x1="297.467" y1="271.727" x2="371.229" y2="263.567" gradientUnits="userSpaceOnUse">
<stop stop-color="#2D2244"/>
<stop offset="1" stop-color="#3E2C5E" stop-opacity="0"/>
</linearGradient>
<linearGradient id="paint12_linear_2_281" x1="288.183" y1="203.62" x2="303.301" y2="243.507" gradientUnits="userSpaceOnUse">
<stop stop-color="#CE1D3B"/>
<stop offset="1" stop-color="#ED202E"/>
</linearGradient>
<linearGradient id="paint13_linear_2_281" x1="340.721" y1="181.613" x2="350.656" y2="215.878" gradientUnits="userSpaceOnUse">
<stop stop-color="#CE1D3B"/>
<stop offset="1" stop-color="#ED202E"/>
</linearGradient>
<linearGradient id="paint14_linear_2_281" x1="301.603" y1="245.22" x2="337.922" y2="240.42" gradientUnits="userSpaceOnUse">
<stop stop-color="#A193AD"/>
<stop offset="1" stop-color="#CEC4D6"/>
</linearGradient>
<linearGradient id="paint15_linear_2_281" x1="328.826" y1="256.849" x2="321.223" y2="218.679" gradientUnits="userSpaceOnUse">
<stop stop-color="#E1DAE5"/>
<stop offset="1" stop-color="#F7F4F9"/>
</linearGradient>
<linearGradient id="paint16_linear_2_281" x1="304.533" y1="262.504" x2="323.255" y2="242.998" gradientUnits="userSpaceOnUse">
<stop stop-color="#CEC4D6"/>
<stop offset="1" stop-color="#CEC4D6" stop-opacity="0"/>
</linearGradient>
<linearGradient id="paint17_linear_2_281" x1="313.493" y1="254.003" x2="309.65" y2="236.385" gradientUnits="userSpaceOnUse">
<stop stop-color="#34254C"/>
<stop offset="1" stop-color="#432A68"/>
</linearGradient>
<linearGradient id="paint18_linear_2_281" x1="325.239" y1="251.439" x2="321.396" y2="233.821" gradientUnits="userSpaceOnUse">
<stop stop-color="#34254C"/>
<stop offset="1" stop-color="#432A68"/>
</linearGradient>
<linearGradient id="paint19_linear_2_281" x1="317.168" y1="246.617" x2="314.958" y2="233.111" gradientUnits="userSpaceOnUse">
<stop stop-color="#A193AD"/>
<stop offset="1" stop-color="#CEC4D6"/>
</linearGradient>
<linearGradient id="paint20_linear_2_281" x1="333.017" y1="235.551" x2="337.304" y2="230.277" gradientUnits="userSpaceOnUse">
<stop stop-color="#3492B7"/>
<stop offset="1" stop-color="#4CC8E5"/>
</linearGradient>
<linearGradient id="paint21_linear_2_281" x1="335.07" y1="243.208" x2="340.281" y2="242.853" gradientUnits="userSpaceOnUse">
<stop stop-color="#D733DB"/>
<stop offset="1" stop-color="#F43EF9"/>
</linearGradient>
<linearGradient id="paint22_linear_2_281" x1="333.933" y1="213.153" x2="343.384" y2="210.015" gradientUnits="userSpaceOnUse">
<stop stop-color="#1E45A5"/>
<stop offset="1" stop-color="#2265C6"/>
</linearGradient>
<linearGradient id="paint23_linear_2_281" x1="293.903" y1="222.511" x2="311.74" y2="216.811" gradientUnits="userSpaceOnUse">
<stop stop-color="#34254C"/>
<stop offset="1" stop-color="#51397F"/>
</linearGradient>
<linearGradient id="paint24_linear_2_281" x1="296.357" y1="199.079" x2="344.276" y2="195.808" gradientUnits="userSpaceOnUse">
<stop stop-color="#34254C"/>
<stop offset="1" stop-color="#51397F"/>
</linearGradient>
<linearGradient id="paint25_linear_2_281" x1="289.69" y1="185.971" x2="284.493" y2="187.667" gradientUnits="userSpaceOnUse">
<stop stop-color="#E1DAE5"/>
<stop offset="1" stop-color="#F7F4F9"/>
</linearGradient>
<linearGradient id="paint26_linear_2_281" x1="342.477" y1="169.208" x2="347.042" y2="167.949" gradientUnits="userSpaceOnUse">
<stop stop-color="#E1DAE5"/>
<stop offset="1" stop-color="#F7F4F9"/>
</linearGradient>
<linearGradient id="paint27_linear_2_281" x1="299.087" y1="149.433" x2="314.422" y2="148.387" gradientUnits="userSpaceOnUse">
<stop stop-color="#E1DAE5"/>
<stop offset="1" stop-color="#F7F4F9"/>
</linearGradient>
<linearGradient id="paint28_linear_2_281" x1="291.691" y1="179.707" x2="342.453" y2="158.662" gradientUnits="userSpaceOnUse">
<stop stop-color="#E1DAE5"/>
<stop offset="1" stop-color="#F7F4F9"/>
</linearGradient>
<linearGradient id="paint29_linear_2_281" x1="306.171" y1="194.551" x2="315.911" y2="148.093" gradientUnits="userSpaceOnUse">
<stop stop-color="#C8B8D3"/>
<stop offset="1" stop-color="#C8B8D3" stop-opacity="0"/>
</linearGradient>
<linearGradient id="paint30_linear_2_281" x1="305.767" y1="201.793" x2="332.517" y2="193.164" gradientUnits="userSpaceOnUse">
<stop stop-color="#E1DAE5"/>
<stop offset="1" stop-color="#F7F4F9"/>
</linearGradient>
<linearGradient id="paint31_linear_2_281" x1="288.449" y1="185.803" x2="350.556" y2="170.294" gradientUnits="userSpaceOnUse">
<stop stop-color="#201D21"/>
<stop offset="1" stop-color="#524B56"/>
</linearGradient>
<linearGradient id="paint32_linear_2_281" x1="279.959" y1="184.79" x2="309.214" y2="181.152" gradientUnits="userSpaceOnUse">
<stop stop-color="#111011"/>
<stop offset="1" stop-color="#111011" stop-opacity="0"/>
</linearGradient>
<linearGradient id="paint33_linear_2_281" x1="321.432" y1="156.606" x2="331.324" y2="180.291" gradientUnits="userSpaceOnUse">
<stop stop-color="#EDE7F2"/>
<stop offset="1" stop-color="#EDE7F2" stop-opacity="0"/>
</linearGradient>
<linearGradient id="paint34_linear_2_281" x1="334.281" y1="174.586" x2="343.287" y2="185.417" gradientUnits="userSpaceOnUse">
<stop stop-color="#EDE7F2"/>
<stop offset="1" stop-color="#EDE7F2" stop-opacity="0"/>
</linearGradient>
<linearGradient id="paint35_linear_2_281" x1="359.279" y1="290.169" x2="392.005" y2="287.935" gradientUnits="userSpaceOnUse">
<stop stop-color="#34254C"/>
<stop offset="1" stop-color="#51397F"/>
</linearGradient>
<linearGradient id="paint36_linear_2_281" x1="298.427" y1="316.758" x2="263.209" y2="297.892" gradientUnits="userSpaceOnUse">
<stop stop-color="#34254C"/>
<stop offset="1" stop-color="#51397F"/>
</linearGradient>
<linearGradient id="paint37_linear_2_281" x1="373.921" y1="235.995" x2="368.389" y2="205.828" gradientUnits="userSpaceOnUse">
<stop stop-color="#34254C"/>
<stop offset="1" stop-color="#51397F"/>
</linearGradient>
<linearGradient id="paint38_linear_2_281" x1="272.641" y1="239.757" x2="278.401" y2="239.364" gradientUnits="userSpaceOnUse">
<stop stop-color="#34254C"/>
<stop offset="1" stop-color="#51397F"/>
</linearGradient>
<linearGradient id="paint39_linear_2_281" x1="294.191" y1="221.877" x2="312.044" y2="216.176" gradientUnits="userSpaceOnUse">
<stop stop-color="#A193AD"/>
<stop offset="1" stop-color="#CEC4D6"/>
</linearGradient>
<linearGradient id="paint40_linear_2_281" x1="269.381" y1="240.972" x2="238.226" y2="213.999" gradientUnits="userSpaceOnUse">
<stop stop-color="#E1DAE5"/>
<stop offset="1" stop-color="#F7F4F9"/>
</linearGradient>
<linearGradient id="paint41_linear_2_281" x1="237.733" y1="207.717" x2="245.895" y2="207.16" gradientUnits="userSpaceOnUse">
<stop stop-color="#E1DAE5"/>
<stop offset="1" stop-color="#F7F4F9"/>
</linearGradient>
<linearGradient id="paint42_linear_2_281" x1="232.222" y1="218.93" x2="240.965" y2="218.333" gradientUnits="userSpaceOnUse">
<stop stop-color="#E1DAE5"/>
<stop offset="1" stop-color="#F7F4F9"/>
</linearGradient>
<linearGradient id="paint43_linear_2_281" x1="227.945" y1="233.665" x2="240.69" y2="232.795" gradientUnits="userSpaceOnUse">
<stop stop-color="#E1DAE5"/>
<stop offset="1" stop-color="#F7F4F9"/>
</linearGradient>
<linearGradient id="paint44_linear_2_281" x1="229.594" y1="246.5" x2="245.243" y2="245.432" gradientUnits="userSpaceOnUse">
<stop stop-color="#E1DAE5"/>
<stop offset="1" stop-color="#F7F4F9"/>
</linearGradient>
<linearGradient id="paint45_linear_2_281" x1="257.543" y1="212.401" x2="252.555" y2="237.584" gradientUnits="userSpaceOnUse">
<stop stop-color="#C8B8D3"/>
<stop offset="1" stop-color="#C8B8D3" stop-opacity="0.3"/>
</linearGradient>
<linearGradient id="paint46_linear_2_281" x1="278.416" y1="236.119" x2="257.668" y2="223.257" gradientUnits="userSpaceOnUse">
<stop stop-color="#C8B8D3"/>
<stop offset="1" stop-color="#C8B8D3" stop-opacity="0.3"/>
</linearGradient>
<linearGradient id="paint47_linear_2_281" x1="263.895" y1="208.881" x2="264.922" y2="199.707" gradientUnits="userSpaceOnUse">
<stop stop-color="#34254C"/>
<stop offset="1" stop-color="#51397F"/>
</linearGradient>
<linearGradient id="paint48_linear_2_281" x1="239.926" y1="209.584" x2="246.032" y2="209.168" gradientUnits="userSpaceOnUse">
<stop stop-color="#34254C"/>
<stop offset="1" stop-color="#51397F"/>
</linearGradient>
<linearGradient id="paint49_linear_2_281" x1="233.402" y1="219.81" x2="240.952" y2="219.295" gradientUnits="userSpaceOnUse">
<stop stop-color="#34254C"/>
<stop offset="1" stop-color="#51397F"/>
</linearGradient>
<linearGradient id="paint50_linear_2_281" x1="234.707" y1="235.236" x2="240.829" y2="234.819" gradientUnits="userSpaceOnUse">
<stop stop-color="#34254C"/>
<stop offset="1" stop-color="#51397F"/>
</linearGradient>
<linearGradient id="paint51_linear_2_281" x1="237.856" y1="247.182" x2="245.328" y2="246.672" gradientUnits="userSpaceOnUse">
<stop stop-color="#34254C"/>
<stop offset="1" stop-color="#51397F"/>
</linearGradient>
<linearGradient id="paint52_linear_2_281" x1="375.243" y1="225.532" x2="400.832" y2="193.242" gradientUnits="userSpaceOnUse">
<stop stop-color="#E1DAE5"/>
<stop offset="1" stop-color="#F7F4F9"/>
</linearGradient>
<linearGradient id="paint53_linear_2_281" x1="400.145" y1="186.978" x2="392.023" y2="187.951" gradientUnits="userSpaceOnUse">
<stop stop-color="#E1DAE5"/>
<stop offset="1" stop-color="#F7F4F9"/>
</linearGradient>
<linearGradient id="paint54_linear_2_281" x1="407.648" y1="196.971" x2="398.947" y2="198.012" gradientUnits="userSpaceOnUse">
<stop stop-color="#E1DAE5"/>
<stop offset="1" stop-color="#F7F4F9"/>
</linearGradient>
<linearGradient id="paint55_linear_2_281" x1="414.579" y1="210.656" x2="401.91" y2="212.173" gradientUnits="userSpaceOnUse">
<stop stop-color="#E1DAE5"/>
<stop offset="1" stop-color="#F7F4F9"/>
</linearGradient>
<linearGradient id="paint56_linear_2_281" x1="415.366" y1="223.588" x2="399.793" y2="225.452" gradientUnits="userSpaceOnUse">
<stop stop-color="#E1DAE5"/>
<stop offset="1" stop-color="#F7F4F9"/>
</linearGradient>
<linearGradient id="paint57_linear_2_281" x1="381.553" y1="195.261" x2="391.12" y2="219.082" gradientUnits="userSpaceOnUse">
<stop stop-color="#C8B8D3"/>
<stop offset="1" stop-color="#C8B8D3" stop-opacity="0.3"/>
</linearGradient>
<linearGradient id="paint58_linear_2_281" x1="365.461" y1="222.443" x2="383.452" y2="205.964" gradientUnits="userSpaceOnUse">
<stop stop-color="#C8B8D3"/>
<stop offset="1" stop-color="#C8B8D3" stop-opacity="0.3"/>
</linearGradient>
<linearGradient id="paint59_linear_2_281" x1="374.657" y1="192.983" x2="371.943" y2="184.158" gradientUnits="userSpaceOnUse">
<stop stop-color="#34254C"/>
<stop offset="1" stop-color="#51397F"/>
</linearGradient>
<linearGradient id="paint60_linear_2_281" x1="398.338" y1="189.22" x2="392.262" y2="189.947" gradientUnits="userSpaceOnUse">
<stop stop-color="#34254C"/>
<stop offset="1" stop-color="#51397F"/>
</linearGradient>
<linearGradient id="paint61_linear_2_281" x1="406.653" y1="198.055" x2="399.139" y2="198.955" gradientUnits="userSpaceOnUse">
<stop stop-color="#34254C"/>
<stop offset="1" stop-color="#51397F"/>
</linearGradient>
<linearGradient id="paint62_linear_2_281" x1="408.245" y1="213.47" x2="402.153" y2="214.2" gradientUnits="userSpaceOnUse">
<stop stop-color="#34254C"/>
<stop offset="1" stop-color="#51397F"/>
</linearGradient>
<linearGradient id="paint63_linear_2_281" x1="407.374" y1="225.777" x2="399.938" y2="226.667" gradientUnits="userSpaceOnUse">
<stop stop-color="#34254C"/>
<stop offset="1" stop-color="#51397F"/>
</linearGradient>
<linearGradient id="paint64_linear_2_281" x1="370.801" y1="346.924" x2="428.311" y2="342.999" gradientUnits="userSpaceOnUse">
<stop stop-color="#E1DAE5"/>
<stop offset="1" stop-color="#F7F4F9"/>
</linearGradient>
<linearGradient id="paint65_linear_2_281" x1="371.867" y1="385.427" x2="434.822" y2="325.179" gradientUnits="userSpaceOnUse">
<stop stop-color="#BBAEC4"/>
<stop offset="1" stop-color="#DED1E8"/>
</linearGradient>
<linearGradient id="paint66_linear_2_281" x1="291.143" y1="364.57" x2="243.97" y2="397.663" gradientUnits="userSpaceOnUse">
<stop stop-color="#E1DAE5"/>
<stop offset="1" stop-color="#F7F4F9"/>
</linearGradient>
<linearGradient id="paint67_linear_2_281" x1="233.16" y1="396.952" x2="311.016" y2="380.446" gradientUnits="userSpaceOnUse">
<stop stop-color="#BBAEC4"/>
<stop offset="1" stop-color="#DED1E8"/>
</linearGradient>
</defs>
</svg>
