<?xml version="1.0" encoding="UTF-8"?>
<svg width="212px" height="48px" viewBox="0 0 212 48" version="1.1" xmlns="http://www.w3.org/2000/svg" xmlns:xlink="http://www.w3.org/1999/xlink">
    <title>aurora_logo</title>
    <g id="Screens" stroke="none" stroke-width="1" fill="none" fill-rule="evenodd">
        <g id="Customer-Experience" transform="translate(-186.000000, -2574.000000)">
            <g id="Group-10" transform="translate(0.000000, 2346.000000)">
                <g id="Group-9" transform="translate(130.000000, 80.000000)">
                    <g id="aurora_logo" transform="translate(56.000000, 148.000000)">
                        <g id="Icons/rain" transform="translate(-0.000000, 0.000000)">
                            <path d="M24.0000458,4 C35.0456691,4 44,12.9543309 44,24.0000458 C44,35.0457608 35.0456691,44 24.0000458,44 C12.9544225,44 4,35.0456691 4,24.0000458 C4,12.9544225 12.9543309,4 24.0000458,4 Z" id="circle" fill-opacity="0.2" fill="#FFFFFF"></path>
                            <rect id="size" x="0" y="0" width="47.9725557" height="47.9597203"></rect>
                            <path d="M24,31 L29.8282271,34.0634586 L23.8080162,45.9991623 L18.0712271,34.1154586 L24,31 Z M35.3722271,21.5664586 L44.8631204,30.9807024 L31.7892271,32.7634586 L30.6573956,26.163119 L35.3722271,21.5664586 Z M12.5462271,21.4884586 L17.3426044,26.163119 L16.2292271,32.6524586 L3.01822708,30.6155276 L12.5462271,21.4884586 Z M37.0861013,6.31514907 L34.7412271,19.2994586 L28.1144968,18.336881 L25.1992271,12.4314586 L37.0861013,6.31514907 Z M11.224535,6.0894586 L22.8492271,12.3304586 L19.8855032,18.336881 L13.3692271,19.2834586 L11.224535,6.0894586 Z" id="Combined-Shape" fill-opacity="0.87" fill="#FFFFFF" fill-rule="nonzero"></path>
                        </g>
                        <path d="M69.1531414,34 L69.1531414,27.95 L80.0219241,27.95 L80.0219241,34 L83.1989529,34 L83.1989529,19.475 C83.1989529,17.55 81.6940445,16 79.854712,16 L69.3203534,16 C67.4810209,16 66,17.55 66,19.475 L66,34 L69.1531414,34 Z M80.0219241,24.65 L69.1531414,24.65 L69.1531414,19.475 C69.1531414,19.375 69.2248037,19.3 69.3203534,19.3 L79.854712,19.3 C79.9502618,19.3 80.0219241,19.375 80.0219241,19.475 L80.0219241,24.65 Z M105.724804,34 C107.540249,34 109.045157,32.45 109.045157,30.525 L109.045157,16 L105.868128,16 L105.868128,30.525 C105.868128,30.625 105.796466,30.7 105.724804,30.7 L95.1665576,30.7 C95.0710079,30.7 94.9993455,30.625 94.9993455,30.525 L94.9993455,16 L91.8462042,16 L91.8462042,30.525 C91.8462042,32.45 93.3272251,34 95.1665576,34 L105.724804,34 Z M120.773887,34 L120.773887,27.825 L126.411322,27.825 L131.379908,34 L134.819699,34 L134.819699,33.15 L130.543848,27.825 L131.475458,27.825 C133.314791,27.825 134.819699,26.25 134.819699,24.35 L134.819699,19.5 C134.819699,17.6 133.314791,16.025 131.475458,16.025 L117.620746,16.025 L117.620746,34 L120.773887,34 Z M131.475458,24.525 L120.941099,24.525 C120.84555,24.525 120.773887,24.45 120.773887,24.35 L120.773887,19.5 C120.773887,19.4 120.84555,19.325 120.941099,19.325 L131.475458,19.325 C131.571008,19.325 131.64267,19.4 131.64267,19.5 L131.64267,24.35 C131.64267,24.45 131.571008,24.525 131.475458,24.525 Z M157.15445,34 C158.969895,34 160.474804,32.45 160.474804,30.525 L160.474804,19.475 C160.474804,17.55 158.969895,16 157.15445,16 L146.596204,16 C144.756872,16 143.275851,17.55 143.275851,19.475 L143.275851,30.525 C143.275851,32.45 144.756872,34 146.596204,34 L157.15445,34 Z M157.15445,30.7 L146.596204,30.7 C146.500654,30.7 146.428992,30.625 146.428992,30.525 L146.428992,19.475 C146.428992,19.375 146.500654,19.3 146.596204,19.3 L157.15445,19.3 C157.226113,19.3 157.297775,19.375 157.297775,19.475 L157.297775,30.525 C157.297775,30.625 157.226113,30.7 157.15445,30.7 Z M172.203534,34 L172.203534,27.825 L177.840969,27.825 L182.809555,34 L186.249346,34 L186.249346,33.15 L181.973495,27.825 L182.905105,27.825 C184.744437,27.825 186.249346,26.25 186.249346,24.35 L186.249346,19.5 C186.249346,17.6 184.744437,16.025 182.905105,16.025 L169.050393,16.025 L169.050393,34 L172.203534,34 Z M182.905105,24.525 L172.370746,24.525 C172.275196,24.525 172.203534,24.45 172.203534,24.35 L172.203534,19.5 C172.203534,19.4 172.275196,19.325 172.370746,19.325 L182.905105,19.325 C183.000654,19.325 183.072317,19.4 183.072317,19.5 L183.072317,24.35 C183.072317,24.45 183.000654,24.525 182.905105,24.525 Z M197.954188,34 L197.954188,27.95 L208.822971,27.95 L208.822971,34 L212,34 L212,19.475 C212,17.55 210.495092,16 208.655759,16 L198.121401,16 C196.282068,16 194.801047,17.55 194.801047,19.475 L194.801047,34 L197.954188,34 Z M208.822971,24.65 L197.954188,24.65 L197.954188,19.475 C197.954188,19.375 198.025851,19.3 198.121401,19.3 L208.655759,19.3 C208.751309,19.3 208.822971,19.375 208.822971,19.475 L208.822971,24.65 Z" id="AURORA" fill-opacity="0.87" fill="#FFFFFF" fill-rule="nonzero"></path>
                    </g>
                </g>
            </g>
        </g>
    </g>
</svg>