<?xml version="1.0" encoding="UTF-8"?>
<svg width="125px" height="19px" viewBox="0 0 125 19" version="1.1" xmlns="http://www.w3.org/2000/svg" xmlns:xlink="http://www.w3.org/1999/xlink">
    <title>logos/dark/aurora</title>
    <g id="Page-1" stroke="none" stroke-width="1" fill="none" fill-rule="evenodd" fill-opacity="0.87">
        <g id="Gov-tech" transform="translate(-162.000000, -1941.000000)" fill="#FFFFFF" fill-rule="nonzero">
            <path d="M164.953125,1959 L166.628906,1954.24219 L173.179688,1954.24219 L174.890625,1959 L177.867188,1959 L171.457031,1941.79688 L168.410156,1941.79688 L162,1959 L164.953125,1959 Z M172.441406,1951.82812 L167.449219,1951.82812 L168.996094,1947.36328 C169.402344,1946.22266 169.710938,1945.17188 169.921875,1944.21094 C170,1944.52344 170.142578,1945.01562 170.349609,1945.6875 C170.556641,1946.35938 170.71875,1946.85156 170.835938,1947.16406 L170.835938,1947.16406 L172.441406,1951.82812 Z M191.703125,1959.23438 C193.132812,1959.23438 194.361328,1958.97852 195.388672,1958.4668 C196.416016,1957.95508 197.201172,1957.22461 197.744141,1956.27539 C198.287109,1955.32617 198.558594,1954.21875 198.558594,1952.95312 L198.558594,1952.95312 L198.558594,1941.86719 L195.757812,1941.86719 L195.757812,1952.68359 C195.757812,1955.45703 194.4375,1956.84375 191.796875,1956.84375 C190.4375,1956.84375 189.429688,1956.50781 188.773438,1955.83594 C188.117188,1955.16406 187.789062,1954.12109 187.789062,1952.70703 L187.789062,1952.70703 L187.789062,1941.86719 L184.976562,1941.86719 L184.976562,1952.90625 C184.976562,1954.875 185.566406,1956.42188 186.746094,1957.54688 C187.925781,1958.67188 189.578125,1959.23438 191.703125,1959.23438 Z M210.742188,1959 L210.742188,1952.15625 L213.507812,1952.15625 L217.609375,1959 L220.796875,1959 L215.957031,1951.41797 C218.175781,1950.51172 219.285156,1948.99219 219.285156,1946.85938 C219.285156,1945.1875 218.753906,1943.9375 217.691406,1943.10938 C216.628906,1942.28125 214.992188,1941.86719 212.78125,1941.86719 L212.78125,1941.86719 L207.941406,1941.86719 L207.941406,1959 L210.742188,1959 Z M212.6875,1949.83594 L210.742188,1949.83594 L210.742188,1944.23438 L212.59375,1944.23438 C213.867188,1944.23438 214.820312,1944.44531 215.453125,1944.86719 C216.085938,1945.28906 216.402344,1945.98438 216.402344,1946.95312 C216.402344,1947.90625 216.109375,1948.625 215.523438,1949.10938 C214.9375,1949.59375 213.992188,1949.83594 212.6875,1949.83594 L212.6875,1949.83594 Z M235.476562,1959.23438 C238.03125,1959.23438 240.005859,1958.46094 241.400391,1956.91406 C242.794922,1955.36719 243.492188,1953.19922 243.492188,1950.41016 C243.492188,1947.61328 242.796875,1945.44531 241.40625,1943.90625 C240.015625,1942.36719 238.046875,1941.59766 235.5,1941.59766 C232.914062,1941.59766 230.923828,1942.35547 229.529297,1943.87109 C228.134766,1945.38672 227.4375,1947.55859 227.4375,1950.38672 C227.4375,1953.21484 228.130859,1955.39648 229.517578,1956.93164 C230.904297,1958.4668 232.890625,1959.23438 235.476562,1959.23438 Z M235.476562,1956.84375 C233.804688,1956.84375 232.542969,1956.29883 231.691406,1955.20898 C230.839844,1954.11914 230.414062,1952.51953 230.414062,1950.41016 C230.414062,1948.30859 230.841797,1946.71484 231.697266,1945.62891 C232.552734,1944.54297 233.820312,1944 235.5,1944 C237.164062,1944 238.416016,1944.54297 239.255859,1945.62891 C240.095703,1946.71484 240.515625,1948.30859 240.515625,1950.41016 C240.515625,1952.54297 240.091797,1954.14844 239.244141,1955.22656 C238.396484,1956.30469 237.140625,1956.84375 235.476562,1956.84375 Z M254.972656,1959 L254.972656,1952.15625 L257.738281,1952.15625 L261.839844,1959 L265.027344,1959 L260.1875,1951.41797 C262.40625,1950.51172 263.515625,1948.99219 263.515625,1946.85938 C263.515625,1945.1875 262.984375,1943.9375 261.921875,1943.10938 C260.859375,1942.28125 259.222656,1941.86719 257.011719,1941.86719 L257.011719,1941.86719 L252.171875,1941.86719 L252.171875,1959 L254.972656,1959 Z M256.917969,1949.83594 L254.972656,1949.83594 L254.972656,1944.23438 L256.824219,1944.23438 C258.097656,1944.23438 259.050781,1944.44531 259.683594,1944.86719 C260.316406,1945.28906 260.632812,1945.98438 260.632812,1946.95312 C260.632812,1947.90625 260.339844,1948.625 259.753906,1949.10938 C259.167969,1949.59375 258.222656,1949.83594 256.917969,1949.83594 L256.917969,1949.83594 Z M273.203125,1959 L274.878906,1954.24219 L281.429688,1954.24219 L283.140625,1959 L286.117188,1959 L279.707031,1941.79688 L276.660156,1941.79688 L270.25,1959 L273.203125,1959 Z M280.691406,1951.82812 L275.699219,1951.82812 L277.246094,1947.36328 C277.652344,1946.22266 277.960938,1945.17188 278.171875,1944.21094 C278.25,1944.52344 278.392578,1945.01562 278.599609,1945.6875 C278.806641,1946.35938 278.96875,1946.85156 279.085938,1947.16406 L279.085938,1947.16406 L280.691406,1951.82812 Z" id="logos/dark/aurora"></path>
        </g>
    </g>
</svg>