<?xml version="1.0" encoding="UTF-8"?>
<svg width="574px" height="337px" viewBox="0 0 574 337" version="1.1" xmlns="http://www.w3.org/2000/svg" xmlns:xlink="http://www.w3.org/1999/xlink">
    <title>aurora_story</title>
    <defs>
        <rect id="path-1" x="0" y="0.72173913" width="574" height="336" rx="8"></rect>
        <linearGradient x1="50%" y1="0%" x2="50%" y2="98.6820508%" id="linearGradient-3">
            <stop stop-color="#5864C6" offset="0%"></stop>
            <stop stop-color="#311D88" offset="100%"></stop>
        </linearGradient>
        <rect id="path-4" x="0" y="0.72173913" width="574" height="336" rx="8"></rect>
        <linearGradient x1="50.9595828%" y1="28.6273888%" x2="49.4578618%" y2="62.0684342%" id="linearGradient-6">
            <stop stop-color="#442EBB" offset="0%"></stop>
            <stop stop-color="#25146A" offset="100%"></stop>
        </linearGradient>
        <linearGradient x1="-2.17957894e-14%" y1="50%" x2="100%" y2="50%" id="linearGradient-7">
            <stop stop-color="#3F27B4" offset="0%"></stop>
            <stop stop-color="#291773" offset="100%"></stop>
        </linearGradient>
        <linearGradient x1="-2.17957894e-14%" y1="50%" x2="100%" y2="50%" id="linearGradient-8">
            <stop stop-color="#000000" offset="0%"></stop>
            <stop stop-color="#291773" offset="100%"></stop>
        </linearGradient>
        <linearGradient x1="42.6378383%" y1="39.1500776%" x2="80.7416789%" y2="100%" id="linearGradient-9">
            <stop stop-color="#52379F" offset="0%"></stop>
            <stop stop-color="#312366" offset="100%"></stop>
        </linearGradient>
        <linearGradient x1="71.0742215%" y1="38.129611%" x2="36.255409%" y2="60.9011107%" id="linearGradient-10">
            <stop stop-color="#3E29AB" stop-opacity="0" offset="0%"></stop>
            <stop stop-color="#95FDF9" offset="100%"></stop>
        </linearGradient>
    </defs>
    <g id="Screens" stroke="none" stroke-width="1" fill="none" fill-rule="evenodd">
        <g id="Customer-Experience" transform="translate(-130.000000, -2429.000000)">
            <g id="Group-10" transform="translate(0.000000, 2346.000000)">
                <g id="Group-9" transform="translate(130.000000, 80.000000)">
                    <g id="aurora_story" transform="translate(0.000000, 3.000000)">
                        <mask id="mask-2" fill="white">
                            <use xlink:href="#path-1"></use>
                        </mask>
                        <use id="Mask" fill="#D8D8D8" xlink:href="#path-1"></use>
                        <mask id="mask-5" fill="white">
                            <use xlink:href="#path-4"></use>
                        </mask>
                        <use id="gradient" fill="url(#linearGradient-3)" opacity="0.649902344" xlink:href="#path-4"></use>
                        <g id="Group-6" mask="url(#mask-5)">
                            <g transform="translate(-62.000000, -58.000000)">
                                <g id="innov_illu-06-06" stroke-width="1" fill="none">
                                    <path d="M647,19.4919169 L647,402.508083 C646.944414,413.259843 631.870185,421.967889 613.258149,422 L49.7692308,422 C31.1571941,421.967889 16.0829657,413.259843 16.0273794,402.508083 L0,19.0046189 C0,8.28406467 31.2112125,0 49.7692308,0 L613.258149,0 C631.870185,0.0321109947 646.944414,8.74015733 647,19.4919169 Z" id="Path" fill="url(#linearGradient-6)"></path>
                                    <path d="M647,341.762969 L647,402.429992 C647,413.238209 638.312017,422 627.594847,422 L491.273644,422 L330.696,353.994224 L489.333129,295.773451 L647,341.762969 Z" id="Path" fill="url(#linearGradient-7)"></path>
                                    <path d="M553.004,358.513274 L646.999,375.207274 L647,402.429992 C647,413.238209 638.312017,422 627.594847,422 L552.161,421.999274 L432.898,379.441496 L456.637092,368.223009 L491.086,368.223009 L553.004,358.513274 Z" id="Combined-Shape" fill="url(#linearGradient-8)" opacity="0.556663876"></path>
                                    <path d="M458.262,330.966241 C458.262,330.966241 451.056887,327.430347 448.075461,326.913404 C445.094035,326.39646 441.615705,325.879517 440.621896,327.430347 C439.628088,328.981178 441.292717,332.744526 448.164904,333.706041 C455.037091,334.667556 458.262,330.966241 458.262,330.966241 Z" id="Path" fill="#5D49CD"></path>
                                    <polygon id="Path" fill="#2A1976" points="432.152 380.173451 456.637092 368.223009 456.77 336.853097 432.152 346.06813"></polygon>
                                    <path d="M448.66031,332.613326 C448.66031,332.613326 449.601009,331.698005 452.893456,331.698005 C456.185903,331.698005 459.008,331.240344 459.008,332.613326 C459.008,333.986309 459.008,333.986309 457.596951,334.44397 C456.185903,334.901631 451.012057,335.359292 451.012057,335.359292 C451.012057,335.359292 445.838212,334.44397 448.66031,332.613326 Z" id="Path" fill="#2A1976"></path>
                                    <polygon id="Path" fill="#391C59" points="389.63 332.306058 389.63 365.235398 413.502 354.316977 413.502 323.40885"></polygon>
                                    <polygon id="Path" fill="#5D49CD" points="432.152 346.075721 456.77 336.853097 413.70834 323.40885 388.884 333.035595"></polygon>
                                    <polygon id="Path" fill="#432CB6" points="430.66 314.583204 430.66 333.118584 425.207273 331.66502 410.518 327.753079 410.518 309.217699 418.282261 311.285857"></polygon>
                                    <path d="M419.623498,329.384071 L419.623498,332.869617 C419.623498,332.869617 418.623835,334.363422 417.624173,334.861357 C416.62451,335.359292 417.624173,336.853097 419.623498,336.853097 C421.622823,336.853097 423.622149,336.853097 423.122317,335.857227 C422.622486,334.861357 421.122992,333.367552 421.122992,332.869617 L421.122992,330.379941 L419.623498,329.384071 Z" id="Path" fill="#432CB6"></path>
                                    <polygon id="Path" fill="#2A1976" points="430.66 314.924801 431.406 314.446018 431.406 332.161017 430.66 333.118584"></polygon>
                                    <path d="M458.602988,329.04623 C456.34714,330.308231 452.408044,331.159235 449.806661,330.791756 C448.424522,330.593511 447.616577,328.779017 447.443809,327.773284 C446.950188,324.872133 446.756083,313.573422 454.654019,311.639321 C454.654019,311.639321 458.637541,310.802822 461.204371,312.727253 C462.119452,313.425159 462.768021,314.404516 463.045577,315.507523 C464.52644,320.826301 462.058335,327.112129 458.602988,329.04623 Z" id="Path" fill="#432CB6"></path>
                                    <polygon id="Path" fill="#2A1976" points="452.294 329.906279 452.687249 331.624779 456.773197 331.624779 455.651 329.420826 459.008 321.168142 455.651 321.168142"></polygon>
                                    <path d="M460.5,312.732905 C459.468159,312.732905 456.621217,311.640127 454.276124,313.097164 C452.479783,314.214226 448.647902,316.011239 448.647902,326.696179 C448.647902,329.610254 449.116921,330.095933 449.670363,330.877876 C448.357111,330.678748 447.405003,328.192071 447.240847,327.181858 C446.771828,324.267783 446.771828,313.582843 454.276124,311.640127 C454.276124,311.640127 458.061104,310.799902 460.5,312.732905 Z" id="Path" fill="#7664DB"></path>
                                    <polygon id="Path" fill="#503BBB" points="424.692 331.624779 410.518 327.719851 410.518 309.217699 418.009905 311.28215"></polygon>
                                    <g id="Group-3" transform="translate(476.166000, 268.884956)">
                                        <polygon id="Path" fill="#20125B" points="6.714 78.399882 63.2353268 87.3876106 66.394 85.4954572 31.5661106 75.0886136 22.7257073 73.1964602 13.9920488 74.1425369 34.3705854 78.399882 14.477252 76.9949581"></polygon>
                                        <path d="M19.0935837,0.746902655 C19.0935837,0.746902655 13.7062138,5.16248392 10.5692642,10.6322355 C7.43231465,16.1019871 13.608793,19.0009554 15.8056319,18.6429353 C18.0024708,18.2849152 40.6966447,10.1697929 19.0935837,0.746902655 Z" id="Path" fill="#936944"></path>
                                        <path d="M11.8945454,78.42167 C11.3583105,78.440199 10.8225329,78.3757918 10.3112446,78.2313374 C8.81285271,77.7887034 8.31338874,78.2313374 6.81499683,78.2313374 C5.31660493,78.2313374 3.31874906,76.4608015 5.31660493,76.0181675 C7.05473954,75.6330759 12.1842345,74.9160088 13.4978247,74.7345289 L13.8074924,74.6902655 C14.8863346,77.5673864 13.382948,78.3597013 11.8945454,78.42167 Z" id="Path" fill="#5D49CD"></path>
                                        <path d="M22.3467625,72.2256757 C21.9897955,74.3939529 19.1340598,73.4324109 19.1340598,73.4324109 C19.1340598,73.4324109 16.9874985,56.8265807 16.2783241,54.2015711 C16.1593352,53.7688772 16.0355866,53.3361833 15.8975594,52.9131049 C15.5691498,53.3217602 15.2264615,53.7448387 14.8504563,54.2015711 C12.4706766,57.0861971 13.8985444,74.3939529 13.8985444,74.3939529 C13.4934905,74.8540591 12.9667116,75.1876692 12.3802449,75.3554949 C11.6377536,75.5574187 10.6715631,75.4371681 9.61494087,74.3939529 C8.18707303,62.374678 9.51023056,46.2496189 9.51023056,46.2496189 C9.62921955,44.9659603 10.6572844,44.3265349 12.0042397,44.1198034 L12.0042397,44.1198034 L12.0613544,44.1198034 C13.801485,43.9408423 15.5578191,44.2207893 17.1588426,44.9323063 L18.2107053,45.1005762 L21.066441,45.5525009 C21.066441,45.5525009 22.0183529,48.9178979 21.066441,51.8025239 C20.1145291,54.6871498 22.6989699,70.0670139 22.3467625,72.2256757 Z" id="Path" fill="#291386"></path>
                                        <path d="M28.6076142,11.6798253 C27.1909803,15.2145736 21.8175415,18.5537618 19.5362725,19.7271223 C18.8816899,20.0595744 18.4811245,20.2160225 18.5006642,20.1524654 C18.5397438,20.0106844 18.080559,19.7466783 17.5236754,19.1404421 C17.2730908,18.8691122 17.0489926,18.5744321 16.854438,18.2604217 C16.3399683,17.4196489 16.0071601,16.4803501 15.8774491,15.5030247 C15.3254504,12.0220554 16.2487049,13.522979 17.7093033,11.5038212 C19.1699016,9.4846635 13.9381262,10.3500168 15.3791848,7.20638866 C17.0107562,3.65208435 14.92,0 14.92,0 C19.4532284,0.327563121 22.735911,1.3542535 25.0074102,2.74761901 C28.9544453,5.20189792 29.770231,8.79042524 28.6076142,11.6798253 Z" id="Path" fill="#1D1739"></path>
                                        <path d="M23.0920493,72.269774 C22.7236746,74.4640824 19.776677,73.4909966 19.776677,73.4909966 C19.776677,73.4909966 17.5615171,56.6858056 16.8296794,54.0292814 C16.7068878,53.5913928 16.5791846,53.1535043 16.4367463,52.7253465 C16.0978416,53.138908 15.7442019,53.5670657 15.3561805,54.0292814 C12.9003492,56.9485387 14.373848,74.4640824 14.373848,74.4640824 C13.9558496,74.9297124 13.4122362,75.2673276 12.8070276,75.4371681 C12.6940594,69.773809 12.5565328,60.0867403 12.9003492,58.4081674 C13.3915155,55.975453 14.8650143,46.7311382 14.8650143,46.7311382 L18.7943444,44.8141593 L21.7413421,45.2715096 C21.7413421,45.2715096 22.7236746,48.6773098 21.7413421,51.596567 C20.7590095,54.5158243 23.4555124,70.0851965 23.0920493,72.269774 Z" id="Path" fill="#150A43"></path>
                                        <path d="M11.936,78.4247788 L12.0978256,75.7977724 L13.5101218,74.7345658 L13.8141578,74.6902655 C14.8733799,77.5697834 13.3973342,78.3627584 11.936,78.4247788 Z" id="Path" fill="#261280"></path>
                                        <path d="M20.539347,74.6812321 C20.0568731,74.7153114 19.5726181,74.652768 19.1125093,74.4969503 C17.8473798,74.053678 17.4240846,74.4969503 16.154199,74.4969503 C14.8843135,74.4969503 13.1958888,72.7288416 14.8843135,72.2855692 C16.1304184,71.961831 19.4264136,71.394044 21.067277,71.115131 L22.051795,70.9557522 C22.9792396,73.7548427 21.7711836,74.5866009 20.539347,74.6812321 Z" id="Path" fill="#5D49CD"></path>
                                        <path d="M20.888,74.6902655 L20.888,71.4536873 L21.3393958,71.1150914 L22.1312512,70.9557522 C22.8504242,73.7641062 21.8787756,74.5956578 20.888,74.6902655 Z" id="Path" fill="#261280"></path>
                                        <path d="M16.361863,9.70973451 C15.959023,9.14054007 10.444,11.9194119 10.444,13.8488846 C10.444,14.813621 10.444,16.2607255 11.4769231,17.2254618 C12.9591677,18.6098585 13.5427692,18.6725664 13.5427692,18.6725664 L17.158,18.6725664 C16.320507,17.6324049 16.5331783,15.8836182 15.9988896,14.6816346 C15.4824281,13.2345301 17.158,12.3743709 17.158,12.3743709 C17.7530052,11.4896648 19.023,10.3482309 16.361863,9.70973451 Z" id="Path" fill="#664A30"></path>
                                        <path d="M28.6136269,12.0246381 C27.2128067,15.6008674 21.8993508,18.9792416 19.6435473,20.1663717 L17.6485861,19.5728067 L16.412,19.2018285 L16.9868193,18.6824591 C18.9189851,16.8968177 25.0439506,10.9562211 24.6381958,7.6174178 C24.4147712,6.06434007 24.5470657,4.47933656 25.024629,2.98761062 C28.9565863,5.47069097 29.7632655,9.10133036 28.6136269,12.0246381 Z" id="Path" fill="#0F0E13"></path>
                                        <path d="M21.634,23.3448288 L25.7460489,27.2075468 C26.4005995,27.8224093 26.5650588,28.7981721 26.1482068,29.5936134 L22.38,36.7841455 L22.38,36.7841455 L21.634,31.9252461 L23.1967343,29.4654373 L20.888,27.6399166 L21.634,23.3448288 Z" id="Path-4" fill="#664A30"></path>
                                        <path d="M21.4782872,27.767294 C22.9577007,34.7280904 22.5612566,43.5311646 20.6950683,45.4074687 C19.1141265,46.9969801 16.4792234,47.2059985 14.1198973,46.9775366 C12.4099027,46.7995417 10.7240737,46.4361017 9.09182535,45.8935578 C8.42947357,37.07104 8.78724022,31.1601962 9.5462857,27.1937089 C9.02897445,25.9979296 8.12488844,26.9360816 6.79535018,25.9104336 C5.46581192,24.8847855 6.13783308,22.2890695 6.13783308,22.2890695 C9.46893075,20.0725031 13.9265099,18.6725664 13.9265099,18.6725664 L14.1634095,19.0760204 C14.5690178,18.9331242 14.9954783,18.859198 15.4252622,18.8572802 L15.4252622,18.8572802 C16.7112882,18.8572802 17.8087616,19.5766922 18.7273517,20.7773323 C20.2792855,21.4967442 19.5299094,23.207778 20.2019305,23.5334577 C21.1688674,24.0195468 22.3678692,27.3492574 22.3678692,27.3492574 L21.4782872,27.767294 Z" id="Path" fill="#7353A3"></path>
                                        <path d="M21.6494827,27.9883544 C22.8277836,35.7041048 22.5407903,43.545905 20.6910875,45.4143601 C19.1241113,46.9972223 16.5124843,47.2053662 14.174,46.9778601 C14.5182763,46.6046471 11.4508013,43.6938053 8.3513567,37.9274199 C8.21267277,37.6694043 9.57741523,35.9308961 10.6280898,36.1456977 C12.3686953,36.5015498 14.5263515,38.5478413 14.7656288,37.9274199 C19.023,26.8884956 14.4441195,19.6779805 14.4441195,19.6779805 C14.4441195,19.6779805 14.1436694,19.3428425 13.5427692,18.6725664 C14.8174349,18.6725664 15.9612715,18.3667047 17.6478988,19.3967023 C18.994444,20.0259748 20.5042004,20.3209119 21.1750771,21.2309366 C22.6126699,23.1671595 22.3634872,27.4510526 22.3634872,27.4510526 L21.6494827,27.9883544 Z" id="Path" fill="url(#linearGradient-9)"></path>
                                        <path d="M6.25555294,22.5792644 C2.50423043,24.6068273 0.466368425,26.0432376 0.14196692,26.8884956 C-0.344635337,28.1563825 6.19857136,35.4870174 7.57528568,36.5705477 C8.952,37.6540779 8.206,39.2403401 8.952,39.2403401 C9.698,39.2403401 14.0696931,38.0447704 11.1500796,35.8213288 C9.20367054,34.3390344 6.72698056,31.5875615 3.72000963,27.5669102 C6.0360372,26.833587 7.35209176,26.1329776 7.66817333,25.4650819 C7.98425489,24.7971862 7.51338143,23.8352471 6.25555294,22.5792644 Z" id="Path-3" fill="#936944"></path>
                                    </g>
                                    <g id="Group" opacity="0.11" transform="translate(329.204000, 76.930973)" fill="#F0EEFF">
                                        <ellipse id="Oval" cx="242.098083" cy="100.430203" rx="1.60065652" ry="1.60310206"></ellipse>
                                        <ellipse id="Oval" cx="275.522126" cy="86.6747098" rx="1.60065652" ry="1.60310206"></ellipse>
                                        <ellipse id="Oval" cx="279.18077" cy="22.024381" rx="1.60065652" ry="1.60310206"></ellipse>
                                        <ellipse id="Oval" cx="238.891904" cy="82.5475747" rx="1.60065652" ry="1.60310206"></ellipse>
                                        <ellipse id="Oval" cx="1.74174783" cy="20.1873917" rx="1.60065652" ry="1.60310206"></ellipse>
                                        <ellipse id="Oval" cx="115.738657" cy="81.1734872" rx="1.60065652" ry="1.60310206"></ellipse>
                                        <ellipse id="Oval" cx="95.5966565" cy="50.909454" rx="1.60065652" ry="1.60310206"></ellipse>
                                        <ellipse id="Oval" cx="37.9097739" cy="18.355275" rx="1.60065652" ry="1.60310206"></ellipse>
                                        <ellipse id="Oval" cx="61.7152826" cy="5.05781138" rx="1.60065652" ry="1.60310206"></ellipse>
                                        <ellipse id="Oval" cx="171.134022" cy="1.8467346" rx="1.60065652" ry="1.60310206"></ellipse>
                                        <ellipse id="Oval" cx="55.3077913" cy="39.444107" rx="1.60065652" ry="1.60310206"></ellipse>
                                        <ellipse id="Oval" cx="125.809657" cy="33.9428845" rx="1.60065652" ry="1.60310206"></ellipse>
                                        <ellipse id="Oval" cx="189.451565" cy="83.0056039" rx="1.60065652" ry="1.60310206"></ellipse>
                                        <ellipse id="Oval" cx="137.714843" cy="60.0797826" rx="1.60065652" ry="1.60310206"></ellipse>
                                        <ellipse id="Oval" cx="289.256635" cy="47.6983772" rx="1.60065652" ry="1.60310206"></ellipse>
                                    </g>
                                    <g id="Group-4" transform="translate(464.230000, 160.584071)">
                                        <polygon id="Path" fill="#5D49CD" points="0 0 20.142 4.66814159 16.3054286 11.2035398 13.428 6.53539823"></polygon>
                                        <polygon id="Path" fill="#2A1976" points="20.0803371 4.48141593 23.872 8.96283186 17.904 8.08484017"></polygon>
                                        <polygon id="Path" fill="#7664DB" points="5.75485714 14.1911504 0 0 13.428 6.62253687"></polygon>
                                        <polygon id="Path" fill="#432CB6" points="16.412 11.2035398 11.936 8.23574499 13.5481393 6.72212389"></polygon>
                                    </g>
                                    <polygon id="Path" fill="#5D49CD" points="490.34 344.733682 517.154882 352.538053 552.258 335.953766 527.393291 328.637168"></polygon>
                                    <polygon id="Path" fill="#2A1976" points="517.196 352.722474 517.196 375.692035 552.258 358.253365 552.258 335.953766 517.027391 352.570044"></polygon>
                                    <polygon id="Path" fill="#432CB6" points="490.34 345.069027 490.34 368.400843 517.196 375.692035 517.196 352.538053 490.34 344.760781"></polygon>
                                    <g id="Group-5-Copy" transform="translate(516.450000, 344.322124)">
                                        <polygon id="Path" fill="#7664DB" points="0 1.70720607 4.97333333 2.98761062 10.444 0.853603034 5.968 0"></polygon>
                                        <polygon id="Path" fill="#2A1976" points="4.476 2.82163225 10.444 0.853603034 10.444 2.24070796 4.476 4.48141593"></polygon>
                                        <polygon id="Path" fill="#432CB6" points="0 3.27498264 0 1.70720607 4.476 2.82163225 4.476 4.48141593"></polygon>
                                    </g>
                                    <polygon id="Path" fill="#432CB6" points="388.884 366.290804 432.152 380.173451 432.152 346.075721 388.884 333.118584"></polygon>
                                    <polygon id="Path" fill="#5149CD" points="410.518 309.715634 430.920233 315.19292 431.406 314.694985 411.003767 309.217699"></polygon>
                                    <g id="Group-5" transform="translate(515.704000, 342.828319)">
                                        <polygon id="Path" fill="#7664DB" points="0 1.70720607 4.97333333 2.98761062 10.444 0.853603034 5.968 0"></polygon>
                                        <polygon id="Path" fill="#2A1976" points="4.476 2.82163225 10.444 0.853603034 10.444 2.24070796 4.476 4.48141593"></polygon>
                                        <polygon id="Path" fill="#432CB6" points="0 3.27498264 0 1.70720607 4.476 2.82163225 4.476 4.48141593"></polygon>
                                    </g>
                                </g>
                                <polygon id="Star" fill="#5B3EEE" points="287 157.5 278.183221 162.135255 279.867076 152.317627 272.734152 145.364745 282.591611 143.932373 287 135 291.408389 143.932373 301.265848 145.364745 294.132924 152.317627 295.816779 162.135255"></polygon>
                                <path d="M300.563013,146 L300.999013,146.064 L300.999013,146.088 L293.901532,153.087541 L295.582016,163 L286.782887,158.319972 L278.0932,162.943555 C278.062173,162.933066 278.031111,162.922549 278.000013,162.912004 L278.041013,162.664 L285.501436,157.076928 L286.663836,157.076928 L295.526767,162.844272 L292.871782,151.232932 L300.563013,146 Z" id="Combined-Shape" fill="#231464"></path>
                                <polygon id="Star" fill="#5B3EEE" points="241 145.5 232.183221 150.135255 233.867076 140.317627 226.734152 133.364745 236.591611 131.932373 241 123 245.408389 131.932373 255.265848 133.364745 248.132924 140.317627 249.816779 150.135255"></polygon>
                                <path d="M255.569718,132 L255.999718,132.063 L255.999718,132.109 L248.913112,139.088687 L250.595574,149 L241.786087,144.320513 L233.143275,148.911388 C233.095473,148.895078 233.047586,148.8787 232.999614,148.862256 L233.010718,148.796 L240.599455,143.077613 L241.754559,143.077613 L250.56187,148.84429 L247.923547,137.234292 L255.569718,132 Z" id="Combined-Shape" fill="#231464"></path>
                                <polygon id="Star" fill="#5B3EEE" points="311 121.5 302.183221 126.135255 303.867076 116.317627 296.734152 109.364745 306.591611 107.932373 311 99 315.408389 107.932373 325.265848 109.364745 318.132924 116.317627 319.816779 126.135255"></polygon>
                                <path d="M324.563013,109 L324.999013,109.064 L324.999013,109.088 L317.901532,116.087541 L319.582016,126 L310.782887,121.319972 L302.0932,125.943555 C302.062173,125.933066 302.031111,125.922549 302.000013,125.912004 L302.041013,125.664 L309.501436,120.076928 L310.663836,120.076928 L319.526767,125.844272 L316.871782,114.232932 L324.563013,109 Z" id="Combined-Shape" fill="#231464"></path>
                                <polygon id="Star" fill="#5B3EEE" points="351 145.5 342.183221 150.135255 343.867076 140.317627 336.734152 133.364745 346.591611 131.932373 351 123 355.408389 131.932373 365.265848 133.364745 358.132924 140.317627 359.816779 150.135255"></polygon>
                                <polygon id="Star-Copy" fill="#5B3EEE" points="386 131.5 377.183221 136.135255 378.867076 126.317627 371.734152 119.364745 381.591611 117.932373 386 109 390.408389 117.932373 400.265848 119.364745 393.132924 126.317627 394.816779 136.135255"></polygon>
                                <path d="M365.563013,132 L365.999013,132.064 L365.999013,132.088 L358.901532,139.087541 L360.582016,149 L351.782887,144.319972 L343.0932,148.943555 C343.062173,148.933066 343.031111,148.922549 343.000013,148.912004 L343.041013,148.664 L350.501436,143.076928 L351.663836,143.076928 L360.526767,148.844272 L357.871782,137.232932 L365.563013,132 Z" id="Combined-Shape" fill="#231464"></path>
                                <path d="M400.563013,119 L400.999013,119.064 L400.999013,119.088 L393.901532,126.087541 L395.582016,136 L386.782887,131.319972 L378.0932,135.943555 C378.062173,135.933066 378.031111,135.922549 378.000013,135.912004 L378.041013,135.664 L385.501436,130.076928 L386.663836,130.076928 L395.526767,135.844272 L392.871782,124.232932 L400.563013,119 Z" id="Combined-Shape-Copy" fill="#231464"></path>
                                <path d="M239.5,223 L299,223 L299,223 L299,232 C299,238.627417 293.627417,244 287,244 L239.5,244 C233.70101,244 229,239.29899 229,233.5 C229,227.70101 233.70101,223 239.5,223 Z" id="Rectangle-Copy-22" fill="#432CB6" transform="translate(264.000000, 233.500000) scale(-1, 1) translate(-264.000000, -233.500000) "></path>
                                <path d="M293.5,193 L353,193 L353,193 L353,206 C353,210.418278 349.418278,214 345,214 L293.5,214 C287.70101,214 283,209.29899 283,203.5 C283,197.70101 287.70101,193 293.5,193 Z" id="Rectangle-Copy-23" fill="#5D49CD"></path>
                                <path d="M501,195 L507.772,201.89 L562,201.890625 C568.627417,201.890625 574,207.263208 574,213.890625 L574,232 C574,238.627417 568.627417,244 562,244 L513,244 C506.372583,244 501,238.627417 501,232 L501,201.890625 L503.29,201.89 L501,201.555145 L501,195 Z" id="Combined-Shape" fill="#4930C3" opacity="0.771926153" transform="translate(537.500000, 219.500000) scale(-1, 1) translate(-537.500000, -219.500000) "></path>
                                <path d="M353,56 C362.61371,78.1807134 370.910658,92.4551061 377.890842,98.8231781 C388.36112,108.375286 404.058752,119.536433 442.293276,106.607661 C480.5278,93.678889 491.277297,123.88858 495.764383,133.694708 C500.251469,143.500836 514.798732,163.113092 534.652462,161.604457 C554.506191,160.095822 569.053454,156.02028 575.784083,166.355544 C582.514712,176.690808 584.842768,189.00243 592.610655,195.989951 C600.378542,202.977471 612.90195,200.385819 626.312418,207.373339 C635.25273,212.031686 642.481924,217.90724 648,225 C648,208.944553 648,198.356581 648,193.236084 C646.557185,192.453415 642.7916,184.839872 637.079741,181.866612 C623.593604,174.846518 617.289628,177.582699 610.630924,169.593578 C603.97222,161.604457 610.630924,145.009471 592.610655,133.694708 C574.590386,122.379944 553.016955,136.953777 540.843318,125.094524 C528.66968,113.235272 526.71793,101.363382 508.10387,85.6315535 C489.48981,69.8997249 445.318382,78.5225188 439.350504,72.552356 C435.371919,68.5722475 433.246002,63.0547955 432.972754,56 L353,56 Z" id="Path-23" fill="url(#linearGradient-10)" opacity="0.424827939"></path>
                            </g>
                        </g>
                    </g>
                </g>
            </g>
        </g>
    </g>
</svg>