<?xml version="1.0" encoding="UTF-8"?>
<svg width="371px" height="326px" viewBox="0 0 371 326" version="1.1" xmlns="http://www.w3.org/2000/svg" xmlns:xlink="http://www.w3.org/1999/xlink">
    <title>home/aurora_thumb</title>
    <defs>
        <rect id="path-1" x="0" y="0" width="371" height="326" rx="8"></rect>
        <linearGradient x1="50.7522771%" y1="-0.239030023%" x2="49.5749839%" y2="78.3683834%" id="linearGradient-3">
            <stop stop-color="#442EBB" offset="0%"></stop>
            <stop stop-color="#25146A" offset="100%"></stop>
        </linearGradient>
        <linearGradient x1="-2.17957894e-14%" y1="50%" x2="100%" y2="50%" id="linearGradient-4">
            <stop stop-color="#3F27B4" offset="0%"></stop>
            <stop stop-color="#291773" offset="100%"></stop>
        </linearGradient>
        <linearGradient x1="-2.17957894e-14%" y1="50%" x2="100%" y2="50%" id="linearGradient-5">
            <stop stop-color="#000000" offset="0%"></stop>
            <stop stop-color="#291773" offset="100%"></stop>
        </linearGradient>
        <linearGradient x1="42.6123217%" y1="39.1500776%" x2="80.8482268%" y2="100%" id="linearGradient-6">
            <stop stop-color="#52379F" offset="0%"></stop>
            <stop stop-color="#312366" offset="100%"></stop>
        </linearGradient>
        <linearGradient x1="71.0742215%" y1="38.1603425%" x2="36.255409%" y2="60.8728886%" id="linearGradient-7">
            <stop stop-color="#3E29AB" stop-opacity="0" offset="0%"></stop>
            <stop stop-color="#95FDF9" offset="100%"></stop>
        </linearGradient>
    </defs>
    <g id="Screens" stroke="none" stroke-width="1" fill="none" fill-rule="evenodd">
        <g id="Home-page" transform="translate(-533.000000, -2372.000000)">
            <g id="home/aurora_thumb" transform="translate(533.000000, 2372.000000)">
                <rect id="Rectangle-Copy-12" stroke-opacity="0.08" stroke="#000000" fill="#120033" x="0.5" y="0.5" width="370" height="324" rx="8"></rect>
                <mask id="mask-2" fill="white">
                    <use xlink:href="#path-1"></use>
                </mask>
                <g id="Mask"></g>
                <g id="Group-6" mask="url(#mask-2)">
                    <g transform="translate(134.000000, 36.000000)">
                        <g id="innov_illu-06-06" stroke-width="1" fill="none" transform="translate(7.000000, 0.000000)">
                            <path d="M255,13.3025404 L255,274.69746 C254.978092,282.035153 249.036935,287.978085 241.701434,288 L19.6153846,288 C12.2798833,287.978085 6.33872684,282.035153 6.31681877,274.69746 L0,12.9699769 C0,5.65357968 12.3011734,0 19.6153846,0 L241.701434,0 C249.036935,0.0219146125 254.978092,5.96484671 255,13.3025404 Z" id="Path" fill="url(#linearGradient-3)"></path>
                            <path d="M255,233.241078 L255,274.644165 C255,282.020389 249.060494,288 241.733742,288 L148.538282,288 L38.76,241.588475 L147.211656,201.854867 L255,233.241078 Z" id="Path" fill="url(#linearGradient-4)"></path>
                            <path d="M190.74,244.672566 L255,256.065566 L255,274.644165 C255,282.020389 249.060494,288 241.733742,288 L190.165,287.999566 L108.63,258.955334 L124.859138,251.299115 L148.41,251.299115 L190.74,244.672566 Z" id="Combined-Shape" fill="url(#linearGradient-5)" opacity="0.556663876"></path>
                            <path d="M125.97,225.872695 C125.97,225.872695 121.044253,223.459573 119.006012,223.106778 C116.967772,222.753982 114.589825,222.401187 113.910412,223.459573 C113.230998,224.51796 114.369016,227.086312 119.06716,227.742511 C123.765303,228.398711 125.97,225.872695 125.97,225.872695 Z" id="Path" fill="#5D49CD"></path>
                            <polygon id="Path" fill="#2A1976" points="108.12 259.454867 124.859138 251.299115 124.95 229.890265 108.12 236.179198"></polygon>
                            <path d="M119.405842,226.996773 C119.405842,226.996773 120.048947,226.372098 122.299816,226.372098 C124.550684,226.372098 126.48,226.059761 126.48,226.996773 C126.48,227.933784 126.48,227.933784 125.515342,228.246122 C124.550684,228.558459 121.013605,228.870796 121.013605,228.870796 C121.013605,228.870796 117.476526,228.246122 119.405842,226.996773 Z" id="Path" fill="#2A1976"></path>
                            <polygon id="Path" fill="#391C59" points="79.05 226.787072 79.05 249.260177 95.37 241.808742 95.37 220.715044"></polygon>
                            <polygon id="Path" fill="#5D49CD" points="108.12 236.184379 124.95 229.890265 95.5110638 220.715044 78.54 227.284956"></polygon>
                            <polygon id="Path" fill="#432CB6" points="107.1 214.691855 107.1 227.341593 103.372264 226.349587 93.33 223.679827 93.33 211.030088 98.6380071 212.441533"></polygon>
                            <path d="M99.5549383,224.79292 L99.5549383,227.171681 C99.5549383,227.171681 98.8715228,228.19115 98.1881072,228.530973 C97.5046917,228.870796 98.1881072,229.890265 99.5549383,229.890265 C100.921769,229.890265 102.2886,229.890265 101.946893,229.210619 C101.605185,228.530973 100.580062,227.511504 100.580062,227.171681 L100.580062,225.472566 L99.5549383,224.79292 Z" id="Path" fill="#432CB6"></path>
                            <polygon id="Path" fill="#2A1976" points="107.1 214.924983 107.61 214.59823 107.61 226.688087 107.1 227.341593"></polygon>
                            <path d="M126.203115,224.562356 C124.660913,225.423627 121.967965,226.004407 120.18954,225.753615 C119.244646,225.61832 118.692298,224.379993 118.574186,223.693616 C118.236724,221.713683 118.104024,214.002714 123.503418,212.682759 C123.503418,212.682759 126.226737,212.111879 127.98154,213.425234 C128.607132,213.90153 129.050524,214.569907 129.240274,215.32267 C130.25266,218.952546 128.56535,223.242401 126.203115,224.562356 Z" id="Path" fill="#432CB6"></path>
                            <polygon id="Path" fill="#2A1976" points="121.89 225.149309 122.158843 226.322124 124.952186 226.322124 124.185 224.818005 126.48 219.185841 124.185 219.185841"></polygon>
                            <path d="M127.5,213.429091 C126.794586,213.429091 124.848285,212.683309 123.245072,213.677685 C122.01701,214.44004 119.397359,215.666438 119.397359,222.95853 C119.397359,224.947282 119.718002,225.278741 120.09636,225.812389 C119.198561,225.676491 118.547656,223.979423 118.435431,223.289988 C118.114789,221.301236 118.114789,214.009144 123.245072,212.683309 C123.245072,212.683309 125.832658,212.109886 127.5,213.429091 Z" id="Path" fill="#7664DB"></path>
                            <polygon id="Path" fill="#503BBB" points="103.02 226.322124 93.33 223.657149 93.33 211.030088 98.4518119 212.439003"></polygon>
                            <g id="Group-3" transform="translate(138.210000, 183.504425)">
                                <polygon id="Path" fill="#20125B" points="4.59 53.5051327 43.2305854 59.6389381 45.39 58.3476106 21.5800488 51.2453097 15.5363415 49.9539823 9.56560976 50.599646 23.4973171 53.5051327 9.89731707 52.5463221"></polygon>
                                <path d="M13.0532542,0.509734513 C13.0532542,0.509734513 9.37019976,3.52321177 7.22563639,7.2561228 C5.08107302,10.9890338 9.30359842,12.9674767 10.8054588,12.7231407 C12.3073192,12.4788047 27.8221029,6.94052214 13.0532542,0.509734513 Z" id="Path" fill="#936944"></path>
                                <path d="M8.13165972,53.5200023 C7.76506484,53.5326476 7.39878252,53.488692 7.04924229,53.3901071 C6.02487249,53.0880251 5.68341589,53.3901071 4.65904609,53.3901071 C3.63467629,53.3901071 2.26884989,52.1817792 3.63467629,51.8796972 C4.82294526,51.6168859 8.32970454,51.1275131 9.2277354,51.0036595 L9.43943849,50.9734513 C10.1769847,52.9369841 9.14920038,53.4777108 8.13165972,53.5200023 Z" id="Path" fill="#5D49CD"></path>
                                <path d="M15.2772773,49.2914564 C15.0332382,50.7712285 13.0809256,50.1150103 13.0809256,50.1150103 C13.0809256,50.1150103 11.6134373,38.7821215 11.128613,36.9906457 C11.0472667,36.6953475 10.9626664,36.4000493 10.8683047,36.1113133 C10.6437887,36.390206 10.4095112,36.678942 10.1524567,36.9906457 C8.52552955,38.9593004 9.50168585,50.7712285 9.50168585,50.7712285 C9.2247723,51.0852347 8.86464197,51.3129117 8.46370632,51.4274467 C7.95610504,51.5652526 7.29557261,51.4831858 6.57321695,50.7712285 C5.59706065,42.5685006 6.50163215,31.5637209 6.50163215,31.5637209 C6.58297851,30.6876696 7.28581105,30.2512845 8.20665182,30.1101976 L8.20665182,30.1101976 L8.24569808,30.1101976 C9.43533156,29.988063 10.6360425,30.1791169 11.7305761,30.664702 L12.4496779,30.7795402 L14.4019905,31.0879627 C14.4019905,31.0879627 15.0527613,33.3847265 14.4019905,35.3533812 C13.7512196,37.3220359 15.5180625,47.8182465 15.2772773,49.2914564 Z" id="Path" fill="#291386"></path>
                                <path d="M19.5574842,7.97106561 C18.589008,10.3834057 14.9154774,12.662283 13.3558967,13.4630597 C12.9083939,13.6899465 12.6345489,13.7967167 12.6479072,13.7533413 C12.6746238,13.6565808 12.3607039,13.476406 11.9799925,13.0626714 C11.8086814,12.8774984 11.6554775,12.6763897 11.522471,12.4620888 C11.1707558,11.8882912 10.9432328,11.2472532 10.8545564,10.5802633 C10.4771846,8.20462551 11.1083639,9.22895248 12.1068963,7.85094909 C13.1054287,6.4729457 9.52874578,7.06351858 10.5139199,4.91810411 C11.6293374,2.49241775 10.2,0 10.2,0 C13.299124,0.223550187 15.5433172,0.924229876 17.0962188,1.87515231 C19.7945939,3.55011043 20.3523027,5.99915277 19.5574842,7.97106561 Z" id="Path" fill="#1D1739"></path>
                                <path d="M15.7867897,49.3215519 C15.5349518,50.8190894 13.5202483,50.154993 13.5202483,50.154993 C13.5202483,50.154993 12.0058629,38.6860474 11.5055449,36.8730641 C11.4215989,36.5742207 11.3342951,36.2753773 11.2369177,35.9831749 C11.0052268,36.2654159 10.7634624,36.5576183 10.4981931,36.8730641 C8.81927358,38.8653534 9.82662531,50.8190894 9.82662531,50.8190894 C9.54086232,51.1368653 9.16922316,51.3672757 8.75547464,51.4831858 C8.67824434,47.6181445 8.58422484,41.0070645 8.81927358,39.8614981 C9.15505749,38.201257 10.1624092,31.8923408 10.1624092,31.8923408 L12.8486805,30.5840708 L14.863384,30.8961961 C14.863384,30.8961961 15.5349518,33.2205337 14.863384,35.212823 C14.1918162,37.2051123 16.0352698,47.8306554 15.7867897,49.3215519 Z" id="Path" fill="#150A43"></path>
                                <path d="M8.16,53.5221239 L8.27063144,51.7292854 L9.23614224,51.0036847 L9.44399525,50.9734513 C10.1681283,52.93862 9.15903547,53.4797972 8.16,53.5221239 Z" id="Path" fill="#261280"></path>
                                <path d="M14.0416448,50.9672863 C13.7118033,50.9905443 13.3807443,50.9478606 13.0661927,50.8415206 C12.2012918,50.539003 11.9119077,50.8415206 11.0437554,50.8415206 C10.175603,50.8415206 9.02131808,49.6348492 10.175603,49.3323316 C11.0274978,49.1113918 13.2807921,48.7238973 14.402562,48.5335491 L15.075624,48.4247788 C15.7096678,50.3350585 14.883785,50.9027039 14.0416448,50.9672863 Z" id="Path" fill="#5D49CD"></path>
                                <path d="M14.28,50.9734513 L14.28,48.7646018 L14.588595,48.5335221 L15.1299439,48.4247788 C15.6216037,50.3413805 14.9573399,50.908885 14.28,50.9734513 Z" id="Path" fill="#261280"></path>
                                <path d="M11.1857241,6.62654867 C10.9103241,6.2380937 7.14,8.13457497 7.14,9.4513715 C7.14,10.1097698 7.14,11.0973672 7.84615385,11.7557654 C8.85948462,12.7005669 9.25846154,12.7433628 9.25846154,12.7433628 L11.73,12.7433628 C11.1574512,12.0334896 11.3028431,10.8400048 10.9375787,10.0196938 C10.5845018,9.03209637 11.73,8.44506826 11.73,8.44506826 C12.136773,7.8412878 13.005,7.06229976 11.1857241,6.62654867 Z" id="Path" fill="#664A30"></path>
                                <path d="M19.5615948,8.20638809 C18.6039295,10.6470374 14.971406,12.9526578 13.4292347,13.7628319 L12.0653873,13.3577448 L11.22,13.1045654 L11.612973,12.7501143 C12.9338906,11.5314775 17.1211995,7.47723144 16.8438068,5.19861689 C16.6910634,4.13869654 16.7815061,3.05698799 17.1079903,2.03893805 C19.7960577,3.73355213 20.3475408,6.21133447 19.5615948,8.20638809 Z" id="Path" fill="#0F0E13"></path>
                                <path d="M14.79,15.9320159 L17.2481385,18.2371159 C17.9040725,18.8522128 18.0688556,19.8294447 17.6508943,20.6256243 L15.3,25.1038718 L15.3,25.1038718 L14.79,21.7878457 L15.8583572,20.1091136 L14.28,18.8632606 L14.79,15.9320159 Z" id="Path-4" fill="#664A30"></path>
                                <path d="M14.6835476,18.9501912 C15.6949429,23.7006873 15.4239154,29.7084725 14.148103,30.9889834 C13.0672983,32.0737684 11.265957,32.216416 9.65301291,32.0604989 C8.48398171,31.9390237 7.3314713,31.6909888 6.21559106,31.3207219 C5.76277683,25.2996671 6.00736262,21.2657263 6.52628111,18.5587397 C6.17262329,17.7426629 5.5545484,18.3829183 4.64561473,17.6829499 C3.73668107,16.9829816 4.19610572,15.2114977 4.19610572,15.2114977 C6.4733977,13.6987699 9.52080438,12.7433628 9.52080438,12.7433628 L9.68275983,13.0187058 C9.96005236,12.9211843 10.2516004,12.8707323 10.5454205,12.8694235 L10.5454205,12.8694235 C11.4246072,12.8694235 12.1748907,13.3603965 12.8028812,14.1797908 C13.8638547,14.6707638 13.3515466,15.8384836 13.8109713,16.0607484 C14.4720139,16.3924869 15.2917068,18.664896 15.2917068,18.664896 L14.6835476,18.9501912 Z" id="Path" fill="#7353A3"></path>
                                <path d="M14.8005847,19.101057 C15.6061255,24.3667824 15.4099236,29.7185324 14.1453815,30.9936865 C13.0741244,32.0739337 11.2886957,32.2159845 9.69,32.0607197 C9.92536317,31.8060151 7.82829582,29.819469 5.70937254,25.884116 C5.61456181,25.7080295 6.54756269,24.5215594 7.26585228,24.6681539 C8.45581044,24.9110103 9.93088373,26.3075315 10.0944647,25.884116 C13.005,18.3504425 9.87466612,13.4295223 9.87466612,13.4295223 C9.87466612,13.4295223 9.6692646,13.2008024 9.25846154,12.7433628 C10.1298817,12.7433628 10.9118612,12.5346231 12.0649174,13.2375599 C12.9854778,13.667016 14.0176169,13.8683001 14.4762591,14.4893596 C15.4590639,15.8107629 15.2887111,18.7343676 15.2887111,18.7343676 L14.8005847,19.101057 Z" id="Path" fill="url(#linearGradient-6)"></path>
                                <path d="M4.27658445,15.4095454 C1.7120074,16.793285 0.318830961,17.773584 0.0970551331,18.3504425 C-0.235608609,19.2157302 4.23762921,24.218628 5.17881461,24.9580989 C6.12,25.6975697 5.61,26.7801373 6.12,26.7801373 C6.63,26.7801373 9.618691,25.9642035 7.62270855,24.4467836 C6.29205358,23.4351704 4.59887411,21.557388 2.54317012,18.8134364 C4.12651337,18.3129693 5.02622895,17.8348283 5.24231689,17.3790132 C5.45840482,16.9231982 5.13649401,16.2667089 4.27658445,15.4095454 Z" id="Path-3" fill="#936944"></path>
                            </g>
                            <g id="Group" opacity="0.11" transform="translate(37.740000, 52.502655)" fill="#F0EEFF">
                                <ellipse id="Oval" cx="165.509413" cy="68.5400435" rx="1.09428261" ry="1.09406018"></ellipse>
                                <ellipse id="Oval" cx="188.35963" cy="59.1524086" rx="1.09428261" ry="1.09406018"></ellipse>
                                <ellipse id="Oval" cx="190.860848" cy="15.0308571" rx="1.09428261" ry="1.09406018"></ellipse>
                                <ellipse id="Oval" cx="163.317522" cy="56.3357856" rx="1.09428261" ry="1.09406018"></ellipse>
                                <ellipse id="Oval" cx="1.19073913" cy="13.7771772" rx="1.09428261" ry="1.09406018"></ellipse>
                                <ellipse id="Oval" cx="79.1242826" cy="55.3980197" rx="1.09428261" ry="1.09406018"></ellipse>
                                <ellipse id="Oval" cx="65.3542826" cy="34.7438928" rx="1.09428261" ry="1.09406018"></ellipse>
                                <ellipse id="Oval" cx="25.9168696" cy="12.5268228" rx="1.09428261" ry="1.09406018"></ellipse>
                                <ellipse id="Oval" cx="42.191413" cy="3.45177649" rx="1.09428261" ry="1.09406018"></ellipse>
                                <ellipse id="Oval" cx="116.995109" cy="1.26033072" rx="1.09428261" ry="1.09406018"></ellipse>
                                <ellipse id="Oval" cx="37.8109565" cy="26.919201" rx="1.09428261" ry="1.09406018"></ellipse>
                                <ellipse id="Oval" cx="86.0092826" cy="23.1648121" rx="1.09428261" ry="1.09406018"></ellipse>
                                <ellipse id="Oval" cx="129.517826" cy="56.6483742" rx="1.09428261" ry="1.09406018"></ellipse>
                                <ellipse id="Oval" cx="94.1482174" cy="41.0023161" rx="1.09428261" ry="1.09406018"></ellipse>
                            </g>
                            <g id="Group-4" transform="translate(130.050000, 109.592920)">
                                <polygon id="Path" fill="#5D49CD" points="0 0 13.77 3.18584071 11.1471429 7.6460177 9.18 4.46017699"></polygon>
                                <polygon id="Path" fill="#2A1976" points="13.7278444 3.05840708 16.32 6.11681416 12.24 5.51761604"></polygon>
                                <polygon id="Path" fill="#7664DB" points="3.93428571 9.68495575 0 0 9.18 4.51964602"></polygon>
                                <polygon id="Path" fill="#432CB6" points="11.22 7.6460177 8.16 5.62060321 9.26213275 4.58761062"></polygon>
                            </g>
                            <polygon id="Path" fill="#5D49CD" points="147.9 235.268485 166.23189 240.59469 190.23 229.276504 173.231339 224.283186"></polygon>
                            <polygon id="Path" fill="#2A1976" points="166.26 240.720551 166.26 256.39646 190.23 244.495187 190.23 229.276504 166.144731 240.616523"></polygon>
                            <polygon id="Path" fill="#432CB6" points="147.9 235.497345 147.9 251.42048 166.26 256.39646 166.26 240.59469 147.9 235.286979"></polygon>
                            <g id="Group-5-Copy" transform="translate(165.750000, 234.987611)">
                                <polygon id="Path" fill="#7664DB" points="0 1.16510746 3.4 2.03893805 7.14 0.582553729 4.08 0"></polygon>
                                <polygon id="Path" fill="#2A1976" points="3.06 1.92566372 7.14 0.582553729 7.14 1.52920354 3.06 3.05840708"></polygon>
                                <polygon id="Path" fill="#432CB6" points="0 2.23505924 0 1.16510746 3.06 1.92566372 3.06 3.05840708"></polygon>
                            </g>
                            <polygon id="Path" fill="#432CB6" points="78.54 249.980454 108.12 259.454867 108.12 236.184379 78.54 227.341593"></polygon>
                            <polygon id="Path" fill="#5149CD" points="93.33 211.369912 107.277907 215.107965 107.61 214.768142 93.662093 211.030088"></polygon>
                            <g id="Group-5" transform="translate(165.240000, 233.968142)">
                                <polygon id="Path" fill="#7664DB" points="0 1.16510746 3.4 2.03893805 7.14 0.582553729 4.08 0"></polygon>
                                <polygon id="Path" fill="#2A1976" points="3.06 1.92566372 7.14 0.582553729 7.14 1.52920354 3.06 3.05840708"></polygon>
                                <polygon id="Path" fill="#432CB6" points="0 2.23505924 0 1.16510746 3.06 1.92566372 3.06 3.05840708"></polygon>
                            </g>
                        </g>
                        <polygon id="Star" fill="#5B3EEE" points="41 86 35.1221475 89.0901699 36.2447174 82.545085 31.4894348 77.9098301 38.0610737 76.954915 41 71 43.9389263 76.954915 50.5105652 77.9098301 45.7552826 82.545085 46.8778525 89.0901699"></polygon>
                        <path d="M50.6965424,78 L51.0005424,78.045 L51.0005424,78.061 L46.0620887,83.0026657 L47.2312485,90 L41.1094484,86.6963069 L35.0643723,89.9603542 C35.0426834,89.9529149 35.0209694,89.9454555 34.9992305,89.9379763 L35.0285424,89.763 L40.2179074,85.8188266 L41.026621,85.8188266 L47.1928106,89.8900694 L45.345663,81.6934731 L50.6965424,78 Z" id="Combined-Shape" fill="#231464"></path>
                        <polygon id="Star" fill="#5B3EEE" points="10 78 4.12214748 81.0901699 5.24471742 74.545085 0.489434837 69.9098301 7.06107374 68.954915 10 63 12.9389263 68.954915 19.5105652 69.9098301 14.7552826 74.545085 15.8778525 81.0901699"></polygon>
                        <path d="M19.7187644,69 L19.9997644,69.045 L19.9997644,69.077 L15.3786737,74.0040831 L16.4759043,81 L10.7307302,77.6969761 L5.09550014,80.9379132 C5.06397806,80.9262726 5.03239948,80.9145838 5.00076441,80.9028467 L5.00876441,80.856 L9.95685929,76.8196735 L10.7101693,76.8196735 L16.4539238,80.8900916 L14.7333212,72.6951556 L19.7187644,69 Z" id="Combined-Shape" fill="#231464"></path>
                        <polygon id="Star" fill="#5B3EEE" points="58 61 52.1221475 64.0901699 53.2447174 57.545085 48.4894348 52.9098301 55.0610737 51.954915 58 46 60.9389263 51.954915 67.5105652 52.9098301 62.7552826 57.545085 63.8778525 64.0901699"></polygon>
                        <path d="M67.6965424,53 L68.0005424,53.045 L68.0005424,53.061 L63.0620887,58.0026657 L64.2312485,65 L58.1094484,61.6963069 L52.0643723,64.9603542 C52.0426834,64.9529149 52.0209694,64.9454555 51.9992305,64.9379763 L52.0285424,64.763 L57.2179074,60.8188266 L58.026621,60.8188266 L64.1928106,64.8900694 L62.345663,56.6934731 L67.6965424,53 Z" id="Combined-Shape" fill="#231464"></path>
                        <polygon id="Star" fill="#5B3EEE" points="85 78 79.1221475 81.0901699 80.2447174 74.545085 75.4894348 69.9098301 82.0610737 68.954915 85 63 87.9389263 68.954915 94.5105652 69.9098301 89.7552826 74.545085 90.8778525 81.0901699"></polygon>
                        <polygon id="Star-Copy" fill="#5B3EEE" points="109 69 103.122147 72.0901699 104.244717 65.545085 99.4894348 60.9098301 106.061074 59.954915 109 54 111.938926 59.954915 118.510565 60.9098301 113.755283 65.545085 114.877853 72.0901699"></polygon>
                        <path d="M94.6965424,69 L95.0005424,69.045 L95.0005424,69.061 L90.0620887,74.0026657 L91.2312485,81 L85.1094484,77.6963069 L79.0643723,80.9603542 C79.0426834,80.9529149 79.0209694,80.9454555 78.9992305,80.9379763 L79.0285424,80.763 L84.2179074,76.8188266 L85.026621,76.8188266 L91.1928106,80.8900694 L89.345663,72.6934731 L94.6965424,69 Z" id="Combined-Shape" fill="#231464"></path>
                        <path d="M118.696542,60 L119.000542,60.045 L119.000542,60.061 L114.062089,65.0026657 L115.231248,72 L109.109448,68.6963069 L103.064372,71.9603542 C103.042683,71.9529149 103.020969,71.9454555 102.99923,71.9379763 L103.028542,71.763 L108.217907,67.8188266 L109.026621,67.8188266 L115.192811,71.8900694 L113.345663,63.6934731 L118.696542,60 Z" id="Combined-Shape-Copy" fill="#231464"></path>
                        <path d="M9,131 L50,131 L50,131 L50,133 C50,139.627417 44.627417,145 38,145 L9,145 C5.13400675,145 2,141.865993 2,138 C2,134.134007 5.13400675,131 9,131 Z" id="Rectangle-Copy-22" fill="#432CB6" transform="translate(26.000000, 138.000000) scale(-1, 1) translate(-26.000000, -138.000000) "></path>
                        <path d="M46,111 L87,111 L87,111 L87,117 C87,121.418278 83.418278,125 79,125 L46,125 C42.1340068,125 39,121.865993 39,118 C39,114.134007 42.1340068,111 46,111 Z" id="Rectangle-Copy-23" fill="#5D49CD"></path>
                        <path d="M202,124 L206.638,128.64 L240,128.640625 C246.627417,128.640625 252,134.013208 252,140.640625 L252,145 C252,151.627417 246.627417,157 240,157 L214,157 C207.372583,157 202,151.627417 202,145 L202,128.640625 L203.57,128.64 L202,128.414689 L202,124 Z" id="Combined-Shape" fill="#4930C3" opacity="0.771926153" transform="translate(227.000000, 140.500000) scale(-1, 1) translate(-227.000000, -140.500000) "></path>
                        <path d="M61,0 C67.5503585,15.0933849 73.2035329,24.806729 77.9595232,29.1400324 C85.0935086,35.6399875 95.7891833,43.2348509 121.840503,34.4371658 C147.891823,25.6394807 155.216057,46.1963707 158.27336,52.8691798 C161.330662,59.5419889 171.242526,72.8876071 184.769982,71.8610211 C198.297439,70.834435 208.209302,68.0611374 212.795256,75.0940093 C217.38121,82.1268812 218.967445,90.5046122 224.260141,95.2594339 C229.552837,100.014256 238.085736,98.250705 247.223037,103.005527 C253.314572,106.175408 258.240226,110.173566 262,115 C262,104.074696 262,96.8698629 262,93.3855013 C261.01693,92.8529158 258.451226,87.6721019 254.559417,85.6488778 C245.370557,80.8718906 241.075306,82.7337891 236.538358,77.2974051 C232.001411,71.8610211 236.538358,60.5685749 224.260141,52.8691798 C211.981924,45.1697847 197.282739,55.0868898 188.988159,47.0169841 C180.693579,38.9470784 179.363742,30.8685736 166.680942,20.1634831 C153.998141,9.4583927 123.901677,15.3259743 119.835428,11.2634375 C117.124595,8.55507965 115.676089,4.80060048 115.48991,0 L61,0 Z" id="Path-23" fill="url(#linearGradient-7)" opacity="0.424827939"></path>
                    </g>
                </g>
            </g>
        </g>
    </g>
</svg>