<?xml version="1.0" encoding="UTF-8"?>
<svg width="66px" height="29px" viewBox="0 0 66 29" version="1.1" xmlns="http://www.w3.org/2000/svg" xmlns:xlink="http://www.w3.org/1999/xlink">
    <!-- Generator: Sketch 52.6 (67491) - http://www.bohemiancoding.com/sketch -->
    <title>car (1)</title>
    <desc>Created with Sketch.</desc>
    <g id="Page-1" stroke="none" stroke-width="1" fill="none" fill-rule="evenodd">
        <g id="Home-page" transform="translate(-927.000000, -2367.000000)" stroke="#FFFFFF" stroke-width="2">
            <g id="car-(1)" transform="translate(928.000000, 2368.000000)">
                <path d="M63.0846123,6.76054255 L55.8389552,5.66933884 C54.5177751,4.81340298 53.1466818,4.0471803 51.7330539,3.37479012 C47.0646528,1.14477985 41.9978145,-0.00592748327 36.8723822,2.29604285e-05 L35.6137023,2.29604285e-05 C29.5650934,0.00460009862 23.6132726,1.60524578 18.3007745,4.65594741 L14.6440918,6.75962717 C10.3637115,6.81043397 6.1657964,8.01103271 2.44704777,10.2465356 C0.935763545,11.1606018 0.00260416571,12.8564533 0,14.6932823 L0,21.3727856 C0,21.9943688 0.47743038,22.4978606 1.06683983,22.4978606 L4.64843585,22.4978606 C5.81336587,26.0026201 9.45181942,27.8481459 12.7751689,26.6196263 C14.6045953,25.9435743 16.0425288,24.4266913 16.6835877,22.4978606 L45.1818411,22.4978606 C46.3467712,26.0026201 49.9852248,27.8481459 53.3085742,26.6196263 C55.1375665,25.9435743 56.5759341,24.4266913 57.2169929,22.4978606 L57.5998053,22.4978606 C57.7356559,22.4978606 57.8702044,22.4708551 57.9965065,22.4177596 L61.4513663,20.9558029 C62.9947685,20.3113336 64.0056188,18.7358625 63.9999765,16.9860002 L63.9999765,7.8741745 C63.9999765,7.31484111 63.6097856,6.84018583 63.0846123,6.76054255 Z" id="Shape" fill-rule="nonzero"></path>
                <circle id="Oval" cx="51" cy="21" r="6"></circle>
                <circle id="Oval-Copy" cx="10.5" cy="21.5" r="5.5"></circle>
            </g>
        </g>
    </g>
</svg>