<?xml version="1.0" encoding="UTF-8"?>
<svg width="68px" height="65px" viewBox="0 0 68 65" version="1.1" xmlns="http://www.w3.org/2000/svg" xmlns:xlink="http://www.w3.org/1999/xlink">
    <!-- Generator: Sketch 52.6 (67491) - http://www.bohemiancoding.com/sketch -->
    <title>Group 21</title>
    <desc>Created with Sketch.</desc>
    <g id="Page-1" stroke="none" stroke-width="1" fill="none" fill-rule="evenodd">
        <g id="Retail-Page" transform="translate(-1134.000000, -1088.000000)">
            <g id="Group-21" transform="translate(1137.000000, 1089.000000)">
                <path d="M15.397498,57.0082966 C11.2512592,60.0296047 6.11875984,61.2621332 -2.3625546e-13,60.7058824 C2.90149726,57.77111 5.26630326,53.8596016 7.09441801,48.9713572 C3.51494974,43.9096723 1.41176471,37.7298605 1.41176471,31.0588235 C1.41176471,13.9055089 15.3172737,0 32.4705882,0 C49.6239028,0 63.5294118,13.9055089 63.5294118,31.0588235 C63.5294118,48.2121381 49.6239028,62.1176471 32.4705882,62.1176471 C26.1639793,62.1176471 20.2963919,60.2379729 15.397498,57.0082966 Z" id="Combined-Shape" stroke="#FFFFFF" stroke-width="2"></path>
                <g id="Group-18" transform="translate(19.764706, 29.176471)" fill="#FFFFFF">
                    <circle id="Oval" cx="1.88235294" cy="1.88235294" r="1.88235294"></circle>
                    <circle id="Oval-Copy-15" cx="12.2352941" cy="1.88235294" r="1.88235294"></circle>
                    <circle id="Oval-Copy-16" cx="22.5882353" cy="1.88235294" r="1.88235294"></circle>
                </g>
            </g>
        </g>
    </g>
</svg>