<?xml version="1.0" encoding="UTF-8"?>
<svg width="70px" height="70px" viewBox="0 0 70 70" version="1.1" xmlns="http://www.w3.org/2000/svg" xmlns:xlink="http://www.w3.org/1999/xlink">
    <!-- Generator: Sketch 64 (93537) - https://sketch.com -->
    <title>Customer Support</title>
    <desc>Created with Sketch.</desc>
    <g id="Page-1" stroke="none" stroke-width="1" fill="none" fill-rule="evenodd">
        <g id="Thor" transform="translate(-533.000000, -4413.000000)">
            <g id="use-cases-section" transform="translate(0.000000, 4241.000000)">
                <g id="Customer-Support" transform="translate(533.000000, 172.000000)">
                    <g id="Group-6-Copy-2" fill="#120033">
                        <rect id="Rectangle-Copy-3" x="0" y="0" width="70" height="70" rx="8"></rect>
                    </g>
                    <g id="support" transform="translate(24.000000, 23.000000)" fill="#FFFFFF" fill-rule="nonzero">
                        <path d="M21.9981209,10.8725703 C21.9111012,4.8503833 17.0275863,0 11.0000647,0 C4.97417787,0 0.0890281244,4.84836772 0.00200850438,10.8725703 C-0.0010743163,10.9756932 0.00126115391,10.9513187 0,14.5457594 C0.00151888139,15.9611907 1.14454406,17.1082442 2.55500441,17.1097685 L2.55500441,17.1097685 C3.96546476,17.1082442 5.10848994,15.9611907 5.11000882,14.5457594 L5.11000882,10.9514593 C5.11103426,10.2183144 4.7988044,9.51990667 4.25243593,9.03320741 C3.70606745,8.54650815 2.97799301,8.31822378 2.25270114,8.40619983 C3.38204112,4.63246597 6.87562429,1.87496093 11.0000647,1.87496093 C15.1245051,1.87496093 18.6180882,4.63246597 19.7474749,8.40619983 C19.6470765,8.39410036 19.5460576,8.38791801 19.4449381,8.38768459 C18.0344671,8.38918304 16.8914269,9.5362517 16.8899337,10.9516937 L16.8899337,14.5459938 C16.8915297,15.9613929 18.0345097,17.1084013 19.4449381,17.1100028 L19.4453118,17.1100028 C19.4701145,17.1100028 19.4945902,17.1087372 19.5192061,17.1079873 C18.5570256,19.0033455 16.6172372,20.1973978 14.4975714,20.1990947 L13.6951973,20.1990947 C13.2391095,18.8783028 11.8993086,18.081081 10.525701,18.3131491 C9.15209344,18.5452172 8.14626447,19.7387282 8.14626447,21.1365752 C8.14626447,22.5344222 9.15209344,23.7279332 10.525701,23.9600013 C11.8993086,24.1920694 13.2391095,23.3948476 13.6951973,22.0740556 L14.497478,22.0740556 C18.6343431,22.0740556 22,18.6971104 22,14.5460875 L22,10.9515062 C22,10.9249286 21.9988682,10.8989604 21.9981209,10.8725703 Z M2.55500441,10.2626455 C2.93412262,10.2628782 3.24140075,10.5712393 3.24163265,10.9516937 L3.24163265,14.5459938 C3.24140075,14.9264481 2.93412262,15.2348092 2.55500441,15.2350419 L2.55500441,15.2350419 C2.17590754,15.2347575 1.86865953,14.9264267 1.86837617,14.5459938 C1.86912352,12.165309 1.86674134,11.1765484 1.86982416,10.9229599 C1.88515921,10.5542371 2.18725693,10.2631028 2.55500441,10.2626455 L2.55500441,10.2626455 Z M11.0000647,22.124539 C10.4562146,22.124539 10.015337,21.6821076 10.015337,21.1363408 C10.015337,20.590574 10.4562146,20.1481427 11.0000647,20.1481427 C11.5439148,20.1481427 11.9847923,20.590574 11.9847923,21.1363408 C11.9842002,21.6818613 11.5436693,22.1239448 11.0000647,22.124539 Z M20.1317532,14.5457594 C20.1314698,14.9261923 19.8242218,15.2345232 19.445125,15.2348075 L19.445125,15.2348075 C19.0660281,15.2345232 18.7587801,14.9261923 18.7584967,14.5457594 L18.7584967,10.9514593 C18.7586201,10.5768562 19.0571319,10.2710752 19.4303382,10.2632575 C19.8035444,10.2554399 20.1145114,10.5484539 20.1302118,10.9227255 C20.1330144,11.1475802 20.1306789,10.8743984 20.1317532,14.5457594 Z"></path>
                    </g>
                </g>
            </g>
        </g>
    </g>
</svg>