<?xml version="1.0" encoding="UTF-8"?>
<svg width="81px" height="138px" viewBox="0 0 81 138" version="1.1" xmlns="http://www.w3.org/2000/svg" xmlns:xlink="http://www.w3.org/1999/xlink">
    <!-- Generator: Sketch 52.6 (67491) - http://www.bohemiancoding.com/sketch -->
    <title>Group 2</title>
    <desc>Created with Sketch.</desc>
    <g id="Page-1" stroke="none" stroke-width="1" fill="none" fill-rule="evenodd">
        <g id="Home-page" transform="translate(-675.000000, -1018.000000)">
            <g id="Group-2" transform="translate(649.000000, 1014.000000)">
                <rect id="Rectangle" x="0" y="0" width="142" height="142"></rect>
                <g id="Group-49" transform="translate(27.071942, 5.180884)" stroke="#FFFFFF" stroke-width="2">
                    <path d="M34.6643818,115.3997 L34.6643818,135.145435 L66.4064168,135.145435 L66.4064168,97.2454455 C66.4064168,96.003128 66.7139861,94.7794178 67.3302194,93.7001886 C71.5125062,86.3623058 74.3900858,76.688647 75.0282102,63.9896439 C75.1781639,61.0255946 72.8270642,58.5267302 69.8586367,58.5267302 L18.321612,58.5267302 C15.861057,58.5267302 13.8678762,60.5210057 13.8678762,62.9804661 L13.8678762,68.3777066 L4.27740339,80.5830663 C3.28354933,81.8483695 4.18436639,83.7014476 5.7933592,83.7014476 L13.8678762,83.7014476 L13.8678762,111.119998 C13.8678762,113.679063 15.829315,115.798118 18.3796233,116.01265 C22.2007076,116.334449 28.0959697,116.483308 34.6643818,115.3997 Z" id="Stroke-1"></path>
                    <polygon id="Stroke-3" points="57.5495134 58.5267302 68.5957415 28.9738011 78.4467179 19.1228248 78.4467179 32.2574599 69.6902945 58.5267302"></polygon>
                    <path d="M68.5955226,28.9738011 L78.446499,32.2574599" id="Stroke-5"></path>
                    <polyline id="Stroke-7" points="16.3498844 59.960704 0.466826824 6.05397225 18.2533119 0.81106372 35.2528135 58.5268397"></polyline>
                    <path d="M3.55193371,14.840277 L11.9887477,12.3545473" id="Stroke-9"></path>
                    <path d="M8.65484892,32.1638756 L17.0927575,29.6781459" id="Stroke-11"></path>
                    <path d="M4.76305653,18.9517461 L8.98146351,17.7094286" id="Stroke-13"></path>
                    <path d="M5.83188746,22.5817215 L10.0502945,21.3394039" id="Stroke-15"></path>
                    <path d="M6.76291418,25.7430092 L10.9813212,24.5006917" id="Stroke-17"></path>
                    <path d="M7.69503546,28.904297 L11.9134424,27.6619794" id="Stroke-19"></path>
                    <path d="M8.62606218,32.0655848 L17.0628762,29.5798551" id="Stroke-21"></path>
                    <path d="M13.7289774,49.3897307 L22.1668859,46.904001" id="Stroke-23"></path>
                    <path d="M9.83707554,36.1776012 L14.0554825,34.9352837" id="Stroke-25"></path>
                    <path d="M10.9060159,39.8075766 L15.1244229,38.565259" id="Stroke-27"></path>
                    <path d="M11.8380277,42.9688643 L16.0564347,41.7265468" id="Stroke-29"></path>
                    <path d="M12.7690545,46.1301521 L16.9874615,44.8878345" id="Stroke-31"></path>
                    <path d="M13.7289774,49.3897307 L22.1668859,46.904001" id="Stroke-33"></path>
                    <path d="M14.9399908,53.5018566 L19.1583977,52.2595391" id="Stroke-35"></path>
                    <path d="M16.0100257,57.131832 L20.2284327,55.8895144" id="Stroke-37"></path>
                    <path d="M56.1503464,13.9787544 L54.1801511,21.0605118 C53.1731624,21.2794224 52.0786095,21.3888777 50.8964923,21.3341501 C45.1292929,21.0933484 41.3082086,17.8315807 41.5599558,15.0951984 C41.5599558,15.0076341 41.5818469,14.9200699 41.5927924,14.8434512 C42.5910247,8.84201747 52.7681778,9.25685303 56.1503464,13.9787544 Z" id="Stroke-39"></path>
                    <path d="M41.5598464,15.0951984 L35.7379193,58.5270586" id="Stroke-41"></path>
                    <path d="M54.18037,21.0601835 C54.4540082,21.0054558 54.738592,20.9397826 55.0012847,20.8631639 C58.5355961,19.8671208 60.6382323,17.7108515 60.6382323,17.7108515 L52.6808325,58.5267302" id="Stroke-43"></path>
                </g>
            </g>
        </g>
    </g>
</svg>