<?xml version="1.0" encoding="UTF-8"?>
<svg width="67px" height="60px" viewBox="0 0 67 60" version="1.1" xmlns="http://www.w3.org/2000/svg" xmlns:xlink="http://www.w3.org/1999/xlink">
    <!-- Generator: Sketch 52.6 (67491) - http://www.bohemiancoding.com/sketch -->
    <title>energy-saving</title>
    <desc>Created with Sketch.</desc>
    <g id="Page-1" stroke="none" stroke-width="1" fill="none" fill-rule="evenodd">
        <g id="Home-page" transform="translate(-448.000000, -2351.000000)" fill="#FFFFFF">
            <g id="energy-saving" transform="translate(448.000000, 2351.000000)">
                <path d="M59.2267533,36.0328862 C59.2206644,36.0312693 59.2144306,36.0297993 59.2083417,36.0283293 C58.6575889,35.8958855 58.1049515,36.2404452 57.9731709,36.7985906 C54.4875827,51.5762883 39.8473291,60.6908017 25.2730384,57.1565666 C17.2705232,55.2159198 10.5687067,49.698115 7.0528191,42.1551404 L5,42.5902498 C11.6370135,57.4808407 28.9223013,64.0967089 43.6080763,57.3672125 C51.8273263,53.6008701 57.8667607,46.1922502 59.9680008,37.2983784 C60.1078998,36.741262 59.7760564,36.1747378 59.2267533,36.0328862 Z" id="Path"></path>
                <path d="M13.981783,39.167376 C13.9470288,38.9780147 13.863236,38.8018119 13.7392402,38.6573709 L9.68066113,34.0110613 L5.66920635,29.4131508 C5.31547968,28.9464024 4.66045212,28.8626115 4.20599729,29.2259069 C4.04165135,29.3573406 3.91927547,29.5364171 3.85492137,29.7398444 L1.94638781,35.674779 L0.0496353326,41.6036636 C-0.12546084,42.1670589 0.177459956,42.7694759 0.726016089,42.9493087 C0.888153083,43.0023964 1.06030399,43.0140424 1.22774246,42.9830368 L7.17718348,41.7004617 L13.1501866,40.4178867 C13.7161198,40.3085351 14.0884017,39.7486184 13.981783,39.167376 Z M6.78251759,39.6013038 L2.59434674,40.5087862 L3.92560779,36.3343674 L5.26275939,32.1659985 L8.11377864,35.4329349 L10.9647979,38.6998714 L6.78251759,39.6013038 Z" id="Shape" fill-rule="nonzero"></path>
                <path d="M66.9881709,18.8526433 C66.8700927,18.2741523 66.3190611,17.9029362 65.7557941,18.0223314 L59.8002886,19.3071936 L53.8506796,20.5617525 C53.2841695,20.6714506 52.9115082,21.2323657 53.0182356,21.8144931 C53.0530252,22.0041921 53.1369034,22.1807091 53.2610256,22.3254076 L57.3237417,26.9800027 L61.3392855,31.5861125 C61.6933728,32.0536932 62.349068,32.1376335 62.8039861,31.7736902 C62.9684996,31.6420221 63.0910002,31.4627778 63.1554199,31.2588362 L65.0482093,25.3133183 L66.9409986,19.3678003 C66.9976054,19.2026471 67.0138209,19.0256755 66.9881709,18.8526433 Z M63.0787649,24.6830085 L61.7461468,28.8588106 L58.8922214,25.5860485 L56.038296,22.3132863 L60.2248395,21.4102464 L64.4113829,20.5072064 L63.0787649,24.6830085 Z" id="Shape" fill-rule="nonzero"></path>
                <path d="M21.3975609,2.62963632 C13.1796561,6.39134791 7.14095856,13.7908587 5.04002525,22.6737951 C4.88376707,23.2256753 5.19889257,23.8011928 5.74376689,23.9594601 C6.2886412,24.1177274 6.85685278,23.7985501 7.01311096,23.2466699 C7.02166312,23.2165727 7.02876577,23.1860351 7.03456385,23.1553506 C10.526021,8.39743749 25.1680506,-0.69955625 39.7387638,2.83679326 C47.7375014,4.77813712 54.4347155,10.2900385 57.9474806,17.8230047 L60,17.3884303 C53.3639556,2.51600098 36.0811917,-4.09173275 21.3975609,2.62963632 Z" id="Path"></path>
                <path d="M43.9999664,12.0477206 C43.9999664,11.4691066 43.5303015,11 42.9509989,11 L29.3855376,11 C28.9323185,11.0005919 28.5308069,11.2918228 28.3899075,11.7221577 L22.0783233,31.0132398 C21.8590476,31.5487907 22.1159557,32.160553 22.6521441,32.3795681 C22.7803018,32.4319541 22.9176454,32.4584431 23.0561743,32.4575552 L27.7972704,32.4575552 L23.6488114,48.599556 C23.4538338,49.1444299 23.7378551,49.7440576 24.2833774,49.9388034 C24.689482,50.0838269 25.1429974,49.9657364 25.4267224,49.6413573 L42.9628516,29.2670387 C43.3656966,28.8512061 43.354881,28.1879457 42.9385535,27.7855795 C42.73439,27.58817 42.4586657,27.4819181 42.1746444,27.491241 L36.0230722,27.491241 L43.834028,12.6218952 C43.9439622,12.4505307 44.0015961,12.2510495 43.9999664,12.0477206 Z M33.362132,28.0831736 C33.0970751,28.597711 33.2996088,29.229451 33.8147585,29.4941928 C33.9626214,29.5701082 34.1263374,29.6099156 34.2925721,29.6103596 L39.8811391,29.6103596 L26.7364502,44.8763002 L30.1381866,31.6880429 C30.2789379,31.1267428 29.9374309,30.5577477 29.3754628,30.4171637 C29.2935307,30.396594 29.2092281,30.3860872 29.1247774,30.3857912 L24.5022087,30.3857912 L30.144113,13.1013606 L41.2145724,13.1013606 L33.362132,28.0831736 Z" id="Shape" fill-rule="nonzero"></path>
            </g>
        </g>
    </g>
</svg>