<?xml version="1.0" encoding="UTF-8"?>
<svg width="70px" height="70px" viewBox="0 0 70 70" version="1.1" xmlns="http://www.w3.org/2000/svg" xmlns:xlink="http://www.w3.org/1999/xlink">
    <!-- Generator: Sketch 64 (93537) - https://sketch.com -->
    <title>Event Booking</title>
    <desc>Created with Sketch.</desc>
    <g id="Page-1" stroke="none" stroke-width="1" fill="none" fill-rule="evenodd">
        <g id="Thor" transform="translate(-936.000000, -4665.000000)">
            <g id="use-cases-section" transform="translate(0.000000, 4241.000000)">
                <g id="Event-Booking" transform="translate(936.000000, 424.000000)">
                    <rect id="Rectangle-Copy-3" fill="#120033" x="0" y="0" width="70" height="70" rx="8"></rect>
                    <g id="Group-659" transform="translate(21.000000, 22.000000)">
                        <g id="Path_1088">
                            <path d="M5.37373737,0 L22.6262626,0 C25.5940958,0 28,2.41766235 28,5.4 C28,8.38233765 25.5940958,10.8 22.6262626,10.8 L14.0119354,10.8 C14.0119354,10.8 14.5330747,5.72752421 12.3132121,5.79078947 C10.0933495,5.85405474 11.3848,10.8 10.3534384,10.8 L5.37373737,10.8 C2.40590417,10.8 0,8.38233765 0,5.4 C0,2.41766235 2.40590417,0 5.37373737,0 Z" id="Path"></path>
                            <path d="M5.37373737,1.42105263 C3.19041144,1.42105263 1.41414141,3.20600367 1.41414141,5.4 C1.41414141,7.59399633 3.19041144,9.37894737 5.37373737,9.37894737 L9.41766567,9.37894737 C9.42610702,9.23033704 9.43283075,9.07962515 9.43852564,8.95202184 C9.5037864,7.48923186 9.63959024,4.44539896 12.2732146,4.37031059 L12.334177,4.36915312 L12.3541704,4.36915312 C13.1226765,4.36915312 13.8049721,4.6766895 14.3272886,5.25851489 C15.2527995,6.28946541 15.4731618,8.04153423 15.4884253,9.37894737 L22.6262626,9.37894737 C24.8095886,9.37894737 26.5858586,7.59399633 26.5858586,5.4 C26.5858586,3.20600367 24.8095886,1.42105263 22.6262626,1.42105263 L5.37373737,1.42105263 M5.37373737,0 L22.6262626,0 C25.5940935,0 28,2.41766033 28,5.4 C28,8.38233967 25.5940935,10.8 22.6262626,10.8 L14.0119301,10.8 C14.0119301,10.8 14.5264276,5.79020705 12.3541704,5.79020705 C12.3405624,5.79020705 12.3270165,5.79040047 12.3131962,5.79079468 C10.0933239,5.8540859 11.3847792,10.8 10.3534485,10.8 C7.78157725,10.8 5.37373737,10.8 5.37373737,10.8 C2.4059013,10.8 0,8.38233967 0,5.4 C0,2.41766033 2.4059013,0 5.37373737,0 Z" id="Shape" fill="#FFFFFF" fill-rule="nonzero"></path>
                        </g>
                        <path d="M12.3989611,4.45539598 C11.4142972,4.45682714 10.6536245,4.82832841 10.1499019,5.46182804 C9.80398704,5.89686291 9.60861408,6.4298929 9.57511291,6.85157715 L9.57196761,6.89939556 C9.56329589,7.05771066 9.53054696,7.79907092 9.47762493,9.02851322 L9.24807991,14.42123 L9.17664646,16.1110421 L9.16830934,16.1058455 C8.59298812,15.747426 7.99918037,15.5598181 7.38924927,15.6262751 C6.98900998,15.6698845 6.61220897,15.8264691 6.27668578,16.0968503 C5.45627152,16.757981 5.11648825,17.6180879 5.24937465,18.5078392 C5.35321281,19.2030957 5.74779278,19.8622118 6.2559335,20.277009 L6.43809908,20.4235375 C6.62816595,20.5775326 6.90321268,20.8033564 7.24855939,21.0886934 L7.9930645,21.7055308 L8.70467363,22.2972437 L9.57175758,23.0200863 L9.57191363,24.5744601 L9.57317165,24.6183346 C9.57378862,24.635103 9.57461595,24.6539659 9.57569184,24.6747754 C9.57888955,24.7366248 9.5837052,24.8036978 9.59047622,24.8748734 C9.60953718,25.0752383 9.64071287,25.2760501 9.68803872,25.4700419 C9.75471847,25.7433665 9.84841199,25.9848297 9.98497733,26.1908858 C10.1919139,26.5031211 10.4891805,26.7164509 10.8681327,26.7574148 L10.8981699,26.7604778 C11.4259415,26.8115359 13.7592966,26.91232 15.6211883,26.95107 L15.9636699,26.957772 C18.6593601,27.0070077 20.2946565,26.9498328 20.8331463,26.6927382 C21.6502877,26.302605 22.0243947,25.6172575 22.1184407,24.709469 L22.121505,24.6787853 C22.1401867,24.484509 22.1457294,24.3292738 22.1468189,24.0575416 L22.1470898,23.9122645 L22.1480961,23.8560677 C22.1498363,23.787565 22.1537647,23.6879234 22.1601798,23.548903 L22.237962,22.0010488 L22.2605791,21.5208279 C22.2848089,20.9877019 22.3038585,20.4986713 22.3178965,20.0297 L22.3200714,19.9558151 C22.3815729,17.8303739 22.3360626,16.4647051 22.1028115,15.8335117 L22.0617405,15.7233066 C21.7966841,15.0185106 21.6107404,14.6560714 21.3132684,14.3444348 C20.9543082,13.9683822 20.5099996,13.7770059 19.8452106,13.6676078 L16.9865233,13.2096743 L15.2462545,12.9297032 L15.2462545,6.92444842 C15.2462545,6.86910807 15.2398207,6.81395718 15.2270838,6.76011727 L15.2189408,6.72770919 C15.2125457,6.70345762 15.2041903,6.67399336 15.1937113,6.63979466 C15.1696978,6.56142505 15.1398306,6.47594274 15.1034743,6.38494712 C15.0005597,6.12736455 14.864217,5.87007322 14.6875926,5.62661439 C14.1688169,4.91153468 13.4138835,4.46431375 12.4332626,4.45539598 L12.3989611,4.45539598 Z M20.2427193,25.4011655 L20.22628,25.4091903 C20.2339038,25.4055504 20.201529,25.4148749 20.1439897,25.4260841 C20.0653375,25.4414062 19.9622025,25.4560665 19.8372634,25.4693859 L19.810158,25.4722192 C19.5317533,25.5007561 19.1635174,25.5215981 18.7166354,25.5345832 L18.5764483,25.5383378 C17.8325986,25.5566279 16.9057146,25.5543437 15.8534793,25.5343636 L15.4919711,25.5268968 C13.8097076,25.4892341 11.7832435,25.4032921 11.1537954,25.3561893 L11.1355152,25.3547621 L11.1341698,25.3519874 C11.1094851,25.2987353 11.0838318,25.2231863 11.0615104,25.1316893 C11.0321765,25.0114477 11.0112087,24.8763882 10.9981999,24.7396427 C10.9944013,24.6997124 10.9914968,24.661854 10.989375,24.6267991 L10.9869624,24.5809877 C10.9864236,24.5688346 10.9860875,24.5591612 10.9859076,24.5522227 L10.985899,22.6866963 C10.9858958,22.4823981 10.8984046,22.2883393 10.7463723,22.1536885 L10.1579378,21.6621509 C9.89328659,21.4414505 9.62834685,21.2207461 9.3697252,21.0055958 L8.3036298,20.1207929 C7.75838131,19.6696662 7.36282002,19.3453297 7.15786097,19.1823127 C6.911217,18.986141 6.69834015,18.634963 6.64785363,18.2969266 C6.59010028,17.9102345 6.73174052,17.551695 7.16139099,17.2054612 C7.28671894,17.1044657 7.4094744,17.0534531 7.54168872,17.0390473 C7.85787953,17.0045957 8.27550258,17.1798989 8.71507309,17.5170871 C8.86843557,17.6347292 9.01171757,17.7621218 9.13941985,17.889131 L9.17593076,17.9258786 C9.19935773,17.9497477 9.22093904,17.9723188 9.24056428,17.9933559 L9.28651224,18.0438724 C9.70050045,18.5272965 10.4859058,18.2595629 10.5278535,17.629629 L10.9260357,8.26675069 C10.9596297,7.49361596 10.9800096,7.03941592 10.984424,6.96948835 C10.9872082,6.92538373 11.0071046,6.83308423 11.0431287,6.73268015 C11.0922117,6.59587896 11.1631544,6.4640059 11.254684,6.34889497 C11.4915839,6.05096121 11.8472647,5.87725196 12.4010044,5.87644131 C12.9118581,5.8757062 13.2709681,6.08619498 13.5448787,6.46375292 C13.6473305,6.60497242 13.7293954,6.75983646 13.7911534,6.91440924 L13.8000077,6.93693577 C13.8085973,6.9591583 13.816395,6.98045277 13.823419,7.00067473 L13.8321131,7.02653684 L13.8321131,13.5354126 C13.8321131,13.8784893 14.0758554,14.1716364 14.4098903,14.2339619 L19.5737498,15.0631014 L19.630948,15.0722427 C20.3002877,15.1811987 20.3889981,15.2806448 20.7653902,16.296495 L20.7771238,16.3282062 C20.9137777,16.698001 20.9590818,17.982863 20.9096709,19.8024444 L20.9021685,20.0601207 C20.8878408,20.5234708 20.8685249,21.0090775 20.8440515,21.5403131 L20.825499,21.9318335 C20.8188421,22.0687999 20.8118801,22.2086915 20.8041187,22.3619435 L20.7578359,23.268799 C20.7411076,23.6065642 20.7336224,23.7923555 20.7329474,23.9082062 L20.7326154,24.0659287 C20.7315371,24.2847897 20.7270499,24.4055623 20.7139199,24.5421051 C20.6692976,25.0061453 20.5410072,25.2522898 20.2427193,25.4011655 Z" id="Path_1086" fill="#FFFFFF" fill-rule="nonzero"></path>
                        <path d="M22.1346026,3.03693121 C22.4123763,2.76111686 22.8600608,2.76380579 23.1345337,3.0429371 C23.4045071,3.31749248 23.406344,3.75723672 23.1419962,4.03405165 L23.128557,4.0477551 L19.2966297,7.85265194 C19.0232128,8.12414024 18.5852251,8.12576515 18.3098255,7.8596592 L18.2961925,7.84613081 L16.385348,5.89889081 C16.1111583,5.6194786 16.1142903,5.16960923 16.3923436,4.89407944 C16.6658387,4.62306654 17.1034459,4.62166869 17.378645,4.88759036 L17.3922681,4.90110919 L18.806101,6.34187368 L22.1346026,3.03693121 Z" id="Path_1087" fill="#FFFFFF" fill-rule="nonzero"></path>
                    </g>
                </g>
            </g>
        </g>
    </g>
</svg>