<?xml version="1.0" encoding="UTF-8"?>
<svg width="32px" height="32px" viewBox="0 0 32 32" version="1.1" xmlns="http://www.w3.org/2000/svg" xmlns:xlink="http://www.w3.org/1999/xlink">
    <title>experience</title>
    <defs>
        <filter id="filter-1">
            <feColorMatrix in="SourceGraphic" type="matrix" values="0 0 0 0 1.000000 0 0 0 0 1.000000 0 0 0 0 1.000000 0 0 0 1.000000 0"></feColorMatrix>
        </filter>
    </defs>
    <g id="Screens" stroke="none" stroke-width="1" fill="none" fill-rule="evenodd">
        <g id="Customer-Experience" transform="translate(-250.000000, -1095.000000)">
            <g filter="url(#filter-1)" id="experience">
                <g transform="translate(250.000000, 1095.000000)">
                    <path d="M30.5215625,12.24825 C29.935,11.61975 29.2201875,11.1450625 28.4333125,10.85 C28.781,10.0848125 28.9508125,9.2436875 28.9211875,8.384625 C28.873,6.98825 28.3023125,5.67475 27.3138125,4.685875 C26.3253125,3.6976875 25.0118125,3.1269375 23.615375,3.0788125 C22.7558125,3.0495 21.9150625,3.219125 21.15,3.5668125 C20.8549375,2.7799375 20.3801875,2.0650625 19.7516875,1.4785 C18.7301875,0.5250625 17.39775,0 16,0 C14.60225,0 13.2698125,0.5250625 12.2483125,1.4784375 C11.619875,2.0649375 11.1451875,2.77975 10.8500625,3.5665 C10.085375,3.219 9.244625,3.04925 8.3845625,3.07875 C6.988125,3.1269375 5.6746875,3.697625 4.685875,4.686125 C3.697625,5.6746875 3.1269375,6.9881875 3.07875,8.3845625 C3.0491875,9.2435 3.2189375,10.0845625 3.56675,10.8499375 C2.779875,11.1450625 2.0649375,11.61975 1.478375,12.24825 C0.525,13.2698125 0,14.60225 0,16 C0,17.39775 0.525,18.7301875 1.4784375,19.75175 C2.065,20.38025 2.7798125,20.8549375 3.5666875,21.15 C3.219,21.9151875 3.0491875,22.7563125 3.0788125,23.615375 C3.127,25.01175 3.6976875,26.32525 4.6861875,27.314125 C5.6746875,28.3023125 6.9881875,28.8730625 8.384625,28.9211875 C8.448875,28.923375 8.512875,28.9245 8.576875,28.9245 C9.3688125,28.9245 10.1415,28.7543125 10.8496875,28.4325 C11.14475,29.2196875 11.6195625,29.9348125 12.2483125,30.5215625 C13.2698125,31.4749375 14.60225,32 16,32 C17.39775,32 18.7301875,31.4749375 19.7516875,30.5215625 C20.380375,29.934875 20.8551875,29.21975 21.15025,28.432625 C21.85825,28.7543125 22.631,28.9245 23.423125,28.9245 C23.487,28.9245 23.5511875,28.923375 23.615375,28.9211875 C25.0118125,28.873 26.32525,28.3023125 27.3140625,27.3138125 C28.3023125,26.32525 28.873,25.01175 28.9211875,23.615375 C28.95075,22.7564375 28.781,21.915375 28.4331875,21.15 C29.2200625,20.854875 29.935,20.3801875 30.5215625,19.7516875 C31.475,18.7301875 32,17.39775 32,16 C32,14.60225 31.475,13.2698125 30.5215625,12.24825 Z M23.421375,5.0794375 C24.32225,5.0794375 25.22175,5.4225 25.899625,6.100125 C27.1889375,7.3899375 27.2669375,9.480375 26.0780625,10.85825 C26.019,10.9265 25.9590625,10.9910625 25.8996875,11.0504375 C25.0216875,11.928375 21.9215,12.3913125 19.499625,12.499875 C19.6073125,10.079125 20.0698125,6.9799375 20.949375,6.100375 C21.0088125,6.0409375 21.073625,5.98075 21.1406875,5.92275 C21.79475,5.3584375 22.608625,5.0794375 23.421375,5.0794375 L23.421375,5.0794375 Z M17.7681875,17.7675625 C17.2954375,18.239875 16.6675,18.5 16,18.5 C15.3326875,18.5 14.7048125,18.24 14.232125,17.767875 C13.76,17.2951875 13.5,16.6673125 13.5,16 C13.5,15.3325 13.760125,14.7045 14.2318125,14.2324375 C14.7045625,13.760125 15.3325,13.5 16,13.5 C16.6675,13.5 17.2954375,13.760125 17.7675,14.23175 C18.239875,14.7045 18.5,15.3325 18.5,16 C18.5,16.6675 18.239875,17.2955 17.7681875,17.7675625 L17.7681875,17.7675625 Z M16,2 C17.673875,2 19.1018125,3.1983125 19.4285625,4.799 C18.5850625,5.730125 18.0211875,7.4330625 17.707125,9.9965 C17.6289375,10.634625 17.5770625,11.24375 17.5426875,11.770875 C17.05475,11.5931875 16.5345625,11.5 16,11.5 C15.4655,11.5 14.9453125,11.5931875 14.4573125,11.770875 C14.4229375,11.24375 14.3710625,10.634625 14.292875,9.9965 C13.9788125,7.4331875 13.4149375,5.7303125 12.5714375,4.799 C12.8981875,3.1983125 14.326125,2 16,2 L16,2 Z M6.100125,6.100375 C6.7785,5.42225 7.6780625,5.07925 8.5791875,5.07925 C9.391375,5.07925 10.2049375,5.358125 10.8579375,5.921625 C10.9263125,5.9808125 10.991125,6.0409375 11.0504375,6.10025 C11.9283125,6.9781875 12.39125,10.0780625 12.499875,12.499875 C10.0780625,12.39125 6.978125,11.9283125 6.100125,11.0503125 C6.0409375,10.991125 5.981,10.9265625 5.9228125,10.85925 C4.7330625,9.480375 4.8110625,7.3899375 6.100125,6.100375 Z M2,16 C2,14.326125 3.1983125,12.89825 4.799,12.5714375 C5.730125,13.4149375 7.433,13.9788125 9.9965,14.292875 C10.634625,14.3710625 11.24375,14.4229375 11.770875,14.4573125 C11.5931875,14.94525 11.5,15.4654375 11.5,16 C11.5,16.5345625 11.5931875,17.05475 11.770875,17.5426875 C11.24375,17.5770625 10.6346875,17.6289375 9.9965625,17.707125 C7.4329375,18.02125 5.73,18.585125 4.7990625,19.4285625 C3.1983125,19.10175 2,17.6738125 2,16 L2,16 Z M6.1003125,25.899875 C4.811,24.6100625 4.733,22.519625 5.921875,21.14175 C5.9809375,21.0735 6.040875,21.0089375 6.10025,20.9495625 C6.97825,20.071625 10.0784375,19.6086875 12.5003125,19.500125 C12.392625,21.920875 11.930125,25.0200625 11.0505625,25.899625 C10.991125,25.9590625 10.9263125,26.01925 10.85925,26.07725 C9.480375,27.2670625 7.38975,27.188875 6.1003125,25.899875 Z M16,30 C14.326125,30 12.8981875,28.8016875 12.5714375,27.201 C13.4149375,26.2698125 13.9788125,24.5669375 14.292875,22.0035 C14.3710625,21.365375 14.4229375,20.75625 14.4573125,20.229125 C14.94525,20.4068125 15.4654375,20.5 16,20.5 C16.5345,20.5 17.0546875,20.406875 17.5426875,20.229125 C17.5770625,20.75625 17.6289375,21.365375 17.707125,22.0035 C18.0211875,24.5668125 18.5850625,26.2696875 19.4285625,27.201 C19.1018125,28.8016875 17.673875,30 16,30 L16,30 Z M25.899875,25.899625 C24.610125,27.1889375 22.5195625,27.267 21.1420625,26.078375 C21.0736875,26.0191875 21.008875,25.9590625 20.9495625,25.89975 C20.0716875,25.0218125 19.60875,21.9219375 19.500125,19.500125 C21.9219375,19.60875 25.021875,20.0716875 25.899875,20.9496875 C25.9590625,21.008875 26.019,21.0734375 26.0771875,21.14075 C27.2669375,22.519625 27.1889375,24.6100625 25.899875,25.899625 L25.899875,25.899625 Z M27.201,19.4285625 C26.269875,18.5850625 24.567,18.0211875 22.0035,17.707125 C21.365375,17.6289375 20.75625,17.5770625 20.229125,17.5426875 C20.4068125,17.05475 20.5,16.5345625 20.5,16 C20.5,15.4655 20.4068125,14.9453125 20.229125,14.4573125 C20.75625,14.4229375 21.3653125,14.3710625 22.0035,14.292875 C24.567125,13.97875 26.2700625,13.414875 27.201,12.5714375 C28.8016875,12.89825 30,14.3261875 30,16 C30,17.6738125 28.8016875,19.10175 27.201,19.4285625 Z" id="Shape" fill="#120033" fill-rule="nonzero"></path>
                </g>
            </g>
        </g>
    </g>
</svg>