<?xml version="1.0" encoding="UTF-8"?>
<svg width="70px" height="70px" viewBox="0 0 70 70" version="1.1" xmlns="http://www.w3.org/2000/svg" xmlns:xlink="http://www.w3.org/1999/xlink">
    <!-- Generator: Sketch 64 (93537) - https://sketch.com -->
    <title>FAQs</title>
    <desc>Created with Sketch.</desc>
    <g id="Page-1" stroke="none" stroke-width="1" fill="none" fill-rule="evenodd">
        <g id="Thor" transform="translate(-130.000000, -4413.000000)">
            <g id="use-cases-section" transform="translate(0.000000, 4241.000000)">
                <g id="FAQs" transform="translate(130.000000, 172.000000)">
                    <g id="Group-6-Copy" fill="#120033">
                        <rect id="Rectangle-Copy-3" x="0" y="0" width="70" height="70" rx="8"></rect>
                    </g>
                    <g id="question" transform="translate(23.000000, 23.000000)" fill="#FFFFFF" fill-rule="nonzero">
                        <circle id="Ellipse_9" cx="12" cy="17.7421875" r="1.171875"></circle>
                        <path d="M12,0 C5.3679375,0 0,5.3671875 0,12 C0,18.6320625 5.3671875,24 12,24 C18.6320625,24 24,18.6328125 24,12 C24,5.3679375 18.6328125,0 12,0 Z M12,22.1250015 C6.40811691,22.1250015 1.875,17.5918831 1.875,12 C1.875,6.40811691 6.40811691,1.875 12,1.875 C17.5918831,1.875 22.1250015,6.40811691 22.1250015,12 C22.126456,14.685763 21.0601855,17.2619424 19.161064,19.161064 C17.2619424,21.0601855 14.685763,22.126456 12,22.1250015 L12,22.1250015 Z" id="Path_1065"></path>
                        <path d="M12,6.0234375 C9.92990667,6.02578822 8.25235072,7.70334417 8.25,9.7734375 C8.25,10.2912045 8.66973305,10.7109375 9.1875,10.7109375 C9.70526695,10.7109375 10.125,10.2912045 10.125,9.7734375 C10.125,8.73790359 10.9644661,7.8984375 12,7.8984375 C13.0355339,7.8984375 13.875,8.73790359 13.875,9.7734375 C13.875,10.8089714 13.0355339,11.6484375 12,11.6484375 C11.7513595,11.6484375 11.5129027,11.7472095 11.3370874,11.9230249 C11.161272,12.0988402 11.0625,12.337297 11.0625,12.5859375 L11.0625,14.9296875 C11.0625,15.4474545 11.482233,15.8671875 12,15.8671875 C12.517767,15.8671875 12.9375,15.4474545 12.9375,14.9296875 L12.9375,13.4047969 C14.7659695,12.9326385 15.9581352,11.1745516 15.7201965,9.30115381 C15.4822579,7.42775602 13.8884475,6.0234375 12,6.0234375 L12,6.0234375 Z" id="Path_1066"></path>
                    </g>
                </g>
            </g>
        </g>
    </g>
</svg>