<?xml version="1.0" encoding="UTF-8"?>
<svg width="70px" height="70px" viewBox="0 0 70 70" version="1.1" xmlns="http://www.w3.org/2000/svg" xmlns:xlink="http://www.w3.org/1999/xlink">
    <!-- Generator: Sketch 64 (93537) - https://sketch.com -->
    <title>Guided Selling</title>
    <desc>Created with Sketch.</desc>
    <g id="Page-1" stroke="none" stroke-width="1" fill="none" fill-rule="evenodd">
        <g id="Thor" transform="translate(-130.000000, -4665.000000)">
            <g id="use-cases-section" transform="translate(0.000000, 4241.000000)">
                <g id="Guided-Selling" transform="translate(130.000000, 424.000000)">
                    <rect id="Rectangle-Copy-3" fill="#120033" x="0" y="0" width="70" height="70" rx="8"></rect>
                    <g id="sell" transform="translate(23.000000, 21.000000)" fill="#FFFFFF" fill-rule="nonzero">
                        <path d="M23.9664545,27.9459649 L23.0446364,5.80909942 L19.2650727,5.80909942 L19.2650727,4.40609747 C19.2650727,1.97267703 17.2936767,0 14.8618364,0 C12.4299961,0 10.4586,1.97267703 10.4586,4.40609747 L10.4586,5.809154 L6.67936364,5.809154 L6.42556364,11.8957973 L0,11.8957973 L0,27.9430721 L23.9664545,27.9459649 Z M14.8618909,26.308538 L14.8618909,24.5292008 L22.1860909,24.5292008 L22.2601636,26.308538 L14.8618909,26.308538 Z M12.0949636,4.40609747 C12.0949636,2.87700294 13.3337348,1.6374269 14.8618364,1.6374269 C16.389938,1.6374269 17.6287091,2.87700294 17.6287091,4.40609747 L17.6287091,5.809154 L12.0949636,5.809154 L12.0949636,4.40609747 Z M8.24890909,7.44652632 L10.4586,7.44652632 L10.4586,8.98232359 L12.0949636,8.98232359 L12.0949636,7.44652632 L17.6287091,7.44652632 L17.6287091,8.98232359 L19.2650727,8.98232359 L19.2650727,7.44652632 L21.4747091,7.44652632 L22.1179091,22.8917739 L14.8616182,22.8917739 L14.8616182,11.8957427 L8.0634,11.8957427 L8.24890909,7.44652632 Z M5.21514545,13.5331696 L9.64647273,13.5331696 L9.64647273,15.4271267 C9.64647273,16.6515991 8.65448633,17.64423 7.43080909,17.64423 C6.20713185,17.64423 5.21514545,16.6515991 5.21514545,15.4271267 L5.21514545,13.5331696 Z M13.2252545,26.3055906 L1.63636364,26.3055906 L1.63636364,13.5331696 L3.57878182,13.5331696 L3.57878182,15.4271267 C3.58676601,17.5502628 5.30903665,19.2671796 7.43080909,19.2671796 C9.55258153,19.2671796 11.2748522,17.5502628 11.2828364,15.4271267 L11.2828364,13.5331696 L13.2252545,13.5331696 L13.2252545,26.3055906 Z"></path>
                    </g>
                </g>
            </g>
        </g>
    </g>
</svg>