<?xml version="1.0" encoding="UTF-8"?>
<svg width="70px" height="70px" viewBox="0 0 70 70" version="1.1" xmlns="http://www.w3.org/2000/svg" xmlns:xlink="http://www.w3.org/1999/xlink">
    <!-- Generator: Sketch 64 (93537) - https://sketch.com -->
    <title>helpdesk</title>
    <desc>Created with Sketch.</desc>
    <g id="Page-1" stroke="none" stroke-width="1" fill="none" fill-rule="evenodd">
        <g id="Thor" transform="translate(-936.000000, -4539.000000)">
            <g id="use-cases-section" transform="translate(0.000000, 4241.000000)">
                <g id="helpdesk" transform="translate(936.000000, 298.000000)">
                    <rect id="Rectangle-Copy-3" fill="#120033" x="0" y="0" width="70" height="70" rx="8"></rect>
                    <g id="desk" transform="translate(21.000000, 21.000000)" fill="#FFFFFF" fill-rule="nonzero">
                        <path d="M21.3003437,12.03125 C20.9080086,10.1229639 19.2294482,8.7525613 17.28125,8.75 L10.71875,8.75 C8.77055179,8.7525613 7.09199137,10.1229639 6.69965625,12.03125 L0,12.03125 L0,28 L28,28 L28,12.03125 L21.3003437,12.03125 Z M10.71875,10.390625 L17.28125,10.390625 C18.3236801,10.3919366 19.252586,11.0488405 19.6012031,12.03125 L8.39879688,12.03125 C8.74741396,11.0488405 9.67631989,10.3919366 10.71875,10.390625 Z M26.359375,13.671875 L26.359375,15.3125 L1.640625,15.3125 L1.640625,13.671875 L26.359375,13.671875 Z M1.640625,26.359375 L1.640625,16.953125 L26.359375,16.953125 L26.359375,26.359375 L1.640625,26.359375 Z" id="Path_1081"></path>
                        <path d="M14,7.109375 C15.9631997,7.109375 17.5546875,5.5178872 17.5546875,3.5546875 C17.5546875,1.5914878 15.9631997,0 14,0 C12.0368003,0 10.4453125,1.5914878 10.4453125,3.5546875 C10.4475727,5.51695021 12.0377373,7.10711476 14,7.109375 L14,7.109375 Z M14,1.640625 C15.0571075,1.640625 15.9140625,2.49757997 15.9140625,3.5546875 C15.9140625,4.61179503 15.0571075,5.46875 14,5.46875 C12.9428925,5.46875 12.0859375,4.61179503 12.0859375,3.5546875 C12.0870528,2.49804227 12.9433548,1.64174026 14,1.640625 Z" id="Path_1082"></path>
                    </g>
                </g>
            </g>
        </g>
    </g>
</svg>