<?xml version="1.0" encoding="UTF-8"?>
<svg width="70px" height="70px" viewBox="0 0 70 70" version="1.1" xmlns="http://www.w3.org/2000/svg" xmlns:xlink="http://www.w3.org/1999/xlink">
    <!-- Generator: Sketch 64 (93537) - https://sketch.com -->
    <title>HR Support</title>
    <desc>Created with Sketch.</desc>
    <g id="Page-1" stroke="none" stroke-width="1" fill="none" fill-rule="evenodd">
        <g id="Thor" transform="translate(-533.000000, -4665.000000)">
            <g id="use-cases-section" transform="translate(0.000000, 4241.000000)">
                <g id="HR-Support" transform="translate(533.000000, 424.000000)">
                    <g id="Group-6-Copy-8" fill="#120033">
                        <rect id="Rectangle-Copy-3" x="0" y="0" width="70" height="70" rx="8"></rect>
                    </g>
                    <g id="support-(1)" transform="translate(21.000000, 22.000000)" fill="#FFFFFF" fill-rule="nonzero">
                        <path d="M27.3381719,13.0906087 C26.9074616,12.6945151 26.3552189,12.4603699 25.7741094,12.4274625 C25.1332229,12.3885924 24.5066766,12.6299429 24.0535859,13.0902213 L20.9402266,16.2074071 C20.8790725,16.0998336 20.8085755,15.9979823 20.7295703,15.9030593 C20.3467578,15.4428854 19.7864297,15.189502 19.1526016,15.189502 L14.7940078,15.189502 C13.9891323,15.1917518 13.1876435,15.0839979 12.4112734,14.8691621 C10.4315859,14.3151383 8.540875,14.7197549 6.94252344,16.0400711 C6.40263347,16.4900679 5.92376137,17.0101554 5.51829687,17.5868775 L4.73675781,16.8197549 C4.63337044,16.7185572 4.4952196,16.6618838 4.351375,16.6616601 L4.34754688,16.6616601 C4.19848995,16.6630197 4.05619907,16.7248129 3.95253906,16.8332016 L0.153890625,20.8236443 C0.0522724273,20.9305563 -0.00307004294,21.0740241 -2.80279466e-05,21.2223228 C0.00327226806,21.3706214 0.0646957855,21.5115328 0.170789063,21.6138972 L6.59591406,27.8043874 C6.81435291,28.01509 7.15970291,28.0086242 7.37028906,27.7898893 L11.1336641,23.88317 C11.2362609,23.7765919 11.2927603,23.6331053 11.2907086,23.4843377 C11.288657,23.3355701 11.2282226,23.1937346 11.1227266,23.0900949 L10.7950391,22.7684822 L11.5450781,22.6830988 C12.0004666,22.6296266 12.4585244,22.6027809 12.9169688,22.6026957 L19.5481016,22.6026957 C20.6254453,22.6026957 21.5408047,22.364253 22.2683672,21.8938972 C22.2743281,21.8900237 22.2803438,21.8858735 22.2863047,21.8817787 C22.5471276,21.6983022 22.7833092,21.4813433 22.9889297,21.2363399 L27.4575,15.9169486 C28.22225,15.0066166 28.1743984,13.8707352 27.3381719,13.0906087 Z M6.96160938,26.6174862 L1.33164063,21.1932332 L4.36444531,18.0073202 L9.96138281,23.5030672 L6.96160938,26.6174862 Z M26.6181563,15.1949249 L22.1495859,20.5145375 C22.0077673,20.6833971 21.8452363,20.8332579 21.6659297,20.9604901 C21.1197109,21.3104348 20.4072422,21.4881186 19.5480469,21.4881186 L12.9170781,21.4881186 C12.4168749,21.4882232 11.9170941,21.5175261 11.4202266,21.5758814 L9.77150781,21.763083 L6.31935937,18.3733123 C6.6875923,17.8221026 7.13212419,17.3272391 7.63935156,16.9038656 C8.96765625,15.806664 10.4745703,15.483502 12.1179844,15.9436759 C12.9900115,16.1853417 13.8903059,16.3067026 14.7944453,16.3044664 L19.1530391,16.3044664 C19.9357813,16.3044664 20.1446875,16.9906324 20.1446875,17.3958577 C20.1501129,17.6761447 20.058946,17.9496015 19.8868359,18.1692885 C19.7091016,18.3808933 19.4563906,18.4881344 19.1357578,18.4881344 L15.3412109,18.4881344 C15.0369905,18.4881344 14.7903711,18.7376781 14.7903711,19.0455059 C14.7903711,19.3533337 15.0369905,19.6028775 15.3412109,19.6028775 L19.1350469,19.6028775 C19.7754922,19.6028775 20.3403047,19.3499921 20.7256875,18.8908696 C21.0528469,18.490752 21.2358205,17.9899598 21.2445625,17.4707273 L24.8302031,13.880585 C25.3426797,13.3620316 26.1433594,13.4921265 26.5911406,13.9101897 C26.8230156,14.1262213 27.1345156,14.5803636 26.6181563,15.1949249 Z" id="Path_1083"></path>
                        <path d="M13.6234766,18.8972332 C13.579873,18.7019668 13.4361135,18.5453675 13.2468695,18.4869899 C13.0576255,18.4286122 12.8519768,18.4774266 12.7081312,18.614869 C12.5642856,18.7523114 12.5043468,18.9572621 12.5511094,19.1517787 L12.55625,19.1744664 C12.6147106,19.4262458 12.8365835,19.604314 13.0921875,19.6045929 C13.1346956,19.6045747 13.1770622,19.5996361 13.2184609,19.5898735 C13.3606967,19.5561442 13.4838641,19.4666216 13.560866,19.3410009 C13.6378679,19.2153801 13.6623962,19.0639522 13.6290547,18.9200316 L13.6234766,18.8972332 Z" id="Path_1084"></path>
                        <path d="M3.72290625,11.8142297 L9.08999219,11.8142297 C9.37136579,11.8144515 9.64550861,11.7240607 9.87273438,11.5561423 C10.0999451,11.7240495 10.374067,11.8144397 10.6554219,11.8142297 L16.0227266,11.8142297 C16.3041002,11.8144515 16.578243,11.7240607 16.8054687,11.5561423 C17.0326643,11.7240383 17.3067653,11.814428 17.5881016,11.8142297 L22.9551875,11.8142297 C23.6913395,11.8133143 24.2878494,11.2096322 24.2886584,10.464751 L24.2886584,7.9323004 C24.2932025,6.83148602 23.6860193,5.82147494 22.7178437,5.3193913 C23.7887928,4.01209671 23.6703736,2.08749137 22.4474426,0.924704213 C21.2245116,-0.238082943 19.3187775,-0.238082943 18.0958465,0.924704213 C16.8729155,2.08749137 16.7544962,4.01209671 17.8254453,5.3193913 C17.4213285,5.5290274 17.0718231,5.83222615 16.8053594,6.20432411 C16.5390021,5.83206352 16.1894017,5.52883107 15.7851094,5.3193913 C16.8561563,4.01212084 16.7378017,2.08745023 15.5148592,0.924610292 C14.2919168,-0.238229643 12.3861223,-0.238229643 11.1631798,0.924610292 C9.94023739,2.08745023 9.8218828,4.01212084 10.8929297,5.3193913 C10.4886374,5.52883107 10.1390369,5.83206352 9.87267969,6.20432411 C9.60629747,5.83197346 9.25671143,5.52860182 8.85242969,5.31894862 C9.92314007,4.01175744 9.80464839,2.08743634 8.58185868,0.924838391 C7.35906897,-0.237759559 5.45361072,-0.237759559 4.230821,0.924838391 C3.00803129,2.08743634 2.88953962,4.01175744 3.96025,5.31894862 C2.99206115,5.82104914 2.38481579,6.83102307 2.38921815,7.93185771 L2.38921815,10.4641423 C2.38978458,11.2093097 2.98647162,11.8133444 3.72290625,11.8142297 Z M20.2718906,1.17007905 C21.4181665,1.17007905 22.3473906,2.11037701 22.3473906,3.27024506 C22.3473906,4.43011311 21.4181665,5.37041107 20.2718906,5.37041107 C19.1256148,5.37041107 18.1963417,4.43022378 18.1962812,3.27035573 C18.1976373,2.11099536 19.1261165,1.17148168 20.2718906,1.17007905 L20.2718906,1.17007905 Z M18.8408281,6.13924901 C19.7402934,6.60037665 20.8030503,6.60037665 21.7025156,6.13924901 C22.5637842,6.28985017 23.1915561,7.04791219 23.1874112,7.9323004 L23.1874112,10.4648063 C23.18727,10.5943964 23.0834777,10.6994195 22.9554062,10.6995415 L17.5881016,10.6995415 C17.4601031,10.699328 17.3564262,10.5943227 17.356315,10.4648063 L17.356315,7.9323004 C17.3521387,7.04803553 17.9797118,6.29001818 18.8408281,6.13924901 Z M13.3392656,1.17007905 C14.4855343,1.17014017 15.4147109,2.1104211 15.4147109,3.27028195 C15.4147109,4.43014279 14.4854614,5.37041106 13.3391927,5.37041106 C12.192924,5.37041106 11.263662,4.43021657 11.2636016,3.27035573 C11.2649575,2.11101693 12.1934035,1.17151216 13.3391562,1.17007905 L13.3392656,1.17007905 Z M11.9084219,6.13924901 C12.8078872,6.60037665 13.8706441,6.60037665 14.7701094,6.13924901 C15.6311815,6.2900202 16.2587784,7.04791234 16.2547848,7.93213439 L16.2547848,10.4646403 C16.254645,10.5942304 16.1508527,10.6992535 16.0227812,10.6993755 L10.6556406,10.6993755 C10.5275692,10.6992535 10.4237768,10.5942304 10.423637,10.4646403 L10.423637,7.9323004 C10.419631,7.04804051 11.0472149,6.29009383 11.9083125,6.13924901 L11.9084219,6.13924901 Z M6.40658594,1.17007905 C7.55288314,1.17001793 8.48218959,2.11024473 8.48224999,3.27013439 C8.4823104,4.43002404 7.55310188,5.37034994 6.40680469,5.37041106 C5.26050749,5.37047218 4.33120103,4.43024539 4.33114062,3.27035573 C4.33249624,2.11112479 5.26077594,1.17166456 6.40642187,1.17007905 L6.40658594,1.17007905 Z M3.49108594,7.93213439 C3.48714099,7.04793713 4.11470604,6.29008345 4.97574219,6.13924901 C5.8752075,6.60037665 6.93796437,6.60037665 7.83742969,6.13924901 C8.69854983,6.28993583 9.32618923,7.04787929 9.32210594,7.93213439 L9.32210594,10.4646403 C9.32196534,10.5942304 9.21817301,10.6992535 9.09010156,10.6993755 L3.72290625,10.6993755 C3.5948348,10.6992535 3.49104247,10.5942304 3.49092188,10.4646403 L3.49108594,7.93213439 Z" id="Path_1085"></path>
                    </g>
                </g>
            </g>
        </g>
    </g>
</svg>