<?xml version="1.0" encoding="UTF-8"?>
<svg width="136px" height="130px" viewBox="0 0 136 130" version="1.1" xmlns="http://www.w3.org/2000/svg" xmlns:xlink="http://www.w3.org/1999/xlink">
    <!-- Generator: Sketch 52.6 (67491) - http://www.bohemiancoding.com/sketch -->
    <title>Group 3</title>
    <desc>Created with Sketch.</desc>
    <g id="Page-1" stroke="none" stroke-width="1" fill="none" fill-rule="evenodd">
        <g id="Home-page" transform="translate(-1131.000000, -1022.000000)">
            <g id="Group-3" transform="translate(1129.000000, 1014.000000)">
                <rect id="Rectangle" x="0" y="0" width="142" height="142"></rect>
                <g id="Group-4">
                    <rect id="Rectangle" x="0" y="0" width="142" height="142"></rect>
                    <g id="Group-27" transform="translate(2.290323, 8.016129)" stroke="#FFFFFF" stroke-width="2">
                        <path d="M67.7436194,78.1468371 L77.1545548,68.7359016 C77.1545548,68.7359016 94.6938452,70.0184823 104.961361,59.7521113 C115.228877,49.4845952 113.270652,35.5491274 106.576039,28.8545145 C99.1531032,21.431579 85.9459581,20.2016758 75.6784419,30.4691919 C65.4109258,40.7355629 66.6946516,58.2748532 66.6946516,58.2748532 L57.282571,67.6869339 L67.7436194,78.1468371 Z" id="Stroke-5"></path>
                        <path d="M63.2614581,72.1682935 L74.3305871,61.0991645 C74.3305871,61.0991645 79.3292161,61.3648419 76.9507161,58.4790355 C74.4485387,55.4409226 77.4969581,52.3925032 80.1056355,55.3241161 C84.2866194,58.8638097 87.2285387,55.0664548 84.7572806,50.6713258" id="Stroke-7"></path>
                        <polyline id="Stroke-9" points="85.2408823 24.2739839 85.7424629 23.7517903 81.1835758 3.45495161 28.7225919 24.4812581 68.5971081 27.6029677 70.0743661 38.8495968"></polyline>
                        <polyline id="Stroke-11" points="96.6847081 65.3012194 107.743531 66.7487032 110.866385 106.624365 131.891547 54.1633806 111.585547 49.5941871 110.993498 50.1644774"></polyline>
                        <path d="M19.4365935,92.779479 L3.83033548,103.229076" id="Stroke-13"></path>
                        <path d="M42.2839355,94.7293452 L0.947048387,128.851716" id="Stroke-15"></path>
                        <path d="M42.2839355,114.619766 L28.8523387,129.260653" id="Stroke-17"></path>
                        <polygon id="Stroke-19" points="57.6597871 88.369921 46.6994484 77.4095823 53.5772871 70.5317435 64.5376258 81.4920823"></polygon>
                        <path d="M116.156916,21.6330129 L126.169061,11.6208677" id="Stroke-21"></path>
                        <path d="M121.915131,35.0869403 L134.747808,29.1034726" id="Stroke-23"></path>
                        <path d="M101.871487,13.8964177 L107.8561,1.06374032" id="Stroke-25"></path>
                    </g>
                </g>
            </g>
        </g>
    </g>
</svg>