<?xml version="1.0" encoding="UTF-8"?>
<svg width="410px" height="13px" viewBox="0 0 410 13" version="1.1" xmlns="http://www.w3.org/2000/svg" xmlns:xlink="http://www.w3.org/1999/xlink">
    <!-- Generator: Sketch 52.6 (67491) - http://www.bohemiancoding.com/sketch -->
    <title>Technology . Design</title>
    <desc>Created with Sketch.</desc>
    <g id="Page-1" stroke="none" stroke-width="1" fill="none" fill-rule="evenodd" fill-opacity="0.7" opacity="0.7">
        <g id="Home-page" transform="translate(-232.000000, -718.000000)" fill="#FFFFFF">
            <path d="M235.84,719.856 L232.032,719.856 L232.032,718.576 L241.168,718.576 L241.168,719.856 L237.36,719.856 L237.36,730 L235.84,730 L235.84,719.856 Z M246.332,718.576 L254.22,718.576 L254.22,719.856 L247.852,719.856 L247.852,723.488 L253.788,723.488 L253.788,724.768 L247.852,724.768 L247.852,728.72 L254.268,728.72 L254.268,730 L246.332,730 L246.332,718.576 Z M268.04,722.016 C267.869333,721.205329 267.493336,720.597335 266.912,720.192 C266.330664,719.786665 265.640004,719.584 264.84,719.584 C264.15733,719.584 263.573336,719.711999 263.088,719.968 C262.602664,720.224001 262.202668,720.567998 261.888,721 C261.573332,721.432002 261.341334,721.925331 261.192,722.48 C261.042666,723.034669 260.968,723.610664 260.968,724.208 C260.968,724.85867 261.042666,725.474664 261.192,726.056 C261.341334,726.637336 261.573332,727.143998 261.888,727.576 C262.202668,728.008002 262.605331,728.351999 263.096,728.608 C263.586669,728.864001 264.17333,728.992 264.856,728.992 C265.357336,728.992 265.802665,728.909334 266.192,728.744 C266.581335,728.578666 266.917332,728.349335 267.2,728.056 C267.482668,727.762665 267.703999,727.413335 267.864,727.008 C268.024001,726.602665 268.12,726.165336 268.152,725.696 L269.672,725.696 C269.522666,727.136007 269.026671,728.255996 268.184,729.056 C267.341329,729.856004 266.189341,730.256 264.728,730.256 C263.842662,730.256 263.069337,730.104002 262.408,729.8 C261.746664,729.495998 261.197336,729.077336 260.76,728.544 C260.322665,728.010664 259.994668,727.381337 259.776,726.656 C259.557332,725.930663 259.448,725.152004 259.448,724.32 C259.448,723.487996 259.565332,722.70667 259.8,721.976 C260.034668,721.24533 260.378665,720.608003 260.832,720.064 C261.285336,719.519997 261.850663,719.090668 262.528,718.776 C263.205337,718.461332 263.981329,718.304 264.856,718.304 C265.453337,718.304 266.018664,718.383999 266.552,718.544 C267.085336,718.704001 267.559998,718.938665 267.976,719.248 C268.392002,719.557335 268.738665,719.943998 269.016,720.408 C269.293335,720.872002 269.474666,721.407997 269.56,722.016 L268.04,722.016 Z M275.46,718.576 L276.98,718.576 L276.98,723.488 L282.996,723.488 L282.996,718.576 L284.516,718.576 L284.516,730 L282.996,730 L282.996,724.768 L276.98,724.768 L276.98,730 L275.46,730 L275.46,718.576 Z M290.896,718.576 L292.512,718.576 L298.528,727.84 L298.56,727.84 L298.56,718.576 L300,718.576 L300,730 L298.336,730 L292.368,720.832 L292.336,720.832 L292.336,730 L290.896,730 L290.896,718.576 Z M307.244,724.288 C307.244,724.864003 307.318666,725.431997 307.468,725.992 C307.617335,726.552003 307.851999,727.055998 308.172,727.504 C308.492002,727.952002 308.902665,728.311999 309.404,728.584 C309.905336,728.856001 310.502664,728.992 311.196,728.992 C311.889337,728.992 312.486665,728.856001 312.988,728.584 C313.489336,728.311999 313.899999,727.952002 314.22,727.504 C314.540002,727.055998 314.774666,726.552003 314.924,725.992 C315.073335,725.431997 315.148,724.864003 315.148,724.288 C315.148,723.711997 315.073335,723.144003 314.924,722.584 C314.774666,722.023997 314.540002,721.520002 314.22,721.072 C313.899999,720.623998 313.489336,720.264001 312.988,719.992 C312.486665,719.719999 311.889337,719.584 311.196,719.584 C310.502664,719.584 309.905336,719.719999 309.404,719.992 C308.902665,720.264001 308.492002,720.623998 308.172,721.072 C307.851999,721.520002 307.617335,722.023997 307.468,722.584 C307.318666,723.144003 307.244,723.711997 307.244,724.288 Z M305.724,724.288 C305.724,723.509329 305.838666,722.760004 306.068,722.04 C306.297335,721.319996 306.641332,720.682669 307.1,720.128 C307.558669,719.573331 308.12933,719.130668 308.812,718.8 C309.494671,718.469332 310.289329,718.304 311.196,718.304 C312.102672,718.304 312.89733,718.469332 313.58,718.8 C314.262671,719.130668 314.833332,719.573331 315.292,720.128 C315.750669,720.682669 316.094666,721.319996 316.324,722.04 C316.553335,722.760004 316.668,723.509329 316.668,724.288 C316.668,725.066671 316.553335,725.815996 316.324,726.536 C316.094666,727.256004 315.750669,727.893331 315.292,728.448 C314.833332,729.002669 314.262671,729.442665 313.58,729.768 C312.89733,730.093335 312.102672,730.256 311.196,730.256 C310.289329,730.256 309.494671,730.093335 308.812,729.768 C308.12933,729.442665 307.558669,729.002669 307.1,728.448 C306.641332,727.893331 306.297335,727.256004 306.068,726.536 C305.838666,725.815996 305.724,725.066671 305.724,724.288 Z M322.424001,718.576 L323.944001,718.576 L323.944001,728.72 L329.992001,728.72 L329.992001,730 L322.424001,730 L322.424001,718.576 Z M336.100001,724.288 C336.100001,724.864003 336.174667,725.431997 336.324001,725.992 C336.473335,726.552003 336.707999,727.055998 337.028001,727.504 C337.348002,727.952002 337.758665,728.311999 338.260001,728.584 C338.761337,728.856001 339.358664,728.992 340.052001,728.992 C340.745337,728.992 341.342665,728.856001 341.844001,728.584 C342.345337,728.311999 342.755999,727.952002 343.076001,727.504 C343.396002,727.055998 343.630667,726.552003 343.780001,725.992 C343.929335,725.431997 344.004001,724.864003 344.004001,724.288 C344.004001,723.711997 343.929335,723.144003 343.780001,722.584 C343.630667,722.023997 343.396002,721.520002 343.076001,721.072 C342.755999,720.623998 342.345337,720.264001 341.844001,719.992 C341.342665,719.719999 340.745337,719.584 340.052001,719.584 C339.358664,719.584 338.761337,719.719999 338.260001,719.992 C337.758665,720.264001 337.348002,720.623998 337.028001,721.072 C336.707999,721.520002 336.473335,722.023997 336.324001,722.584 C336.174667,723.144003 336.100001,723.711997 336.100001,724.288 Z M334.580001,724.288 C334.580001,723.509329 334.694666,722.760004 334.924001,722.04 C335.153335,721.319996 335.497332,720.682669 335.956001,720.128 C336.41467,719.573331 336.985331,719.130668 337.668001,718.8 C338.350671,718.469332 339.145329,718.304 340.052001,718.304 C340.958672,718.304 341.753331,718.469332 342.436001,718.8 C343.118671,719.130668 343.689332,719.573331 344.148001,720.128 C344.60667,720.682669 344.950666,721.319996 345.180001,722.04 C345.409335,722.760004 345.524001,723.509329 345.524001,724.288 C345.524001,725.066671 345.409335,725.815996 345.180001,726.536 C344.950666,727.256004 344.60667,727.893331 344.148001,728.448 C343.689332,729.002669 343.118671,729.442665 342.436001,729.768 C341.753331,730.093335 340.958672,730.256 340.052001,730.256 C339.145329,730.256 338.350671,730.093335 337.668001,729.768 C336.985331,729.442665 336.41467,729.002669 335.956001,728.448 C335.497332,727.893331 335.153335,727.256004 334.924001,726.536 C334.694666,725.815996 334.580001,725.066671 334.580001,724.288 Z M359.824001,728.576 C359.375999,729.173336 358.821337,729.602665 358.160001,729.864 C357.498664,730.125335 356.832004,730.256 356.160001,730.256 C355.306663,730.256 354.544004,730.098668 353.872001,729.784 C353.199997,729.469332 352.629336,729.045336 352.160001,728.512 C351.690665,727.978664 351.333335,727.365337 351.088001,726.672 C350.842666,725.978663 350.720001,725.25867 350.720001,724.512 C350.720001,723.679996 350.834666,722.888004 351.064001,722.136 C351.293335,721.383996 351.634665,720.725336 352.088001,720.16 C352.541336,719.594664 353.106664,719.144002 353.784001,718.808 C354.461337,718.471998 355.25333,718.304 356.160001,718.304 C356.778671,718.304 357.362665,718.375999 357.912001,718.52 C358.461337,718.664001 358.951999,718.890665 359.384001,719.2 C359.816003,719.509335 360.178666,719.901331 360.472001,720.376 C360.765336,720.850669 360.965334,721.423997 361.072001,722.096 L359.552001,722.096 C359.477334,721.658664 359.338668,721.282668 359.136001,720.968 C358.933333,720.653332 358.682669,720.394668 358.384001,720.192 C358.085333,719.989332 357.746669,719.837334 357.368001,719.736 C356.989332,719.634666 356.58667,719.584 356.160001,719.584 C355.466664,719.584 354.872003,719.722665 354.376001,720 C353.879998,720.277335 353.474669,720.642664 353.160001,721.096 C352.845333,721.549336 352.613335,722.066664 352.464001,722.648 C352.314667,723.229336 352.240001,723.823997 352.240001,724.432 C352.240001,725.029336 352.325333,725.602664 352.496001,726.152 C352.666668,726.701336 352.917332,727.186665 353.248001,727.608 C353.578669,728.029335 353.986665,728.365332 354.472001,728.616 C354.957337,728.866668 355.519998,728.992 356.160001,728.992 C356.757337,728.992 357.285332,728.896001 357.744001,728.704 C358.20267,728.511999 358.589333,728.248002 358.904001,727.912 C359.218669,727.575998 359.456,727.181336 359.616001,726.728 C359.776002,726.274664 359.845334,725.786669 359.824001,725.264 L356.176001,725.264 L356.176001,723.984 L361.184001,723.984 L361.184001,730 L360.224001,730 L359.824001,728.576 Z M372.044001,725.328 L372.044001,730 L370.524001,730 L370.524001,725.328 L366.108001,718.576 L367.916001,718.576 L371.340001,724.016 L374.684001,718.576 L376.412001,718.576 L372.044001,725.328 Z M390.020001,728.224 L391.796001,728.224 L391.796001,730 L390.020001,730 L390.020001,728.224 Z M408.156001,728.72 L410.684001,728.72 C410.854669,728.72 411.068,728.706667 411.324001,728.68 C411.580003,728.653333 411.852,728.589334 412.140001,728.488 C412.428003,728.386666 412.713333,728.240001 412.996001,728.048 C413.278669,727.855999 413.532,727.594668 413.756001,727.264 C413.980002,726.933332 414.164001,726.520002 414.308001,726.024 C414.452002,725.527998 414.524001,724.928004 414.524001,724.224 C414.524001,723.54133 414.457335,722.930669 414.324001,722.392 C414.190667,721.853331 413.972003,721.394669 413.668001,721.016 C413.364,720.637331 412.972004,720.349334 412.492001,720.152 C412.011999,719.954666 411.420005,719.856 410.716001,719.856 L408.156001,719.856 L408.156001,728.72 Z M406.636001,718.576 L410.556001,718.576 C412.31601,718.576 413.670663,719.023996 414.620001,719.92 C415.569339,720.816004 416.044001,722.181324 416.044001,724.016 C416.044001,724.976005 415.937336,725.826663 415.724001,726.568 C415.510667,727.309337 415.180003,727.933331 414.732001,728.44 C414.283999,728.946669 413.713338,729.333332 413.020001,729.6 C412.326664,729.866668 411.505339,730 410.556001,730 L406.636001,730 L406.636001,718.576 Z M421.800001,718.576 L429.688001,718.576 L429.688001,719.856 L423.320001,719.856 L423.320001,723.488 L429.256001,723.488 L429.256001,724.768 L423.320001,724.768 L423.320001,728.72 L429.736001,728.72 L429.736001,730 L421.800001,730 L421.800001,718.576 Z M442.084001,721.92 C441.998668,721.098663 441.702671,720.504002 441.196001,720.136 C440.689332,719.767998 440.041339,719.584 439.252001,719.584 C438.932,719.584 438.617336,719.616 438.308001,719.68 C437.998667,719.744 437.724003,719.850666 437.484001,720 C437.244,720.149334 437.052002,720.349332 436.908001,720.6 C436.764001,720.850668 436.692001,721.162665 436.692001,721.536 C436.692001,721.888002 436.796,722.173332 437.004001,722.392 C437.212002,722.610668 437.489333,722.789333 437.836001,722.928 C438.18267,723.066667 438.574666,723.181333 439.012001,723.272 C439.449337,723.362667 439.894666,723.461333 440.348001,723.568 C440.801337,723.674667 441.246666,723.799999 441.684001,723.944 C442.121337,724.088001 442.513333,724.282665 442.860001,724.528 C443.20667,724.773335 443.484,725.082665 443.692001,725.456 C443.900002,725.829335 444.004001,726.298664 444.004001,726.864 C444.004001,727.472003 443.868003,727.991998 443.596001,728.424 C443.324,728.856002 442.97467,729.207999 442.548001,729.48 C442.121333,729.752001 441.644004,729.949333 441.116001,730.072 C440.587999,730.194667 440.062671,730.256 439.540001,730.256 C438.899998,730.256 438.294671,730.176001 437.724001,730.016 C437.153332,729.855999 436.652004,729.613335 436.220001,729.288 C435.787999,728.962665 435.446669,728.546669 435.196001,728.04 C434.945334,727.533331 434.820001,726.933337 434.820001,726.24 L436.260001,726.24 C436.260001,726.720002 436.353334,727.133332 436.540001,727.48 C436.726669,727.826668 436.972,728.111999 437.276001,728.336 C437.580003,728.560001 437.934666,728.725333 438.340001,728.832 C438.745337,728.938667 439.161333,728.992 439.588001,728.992 C439.929336,728.992 440.273333,728.96 440.620001,728.896 C440.96667,728.832 441.278667,728.722667 441.556001,728.568 C441.833336,728.413333 442.057334,728.202668 442.228001,727.936 C442.398669,727.669332 442.484001,727.328002 442.484001,726.912 C442.484001,726.517331 442.380002,726.197335 442.172001,725.952 C441.964,725.706665 441.68667,725.506667 441.340001,725.352 C440.993333,725.197333 440.601337,725.072 440.164001,724.976 C439.726666,724.88 439.281337,724.781334 438.828001,724.68 C438.374666,724.578666 437.929337,724.461334 437.492001,724.328 C437.054666,724.194666 436.66267,724.018668 436.316001,723.8 C435.969333,723.581332 435.692002,723.298668 435.484001,722.952 C435.276,722.605332 435.172001,722.170669 435.172001,721.648 C435.172001,721.071997 435.289334,720.573335 435.524001,720.152 C435.758669,719.730665 436.070666,719.384001 436.460001,719.112 C436.849337,718.839999 437.291999,718.637334 437.788001,718.504 C438.284004,718.370666 438.793332,718.304 439.316001,718.304 C439.902671,718.304 440.446666,718.373333 440.948001,718.512 C441.449337,718.650667 441.889333,718.869332 442.268001,719.168 C442.64667,719.466668 442.945334,719.842664 443.164001,720.296 C443.382669,720.749336 443.502668,721.290664 443.524001,721.92 L442.084001,721.92 Z M449.808002,718.576 L451.328002,718.576 L451.328002,730 L449.808002,730 L449.808002,718.576 Z M466.332002,728.576 C465.883999,729.173336 465.329338,729.602665 464.668002,729.864 C464.006665,730.125335 463.340005,730.256 462.668002,730.256 C461.814664,730.256 461.052005,730.098668 460.380002,729.784 C459.707998,729.469332 459.137337,729.045336 458.668002,728.512 C458.198666,727.978664 457.841336,727.365337 457.596002,726.672 C457.350667,725.978663 457.228002,725.25867 457.228002,724.512 C457.228002,723.679996 457.342667,722.888004 457.572002,722.136 C457.801336,721.383996 458.142666,720.725336 458.596002,720.16 C459.049337,719.594664 459.614665,719.144002 460.292002,718.808 C460.969338,718.471998 461.76133,718.304 462.668002,718.304 C463.286671,718.304 463.870666,718.375999 464.420002,718.52 C464.969338,718.664001 465.459999,718.890665 465.892002,719.2 C466.324004,719.509335 466.686667,719.901331 466.980002,720.376 C467.273336,720.850669 467.473334,721.423997 467.580002,722.096 L466.060002,722.096 C465.985335,721.658664 465.846669,721.282668 465.644002,720.968 C465.441334,720.653332 465.19067,720.394668 464.892002,720.192 C464.593333,719.989332 464.25467,719.837334 463.876002,719.736 C463.497333,719.634666 463.09467,719.584 462.668002,719.584 C461.974665,719.584 461.380004,719.722665 460.884002,720 C460.387999,720.277335 459.98267,720.642664 459.668002,721.096 C459.353333,721.549336 459.121336,722.066664 458.972002,722.648 C458.822668,723.229336 458.748002,723.823997 458.748002,724.432 C458.748002,725.029336 458.833334,725.602664 459.004002,726.152 C459.174669,726.701336 459.425333,727.186665 459.756002,727.608 C460.08667,728.029335 460.494666,728.365332 460.980002,728.616 C461.465337,728.866668 462.027998,728.992 462.668002,728.992 C463.265338,728.992 463.793333,728.896001 464.252002,728.704 C464.710671,728.511999 465.097333,728.248002 465.412002,727.912 C465.72667,727.575998 465.964001,727.181336 466.124002,726.728 C466.284002,726.274664 466.353335,725.786669 466.332002,725.264 L462.684002,725.264 L462.684002,723.984 L467.692002,723.984 L467.692002,730 L466.732002,730 L466.332002,728.576 Z M473.816002,718.576 L475.432002,718.576 L481.448002,727.84 L481.480002,727.84 L481.480002,718.576 L482.920002,718.576 L482.920002,730 L481.256002,730 L475.288002,720.832 L475.256002,720.832 L475.256002,730 L473.816002,730 L473.816002,718.576 Z M497.712002,728.224 L499.488002,728.224 L499.488002,730 L497.712002,730 L497.712002,728.224 Z M514.392002,718.576 L515.912002,718.576 L515.912002,730 L514.392002,730 L514.392002,718.576 Z M522.356002,718.576 L523.972002,718.576 L529.988002,727.84 L530.020002,727.84 L530.020002,718.576 L531.460002,718.576 L531.460002,730 L529.796002,730 L523.828002,720.832 L523.796002,720.832 L523.796002,730 L522.356002,730 L522.356002,718.576 Z M537.808002,718.576 L539.424002,718.576 L545.440002,727.84 L545.472002,727.84 L545.472002,718.576 L546.912002,718.576 L546.912002,730 L545.248002,730 L539.280002,720.832 L539.248002,720.832 L539.248002,730 L537.808002,730 L537.808002,718.576 Z M554.156002,724.288 C554.156002,724.864003 554.230668,725.431997 554.380002,725.992 C554.529336,726.552003 554.764001,727.055998 555.084002,727.504 C555.404004,727.952002 555.814667,728.311999 556.316002,728.584 C556.817338,728.856001 557.414666,728.992 558.108002,728.992 C558.801339,728.992 559.398667,728.856001 559.900002,728.584 C560.401338,728.311999 560.812001,727.952002 561.132002,727.504 C561.452004,727.055998 561.686668,726.552003 561.836002,725.992 C561.985336,725.431997 562.060002,724.864003 562.060002,724.288 C562.060002,723.711997 561.985336,723.144003 561.836002,722.584 C561.686668,722.023997 561.452004,721.520002 561.132002,721.072 C560.812001,720.623998 560.401338,720.264001 559.900002,719.992 C559.398667,719.719999 558.801339,719.584 558.108002,719.584 C557.414666,719.584 556.817338,719.719999 556.316002,719.992 C555.814667,720.264001 555.404004,720.623998 555.084002,721.072 C554.764001,721.520002 554.529336,722.023997 554.380002,722.584 C554.230668,723.144003 554.156002,723.711997 554.156002,724.288 Z M552.636002,724.288 C552.636002,723.509329 552.750668,722.760004 552.980002,722.04 C553.209337,721.319996 553.553333,720.682669 554.012002,720.128 C554.470671,719.573331 555.041332,719.130668 555.724002,718.8 C556.406672,718.469332 557.201331,718.304 558.108002,718.304 C559.014674,718.304 559.809332,718.469332 560.492002,718.8 C561.174672,719.130668 561.745333,719.573331 562.204002,720.128 C562.662671,720.682669 563.006668,721.319996 563.236002,722.04 C563.465337,722.760004 563.580002,723.509329 563.580002,724.288 C563.580002,725.066671 563.465337,725.815996 563.236002,726.536 C563.006668,727.256004 562.662671,727.893331 562.204002,728.448 C561.745333,729.002669 561.174672,729.442665 560.492002,729.768 C559.809332,730.093335 559.014674,730.256 558.108002,730.256 C557.201331,730.256 556.406672,730.093335 555.724002,729.768 C555.041332,729.442665 554.470671,729.002669 554.012002,728.448 C553.553333,727.893331 553.209337,727.256004 552.980002,726.536 C552.750668,725.815996 552.636002,725.066671 552.636002,724.288 Z M573.832002,730 L572.104002,730 L568.088002,718.576 L569.720002,718.576 L572.984002,728.48 L573.016002,728.48 L576.312002,718.576 L577.896002,718.576 L573.832002,730 Z M584.244003,725.28 L588.116003,725.28 L586.212003,719.952 L586.180003,719.952 L584.244003,725.28 Z M585.380003,718.576 L587.060003,718.576 L591.524003,730 L589.844003,730 L588.596003,726.56 L583.764003,726.56 L582.484003,730 L580.932003,730 L585.380003,718.576 Z M597.664003,719.856 L593.856003,719.856 L593.856003,718.576 L602.992003,718.576 L602.992003,719.856 L599.184003,719.856 L599.184003,730 L597.664003,730 L597.664003,719.856 Z M608.220003,718.576 L609.740003,718.576 L609.740003,730 L608.220003,730 L608.220003,718.576 Z M617.080003,724.288 C617.080003,724.864003 617.154669,725.431997 617.304003,725.992 C617.453337,726.552003 617.688001,727.055998 618.008003,727.504 C618.328004,727.952002 618.738667,728.311999 619.240003,728.584 C619.741339,728.856001 620.338666,728.992 621.032003,728.992 C621.72534,728.992 622.322667,728.856001 622.824003,728.584 C623.325339,728.311999 623.736001,727.952002 624.056003,727.504 C624.376004,727.055998 624.610669,726.552003 624.760003,725.992 C624.909337,725.431997 624.984003,724.864003 624.984003,724.288 C624.984003,723.711997 624.909337,723.144003 624.760003,722.584 C624.610669,722.023997 624.376004,721.520002 624.056003,721.072 C623.736001,720.623998 623.325339,720.264001 622.824003,719.992 C622.322667,719.719999 621.72534,719.584 621.032003,719.584 C620.338666,719.584 619.741339,719.719999 619.240003,719.992 C618.738667,720.264001 618.328004,720.623998 618.008003,721.072 C617.688001,721.520002 617.453337,722.023997 617.304003,722.584 C617.154669,723.144003 617.080003,723.711997 617.080003,724.288 Z M615.560003,724.288 C615.560003,723.509329 615.674668,722.760004 615.904003,722.04 C616.133337,721.319996 616.477334,720.682669 616.936003,720.128 C617.394672,719.573331 617.965333,719.130668 618.648003,718.8 C619.330673,718.469332 620.125332,718.304 621.032003,718.304 C621.938674,718.304 622.733333,718.469332 623.416003,718.8 C624.098673,719.130668 624.669334,719.573331 625.128003,720.128 C625.586672,720.682669 625.930668,721.319996 626.160003,722.04 C626.389337,722.760004 626.504003,723.509329 626.504003,724.288 C626.504003,725.066671 626.389337,725.815996 626.160003,726.536 C625.930668,727.256004 625.586672,727.893331 625.128003,728.448 C624.669334,729.002669 624.098673,729.442665 623.416003,729.768 C622.733333,730.093335 621.938674,730.256 621.032003,730.256 C620.125332,730.256 619.330673,730.093335 618.648003,729.768 C617.965333,729.442665 617.394672,729.002669 616.936003,728.448 C616.477334,727.893331 616.133337,727.256004 615.904003,726.536 C615.674668,725.815996 615.560003,725.066671 615.560003,724.288 Z M632.244003,718.576 L633.860003,718.576 L639.876003,727.84 L639.908003,727.84 L639.908003,718.576 L641.348003,718.576 L641.348003,730 L639.684003,730 L633.716003,720.832 L633.684003,720.832 L633.684003,730 L632.244003,730 L632.244003,718.576 Z" id="Technology-.-Design"></path>
        </g>
    </g>
</svg>