<?xml version="1.0" encoding="UTF-8"?>
<svg width="77px" height="83px" viewBox="0 0 77 83" version="1.1" xmlns="http://www.w3.org/2000/svg" xmlns:xlink="http://www.w3.org/1999/xlink">
    <!-- Generator: Sketch 52.6 (67491) - http://www.bohemiancoding.com/sketch -->
    <title>Group 13</title>
    <desc>Created with Sketch.</desc>
    <g id="Page-1" stroke="none" stroke-width="1" fill="none" fill-rule="evenodd">
        <g id="Retail-Page" transform="translate(-39.000000, 0.000000)">
            <g id="Group-13" transform="translate(39.000000, 0.000000)">
                <rect id="Rectangle" fill="#000000" x="0" y="0" width="77" height="83"></rect>
                <path d="M17.0644531,19.6582031 L17.8203125,21.4863281 L17.8203125,51 L13.0390625,51 L13.0390625,19.6582031 L17.0644531,19.6582031 Z M25.1328125,49.1542969 L25.1328125,19.6582031 L29.7558594,19.6582031 L29.7558594,51 L25.8710938,51 L25.1328125,49.1542969 Z M18.6992188,23.6132812 L24.2539062,35.7421875 L24.2539062,46.9394531 L18.6992188,34.3183594 L18.6992188,23.6132812 Z M40.0390625,42.7382812 L37.1035156,51 L31.8828125,51 L37.296875,35.8125 L40.0390625,42.7382812 Z M31.8652344,19.6757812 L37.7011719,19.6757812 L50.1113281,51 L44.2402344,51 L31.8652344,19.6757812 Z M41.7089844,27.4277344 L44.1699219,19.6757812 L49.4960938,19.6757812 L44.5214844,34.4765625 L41.7089844,27.4277344 Z M61.3261719,24.7382812 L61.3261719,51 L55.7539062,51 L55.7539062,24.7382812 L61.3261719,24.7382812 Z M50.8320312,19.6757812 L66.1953125,19.6757812 L66.1953125,23.859375 L50.8320312,23.859375 L50.8320312,19.6757812 Z" id="NXT-Copy" fill="#FFFFFF"></path>
                <path d="M11.288,60.356 L17.504,60.356 C18.092,60.356 18.092,61.184 17.504,61.184 L14.828,61.184 C14.828,63.344 14.84,65.54 14.84,67.7 C14.84,68 14.588,68.144 14.384,68.144 C14.18,68.144 13.952,68 13.952,67.7 L13.952,61.184 L11.288,61.184 C10.724,61.184 10.724,60.356 11.288,60.356 Z M23.996,65.228 L22.112,61.448 L20.216,65.228 L23.996,65.228 Z M24.368,65.984 L19.856,65.984 L18.884,67.88 C18.668,68.324 17.876,68.012 18.092,67.532 L21.716,60.392 C21.788,60.236 21.956,60.164 22.112,60.164 C22.268,60.164 22.412,60.236 22.496,60.392 L26.108,67.496 C26.42,68.012 25.532,68.312 25.304,67.844 L24.368,65.984 Z M28.22,61.16 L28.22,64.568 L30.644,64.568 C32.216,64.568 32.9,63.836 32.876,62.936 C32.864,61.952 32.036,61.16 30.644,61.16 L28.22,61.16 Z M30.548,65.324 L28.22,65.324 L28.22,67.652 C28.22,68.204 27.344,68.204 27.344,67.664 L27.344,60.776 C27.344,60.524 27.524,60.356 27.788,60.356 L30.632,60.356 C32.708,60.356 33.764,61.532 33.764,62.936 C33.764,64.148 33.104,65.024 31.628,65.276 L33.572,67.376 C34.028,67.832 33.368,68.36 32.972,67.952 L30.548,65.324 Z M36.092,64.604 L36.092,67.208 L40.832,67.208 C41.336,67.208 41.408,68 40.832,68 L35.78,68 C35.444,68 35.228,67.76 35.228,67.472 L35.228,60.884 C35.228,60.608 35.444,60.368 35.78,60.368 L40.844,60.368 C41.36,60.368 41.336,61.136 40.832,61.136 L36.092,61.136 L36.092,63.836 L40.604,63.836 C41.084,63.836 41.108,64.604 40.604,64.604 L36.092,64.604 Z M48.308,64.904 L48.308,60.656 C48.308,60.152 49.22,60.128 49.22,60.656 L49.22,67.544 C49.22,68.144 48.392,68.204 48.14,67.784 L43.652,61.772 L43.748,63.428 L43.748,67.664 C43.748,68.252 42.836,68.264 42.836,67.664 L42.836,60.788 C42.836,60.188 43.508,60.092 43.808,60.536 L48.428,66.716 L48.308,64.904 Z M50.564,60.356 L56.78,60.356 C57.368,60.356 57.368,61.184 56.78,61.184 L54.104,61.184 C54.104,63.344 54.116,65.54 54.116,67.7 C54.116,68 53.864,68.144 53.66,68.144 C53.456,68.144 53.228,68 53.228,67.7 L53.228,61.184 L50.564,61.184 C50,61.184 50,60.356 50.564,60.356 Z M61.676,68.132 C59.516,68.132 57.788,66.596 57.788,64.052 C57.788,62.168 59.06,60.56 60.968,60.26 C61.412,60.2 61.82,60.212 62.24,60.26 C64.088,60.548 65.516,62.084 65.516,64.052 C65.516,66.548 63.716,68.132 61.676,68.132 Z M61.088,61.064 C59.636,61.292 58.688,62.456 58.688,64.088 C58.688,66.056 59.984,67.304 61.676,67.304 C63.296,67.304 64.628,66.104 64.628,64.088 C64.628,62.54 63.608,61.304 62.132,61.064 C61.772,61.016 61.424,61.016 61.088,61.064 Z" id="TARENTO-Copy" fill-opacity="0.87" fill="#FFFFFF" opacity="0.7"></path>
            </g>
        </g>
    </g>
</svg>