<?xml version="1.0" encoding="UTF-8"?>
<svg width="138px" height="27px" viewBox="0 0 138 27" version="1.1" xmlns="http://www.w3.org/2000/svg" xmlns:xlink="http://www.w3.org/1999/xlink">
    <title>logos/dark/openSaber</title>
    <g id="Page-1" stroke="none" stroke-width="1" fill="none" fill-rule="evenodd" fill-opacity="0.9">
        <g id="Gov-tech" transform="translate(-972.000000, -1937.000000)" fill="#FFFFFF" fill-rule="nonzero">
            <path d="M978.861328,1958 C980.565755,1958 982.019531,1957.40527 983.222656,1956.21582 C984.425781,1955.02637 985.027344,1953.5931 985.027344,1951.91602 L985.027344,1951.91602 L985.027344,1943.42578 C985.027344,1941.7487 984.425781,1940.31543 983.222656,1939.12598 C982.019531,1937.93652 980.565755,1937.3418 978.861328,1937.3418 C977.156901,1937.3418 975.703125,1937.93652 974.5,1939.12598 C973.296875,1940.31543 972.695312,1941.7487 972.695312,1943.42578 L972.695312,1943.42578 L972.695312,1951.91602 C972.695312,1953.5931 973.296875,1955.02865 974.5,1956.22266 C975.69401,1957.40755 977.147786,1958 978.861328,1958 Z M978.861328,1955.9082 C977.758464,1955.9082 976.819661,1955.52083 976.044922,1954.74609 C975.270182,1953.97135 974.882812,1953.04167 974.882812,1951.95703 L974.882812,1951.95703 L974.882812,1943.38477 C974.882812,1942.29102 975.270182,1941.35905 976.044922,1940.58887 C976.819661,1939.81868 977.758464,1939.43359 978.861328,1939.43359 C979.945964,1939.43359 980.880208,1939.82096 981.664062,1940.5957 C982.438802,1941.36133 982.830729,1942.29102 982.839844,1943.38477 L982.839844,1943.38477 L982.839844,1951.95703 C982.830729,1953.05078 982.438802,1953.98047 981.664062,1954.74609 C980.880208,1955.52083 979.945964,1955.9082 978.861328,1955.9082 Z M989.429688,1963.3457 L991.617188,1962.38867 L991.617188,1957.07031 C992.483073,1957.6901 993.476562,1958 994.597656,1958 C996.019531,1958 997.231771,1957.4987 998.234375,1956.49609 C999.236979,1955.49349 999.738281,1954.28125 999.738281,1952.85938 L999.738281,1952.85938 L999.738281,1947.82812 C999.738281,1946.40625 999.236979,1945.19401 998.234375,1944.19141 C997.231771,1943.1888 996.019531,1942.6875 994.597656,1942.6875 C993.175781,1942.6875 991.958984,1943.1888 990.947266,1944.19141 C989.935547,1945.19401 989.429688,1946.40625 989.429688,1947.82812 L989.429688,1947.82812 L989.429688,1963.3457 Z M994.652344,1955.78516 C993.859375,1955.78516 993.152995,1955.49805 992.533203,1954.92383 C991.922526,1954.35872 991.617188,1953.6569 991.617188,1952.81836 L991.617188,1952.81836 L991.617188,1947.78711 C991.626302,1947.00326 991.913411,1946.32878 992.478516,1945.76367 C993.052734,1945.18945 993.722656,1944.90234 994.488281,1944.90234 C995.363281,1944.90234 996.092448,1945.18945 996.675781,1945.76367 C997.240885,1946.31966 997.532552,1947.02148 997.550781,1947.86914 L997.550781,1947.86914 L997.550781,1952.81836 C997.532552,1953.66602 997.240885,1954.36784 996.675781,1954.92383 C996.092448,1955.49805 995.417969,1955.78516 994.652344,1955.78516 Z M1010.29297,1958 C1011.71484,1958 1012.89062,1957.50781 1013.82031,1956.52344 C1014.91406,1955.35677 1015.46094,1954.13542 1015.46094,1952.85938 L1015.46094,1952.85938 L1015.46094,1951.65625 L1013.27344,1952.62695 L1013.27344,1952.81836 C1013.25521,1953.66602 1012.96354,1954.36784 1012.39844,1954.92383 C1011.8151,1955.49805 1011.14062,1955.78516 1010.375,1955.78516 C1009.5,1955.78516 1008.77539,1955.49121 1008.20117,1954.90332 C1007.62695,1954.31543 1007.33984,1953.58854 1007.33984,1952.72266 L1007.33984,1952.72266 L1015.46094,1949.11328 L1015.46094,1947.82812 C1015.46094,1946.35156 1014.95508,1945.13932 1013.94336,1944.19141 C1012.87695,1943.1888 1011.66016,1942.6875 1010.29297,1942.6875 C1008.87109,1942.6875 1007.65885,1943.1888 1006.65625,1944.19141 C1005.65365,1945.19401 1005.15234,1946.40625 1005.15234,1947.82812 L1005.15234,1947.82812 L1005.15234,1952.85938 C1005.15234,1954.28125 1005.65365,1955.49349 1006.65625,1956.49609 C1007.65885,1957.4987 1008.87109,1958 1010.29297,1958 Z M1007.33984,1950.33008 L1007.33984,1947.82812 C1007.33984,1947.02604 1007.62695,1946.33789 1008.20117,1945.76367 C1008.77539,1945.18945 1009.44531,1944.90234 1010.21094,1944.90234 C1011.08594,1944.90234 1011.8151,1945.18945 1012.39844,1945.76367 C1012.92708,1946.2832 1013.21419,1946.92578 1013.25977,1947.69141 L1013.25977,1947.69141 L1007.33984,1950.33008 Z M1028.99609,1958 L1031.18359,1957.04297 L1031.18359,1947.82812 C1031.18359,1946.40625 1030.67773,1945.19401 1029.66602,1944.19141 C1028.6543,1943.1888 1027.4375,1942.6875 1026.01562,1942.6875 C1024.59375,1942.6875 1023.38151,1943.1888 1022.37891,1944.19141 C1021.3763,1945.19401 1020.875,1946.40625 1020.875,1947.82812 L1020.875,1947.82812 L1020.875,1958 L1023.0625,1957.04297 L1023.0625,1947.82812 C1023.0625,1947.02604 1023.35417,1946.34245 1023.9375,1945.77734 C1024.52995,1945.19401 1025.23633,1944.90234 1026.05664,1944.90234 C1026.84961,1944.90234 1027.53776,1945.18945 1028.12109,1945.76367 C1028.6862,1946.31966 1028.97786,1947.02148 1028.99609,1947.86914 L1028.99609,1947.86914 L1028.99609,1958 Z M1041.76562,1958 C1043.47917,1958 1044.93294,1957.40755 1046.12695,1956.22266 C1047.31185,1955.04688 1047.9043,1953.5931 1047.9043,1951.86133 L1047.9043,1951.86133 L1047.9043,1951.82031 C1047.9043,1950.125 1047.30273,1948.69401 1046.09961,1947.52734 C1044.9694,1946.43359 1043.51562,1945.78646 1041.73828,1945.58594 C1040.65365,1945.46745 1039.83789,1945.13477 1039.29102,1944.58789 C1038.70768,1944.00456 1038.41602,1943.30729 1038.41602,1942.49609 C1038.41602,1941.6849 1038.70768,1940.98307 1039.29102,1940.39062 C1039.85612,1939.82552 1040.54427,1939.54297 1041.35547,1939.54297 C1042.16667,1939.54297 1042.86849,1939.83464 1043.46094,1940.41797 C1044.02604,1940.97396 1044.31771,1941.67578 1044.33594,1942.52344 L1044.33594,1942.52344 L1044.33594,1943.60352 L1046.52344,1942.61914 L1046.52344,1942.48242 C1046.52344,1941.07878 1046.01758,1939.86654 1045.00586,1938.8457 C1044.01237,1937.8431 1042.79557,1937.3418 1041.35547,1937.3418 C1039.93359,1937.3418 1038.72135,1937.8431 1037.71875,1938.8457 C1036.71615,1939.83919 1036.21484,1941.05599 1036.21484,1942.49609 C1036.21484,1943.92708 1036.72526,1945.14844 1037.74609,1946.16016 C1038.73047,1947.14453 1040.08854,1947.70508 1041.82031,1947.8418 C1042.83203,1947.91471 1043.76628,1948.35677 1044.62305,1949.16797 C1045.37044,1949.87891 1045.74414,1950.80404 1045.74414,1951.94336 C1045.74414,1953.02799 1045.35677,1953.96224 1044.58203,1954.74609 C1043.80729,1955.52083 1042.86849,1955.9082 1041.76562,1955.9082 C1040.68099,1955.9082 1039.74674,1955.52083 1038.96289,1954.74609 C1038.17904,1953.98047 1037.78711,1953.05078 1037.78711,1951.95703 L1037.78711,1951.95703 L1037.78711,1950.78125 L1035.59961,1951.73828 L1035.59961,1951.91602 C1035.59961,1953.56576 1036.20117,1955.0013 1037.4043,1956.22266 C1038.58008,1957.40755 1040.03385,1958 1041.76562,1958 Z M1060.44141,1958 L1062.62891,1957.04297 L1062.62891,1947.82812 C1062.62891,1946.40625 1062.1276,1945.19401 1061.125,1944.19141 C1060.1224,1943.1888 1058.91016,1942.6875 1057.48828,1942.6875 C1056.06641,1942.6875 1054.89062,1943.17969 1053.96094,1944.16406 C1052.86719,1945.33073 1052.32031,1946.55208 1052.32031,1947.82812 L1052.32031,1947.82812 L1052.32031,1949.03125 L1054.50781,1948.06055 L1054.50781,1947.86914 C1054.52604,1947.02148 1054.81771,1946.31966 1055.38281,1945.76367 C1055.96615,1945.18945 1056.64062,1944.90234 1057.40625,1944.90234 C1058.28125,1944.90234 1059.00586,1945.19629 1059.58008,1945.78418 C1060.1543,1946.37207 1060.44141,1947.09896 1060.44141,1947.96484 L1060.44141,1947.96484 L1054.87695,1950.24805 C1053.13607,1950.95898 1052.26562,1952.16667 1052.26562,1953.87109 L1052.26562,1953.87109 L1052.26562,1953.98047 C1052.26562,1954.92839 1052.62109,1955.76693 1053.33203,1956.49609 C1054.38932,1957.4987 1055.60156,1958 1056.96875,1958 C1057.83464,1958 1058.62305,1957.81315 1059.33398,1957.43945 L1059.33398,1957.43945 L1058.51367,1955.375 C1058.06706,1955.64844 1057.55208,1955.78516 1056.96875,1955.78516 C1056.01172,1955.78516 1055.31445,1955.49349 1054.87695,1954.91016 C1054.63997,1954.59115 1054.52148,1954.28125 1054.52148,1953.98047 C1054.52148,1953.23307 1054.99544,1952.63607 1055.94336,1952.18945 L1055.94336,1952.18945 L1060.44141,1950.35742 L1060.44141,1958 Z M1073.18359,1958 C1074.60547,1958 1075.82227,1957.4987 1076.83398,1956.49609 C1077.8457,1955.49349 1078.35156,1954.28125 1078.35156,1952.85938 L1078.35156,1952.85938 L1078.35156,1947.82812 C1078.35156,1946.40625 1077.8457,1945.19401 1076.83398,1944.19141 C1075.82227,1943.1888 1074.60547,1942.6875 1073.18359,1942.6875 C1072.07161,1942.6875 1071.08724,1942.99284 1070.23047,1943.60352 L1070.23047,1943.60352 L1070.23047,1937.3418 L1068.04297,1938.29883 L1068.04297,1952.85938 C1068.04297,1954.28125 1068.54427,1955.49349 1069.54688,1956.49609 C1070.54948,1957.4987 1071.76172,1958 1073.18359,1958 Z M1073.26562,1955.78516 C1072.47266,1955.78516 1071.76628,1955.49805 1071.14648,1954.92383 C1070.53581,1954.35872 1070.23047,1953.6569 1070.23047,1952.81836 L1070.23047,1952.81836 L1070.23047,1947.78711 C1070.23958,1947.00326 1070.52669,1946.32878 1071.0918,1945.76367 C1071.66602,1945.18945 1072.33594,1944.90234 1073.10156,1944.90234 C1073.97656,1944.90234 1074.70573,1945.18945 1075.28906,1945.76367 C1075.85417,1946.31966 1076.14583,1947.02148 1076.16406,1947.86914 L1076.16406,1947.86914 L1076.16406,1952.81836 C1076.14583,1953.66602 1075.85417,1954.36784 1075.28906,1954.92383 C1074.70573,1955.49805 1074.03125,1955.78516 1073.26562,1955.78516 Z M1088.90625,1958 C1090.32812,1958 1091.50391,1957.50781 1092.43359,1956.52344 C1093.52734,1955.35677 1094.07422,1954.13542 1094.07422,1952.85938 L1094.07422,1952.85938 L1094.07422,1951.65625 L1091.88672,1952.62695 L1091.88672,1952.81836 C1091.86849,1953.66602 1091.57682,1954.36784 1091.01172,1954.92383 C1090.42839,1955.49805 1089.75391,1955.78516 1088.98828,1955.78516 C1088.11328,1955.78516 1087.38867,1955.49121 1086.81445,1954.90332 C1086.24023,1954.31543 1085.95312,1953.58854 1085.95312,1952.72266 L1085.95312,1952.72266 L1094.07422,1949.11328 L1094.07422,1947.82812 C1094.07422,1946.35156 1093.56836,1945.13932 1092.55664,1944.19141 C1091.49023,1943.1888 1090.27344,1942.6875 1088.90625,1942.6875 C1087.48438,1942.6875 1086.27214,1943.1888 1085.26953,1944.19141 C1084.26693,1945.19401 1083.76562,1946.40625 1083.76562,1947.82812 L1083.76562,1947.82812 L1083.76562,1952.85938 C1083.76562,1954.28125 1084.26693,1955.49349 1085.26953,1956.49609 C1086.27214,1957.4987 1087.48438,1958 1088.90625,1958 Z M1085.95312,1950.33008 L1085.95312,1947.82812 C1085.95312,1947.02604 1086.24023,1946.33789 1086.81445,1945.76367 C1087.38867,1945.18945 1088.05859,1944.90234 1088.82422,1944.90234 C1089.69922,1944.90234 1090.42839,1945.18945 1091.01172,1945.76367 C1091.54036,1946.2832 1091.82747,1946.92578 1091.87305,1947.69141 L1091.87305,1947.69141 L1085.95312,1950.33008 Z M1099.48828,1958 L1101.67578,1957.04297 L1101.67578,1947.82812 C1101.67578,1947.02604 1101.96745,1946.33789 1102.55078,1945.76367 C1103.13411,1945.18945 1103.84049,1944.90234 1104.66992,1944.90234 C1105.46289,1944.90234 1106.15104,1945.18945 1106.73438,1945.76367 C1107.29948,1946.31966 1107.59115,1947.02148 1107.60938,1947.86914 L1107.60938,1947.86914 L1107.60938,1948.83984 L1109.79688,1947.88281 L1109.79688,1947.82812 C1109.79688,1946.44271 1109.29102,1945.23047 1108.2793,1944.19141 C1107.29492,1943.1888 1106.07812,1942.6875 1104.62891,1942.6875 C1103.20703,1942.6875 1101.99479,1943.1888 1100.99219,1944.19141 C1099.98958,1945.19401 1099.48828,1946.40625 1099.48828,1947.82812 L1099.48828,1947.82812 L1099.48828,1958 Z" id="logos/dark/openSaber"></path>
        </g>
    </g>
</svg>