<svg xmlns="http://www.w3.org/2000/svg" width="" height="" viewBox="0 0 92.178 87.999">
  <g id="Group_29" data-name="Group 29" transform="translate(-3.911 -958.363)">
    <path id="Path_12" data-name="Path 12" d="M49.9,958.365a2,2,0,0,0-1.8,1.378l-10.04,30.122H5.9a2,2,0,0,0-1.181,3.609l26.116,19.1L20.8,1043.744a2,2,0,0,0,3.084,2.231L50,1026.878l26.116,19.1a2,2,0,0,0,3.084-2.231l-10.04-31.172,26.116-19.1a2,2,0,0,0-1.181-3.609H61.943L51.9,959.743A2,2,0,0,0,49.9,958.365ZM50,966.7l8.6,25.791a2,2,0,0,0,1.9,1.378H87.96l-22.343,16.341a2,2,0,0,0-.722,2.231l8.6,26.677-22.31-16.308a2,2,0,0,0-2.362,0l-22.31,16.308,8.6-26.677a2,2,0,0,0-.722-2.231L12.04,993.868H39.5a2,2,0,0,0,1.9-1.378L50,966.7Z" fill="#fff" fill-rule="evenodd"/>
  </g>
</svg>
