<svg xmlns="http://www.w3.org/2000/svg" xmlns:xlink="http://www.w3.org/1999/xlink" viewBox="0 0 988 550" xmlns:v="https://vecta.io/nano"><style><![CDATA[.a{fill-rule:evenodd}.b{fill:#fff}.c{fill:#333}.d{font-family:LucidaGrande}.e{font-size:5.798px}.f{opacity:.173}.g{enable-background:new}.h{fill:#c2c2c4}.i{stroke:#767373}.j{overflow:visible}.k{fill-opacity:.9}.l{fill:#f5f5f5}.m{stroke-width:2}.n{stroke-dasharray:5}]]></style><g class="a"><path d="M0 201h988v67H0z" fill="#120033"/><path d="M1 301h987v64H1z" class="l"/><g class="b"><path d="M491.1 241v-5.1h4.8l4.3 5.1h2.9v-.7l-3.7-4.4h.8c1.6 0 2.9-1.3 2.9-2.9v-4c0-1.6-1.3-2.9-2.9-2.9h-11.9V241h2.8zm9.1-7.9h-9c-.1 0-.1-.1-.1-.1v-4c0-.1.1-.1.1-.1h9c.1 0 .1.1.1.1v4c.1 0 0 .1-.1.1zm12.9 7.9v-5h9.3v5h2.7v-12.1c0-1.6-1.3-2.9-2.9-2.9h-9c-1.6 0-2.8 1.3-2.8 2.9V241h2.7zm9.3-7.8h-9.3v-4.3c0-.1.1-.1.1-.1h9c.1 0 .1.1.1.1v4.3zm13 7.8v-15h-2.7v15h2.7zm9.6 0v-11l9.1 11h2.9v-15h-2.7v11l-9.1-11h-2.9v15h2.7z"/><path d="M452.4 216.4c9.4 0 17 7.6 17 17.1s-7.6 17.1-17 17.1-17-7.6-17-17.1 7.6-17.1 17-17.1z" fill-opacity=".2"/><path d="M446.1 223.3h26.7l-9.5 9.9v-5.4l-13.5 13.1 2.6-12-20.4 21.7z"/></g></g><g transform="translate(140)"><image width="2302" height="1466" xlink:href="C5C3DF441A8657E2.png" transform="matrix(.0947 0 0 .0947 0 .084709)" class="j"/><g transform="translate(28.548 7.794)"><path d="M0 0h160.9v101.3H0z" fill="#d8d8d8" class="a"/><defs><filter id="A" filterUnits="userSpaceOnUse" x="0" y=".4" width="161.3" height="105"><feColorMatrix values="1 0 0 0 0  0 1 0 0 0  0 0 1 0 0  0 0 0 1 0"/></filter><path id="B" d="M20 20v6.9h-.1c-.5 1.8-4.8 3.1-9.9 3.1S.6 28.7.1 26.9H0V20h20z"/><path id="C" d="M20 12v6.9h-.1c-.5 1.8-4.8 3.1-9.9 3.1S.6 20.7.1 18.9H0V12h20z"/><path id="D" d="M20 4v6.9h-.1c-.5 1.8-4.8 3.1-9.9 3.1S.6 12.7.1 10.9H0V4h20z"/></defs><mask maskUnits="userSpaceOnUse" x="0" y=".4" width="161.3" height="105" id="E"><g filter="url(#A)"><path d="M0 0h160.9v101.3H0z" class="a b"/></g></mask><g mask="url(#E)" class="j"><image width="2732" height="1778" xlink:href="C5C3DF441A8657E6.png" transform="matrix(.059035 0 0 .059035 0 .4133)"/></g></g></g><image width="788" height="1640" xlink:href="C5C3DF441A8657E1.png" transform="matrix(.069118 0 0 .069118 458.267639 12.323481)" class="j"/><image width="587" height="1171" xlink:href="C5C3DF441A8657E3.png" transform="matrix(.1039 0 0 .1039 455 8.1559)" class="j"/><g transform="translate(681 5)"><defs transform="translate(60.282 29.376)"><filter  filterUnits="userSpaceOnUse" x=".1" y="0" width="1.2" height="15.1"><feColorMatrix values="1 0 0 0 0  0 1 0 0 0  0 0 1 0 0  0 0 0 1 0"/></filter><filter  filterUnits="userSpaceOnUse" x="0" y="0" width="1.3" height="5.1"><feColorMatrix values="1 0 0 0 0  0 1 0 0 0  0 0 1 0 0  0 0 0 1 0"/></filter><filter  filterUnits="userSpaceOnUse" x="0" y=".1" width="1.3" height="9.6"><feColorMatrix values="1 0 0 0 0  0 1 0 0 0  0 0 1 0 0  0 0 0 1 0"/></filter><filter  filterUnits="userSpaceOnUse" x="0" y="0" width="1.3" height="9.6"><feColorMatrix values="1 0 0 0 0  0 1 0 0 0  0 0 1 0 0  0 0 0 1 0"/></filter><filter  filterUnits="userSpaceOnUse" x="0" y="0" width="60.2" height="125"><feColorMatrix values="1 0 0 0 0  0 1 0 0 0  0 0 1 0 0  0 0 0 1 0"/></filter></defs><path d="M1.9 117.1V9.8c0-4.2 3.4-7.7 7.5-7.7h42.8c4.2 0 7.5 3.4 7.5 7.7v107.3c0 4.2-3.4 7.7-7.5 7.7H9.4c-4.1 0-7.5-3.5-7.5-7.7" class="a"/><g transform="translate(3.002 3.324)"><defs><filter id="K" filterUnits="userSpaceOnUse" x=".1" y="0" width="55.6" height="120.3"><feColorMatrix values="1 0 0 0 0  0 1 0 0 0  0 0 1 0 0  0 0 0 1 0"/></filter></defs><mask maskUnits="userSpaceOnUse" x=".1" y="0" width="55.6" height="120.3" id="L"><g filter="url(#K)"><path d="M6.4 0C2.9 0 .1 2.9.1 6.4h0v107.4c0 3.5 2.8 6.4 6.3 6.4h0 43c3.5 0 6.3-2.9 6.3-6.4h0V6.4c0-3.5-2.8-6.4-6.3-6.4h0-43z" class="a b"/></g></mask><linearGradient id="M" gradientUnits="userSpaceOnUse" x1="27.907" y1="120.621" x2="27.907" y2="-.52"><stop offset="0" stop-color="#4d4d4d"/><stop offset="1"/></linearGradient><path d="M6.4 0C2.9 0 .1 2.9.1 6.4h0v107.4c0 3.5 2.8 6.4 6.3 6.4h0 43c3.5 0 6.3-2.9 6.3-6.4h0V6.4c0-3.5-2.8-6.4-6.3-6.4h0-43z" mask="url(#L)" fill="url(#M)" class="a"/></g><g transform="translate(1.921 3.079)"><g transform="translate(54.333)"><defs><filter id="N" filterUnits="userSpaceOnUse" x="0" y="0" width="3.5" height="120.6"><feColorMatrix values="1 0 0 0 0  0 1 0 0 0  0 0 1 0 0  0 0 0 1 0"/></filter></defs><mask maskUnits="userSpaceOnUse" x="0" y="0" width="3.5" height="120.6" id="O"><g filter="url(#N)"><path d="M0 0a7.35 7.35 0 0 1 3.5 6.3v108.1a7.35 7.35 0 0 1-3.5 6.3c1.6-1.3 2.7-3.4 2.7-5.7V5.7" class="a b"/></g></mask><linearGradient id="P" gradientUnits="userSpaceOnUse" x1="2.44" y1="60.353" x2="3.761" y2="60.353"><stop offset="0" stop-color="#fff"/><stop offset="1"/></linearGradient><path d="M2.7 115V5.7c0-2.3-1-4.4-2.7-5.7a7.35 7.35 0 0 1 3.5 6.3v108.1a7.35 7.35 0 0 1-3.5 6.3c1.7-1.4 2.7-3.4 2.7-5.7" mask="url(#O)" fill="url(#P)" class="a"/></g><defs><filter id="Q" filterUnits="userSpaceOnUse" x=".1" y="0" width="3.5" height="120.6"><feColorMatrix values="1 0 0 0 0  0 1 0 0 0  0 0 1 0 0  0 0 0 1 0"/></filter></defs><mask maskUnits="userSpaceOnUse" x=".1" y="0" width="3.5" height="120.6" id="R"><g filter="url(#Q)"><path d="M3.6 0C2 1.3.9 3.4.9 5.7h0V115c0 2.3 1.1 4.3 2.7 5.7a7.35 7.35 0 0 1-3.5-6.3h0V6.3" class="a b"/></g></mask><linearGradient id="S" gradientUnits="userSpaceOnUse" x1="1.098" y1="60.353" x2="-.223" y2="60.353"><stop offset="0" stop-color="#fff"/><stop offset="1"/></linearGradient><path d="M.9 115V5.7C.9 3.4 2 1.3 3.6 0A7.35 7.35 0 0 0 .1 6.3v108.1a7.35 7.35 0 0 0 3.5 6.3C2 119.3.9 117.3.9 115" mask="url(#R)" fill="url(#S)" class="a"/><path d="M13 .4c.4.3 1 .8 1.1 1.8.2 1.4.7 3.1 3 3.1H27h4 9.9c2.3 0 2.8-1.7 3-3.1.1-1 .7-1.5 1.1-1.8H13z" class="a"/></g><g transform="translate(27.019 5.036)"><defs><filter id="T" filterUnits="userSpaceOnUse" x=".1" y="0" width="7.6" height=".9"><feColorMatrix values="1 0 0 0 0  0 1 0 0 0  0 0 1 0 0  0 0 0 1 0"/></filter></defs><mask maskUnits="userSpaceOnUse" x=".1" y="0" width="7.6" height=".9" id="U"><g filter="url(#T)"><path d="M.4 0C.3 0 .1.2.1.4h0v.2c0 .2.2.3.4.3h0 6.9c.2 0 .4-.2.4-.3h0V.4C7.7.2 7.5 0 7.3 0h0H.4z" class="a b"/></g></mask><linearGradient id="V" gradientUnits="userSpaceOnUse" x1="3.929" y1=".965" x2="3.929" y2=".026"><stop offset="0"/><stop offset="1" stop-color="#4d4d4d"/></linearGradient><path d="M.4 0C.3 0 .1.2.1.4h0v.2c0 .2.2.3.4.3h0 6.9c.2 0 .4-.2.4-.3h0V.4C7.7.2 7.5 0 7.3 0h0H.4z" mask="url(#U)" fill="url(#V)" class="a"/></g><path d="M38.3 5.6c0 .4-.3.8-.8.8-.4 0-.8-.4-.8-.8s.3-.8.8-.8.8.3.8.8" class="a"/><g transform="translate(36.265 4.425)"><defs><filter id="W" filterUnits="userSpaceOnUse" x="0" y="0" width="2.3" height="2.4"><feColorMatrix values="1 0 0 0 0  0 1 0 0 0  0 0 1 0 0  0 0 0 1 0"/></filter></defs><mask maskUnits="userSpaceOnUse" x="0" y="0" width="2.3" height="2.4" id="X"><g filter="url(#W)"><path d="M0 1.2c0 .7.5 1.2 1.2 1.2h0c.6 0 1.2-.5 1.2-1.2h0C2.4.5 1.8 0 1.2 0h0C.5 0 0 .5 0 1.2" class="a b"/></g></mask><linearGradient id="Y" gradientUnits="userSpaceOnUse" x1="-983.271" y1="695.266" x2="-983.989" y2="696.011" gradientTransform="matrix(2.3471 0 0 -2.3909 2309.9221 1664.4871)"><stop offset="0" stop-color="#4d4d4d"/><stop offset="1"/></linearGradient><path d="M0 1.2c0 .7.5 1.2 1.2 1.2h0c.6 0 1.2-.5 1.2-1.2h0C2.4.5 1.8 0 1.2 0h0C.5 0 0 .5 0 1.2" mask="url(#X)" fill="url(#Y)" class="a"/></g><g transform="translate(36.505 4.547)"><defs><filter id="Z" filterUnits="userSpaceOnUse" x="0" y=".1" width="1.9" height="1.9"><feColorMatrix values="1 0 0 0 0  0 1 0 0 0  0 0 1 0 0  0 0 0 1 0"/></filter></defs><mask maskUnits="userSpaceOnUse" x="0" y=".1" width="1.9" height="1.9" id="a"><g filter="url(#Z)"><path d="M1 .1c.5 0 .9.4.9 1 0 .5-.4 1-.9 1a1.08 1.08 0 0 1-1-1" class="a b"/></g></mask><linearGradient id="b" gradientUnits="userSpaceOnUse" x1="-934.474" y1="667.773" x2="-935.192" y2="668.517" gradientTransform="matrix(1.8814 0 0 -1.916 1759.8268 1281.2561)"><stop offset="0"/><stop offset="1" stop-color="#4d4d4d"/></linearGradient><path d="M1.9 1.1c0 .5-.4 1-.9 1a1.08 1.08 0 0 1-1-1C0 .6.4.1.9.1s1 .4 1 1" mask="url(#a)" fill="url(#b)" class="a"/></g><g transform="translate(36.625 4.792)"><defs><filter  filterUnits="userSpaceOnUse" x="0" y="0" width="1.6" height="1.6"><feColorMatrix values="1 0 0 0 0  0 1 0 0 0  0 0 1 0 0  0 0 0 1 0"/></filter></defs></g><text transform="translate(10.207 6.122)" class="c d e">8</text><text transform="translate(10.207 13.122)" class="c d e">:</text><text transform="translate(10.207 20.122)" class="c d e">3</text><text transform="translate(10.207 27.122)" class="c d e">0</text><g class="a c"><path d="M46.932 8.026h.3v-.6h-.3zm.5 0h.4v-.8h-.4zm.5 0h.4v-1.1h-.4zm.5 0h.4v-1.3h-.4zm1.2-.6c.2-.2.5-.4.8-.4s.6.1.8.3l.2-.3c-.2-.2-.6-.3-1-.3s-.8.2-1.1.4l.3.3z"/><path d="M49.932 7.726c.2-.1.3-.2.5-.2s.4.1.5.2l.2-.3c-.1-.1-.4-.3-.7-.3s-.5.1-.7.3l.2.3z"/><path d="M50.332 8.026s.1-.1.2-.1.1 0 .2.1l.1-.2c-.1-.1-.2-.2-.4-.2a.76.76 0 0 0-.4.2l.3.2zm3.9-.1h-2.1s-.1 0-.1-.1v-.9s0-.1.1-.1h2.2s.1 0 .1.1l-.2 1c.1-.1.1 0 0 0"/><path d="M54.532 7.626h0c-.1 0-.1 0-.1-.1v-.3s0-.1.1-.1h0s.1 0 .1.1l-.1.4c.1-.1 0 0 0 0"/></g><g transform="translate(3.875 9.464)"><path d="M11,0h32.2c6.1,0,11,4.9,11,11v91.9         c0,6.1-4.9,11-11,11H11c-6.1,0-11-4.9-11-11V11C0,4.9,4.9,0,11,0z" fill="#d8d8d8" class="a"/><defs><filter id="d" filterUnits="userSpaceOnUse" x="-.1" y="-.1" width="54.4" height="113.2"><feColorMatrix values="1 0 0 0 0  0 1 0 0 0  0 0 1 0 0  0 0 0 1 0"/></filter></defs><mask maskUnits="userSpaceOnUse" x="-.1" y="-.1" width="54.4" height="113.2" id="e"><g filter="url(#d)"><path d="M11,0h32.2c6.1,0,11,4.9,11,11v91.9          c0,6.1-4.9,11-11,11H11c-6.1,0-11-4.9-11-11V11C0,4.9,4.9,0,11,0z" class="a b"/></g></mask><g mask="url(#e)" class="j"><image width="788" height="1640" xlink:href="C5C3DF441A8657E0.png" transform="matrix(.068997 0 0 .068997 -.12 -.1323)"/></g></g></g><path d="M206.8 166c1.1 0 2.1-.3 2.9-.8a5.1 5.1 0 0 0 1.9-2.2c.4-.9.7-2 .7-3.2h0v-.3c0-1.2-.2-2.3-.7-3.2s-1.1-1.7-2-2.2-1.8-.8-3-.8h0-5v1.1l1.4.2v10.1l-1.4.2v1.1h5.2zm-.1-1.4h-1.8v-10.1h1.8c.8 0 1.5.2 2.1.6s1 1 1.3 1.7.5 1.6.5 2.5h0v.3c0 .9-.2 1.7-.5 2.5s-.8 1.3-1.3 1.8-1.3.7-2.1.7h0zm11.2 1.6c.8 0 1.5-.1 2-.3s1-.5 1.3-.8h0l-.7-1.1c-.3.3-.7.5-1.1.7s-1 .3-1.5.3-1-.1-1.4-.4-.7-.6-.9-1.1-.3-1-.3-1.6h0 0 6.2v-1.1c0-.9-.1-1.6-.4-2.2s-.7-1.1-1.3-1.5-1.3-.5-2.1-.5c-.7 0-1.4.2-2 .6s-1.1 1-1.5 1.7-.6 1.5-.6 2.4h0v.4c0 .9.2 1.8.5 2.5s.9 1.3 1.5 1.7 1.4.3 2.3.3zm1.9-5.9h-4.4 0c.1-.5.2-.9.4-1.3a2.36 2.36 0 0 1 .8-.9c.3-.2.7-.3 1.1-.3.5 0 .9.1 1.2.3s.6.5.7.9.2.8.2 1.2h0v.1zm6.9 5.9c1.3 0 2.2-.3 2.8-.8s.9-1.2.9-2c0-.7-.3-1.3-.8-1.8s-1.4-.9-2.8-1.2c-.5-.1-.9-.3-1.2-.4s-.5-.3-.6-.4-.1-.4-.1-.6c0-.4.2-.7.5-.9s.8-.4 1.3-.4c.4 0 .7 0 1 .1s.5.2.7.4h0l.3 1.3h1.3l-.1-2.2c-.4-.3-.8-.5-1.3-.7s-1.1-.2-1.9-.2c-.7 0-1.3.1-1.9.4s-.9.6-1.2 1-.4.9-.4 1.4c0 .7.3 1.3.8 1.8s1.4.8 2.5 1.1c.8.2 1.4.4 1.7.7s.5.6.5 1-.2.7-.5 1-.8.4-1.5.4c-.4 0-.7 0-1-.1l-1-.3h0l-.3-1.4h-1.3v2.3c.6.3 1.2.5 1.8.6s1.2-.1 1.8-.1zm9.7-.2v-1.1l-1.4-.2v-1.5l1.5-1.5 2.4 3.1h0l-1 .1v1.1h4.3v-1.1l-1.4-.2-3.3-4.2 2.7-2.7 1.2-.2v-1.1h-4.1v1.1l1 .1v.1l-3.4 3.4v-8.8h-3.2v1.1l1.4.2v11l-1.4.2v1.1h4.7zm10.1.1c.3 0 .7 0 1-.1s.7-.1.9-.2h0l-.2-1.1c-.1 0-.3.1-.6.1s-.5.1-.7.1c-.3 0-.5-.1-.7-.3s-.3-.6-.3-1h0v-5.8h2.1v-1.3h-2v-2.3h-1.7v2.3h-1.5v1.3h1.5v5.8c0 .9.2 1.6.6 2s.9.5 1.6.5zm7.4.1a4.38 4.38 0 0 0 2.3-.6c.7-.4 1.1-1 1.5-1.7s.5-1.6.5-2.5h0v-.2c0-.9-.2-1.8-.5-2.5a3.53 3.53 0 0 0-1.5-1.7 4.38 4.38 0 0 0-2.3-.6 4.38 4.38 0 0 0-2.3.6c-.7.4-1.1 1-1.5 1.7s-.5 1.6-.5 2.5h0v.2c0 .9.2 1.8.5 2.5a3.53 3.53 0 0 0 1.5 1.7 4.38 4.38 0 0 0 2.3.6zm0-1.4c-.6 0-1-.2-1.4-.5s-.7-.7-.8-1.2-.3-1.1-.3-1.8h0v-.2c0-.7.1-1.3.3-1.8s.5-.9.8-1.2.8-.5 1.4-.5 1 .2 1.4.5.7.7.8 1.2.3 1.1.3 1.8h0v.2c0 .7-.1 1.3-.3 1.8s-.5.9-.8 1.2-.9.5-1.4.5zm9.9 4.9v-1.1l-1.5-.2V165c.3.4.7.7 1.1.9s1 .3 1.5.3c.8 0 1.4-.2 2-.6s1-.9 1.3-1.6.4-1.5.4-2.4h0v-.2c0-1-.1-1.9-.4-2.7s-.7-1.4-1.3-1.8-1.2-.6-2-.6c-.6 0-1.1.1-1.6.3s-.8.6-1.2 1h0l-.2-1.2H259v1.1l1.4.2v10.4l-1.3.2v1.1h4.7zm.6-4.9c-.5 0-.9-.1-1.3-.3s-.6-.5-.8-.9h0V159a1.96 1.96 0 0 1 .9-.9c.4-.2.8-.3 1.3-.3.6 0 1 .2 1.4.5s.7.8.8 1.3.3 1.2.3 1.9h0v.2c0 1-.2 1.7-.6 2.3s-1.2.8-2 .8zm212.4-10.7v-1.9H475v1.9h1.8zm1.4 11.9v-1.1l-1.4-.2v-8.2h-3.2v1.1l1.4.2v6.8l-1.4.2v1.1h4.6zm6.5.2c.9 0 1.6-.2 2.3-.5s1.2-.8 1.7-1.3.8-1.3 1-2.1a10.9 10.9 0 0 0 .3-2.6h0v-.2a10.9 10.9 0 0 0-.3-2.6c-.2-.8-.6-1.5-1-2.1s-1-1-1.7-1.3-1.4-.5-2.3-.5c-.8 0-1.6.2-2.2.5s-1.2.8-1.7 1.3-.8 1.3-1.1 2.1-.4 1.7-.4 2.6h0v.2c0 1 .1 1.8.4 2.6s.6 1.5 1.1 2.1 1 1 1.7 1.3 1.3.5 2.2.5zm0-1.5c-.8 0-1.4-.2-2-.6s-.9-1-1.2-1.8-.4-1.6-.4-2.6h0v-.2c0-1 .1-1.9.4-2.6s.7-1.3 1.2-1.8 1.2-.6 2-.6 1.5.2 2 .6.9 1 1.2 1.8.4 1.6.4 2.6h0v.2c0 1-.1 1.9-.4 2.6s-.6 1.3-1.2 1.8-1.2.6-2 .6zm11.2 1.5c.9 0 1.7-.1 2.4-.4s1.2-.7 1.6-1.2.6-1.1.6-1.8c0-1-.3-1.8-1-2.4s-1.7-1.1-3.1-1.5c-.7-.2-1.3-.4-1.7-.6s-.7-.4-.9-.7a1.69 1.69 0 0 1-.3-1c0-.4.1-.8.3-1.1s.5-.6.9-.7.8-.3 1.3-.3c.6 0 1.1.1 1.5.2s.7.3 1 .5h0l.3 1.8h1.3v-2.6c-.4-.4-1-.7-1.7-1s-1.5-.4-2.4-.4c-.8 0-1.6.2-2.2.5s-1.1.7-1.5 1.2-.5 1.1-.5 1.8c0 .6.2 1.2.5 1.7s.8.9 1.4 1.2 1.3.6 2.2.8l1.8.6c.5.2.7.5.9.8a1.69 1.69 0 0 1 .3 1c0 .4-.1.8-.3 1.1s-.5.6-.9.7-.9.3-1.5.3c-.5 0-1-.1-1.4-.2s-.9-.3-1.2-.5h0l-.3-2H492v2.7a8.42 8.42 0 0 0 2.1 1.1c.8.3 1.1.4 1.8.4zm187.4-.2v-1.1l-1-.2.9-2.4h5.1l.8 2.4-1 .2v1.1h3.7v-1.1l-.9-.1-4.4-11.6H685l-4.5 11.6-.9.1v1.1h3.7zm4.5-5.1h-4.1l1.9-5.2.1-.3h.1l.1.3 1.9 5.2zm9.9 5.1v-1.1l-1.4-.2v-5.6c.2-.4.5-.7.9-1s.8-.4 1.3-.4c.7 0 1.2.2 1.5.5s.5.9.5 1.8h0v4.6l-1.4.2v1.1h4.6v-1.1l-1.4-.2V160c0-1.3-.3-2.2-.8-2.8s-1.4-.9-2.4-.9c-.6 0-1.2.1-1.6.4s-.9.7-1.2 1.2h0l-.1-1.4h-3v1.1l1.4.2v6.8l-1.4.2v1.1h4.5zm11 .2c.6 0 1.1-.1 1.6-.3s.8-.6 1.1-1h0l.1 1.1h2.9v-1.1l-1.4-.2v-12.4h-3.2v1.1l1.4.2v3.9c-.3-.4-.7-.7-1.1-.9s-.9-.3-1.5-.3c-.8 0-1.4.2-2 .6s-1 1-1.3 1.8-.4 1.7-.4 2.7h0v.2c0 .9.1 1.7.4 2.4s.7 1.2 1.3 1.6 1.3.6 2.1.6zm.4-1.4c-.8 0-1.4-.3-1.8-.9s-.6-1.3-.6-2.3h0v-.2c0-.7.1-1.4.3-1.9s.4-1 .8-1.3.8-.5 1.4-.5c.5 0 .9.1 1.3.4s.6.6.9.9h0v4.4c-.2.4-.5.8-.9 1s-.9.4-1.4.4zm11.1 1.2v-1.1l-1.4-.2v-5.4c.2-.4.4-.7.7-1s.7-.3 1.2-.3h0l1.2.1.2-1.6c-.1 0-.2-.1-.4-.1h-.6c-.5 0-1 .1-1.4.4s-.7.7-1 1.1h0v-.2l-.1-1.2h-3v1.1l1.4.2v6.8l-1.4.2v1.1h4.6zm7.2.2a4.38 4.38 0 0 0 2.3-.6c.7-.4 1.1-1 1.5-1.7s.5-1.6.5-2.5h0v-.2c0-.9-.2-1.8-.5-2.5a3.53 3.53 0 0 0-1.5-1.7 4.38 4.38 0 0 0-2.3-.6 4.38 4.38 0 0 0-2.3.6c-.7.4-1.1 1-1.5 1.7s-.5 1.6-.5 2.5h0v.2c0 .9.2 1.8.5 2.5a3.53 3.53 0 0 0 1.5 1.7c.7.4 1.5.6 2.3.6zm0-1.4c-.6 0-1-.2-1.4-.5s-.7-.7-.8-1.2-.3-1.1-.3-1.8h0v-.2c0-.7.1-1.3.3-1.8s.5-.9.8-1.2.8-.5 1.4-.5 1 .2 1.4.5.7.7.8 1.2.3 1.1.3 1.8h0v.2c0 .7-.1 1.3-.3 1.8s-.5.9-.8 1.2-.8.5-1.4.5zm8.7-10.7v-1.9h-1.8v1.9h1.8zm1.5 11.9v-1.1l-1.4-.2v-8.2H733v1.1l1.4.2v6.8l-1.4.2v1.1h4.6zm4.9.2c.6 0 1.1-.1 1.6-.3s.8-.6 1.1-1h0l.1 1.1h2.9v-1.1l-1.4-.2v-12.4h-3.2v1.1l1.4.2v3.9c-.3-.4-.7-.7-1.1-.9s-.9-.3-1.5-.3c-.8 0-1.4.2-2 .6s-1 1-1.3 1.8-.4 1.7-.4 2.7h0v.2c0 .9.1 1.7.4 2.4s.7 1.2 1.3 1.6 1.3.6 2.1.6zm.4-1.4c-.8 0-1.4-.3-1.8-.9s-.6-1.3-.6-2.3h0v-.2c0-.7.1-1.4.3-1.9s.4-1 .8-1.3.8-.5 1.4-.5c.5 0 .9.1 1.3.4s.6.6.9.9h0v4.4c-.2.4-.5.8-.9 1s-.9.4-1.4.4z" class="k"/><path d="M444.8 342c1.1 0 2.1-.3 2.9-.8a5.1 5.1 0 0 0 1.9-2.2c.4-.9.7-2 .7-3.2h0v-.3c0-1.2-.2-2.3-.7-3.2s-1.1-1.7-2-2.2-1.8-.8-3-.8h0-5v1.1l1.4.2v10.1l-1.4.2v1.1h5.2zm-.1-1.4h-1.8v-10.1h1.8c.8 0 1.5.2 2.1.6s1 1 1.3 1.7.5 1.6.5 2.5h0v.3c0 .9-.2 1.7-.5 2.5s-.8 1.3-1.3 1.8-1.3.7-2.1.7h0zm9.9 1.6c.6 0 1.1-.1 1.6-.4s.9-.6 1.3-1.1c0 .2 0 .4.1.6s.1.4.1.7h0 2.5v-1.1l-.9-.1v-.4-.4h0v-4.6c0-1-.3-1.8-1-2.4s-1.6-.8-2.7-.8c-.7 0-1.3.1-1.9.3s-1.1.4-1.5.8h0v2.2h1.3l.2-1.3c.2-.2.5-.3.8-.4s.6-.1 1-.1c.6 0 1.1.2 1.5.5s.5.8.5 1.3h0v.9h-1.7c-.9 0-1.6.1-2.2.4s-1.1.6-1.4 1-.5 1-.5 1.6c0 .9.3 1.6.8 2s1.2.8 2.1.8zm.3-1.5c-.5 0-.9-.1-1.2-.3s-.4-.5-.4-1 .2-.9.6-1.3 1-.6 1.8-.6h0 1.8v1.7c-.2.4-.5.7-1 1s-1 .5-1.6.5zm10 1.4c.3 0 .7 0 1-.1s.7-.1.9-.2h0l-.2-1.1c-.1 0-.3.1-.6.1s-.5.1-.7.1c-.3 0-.5-.1-.7-.3s-.3-.6-.3-1h0v-5.8h2.1v-1.3h-2.1v-2.3h-1.7v2.3h-1.5v1.3h1.5v5.8c0 .9.2 1.6.6 2s1 .5 1.7.5zm6.1.1c.6 0 1.1-.1 1.6-.4s.9-.6 1.3-1.1c0 .2 0 .4.1.6s.1.4.1.7h0 2.5v-1.1l-.9-.1v-.4-.4h0v-4.6c0-1-.3-1.8-1-2.4s-1.6-.8-2.7-.8c-.7 0-1.3.1-1.9.3s-1.1.4-1.5.8h0v2.2h1.3l.2-1.3c.2-.2.5-.3.8-.4s.6-.1 1-.1c.6 0 1.1.2 1.5.5s.5.8.5 1.3h0v.9h-1.7c-.9 0-1.6.1-2.2.4s-1.1.6-1.4 1-.5 1-.5 1.6c0 .9.3 1.6.8 2s1.1.8 2.1.8zm.3-1.5c-.5 0-.9-.1-1.2-.3s-.4-.5-.4-1 .2-.9.6-1.3 1-.6 1.8-.6h0 1.8v1.7c-.2.4-.5.7-1 1s-1.1.5-1.6.5zm15.4 5v-1.1l-1.5-.2V341c.3.4.7.7 1.1.9s1 .3 1.5.3c.8 0 1.4-.2 2-.6s1-.9 1.3-1.6.4-1.5.4-2.4h0v-.2c0-1-.1-1.9-.4-2.7s-.7-1.4-1.3-1.8-1.2-.6-2-.6c-.6 0-1.1.1-1.6.3s-.8.6-1.2 1h0l-.2-1.2H482v1.1l1.4.2v10.4l-1.3.2v1.1h4.6zm.6-4.9c-.5 0-.9-.1-1.3-.3s-.6-.5-.8-.9h0V335a1.96 1.96 0 0 1 .9-.9c.4-.2.8-.3 1.3-.3.6 0 1 .2 1.4.5s.7.8.8 1.3.3 1.2.3 1.9h0v.2c0 1-.2 1.7-.6 2.3s-1.2.8-2 .8zm8.7-10.7v-1.9h-1.8v1.9h1.8zm1.4 11.9v-1.1l-1.4-.2v-8.2h-3.2v1.1l1.4.2v6.8l-1.4.2v1.1h4.6zm5.5 3.7v-1.1l-1.5-.2V341c.3.4.7.7 1.1.9s1 .3 1.5.3c.8 0 1.4-.2 2-.6s1-.9 1.3-1.6.4-1.5.4-2.4h0v-.2c0-1-.1-1.9-.4-2.7s-.7-1.4-1.3-1.8-1.2-.6-2-.6c-.6 0-1.1.1-1.6.3s-.8.6-1.2 1h0l-.2-1.2h-2.9v1.1l1.4.2v10.4l-1.3.2v1.1h4.7zm.7-4.9c-.5 0-.9-.1-1.3-.3s-.6-.5-.8-.9h0V335a1.96 1.96 0 0 1 .9-.9c.4-.2.8-.3 1.3-.3.6 0 1 .2 1.4.5s.7.8.8 1.3.3 1.2.3 1.9h0v.2c0 1-.2 1.7-.6 2.3s-1.2.8-2 .8zm9.9 1.4c.8 0 1.5-.1 2-.3s1-.5 1.3-.8h0l-.7-1.1c-.3.3-.7.5-1.1.7s-1 .3-1.5.3-1-.1-1.4-.4-.7-.6-.9-1.1-.3-1-.3-1.6h0 0 6.2v-1.1c0-.9-.1-1.6-.4-2.2s-.7-1.1-1.3-1.5-1.3-.5-2.1-.5c-.7 0-1.4.2-2 .6s-1.1 1-1.5 1.7-.6 1.5-.6 2.4h0v.4c0 .9.2 1.8.5 2.5s.9 1.3 1.5 1.7 1.4.3 2.3.3zm1.9-5.9H511h0c.1-.5.2-.9.4-1.3a2.36 2.36 0 0 1 .8-.9c.3-.2.7-.3 1.1-.3.5 0 .9.1 1.2.3s.6.5.7.9.2.8.2 1.2h0v.1zm7.5 5.7v-1.1l-1.4-.2v-12.4h-3.2v1.1l1.4.2v11l-1.4.2v1.1h4.6zm4.4-11.9v-1.9h-1.8v1.9h1.8zm1.4 11.9v-1.1l-1.4-.2v-8.2h-3.2v1.1l1.4.2v6.8l-1.4.2v1.1h4.6zm5.8 0v-1.1l-1.4-.2v-5.6c.2-.4.5-.7.9-1s.8-.4 1.3-.4c.7 0 1.2.2 1.5.5s.5.9.5 1.8h0v4.6l-1.4.2v1.1h4.6v-1.1l-1.4-.2V336c0-1.3-.3-2.2-.8-2.8s-1.4-.9-2.4-.9c-.6 0-1.2.1-1.6.4s-.9.7-1.2 1.2h0l-.1-1.4h-3v1.1l1.4.2v6.8l-1.4.2v1.1h4.5zm11.5.2c.8 0 1.5-.1 2-.3s1-.5 1.3-.8h0l-.7-1.1c-.3.3-.7.5-1.1.7s-1 .3-1.5.3-1-.1-1.4-.4-.7-.6-.9-1.1-.3-1-.3-1.6h0 0 6.2v-1.1c0-.9-.1-1.6-.4-2.2s-.7-1.1-1.3-1.5-1.3-.5-2.1-.5c-.7 0-1.4.2-2 .6s-1.1 1-1.5 1.7-.6 1.5-.6 2.4h0v.4c0 .9.2 1.8.5 2.5s.9 1.3 1.5 1.7 1.5.3 2.3.3zm1.9-5.9h-4.4 0c.1-.5.2-.9.4-1.3a2.36 2.36 0 0 1 .8-.9c.3-.2.7-.3 1.1-.3.5 0 .9.1 1.2.3s.6.5.7.9.2.8.2 1.2h0v.1z" class="k"/><g fill="none" class="m"><g stroke="#000" class="g"><g class="n"><path d="M370 373v94.4L296 542m311-167v94.4l74 74.6m-196.3-97.9l.1 96.3M291 373L173 492m512-119l118 119" class="f"/></g><circle cx="806" cy="494" r="3" class="f"/><circle cx="683" cy="546" r="3" class="f"/><circle cx="485" cy="544" r="3" class="f"/><circle cx="294" cy="544" r="3" class="f"/><circle cx="171" cy="494" r="3" class="f"/></g><path d="M484.5 394v-21" stroke="#979797" class="n"/></g><path d="M60 394h248a25.95 25.95 0 0 1 26 26h0a25.95 25.95 0 0 1-26 26H60a25.95 25.95 0 0 1-26-26h0a25.95 25.95 0 0 1 26-26z" class="a l"/><g fill="none" stroke="#979797" class="m n"><path d="M487.5 301v-33m0-75l.5-.1H241V176m247 17h233v-20"/><path d="M488 190v-14"/></g><path d="M371 394h248a25.95 25.95 0 0 1 26 26h0a25.95 25.95 0 0 1-26 26H371a25.95 25.95 0 0 1-26-26h0a25.95 25.95 0 0 1 26-26zm311 0h248a25.95 25.95 0 0 1 26 26h0a25.95 25.95 0 0 1-26 26H682a25.95 25.95 0 0 1-26-26h0a25.95 25.95 0 0 1 26-26z" class="a l"/><g transform="translate(112 403)"><radialGradient id="f" cx="-550.1" cy="459.5" r=".987" gradientTransform="matrix(6.123234e-16 10 10 -6.123234e-16 -4585 5521)" gradientUnits="userSpaceOnUse"><stop offset="0" stop-color="#fff"/><stop offset="1" stop-color="#b6b6b6"/></radialGradient><g class="a"><use xlink:href="#B" fill="url(#f)"/><ellipse cx="10" cy="19.5" rx="9.5" ry="3" class="h i"/></g><radialGradient id="g" cx="-550.1" cy="459.5" r=".987" gradientTransform="matrix(6.123234e-16 10 10 -6.123234e-16 -4585 5513)" gradientUnits="userSpaceOnUse"><stop offset="0" stop-color="#fff"/><stop offset="1" stop-color="#b6b6b6"/></radialGradient><g class="a"><use xlink:href="#C" fill="url(#g)"/><ellipse cx="10" cy="11.5" rx="9.5" ry="3" class="h i"/></g><radialGradient id="h" cx="-550.1" cy="459.5" r=".987" gradientTransform="matrix(6.123234e-16 10 10 -6.123234e-16 -4585 5505)" gradientUnits="userSpaceOnUse"><stop offset="0" stop-color="#fff"/><stop offset="1" stop-color="#b6b6b6"/></radialGradient><use xlink:href="#D" fill="url(#h)" class="a"/><linearGradient id="i" gradientUnits="userSpaceOnUse" x1="-552.574" y1="368.604" x2="-551.691" y2="368.437" gradientTransform="matrix(19 0 0 -6 10498.5 2214.5)"><stop offset="0" stop-color="#e3e3e4"/><stop offset="1" stop-color="#c2c2c4"/></linearGradient><linearGradient id="j" gradientUnits="userSpaceOnUse" x1="10" y1=".537" x2="10" y2="6.477"><stop offset="0" stop-color="#c2c2c2"/><stop offset="1" stop-color="#fff"/></linearGradient><ellipse cx="10" cy="3.5" rx="9.5" ry="3" fill="url(#i)" stroke="url(#j)" class="a"/></g><g transform="translate(430 403)"><radialGradient id="k" cx="-868.1" cy="459.5" r=".987" gradientTransform="matrix(0,10,10,0,-4585,8701)" gradientUnits="userSpaceOnUse"><stop offset="0" stop-color="#fff"/><stop offset="1" stop-color="#b6b6b6"/></radialGradient><g class="a"><use xlink:href="#B" fill="url(#k)"/><ellipse cx="10" cy="19.5" rx="9.5" ry="3" class="h i"/></g><radialGradient id="l" cx="-868.1" cy="459.5" r=".987" gradientTransform="matrix(0,10,10,0,-4585,8693)" gradientUnits="userSpaceOnUse"><stop offset="0" stop-color="#fff"/><stop offset="1" stop-color="#b6b6b6"/></radialGradient><g class="a"><use xlink:href="#C" fill="url(#l)"/><ellipse cx="10" cy="11.5" rx="9.5" ry="3" class="h i"/></g><radialGradient id="m" cx="-868.1" cy="459.5" r=".987" gradientTransform="matrix(0,10,10,0,-4585,8685)" gradientUnits="userSpaceOnUse"><stop offset="0" stop-color="#fff"/><stop offset="1" stop-color="#b6b6b6"/></radialGradient><use xlink:href="#D" fill="url(#m)" class="a"/><linearGradient id="n" gradientUnits="userSpaceOnUse" x1="-870.574" y1="368.604" x2="-869.691" y2="368.437" gradientTransform="matrix(19 0 0 -6 16540.5 2214.5)"><stop offset="0" stop-color="#e3e3e4"/><stop offset="1" stop-color="#c2c2c4"/></linearGradient><ellipse cx="10" cy="3.5" rx="9.5" ry="3" fill="url(#n)" stroke="url(#j)" class="a"/></g><g transform="translate(734 403)"><radialGradient id="o" cx="-1172.1" cy="459.5" r=".987" gradientTransform="matrix(0,10,10,0,-4585,11741)" gradientUnits="userSpaceOnUse"><stop offset="0" stop-color="#fff"/><stop offset="1" stop-color="#b6b6b6"/></radialGradient><g class="a"><use xlink:href="#B" fill="url(#o)"/><ellipse cx="10" cy="19.5" rx="9.5" ry="3" class="h i"/></g><radialGradient id="p" cx="-1172.1" cy="459.5" r=".987" gradientTransform="matrix(0,10,10,0,-4585,11733)" gradientUnits="userSpaceOnUse"><stop offset="0" stop-color="#fff"/><stop offset="1" stop-color="#b6b6b6"/></radialGradient><g class="a"><use xlink:href="#C" fill="url(#p)"/><ellipse cx="10" cy="11.5" rx="9.5" ry="3" class="h i"/></g><radialGradient id="q" cx="-1172.1" cy="459.5" r=".987" gradientTransform="matrix(0,10,10,0,-4585,11725)" gradientUnits="userSpaceOnUse"><stop offset="0" stop-color="#fff"/><stop offset="1" stop-color="#b6b6b6"/></radialGradient><use xlink:href="#D" fill="url(#q)" class="a"/><linearGradient id="r" gradientUnits="userSpaceOnUse" x1="-1174.574" y1="368.604" x2="-1173.691" y2="368.437" gradientTransform="matrix(19 0 0 -6 22316.5 2214.5)"><stop offset="0" stop-color="#e3e3e4"/><stop offset="1" stop-color="#c2c2c4"/></linearGradient><linearGradient id="s" gradientUnits="userSpaceOnUse" x1="9.998" y1=".537" x2="9.998" y2="6.477"><stop offset="0" stop-color="#c2c2c2"/><stop offset="1" stop-color="#fff"/></linearGradient><ellipse cx="10" cy="3.5" rx="9.5" ry="3" fill="url(#r)" stroke="url(#s)" class="a"/></g><path d="M466.8 425c1.1 0 2.1-.3 2.9-.8a5.1 5.1 0 0 0 1.9-2.2c.4-.9.7-2 .7-3.2h0v-.3c0-1.2-.2-2.3-.7-3.2s-1.1-1.7-2-2.2-1.8-.8-3-.8h0-5v1.1l1.4.2v10.1l-1.4.2v1.1h5.2zm-.1-1.4h-1.8v-10.1h1.8c.8 0 1.5.2 2.1.6s1 1 1.3 1.7.5 1.6.5 2.5h0v.3c0 .9-.2 1.7-.5 2.5s-.8 1.3-1.3 1.8-1.3.7-2.1.7h0zm9.9 1.6c.6 0 1.1-.1 1.6-.4s.9-.6 1.3-1.1c0 .2 0 .4.1.6s.1.4.1.7h0 2.5v-1.1l-.9-.1v-.4-.4h0v-4.6c0-1-.3-1.8-1-2.4s-1.6-.8-2.7-.8c-.7 0-1.3.1-1.9.3s-1.1.4-1.5.8h0v2.2h1.3l.2-1.3c.2-.2.5-.3.8-.4s.6-.1 1-.1c.6 0 1.1.2 1.5.5s.5.8.5 1.3h0v.9h-1.7c-.9 0-1.6.1-2.2.4s-1.1.6-1.4 1-.5 1-.5 1.6c0 .9.3 1.6.8 2s1.2.8 2.1.8zm.3-1.5c-.5 0-.9-.1-1.2-.3s-.4-.5-.4-1 .2-.9.6-1.3 1-.6 1.8-.6h0 1.8v1.7c-.2.4-.5.7-1 1s-1 .5-1.6.5zm10 1.4c.3 0 .7 0 1-.1s.7-.1.9-.2h0l-.2-1.1c-.1 0-.3.1-.6.1s-.5.1-.7.1c-.3 0-.5-.1-.7-.3s-.3-.6-.3-1h0v-5.8h2.1v-1.3h-2.1v-2.3h-1.7v2.3h-1.5v1.3h1.5v5.8c0 .9.2 1.6.6 2s1 .5 1.7.5zm6.1.1c.6 0 1.1-.1 1.6-.4s.9-.6 1.3-1.1c0 .2 0 .4.1.6s.1.4.1.7h0 2.5v-1.1l-.9-.1v-.4-.4h0v-4.6c0-1-.3-1.8-1-2.4s-1.6-.8-2.7-.8c-.7 0-1.3.1-1.9.3s-1.1.4-1.5.8h0v2.2h1.3l.2-1.3c.2-.2.5-.3.8-.4s.6-.1 1-.1c.6 0 1.1.2 1.5.5s.5.8.5 1.3h0v.9h-1.7c-.9 0-1.6.1-2.2.4s-1.1.6-1.4 1-.5 1-.5 1.6c0 .9.3 1.6.8 2s1.1.8 2.1.8zm.3-1.5c-.5 0-.9-.1-1.2-.3s-.4-.5-.4-1 .2-.9.6-1.3 1-.6 1.8-.6h0 1.8v1.7c-.2.4-.5.7-1 1s-1.1.5-1.6.5zm14.9 1.5c1.3 0 2.2-.3 2.8-.8s.9-1.2.9-2c0-.7-.3-1.3-.8-1.8s-1.4-.9-2.8-1.2c-.5-.1-.9-.3-1.2-.4s-.5-.3-.6-.4-.1-.4-.1-.6c0-.4.2-.7.5-.9s.8-.4 1.3-.4c.4 0 .7 0 1 .1s.5.2.7.4h0l.3 1.3h1.3l-.1-2.2c-.4-.3-.8-.5-1.3-.7s-1.1-.2-1.9-.2c-.7 0-1.3.1-1.9.4s-.9.6-1.2 1-.4.9-.4 1.4c0 .7.3 1.3.8 1.8s1.4.8 2.5 1.1c.8.2 1.4.4 1.7.7s.5.6.5 1-.2.7-.5 1-.8.4-1.5.4c-.4 0-.7 0-1-.1l-1-.3h0l-.3-1.4h-1.3v2.3c.6.3 1.2.5 1.8.6s1.2-.1 1.8-.1zm9.4 0a4.38 4.38 0 0 0 2.3-.6c.7-.4 1.1-1 1.5-1.7s.5-1.6.5-2.5h0v-.2c0-.9-.2-1.8-.5-2.5a3.53 3.53 0 0 0-1.5-1.7 4.38 4.38 0 0 0-2.3-.6 4.38 4.38 0 0 0-2.3.6c-.7.4-1.1 1-1.5 1.7s-.5 1.6-.5 2.5h0v.2c0 .9.2 1.8.5 2.5a3.53 3.53 0 0 0 1.5 1.7c.7.4 1.5.6 2.3.6zm0-1.4c-.6 0-1-.2-1.4-.5s-.7-.7-.8-1.2-.3-1.1-.3-1.8h0v-.2c0-.7.1-1.3.3-1.8s.5-.9.8-1.2.8-.5 1.4-.5 1 .2 1.4.5.7.7.8 1.2.3 1.1.3 1.8h0v.2c0 .7-.1 1.3-.3 1.8s-.5.9-.8 1.2-.8.5-1.4.5zm9.8 1.4c.6 0 1.2-.1 1.6-.4s.9-.7 1.2-1.2h0l.1 1.4h2.6v-1.1l-1.1-.2v-8.2h-3v1.1l1.3.2v5.5c-.2.5-.5.8-.9 1.1s-.9.4-1.5.4-1.1-.2-1.4-.6-.4-1.1-.4-2.1h0v-5.6H523v1.1l1.1.2v4.2c0 1.4.3 2.4.9 3.1a3.04 3.04 0 0 0 2.4 1.1zm11.3-.2v-1.1l-1.4-.2v-5.4c.2-.4.4-.7.7-1s.7-.3 1.2-.3h0l1.2.1.2-1.6c-.1 0-.2-.1-.4-.1h-.6c-.5 0-1 .1-1.4.4s-.7.7-1 1.1h0v-.2l-.1-1.2h-3v1.1l1.4.2v6.8l-1.4.2v1.1h4.6zm7.3.2c.8 0 1.5-.1 2-.4s1-.7 1.3-1.1.5-1 .5-1.5h0v-.1h-1.6c-.1.6-.3 1-.7 1.3s-.9.5-1.5.5c-.5 0-1-.1-1.3-.4s-.7-.7-.9-1.2-.3-1.1-.3-1.8h0v-.4c0-.6.1-1.2.3-1.7a2.73 2.73 0 0 1 .9-1.2c.4-.3.8-.5 1.4-.5.4 0 .8.1 1.1.2s.5.3.7.5h0l.3 1.7h1.4v-2.3c-.4-.4-.9-.8-1.5-1s-1.2-.4-2-.4a4.38 4.38 0 0 0-2.3.6c-.7.4-1.1 1-1.5 1.7s-.5 1.5-.5 2.4h0v.4c0 .9.2 1.8.5 2.5a3.53 3.53 0 0 0 1.5 1.7c.7.4 1.3.5 2.2.5zm9.4 0c.8 0 1.5-.1 2-.3s1-.5 1.3-.8h0l-.7-1.1c-.3.3-.7.5-1.1.7s-1 .3-1.5.3-1-.1-1.4-.4-.7-.6-.9-1.1-.3-1-.3-1.6h0 0 6.2v-1.1c0-.9-.1-1.6-.4-2.2s-.7-1.1-1.3-1.5-1.3-.5-2.1-.5c-.7 0-1.4.2-2 .6s-1.1 1-1.5 1.7-.6 1.5-.6 2.4h0v.4c0 .9.2 1.8.5 2.5s.9 1.3 1.5 1.7 1.4.3 2.3.3zm1.9-5.9h-4.4 0c.1-.5.2-.9.4-1.3a2.36 2.36 0 0 1 .8-.9c.3-.2.7-.3 1.1-.3.5 0 .9.1 1.2.3s.6.5.7.9.2.8.2 1.2h0v.1zm16 5.7v-2.8h-1.5l-.1 1.5h-4.5 0l3.4-3.7c.5-.5.9-1.1 1.3-1.5s.6-1 .8-1.4.3-.9.3-1.4c0-.7-.2-1.3-.5-1.8a4.04 4.04 0 0 0-1.3-1.3c-.5-.3-1.3-.5-2.1-.5-.9 0-1.6.2-2.2.5a3.16 3.16 0 0 0-1.4 1.4c-.3.6-.5 1.3-.5 2h0v.1h1.7c0-.8.2-1.5.6-1.9s1-.7 1.8-.7c.7 0 1.3.2 1.7.7s.6 1 .6 1.6c0 .3-.1.7-.2 1s-.3.7-.6 1.1-.7.9-1.2 1.4h0l-4.2 4.7v1.2h8.1z" class="k"/><path d="M769.1 424.8c1.1 0 2.1-.3 2.9-.8a5.1 5.1 0 0 0 1.9-2.2c.4-.9.7-2 .7-3.2h0v-.3c0-1.2-.2-2.3-.7-3.2s-1.1-1.7-2-2.2-1.8-.8-3-.8h0-5v1.1l1.4.2v10.1l-1.4.2v1.1h5.2zm-.1-1.4h-1.8v-10.1h1.8c.8 0 1.5.2 2.1.6s1 1 1.3 1.7.5 1.6.5 2.5h0v.3c0 .9-.2 1.7-.5 2.5s-.8 1.3-1.3 1.8-1.3.7-2.1.7h0zm9.9 1.6c.6 0 1.1-.1 1.6-.4s.9-.6 1.3-1.1c0 .2 0 .4.1.6s.1.4.1.7h0 2.5v-1.1l-.9-.1v-.4-.4h0v-4.6c0-1-.3-1.8-1-2.4s-1.6-.8-2.7-.8c-.7 0-1.3.1-1.9.3s-1.1.4-1.5.8h0v2.2h1.3l.2-1.3c.2-.2.5-.3.8-.4s.6-.1 1-.1c.6 0 1.1.2 1.5.5s.5.8.5 1.3h0v.9h-1.7c-.9 0-1.6.1-2.2.4s-1.1.6-1.4 1-.5 1-.5 1.6c0 .9.3 1.6.8 2s1.1.8 2.1.8zm.3-1.5c-.5 0-.9-.1-1.2-.3s-.4-.5-.4-1 .2-.9.6-1.3 1-.6 1.8-.6h0 1.8v1.7c-.2.4-.5.7-1 1s-1 .5-1.6.5zm10 1.4c.3 0 .7 0 1-.1s.7-.1.9-.2h0l-.2-1.1c-.1 0-.3.1-.6.1s-.5.1-.7.1c-.3 0-.5-.1-.7-.3s-.3-.6-.3-1h0v-5.8h2.1v-1.3h-2.1V413h-1.7v2.3h-1.5v1.3h1.5v5.8c0 .9.2 1.6.6 2s1 .5 1.7.5zm6.1.1c.6 0 1.1-.1 1.6-.4s.9-.6 1.3-1.1c0 .2 0 .4.1.6s.1.4.1.7h0 2.5v-1.1l-.9-.1v-.4-.4h0v-4.6c0-1-.3-1.8-1-2.4s-1.6-.8-2.7-.8c-.7 0-1.3.1-1.9.3s-1.1.4-1.5.8h0v2.2h1.3l.2-1.3c.2-.2.5-.3.8-.4s.6-.1 1-.1c.6 0 1.1.2 1.5.5s.5.8.5 1.3h0v.9h-1.7c-.9 0-1.6.1-2.2.4s-1.1.6-1.4 1-.5 1-.5 1.6c0 .9.3 1.6.8 2s1.1.8 2.1.8zm.3-1.5c-.5 0-.9-.1-1.2-.3s-.4-.5-.4-1 .2-.9.6-1.3 1-.6 1.8-.6h0 1.8v1.7c-.2.4-.5.7-1 1s-1.1.5-1.6.5zm14.9 1.5c1.3 0 2.2-.3 2.8-.8s.9-1.2.9-2c0-.7-.3-1.3-.8-1.8s-1.4-.9-2.8-1.2c-.5-.1-.9-.3-1.2-.4s-.5-.3-.6-.4-.1-.4-.1-.6c0-.4.2-.7.5-.9s.8-.4 1.3-.4c.4 0 .7 0 1 .1s.5.2.7.4h0l.3 1.3h1.3l-.1-2.2c-.4-.3-.8-.5-1.3-.7s-1.1-.2-1.9-.2c-.7 0-1.3.1-1.9.4s-.9.6-1.2 1-.4.9-.4 1.4c0 .7.3 1.3.8 1.8s1.4.8 2.5 1.1c.8.2 1.4.4 1.7.7s.5.6.5 1-.2.7-.5 1-.8.4-1.5.4c-.4 0-.7 0-1-.1l-1-.3h0l-.3-1.4h-1.3v2.3c.6.3 1.2.5 1.8.6s1.2-.1 1.8-.1zm9.4 0a4.38 4.38 0 0 0 2.3-.6c.7-.4 1.1-1 1.5-1.7s.5-1.6.5-2.5h0v-.2c0-.9-.2-1.8-.5-2.5a3.53 3.53 0 0 0-1.5-1.7 4.38 4.38 0 0 0-2.3-.6 4.38 4.38 0 0 0-2.3.6c-.7.4-1.1 1-1.5 1.7s-.5 1.6-.5 2.5h0v.2c0 .9.2 1.8.5 2.5a3.53 3.53 0 0 0 1.5 1.7 4.38 4.38 0 0 0 2.3.6zm0-1.4c-.6 0-1-.2-1.4-.5s-.7-.7-.8-1.2-.3-1.1-.3-1.8h0v-.1c0-.7.1-1.3.3-1.8s.5-.9.8-1.2.8-.5 1.4-.5 1 .2 1.4.5.7.7.8 1.2.3 1.1.3 1.8h0v.2c0 .7-.1 1.3-.3 1.8s-.5.9-.8 1.2-.8.4-1.4.4zm9.8 1.4c.6 0 1.2-.1 1.6-.4s.9-.7 1.2-1.2h0l.1 1.4h2.6v-1.1l-1.1-.2v-8.2h-3v1.1l1.3.2v5.5c-.2.5-.5.8-.9 1.1s-.9.4-1.5.4-1.1-.2-1.4-.6-.4-1.1-.4-2.1h0v-5.6h-2.8v1.1l1.1.2v4.2c0 1.4.3 2.4.9 3.1s1.3 1.1 2.3 1.1zm11.3-.2v-1.1l-1.4-.2v-5.4c.2-.4.4-.7.7-1s.7-.3 1.2-.3h0l1.2.1.2-1.6c-.1 0-.2-.1-.4-.1h-.6c-.5 0-1 .1-1.4.4s-.7.7-1 1.1h0v-.2l-.1-1.2h-3v1.1l1.4.2v6.8l-1.4.2v1.1h4.6zm7.3.2c.8 0 1.5-.1 2-.4s1-.7 1.3-1.1.5-1 .5-1.5h0v-.1h-1.6c-.1.6-.3 1-.7 1.3s-.9.5-1.5.5c-.5 0-1-.1-1.3-.4s-.7-.7-.9-1.2-.3-1.1-.3-1.8h0v-.4c0-.6.1-1.2.3-1.7a2.73 2.73 0 0 1 .9-1.2c.4-.3.8-.5 1.4-.5.4 0 .8.1 1.1.2s.5.3.7.5h0l.3 1.7h1.4v-2.3c-.4-.4-.9-.8-1.5-1s-1.2-.4-2-.4a4.38 4.38 0 0 0-2.3.6c-.7.4-1.1 1-1.5 1.7s-.5 1.5-.5 2.4h0v.4c0 .9.2 1.8.5 2.5a3.53 3.53 0 0 0 1.5 1.7c.7.4 1.3.5 2.2.5zm9.4 0c.8 0 1.5-.1 2-.3s1-.5 1.3-.8h0l-.7-1.1c-.3.3-.7.5-1.1.7s-1 .3-1.5.3-1-.1-1.4-.4-.7-.6-.9-1.1-.3-1-.3-1.6h0 0 6.2v-1.1c0-.9-.1-1.6-.4-2.2s-.7-1.1-1.3-1.5-1.3-.5-2.1-.5c-.7 0-1.4.2-2 .6s-1.1 1-1.5 1.7-.6 1.5-.6 2.4h0v.4c0 .9.2 1.8.5 2.5s.9 1.3 1.5 1.7 1.4.3 2.3.3zm1.9-5.9h-4.4 0c.1-.5.2-.9.4-1.3a2.36 2.36 0 0 1 .8-.9c.3-.2.7-.3 1.1-.3.5 0 .9.1 1.2.3s.6.5.7.9.2.8.2 1.2h0v.1zm12.1 5.7v-1.1l-1.4-.2v-5.6c.2-.4.5-.7.9-1s.8-.4 1.3-.4c.7 0 1.2.2 1.5.5s.5.9.5 1.8h0v4.6l-1.4.2v1.1h4.6v-1.1l-1.4-.2v-4.6c0-1.3-.3-2.2-.8-2.8s-1.4-.9-2.4-.9c-.6 0-1.2.1-1.6.4s-.9.7-1.2 1.2h0l-.1-1.4h-3v1.1l1.4.2v6.8l-1.4.2v1.1h4.5z" class="k"/><path d="M150.1 424.8c1.1 0 2.1-.3 2.9-.8a5.1 5.1 0 0 0 1.9-2.2c.4-.9.7-2 .7-3.2h0v-.3c0-1.2-.2-2.3-.7-3.2s-1.1-1.7-2-2.2-1.8-.8-3-.8h0-5v1.1l1.4.2v10.1l-1.4.2v1.1h5.2zm-.1-1.4h-1.8v-10.1h1.8c.8 0 1.5.2 2.1.6s1 1 1.3 1.7.5 1.6.5 2.5h0v.3c0 .9-.2 1.7-.5 2.5s-.8 1.3-1.3 1.8-1.3.7-2.1.7h0zm9.9 1.6c.6 0 1.1-.1 1.6-.4s.9-.6 1.3-1.1c0 .2 0 .4.1.6s.1.4.1.7h0 2.5v-1.1l-.9-.1v-.4-.4h0v-4.6c0-1-.3-1.8-1-2.4s-1.6-.8-2.7-.8c-.7 0-1.3.1-1.9.3s-1.1.4-1.5.8h0v2.2h1.3l.2-1.3c.2-.2.5-.3.8-.4s.6-.1 1-.1c.6 0 1.1.2 1.5.5s.5.8.5 1.3h0v.9h-1.7c-.9 0-1.6.1-2.2.4s-1.1.6-1.4 1-.5 1-.5 1.6c0 .9.3 1.6.8 2s1.1.8 2.1.8zm.3-1.5c-.5 0-.9-.1-1.2-.3s-.4-.5-.4-1 .2-.9.6-1.3 1-.6 1.8-.6h0 1.8v1.7c-.2.4-.5.7-1 1s-1 .5-1.6.5zm10 1.4c.3 0 .7 0 1-.1s.7-.1.9-.2h0l-.2-1.1c-.1 0-.3.1-.6.1s-.5.1-.7.1c-.3 0-.5-.1-.7-.3s-.3-.6-.3-1h0v-5.8h2.1v-1.3h-2.1V413h-1.7v2.3h-1.5v1.3h1.5v5.8c0 .9.2 1.6.6 2s1 .5 1.7.5zm6.1.1c.6 0 1.1-.1 1.6-.4s.9-.6 1.3-1.1c0 .2 0 .4.1.6s.1.4.1.7h0 2.5v-1.1l-.9-.1v-.4-.4h0v-4.6c0-1-.3-1.8-1-2.4s-1.6-.8-2.7-.8c-.7 0-1.3.1-1.9.3s-1.1.4-1.5.8h0v2.2h1.3l.2-1.3c.2-.2.5-.3.8-.4s.6-.1 1-.1c.6 0 1.1.2 1.5.5s.5.8.5 1.3h0v.9h-1.7c-.9 0-1.6.1-2.2.4s-1.1.6-1.4 1-.5 1-.5 1.6c0 .9.3 1.6.8 2s1.1.8 2.1.8zm.3-1.5c-.5 0-.9-.1-1.2-.3s-.4-.5-.4-1 .2-.9.6-1.3 1-.6 1.8-.6h0 1.8v1.7c-.2.4-.5.7-1 1s-1.1.5-1.6.5zm14.9 1.5c1.3 0 2.2-.3 2.8-.8s.9-1.2.9-2c0-.7-.3-1.3-.8-1.8s-1.4-.9-2.8-1.2c-.5-.1-.9-.3-1.2-.4s-.5-.3-.6-.4-.1-.4-.1-.6c0-.4.2-.7.5-.9s.8-.4 1.3-.4c.4 0 .7 0 1 .1s.5.2.7.4h0l.3 1.3h1.3l-.1-2.2c-.4-.3-.8-.5-1.3-.7s-1.1-.2-1.9-.2c-.7 0-1.3.1-1.9.4s-.9.6-1.2 1-.4.9-.4 1.4c0 .7.3 1.3.8 1.8s1.4.8 2.5 1.1c.8.2 1.4.4 1.7.7s.5.6.5 1-.2.7-.5 1-.8.4-1.5.4c-.4 0-.7 0-1-.1l-1-.3h0l-.3-1.4h-1.3v2.3c.6.3 1.2.5 1.8.6s1.2-.1 1.8-.1zm9.4 0a4.38 4.38 0 0 0 2.3-.6c.7-.4 1.1-1 1.5-1.7s.5-1.6.5-2.5h0v-.2c0-.9-.2-1.8-.5-2.5a3.53 3.53 0 0 0-1.5-1.7 4.38 4.38 0 0 0-2.3-.6 4.38 4.38 0 0 0-2.3.6c-.7.4-1.1 1-1.5 1.7s-.5 1.6-.5 2.5h0v.2c0 .9.2 1.8.5 2.5a3.53 3.53 0 0 0 1.5 1.7 4.38 4.38 0 0 0 2.3.6zm0-1.4c-.6 0-1-.2-1.4-.5s-.7-.7-.8-1.2-.3-1.1-.3-1.8h0v-.1c0-.7.1-1.3.3-1.8s.5-.9.8-1.2.8-.5 1.4-.5 1 .2 1.4.5.7.7.8 1.2.3 1.1.3 1.8h0v.2c0 .7-.1 1.3-.3 1.8s-.5.9-.8 1.2-.8.4-1.4.4zm9.8 1.4c.6 0 1.2-.1 1.6-.4s.9-.7 1.2-1.2h0l.1 1.4h2.6v-1.1l-1.1-.2v-8.2h-3v1.1l1.3.2v5.5c-.2.5-.5.8-.9 1.1s-.9.4-1.5.4-1.1-.2-1.4-.6-.4-1.1-.4-2.1h0v-5.6h-2.8v1.1l1.1.2v4.2c0 1.4.3 2.4.9 3.1s1.3 1.1 2.3 1.1zm11.3-.2v-1.1l-1.4-.2v-5.4c.2-.4.4-.7.7-1s.7-.3 1.2-.3h0l1.2.1.2-1.6c-.1 0-.2-.1-.4-.1h-.6c-.5 0-1 .1-1.4.4s-.7.7-1 1.1h0v-.2l-.1-1.2h-3v1.1l1.4.2v6.8l-1.4.2v1.1h4.6zm7.3.2c.8 0 1.5-.1 2-.4s1-.7 1.3-1.1.5-1 .5-1.5h0v-.1h-1.6c-.1.6-.3 1-.7 1.3s-.9.5-1.5.5c-.5 0-1-.1-1.3-.4s-.7-.7-.9-1.2-.3-1.1-.3-1.8h0v-.4c0-.6.1-1.2.3-1.7a2.73 2.73 0 0 1 .9-1.2c.4-.3.8-.5 1.4-.5.4 0 .8.1 1.1.2s.5.3.7.5h0l.3 1.7h1.4v-2.3c-.4-.4-.9-.8-1.5-1s-1.2-.4-2-.4a4.38 4.38 0 0 0-2.3.6c-.7.4-1.1 1-1.5 1.7s-.5 1.5-.5 2.4h0v.4c0 .9.2 1.8.5 2.5a3.53 3.53 0 0 0 1.5 1.7c.7.4 1.3.5 2.2.5zm9.4 0c.8 0 1.5-.1 2-.3s1-.5 1.3-.8h0l-.7-1.1c-.3.3-.7.5-1.1.7s-1 .3-1.5.3-1-.1-1.4-.4-.7-.6-.9-1.1-.3-1-.3-1.6h0 0 6.2v-1.1c0-.9-.1-1.6-.4-2.2s-.7-1.1-1.3-1.5-1.3-.5-2.1-.5c-.7 0-1.4.2-2 .6s-1.1 1-1.5 1.7-.6 1.5-.6 2.4h0v.4c0 .9.2 1.8.5 2.5s.9 1.3 1.5 1.7 1.4.3 2.3.3zm1.9-5.9h-4.4 0c.1-.5.2-.9.4-1.3a2.36 2.36 0 0 1 .8-.9c.3-.2.7-.3 1.1-.3.5 0 .9.1 1.2.3s.6.5.7.9.2.8.2 1.2h0v.1zm13.6 5.7v-1.1l-2-.2V412l-3.7.8v1.1h2v9.6l-2 .2v1.1h5.7z" class="k"/></svg>