<?xml version="1.0" encoding="UTF-8"?>
<svg width="160px" height="48px" viewBox="0 0 160 48" version="1.1" xmlns="http://www.w3.org/2000/svg" xmlns:xlink="http://www.w3.org/1999/xlink">
    <title>rain_logo</title>
    <g id="Screens" stroke="none" stroke-width="1" fill="none" fill-rule="evenodd">
        <g id="Customer-Experience" transform="translate(-190.000000, -3158.000000)">
            <g id="thor_story" transform="translate(130.000000, 3014.000000)">
                <g id="rain_logo" transform="translate(60.000000, 144.000000)">
                    <g id="Group-24">
                        <g id="Icons/thor">
                            <g id="Group">
                                <path d="M24.0000458,4 C35.0456691,4 44,12.9543309 44,24.0000458 C44,35.0457608 35.0456691,44 24.0000458,44 C12.9544225,44 4,35.0456691 4,24.0000458 C4,12.9544225 12.9543309,4 24.0000458,4 Z" id="circle" fill-opacity="0.2" fill="#FFFFFF"></path>
                                <rect id="size" x="0" y="0" width="47.9725557" height="47.9597203"></rect>
                                <path d="M44,8 L41.7597588,13.585108 L32.9909533,22.8442726 L26.7595075,41.6888055 L24,44 L25.8694924,16.0000186 L44,8 Z M4,8 L22.1305757,15.9998885 L24,44 L21.2403857,41.688962 L15.0088877,22.8443416 L6.24034378,13.585134 L4,8 Z" id="wings" fill="#FFFFFF"></path>
                            </g>
                        </g>
                        <path d="M74.248,33.28 L74.248,19.168 L81.28,19.168 L81.28,16 L64,16 L64,19.168 L71.056,19.168 L71.056,33.28 L74.248,33.28 Z M92.272,33.28 L92.272,26.224 L103.6,26.224 L103.6,33.28 L106.768,33.28 L106.768,16 L103.6,16 L103.6,23.056 L92.272,23.056 L92.272,16 L89.104,16 L89.104,33.28 L92.272,33.28 Z M129.4,33.28 C131.224,33.28 132.736,31.792 132.736,29.944 L132.736,19.336 C132.736,17.488 131.224,16 129.4,16 L118.792,16 C116.944,16 115.456,17.488 115.456,19.336 L115.456,29.944 C115.456,31.792 116.944,33.28 118.792,33.28 L129.4,33.28 Z M129.4,30.112 L118.792,30.112 C118.696,30.112 118.624,30.04 118.624,29.944 L118.624,19.336 C118.624,19.24 118.696,19.168 118.792,19.168 L129.4,19.168 C129.472,19.168 129.544,19.24 129.544,19.336 L129.544,29.944 C129.544,30.04 129.472,30.112 129.4,30.112 Z M144.52,33.28 L144.52,27.352 L150.184,27.352 L155.176,33.28 L158.632,33.28 L158.632,32.464 L154.336,27.352 L155.272,27.352 C157.12,27.352 158.632,25.84 158.632,24.016 L158.632,19.36 C158.632,17.536 157.12,16.024 155.272,16.024 L141.352,16.024 L141.352,33.28 L144.52,33.28 Z M155.272,24.184 L144.688,24.184 C144.592,24.184 144.52,24.112 144.52,24.016 L144.52,19.36 C144.52,19.264 144.592,19.192 144.688,19.192 L155.272,19.192 C155.368,19.192 155.44,19.264 155.44,19.36 L155.44,24.016 C155.44,24.112 155.368,24.184 155.272,24.184 Z" id="THOR" fill="#FFFFFF"></path>
                    </g>
                </g>
            </g>
        </g>
    </g>
</svg>