<?xml version="1.0" encoding="UTF-8"?>
<svg width="371px" height="325px" viewBox="0 0 371 325" version="1.1" xmlns="http://www.w3.org/2000/svg" xmlns:xlink="http://www.w3.org/1999/xlink">
    <title>rain</title>
    <defs>
        <rect id="path-1" x="0" y="0" width="371" height="325" rx="8"></rect>
        <linearGradient x1="49.9996071%" y1="0.210517477%" x2="49.9996071%" y2="78.0773209%" id="linearGradient-3">
            <stop stop-color="#662D91" offset="0%"></stop>
            <stop stop-color="#290175" offset="55%"></stop>
        </linearGradient>
        <linearGradient x1="50.0007039%" y1="0.216334035%" x2="50.0007039%" y2="78.0778653%" id="linearGradient-4">
            <stop stop-color="#662D91" offset="0%"></stop>
            <stop stop-color="#290175" offset="55%"></stop>
        </linearGradient>
        <linearGradient x1="0.0119153334%" y1="50%" x2="100%" y2="50%" id="linearGradient-5">
            <stop stop-color="#A381BD" offset="0%"></stop>
            <stop stop-color="#5C34A8" offset="55%"></stop>
        </linearGradient>
    </defs>
    <g id="Screens" stroke="none" stroke-width="1" fill="none" fill-rule="evenodd">
        <g id="Customer-Experience" transform="translate(-535.000000, -4339.000000)">
            <g id="rain" transform="translate(535.000000, 4339.000000)">
                <mask id="mask-2" fill="white">
                    <use xlink:href="#path-1"></use>
                </mask>
                <use id="Mask" fill="#120033" xlink:href="#path-1"></use>
                <g id="nxt_illu-01-01" mask="url(#mask-2)">
                    <g transform="translate(170.000000, 29.000000)">
                        <g id="Layer_2" transform="translate(16.000000, 0.000000)">
                            <path d="M251.792471,11.9470312 L240.335529,207.509531 L239.755765,217.369687 L238.932235,231.462656 L234.649882,304.529531 C234.471946,307.560426 233.047469,310.384188 230.712193,312.335276 C228.376917,314.286364 225.337429,315.192177 222.310118,314.839219 L25.8357647,291.945937 C20.5258902,291.32808 16.4176355,287.019113 16.072,281.705156 L8.64047059,167.563594 L0.299764706,39.4570312 C-0.0797695048,33.6139597 4.19102841,28.4940392 10.0272941,27.7954687 L239.419765,0.35109375 C242.675809,-0.0372605839 245.937216,1.03171592 248.325541,3.27009977 C250.713866,5.50848362 251.983499,8.68608443 251.792471,11.9470312 Z" id="Path" fill="url(#linearGradient-3)"></path>
                            <g id="Group" opacity="0.31" transform="translate(27.670588, 25.593750)" fill="#7D66DE">
                                <ellipse id="Oval" cx="21.0823529" cy="13.4826562" rx="1.08376471" ry="1.07953125"></ellipse>
                                <ellipse id="Oval" cx="98.2668235" cy="54.5475" rx="1.08376471" ry="1.07953125"></ellipse>
                                <ellipse id="Oval" cx="84.6291765" cy="34.1709375" rx="1.08376471" ry="1.07953125"></ellipse>
                                <ellipse id="Oval" cx="45.5708235" cy="12.245625" rx="1.08376471" ry="1.07953125"></ellipse>
                                <ellipse id="Oval" cx="61.6889412" cy="3.29109375" rx="1.08376471" ry="1.07953125"></ellipse>
                                <ellipse id="Oval" cx="135.773647" cy="1.13203125" rx="1.08376471" ry="1.07953125"></ellipse>
                                <ellipse id="Oval" cx="57.3505882" cy="26.4501562" rx="1.08376471" ry="1.07953125"></ellipse>
                                <ellipse id="Oval" cx="1.24188235" cy="15.9534375" rx="1.08376471" ry="1.07953125"></ellipse>
                                <ellipse id="Oval" cx="105.085647" cy="22.745625" rx="1.08376471" ry="1.07953125"></ellipse>
                                <ellipse id="Oval" cx="148.172706" cy="55.7845312" rx="1.08376471" ry="1.07953125"></ellipse>
                                <ellipse id="Oval" cx="113.146353" cy="40.34625" rx="1.08376471" ry="1.07953125"></ellipse>
                            </g>
                        </g>
                        <g id="Layer_1" transform="translate(0.000000, 10.000000)">
                            <path d="M259.486957,156.262336 L252.088831,294.512338 C251.910675,297.54821 250.484448,300.376609 248.146301,302.330901 C245.808154,304.285193 242.764929,305.192492 239.733896,304.838955 L43.0179978,281.908082 C37.7015953,281.28921 33.5882899,276.973168 33.2422295,271.650485 L25.8015638,157.321498 C25.8015638,157.321498 46.6888581,146.912716 63.3248146,146.912716 C87.2233358,146.912716 94.3605701,175.674084 127.569818,177.218804 C186.168359,179.95 176.155122,154.333944 193.054932,154.333944 C212.299739,154.343804 227.831146,206.0549 259.486957,156.262336 Z" id="Path" fill="url(#linearGradient-4)"></path>
                            <path d="M36.3227179,278.67403 L149.914902,258.260722 L247.362557,302.176778 C246.122446,305.581735 239.380992,304.806088 236.63032,304.477425 L41.6393638,281.747037 C40.3596748,281.457812 36.9394752,279.600862 36.3227179,278.67403 Z" id="Path" fill="#4D33B7"></path>
                            <path d="M70.1520212,192.695579 C62.8650342,192.691595 56.2935936,197.063459 53.5034442,203.771588 C50.7132948,210.479717 52.2542407,218.202261 57.4073915,223.336457 C62.5605422,228.470653 70.3104596,230.004797 77.0416093,227.223172 C83.7727591,224.441547 88.1587554,217.892278 88.1534239,210.630765 C88.1515977,200.724905 80.0926308,192.695579 70.1520212,192.695579 L70.1520212,192.695579 Z M71.66588,219.603287 C71.1658999,219.689328 70.6594014,219.732213 70.1520212,219.731475 C65.1082113,219.731475 61.0193956,215.656943 61.0193956,210.630765 C61.0193956,205.604587 65.1082113,201.530065 70.1520212,201.530065 C75.195831,201.530065 79.2846586,205.604587 79.2846586,210.630765 C79.2855375,211.171014 79.2358497,211.710167 79.1362293,212.241218 C78.4574056,216.021725 75.4669495,218.968835 71.66588,219.603287 L71.66588,219.603287 Z" id="Shape" fill="#3E269E" fill-rule="nonzero"></path>
                            <path d="M23.934801,75.3165948 L28.7765108,96.4529634 C28.8837873,96.9161083 28.7899015,97.402861 28.5179699,97.7933741 C28.2460382,98.1838872 27.8213258,98.4418783 27.3484043,98.5038254 C17.7467094,99.7232659 8.33866498,95.1276653 3.42460263,86.8176308 C-1.48945971,78.5075964 -0.965403817,68.0797306 4.75722913,60.300516 C10.4798621,52.5213015 20.3015857,48.8853546 29.7329794,51.0546336 C30.1240066,51.1448349 30.4592381,51.3941362 30.6572912,51.7420157 C30.8553443,52.0898953 30.8981078,52.5045409 30.7752003,52.8852909 L24.013957,73.5582435 C23.829761,74.1266723 23.8024202,74.7340141 23.934801,75.3165948 Z" id="Path" fill="#5233D3"></path>
                            <rect id="Rectangle" fill="#5233D3" x="0.184697376" y="122.177478" width="92.1112199" height="9.89606681" rx="4.94803341"></rect>
                            <ellipse id="Oval" fill="#DE962B" cx="160.469038" cy="97.4356681" rx="11.1741912" ry="11.1351293"></ellipse>
                            <rect id="Rectangle" fill="#C97800" x="118.259091" y="133.003664" width="20.0594543" height="5.7450431" rx="2.87252155"></rect>
                            <rect id="Rectangle" fill="#C97800" x="128.189873" y="141.673815" width="40.3464821" height="5.7450431" rx="2.87252155"></rect>
                            <rect id="Rectangle" fill="#F96A00" x="51.4514119" y="122.262931" width="40.8972761" height="9.72516164" rx="4.86258082"></rect>
                            <rect id="Rectangle" fill="#C97800" x="122.29275" y="151.576455" width="31.8174212" height="5.7450431" rx="2.87252155"></rect>
                            <rect id="Rectangle" fill="#C97800" x="134.086997" y="161.482381" width="40.3464821" height="5.7450431" rx="2.87252155"></rect>
                            <path d="M11.7942467,177.787392 C11.7942467,177.787392 13.2751239,158.586853 23.9084157,161.765032 C33.2191423,164.548815 32.5298253,167.332597 38.4962102,167.332597 C45.2904351,167.332597 43.7732781,160.529256 47.1868814,160.529256 C50.6004847,160.529256 53.1004956,167.641541 56.497608,164.857759 C59.8947205,162.073976 63.1566081,176.301832 63.1566081,176.301832 L11.7942467,177.787392 Z" id="Path" fill="#8E66DA"></path>
                            <path d="M11.7810541,177.849838 C11.7810541,177.849838 13.928161,171.108944 19.8747569,172.591218 C26.081908,174.135938 26.3919358,169.807435 29.3932681,169.814009 C32.5990869,169.814009 34.0436842,174.467888 38.1861825,174.448168 C44.0437278,174.418588 43.6908239,167.815733 48.3346437,168.006358 C54.6341434,168.262716 62.5167636,173.698815 63.1763971,176.259106 C55.2574971,176.729095 11.7810541,177.849838 11.7810541,177.849838 Z" id="Path" fill="#5233D3"></path>
                            <polyline id="Path" stroke="#5233D3" points="127.569818 30.6314655 149.914902 17.3337284 173.193368 42.6934267 225.334097 30.0135776"></polyline>
                            <ellipse id="Oval" fill="#7D66DE" cx="173.038354" cy="42.8478987" rx="1.08509708" ry="1.08130388"></ellipse>
                            <ellipse id="Oval" fill="#7D66DE" cx="150.069916" cy="17.4882004" rx="1.08509708" ry="1.08130388"></ellipse>
                            <ellipse id="Oval" fill="#7D66DE" cx="127.414804" cy="31.0981681" rx="1.08509708" ry="1.08130388"></ellipse>
                            <path d="M35.2178318,97.9220905 C34.408211,98.2044856 33.5160707,98.1285876 32.7662029,97.7135205 C32.0163351,97.2984533 31.4802456,96.583797 31.2930126,95.7496228 L26.6458946,75.4612069 C26.5835305,75.1901631 26.5960684,74.9073418 26.6821745,74.6428341 L33.5753444,53.5721983 C33.707536,53.1730905 33.9968944,52.8446994 34.3769456,52.6624662 C34.7569967,52.4802331 35.1950692,52.4598237 35.5905247,52.6059267 C45.0333939,56.1388386 51.2902822,65.1339162 51.296398,75.1851293 C51.296398,85.3882862 44.8601439,94.4900185 35.2178318,97.9220905 Z" id="Path" fill="#DE962B"></path>
                            <path d="M181.16174,217.197468 C180.373478,221.657435 176.791669,224.756735 173.163684,224.099407 C172.563374,223.993898 171.984881,223.789523 171.451936,223.494666 C168.846383,222.061692 167.362208,218.581142 168.018543,214.873815 C168.806805,210.417134 172.388615,207.314547 176.016599,207.955442 C177.955922,208.284106 179.515955,209.631627 180.426249,211.482004 C181.271931,213.261669 181.529439,215.262749 181.16174,217.197468 Z" id="Path" fill="#976E33"></path>
                            <polygon id="Path" fill="#3E269E" points="155.501998 282.384644 169.684118 296.671659 224.331454 303.04445 174.433479 282.0757 170.696655 282.230172 190.884738 295.994612 188.09119 297.539332 162.952558 285.477371"></polygon>
                            <path d="M177.227027,252.085129 C177.227027,252.085129 174.588493,251.690733 171.343096,251.132004 C165.973679,250.208459 158.955179,248.831358 159.535657,248.065571 C160.469038,246.826509 162.019177,238.787392 163.572614,231.671821 C164.776445,226.153556 169.905095,224.730442 172.147849,224.368912 C172.496235,224.311155 172.847423,224.271661 173.199964,224.250593 C173.199964,225.945709 173.752312,232.779177 174.214418,238.765324 C174.750462,245.709282 177.227027,252.085129 177.227027,252.085129 Z" id="Path" fill="#755CDC"></path>
                            <path d="M162.952558,284.859483 C162.663089,285.242041 162.202606,285.45733 161.722342,285.434644 C159.618111,285.52667 155.93076,283.367349 155.19197,282.384644 C154.261887,281.148869 156.432081,281.148869 158.295546,281.148869 C160.15901,281.148869 161.715745,279.600862 161.715745,279.600862 L163.589104,279.600862 C163.589104,279.600862 163.635279,279.85722 163.678155,280.25819 C163.773802,281.355927 163.852958,283.511961 162.952558,284.859483 Z" id="Path" fill="#291A6A"></path>
                            <path d="M147.428084,223.622845 L145.874647,260.104526 C146.041728,260.272499 146.259605,260.381056 146.494703,260.413543 C146.577472,260.415283 146.65739,260.383317 146.715931,260.324981 C146.774471,260.266645 146.80655,260.187005 146.80473,260.104526 L148.358167,223.622845 L147.428084,223.622845 Z" id="Path" fill="#150A43"></path>
                            <path d="M173.196666,276.81708 C173.196666,276.81708 171.639931,278.378233 169.779765,278.378233 C167.919598,278.378233 165.746106,278.378233 166.676189,279.614009 C167.606272,280.849784 173.193368,283.945797 174.433479,282.088847 C175.67359,280.231897 175.056833,276.830226 175.056833,276.830226 L173.196666,276.81708 Z" id="Path" fill="#1F0E65"></path>
                            <path d="M148.226241,223.622845 L161.570626,265.064063 C161.655492,265.145252 161.703465,265.257416 161.703465,265.37465 C161.703465,265.491883 161.655492,265.604048 161.570626,265.685237 C161.260598,265.994181 160.640543,265.685237 160.640543,265.685237 L147.296157,223.616272 L148.226241,223.622845 Z" id="Path" fill="#3E269E"></path>
                            <polygon id="Path" fill="#3E269E" points="145.881243 259.808728 182.194067 298.15722 184.677587 298.466164 146.811327 259.808728"></polygon>
                            <polygon id="Path" fill="#3E269E" points="160.469038 263.210399 214.783259 302.176778 217.573509 302.176778 161.399121 263.210399"></polygon>
                            <path d="M176.26726,252.085129 C176.26726,252.085129 174.433479,255.177856 174.433479,257.34375 C174.433479,259.509644 175.986916,273.734213 175.36686,276.517996 C174.746805,279.301778 172.88334,277.135884 172.88334,277.135884 C172.190106,273.33907 171.15129,269.613066 169.779765,266.004041 C167.606272,260.436476 165.122752,253.320905 165.122752,253.320905 L165.139243,249.784483 L176.26726,252.085129 Z" id="Path" fill="#150A43"></path>
                            <path d="M171.122119,251.099138 C171.122119,251.099138 169.779765,257.672414 167.606272,260.44305 C165.43278,263.213685 164.812725,278.690463 164.192669,280.235183 C164.058589,280.691698 163.674091,281.031428 163.203219,281.109429 C162.785987,281.151162 162.366123,281.061506 162.002686,280.853071 C162.002686,280.853071 160.762575,281.165302 159.519166,269.721228 C158.782725,262.735116 159.107394,255.678286 160.482231,248.788631 L165.238188,249.800916 L171.122119,251.099138 Z" id="Path" fill="#291386"></path>
                            <path d="M169.146517,211.57403 L169.130026,211.57403 L168.470392,212.33653 L131.906908,186.023707 L131.883821,186.007274 L130.749251,185.188901 L129.588296,184.354095 L127.879846,183.121606 C127.879846,183.121606 126.230762,179.657489 130.363366,179.410991 C130.950832,179.744153 131.510073,180.12447 132.035537,180.548168 C132.292794,180.738793 132.576436,180.952425 132.879867,181.185776 C141.695869,187.972683 169.146517,211.57403 169.146517,211.57403 Z" id="Path" fill="url(#linearGradient-5)"></path>
                            <path d="M173.193368,224.240733 C173.193368,224.240733 172.946005,224.700862 172.504051,225.397629 L172.504051,225.417349 C171.023174,227.741002 167.39519,232.6118 163.598999,231.661961 C158.631959,230.426185 156.148439,225.167565 155.528383,222.074838 C155.257933,220.727317 155.637223,218.130873 156.148439,215.662608 C156.808072,212.448276 157.701876,209.394989 157.701876,209.394989 C157.364915,208.822621 156.946044,208.302246 156.458466,207.850269 C155.528383,206.920151 156.458466,206.302263 155.528383,205.066487 C154.5983,203.830711 153.044863,204.757543 155.528383,202.900593 C157.365462,201.526778 158.519821,203.028772 159.374046,204.543912 C159.677478,205.07306 159.941331,205.602209 160.185396,206.006466 C160.983552,207.321121 159.730249,212.507435 159.938033,216.88195 C159.967553,217.591543 160.050237,218.297945 160.185396,218.995259 C160.432758,220.234321 161.474979,221.184159 162.873402,221.913793 C166.501386,223.80361 172.467771,224.21444 173.15379,224.247306 L173.193368,224.240733 Z" id="Path" fill="#9F7942"></path>
                            <path d="M173.127405,224.234159 L172.494156,225.397629 L172.494156,225.417349 C171.013279,227.741002 167.385295,232.6118 163.589104,231.661961 C158.622064,230.426185 156.138544,225.167565 155.518489,222.074838 C155.248039,220.727317 155.627328,218.130873 156.138544,215.662608 L158.338422,216.362662 L159.928139,216.868804 C159.957658,217.578396 160.040343,218.284799 160.175501,218.982112 C160.422864,220.221175 161.465085,221.171013 162.863508,221.900647 C166.45851,223.790463 172.441386,224.19472 173.127405,224.234159 Z" id="Path" fill="#755CDC"></path>
                            <polygon id="Path" fill="#5233D3" points="147.207107 197.336315 147.18402 223.622845 148.226241 223.622845 148.226241 197.333028"></polygon>
                            <path d="M147.428084,223.622845 L134.086997,265.064063 C134.002131,265.145252 133.954158,265.257416 133.954158,265.37465 C133.954158,265.491883 134.002131,265.604048 134.086997,265.685237 C134.397025,265.994181 135.01708,265.685237 135.01708,265.685237 L148.364764,223.616272 L147.428084,223.622845 Z" id="Path" fill="#5233D3"></path>
                            <polygon id="Path" fill="#3E269E" points="134.086997 265.685237 161.709149 295.744828 164.271825 296.040625 135.020378 265.685237"></polygon>
                            <path d="M130.749251,185.172468 L129.588296,184.337662 C129.555903,183.450805 129.829453,182.579666 130.363366,181.869397 C130.800825,181.292235 131.375461,180.832552 132.035537,180.531735 C132.292794,180.72236 132.576436,180.935991 132.879867,181.169343 C132.025642,181.590032 130.554659,182.681196 130.749251,185.172468 Z" id="Path" fill="#5233D3"></path>
                            <path d="M147.121354,197.333028 C147.121354,197.333028 146.501299,194.549246 148.674791,193.622414 C149.294847,193.622414 149.294847,194.549246 149.294847,194.549246 C149.294847,194.549246 148.054736,195.167134 148.364764,197.333028 C148.463709,198.016649 147.121354,197.333028 147.121354,197.333028 Z" id="Path" fill="#755CDC"></path>
                            <rect id="Rectangle" fill="#F96A00" x="168.849681" y="55.6855065" width="74.1757854" height="5.56756466" rx="2.78378233"></rect>
                            <path d="M162.847017,221.900647 C162.521447,222.220423 162.041557,222.327543 161.610204,222.176724 C159.962316,221.613598 158.717994,220.249629 158.312037,218.561422 C158.243644,217.830087 158.243644,217.093998 158.312037,216.362662 C158.476945,213.286369 159.004652,207.817403 159.337767,204.530765 C159.641198,205.059914 159.905051,205.589063 160.149116,205.993319 C160.947272,207.307974 159.693969,212.494289 159.901753,216.868804 C159.931273,217.578396 160.013957,218.284799 160.149116,218.982112 C160.406373,220.221175 161.448594,221.171013 162.847017,221.900647 Z" id="Path" fill="#7C4A00"></path>
                            <rect id="Rectangle" fill="#F96A00" x="180.64063" y="38.9828125" width="42.2099467" height="5.56756466" rx="2.78378233"></rect>
                            <path d="M87.0716201,216.487554 C85.219436,221.515223 81.2149807,225.458691 76.1480896,227.24472 L71.6757745,219.294343 C75.476844,218.659891 78.4673001,215.712781 79.1461238,211.932274 L87.0716201,216.487554 Z" id="Path" fill="#6551B1"></path>
                            <path d="M181.16174,217.197468 C180.373478,221.657435 176.791669,224.756735 173.163684,224.099407 C172.563374,223.993898 171.984881,223.789523 171.451936,223.494666 C171.451936,223.494666 175.07992,221.591703 175.792324,220.516972 C176.986764,218.659792 177.563764,216.474854 177.441408,214.27236 L180.409758,211.482004 C181.261028,213.259864 181.52432,215.261017 181.16174,217.197468 L181.16174,217.197468 Z" id="Path" fill="#7C4A00"></path>
                            <path d="M177.979009,222.774892 C176.940086,221.111853 177.457898,218.42667 177.276499,216.313362 C177.263307,216.16875 177.246816,216.027425 177.227027,215.889386 C176.916999,213.723491 175.36686,212.178772 172.573312,210.959429 C169.779765,209.740086 170.089792,207.554472 170.089792,207.554472 C169.5357,203.679526 175.696677,202.295851 181.003428,207.367134 C181.662781,207.997402 182.26843,208.681185 182.814122,209.411422 C188.401218,216.816218 179.090491,224.549677 177.979009,222.774892 Z" id="Path" fill="#150A43"></path>
                            <path d="M177.979009,222.774892 C176.940086,221.111853 177.457898,218.42667 177.276499,216.313362 C177.276499,216.313362 179.915033,213.207489 180.409758,211.988147 C180.831924,210.949569 181.003428,207.3507 181.003428,207.3507 C181.662781,207.980969 182.26843,208.664752 182.814122,209.394989 C188.401218,216.816218 179.090491,224.549677 177.979009,222.774892 Z" id="Path" fill="#0B0522"></path>
                            <path d="M165.637708,223.007881 C165.307891,223.306965 162.098333,222.337769 161.610204,222.176724 C159.962316,221.613598 158.717994,220.249629 158.312037,218.561422 C158.243644,217.830087 158.243644,217.093998 158.312037,216.362662 L160.009242,216.865149 C160.038762,217.574741 160.142106,218.304438 160.277264,219.001751 C160.673435,220.356767 161.617375,221.672504 165.637708,223.007881 Z" id="Path" fill="#31236B"></path>
                            <path d="M162.952558,284.859483 C162.663089,285.242041 162.202606,285.45733 161.722342,285.434644 L161.722342,285.434644 C162.170892,284.925216 162.599654,281.007543 162.599654,281.007543 L163.661664,280.271336 C163.773802,281.355927 163.852958,283.511961 162.952558,284.859483 Z" id="Path" fill="#1B0E50"></path>
                            <path d="M174.496144,281.901509 C174.206675,282.284067 173.746192,282.499356 173.265928,282.47667 L173.265928,282.47667 C173.714478,281.967241 174.14324,278.049569 174.14324,278.049569 L175.20525,277.313362 C175.317388,278.397953 175.396544,280.553987 174.496144,281.901509 Z" id="Path" fill="#1B0E50"></path>
                            <path d="M171.122119,251.099138 C172.48756,253.18944 169.779765,257.672414 167.606272,260.44305 C165.43278,263.213685 164.865495,278.805496 164.248738,280.350216 C164.014568,280.938524 162.929471,281.168588 162.599654,281.007543 C162.44464,280.93195 162.599654,280.350216 162.599654,279.364224 C162.599654,277.651886 162.269837,273.119612 162.306117,264.133944 C162.339099,255.42764 164.898477,249.955388 165.228294,249.800916 C166.593735,249.163308 170.297577,249.823922 171.122119,251.099138 Z" id="Path" fill="#150A43"></path>
                            <path d="M177.227027,252.085129 C177.227027,252.085129 174.176222,251.687446 171.174889,251.099138 C168.846383,250.648869 166.6564,250.027694 165.238188,249.784483 C165.897822,247.155172 166.290304,244.151185 166.887272,241.567888 C167.876722,237.295259 167.876722,234.994612 168.206539,231.050647 C168.701264,225.134698 172.141253,224.359052 172.141253,224.359052 C172.489639,224.301295 172.840827,224.261801 173.193368,224.240733 C176.882375,223.744911 178.009168,230.551683 177.227027,234.492119 C175.822551,241.567888 177.227027,252.085129 177.227027,252.085129 Z" id="Path" fill="#412E8F"></path>
                        </g>
                    </g>
                </g>
            </g>
        </g>
    </g>
</svg>