<?xml version="1.0" encoding="UTF-8"?>
<svg width="506px" height="513px" viewBox="0 0 506 513" version="1.1" xmlns="http://www.w3.org/2000/svg" xmlns:xlink="http://www.w3.org/1999/xlink">
    <!-- Generator: Sketch 52.6 (67491) - http://www.bohemiancoding.com/sketch -->
    <title>nxt_illu_home_illu</title>
    <desc>Created with Sketch.</desc>
    <defs>
        <linearGradient x1="50%" y1="0%" x2="50%" y2="100%" id="linearGradient-1">
            <stop stop-color="#000000" stop-opacity="0" offset="0%"></stop>
            <stop stop-color="#000000" offset="100%"></stop>
        </linearGradient>
        <linearGradient x1="49.8396949%" y1="22.4245043%" x2="48.8841106%" y2="83.2940644%" id="linearGradient-2">
            <stop stop-color="#654BF9" offset="0%"></stop>
            <stop stop-color="#4400C2" offset="100%"></stop>
        </linearGradient>
        <linearGradient x1="0.0021135188%" y1="50.0138313%" x2="100%" y2="50.0138313%" id="linearGradient-3">
            <stop stop-color="#A381BD" offset="0%"></stop>
            <stop stop-color="#5C34A8" offset="55%"></stop>
        </linearGradient>
    </defs>
    <g id="Page-1" stroke="none" stroke-width="1" fill="none" fill-rule="evenodd">
        <g id="Home-page" transform="translate(-148.000000, -1477.000000)">
            <g id="nxt_illu_home_illu" transform="translate(148.000000, 1477.000000)">
                <path d="M505.999968,252.511907 C506.04365,339.621597 461.067825,420.593766 387.02332,466.711363 C383.63014,468.837412 380.178758,470.870519 376.669174,472.810684 C375.249043,473.612309 373.817273,474.396508 372.373862,475.163279 L370.584148,476.156597 L370.156363,476.37443 L369.414287,476.749103 C367.415046,477.794701 365.407075,478.805446 363.372913,479.781337 C361.626851,480.652669 359.88079,481.47172 358.064885,482.282059 C356.729148,482.891991 355.37595,483.49321 354.022752,484.085715 L352.276691,484.835061 C344.786086,488.024134 337.115054,490.858867 329.263597,493.339257 C328.591363,493.55709 327.910399,493.76621 327.238165,493.966616 C275.734949,509.640648 220.575681,508.59111 169.708473,490.969235 C70.9250288,456.638769 0,362.883485 0,252.511907 C0,113.098846 113.275757,0 252.995619,0 C392.715481,0 505.999968,113.055279 505.999968,252.511907 Z" id="Path" fill="url(#linearGradient-1)"></path>
                <g id="Group" opacity="0.31" transform="translate(87.000000, 50.000000)" fill="#7D66DE">
                    <ellipse id="Oval" cx="255.421971" cy="94.3243636" rx="1.50562319" ry="1.50109091"></ellipse>
                    <ellipse id="Oval" cx="286.829971" cy="81.4516364" rx="1.50562319" ry="1.50109091"></ellipse>
                    <ellipse id="Oval" cx="290.270145" cy="20.9629091" rx="1.50562319" ry="1.50109091"></ellipse>
                    <ellipse id="Oval" cx="252.410725" cy="77.5941818" rx="1.50562319" ry="1.50109091"></ellipse>
                    <ellipse id="Oval" cx="29.525971" cy="19.2523636" rx="1.50562319" ry="1.50109091"></ellipse>
                    <ellipse id="Oval" cx="136.661565" cy="76.3025455" rx="1.50562319" ry="1.50109091"></ellipse>
                    <ellipse id="Oval" cx="117.736232" cy="47.9912727" rx="1.50562319" ry="1.50109091"></ellipse>
                    <ellipse id="Oval" cx="63.5162899" cy="17.5330909" rx="1.50562319" ry="1.50109091"></ellipse>
                    <ellipse id="Oval" cx="85.8905507" cy="5.09672727" rx="1.50562319" ry="1.50109091"></ellipse>
                    <ellipse id="Oval" cx="188.728116" cy="2.09454545" rx="1.50562319" ry="1.50109091"></ellipse>
                    <ellipse id="Oval" cx="79.868058" cy="37.2654545" rx="1.50562319" ry="1.50109091"></ellipse>
                    <ellipse id="Oval" cx="1.98707246" cy="22.6821818" rx="1.50562319" ry="1.50109091"></ellipse>
                    <ellipse id="Oval" cx="146.132986" cy="32.1163636" rx="1.50562319" ry="1.50109091"></ellipse>
                    <ellipse id="Oval" cx="205.937739" cy="78.0218182" rx="1.50562319" ry="1.50109091"></ellipse>
                    <ellipse id="Oval" cx="157.320116" cy="56.5701818" rx="1.50562319" ry="1.50109091"></ellipse>
                    <ellipse id="Oval" cx="299.741565" cy="44.9890909" rx="1.50562319" ry="1.50109091"></ellipse>
                </g>
                <path d="M122.009129,295.000002 C111.896127,294.996456 102.777108,301.086122 98.9053919,310.42864 C95.0336754,319.771159 97.1719809,330.526072 104.322954,337.677046 C111.473928,344.828019 122.228841,346.966325 131.57136,343.094608 C140.913878,339.222892 147.003544,330.103873 146.999998,319.990871 C147.002325,313.362167 144.370113,307.00429 139.682911,302.317089 C134.99571,297.629887 128.637833,294.997675 122.009129,295.000002 Z M124.10412,332.490688 C118.858435,333.369804 113.621859,330.880376 110.991904,326.25724 C108.361949,321.634103 108.898094,315.860757 112.334396,311.800967 C115.770697,307.741178 121.376136,306.258601 126.370233,308.088642 C131.36433,309.918683 134.684671,314.672031 134.68426,319.990871 C134.68398,320.740478 134.616507,321.488552 134.48265,322.226111 C133.538261,327.496211 129.384324,331.604538 124.10412,332.490688 Z" id="Shape" fill="#3E269E" fill-rule="nonzero"></path>
                <path d="M132.542742,143.54408 L139.191955,172.88253 C139.3393,173.525268 139.210629,174.200809 138.837603,174.742937 C138.464576,175.285064 137.881824,175.643447 137.232734,175.729905 C135.568214,175.940885 133.890565,176.028464 132.213316,175.991934 C114.110008,175.420438 99.7898206,160.357631 100.002335,142.110549 C100.214849,123.863468 114.881903,109.143355 132.993536,109 C135.520991,109.000017 138.040048,109.293088 140.500991,109.873428 C141.031349,110.004521 141.483793,110.351754 141.750111,110.832081 C142.01643,111.312407 142.072673,111.88263 141.905388,112.40637 L132.620764,141.098482 C132.378782,141.892089 132.351845,142.736455 132.542742,143.54408 Z" id="Path" fill="#5233D3"></path>
                <rect id="Rectangle" fill="#5233D3" x="54" y="206" width="128" height="14" rx="7"></rect>
                <path d="M381,302 L380.203613,316 L341.795257,316 C338.04234,316 335,312.865993 335,309 C335,305.134007 338.04234,302 341.795257,302 L381,302 Z" id="Path" fill="#5233D3"></path>
                <circle id="Oval" fill="#DE962B" cx="246.5" cy="163.5" r="15.5"></circle>
                <rect id="Rectangle" fill="#C97800" x="183" y="245" width="28" height="8" rx="4"></rect>
                <rect id="Rectangle" fill="#C97800" x="197" y="257" width="56" height="8" rx="4"></rect>
                <rect id="Rectangle" fill="#F96A00" x="125" y="206" width="56" height="14" rx="7"></rect>
                <rect id="Rectangle" fill="#C97800" x="189" y="271" width="43" height="8" rx="4"></rect>
                <rect id="Rectangle" fill="#C97800" x="205" y="284" width="56" height="8" rx="4"></rect>
                <path d="M328,194 C328,194 329.389039,175.511411 344.951585,175.511411 C360.514131,175.511411 355.630376,165 363.982305,165 C373.502089,165 371.184075,176.425826 378.615876,176.425826 C386.047678,176.425826 386.03883,171.627327 391.152617,171.627327 C397.416564,171.627327 400,191.962162 400,191.962162 L328,194 Z" id="Path" fill="#8E66DA"></path>
                <path d="M328,194 C328,194 330.777737,183.465964 339.102101,181.395541 C347.426465,179.325118 345.701438,184.678765 352.672318,182.946193 C359.643199,181.213621 357.183929,171.0261 362.987099,171.000111 C371.196461,170.956797 366.720236,183.552593 379.211205,180.45129 C391.702175,177.349987 399.088832,188.291176 400,191.81696 C388.915592,192.466674 328,194 328,194 Z" id="Path" fill="#5233D3"></path>
                <path d="M41,275 C41,275 43.0799017,248.296391 57.9843884,252.714911 C71.0302397,256.590959 70.0655194,260.458257 78.4293792,260.458257 C87.9526736,260.458257 85.8285187,251 90.6078672,251 C95.3872157,251 98.87437,260.886985 103.662569,257.019686 C108.450768,253.152388 113,272.926358 113,272.926358 L41,275 Z" id="Path" fill="#8E66DA"></path>
                <path d="M41,275 C41,275 44.0077405,265.416912 52.340951,267.528592 C61.0368596,269.729749 61.4703281,263.564719 65.6723185,263.582614 C70.1662366,263.582614 72.1920383,270.195034 77.9952083,270.168191 C86.2045706,270.123452 85.709178,260.737216 92.2112053,261.00565 C101.057501,261.372509 112.088832,269.103404 113,272.745156 C101.915592,273.41624 41,275 41,275 Z" id="Path" fill="#5233D3"></path>
                <path d="M372.992447,283.999998 L326.038916,283.999998 C323.255999,283.999998 321,281.751162 321,278.977082 L321,248.022918 C321,245.248838 323.255999,243.000002 326.038916,243.000002 L374.95692,243.000002 C376.356791,242.998852 377.69405,243.578247 378.648196,244.599322 C379.602341,245.620398 380.087367,246.991115 379.987026,248.382953 L378.022554,279.337116 C377.83301,281.96631 375.636816,284.00217 372.992447,283.999998 Z" id="Path" fill="url(#linearGradient-2)"></path>
                <polygon id="Path" fill="#7D66DE" points="337 275 348.560519 263.854651 362.264133 269.427326 377.675255 257 384 257.156977 382.954588 275"></polygon>
                <polyline id="Path" stroke="#5233D3" points="202 72.3511166 232.857392 54 265.005232 89 337 71.5"></polyline>
                <circle id="Oval" fill="#7D66DE" cx="337.5" cy="70.5" r="1.5"></circle>
                <circle id="Oval" fill="#7D66DE" cx="264.5" cy="88.5" r="1.5"></circle>
                <circle id="Oval" fill="#7D66DE" cx="232.5" cy="53.5" r="1.5"></circle>
                <circle id="Oval" fill="#7D66DE" cx="201.5" cy="72.5" r="1.5"></circle>
                <polyline id="Path" stroke="#5233D3" points="322 40.1117083 339.496382 47.0602687 368.089725 31 400.529667 54 424 44.8882917"></polyline>
                <circle id="Oval" fill="#7D66DE" cx="321.5" cy="39.5" r="1.5"></circle>
                <circle id="Oval" fill="#7D66DE" cx="338.5" cy="46.5" r="1.5"></circle>
                <circle id="Oval" fill="#7D66DE" cx="367.5" cy="30.5" r="1.5"></circle>
                <circle id="Oval" fill="#7D66DE" cx="399.5" cy="53.5" r="1.5"></circle>
                <circle id="Oval" fill="#7D66DE" cx="424.5" cy="44.5" r="1.5"></circle>
                <path d="M170,143.337052 C170.001557,157.441387 160.87858,170.023518 147.211225,174.766634 C146.063403,175.157886 144.798243,175.053684 143.734539,174.480284 C142.670835,173.906884 141.910025,172.918968 141.643818,171.76547 L135.056018,143.719809 C134.966125,143.342346 134.984703,142.948133 135.109723,142.580237 L144.875062,113.464596 C145.063485,112.914008 145.473885,112.461384 146.012207,112.210455 C146.550529,111.959526 147.170621,111.931805 147.730372,112.133645 C161.116475,117.011364 169.988947,129.443155 170,143.337052 Z" id="Path" fill="#C97800"></path>
                <path d="M146,328.543961 C143.353012,335.766273 137.633041,341.431732 130.395244,344 L124,332.575185 C129.434635,331.670167 133.712047,327.434649 134.679787,322 L146,328.543961 Z" id="Path" fill="#6551B1"></path>
                <path d="M386.972388,489.188308 C386.920208,487.295128 386.815849,485.157667 386.676703,482.924239 L378,476.5 C378.582674,478.140174 379.530382,482.947069 380,484.5 C380.217416,485.241568 381.308674,489.293329 381.5,490 C383.239326,496.159376 381.876162,496.481847 381.971825,497.031479 C380.319765,498.45739 378.250237,499.305598 376.075508,499.448119 C372.535979,499.448119 368.405078,499.448119 370.170495,501.821136 C371.161911,503.13851 374.884069,505.563873 378.406205,506.828901 C381.215218,507.849648 383.885084,508.128826 384.92868,506.558447 C385.263038,506.045794 385.529094,505.491456 385.720073,504.909549 C385.751375,504.844828 385.777546,504.777734 385.798343,504.708889 C386.503789,502.35538 386.708231,499.879397 386.39841,497.441523 L386.259264,497.537491 L386.259264,497.328107 C386.470261,496.870932 386.627847,496.390813 386.728882,495.897317 C386.967007,494.318557 387.048574,492.720008 386.972388,491.125109 C386.972388,490.514406 386.972388,489.868805 386.972388,489.188308 Z M369.005146,474.924029 L361.934784,471.696028 L359.412761,470.55314 L359.238828,470.474621 L356.925524,469.427702 L355.934108,468.974037 L338.358214,461 L332.557561,462.046919 L330.818234,462.36972 L313.094498,465.580273 L310.86816,465.981592 L169,491.578774 C219.663148,509.206794 274.596215,510.24847 325.887244,494.55377 C326.556885,494.35311 327.235222,494.143726 327.904863,493.925618 C335.726034,491.453725 343.367475,488.61541 350.829185,485.410673 L352.568511,484.660381 C353.916489,484.067126 355.264467,483.465148 356.595052,482.854445 C356.873344,485.401949 357.14294,487.644101 357.412535,489.624524 C357.577771,490.811033 357.743007,491.901574 357.899547,492.904872 C358.307808,496.125006 359.036153,499.296094 360.073705,502.370769 C358.434907,503.786707 356.379507,504.626192 354.220871,504.761235 C350.681342,504.761235 346.550442,504.761235 348.324555,507.125528 C349.174265,508.068685 350.16613,508.872358 351.264017,509.50727 C354.055635,511.252136 358.073479,513.084245 360.743346,512.997002 C361.222179,512.983893 361.694251,512.880298 362.134807,512.69165 C362.517176,512.522646 362.84316,512.2471 363.074043,511.897736 C364.500291,509.742827 364.639437,506.514825 364.508987,504.298846 C364.587616,504.248855 364.660526,504.190341 364.726403,504.124359 C365.081049,503.926496 365.364165,503.6211 365.53519,503.251926 C365.714696,502.683511 365.839911,502.099259 365.909145,501.50706 C366.022201,500.765492 366.135257,499.849438 366.248314,498.78507 C366.813595,493.611542 367.483235,485.096597 368.526831,477.84668 L368.657281,476.974247 L369.083416,476.756138 L370.866225,475.805187 L369.005146,474.924029 Z" id="Shape" fill="#4D33B7" fill-rule="nonzero"></path>
                <path d="M398.688595,381.695292 C397.169509,390.173729 390.245305,396.054074 383.241613,394.841632 C382.07998,394.6457 380.96032,394.259237 379.929653,393.698472 C374.904306,390.970476 372.03394,384.354005 373.296901,377.313179 C374.824819,368.834743 381.740191,362.945737 388.752715,364.158179 C392.529235,364.910848 395.701253,367.408196 397.26666,370.861254 C398.89529,374.234807 399.393045,378.027312 398.688595,381.695292 Z" id="Path" fill="#976E33"></path>
                <path d="M380,507.238805 L384.25266,507.063681 L385.848404,507 L386,507 C385.026596,508.416912 382.577128,508.170146 380,507.238805 Z" id="Path" fill="#3E269E"></path>
                <path d="M361.973684,512.236967 L363,512.682288 C362.566739,512.874872 362.102483,512.980629 361.631579,512.994012 C359.005921,513.118701 355.054605,511.275075 352.309211,509.431449 L350,507 L361.973684,512.236967 Z" id="Path" fill="#3E269E"></path>
                <path d="M391,449 C391,449 386.080718,448.230845 380.046513,447.152259 C370.046243,445.384086 356.98206,442.731827 358.062941,441.202358 C359.765114,438.797642 362.684342,423.193517 365.578037,409.375246 C367.816395,398.660118 377.365589,395.901768 381.527404,395.229862 C382.175159,395.114592 382.828723,395.037847 383.484904,395 C394.319239,398.456778 389.008457,410.073674 388.327587,422.238703 C387.587142,435.411591 391,449 391,449 Z" id="Path" fill="#755CDC"></path>
                <path d="M364.488098,511.816766 C364.252258,512.19082 363.919276,512.48584 363.528698,512.666788 C363.078684,512.868768 362.596477,512.979684 362.107364,512.99372 C359.380181,513.124492 355.27608,511.190925 352.42453,509.257358 C351.303074,508.577575 350.289915,507.717104 349.421963,506.707292 C347.645296,504.175907 351.829347,504.175907 355.444864,504.175907 C357.649842,504.03132 359.749367,503.132506 361.423348,501.6165 C361.849748,501.252204 362.089598,501 362.089598,501 L365.705115,501 C365.705115,501 365.793948,501.523091 365.873898,502.373113 C365.873898,502.728067 365.944965,503.129726 365.962731,503.578089 C365.972281,503.598728 365.972281,503.622837 365.962731,503.643476 C366.087098,506.053429 365.971615,509.509563 364.488098,511.816766 Z" id="Path" fill="#291A6A"></path>
                <path d="M334.12963,394.017331 L331,463.410745 C331.336774,463.729586 331.775779,463.936535 332.25,464 C332.588995,463.990563 332.857064,463.728105 332.851852,463.410745 L336,394 L334.12963,394.017331 Z" id="Path" fill="#150A43"></path>
                <path d="M386.387634,504.825215 C386.366387,504.899144 386.33965,504.971192 386.30767,505.040693 C386.112556,505.665572 385.840739,506.260846 385.499141,506.811357 C384.432948,508.497704 381.705273,508.197909 378.835438,507.101783 C375.237039,505.743337 371.434286,503.138868 370.421404,501.724211 C368.644416,499.175953 372.838106,499.175953 376.454276,499.175953 C378.676093,499.022908 380.790432,498.112062 382.478262,496.580853 C382.878085,496.234215 383.100208,496 383.100208,496 L386.707492,496 C386.707492,496 386.769687,496.337269 386.831881,496.936859 L386.831881,497.161706 C387.158838,499.722326 387.007926,502.325646 386.387634,504.825215 Z" id="Path" fill="#1F0E65"></path>
                <path d="M335.787745,394 L361.741177,473.546981 C361.906476,473.702033 362,473.916822 362,474.141398 C362,474.365973 361.906476,474.580762 361.741177,474.735815 C361.145262,475.330232 359.962326,474.735815 359.962326,474.735815 L334,394.034966 L335.787745,394 Z" id="Path" fill="#3E269E"></path>
                <polygon id="Path" fill="#3E269E" points="332.796274 463 353 484.230894 351.256044 485 332.072533 464.171545 331 463 331 463 332.743956 463"></polygon>
                <path d="M367,499.23486 C366.884615,500.3161 366.769231,501.246677 366.653846,502 L366.538462,501.875923 L362.988166,498.091581 L358.497041,493.332349 C358.337278,492.313146 358.168639,491.205318 358,490 L362.890533,495.007386 L366.928994,499.137371 L367,499.23486 Z" id="Path" fill="#3E269E"></path>
                <polygon id="Path" fill="#3E269E" points="368.666667 475.528076 369 475.805257 368.601626 476.044205 368.479675 477 368.479675 477 367.910569 476.512545 362.268293 471.733572 360.162602 469.955795 359 469 360.626016 469 362.252033 470.328554 362.252033 470.328554 368.626016 475.547192"></polygon>
                <path d="M388.592654,490.474993 C388.665601,492.085713 388.57131,493.699421 388.311184,495.292097 C388.205699,495.786619 388.041172,496.267737 387.820883,496.725862 C387.757326,496.857 387.693768,496.970652 387.63021,497.075561 C387.355089,497.577728 386.843871,497.92001 386.259183,497.993521 C384.869996,498.115916 383.399092,496.463588 383.399092,496.463588 C383.401043,496.446154 383.401043,496.428568 383.399092,496.411133 C383.299216,495.860357 382.427569,491.086967 380.620718,484.91478 C380.420966,484.206639 380.193974,483.481014 379.966983,482.737904 C379.476682,481.181743 378.931903,479.5469 378.323566,477.903315 C377.978539,476.967871 377.624433,476.032426 377.243087,475.096981 C376.925299,474.318901 376.607511,473.523336 376.289723,472.719028 C375.182006,469.938921 374.065208,467.03642 373.030128,464.300025 C370.242674,456.973832 368,450.775418 368,450.775418 L368,444.332214 L368,444 L368.181593,444 L368.553859,444.078682 L371.886092,444.74311 L371.94057,444.74311 L379.77631,446.308013 L383.408172,447.042381 L383.498968,447.042381 L385.087908,447.35711 L390,448.336267 C390,448.336267 386.368139,454.263665 386.368139,458.425083 C386.368139,459.605317 386.613289,462.638955 386.940157,466.511871 C387.330582,471.127898 387.848122,476.932901 388.16591,482.178385 C388.311184,484.416459 388.42014,486.549622 388.474618,488.455482 C388.553309,489.18985 388.592654,489.86302 388.592654,490.474993 Z" id="Path" fill="#150A43"></path>
                <path d="M379,447.359085 C378.920874,447.728791 376.362472,459.610953 372.335846,464.855612 L372.239137,464.975981 C371.601335,465.895309 371.117572,466.908246 370.80608,467.976614 C370.127145,470.145548 369.601332,472.357522 369.232355,474.596921 C369.144438,475.095594 369.065312,475.611462 368.977394,476.12733 L368.898268,476.6346 L368.766392,477.442794 C367.676214,484.596165 367.00804,492.979021 366.392617,498.017333 C366.269532,499.066265 366.155239,499.969034 366.040946,500.682652 C365.973021,501.240528 365.849345,501.790551 365.671693,502.324832 C365.517664,502.734793 365.274724,503.107295 364.95956,503.416753 C364.892963,503.481777 364.819255,503.539443 364.739766,503.588709 C364.464083,503.790804 364.140357,503.920988 363.799048,503.967012 C363.40076,504.024338 362.994946,504.006829 362.603368,503.915425 C362.215871,503.821971 361.843193,503.677345 361.495607,503.485535 C361.495607,503.485535 361.003268,503.605904 360.247177,501.765975 C359.198276,498.735891 358.461964,495.610793 358.049237,492.43736 C357.890985,491.448613 357.723942,490.373887 357.556898,489.204586 C357.284354,487.252885 357.011809,485.04325 356.730473,482.532692 C356.228174,477.963854 355.984564,473.371351 356.000757,468.776209 C356.000757,467.899234 356.000757,467.039454 356.000757,466.196869 C356.044716,464.184983 356.132633,462.267674 356.246926,460.462135 C356.58414,454.591941 357.371752,448.754809 358.603118,443 L358.682244,443 L367.517962,444.882919 L367.693797,444.882919 L368.054259,444.960299 L373.716153,446.172589 L378.938458,447.290303 L379,447.359085 Z" id="Path" fill="#291386"></path>
                <path d="M376,370.5361 L374.740543,372 L305.253282,321.608714 L305.209852,321.608714 L303.055747,320.040249 L300.849527,318.445643 L297.609683,316.092946 C297.609683,316.092946 294.500128,309.470539 302.326131,309 C303.439037,309.637046 304.499221,310.362609 305.496487,311.16971 C305.991584,311.535685 306.53011,311.945228 307.10338,312.389627 C323.84981,325.39917 376,370.5361 376,370.5361 Z" id="Path" fill="url(#linearGradient-3)"></path>
                <path d="M383,395.678153 C383,395.678153 382.545036,396.545355 381.736212,397.880846 C379.00643,402.303578 372.325205,411.57397 365.30697,409.770189 C356.157145,407.411399 351.582233,397.403885 350.436399,391.515582 C349.939309,388.957335 350.638605,384.040298 351.582233,379.314046 C352.803895,373.20027 354.438394,367.381343 354.438394,367.381343 C353.815075,366.293607 353.043318,365.303577 352.146725,364.441528 C350.461675,362.707123 352.146725,361.501712 350.461675,359.142922 C348.776624,356.784132 345.886762,358.561896 350.461675,355.023711 C353.831776,352.422104 355.97179,355.266528 357.547312,358.128295 C358.103379,359.13425 358.592043,360.140204 359.038582,360.912014 C360.513001,363.435573 357.612438,372.674858 358,381 C358.057367,382.350796 358.338071,384.171746 358.583618,385.5 C358.898196,387.101299 360.094179,388.509472 361.633838,389.682862 C362.36217,390.237931 363.167408,390.740462 363.99263,391.186045 C370.64858,394.784934 381.685661,395.522056 382.941023,395.626121 L383,395.678153 Z" id="Path" fill="#9F7942"></path>
                <path d="M383,395.514059 L381.840475,397.756817 C379.078077,402.224811 372.317023,411.590078 365.214932,409.767837 C355.955783,407.384907 351.326209,397.274974 350.166684,391.326409 C349.663654,388.74198 350.371306,383.774622 351.326209,379 L355.393072,380.392963 L358.351566,381.365409 C358.409619,382.730029 358.563485,384.088561 358.811966,385.430408 C359.280892,387.813338 361.224801,389.635579 363.825207,391.037303 C370.569209,394.664263 381.721112,395.443972 383,395.514059 Z" id="Path" fill="#755CDC"></path>
                <polygon id="Path" fill="#5233D3" points="333.065789 344.008666 333 394 336 394 336 344"></polygon>
                <path d="M334.221149,394 L308.258823,473.546981 C308.093524,473.702033 308,473.916822 308,474.141398 C308,474.365973 308.093524,474.580762 308.258823,474.735815 C308.863633,475.330232 310.037674,474.735815 310.037674,474.735815 L336,394.034966 L334.221149,394 Z" id="Path" fill="#5233D3"></path>
                <path d="M310.701367,475 L328,493.384338 C327.354654,493.59811 326.700926,493.80333 326.05558,494 L309,475 L310.701367,475 Z" id="Path" fill="#3E269E"></path>
                <path d="M302.119762,321 L300.004783,319.38371 C299.945132,317.66306 300.4449,315.972951 301.420321,314.596663 C302.217923,313.476921 303.265089,312.58469 304.467889,312 C304.934184,312.370952 305.450438,312.786065 306,313.245339 C304.451236,314.0579 301.770042,316.168793 302.119762,321 Z" id="Path" fill="#5233D3"></path>
                <path d="M333.145915,345.401795 C333.145915,345.401795 332.04243,339.845902 335.904629,338 C337,338 337,339.818623 337,339.818623 C337,339.818623 334.801143,341.055286 335.377228,345.374516 C335.523277,346.765762 333.145915,345.401795 333.145915,345.401795 Z" id="Path" fill="#755CDC"></path>
                <path d="M362,389.377669 C361.504863,389.95599 360.773001,390.150774 360.114904,389.879383 C357.597061,388.863965 355.696887,386.398862 355.080999,383.34888 C354.973,382.030488 354.973,380.70291 355.080999,379.384519 C355.332345,373.832769 357.490326,364.962991 358,359 C358.460801,359.954079 359.5,360.705203 359.5,362.5 C359.5,368.5 357.678835,372.604178 358,380.5 C358.047539,381.781136 357.677236,382.829356 357.880716,384.089113 C358.27868,386.350937 359.842612,388.061699 362,389.377669 Z" id="Path" fill="#7C4A00"></path>
                <path d="M398.689743,381.771766 C397.176261,390.201469 390.277599,396.048015 383.299743,394.842542 C382.142395,394.647737 381.026865,394.263495 380,393.705953 C380,393.705953 386.977856,390.106754 388.359348,388.07467 C390.657185,384.56655 391.765691,380.438577 391.527102,376.278251 L397.273054,371 C398.895677,374.354163 399.391595,378.124869 398.689743,381.771766 Z" id="Path" fill="#7C4A00"></path>
                <path d="M392.260152,392.502635 C390.261961,389.348029 391.256655,384.257446 390.904551,380.247207 C390.904551,379.970638 390.851736,379.702713 390.816525,379.44343 C390.217948,375.329478 387.233865,372.399584 381.855473,370.057397 C376.477081,367.71521 377.066855,363.601258 377.066855,363.601258 C376.00174,356.246272 387.867652,353.601588 398.078675,363.246905 C399.360148,364.439011 400.537927,365.734169 401.599717,367.118859 C412.338895,381.215195 394.399185,395.907881 392.260152,392.502635 Z" id="Path" fill="#150A43"></path>
                <path d="M392.346422,392.515224 C390.361761,389.440466 391.34972,384.478733 391,380.569999 C391,380.569999 396.04471,374.824834 396.997696,372.575627 C397.802052,370.646532 398.125543,364 398.125543,364 C399.398339,365.161932 400.568142,366.424308 401.622742,367.77395 C412.289199,381.513486 394.47097,395.834278 392.346422,392.515224 Z" id="Path" fill="#0B0522"></path>
                <path d="M368,392.866447 C367.338195,393.464465 362.508811,391.878811 361.551877,391.56168 C358.326676,390.443044 355.892669,387.727359 355.103754,384.367343 C354.965415,382.914936 354.965415,381.452408 355.103754,380 L358.207081,381.005757 C358.267975,382.417123 358.429375,383.822192 358.69002,385.210005 C359.199788,387.674564 360.907959,389.59547 368,392.866447 Z" id="Path" fill="#31236B"></path>
                <path d="M364.452388,511.887908 C364.20945,512.241348 363.866446,512.520109 363.464112,512.691086 C363.000554,512.881935 362.503834,512.986738 362,513 C362.170255,512.774592 362.294475,512.519988 362.366028,512.249779 C363.008766,509.712306 363.467412,507.134719 363.738633,504.535746 C363.740649,504.500468 363.740649,504.46511 363.738633,504.429832 L365.861595,503 C365.861595,503.335393 365.934801,503.714916 365.953102,504.13857 C365.962939,504.158072 365.962939,504.180852 365.953102,504.200353 C366.099514,506.442189 365.980555,509.707855 364.452388,511.887908 Z" id="Path" fill="#1B0E50"></path>
                <path d="M386.238536,503.344582 C386.216721,503.414409 386.189268,503.482461 386.156433,503.548106 C385.973965,504.017335 385.738375,504.465472 385.45399,504.884289 C385.368349,505.010675 385.267266,505.126552 385.152942,505.229396 C384.561687,505.741197 383.792257,506.016332 383,505.99925 C383.158901,505.792152 383.276475,505.558057 383.34666,505.309036 C384.004779,502.710102 384.474226,500.069607 384.751546,497.406974 L385.107329,497.168054 L386.484848,496.23892 L386.703791,496.097338 L386.849753,496 C387.176784,498.462739 386.968578,500.964612 386.238536,503.344582 Z" id="Path" fill="#1B0E50"></path>
                <path d="M373.475156,464.631937 L373.376503,464.753498 C372.725883,465.681924 372.232397,466.704887 371.914645,467.78383 C371.239091,469.982204 370.714782,472.221512 370.345165,474.487029 C370.255481,474.990637 370.165796,475.511611 370.076112,476.032585 C370.076112,476.188877 370.031269,476.34517 370.004364,476.501462 L369.869837,477.369752 C368.793622,484.602608 368.076146,493.077118 367.520102,498.208713 C367.403512,499.268026 367.286922,500.179731 367.170332,500.917777 C367.098934,501.507164 366.969805,502.088642 366.784688,502.654357 C366.608318,503.021778 366.316352,503.325724 365.950622,503.522647 L365.726411,503.635525 C365.064042,503.986409 364.291267,504.088433 363.556044,503.922061 C363.278022,503.783134 363.511202,502.845381 363.556044,501.239045 C363.556044,501.091435 363.556044,500.943826 363.556044,500.787534 C363.556044,499.919244 363.511202,498.703638 363.439454,497.053887 C363.439454,496.185597 363.367707,495.161015 363.331833,494.023555 C363.197306,490.550394 363.053811,485.939774 363,479.870427 C363,477.62445 363,475.170084 363,472.507328 L363,471.760598 C363,471.578257 363,471.395916 363,471.213576 C363.152464,456.322402 367.277953,446.519407 368.479726,444.739413 C368.495257,444.704537 368.516451,444.672292 368.542506,444.643901 C368.582655,444.565231 368.6448,444.499047 368.721875,444.452877 L368.775685,444.452877 C371.466222,443.298051 378.380902,444.452877 380.174593,446.771211 L380.282214,446.918821 C382.927909,450.921638 377.717236,459.326685 373.475156,464.631937 Z" id="Path" fill="#150A43"></path>
                <path d="M390.878901,449 C390.878901,449 385.054547,448.230593 379.334822,447.107435 C374.888084,446.223059 370.711638,445.029152 368,444.551589 C369.264269,439.448739 370.005392,433.620701 371.147593,428.63282 C373.030917,420.337373 373.030917,415.871274 373.667411,408.212578 C374.609073,396.715689 381.165831,395.229938 381.165831,395.229938 C381.829434,395.11463 382.498988,395.037859 383.171223,395 C394.279348,398.466754 390.015711,410.034392 390.643486,422.247625 C391.271261,434.460858 390.878901,449 390.878901,449 Z" id="Path" fill="#412E8F"></path>
                <path d="M383,395 C393.971505,398.465052 388.907733,410.133082 390.380361,422.234245 C391.62908,432.443771 390.604269,449 390.604269,449 L383,395 Z" id="Path" fill="#412E8F"></path>
            </g>
        </g>
    </g>
</svg>