<?xml version="1.0" encoding="UTF-8"?>
<svg width="371px" height="325px" viewBox="0 0 371 325" version="1.1" xmlns="http://www.w3.org/2000/svg" xmlns:xlink="http://www.w3.org/1999/xlink">
    <title>platforms/secure_messaging</title>
    <defs>
        <rect id="path-1" x="150" y="102" width="199" height="177"></rect>
        <mask id="mask-2" maskContentUnits="userSpaceOnUse" maskUnits="objectBoundingBox" x="0" y="0" width="199" height="177" fill="white">
            <use xlink:href="#path-1"></use>
        </mask>
        <path d="M13.7216118,68.1109881 L167,55 L167,55 L167,206.14802 L13.911736,195.011976 C6.07042209,194.441578 3.63728781e-12,187.913538 3.63797881e-12,180.051506 L3.63797881e-12,83.056413 C3.64403657e-12,75.2676862 5.96122307,68.7747892 13.7216118,68.1109881 Z" id="path-3"></path>
    </defs>
    <g id="Page-1" stroke="none" stroke-width="1" fill="none" fill-rule="evenodd">
        <g id="Gov-tech" transform="translate(-938.000000, -1321.000000)">
            <g id="platforms/secure_messaging" transform="translate(938.000000, 1321.000000)">
                <rect id="Rectangle-Copy-14" stroke-opacity="0.08" stroke="#000000" fill="#241A5A" x="0.5" y="0.5" width="370" height="324"></rect>
                <use id="Rectangle" stroke="#979797" mask="url(#mask-2)" stroke-width="2" opacity="0.400000006" stroke-dasharray="5" xlink:href="#path-1"></use>
                <g id="Group-20" transform="translate(163.000000, 87.000000)">
                    <mask id="mask-4" fill="white">
                        <use xlink:href="#path-3"></use>
                    </mask>
                    <g id="Mask"></g>
                    <circle id="Oval-Copy-4" fill="#4A4CB4" cx="162.5" cy="76.5" r="9.5"></circle>
                    <circle id="Oval-Copy-5" fill="#4A4CB4" cx="162.5" cy="143.5" r="9.5"></circle>
                    <path d="M39.5,100 L104,100 L104,100 L104,113 C104,117.418278 100.418278,121 96,121 L39.5,121 C33.7010101,121 29,116.29899 29,110.5 C29,104.70101 33.7010101,100 39.5,100 Z" id="Rectangle-Copy-5" fill="#8473D9" transform="translate(66.500000, 110.500000) scale(-1, 1) translate(-66.500000, -110.500000) "></path>
                    <path d="M98,67 L147,67 L147,67 L147,79 C147,83.418278 143.418278,87 139,87 L98,87 C92.4771525,87 88,82.5228475 88,77 C88,71.4771525 92.4771525,67 98,67 Z" id="Rectangle-Copy-6" fill="#6756BE"></path>
                    <path d="M98,134 L147,134 L147,134 L147,146 C147,150.418278 143.418278,154 139,154 L98,154 C92.4771525,154 88,149.522847 88,144 C88,138.477153 92.4771525,134 98,134 Z" id="Rectangle-Copy-8" fill="#6756BE"></path>
                    <circle id="Oval-Copy-3" fill="#4A4CB4" cx="9.5" cy="109.5" r="9.5"></circle>
                    <circle id="Oval-Copy-6" fill="#4A4CB4" cx="162.5" cy="76.5" r="9.5"></circle>
                    <circle id="Oval-Copy-7" fill="#4A4CB4" cx="162.5" cy="143.5" r="9.5"></circle>
                    <path d="M17.7354089,104.760976 C18.5397956,106.155817 19,107.774165 19,109.5 C19,114.746705 14.7467051,119 9.5,119 C5.50833837,119 2.09167,116.538161 0.685495646,113.049984 L0.764652747,112.713132 C2.1443684,114.85832 5.05615081,115.170941 9.5,113.650993 C13.8204089,112.173267 16.5363059,109.325876 17.647691,105.108822 Z" id="Combined-Shape" fill="#3B3C9D"></path>
                    <path d="M170.735409,71.7609764 C171.539796,73.1558165 172,74.774165 172,76.5 C172,81.7467051 167.746705,86 162.5,86 C158.508338,86 155.09167,83.5381612 153.685496,80.0499842 L153.764653,79.7131319 C155.144368,81.8583201 158.056151,82.1709407 162.5,80.6509935 C166.820409,79.1732671 169.536306,76.3258764 170.647691,72.1088215 Z" id="Combined-Shape-Copy" fill="#3B3C9D"></path>
                    <path d="M170.735409,138.760976 C171.539796,140.155817 172,141.774165 172,143.5 C172,148.746705 167.746705,153 162.5,153 C158.508338,153 155.09167,150.538161 153.685496,147.049984 L153.764653,146.713132 C155.144368,148.85832 158.056151,149.170941 162.5,147.650993 C166.820409,146.173267 169.536306,143.325876 170.647691,139.108822 Z" id="Combined-Shape-Copy-2" fill="#3B3C9D"></path>
                    <g id="Group-13" transform="translate(67.000000, 0.000000)">
                        <polygon id="Rectangle" fill="#6756BE" points="0.220632799 9.27361627 6.2206328 12.6486604 6.2206328 30.2736163 0.574098733 25.1851111"></polygon>
                        <polygon id="Rectangle" fill="#332A76" points="6.2206328 12.6486604 33.2622517 5.01879345 32 21.9210858 6.2206328 30.2736163"></polygon>
                        <path d="M19.5198333,13.3584589 C20.4830865,13.0157612 21.2206328,13.7572764 21.2206328,14.7556499 C21.2206328,15.3528435 21.0258803,16.1365311 20.6823678,16.6699259 L20.6819423,21.2736163 C20.6123139,21.7741733 20.4031429,22.0777525 20.0544294,22.1843538 C19.7057158,22.2909552 19.4277836,22.1362829 19.2206328,21.7203369 L19.2193769,17.1467941 C18.6343192,16.8814977 18.2206328,16.2289034 18.2206328,15.4659012 C18.2206328,14.4675277 18.55658,13.7011565 19.5198333,13.3584589 Z" id="Combined-Shape" fill="#000000" opacity="0.400000006"></path>
                        <polygon id="Path-43" fill="#6756BE" points="-1.77990955e-12 9.24659113 6.2206328 12.8228083 33.2622517 5.01879345 25.8957366 2.15208175"></polygon>
                        <path d="M9.7206328,9.54500755 C8.60538709,9.49549347 8.3169427,9.66035299 8.85529963,10.0395861 C9.39365655,10.4188192 10.0842036,10.8973955 10.9269406,11.4753149 L13.5166554,10.7076081 L14.8342807,10.3561215 L10.7963474,9.54500755 L9.7206328,9.54500755 Z" id="Path-45" fill="#3E376F"></path>
                        <path d="M24.3488721,5.28219351 C23.2336264,5.23267942 22.945182,5.39753894 23.4835389,5.77677206 C24.0218959,6.15600519 24.8558208,6.61362236 25.9853138,7.14962358 L28.0037112,6.55646415 L29.2248707,6.21161993 L25.4245867,5.28219351 L24.3488721,5.28219351 Z" id="Path-45-Copy" fill="#3E376F"></path>
                        <path d="M25.8962992,4.54233894 L25.9540213,4.70434461 C26.1221234,4.8659113 26.2206328,5.06209442 26.2206328,5.27361627 C26.2206328,5.82590102 25.5490599,6.27361627 24.7206328,6.27361627 C24.0509125,6.27361627 23.4837042,5.98101231 23.2909567,5.57710369 L23.2206328,5.59684027 C22.2202916,2.71212041 20.0237893,1.71827017 16.6311258,2.61528956 C13.2384624,3.51230896 11.4349647,5.65360352 11.2206328,9.03917327 L11.1801008,9.04173821 C11.2066041,9.11615584 11.2206328,9.19379386 11.2206328,9.27361627 C11.2206328,9.82590102 10.5490599,10.2736163 9.7206328,10.2736163 C8.89220567,10.2736163 8.2206328,9.82590102 8.2206328,9.27361627 C8.2206328,9.23596049 8.22375478,9.19879083 8.2298356,9.16221605 L8.2206328,9.27361627 C8.58207105,4.33664098 11.2944323,1.35120408 16.3577167,0.317305559 C21.3132716,-0.694595119 24.4927991,0.713749341 25.8962992,4.54233894 Z" id="Combined-Shape" fill="#7D6CD2"></path>
                    </g>
                </g>
            </g>
        </g>
    </g>
</svg>