<?xml version="1.0" encoding="UTF-8"?>
<svg width="300px" height="232px" viewBox="0 0 300 232" version="1.1" xmlns="http://www.w3.org/2000/svg" xmlns:xlink="http://www.w3.org/1999/xlink">
    <!-- Generator: Sketch 52.6 (67491) - http://www.bohemiancoding.com/sketch -->
    <title>Group 11</title>
    <desc>Created with Sketch.</desc>
    <g id="Page-1" stroke="none" stroke-width="1" fill="none" fill-rule="evenodd">
        <g id="Retail-Page" transform="translate(-169.000000, -2862.000000)">
            <g id="Group-11" transform="translate(169.000000, 2862.000000)">
                <rect id="Rectangle" fill="#120033" x="0" y="0" width="300" height="229" rx="12"></rect>
                <rect id="Rectangle" fill="#00E0DD" x="89" y="147" width="31" height="37" rx="6"></rect>
                <rect id="Rectangle-Copy-4" fill="#00E0DD" x="44" y="177" width="31" height="9" rx="4.5"></rect>
                <rect id="Rectangle-Copy" fill="#00E0DD" x="134" y="112" width="31" height="72" rx="6"></rect>
                <rect id="Rectangle-Copy-2" fill="#00E0DD" x="180.72449" y="85.3297872" width="30.1183421" height="99.3915519" rx="6"></rect>
                <rect id="Rectangle-Copy-3" fill="#00E0DD" x="226" y="57" width="31" height="127" rx="6"></rect>
                <path d="M242.488123,44.0588213 L237.838525,46.4844814 C236.859211,46.9953817 235.651155,46.6156579 235.140254,45.6363446 C234.937406,45.2475181 234.867985,44.8027965 234.942679,44.3706459 L235.826671,39.2561729 L232.096245,35.6478412 C231.302313,34.879893 231.281248,33.6137383 232.049196,32.8198054 C232.357353,32.5012214 232.762609,32.2940279 233.201306,32.2307712 L238.371119,31.4853244 L240.697375,26.8080253 C241.189255,25.8190223 242.389749,25.4160251 243.378752,25.9079059 C243.768817,26.101905 244.084872,26.4179601 244.278871,26.8080253 L246.605127,31.4853244 L251.77494,32.2307712 C252.868203,32.3884112 253.626675,33.4024683 253.469035,34.495731 C253.405778,34.9344281 253.198585,35.3396841 252.880001,35.6478412 L249.149575,39.2561729 L250.033567,44.3706459 C250.221693,45.4590771 249.491851,46.493931 248.40342,46.6820567 C247.971269,46.7567502 247.526548,46.6873292 247.137721,46.4844814 L242.488123,44.0588213 Z" id="Star-Copy-4" fill="#FFA529"></path>
                <path d="M196,72 L191.357951,74.4404697 C190.380262,74.9544713 189.171007,74.5785783 188.657006,73.6008891 C188.452328,73.2115682 188.381698,72.765632 188.456052,72.3321167 L189.342604,67.163119 L185.587108,63.5024144 C184.796141,62.731412 184.779956,61.4651855 185.550958,60.6742183 C185.857976,60.359251 186.26026,60.1542767 186.695534,60.0910277 L191.885503,59.336881 L194.206528,54.6339715 C194.695372,53.6434642 195.894624,53.2367862 196.885131,53.7256308 C197.279557,53.9202912 197.598812,54.2395463 197.793472,54.6339715 L200.114497,59.336881 L205.304466,60.0910277 C206.397555,60.2498629 207.154918,61.2647486 206.996083,62.3578383 C206.932834,62.7931124 206.72786,63.1953972 206.412892,63.5024144 L202.657396,67.163119 L203.543948,72.3321167 C203.73067,73.4207896 202.999494,74.4547015 201.910822,74.6414235 C201.477306,74.7157772 201.03137,74.6451478 200.642049,74.4404697 L196,72 Z" id="Star-Copy-5" fill="#FFA529"></path>
                <path d="M148,101 L143.357951,103.44047 C142.380262,103.954471 141.171007,103.578578 140.657006,102.600889 C140.452328,102.211568 140.381698,101.765632 140.456052,101.332117 L141.342604,96.163119 L137.587108,92.5024144 C136.796141,91.731412 136.779956,90.4651855 137.550958,89.6742183 C137.857976,89.359251 138.26026,89.1542767 138.695534,89.0910277 L143.885503,88.336881 L146.206528,83.6339715 C146.695372,82.6434642 147.894624,82.2367862 148.885131,82.7256308 C149.279557,82.9202912 149.598812,83.2395463 149.793472,83.6339715 L152.114497,88.336881 L157.304466,89.0910277 C158.397555,89.2498629 159.154918,90.2647486 158.996083,91.3578383 C158.932834,91.7931124 158.72786,92.1953972 158.412892,92.5024144 L154.657396,96.163119 L155.543948,101.332117 C155.73067,102.42079 154.999494,103.454701 153.910822,103.641424 C153.477306,103.715777 153.03137,103.645148 152.642049,103.44047 L148,101 Z" id="Star-Copy-7" fill="#FFA529"></path>
                <path d="M60,166 L55.3579508,168.44047 C54.3802616,168.954471 53.1710073,168.578578 52.6570057,167.600889 C52.4523275,167.211568 52.3816982,166.765632 52.4560519,166.332117 L53.3426044,161.163119 L49.5871077,157.502414 C48.7961405,156.731412 48.7799559,155.465185 49.5509583,154.674218 C49.8579755,154.359251 50.2602604,154.154277 50.6955344,154.091028 L55.8855032,153.336881 L58.2065278,148.633972 C58.6953724,147.643464 59.8946241,147.236786 60.8851314,147.725631 C61.2795566,147.920291 61.5988117,148.239546 61.7934722,148.633972 L64.1144968,153.336881 L69.3044656,154.091028 C70.3975553,154.249863 71.1549182,155.264749 70.996083,156.357838 C70.932834,156.793112 70.7278596,157.195397 70.4128923,157.502414 L66.6573956,161.163119 L67.5439481,166.332117 C67.7306701,167.42079 66.9994945,168.454701 65.9108216,168.641424 C65.4773063,168.715777 65.0313702,168.645148 64.6420492,168.44047 L60,166 Z" id="Star-Copy-6" fill="#FFA529"></path>
                <path d="M103,133 L98.3579508,135.44047 C97.3802616,135.954471 96.1710073,135.578578 95.6570057,134.600889 C95.4523275,134.211568 95.3816982,133.765632 95.4560519,133.332117 L96.3426044,128.163119 L92.5871077,124.502414 C91.7961405,123.731412 91.7799559,122.465185 92.5509583,121.674218 C92.8579755,121.359251 93.2602604,121.154277 93.6955344,121.091028 L98.8855032,120.336881 L101.206528,115.633972 C101.695372,114.643464 102.894624,114.236786 103.885131,114.725631 C104.279557,114.920291 104.598812,115.239546 104.793472,115.633972 L107.114497,120.336881 L112.304466,121.091028 C113.397555,121.249863 114.154918,122.264749 113.996083,123.357838 C113.932834,123.793112 113.72786,124.195397 113.412892,124.502414 L109.657396,128.163119 L110.543948,133.332117 C110.73067,134.42079 109.999494,135.454701 108.910822,135.641424 C108.477306,135.715777 108.03137,135.645148 107.642049,135.44047 L103,133 Z" id="Star-Copy-8" fill="#FFA529"></path>
                <rect id="Rectangle" fill="#4D33B7" opacity="0.0692429315" x="0" y="3" width="300" height="229" rx="12"></rect>
            </g>
        </g>
    </g>
</svg>