<?xml version="1.0" encoding="UTF-8"?>
<svg width="30px" height="32px" viewBox="0 0 30 32" version="1.1" xmlns="http://www.w3.org/2000/svg" xmlns:xlink="http://www.w3.org/1999/xlink">
    <title>support</title>
    <defs>
        <filter id="filter-1">
            <feColorMatrix in="SourceGraphic" type="matrix" values="0 0 0 0 1.000000 0 0 0 0 1.000000 0 0 0 0 1.000000 0 0 0 1.000000 0"></feColorMatrix>
        </filter>
    </defs>
    <g id="Screens" stroke="none" stroke-width="1" fill="none" fill-rule="evenodd">
        <g id="Customer-Experience" transform="translate(-857.000000, -1095.000000)">
            <g filter="url(#filter-1)" id="support">
                <g transform="translate(857.000000, 1095.000000)">
                    <path d="M29.2546438,14.4591065 C29.1389191,6.45037987 22.6444784,0 14.6286574,0 C6.61501057,0 0.118395843,6.44769941 0.00267104998,14.4591065 C-0.00142870115,14.5962465 0.00167717092,14.5638316 0,19.3439709 C0.00201991499,21.2263107 1.52209496,22.751743 3.39782404,22.75377 L3.39782404,22.75377 C5.27355313,22.751743 6.79362817,21.2263107 6.79564809,19.3439709 L6.79564809,14.5640186 C6.79701179,13.5890311 6.38178663,12.6602395 5.65518752,12.0129927 C4.9285884,11.3657459 3.96034395,11.0621573 2.99579996,11.1791541 C4.49767546,6.16057812 9.14368737,2.49345453 14.6286574,2.49345453 C20.1136275,2.49345453 24.7596394,6.16057812 26.2615771,11.1791541 C26.1280602,11.1630633 25.9937182,11.1548416 25.8592424,11.1545312 C23.9834991,11.1565239 22.4634041,12.6819763 22.4614183,14.5643303 L22.4614183,19.3442826 C22.4635407,21.2265797 23.9835558,22.7519518 25.8592424,22.7540817 L25.8597393,22.7540817 C25.8927237,22.7540817 25.9252732,22.7523986 25.9580091,22.7514012 C24.6784341,25.2719816 22.0987674,26.8599161 19.2798872,26.8621727 L18.2128338,26.8621727 C17.6062962,25.105691 15.8245351,24.0454895 13.9978154,24.3541099 C12.1710957,24.6627303 10.8334738,26.249945 10.8334738,28.1089 C10.8334738,29.9678549 12.1710957,31.5550696 13.9978154,31.86369 C15.8245351,32.1723105 17.6062962,31.112109 18.2128338,29.3556272 L19.279763,29.3556272 C24.7812563,29.3556272 29.2571429,24.8647286 29.2571429,19.3444073 L29.2571429,14.5640809 C29.2571429,14.5287362 29.2556377,14.4942019 29.2546438,14.4591065 Z M3.39782404,13.6479857 C3.90200203,13.6482952 4.31064204,14.0583754 4.31095043,14.5643303 L4.31095043,19.3442826 C4.31064204,19.8502375 3.90200203,20.2603177 3.39782404,20.2606272 L3.39782404,20.2606272 C2.89367444,20.260249 2.48507449,19.850209 2.48469766,19.3442826 C2.48569153,16.1782811 2.48252355,14.8633578 2.4866233,14.5261181 C2.50701692,14.0357646 2.90876766,13.6485938 3.39782404,13.6479857 L3.39782404,13.6479857 Z M14.6286574,29.4227635 C13.9054075,29.4227635 13.3190975,28.8343872 13.3190975,28.1085883 C13.3190975,27.3827894 13.9054075,26.7944131 14.6286574,26.7944131 C15.3519074,26.7944131 15.9382173,27.3827894 15.9382173,28.1085883 C15.9374299,28.8340597 15.351581,29.4219733 14.6286574,29.4227635 Z M26.7726172,19.3439709 C26.7722404,19.8498973 26.3636405,20.2599373 25.8594909,20.2603155 L25.8594909,20.2603155 C25.3553412,20.2599373 24.9467413,19.8498973 24.9463645,19.3439709 L24.9463645,14.5640186 C24.9465286,14.0658451 25.3435105,13.6591961 25.8398264,13.6487996 C26.3361422,13.6384031 26.7496879,14.0280737 26.7705674,14.5258064 C26.7742944,14.8248339 26.7711885,14.4615376 26.7726172,19.3439709 Z" fill="#120033" fill-rule="nonzero"></path>
                </g>
            </g>
        </g>
    </g>
</svg>