<?xml version="1.0" encoding="UTF-8"?>
<svg width="74px" height="24px" viewBox="0 0 74 24" version="1.1" xmlns="http://www.w3.org/2000/svg" xmlns:xlink="http://www.w3.org/1999/xlink">
    <title>rain (1)</title>
    <g id="Page-1" stroke="none" stroke-width="1" fill="none" fill-rule="evenodd">
        <g id="Innovation-final-v3" transform="translate(-451.000000, -3252.000000)">
            <g id="Group-9-Copy" transform="translate(432.000000, 3080.000000)">
                <g id="rain-(1)" transform="translate(19.000000, 172.000000)">
                    <path d="M34.584,16.64 L34.584,13.676 L37.416,13.676 L39.912,16.64 L41.64,16.64 L41.64,16.232 L39.492,13.676 L39.96,13.676 C40.884,13.676 41.64,12.92 41.64,12.008 L41.64,9.68 C41.64,8.768 40.884,8.012 39.96,8.012 L33,8.012 L33,16.64 L34.584,16.64 Z M39.96,12.092 L34.668,12.092 C34.62,12.092 34.584,12.056 34.584,12.008 L34.584,9.68 C34.584,9.632 34.62,9.596 34.668,9.596 L39.96,9.596 C40.008,9.596 40.044,9.632 40.044,9.68 L40.044,12.008 C40.044,12.056 40.008,12.092 39.96,12.092 Z M47.52,16.64 L47.52,13.736 L52.98,13.736 L52.98,16.64 L54.576,16.64 L54.576,9.668 C54.576,8.744 53.82,8 52.896,8 L47.604,8 C46.68,8 45.936,8.744 45.936,9.668 L45.936,16.64 L47.52,16.64 Z M52.98,12.152 L47.52,12.152 L47.52,9.668 C47.52,9.62 47.556,9.584 47.604,9.584 L52.896,9.584 C52.944,9.584 52.98,9.62 52.98,9.668 L52.98,12.152 Z M60.54,16.64 L60.54,8 L58.956,8 L58.956,16.64 L60.54,16.64 Z M66.168,16.64 L66.168,10.304 L71.496,16.64 L73.224,16.64 L73.224,8 L71.628,8 L71.628,14.336 L66.312,8 L64.584,8 L64.584,16.64 L66.168,16.64 Z" id="RAIN" fill="#FFFFFF"></path>
                    <g id="Rain/symbol/dark">
                        <path d="M12.0000229,2 C17.5228346,2 22,6.47716543 22,12.0000229 C22,17.5228804 17.5228346,22 12.0000229,22 C6.47721124,22 2,17.5228346 2,12.0000229 C2,6.47721124 6.47716543,2 12.0000229,2 Z" id="circle" fill-opacity="0.2" fill="#FFFFFF"></path>
                        <rect id="size" x="0" y="0" width="23.9862779" height="23.9798601"></rect>
                        <polygon id="Path-5" fill="#FFFFFF" points="8.26689121 6.01044083 24 6.01044083 18.4358452 11.8263172 18.4358452 8.64953297 10.45573 16.3602817 12 9.33018468 0 22.0104408"></polygon>
                    </g>
                </g>
            </g>
        </g>
    </g>
</svg>