<?xml version="1.0" encoding="UTF-8"?>
<svg width="75px" height="23px" viewBox="0 0 75 23" version="1.1" xmlns="http://www.w3.org/2000/svg" xmlns:xlink="http://www.w3.org/1999/xlink">
    <title>bolt_dark</title>
    <g id="Page-1" stroke="none" stroke-width="1" fill="none" fill-rule="evenodd">
        <g id="Innovation-final-v3" transform="translate(-150.000000, -3256.000000)">
            <g id="bolt_dark" transform="translate(150.000000, 3256.000000)">
                <path d="M35.7077567,16.4285714 C36.7559338,16.4285714 37.5741536,16.1900577 38.1624163,15.7130301 C38.750679,15.2360026 39.0448103,14.5760789 39.0448103,13.7332589 C39.0448103,13.108631 38.8897228,12.6134207 38.579548,12.2476283 C38.2693731,11.8818359 37.7848586,11.6369047 37.1260045,11.5128348 L37.1260045,11.5128348 L37.1260045,11.4486607 C37.6565104,11.3545387 38.0629464,11.125651 38.3453125,10.7619978 C38.6276786,10.3983445 38.7688616,9.94270831 38.7688616,9.39508929 C38.7688616,8.58221724 38.4811477,7.98753719 37.9057199,7.61104907 C37.330292,7.23456102 36.3965588,7.04631693 35.1045201,7.04631693 L35.1045201,7.04631693 L32.3193638,7.04631693 L32.3193638,16.4285714 L35.7077567,16.4285714 Z M35.3291295,10.9224331 L33.853125,10.9224331 L33.853125,8.32979907 L35.181529,8.32979907 C35.8746094,8.32979907 36.3805152,8.42819938 36.6992467,8.625 C37.017978,8.82180062 37.1773438,9.14053199 37.1773438,9.58119418 C37.1773438,10.0689174 37.0297433,10.414388 36.7345424,10.6176061 C36.4393415,10.8208241 35.9708705,10.9224331 35.3291295,10.9224331 L35.3291295,10.9224331 Z M35.4831474,15.1386719 L33.853125,15.1386719 L33.853125,12.1674107 L35.4061384,12.1674107 C36.0863839,12.1674107 36.5933594,12.2850633 36.9270647,12.5203683 C37.2607701,12.7556734 37.4276228,13.1171875 37.4276228,13.6049107 C37.4276228,14.1354167 37.2639788,14.52367 36.9366908,14.7696707 C36.6094029,15.0156715 36.1248884,15.1386719 35.4831474,15.1386719 L35.4831474,15.1386719 Z M48.2217076,16.5569196 C49.6207031,16.5569196 50.7020368,16.1333705 51.4657087,15.2862724 C52.2293806,14.4391741 52.6112165,13.2519531 52.6112165,11.7246094 C52.6112165,10.1929873 52.2304502,9.00576638 51.4689174,8.16294643 C50.7073847,7.32012648 49.6292597,6.89871653 48.2345424,6.89871653 C46.8184338,6.89871653 45.7285436,7.31370908 44.9648717,8.14369418 C44.2011998,8.97367934 43.8193638,10.1630394 43.8193638,11.7117745 C43.8193638,13.2605097 44.1990606,14.4552176 44.9584543,15.2958984 C45.7178478,16.1365793 46.805599,16.5569196 48.2217076,16.5569196 Z M48.2217076,15.2477679 C47.306157,15.2477679 46.6152158,14.9493582 46.1488839,14.3525391 C45.6825521,13.7557199 45.4493862,12.8797433 45.4493862,11.7246094 C45.4493862,10.5737537 45.6836217,9.70098587 46.1520926,9.10630582 C46.6205636,8.51162577 47.3147135,8.21428571 48.2345424,8.21428571 C49.1458147,8.21428571 49.8314081,8.51162577 50.2913225,9.10630582 C50.751237,9.70098587 50.9811942,10.5737537 50.9811942,11.7246094 C50.9811942,12.8925781 50.7490978,13.7717634 50.2849051,14.3621652 C49.8207124,14.9525669 49.1329799,15.2477679 48.2217076,15.2477679 Z M63.4181362,16.4285714 L63.4181362,15.1130022 L59.4457589,15.1130022 L59.4457589,7.04631693 L57.9119978,7.04631693 L57.9119978,16.4285714 L63.4181362,16.4285714 Z M71.2987166,16.4285714 L71.2987166,8.36188618 L74.0582034,8.36188618 L74.0582034,7.04631693 L67.0054689,7.04631693 L67.0054689,8.36188618 L69.764955,8.36188618 L69.764955,16.4285714 L71.2987166,16.4285714 Z" id="BOLT" fill-opacity="0.87" fill="#FFFFFF" fill-rule="nonzero"></path>
                <g id="thor_avatars-copy-2">
                    <g id="Thor_1" transform="translate(0.000000, 1.314286)">
                        <rect id="size" x="0" y="0" width="20.3714286" height="20.3714286"></rect>
                        <path d="M10.1857341,1.52785714 C14.9673055,1.52785714 18.8435714,5.40412301 18.8435714,10.1857341 C18.8435714,14.9673452 14.9673055,18.8435714 10.1857341,18.8435714 C5.40416268,18.8435714 1.52785714,14.9673055 1.52785714,10.1857341 C1.52785714,5.40416268 5.40412301,1.52785714 10.1857341,1.52785714 Z" id="circle" fill="#FFFFFF" fill-rule="nonzero" opacity="0.2"></path>
                    </g>
                    <polygon id="Path-42" fill="#FFFFFF" fill-rule="nonzero" points="6.33877964 0 14.3868242 0 9.14241562 8.67804707 18.4 8.67804707 4.30993731 23 8.83758039 12.3795837 1.97142857 12.3795837"></polygon>
                </g>
            </g>
        </g>
    </g>
</svg>