<?xml version="1.0" encoding="UTF-8"?>
<svg width="122px" height="123px" viewBox="0 0 122 123" version="1.1" xmlns="http://www.w3.org/2000/svg" xmlns:xlink="http://www.w3.org/1999/xlink">
    <!-- Generator: Sketch 52.6 (67491) - http://www.bohemiancoding.com/sketch -->
    <title>Group 5</title>
    <desc>Created with Sketch.</desc>
    <g id="Page-1" stroke="none" stroke-width="1" fill="none" fill-rule="evenodd">
        <g id="Home-page" transform="translate(-180.000000, -1024.000000)">
            <g id="Group-5" transform="translate(169.000000, 1014.000000)">
                <rect id="Rectangle" x="0" y="0" width="142" height="142"></rect>
                <g id="Group-31" transform="translate(12.000000, 11.000000)" stroke="#FFFFFF" stroke-width="2">
                    <path d="M30.5494118,50.7491765 L30.5494118,63.0785882 C30.5494118,68.2785882 34.7729412,72.4903529 39.9611765,72.4903529 L81.0435294,72.4903529 C86.2435294,72.4903529 90.4552941,68.2785882 90.4552941,63.0785882 L90.4552941,50.8315294 L90.4552941,34.5727059 L90.4552941,30.9374118 C90.4552941,25.7374118 86.2435294,21.5256471 81.0435294,21.5256471 L39.9611765,21.5256471 C34.7729412,21.5256471 30.5494118,25.7374118 30.5494118,30.9374118 L30.5494118,34.6550588" id="Stroke-1"></path>
                    <path d="M84.3016471,102.466824 L84.3016471,120.349176 L37.0087059,120.349176 L37.0087059,102.466824 C37.0087059,97.2668235 41.2204706,93.0550588 46.4204706,93.0550588 L74.8898824,93.0550588 C80.0910588,93.0550588 84.3016471,97.2668235 84.3016471,102.466824 Z" id="Stroke-3"></path>
                    <path d="M103.867412,89.9496471 L103.867412,120.349647 L17.1368235,120.349647 L17.1368235,89.9496471 C17.1368235,84.7496471 21.3603529,80.5378824 26.5485882,80.5378824 L94.4556471,80.5378824 C99.6556471,80.5378824 103.867412,84.7496471 103.867412,89.9496471 Z" id="Stroke-5"></path>
                    <path d="M119.220118,92.6081176 L119.220118,120.326941 L119.220118,120.349294 L107.596588,120.349294 L107.596588,120.326941 L107.596588,92.6081176 C107.596588,89.3963529 110.196588,86.7963529 113.408353,86.7963529 C115.008353,86.7963529 116.467176,87.4434118 117.514235,88.5022353 C118.573059,89.5492941 119.220118,91.0081176 119.220118,92.6081176 Z" id="Stroke-7"></path>
                    <path d="M11.9257647,92.6081176 L11.9257647,120.326941 L11.9257647,120.349294 L0.302235294,120.349294 L0.302235294,120.326941 L0.302235294,92.6081176 C0.302235294,89.3963529 2.90223529,86.7963529 6.11517647,86.7963529 C7.714,86.7963529 9.17282353,87.4434118 10.2210588,88.5022353 C11.2787059,89.5492941 11.9257647,91.0081176 11.9257647,92.6081176 Z" id="Stroke-9"></path>
                    <path d="M81.526,21.5258824 L87.4083529,7.40823529" id="Stroke-17"></path>
                    <path d="M85.0554118,3.87882353 C85.0554118,1.92941176 86.6354118,0.349411765 88.5848235,0.349411765 C90.5342353,0.349411765 92.1142353,1.92941176 92.1142353,3.87882353 C92.1142353,5.82823529 90.5342353,7.40823529 88.5848235,7.40823529 C86.6354118,7.40823529 85.0554118,5.82823529 85.0554118,3.87882353 Z" id="Stroke-19"></path>
                    <path d="M45.0554118,39.1729412 C45.0554118,37.2235294 46.6354118,35.6435294 48.5848235,35.6435294 C50.5342353,35.6435294 52.1142353,37.2235294 52.1142353,39.1729412 C52.1142353,41.1223529 50.5342353,42.7023529 48.5848235,42.7023529 C46.6354118,42.7023529 45.0554118,41.1223529 45.0554118,39.1729412 Z" id="Stroke-21"></path>
                    <path d="M69.7612941,39.1729412 C69.7612941,37.2235294 71.3412941,35.6435294 73.2907059,35.6435294 C75.2401176,35.6435294 76.8201176,37.2235294 76.8201176,39.1729412 C76.8201176,41.1223529 75.2401176,42.7023529 73.2907059,42.7023529 C71.3412941,42.7023529 69.7612941,41.1223529 69.7612941,39.1729412 Z" id="Stroke-23"></path>
                    <path d="M90.4551765,50.832 C90.8081176,50.9025882 91.1622353,50.9378824 91.5257647,50.9378824 C94.4551765,50.9378824 96.8198824,48.5731765 96.8198824,45.6437647 L96.8198824,39.7614118 C96.8198824,38.3025882 96.2316471,36.9731765 95.2669412,36.0202353 C94.314,35.0555294 92.9845882,34.4672941 91.5257647,34.4672941 C91.1622353,34.4672941 90.8081176,34.5025882 90.4551765,34.5731765" id="Stroke-25"></path>
                    <path d="M30.5494118,34.6555294 L30.5494118,50.7496471 C30.1141176,50.8790588 29.6435294,50.9378824 29.1729412,50.9378824 C26.2435294,50.9378824 23.8788235,48.5731765 23.8788235,45.6437647 L23.8788235,39.7614118 C23.8788235,36.832 26.2435294,34.4672941 29.1729412,34.4672941 C29.6435294,34.4672941 30.1141176,34.5261176 30.5494118,34.6555294 Z" id="Stroke-27"></path>
                </g>
            </g>
        </g>
    </g>
</svg>