<?xml version="1.0" encoding="UTF-8"?>
<svg width="81px" height="23px" viewBox="0 0 81 23" version="1.1" xmlns="http://www.w3.org/2000/svg" xmlns:xlink="http://www.w3.org/1999/xlink">
    <title>thor_dark</title>
    <g id="Page-1" stroke="none" stroke-width="1" fill="none" fill-rule="evenodd">
        <g id="Innovation-final-v3" transform="translate(-753.000000, -3254.000000)">
            <g id="Group-9-Copy-2" transform="translate(733.000000, 3080.000000)">
                <g id="thor_dark" transform="translate(20.000000, 174.000000)">
                    <g id="Thor">
                        <rect id="size" x="0" y="0" width="23" height="23"></rect>
                        <path d="M11.5000222,1.81578947 C16.8484293,1.81578947 21.1842105,6.15157074 21.1842105,11.5000222 C21.1842105,16.8484736 16.8484293,21.1842105 11.5000222,21.1842105 C6.15161511,21.1842105 1.81578947,16.8484293 1.81578947,11.5000222 C1.81578947,6.15161511 6.15157074,1.81578947 11.5000222,1.81578947 Z" id="circle" fill="#FFFFFF" fill-rule="nonzero" opacity="0.2"></path>
                        <polygon id="wing_2" fill="#FFFFFF" fill-rule="nonzero" points="22.3947368 3.63157895 21.2421916 6.63643241 16.730872 11.6179712 13.5249571 21.7565503 12.1052632 23 13.0670678 7.93568249"></polygon>
                        <polygon id="wing_1" fill="#FFFFFF" fill-rule="nonzero" points="0.605263158 3.63157895 1.75786107 6.63644633 6.26904614 11.6180083 9.47498788 21.7566345 10.8947368 23 9.93296727 7.93561253"></polygon>
                    </g>
                    <path d="M37.49,16.3421053 L37.49,9.22421053 L41.0368421,9.22421053 L41.0368421,7.62631579 L32.3210526,7.62631579 L32.3210526,9.22421053 L35.88,9.22421053 L35.88,16.3421053 L37.49,16.3421053 Z M46.5810526,16.3421053 L46.5810526,12.7831579 L52.2947368,12.7831579 L52.2947368,16.3421053 L53.8926316,16.3421053 L53.8926316,7.62631579 L52.2947368,7.62631579 L52.2947368,11.1852632 L46.5810526,11.1852632 L46.5810526,7.62631579 L44.9831579,7.62631579 L44.9831579,16.3421053 L46.5810526,16.3421053 Z M65.3078947,16.3421053 C66.2278947,16.3421053 66.9905263,15.5915789 66.9905263,14.6594737 L66.9905263,9.30894737 C66.9905263,8.37684211 66.2278947,7.62631579 65.3078947,7.62631579 L59.9573684,7.62631579 C59.0252632,7.62631579 58.2747368,8.37684211 58.2747368,9.30894737 L58.2747368,14.6594737 C58.2747368,15.5915789 59.0252632,16.3421053 59.9573684,16.3421053 L65.3078947,16.3421053 Z M65.3078947,14.7442105 L59.9573684,14.7442105 C59.9089474,14.7442105 59.8726316,14.7078947 59.8726316,14.6594737 L59.8726316,9.30894737 C59.8726316,9.26052632 59.9089474,9.22421053 59.9573684,9.22421053 L65.3078947,9.22421053 C65.3442105,9.22421053 65.3805263,9.26052632 65.3805263,9.30894737 L65.3805263,14.6594737 C65.3805263,14.7078947 65.3442105,14.7442105 65.3078947,14.7442105 Z M72.9342105,16.3421053 L72.9342105,13.3521053 L75.7910526,13.3521053 L78.3089474,16.3421053 L80.0521053,16.3421053 L80.0521053,15.9305263 L77.8852632,13.3521053 L78.3573684,13.3521053 C79.2894737,13.3521053 80.0521053,12.5894737 80.0521053,11.6694737 L80.0521053,9.32105263 C80.0521053,8.40105263 79.2894737,7.63842105 78.3573684,7.63842105 L71.3363158,7.63842105 L71.3363158,16.3421053 L72.9342105,16.3421053 Z M78.3573684,11.7542105 L73.0189474,11.7542105 C72.9705263,11.7542105 72.9342105,11.7178947 72.9342105,11.6694737 L72.9342105,9.32105263 C72.9342105,9.27263158 72.9705263,9.23631579 73.0189474,9.23631579 L78.3573684,9.23631579 C78.4057895,9.23631579 78.4421053,9.27263158 78.4421053,9.32105263 L78.4421053,11.6694737 C78.4421053,11.7178947 78.4057895,11.7542105 78.3573684,11.7542105 Z" id="THOR" fill-opacity="0.87" fill="#FFFFFF" fill-rule="nonzero"></path>
                </g>
            </g>
        </g>
    </g>
</svg>