<?xml version="1.0" encoding="UTF-8"?>
<svg width="126px" height="126px" viewBox="0 0 126 126" version="1.1" xmlns="http://www.w3.org/2000/svg" xmlns:xlink="http://www.w3.org/1999/xlink">
    <!-- Generator: Sketch 64 (93537) - https://sketch.com -->
    <title>thor_avatars</title>
    <desc>Created with Sketch.</desc>
    <g id="Page-1" stroke="none" stroke-width="1" fill="none" fill-rule="evenodd">
        <g id="Thor" transform="translate(-656.000000, -877.000000)">
            <g id="avatars" transform="translate(0.000000, 799.000000)">
                <g id="thor_avatars" transform="translate(656.000000, 78.000000)">
                    <circle id="Oval" fill="#120033" cx="63" cy="63" r="63"></circle>
                    <g id="Thor_1" transform="translate(23.000000, 23.000000)">
                        <rect id="size" x="0" y="0" width="80" height="80"></rect>
                        <path d="M40.0000779,6 C58.7776375,6 74,21.2223625 74,40.0000779 C74,58.7777933 58.7776375,74 40.0000779,74 C21.2225182,74 6,58.7776375 6,40.0000779 C6,21.2225182 21.2223625,6 40.0000779,6 Z" id="circle" fill="#FFFFFF" fill-rule="nonzero" opacity="0.2"></path>
                        <polygon id="wing_2" fill="#FFFFFF" fill-rule="nonzero" points="78 12 73.8555537 22.3945066 57.6332635 39.6268407 46.1050888 74.6986101 41 79 44.4585609 26.8889235"></polygon>
                        <polygon id="wing_1" fill="#FFFFFF" fill-rule="nonzero" points="2 12 6.14463599 22.3945549 22.3664422 39.6269691 33.8947135 74.6989015 39 79 35.5415651 26.8886813"></polygon>
                    </g>
                </g>
            </g>
        </g>
    </g>
</svg>