<?xml version="1.0" encoding="UTF-8"?>
<svg width="48px" height="48px" viewBox="0 0 48 48" version="1.1" xmlns="http://www.w3.org/2000/svg" xmlns:xlink="http://www.w3.org/1999/xlink">
    <title>thor</title>
    <g id="Screens" stroke="none" stroke-width="1" fill="none" fill-rule="evenodd">
        <g id="Pricing" transform="translate(-972.000000, -459.000000)">
            <g id="Group-3-Copy-2" transform="translate(940.000000, 419.000000)">
                <g id="Thor/symbol/coloured" transform="translate(32.000000, 40.000000)">
                    <path d="M24.000055,0 C37.254803,0 48,10.745197 48,24.000055 C48,37.2549129 37.254803,48 24.000055,48 C10.745307,48 0,37.254803 0,24.000055 C0,10.745307 10.745197,0 24.000055,0 Z" id="circle" fill="#120033"></path>
                    <g id="Thor/symbol/dark" transform="translate(8.000000, 8.000000)" stroke-width="1">
                        <g id="Group">
                            <path d="M16.0000305,2.66666667 C23.3637794,2.66666667 29.3333333,8.63622057 29.3333333,16.0000305 C29.3333333,23.3638405 23.3637794,29.3333333 16.0000305,29.3333333 C8.63628166,29.3333333 2.66666667,23.3637794 2.66666667,16.0000305 C2.66666667,8.63628166 8.63622057,2.66666667 16.0000305,2.66666667 Z" id="circle" fill-opacity="0.2" fill="#FFFFFF"></path>
                            <rect id="size" x="0" y="0" width="31.9817038" height="31.9731469"></rect>
                            <path d="M29.3333333,5.33333333 L27.8398392,9.05673868 L21.9939688,15.2295151 L17.8396716,27.792537 L16,29.3333333 L17.2463283,10.6666791 L29.3333333,5.33333333 Z M2.66666667,5.33333333 L14.7537172,10.6665923 L16,29.3333333 L14.1602571,27.7926413 L10.0059251,15.2295611 L4.16022919,9.05675598 L2.66666667,5.33333333 Z" id="wings" fill="#FFFFFF"></path>
                        </g>
                    </g>
                </g>
            </g>
        </g>
    </g>
</svg>