<?xml version="1.0" encoding="UTF-8"?>
<svg width="575px" height="335px" viewBox="0 0 575 335" version="1.1" xmlns="http://www.w3.org/2000/svg" xmlns:xlink="http://www.w3.org/1999/xlink">
    <title>thor_story</title>
    <g id="Screens" stroke="none" stroke-width="1" fill="none" fill-rule="evenodd">
        <g id="Customer-Experience" transform="translate(-130.000000, -3014.000000)">
            <g id="thor_story" transform="translate(130.000000, 3014.000000)">
                <g id="home/thor_thumb">
                    <rect id="Rectangle-Copy-12" stroke-opacity="0.08" stroke="#000000" fill="#120033" x="0.5" y="0.5" width="574" height="334" rx="8"></rect>
                    <g id="Group-32" transform="translate(330.000000, 79.000000)">
                        <g id="Group-30" opacity="0.699999988">
                            <path d="M69.2513369,117.197279 C84.0035418,117.197279 95.9625668,125.201331 95.9625668,135.07483 C95.9625668,142.858856 88.5296006,149.480953 78.1549684,151.935141 L78.1550802,157.918367 L72.3671452,152.83205 C71.3450284,152.911525 70.3053114,152.952381 69.2513369,152.952381 C54.499132,152.952381 42.540107,144.948329 42.540107,135.07483 C42.540107,125.201331 54.499132,117.197279 69.2513369,117.197279 Z" id="Combined-Shape-Copy-3" fill="#8473D9" opacity="0.200000003" transform="translate(69.251337, 137.557823) scale(-1, 1) translate(-69.251337, -137.557823) "></path>
                            <g id="Group-2-Copy-2" transform="translate(118.869280, 37.866333) scale(-1, 1) rotate(-12.000000) translate(-118.869280, -37.866333) translate(80.369280, 7.866333)" fill="#362C7D">
                                <path d="M38.4192896,0.0871267364 C59.1816521,0.0871267364 76.0128725,12.0834382 76.0128725,26.8816383 C76.0128725,38.3268353 65.9448458,48.0960107 51.7768838,51.9354571 L51.7760749,59.6789635 L42.829395,53.4937331 C41.3828492,53.6142071 39.9112186,53.6761499 38.4192896,53.6761499 C17.6569271,53.6761499 0.825706742,41.6798384 0.825706742,26.8816383 C0.825706742,12.0834382 17.6569271,0.0871267364 38.4192896,0.0871267364 Z" id="Combined-Shape"></path>
                            </g>
                            <g id="Group-2" transform="translate(0.000000, 48.666667)" fill="#6756BE">
                                <path d="M46.9919786,0 C72.9449318,0 93.9839572,17.1947131 93.9839572,38.4054666 C93.9839572,54.8105046 81.3985316,68.81317 63.6881435,74.3161974 L63.6879601,85.414966 L52.5035626,76.5495691 C50.6957175,76.7221829 48.8565296,76.8109332 46.9919786,76.8109332 C21.0390255,76.8109332 0,59.6162201 0,38.4054666 C0,17.1947131 21.0390255,0 46.9919786,0 Z" id="Combined-Shape"></path>
                            </g>
                            <g id="Group-2-Copy" transform="translate(132.500000, 118.030612) scale(-1, 1) translate(-132.500000, -118.030612) translate(80.000000, 68.530612)" fill="#8473D9">
                                <path d="M52.4331551,0 C81.391187,0 104.86631,19.7939139 104.86631,44.2109441 C104.86631,63.095673 90.8238336,79.214921 71.0630011,85.5498998 L71.0623555,98.3265306 L58.5848871,88.1208221 C56.5670804,88.3196558 54.5142769,88.4218882 52.4331551,88.4218882 C23.4751231,88.4218882 0,68.6279743 0,44.2109441 C0,19.7939139 23.4751231,0 52.4331551,0 Z" id="Combined-Shape"></path>
                            </g>
                        </g>
                        <rect id="Rectangle" fill="#D8D8D8" opacity="0.300000012" x="108" y="102" width="51" height="5" rx="2.5"></rect>
                        <rect id="Rectangle-Copy-7" fill="#D8D8D8" opacity="0.300000012" x="27" y="78" width="39" height="3" rx="1.5"></rect>
                        <rect id="Rectangle-Copy-2" fill="#D8D8D8" opacity="0.300000012" x="107" y="112" width="30" height="5" rx="2.5"></rect>
                        <rect id="Rectangle-Copy-21" fill="#D8D8D8" opacity="0.300000012" x="106" y="122" width="41" height="5" rx="2.5"></rect>
                        <rect id="Rectangle-Copy-18" fill="#D8D8D8" opacity="0.300000012" x="27" y="86" width="29" height="3" rx="1.5"></rect>
                        <g id="Group-31" opacity="0.300000012" transform="translate(115.325402, 32.869581) rotate(-6.000000) translate(-115.325402, -32.869581) translate(100.825402, 21.869581)" fill="#D8D8D8">
                            <path d="M1.97797361,12.9065676 L26.7072901,12.9351522 C27.8046755,12.9364207 28.6939647,13.8257131 28.6952292,14.9230986 C28.6964899,16.0172152 27.8105551,16.9051939 26.7164385,16.9064546 C26.7149144,16.9064563 26.7133902,16.9064563 26.711866,16.9064545 L1.98254948,16.8778699 C0.885164035,16.8766015 -0.00412516833,15.987309 -0.00538961281,14.8899235 C-0.00665029078,13.795807 0.879284455,12.9078283 1.97340103,12.9065676 C1.97492522,12.9065658 1.97644941,12.9065658 1.97797361,12.9065676 Z" id="Rectangle-Copy-19" transform="translate(14.344920, 14.906511) rotate(18.000000) translate(-14.344920, -14.906511) "></path>
                            <path d="M5.26303424,2.97347871 L17.1265561,2.98719175 C18.2239415,2.98846022 19.1132307,3.87775269 19.1144952,4.97513813 C19.1157559,6.0692547 18.2298211,6.95723341 17.1357045,6.95849409 C17.1341803,6.95849584 17.1326562,6.95849584 17.131132,6.95849408 L5.2676101,6.94478104 C4.17022466,6.94351257 3.28093546,6.0542201 3.27967101,4.95683466 C3.27841034,3.86271809 4.16434508,2.97473938 5.25846165,2.9734787 C5.25998585,2.97347694 5.26151004,2.97347695 5.26303424,2.97347871 Z" id="Rectangle-Copy-20" transform="translate(11.197083, 4.965986) rotate(18.000000) translate(-11.197083, -4.965986) "></path>
                        </g>
                    </g>
                </g>
                <g id="Rain/full/dark-Copy-4" transform="translate(60.000000, 144.000000)">
                    <g id="Group-24">
                        <g id="Icons/thor">
                            <g id="Group">
                                <path d="M24.0000458,4 C35.0456691,4 44,12.9543309 44,24.0000458 C44,35.0457608 35.0456691,44 24.0000458,44 C12.9544225,44 4,35.0456691 4,24.0000458 C4,12.9544225 12.9543309,4 24.0000458,4 Z" id="circle" fill-opacity="0.2" fill="#FFFFFF"></path>
                                <rect id="size" x="0" y="0" width="47.9725557" height="47.9597203"></rect>
                                <path d="M44,8 L41.7597588,13.585108 L32.9909533,22.8442726 L26.7595075,41.6888055 L24,44 L25.8694924,16.0000186 L44,8 Z M4,8 L22.1305757,15.9998885 L24,44 L21.2403857,41.688962 L15.0088877,22.8443416 L6.24034378,13.585134 L4,8 Z" id="wings" fill="#FFFFFF"></path>
                            </g>
                        </g>
                        <path d="M74.248,33.28 L74.248,19.168 L81.28,19.168 L81.28,16 L64,16 L64,19.168 L71.056,19.168 L71.056,33.28 L74.248,33.28 Z M92.272,33.28 L92.272,26.224 L103.6,26.224 L103.6,33.28 L106.768,33.28 L106.768,16 L103.6,16 L103.6,23.056 L92.272,23.056 L92.272,16 L89.104,16 L89.104,33.28 L92.272,33.28 Z M129.4,33.28 C131.224,33.28 132.736,31.792 132.736,29.944 L132.736,19.336 C132.736,17.488 131.224,16 129.4,16 L118.792,16 C116.944,16 115.456,17.488 115.456,19.336 L115.456,29.944 C115.456,31.792 116.944,33.28 118.792,33.28 L129.4,33.28 Z M129.4,30.112 L118.792,30.112 C118.696,30.112 118.624,30.04 118.624,29.944 L118.624,19.336 C118.624,19.24 118.696,19.168 118.792,19.168 L129.4,19.168 C129.472,19.168 129.544,19.24 129.544,19.336 L129.544,29.944 C129.544,30.04 129.472,30.112 129.4,30.112 Z M144.52,33.28 L144.52,27.352 L150.184,27.352 L155.176,33.28 L158.632,33.28 L158.632,32.464 L154.336,27.352 L155.272,27.352 C157.12,27.352 158.632,25.84 158.632,24.016 L158.632,19.36 C158.632,17.536 157.12,16.024 155.272,16.024 L141.352,16.024 L141.352,33.28 L144.52,33.28 Z M155.272,24.184 L144.688,24.184 C144.592,24.184 144.52,24.112 144.52,24.016 L144.52,19.36 C144.52,19.264 144.592,19.192 144.688,19.192 L155.272,19.192 C155.368,19.192 155.44,19.264 155.44,19.36 L155.44,24.016 C155.44,24.112 155.368,24.184 155.272,24.184 Z" id="THOR" fill="#FFFFFF"></path>
                    </g>
                </g>
            </g>
        </g>
    </g>
</svg>