<?xml version="1.0" encoding="UTF-8"?>
<svg width="371px" height="325px" viewBox="0 0 371 325" version="1.1" xmlns="http://www.w3.org/2000/svg" xmlns:xlink="http://www.w3.org/1999/xlink">
    <title>platforms/video_conferencing</title>
    <defs>
        <rect id="path-1" x="0" y="0" width="225" height="216"></rect>
    </defs>
    <g id="Page-1" stroke="none" stroke-width="1" fill="none" fill-rule="evenodd">
        <g id="Gov-tech" transform="translate(-534.000000, -1677.000000)">
            <g id="platforms/video_conferencing" transform="translate(534.000000, 1677.000000)">
                <rect id="Rectangle-Copy-17" stroke-opacity="0.08" stroke="#000000" fill="#120033" x="0.5" y="0.5" width="370" height="324"></rect>
                <g id="Group-25" transform="translate(135.000000, 109.000000)">
                    <g id="Group-23">
                        <mask id="mask-2" fill="white">
                            <use xlink:href="#path-1"></use>
                        </mask>
                        <g id="Mask"></g>
                        <g mask="url(#mask-2)">
                            <g transform="translate(88.000000, 50.000000)">
                                <g id="Group-22" stroke-width="1" fill="none" transform="translate(37.000000, 0.000000)">
                                    <path d="M60.9398481,30.6772125 C59.1151735,40.9838039 50.8239739,48.1460114 42.4258897,46.6269854 C41.0362866,46.3831626 39.6971879,45.9108704 38.4635208,45.2294815 C32.4321694,41.9180049 28.9965895,33.8747622 30.5158793,25.3074556 C32.340554,15.0084593 40.6317535,7.83865658 49.0298377,9.31970693 C53.5189955,10.0792199 57.1301717,13.1932232 59.2373274,17.4692814 C61.1949188,21.5819303 61.7909999,26.2062486 60.9398481,30.6772125 Z" id="Path" fill="#976E33"></path>
                                    <path d="M51.831744,111.299517 C51.831744,111.299517 45.7240464,110.388102 38.2115783,109.09693 C25.7824136,106.962698 9.53593791,103.780339 10.8796314,102.010673 C13.0402294,99.1473093 16.6285018,80.5696214 20.2244088,64.126165 C23.0110458,51.3739417 34.8828831,48.0852504 40.0744261,47.2497861 C40.8808727,47.1163146 41.6938059,47.0250475 42.5098705,46.9763614 C42.5098705,50.8936262 43.7884499,66.6851667 44.8581348,80.5186236 C46.0989742,96.5654972 51.831744,111.299517 51.831744,111.299517 Z" id="Path" fill="#755CDC"></path>
                                    <path d="M49.610069,111.299517 C49.610069,111.299517 45.3652192,118.446535 45.3652192,123.451725 C45.3652192,128.456916 48.9611261,161.328639 47.5258172,167.761714 C46.0905083,174.194789 41.7769468,169.189598 41.7769468,169.189598 C40.1722426,160.415498 37.7675835,151.80503 34.5927675,143.464893 C29.5615515,130.598743 23.8126811,114.155286 23.8126811,114.155286 L23.8508542,105.982926 L49.610069,111.299517 Z" id="Path" fill="#150A43"></path>
                                    <path d="M37.7000586,109.020978 C37.7000586,109.020978 34.5927675,124.211238 29.5615515,130.613933 C24.5303356,137.016627 23.0950267,172.782095 21.6597177,176.351806 C21.3493492,177.40677 20.4593095,178.191857 19.3693311,178.37211 C18.4035188,178.468552 17.4316148,178.261364 16.5903287,177.77969 C16.5903287,177.77969 13.7197108,178.501227 10.8414583,152.054985 C9.13673864,135.910696 9.88828695,119.602986 13.0707679,103.681602 L24.0798929,106.020902 L37.7000586,109.020978 Z" id="Path" fill="#291386"></path>
                                    <path d="M60.9398481,30.6772125 C59.1151735,40.9838039 50.8239739,48.1460114 42.4258897,46.6269854 C41.0362866,46.3831626 39.6971879,45.9108704 38.4635208,45.2294815 C38.4635208,45.2294815 46.8616051,40.8319013 48.5106834,38.3482938 C51.2755818,34.0565144 52.6112271,29.0073165 52.3279945,23.9175468 L59.1991543,17.4692814 C61.1696801,21.5777572 61.7791488,26.2022465 60.9398481,30.6772125 L60.9398481,30.6772125 Z" id="Path" fill="#7C4A00"></path>
                                    <path d="M53.5724379,43.5661481 C51.1675319,39.7230123 52.3661676,33.5177911 51.9462634,28.6341225 C51.9157249,28.2999368 51.8775518,27.9733462 51.831744,27.6543507 C51.1140896,22.6491601 47.5258172,19.079449 41.0592923,16.2616557 C34.5927675,13.4438625 35.3104219,8.39310107 35.3104219,8.39310107 C34.0278054,-0.56155719 48.2892794,-3.75910692 60.5733863,7.96017866 C62.0996595,9.41667324 63.5016201,10.9968349 64.7647938,12.6843495 C77.6978435,29.7961774 56.1453055,47.6675183 53.5724379,43.5661481 Z" id="Path" fill="#231C44"></path>
                                    <path d="M37.7000586,109.020978 C40.8607922,113.851481 34.5927675,124.211238 29.5615515,130.613933 C24.5303356,137.016627 23.2171806,173.047924 21.7895063,176.617635 C21.2474481,177.977164 18.7356575,178.508823 17.9721953,178.136661 C17.613368,177.961973 17.9721953,176.617635 17.9721953,174.339096 C17.9721953,170.382034 17.2087331,159.908349 17.2927139,139.143264 C17.3690601,119.023765 23.2935268,106.377873 24.056989,106.020902 C27.2177226,104.547447 35.7914031,106.074068 37.7000586,109.020978 Z" id="Path" fill="#150A43"></path>
                                    <path d="M51.831744,111.299517 C51.831744,111.299517 44.7697186,110.380507 37.8222126,109.020978 C32.4321694,107.980446 27.3627804,106.544966 24.0798929,105.982926 C25.6068173,99.9068223 26.5153373,92.9648735 27.8972039,86.9951014 C30.1875905,77.1214324 30.1875905,71.8048414 30.9510527,62.6906854 C32.0962461,49.0194514 40.0591568,47.2270007 40.0591568,47.2270007 C40.8656034,47.0935292 41.6785367,47.0022621 42.4946013,46.953576 C51.0339414,45.8077759 53.6422493,61.5376246 51.831744,70.6436245 C48.580653,86.9951014 51.831744,111.299517 51.831744,111.299517 Z" id="Path" fill="#412E8F"></path>
                                </g>
                                <path d="M53,87 L64.5569548,72.4586255 L72,71 C71.1653053,81.2825176 68.3714874,86.4237764 63.6185462,86.4237764 C58.8656051,86.4237764 55.3260897,86.6158509 53,87 Z" id="Path-48" fill="#412E8F"></path>
                                <path d="M60.9930527,57 C53.2406784,72.2331859 44.8131604,79.8497788 35.7104987,79.8497788 C22.0565061,79.8497788 17.3506627,75.876383 11.2369715,75.4636903 C6.80078295,74.8154146 3.41941551,76.2774441 1.09286919,79.8497788 C-1.11554785,85.3168007 0.0230316214,86.923096 4.50860759,84.6686648 C11.2369715,81.287018 12.9708692,80.7911783 14.3533823,82.7299216 C15.7358954,84.6686648 35.5690791,91 44.2591131,91 C52.9491471,91 67,77.5025363 67,74.392272 C67,72.3187625 64.9976842,66.5213385 60.9930527,57 Z" id="Path-46" fill="#755CDC"></path>
                                <path d="M1.11325075,79.3781216 C3.48318622,75.9297053 6.9276148,74.5183912 11.4465365,75.1441793 C14.5516593,75.3428093 17.3002641,76.3959239 20.9999304,77.4020552 L21.0000044,85.0000779 C17.5625456,83.8403478 15.0825809,82.7716646 14.6210671,82.1583569 C13.2127707,80.2868655 11.4465365,80.7655053 4.59269129,84.0298483 C0.0234611518,86.206077 -1.13635236,84.6555014 1.11325075,79.3781216 Z" id="Combined-Shape" fill="#976E33"></path>
                            </g>
                        </g>
                    </g>
                    <g id="Group-24" transform="translate(42.000000, 10.000000)">
                        <polygon id="Path-49" fill="#291386" points="3.40214709 41.1428272 3.40214709 119.051611 93.9533625 74.0100745 94.8468387 1.86960475"></polygon>
                        <polygon id="Path-50" fill="#755CDC" points="1.8189894e-12 39.3805098 3.40214709 41.1428272 3.40214709 119.051611 1.8189894e-12 116.539264"></polygon>
                        <polygon id="Path-51" fill="#755CDC" points="7.10542736e-15 39.3805098 3.40214709 41.1428272 94.8468387 1.86960475 90.70799 9.9475983e-14"></polygon>
                    </g>
                </g>
            </g>
        </g>
    </g>
</svg>