<?xml version="1.0" encoding="UTF-8"?>
<svg width="32px" height="32px" viewBox="0 0 32 32" version="1.1" xmlns="http://www.w3.org/2000/svg" xmlns:xlink="http://www.w3.org/1999/xlink">
    <title>24h</title>
    <defs>
        <filter id="filter-1">
            <feColorMatrix in="SourceGraphic" type="matrix" values="0 0 0 0 1.000000 0 0 0 0 1.000000 0 0 0 0 1.000000 0 0 0 1.000000 0"></feColorMatrix>
        </filter>
    </defs>
    <g id="Screens" stroke="none" stroke-width="1" fill="none" fill-rule="evenodd">
        <g id="Customer-Experience" transform="translate(-553.000000, -1095.000000)">
            <g filter="url(#filter-1)" id="24h">
                <g transform="translate(553.000000, 1095.000000)">
                    <path d="M32,16 C32,16.60575 31.96575,17.216125 31.898125,17.8141875 C31.7806875,18.8535625 30.5106875,19.2961875 29.772125,18.5576875 L26.330625,15.116125 C25.842375,14.6279375 25.842375,13.8365 26.330625,13.348375 C26.8186875,12.8601875 27.61025,12.8601875 28.098375,13.348375 L29.4374375,14.6874375 C28.7936875,7.970625 23.1344375,2.5 16,2.5 C8.4965,2.5 2.5,8.588125 2.5,16 C2.5,23.4620625 8.5389375,29.5 16,29.5 C20.946875,29.5 25.4921875,26.79875 27.86225,22.450375 C28.1925625,21.8441875 28.95175,21.6206875 29.558,21.951 C30.164125,22.281375 30.3876875,23.040625 30.0573125,23.64675 C27.2490625,28.79925 21.862625,32 16,32 C7.1560625,32 0,24.84275 0,16 C0,7.1651875 7.16475,0 16,0 C24.843875,0 32,7.1573125 32,16 L32,16 Z M16,5 C15.309625,5 14.75,5.559625 14.75,6.25 L14.75,16 C14.75,16.3315 14.8816875,16.6495 15.116125,16.883875 L20.2868125,22.0545625 C20.7749375,22.5426875 21.5664375,22.54275 22.054625,22.0545625 C22.54275,21.566375 22.54275,20.7749375 22.054625,20.2868125 L17.25,15.48225 L17.25,6.25 C17.25,5.559625 16.690375,5 16,5 Z" id="Shape" fill="#120033" fill-rule="nonzero"></path>
                </g>
            </g>
        </g>
    </g>
</svg>