<?xml version="1.0" encoding="UTF-8"?>
<svg width="541px" height="590px" viewBox="0 0 541 590" version="1.1" xmlns="http://www.w3.org/2000/svg" xmlns:xlink="http://www.w3.org/1999/xlink">
    <!-- Generator: Sketch 52.6 (67491) - http://www.bohemiancoding.com/sketch -->
    <title>nxt_illu-01-01</title>
    <desc>Created with Sketch.</desc>
    <defs>
        <linearGradient x1="49.9996071%" y1="0.210517477%" x2="49.9996071%" y2="78.0773209%" id="linearGradient-1">
            <stop stop-color="#662D91" offset="0%"></stop>
            <stop stop-color="#290175" offset="55%"></stop>
        </linearGradient>
        <linearGradient x1="50.0007039%" y1="0.216334035%" x2="50.0007039%" y2="78.0778653%" id="linearGradient-2">
            <stop stop-color="#662D91" offset="0%"></stop>
            <stop stop-color="#290175" offset="55%"></stop>
        </linearGradient>
        <linearGradient x1="49.8445397%" y1="22.429802%" x2="48.9008393%" y2="83.297908%" id="linearGradient-3">
            <stop stop-color="#654BF9" offset="0%"></stop>
            <stop stop-color="#4400C2" offset="100%"></stop>
        </linearGradient>
        <linearGradient x1="0.0119153334%" y1="50%" x2="100%" y2="50%" id="linearGradient-4">
            <stop stop-color="#A381BD" offset="0%"></stop>
            <stop stop-color="#5C34A8" offset="55%"></stop>
        </linearGradient>
    </defs>
    <g id="Page-1" stroke="none" stroke-width="1" fill="none" fill-rule="evenodd">
        <g id="Retail-Page" transform="translate(-750.000000, -133.000000)">
            <g id="nxt_illu-01-01" transform="translate(750.000000, 133.000000)">
                <g id="Layer_2" transform="translate(31.000000, 0.000000)">
                    <path d="M469.612941,22.3769792 L448.244837,388.668646 L447.163529,407.136875 L445.627582,433.533229 L437.640654,570.388646 C437.308787,576.06556 434.652026,581.354511 430.296551,585.00893 C425.941075,588.663349 420.27219,590.35995 414.626013,589.698854 L48.1857516,546.819375 C38.2824142,545.662118 30.6201932,537.591355 29.9755556,527.638229 L16.1151634,313.849271 L0.559084967,73.9036458 C-0.148776457,62.95948 7.81660061,53.3697877 18.7016993,52.0613542 L446.536863,0.657604167 C452.609645,-0.0697896651 458.692427,1.9324203 463.146842,6.12494877 C467.601257,10.3174773 469.969224,16.269174 469.612941,22.3769792 Z" id="Path" fill="url(#linearGradient-1)"></path>
                    <g id="Group" opacity="0.31" transform="translate(51.607843, 47.937500)" fill="#7D66DE">
                        <ellipse id="Oval" cx="342.841961" cy="126.456667" rx="2.02130719" ry="2.02197917"></ellipse>
                        <ellipse id="Oval" cx="385.049804" cy="109.106979" rx="2.02130719" ry="2.02197917"></ellipse>
                        <ellipse id="Oval" cx="389.669935" cy="27.5640625" rx="2.02130719" ry="2.02197917"></ellipse>
                        <ellipse id="Oval" cx="338.793203" cy="103.907604" rx="2.02130719" ry="2.02197917"></ellipse>
                        <ellipse id="Oval" cx="39.3202614" cy="25.2532292" rx="2.02130719" ry="2.02197917"></ellipse>
                        <ellipse id="Oval" cx="183.275425" cy="102.168333" rx="2.02130719" ry="2.02197917"></ellipse>
                        <ellipse id="Oval" cx="157.840131" cy="64.0027083" rx="2.02130719" ry="2.02197917"></ellipse>
                        <ellipse id="Oval" cx="84.9932026" cy="22.93625" rx="2.02130719" ry="2.02197917"></ellipse>
                        <ellipse id="Oval" cx="115.054771" cy="6.16427083" rx="2.02130719" ry="2.02197917"></ellipse>
                        <ellipse id="Oval" cx="253.228627" cy="2.1203125" rx="2.02130719" ry="2.02197917"></ellipse>
                        <ellipse id="Oval" cx="106.963399" cy="49.5415625" rx="2.02130719" ry="2.02197917"></ellipse>
                        <ellipse id="Oval" cx="2.31620915" cy="29.8810417" rx="2.02130719" ry="2.02197917"></ellipse>
                        <ellipse id="Oval" cx="195.993072" cy="42.6029167" rx="2.02130719" ry="2.02197917"></ellipse>
                        <ellipse id="Oval" cx="276.353856" cy="104.485312" rx="2.02130719" ry="2.02197917"></ellipse>
                        <ellipse id="Oval" cx="211.026928" cy="75.5691667" rx="2.02130719" ry="2.02197917"></ellipse>
                        <ellipse id="Oval" cx="402.393725" cy="59.9526042" rx="2.02130719" ry="2.02197917"></ellipse>
                    </g>
                </g>
                <g id="Layer_1" transform="translate(0.000000, 19.000000)">
                    <path d="M484.077391,292.543586 L470.276061,551.365722 C469.943708,557.049272 467.283056,562.344406 462.921202,566.003096 C458.559349,569.661787 452.882161,571.36037 447.227716,570.698502 L80.2508165,527.768901 C70.332976,526.610292 62.659534,518.530095 62.0139523,508.565334 L48.1332621,294.526476 C48.1332621,294.526476 87.0988698,275.039871 118.133533,275.039871 C162.716637,275.039871 176.03127,328.884925 237.983695,331.776843 C347.300283,336.89 328.620418,288.933384 360.147305,288.933384 C396.048824,288.951843 425.02293,385.761797 484.077391,292.543586 Z" id="Path" fill="url(#linearGradient-2)"></path>
                    <path d="M67.7606565,521.714332 L279.668835,483.497942 L461.459115,565.714558 C459.145667,572.089084 446.569368,570.636972 441.437942,570.02167 L77.678951,527.467403 C75.2916692,526.925938 68.9112279,523.449483 67.7606565,521.714332 Z" id="Path" fill="#4D33B7"></path>
                    <path d="M130.869805,360.751401 C117.275805,360.743936 105.016669,368.928639 99.8115976,381.487137 C94.6065257,394.045634 97.481187,408.50325 107.094479,418.115138 C116.70777,427.727026 131.165375,430.599145 143.722451,425.391579 C156.279526,420.184012 164.461678,407.92292 164.451723,394.328416 C164.448325,375.783347 149.414184,360.751401 130.869805,360.751401 Z M133.693935,411.126153 C132.761213,411.287233 131.816332,411.367521 130.869805,411.366121 C121.460491,411.366121 113.832735,403.73808 113.832735,394.328416 C113.832735,384.918751 121.460491,377.290711 130.869805,377.290711 C140.279119,377.290711 147.906876,384.918751 147.906876,394.328416 C147.908537,395.339832 147.815844,396.349198 147.63,397.343394 C146.363643,404.421 140.784895,409.938377 133.693935,411.126153 Z" id="Shape" fill="#3E269E" fill-rule="nonzero"></path>
                    <path d="M44.650784,141.002543 L53.6830771,180.572597 C53.8832032,181.439665 53.7080576,182.35093 53.2007645,183.082022 C52.6934713,183.813113 51.9011629,184.296107 51.0189198,184.41208 C33.1067924,186.695032 15.5559233,178.091465 6.38865526,162.533991 C-2.77861277,146.976517 -1.80097747,127.454184 8.87469297,112.890474 C19.5503634,98.3267645 37.8729581,91.519795 55.4673856,95.5809698 C56.1968537,95.7498385 56.8222338,96.2165631 57.1917052,96.8678393 C57.5611767,97.5191154 57.6409528,98.2953864 57.4116667,99.0082004 L44.7984509,137.710679 C44.45483,138.774852 44.4038252,139.911876 44.650784,141.002543 Z" id="Path" fill="#5233D3"></path>
                    <rect id="Rectangle" fill="#5233D3" x="0.344556139" y="228.732263" width="171.835069" height="18.5267349" rx="9.26336746"></rect>
                    <path d="M480.442064,369.083882 L479.359173,387.573698 L427.09739,387.573698 C421.991758,387.573698 417.852826,383.434612 417.852826,378.32879 C417.852826,373.222968 421.991758,369.083882 427.09739,369.083882 L480.442064,369.083882 Z" id="Path" fill="#5233D3"></path>
                    <ellipse id="Oval" fill="#DE962B" cx="299.357757" cy="182.412349" rx="20.8456464" ry="20.8464224"></ellipse>
                    <rect id="Rectangle" fill="#C97800" x="220.614374" y="249.000302" width="37.4212578" height="10.7554741" rx="5.37773707"></rect>
                    <rect id="Rectangle" fill="#C97800" x="239.140419" y="265.231961" width="75.2670581" height="10.7554741" rx="5.37773707"></rect>
                    <rect id="Rectangle" fill="#F96A00" x="95.9834959" y="228.892241" width="76.2945737" height="18.206778" rx="9.10338901"></rect>
                    <rect id="Rectangle" fill="#C97800" x="228.139234" y="283.771002" width="59.3559478" height="10.7554741" rx="5.37773707"></rect>
                    <rect id="Rectangle" fill="#C97800" x="250.141604" y="302.316196" width="75.2670581" height="10.7554741" rx="5.37773707"></rect>
                    <path d="M409.923361,223.409903 C409.923361,223.409903 411.769198,198.373276 432.485635,198.373276 C453.202073,198.373276 446.704729,184.153653 457.835123,184.153653 C470.503714,184.153653 467.415014,199.610032 477.302545,199.610032 C487.190075,199.610032 487.196228,193.118599 493.995059,193.118599 C502.344393,193.118599 505.740732,220.628739 505.740732,220.628739 L409.923361,223.409903 Z" id="Path" fill="#8E66DA"></path>
                    <path d="M409.89875,223.52681 C409.89875,223.52681 413.590423,209.19028 424.665442,206.378351 C435.74046,203.566422 433.451623,210.845442 442.742333,208.482683 C452.033044,206.119925 448.747455,192.275636 456.475357,192.238718 C467.402708,192.189494 461.44681,209.313341 478.077796,205.092371 C494.708783,200.871401 504.534785,215.75555 505.765343,220.54875 C490.992498,221.428631 409.89875,223.52681 409.89875,223.52681 Z" id="Path" fill="#5233D3"></path>
                    <path d="M22.0023706,332.841315 C22.0023706,332.841315 24.7649725,296.895388 44.6015617,302.845356 C61.9708828,308.056961 60.68495,313.268567 71.8153439,313.268567 C84.4900876,313.268567 81.659805,300.531821 88.0279408,300.531821 C94.3960766,300.531821 99.05989,313.84695 105.397262,308.635345 C111.734634,303.423739 117.819741,330.060151 117.819741,330.060151 L22.0023706,332.841315 Z" id="Path" fill="#8E66DA"></path>
                    <path d="M21.9777595,332.958222 C21.9777595,332.958222 25.9832246,320.338384 37.0767017,323.113394 C48.6562491,326.005313 49.2346112,317.901789 54.8336484,317.914095 C60.8141586,317.914095 63.5090798,326.626767 71.2369818,326.589849 C82.1643336,326.534472 81.5059853,314.17306 90.1691111,314.529935 C101.920937,315.009871 116.6261,325.186961 117.856658,329.980162 C103.083814,330.860043 21.9777595,332.958222 21.9777595,332.958222 Z" id="Path" fill="#5233D3"></path>
                    <path d="M469.03935,343.953664 L406.280911,343.953664 C402.54301,343.953664 399.512843,340.923384 399.512843,337.185345 L399.512843,295.689397 C399.529779,291.963377 402.554991,288.951804 406.280911,288.951843 L471.660438,288.951843 C473.519379,288.958833 475.293611,289.730155 476.566728,291.084784 C477.839846,292.439413 478.499759,294.258081 478.391588,296.113955 L475.764348,337.640668 C475.525525,341.183271 472.589832,343.93911 469.03935,343.953664 Z" id="Path" fill="url(#linearGradient-3)"></path>
                    <polygon id="Path" fill="#7D66DE" points="419.627826 332.362351 435.262061 317.305918 453.788106 324.831058 474.633753 308.039474 483.179975 308.254829 481.770987 332.362351"></polygon>
                    <polyline id="Path" stroke="#5233D3" points="237.983695 57.3461207 279.668835 32.4510129 323.095214 79.927694 420.364643 56.1893534"></polyline>
                    <ellipse id="Oval" fill="#7D66DE" cx="421.232186" cy="55.9001616" rx="2.02426732" ry="2.02434267"></ellipse>
                    <ellipse id="Oval" fill="#7D66DE" cx="322.806033" cy="80.2168858" rx="2.02426732" ry="2.02434267"></ellipse>
                    <ellipse id="Oval" fill="#7D66DE" cx="279.958016" cy="32.7402047" rx="2.02426732" ry="2.02434267"></ellipse>
                    <ellipse id="Oval" fill="#7D66DE" cx="237.694514" cy="58.2198491" rx="2.02426732" ry="2.02434267"></ellipse>
                    <polyline id="Path" stroke="#5233D3" points="399.808177 14.2134698 423.551787 23.4799138 462.338964 2.05510776 506.343705 32.7402047 538.190537 20.5818427"></polyline>
                    <ellipse id="Oval" fill="#7D66DE" cx="399.808177" cy="14.2134698" rx="2.02426732" ry="2.02434267"></ellipse>
                    <ellipse id="Oval" fill="#7D66DE" cx="422.967272" cy="23.4737608" rx="2.02426732" ry="2.02434267"></ellipse>
                    <ellipse id="Oval" fill="#7D66DE" cx="462.338964" cy="2.05510776" rx="2.02426732" ry="2.02434267"></ellipse>
                    <ellipse id="Oval" fill="#7D66DE" cx="506.343705" cy="32.7402047" rx="2.02426732" ry="2.02434267"></ellipse>
                    <ellipse id="Oval" fill="#7D66DE" cx="538.190537" cy="21.1602263" rx="2.02426732" ry="2.02434267"></ellipse>
                    <path d="M65.6994724,183.322996 C64.1891109,183.851676 62.5248078,183.709585 61.1259165,182.932525 C59.7270252,182.155465 58.726941,180.817535 58.3776545,179.255851 L49.7083759,141.273276 C49.5920344,140.765846 49.6154242,140.236368 49.7760565,139.741175 L62.6353839,100.294181 C62.8819895,99.5469988 63.4217927,98.9322077 64.1307847,98.5910434 C64.8397766,98.249879 65.6570084,98.21167 66.3947375,98.485194 C84.0105727,105.099268 95.6829057,121.939233 95.6943149,140.756422 C95.6944744,159.85807 83.6873718,176.897707 65.6994724,183.322996 Z" id="Path" fill="#DE962B"></path>
                    <path d="M337.96035,406.622144 C336.489834,414.971789 329.807906,420.774084 323.039839,419.543481 C321.919949,419.345953 320.840762,418.963337 319.846542,418.411325 C314.985839,415.72861 312.217084,409.212565 313.441489,402.271961 C314.912006,393.92847 321.593934,388.120022 328.362001,389.31986 C331.97984,389.935162 334.890109,392.457899 336.588279,395.922047 C338.165913,399.253814 338.646299,403.000097 337.96035,406.622144 Z" id="Path" fill="#976E33"></path>
                    <polygon id="Path" fill="#3E269E" points="290.091658 528.661088 316.548647 555.408254 418.494195 567.338955 325.408662 528.082705 318.437553 528.371897 356.09877 554.140733 350.887358 557.032651 303.990807 534.451078"></polygon>
                    <path d="M330.620074,471.936422 C330.620074,471.936422 325.697843,471.19806 319.6435,470.152047 C309.626761,468.42305 296.533627,465.844935 297.616518,464.411282 C299.357757,462.091595 302.249568,447.041315 305.147531,433.720032 C307.393299,423.389116 316.960884,420.72486 321.14478,420.048028 C321.7947,419.939899 322.449848,419.865961 323.10752,419.826519 C323.10752,423 324.137934,435.793148 325,447 C326,460 330.620074,471.936422 330.620074,471.936422 Z" id="Path" fill="#755CDC"></path>
                    <path d="M303.990807,533.29431 C303.450797,534.01051 302.591758,534.413559 301.695817,534.371088 C297.770338,534.543373 290.891521,530.500841 289.513296,528.661088 C287.77821,526.347554 291.826744,526.347554 295.30307,526.347554 C298.779395,526.347554 301.683511,523.449483 301.683511,523.449483 L305.178295,523.449483 C305.178295,523.449483 305.264434,523.929418 305.34442,524.680086 C305.522851,526.735194 305.670518,530.771573 303.990807,533.29431 Z" id="Path" fill="#291A6A"></path>
                    <path d="M275.029633,418.651293 L272.131669,486.949784 C272.443361,487.264252 272.849814,487.467486 273.288394,487.528168 C273.4428,487.531563 273.59189,487.471717 273.701098,487.362505 C273.810307,487.253292 273.87015,487.104197 273.866756,486.949784 L276.764719,418.651293 L275.029633,418.651293 Z" id="Path" fill="#150A43"></path>
                    <path d="M323.101367,518.237877 C323.101367,518.237877 320.197251,521.16056 316.727078,521.16056 C313.256906,521.16056 309.202218,521.16056 310.937305,523.474095 C312.672391,525.787629 323.095214,531.583772 325.408662,528.107317 C327.722111,524.630862 326.571539,518.262489 326.571539,518.262489 L323.101367,518.237877 Z" id="Path" fill="#1F0E65"></path>
                    <path d="M276.518607,418.651293 L301.412788,496.234688 C301.571107,496.386685 301.660601,496.596671 301.660601,496.816148 C301.660601,497.035624 301.571107,497.24561 301.412788,497.397608 C300.834426,497.975991 299.677702,497.397608 299.677702,497.397608 L274.783521,418.638987 L276.518607,418.651293 Z" id="Path" fill="#3E269E"></path>
                    <polygon id="Path" fill="#3E269E" points="272.143975 486.396013 339.886173 558.189418 344.519223 558.767802 273.879061 486.396013"></polygon>
                    <polygon id="Path" fill="#3E269E" points="299.357757 492.764386 400.681873 565.714558 405.887132 565.714558 301.092843 492.764386"></polygon>
                    <path d="M328.829613,471.936422 C328.829613,471.936422 325.408662,477.726412 325.408662,481.78125 C325.408662,485.836088 328.306626,512.466347 327.149901,517.677953 C325.993177,522.889558 322.516852,518.83472 322.516852,518.83472 C321.223611,511.726587 319.285682,504.751018 316.727078,497.99445 C312.672391,487.571239 308.039341,474.249957 308.039341,474.249957 L308.070105,467.62931 L328.829613,471.936422 Z" id="Path" fill="#150A43"></path>
                    <path d="M319.231263,470.090517 C319.231263,470.090517 316.727078,482.396552 312.672391,487.583545 C308.617703,492.770539 307.460979,521.745097 306.304255,524.637015 C306.054127,525.49167 305.336839,526.127689 304.458419,526.273718 C303.680065,526.351848 302.896801,526.183999 302.218804,525.793782 C302.218804,525.793782 299.905355,526.378319 297.585754,504.953513 C296.21191,491.874594 296.817588,478.663284 299.382368,465.764946 L308.254689,467.660075 L319.231263,470.090517 Z" id="Path" fill="#291386"></path>
                    <path d="M315.545743,396.094332 L315.514979,396.094332 L314.284421,397.521832 L246.074611,348.260776 L246.031542,348.230011 L243.914983,346.697909 L241.749201,345.135043 L238.562057,342.827662 C238.562057,342.827662 235.485663,336.342381 243.195106,335.880905 C244.291035,336.504627 245.334309,337.216632 246.31457,338.009849 C246.794488,338.366724 247.323627,338.76667 247.889684,339.203534 C264.336087,351.909515 315.545743,396.094332 315.545743,396.094332 Z" id="Path" fill="url(#linearGradient-4)"></path>
                    <path d="M323.095214,419.80806 C323.095214,419.80806 322.633755,420.669483 321.809281,421.973922 L321.809281,422.010841 C319.046679,426.361024 312.278612,435.479795 305.196753,433.701573 C295.930654,431.388039 291.297605,421.543211 290.14088,415.753222 C289.636352,413.230485 290.343922,408.369601 291.297605,403.748685 C292.528162,397.731034 294.195568,392.014881 294.195568,392.014881 C293.566963,390.943333 292.785551,389.969122 291.875967,389.122963 C290.14088,387.381659 291.875967,386.224892 290.14088,383.911358 C288.405794,381.597823 285.507831,383.332974 290.14088,379.856519 C293.567983,377.284558 295.721459,380.096487 297.315031,382.933028 C297.881088,383.923664 298.373311,384.9143 298.828617,385.671121 C300.317592,388.132328 297.979533,397.841789 298.367158,406.031455 C298.422228,407.359904 298.576477,408.682383 298.828617,409.987845 C299.290076,412.307532 301.234358,414.085754 303.84314,415.451724 C310.611207,418.989709 321.741601,419.758836 323.021381,419.820366 L323.095214,419.80806 Z" id="Path" fill="#9F7942"></path>
                    <path d="M322.972158,419.795754 L321.790823,421.973922 L321.790823,422.010841 C319.028221,426.361024 312.260154,435.479795 305.178295,433.701573 C295.912196,431.388039 291.279146,421.543211 290.122422,415.753222 C289.617893,413.230485 290.325464,408.369601 291.279146,403.748685 L295.383056,405.059278 L298.3487,406.006843 C298.403769,407.335292 298.558018,408.65777 298.810159,409.963233 C299.271618,412.28292 301.215899,414.061142 303.824681,415.427112 C310.531221,418.965097 321.692378,419.721918 322.972158,419.795754 Z" id="Path" fill="#755CDC"></path>
                    <polygon id="Path" fill="#5233D3" points="274.617396 369.439461 274.574326 418.651293 276.518607 418.651293 276.518607 369.433308"></polygon>
                    <path d="M275.029633,418.651293 L250.141604,496.234688 C249.983286,496.386685 249.893791,496.596671 249.893791,496.816148 C249.893791,497.035624 249.983286,497.24561 250.141604,497.397608 C250.719966,497.975991 251.876691,497.397608 251.876691,497.397608 L276.777024,418.638987 L275.029633,418.651293 Z" id="Path" fill="#5233D3"></path>
                    <polygon id="Path" fill="#3E269E" points="250.141604 497.397608 301.671206 553.673103 306.451922 554.226875 251.882843 497.397608"></polygon>
                    <path d="M243.914983,346.667144 L241.749201,345.104278 C241.68877,343.443966 242.199082,341.81308 243.195106,340.483362 C244.011194,339.402841 245.083188,338.542253 246.31457,337.979084 C246.794488,338.335959 247.323627,338.735905 247.889684,339.172769 C246.296112,339.960356 243.551968,342.003157 243.914983,346.667144 Z" id="Path" fill="#5233D3"></path>
                    <path d="M274.457423,369.433308 C274.457423,369.433308 273.300699,364.221703 277.355387,362.486552 C278.512111,362.486552 278.512111,364.221703 278.512111,364.221703 C278.512111,364.221703 276.198662,365.37847 276.777024,369.433308 C276.961608,370.713136 274.457423,369.433308 274.457423,369.433308 Z" id="Path" fill="#755CDC"></path>
                    <rect id="Rectangle" fill="#F96A00" x="314.991992" y="104.250571" width="138.376207" height="10.4232112" rx="5.2116056"></rect>
                    <path d="M303.793917,415.427112 C303.186561,416.025776 302.291319,416.226318 301.486622,415.943966 C298.412459,414.88972 296.091155,412.33619 295.333834,409.175647 C295.206247,407.80649 295.206247,406.428435 295.333834,405.059278 C295.641473,399.300054 296.625919,389.061433 297.247351,382.908416 C297.813407,383.899052 298.30563,384.889688 298.760937,385.646509 C300.249911,388.107716 297.911852,397.817177 298.299478,406.006843 C298.354547,407.335292 298.508796,408.65777 298.760937,409.963233 C299.240854,412.28292 301.185135,414.061142 303.793917,415.427112 Z" id="Path" fill="#7C4A00"></path>
                    <rect id="Rectangle" fill="#F96A00" x="336.98821" y="72.9809375" width="78.7433834" height="10.4232112" rx="5.2116056"></rect>
                    <rect id="Rectangle" fill="#5233D3" x="397.205548" y="104.250571" width="138.376207" height="10.4232112" rx="5.2116056"></rect>
                    <path d="M162.433609,405.293093 C158.978327,414.705549 151.507947,422.088238 142.055574,425.431918 L133.712393,410.547769 C140.803354,409.359993 146.382101,403.842616 147.648458,396.765011 L162.433609,405.293093 Z" id="Path" fill="#6551B1"></path>
                    <rect id="Rectangle" fill="#5233D3" x="405.30877" y="72.9809375" width="47.4749138" height="10.4232112" rx="5.2116056"></rect>
                    <path d="M337.96035,406.622144 C336.489834,414.971789 329.807906,420.774084 323.039839,419.543481 C321.919949,419.345953 320.840762,418.963337 319.846542,418.411325 C319.846542,418.411325 326.614609,414.848728 327.943611,412.836692 C330.171859,409.359807 331.248264,405.269317 331.020005,401.145959 L336.557515,395.922047 C338.145573,399.250433 338.636748,402.996855 337.96035,406.622144 Z" id="Path" fill="#7C4A00"></path>
                    <path d="M332.02291,417.063815 C330.084781,413.950388 331.050769,408.923373 330.712366,404.966983 C330.687755,404.69625 330.656991,404.43167 330.620074,404.173244 C330.041712,400.118405 327.149901,397.226487 321.93849,394.943718 C316.727078,392.660948 317.30544,388.569192 317.30544,388.569192 C316.271772,381.314784 327.76518,378.724364 337.665016,388.21847 C338.895049,389.398415 340.024898,390.678546 341.042897,392.045647 C351.46572,405.908394 334.096399,420.386444 332.02291,417.063815 Z" id="Path" fill="#150A43"></path>
                    <path d="M332.02291,417.063815 C330.084781,413.950388 331.050769,408.923373 330.712366,404.966983 C330.712366,404.966983 335.634596,399.152381 336.557515,396.869612 C337.345071,394.925259 337.665016,388.187705 337.665016,388.187705 C338.895049,389.36765 340.024898,390.647781 341.042897,392.014881 C351.46572,405.908394 334.096399,420.386444 332.02291,417.063815 Z" id="Path" fill="#0B0522"></path>
                    <path d="M309,417.5 C308.384721,418.059925 302.397235,416.245463 301.486622,415.943966 C298.412459,414.88972 296.091155,412.33619 295.333834,409.175647 C295.206247,407.80649 295.206247,406.428435 295.333834,405.059278 L298.5,406 C298.555069,407.32845 298.747859,408.694538 299,410 C299.739063,412.536767 301.5,415 309,417.5 Z" id="Path" fill="#31236B"></path>
                    <path d="M303.990807,533.29431 C303.450797,534.01051 302.591758,534.413559 301.695817,534.371088 C302.532596,533.417371 303.332458,526.082974 303.332458,526.082974 L305.313656,524.704698 C305.522851,526.735194 305.670518,530.771573 303.990807,533.29431 Z" id="Path" fill="#1B0E50"></path>
                    <path d="M325.525565,527.756595 C324.985556,528.472794 324.126516,528.875844 323.230575,528.833373 C324.067355,527.879655 324.867217,520.545259 324.867217,520.545259 L326.848415,519.166983 C327.05761,521.197478 327.205277,525.233858 325.525565,527.756595 Z" id="Path" fill="#1B0E50"></path>
                    <path d="M319.231263,470.090517 C321.778517,474.003836 316.727078,482.396552 312.672391,487.583545 C308.617703,492.770539 307.559424,521.960453 306.408852,524.852371 C305.972004,525.953761 303.947737,526.384472 303.332458,526.082974 C303.043277,525.941455 303.332458,524.852371 303.332458,523.006466 C303.332458,519.800744 302.717179,511.315733 302.78486,494.493384 C302.846388,478.194041 307.620952,467.949267 308.236231,467.660075 C310.783485,466.46639 317.693066,467.703147 319.231263,470.090517 Z" id="Path" fill="#150A43"></path>
                    <path d="M330.620074,471.936422 C330.620074,471.936422 324.928745,471.191907 319.329708,470.090517 C314.985839,469.247554 310.900388,468.084634 308.254689,467.62931 C309.485247,462.706897 310.217428,457.083039 311.331083,452.246767 C313.176919,444.247845 313.176919,439.940733 313.792198,432.557112 C314.715116,421.481681 321.132475,420.029569 321.132475,420.029569 C321.782395,419.92144 322.437543,419.847502 323.095214,419.80806 C329.97712,418.879817 332.079171,431.622987 330.620074,439 C328,452.246767 330.620074,471.936422 330.620074,471.936422 Z" id="Path" fill="#412E8F"></path>
                </g>
            </g>
        </g>
    </g>
</svg>