<?xml version="1.0" encoding="UTF-8"?>
<svg width="101px" height="40px" viewBox="0 0 101 40" version="1.1" xmlns="http://www.w3.org/2000/svg" xmlns:xlink="http://www.w3.org/1999/xlink">
    <title>logos/dark/anuvad_logo</title>
    <g id="Page-1" stroke="none" stroke-width="1" fill="none" fill-rule="evenodd">
        <g id="Gov-tech" transform="translate(-158.000000, -1217.000000)" fill-rule="nonzero">
            <g id="logos/dark/anuvad_logo" transform="translate(158.000000, 1217.000000)">
                <path d="M6.59246377,6.56347826 C11.3028019,6.56347826 13.657971,8.25623188 13.657971,11.6417391 L13.657971,27.7704348 L11.5466667,27.7704348 L11.5466667,26.2771014 C11.0928375,26.5953144 10.6179292,26.8823511 10.1252174,27.1362319 C9.12038647,27.657971 7.75613527,27.9192271 6.03246377,27.92 C2.0131401,27.92 0.00347826087,26.2523671 0.00347826087,22.9171014 L0.00347826087,21.7217391 C0.00347826087,19.2583575 1.72676329,17.6030918 5.17333333,16.755942 L11.5501449,15.1884058 L11.5501449,11.6417391 C11.5501449,10.5217391 11.1984541,9.69391304 10.4950725,9.15826087 C9.79169082,8.6226087 8.45487923,8.35516908 6.48463768,8.35594203 C4.51748792,8.35594203 2.72927536,8.60483092 1.12,9.1026087 L1.12,7.23594203 C2.72850242,6.7884058 4.552657,6.56425121 6.59246377,6.56347826 Z M2.11130435,21.7971014 L2.11130435,22.9565217 C2.11130435,24.102029 2.42048309,24.9422222 3.03884058,25.4771014 C3.65719807,26.0119807 4.69835749,26.2794203 6.16231884,26.2794203 C8.25855072,26.2794203 10.0537198,25.7070531 11.5478261,24.5623188 L11.5478261,16.9449275 L5.85971014,18.3246377 C4.45217391,18.697971 3.47555556,19.1458937 2.92985507,19.6684058 C2.38415459,20.1909179 2.11130435,20.9004831 2.11130435,21.7971014 Z" id="Shape" fill="#FFFFFF"></path>
                <path d="M22.0162319,7.72173913 C24.0258937,7.02608696 25.8284058,6.67826087 27.4237681,6.67826087 C29.0191304,6.67826087 30.3404831,7.11381643 31.3878261,7.98492754 C32.435942,8.85681159 32.9603865,10.0765217 32.9611594,11.644058 L32.9611594,27.7704348 L30.8057971,27.7704348 L30.8057971,11.6417391 C30.8057971,9.47748792 29.5710145,8.39536232 27.1014493,8.39536232 C25.5501449,8.39536232 23.8697585,8.76869565 22.0602899,9.51536232 L22.0602899,27.7704348 L19.9049275,27.7704348 L19.9049275,6.75014493 L22.0162319,6.75014493 L22.0162319,7.72173913 Z" id="Path" fill="#FFFFFF"></path>
                <path d="M49.8933333,6.75014493 L52.0475362,6.75014493 L52.0475362,27.7704348 L49.9362319,27.7704348 L49.9362319,26.7628986 C48.6144928,27.5095652 46.9843478,27.8828986 45.0457971,27.8828986 C43.1072464,27.8828986 41.6135266,27.4160386 40.5646377,26.4823188 C39.5165217,25.549372 38.9924638,24.211401 38.9924638,22.4684058 L38.9924638,6.75014493 L41.1466667,6.75014493 L41.1466667,22.4684058 C41.1466667,24.9828019 42.5109179,26.24 45.2394203,26.24 C46.0558798,26.2422016 46.8685535,26.129005 47.6533333,25.9037681 C48.4432686,25.6733234 49.1971992,25.3338204 49.8933333,24.8950725 L49.8933333,6.75014493 Z" id="Path" fill="#FFFFFF"></path>
                <path d="M67.9895652,1.72289855 L0,1.72289855 L0,0 L74.2365217,0 L74.2365217,1.72289855 L69.9281159,1.72289855 L69.9281159,27.7472464 L67.9895652,27.7472464 L67.9895652,23.955942 C67.0991304,24.3578744 65.6556522,24.5588406 63.6591304,24.5588406 C61.6626087,24.5588406 60.1259903,24.0919807 59.0492754,23.1582609 C57.9717874,22.226087 57.4330435,20.8977778 57.4330435,19.1733333 L57.4330435,11.3321739 C57.4330435,9.69429952 57.978744,8.3942029 59.0701449,7.43188406 C60.1615459,6.46956522 61.6985507,5.98879227 63.6811594,5.98956522 C65.6622222,5.98956522 67.0983575,6.1905314 67.9895652,6.59246377 L67.9895652,1.72289855 Z M67.9895652,8.40231884 C67.0705314,8.00038647 65.7491787,7.79903382 64.0255072,7.79825952 C62.3018357,7.79748792 61.0952657,8.12792271 60.4057971,8.78956522 C59.7171014,9.45043478 59.3723671,10.3122705 59.3715942,11.3750725 L59.3715942,19.1733333 C59.3715942,21.5578744 60.8224155,22.7497585 63.724058,22.7489859 C65.6765217,22.7489859 67.0983575,22.5480193 67.9895652,22.146087 L67.9895652,8.40231884 Z" id="Shape" fill="#1C9AB7"></path>
                <polygon id="Path" fill="#1C9AB7" points="76.822029 1.72289855 72.5136232 1.72289855 72.5136232 0 83.0643478 0 83.0643478 1.72289855 78.7605797 1.72289855 78.7605797 27.7472464 76.822029 27.7472464"></polygon>
                <path d="M84.2318841,19.0005797 L84.2318841,11.0736232 C84.2318841,7.71207729 86.2415459,6.03169082 90.2608696,6.03246377 L93.9223188,6.03246377 L93.9223188,1.72289855 L81.3449275,1.72289855 L81.3449275,0 L100.173913,0 L100.173913,1.72289855 L95.8655072,1.72289855 L95.8655072,7.84231884 L90.2643478,7.84231884 C88.7408696,7.84231884 87.6780676,8.11516908 87.075942,8.66086957 C86.4738164,9.20657005 86.1719807,10.0108213 86.1704348,11.0736232 L86.1704348,19.0005797 C86.1704348,21.4137198 87.7074396,22.6202899 90.7814493,22.6202899 C92.1286987,22.6205374 93.4720703,22.4759384 94.7884058,22.1889855 L94.7884058,17.9234783 L96.5982609,17.9234783 L96.5982609,28.173913 L94.7884058,28.173913 L94.7884058,24 C93.6104348,24.2875362 92.1383575,24.4313043 90.3721739,24.4313043 C88.6059903,24.4313043 87.1408696,23.9501449 85.9768116,22.9878261 C84.8142995,22.0247343 84.232657,20.6956522 84.2318841,19.0005797 Z" id="Path" fill="#1C9AB7"></path>
                <path d="M2.35710145,36.4301449 L2.35710145,36.822029 C2.35710145,37.2417391 2.1978744,37.5122705 1.87942029,37.6336232 C2.22724638,37.7495652 2.39768116,38.0278261 2.39768116,38.4707246 L2.39768116,38.8892754 C2.41710445,39.1710683 2.31693441,39.448009 2.12173913,39.6521739 C1.9373913,39.8272464 1.66724638,39.9142029 1.31014493,39.9142029 L0,39.9142029 L0,35.4075362 L1.2684058,35.4075362 C1.62705314,35.4075362 1.89758454,35.4948792 2.08,35.6695652 C2.26550725,35.8446377 2.35710145,36.0973913 2.35710145,36.4301449 Z M1.19768116,35.9443478 L0.623768116,35.9443478 L0.623768116,37.3657971 L1.19536232,37.3657971 C1.5578744,37.3657971 1.73951691,37.1930435 1.74028986,36.8475362 L1.74028986,36.4556522 C1.73951691,36.1132367 1.5578744,35.942029 1.19536232,35.942029 L1.19768116,35.9443478 Z M1.7773913,38.8602899 L1.7773913,38.4347826 C1.7773913,38.093913 1.59574879,37.9234783 1.23246377,37.9234783 L0.623768116,37.9234783 L0.623768116,39.3715942 L1.23478261,39.3715942 C1.59806763,39.3715942 1.77971014,39.2011594 1.77971014,38.8602899 L1.7773913,38.8602899 Z" id="Shape" fill="#878787"></path>
                <path d="M3.77855072,38.1565217 L3.77855072,39.9095652 L3.15478261,39.9095652 L3.15478261,35.4075362 L4.36289855,35.4075362 C4.71613527,35.4075362 4.98666667,35.4960386 5.17449275,35.6730435 C5.36927016,35.8656567 5.4726084,36.1322272 5.45855072,36.4057971 L5.45855072,37.1234783 C5.45855072,37.6150725 5.27033816,37.9315942 4.89391304,38.0730435 L5.6115942,39.906087 L4.91594203,39.906087 L4.27710145,38.1565217 L3.77855072,38.1565217 Z M3.77855072,35.9536205 L3.77855072,37.6336232 L4.30956522,37.6336232 C4.45502267,37.6473855 4.59992886,37.602285 4.71188406,37.5084058 C4.80149112,37.4005846 4.84557375,37.2620986 4.83478261,37.1223188 L4.83478261,36.4521739 C4.83478261,36.1190338 4.65971014,35.9528502 4.30956522,35.9536205 L3.77855072,35.9536205 Z" id="Shape" fill="#878787"></path>
                <polygon id="Path" fill="#878787" points="6.23536232 35.4075362 8.28753623 35.4075362 8.28753623 35.9582609 6.86028986 35.9582609 6.86028986 37.3588406 8.10202899 37.3588406 8.10202899 37.9130435 6.86028986 37.9130435 6.86028986 39.3669565 8.28753623 39.3669565 8.28753623 39.9118841 6.23536232 39.9118841"></polygon>
                <path d="M10.8104348,39.9095652 L10.5646377,38.7142029 L9.44927536,38.7142029 L9.20347826,39.9095652 L8.59246377,39.9095652 L9.57565217,35.4075362 L10.4521739,35.4075362 L11.4214493,39.9095652 L10.8104348,39.9095652 Z M9.55594203,38.1704348 L10.4521739,38.1704348 L10.0011594,35.986087 L9.55594203,38.1704348 Z" id="Shape" fill="#878787"></path>
                <path d="M11.9269565,35.4075362 L12.5507246,35.4075362 L12.5507246,39.9095652 L11.9269565,39.9095652 L11.9269565,35.4075362 Z M13.6730435,35.4075362 L14.3443478,35.4075362 L13.4342029,37.6313043 L14.4034783,39.9095652 L13.7078261,39.9095652 L12.7710145,37.6452174 L13.6730435,35.4075362 Z" id="Shape" fill="#878787"></path>
                <polygon id="Path" fill="#878787" points="14.902029 35.4075362 15.5362319 35.4075362 15.5362319 39.9095652 14.9055072 39.9095652"></polygon>
                <path d="M18.2886957,35.4075362 L18.9055072,35.4075362 L18.9055072,39.9095652 L18.2423188,39.9095652 C17.5466667,38.1317874 17.0925604,36.9542029 16.88,36.3768116 C16.88,36.4255072 16.8892754,36.5275362 16.9066667,36.6817391 C16.9429952,37.0682126 16.9607729,37.4956522 16.96,37.964058 L16.96,39.9095652 L16.3478261,39.9095652 L16.3478261,35.4075362 L17.0191304,35.4075362 C17.6336232,36.9657971 18.0077295,37.9319807 18.1414493,38.306087 C18.2751691,38.6801932 18.3501449,38.8904348 18.3663768,38.9368116 C18.3663768,38.8973913 18.3547826,38.7049275 18.3304348,38.3489855 C18.306087,37.9930435 18.2910145,37.6533333 18.2875362,37.3298551 L18.2886957,35.4075362 Z" id="Path" fill="#878787"></path>
                <path d="M19.6626087,36.4057971 C19.6478077,36.1158012 19.7696678,35.835609 19.9918841,35.6486957 C20.210628,35.4670531 20.5437681,35.3762052 20.9913043,35.3762052 C21.2763256,35.3750365 21.5600895,35.4140687 21.8342029,35.4921739 L21.8342029,36.0904348 C21.564319,36.0005897 21.2815431,35.9555492 20.9971014,35.9571014 C20.5333333,35.9571014 20.2933333,36.1252174 20.2933333,36.4614493 L20.2933333,38.9055072 C20.2933333,39.2247343 20.48657,39.3843478 20.8730435,39.3843478 C21.0447407,39.3948416 21.2157243,39.3545153 21.3646377,39.2684058 L21.3646377,37.6452174 L21.9826087,37.6452174 L21.9826087,39.6834783 C21.6490692,39.8632255 21.2750799,39.9546273 20.8962319,39.9489855 C20.4962319,39.9489855 20.1889855,39.8666667 19.9768116,39.7008696 C19.7646377,39.5350725 19.657971,39.2857971 19.657971,38.9530435 L19.6626087,36.4057971 Z" id="Path" fill="#878787"></path>
                <path d="M23.9930435,35.4075362 L25.293913,35.4075362 C25.6486957,35.4075362 25.9192271,35.4960386 26.1055072,35.6730435 C26.2996054,35.8700793 26.4011362,36.1401259 26.3849275,36.4162319 L26.3849275,38.8730435 C26.4010125,39.1513687 26.3064071,39.4247659 26.1217391,39.6336232 C25.9470531,39.8183575 25.6803865,39.9103382 25.3217391,39.90957 L23.9930435,39.90957 L23.9930435,35.4075362 Z M25.7588406,36.435942 C25.7588406,36.0997101 25.5841546,35.9315942 25.2347826,35.9315942 L24.6168116,35.9315942 L24.6168116,39.3646377 L25.2347826,39.3646377 C25.5833816,39.3646377 25.7580676,39.1899517 25.7588406,38.8405797 L25.7588406,36.435942 Z" id="Shape" fill="#878787"></path>
                <path d="M27.0666667,36.435942 C27.0529298,36.1399932 27.1624968,35.8515925 27.3692754,35.6394203 C27.5710145,35.44 27.8697585,35.3402899 28.2655072,35.3402899 C28.661256,35.3402899 28.9611594,35.4411594 29.1652174,35.6428986 C29.372843,35.8533384 29.4837077,36.1405788 29.4713043,36.435942 L29.4713043,38.8869565 C29.4842919,39.1813869 29.3732673,39.4677799 29.1652174,39.6765217 C28.9627053,39.875942 28.6639614,39.9756522 28.2689855,39.9756522 C27.8740097,39.9756522 27.5752657,39.875942 27.3727536,39.6765217 C27.1647037,39.4677799 27.0536791,39.1813869 27.0666667,38.8869565 L27.0666667,36.435942 Z M28.8463768,36.4556522 C28.8463768,36.0931401 28.6531401,35.9118841 28.2666667,35.9118841 C27.8801932,35.9118841 27.6869565,36.0931401 27.6869565,36.4556522 L27.6869565,38.8602899 C27.6869565,39.2274396 27.8801932,39.4110145 28.2666667,39.4110145 C28.6531401,39.4110145 28.8463768,39.2274396 28.8463768,38.8602899 L28.8463768,36.4556522 Z" id="Shape" fill="#878787"></path>
                <path d="M33.1501449,35.4075362 L33.7217391,35.4075362 L33.026087,39.9095652 L32.3594203,39.9095652 C32.058744,38.0637681 31.8817391,36.8838647 31.8284058,36.3698551 C31.7882126,36.8575845 31.7294686,37.3333333 31.6521739,37.7971014 L31.3043478,39.9095652 L30.6086957,39.9095652 L29.9130435,35.4075362 L30.4927536,35.4075362 L30.857971,37.7263768 L31.0098551,38.9356522 C31.0585507,38.5275362 31.1118841,38.124058 31.1698551,37.7263768 L31.5281159,35.4075362 L32.1078261,35.4075362 L32.4556522,37.7263768 L32.6144928,38.9147826 C32.6631884,38.4510145 32.7118841,38.0591304 32.7605797,37.7263768 L33.1501449,35.4075362 Z" id="Path" fill="#878787"></path>
                <path d="M36.173913,35.4075362 L36.7907246,35.4075362 L36.7907246,39.9095652 L36.1275362,39.9095652 C35.4318841,38.1317874 34.9777778,36.9542029 34.7652174,36.3768116 C34.7652174,36.4255072 34.7744928,36.5275362 34.7918841,36.6817391 C34.8282126,37.0682126 34.8459903,37.4956522 34.8452174,37.964058 L34.8452174,39.9095652 L34.2342029,39.9095652 L34.2342029,35.4075362 L34.9055072,35.4075362 C35.52,36.9657971 35.8941063,37.9319807 36.0278261,38.306087 C36.1615459,38.6801932 36.2365217,38.8904348 36.2527536,38.9368116 C36.2527536,38.8973913 36.2411594,38.7049275 36.2168116,38.3489855 C36.1924638,37.9930435 36.1773913,37.6533333 36.173913,37.3298551 L36.173913,35.4075362 Z" id="Path" fill="#878787"></path>
                <polygon id="Path" fill="#878787" points="38.8672464 35.4075362 39.497971 35.4075362 39.497971 39.9095652 38.8672464 39.9095652"></polygon>
                <path d="M42.253913,35.4075362 L42.8718841,35.4075362 L42.8718841,39.9095652 L42.2028986,39.9095652 C41.5072464,38.1317874 41.0535266,36.9542029 40.8417391,36.3768116 C40.8417391,36.4255072 40.8510145,36.5275362 40.8684058,36.6817391 C40.9047343,37.0682126 40.9225121,37.4956522 40.9217391,37.964058 L40.9217391,39.9095652 L40.3107246,39.9095652 L40.3107246,35.4075362 L40.9808696,35.4075362 C41.5992271,36.9657971 41.9733333,37.9319807 42.1031884,38.306087 L42.3292754,38.9368116 C42.3292754,38.8973913 42.3176812,38.7049275 42.2933333,38.3489855 C42.2689855,37.9930435 42.253913,37.6533333 42.2492754,37.3298551 L42.253913,35.4075362 Z" id="Path" fill="#878787"></path>
                <path d="M43.6950725,35.4075362 L44.9971014,35.4075362 C45.3503382,35.4075362 45.6208696,35.4960386 45.8086957,35.6730435 C46.0024961,35.8701979 46.103618,36.1402774 46.0869565,36.4162319 L46.0869565,38.8730435 C46.1033583,39.1512082 46.0091766,39.4245852 45.8249275,39.6336232 C45.6502415,39.8183575 45.3835749,39.9103382 45.0249275,39.90957 L43.6950725,39.90957 L43.6950725,35.4075362 Z M45.462029,36.435942 C45.462029,36.0997101 45.2869565,35.9315942 44.9368116,35.9315942 L44.32,35.9315942 L44.32,39.3646377 L44.9368116,39.3646377 C45.2869565,39.3646377 45.462029,39.1899517 45.462029,38.8405797 L45.462029,36.435942 Z" id="Shape" fill="#878787"></path>
                <polygon id="Path" fill="#878787" points="46.8405797 35.4075362 47.4713043 35.4075362 47.4713043 39.9095652 46.8405797 39.9095652"></polygon>
                <path d="M50.1762319,39.9095652 L49.9304348,38.7142029 L48.8115942,38.7142029 L48.5657971,39.9095652 L47.9547826,39.9095652 L48.937971,35.4075362 L49.8144928,35.4075362 L50.7826087,39.9095652 L50.1762319,39.9095652 Z M48.9217391,38.1704348 L49.817971,38.1704348 L49.3669565,35.986087 L48.9217391,38.1704348 Z" id="Shape" fill="#878787"></path>
                <path d="M51.564058,35.1304348 C51.7507246,35.1304348 51.8434783,35.2185507 51.8434783,35.395942 C51.8434783,35.6278261 51.6857971,36.0115942 51.3715942,36.5553623 L51.0666667,36.5553623 L51.3391304,35.1304348 L51.564058,35.1304348 Z" id="Path" fill="#878787"></path>
                <path d="M52.2017391,36.3628986 C52.1862869,36.084869 52.3001102,35.8152876 52.5101449,35.6324638 C52.7165217,35.4593237 53.0098551,35.3731401 53.3901449,35.373913 C53.70349,35.3636961 54.0164924,35.4028214 54.3176812,35.4898551 L54.3176812,36.0869565 C54.0388486,35.987499 53.7440607,35.9403329 53.4481159,35.9478261 C53.0361353,35.9478261 52.8301449,36.1004831 52.8301449,36.4057971 L52.8301449,36.6655072 C52.8239406,36.783023 52.8530115,36.8997102 52.9136232,37.0005797 C52.992552,37.1026996 53.0936459,37.185557 53.2092754,37.2428986 L53.9791304,37.6742029 C54.3174006,37.836382 54.5282878,38.1827096 54.5171014,38.5576812 L54.5171014,38.9298551 C54.5329502,39.2190953 54.4065584,39.4978499 54.1785507,39.6765217 C53.9520773,39.8512077 53.6343961,39.9385507 53.2255072,39.9385507 C52.891034,39.9498294 52.557153,39.9027487 52.2388406,39.7994203 L52.2388406,39.2023188 C52.5363453,39.3091232 52.8502862,39.3628856 53.1663768,39.3611594 C53.6486957,39.3611594 53.8898551,39.1972947 53.8898551,38.8695652 L53.8898551,38.6446377 C53.8962088,38.5365348 53.8708196,38.4289327 53.8168116,38.3350725 C53.7444978,38.2424786 53.6510747,38.1685352 53.5443478,38.1194203 L52.7942029,37.7078261 C52.42569,37.5371882 52.1934595,37.1642534 52.2028986,36.7582609 L52.2017391,36.3628986 Z" id="Path" fill="#878787"></path>
                <polygon id="Path" fill="#878787" points="56.3652174 35.4075362 56.995942 35.4075362 56.995942 39.3715942 58.3107246 39.3715942 58.3107246 39.9095652 56.3652174 39.9095652"></polygon>
                <path d="M60.6481159,39.9095652 L60.4057971,38.7142029 L59.2892754,38.7142029 L59.0434783,39.9095652 L58.4347826,39.9095652 L59.417971,35.4075362 L60.2898551,35.4075362 L61.2591304,39.9095652 L60.6481159,39.9095652 Z M59.3936232,38.1704348 L60.2898551,38.1704348 L59.8388406,35.986087 L59.3936232,38.1704348 Z" id="Shape" fill="#878787"></path>
                <path d="M63.7031884,35.4075362 L64.3211594,35.4075362 L64.3211594,39.9095652 L63.6521739,39.9095652 C62.9565217,38.1317874 62.5028019,36.9542029 62.2910145,36.3768116 C62.2910145,36.4255072 62.2991304,36.5275362 62.3176812,36.6817391 C62.3524638,37.0666667 62.3710145,37.4933333 62.3710145,37.964058 L62.3710145,39.9095652 L61.76,39.9095652 L61.76,35.4075362 L62.4301449,35.4075362 C63.0485024,36.9657971 63.4226087,37.9319807 63.5524638,38.306087 L63.7843478,38.9368116 C63.7843478,38.8973913 63.7715942,38.7049275 63.7472464,38.3489855 C63.7228986,37.9930435 63.7089855,37.6533333 63.7043478,37.3298551 L63.7031884,35.4075362 Z" id="Path" fill="#878787"></path>
                <path d="M65.0782609,36.4057971 C65.0631763,36.1159974 65.1845922,35.8358399 65.4063768,35.6486957 C65.6255072,35.4666667 65.9594203,35.3762052 66.4057971,35.3762052 C66.6911994,35.3750357 66.9753461,35.4140668 67.2498551,35.4921739 L67.2498551,36.0904348 C66.9799514,36.0006709 66.6971889,35.9556326 66.4127536,35.9571014 C65.9435749,35.9571014 65.7089855,36.1252174 65.7089855,36.4614493 L65.7089855,38.9055072 C65.7089855,39.2247343 65.9022222,39.3843478 66.2886957,39.3843478 C66.4603811,39.3947037 66.6313254,39.3543867 66.7802899,39.2684058 L66.7802899,37.6452174 L67.3971014,37.6452174 L67.3971014,39.6834783 C67.0654045,39.8596587 66.6943654,39.9486283 66.3188406,39.942029 C65.9176812,39.942029 65.6112077,39.8593237 65.3994203,39.693913 C65.186087,39.5281159 65.0805797,39.2788406 65.0805797,38.946087 L65.0782609,36.4057971 Z" id="Path" fill="#878787"></path>
                <path d="M69.8921739,35.4075362 L70.5171014,35.4075362 L70.5171014,38.8857971 C70.5302926,39.1795948 70.4206639,39.4656374 70.2144928,39.6753623 C70.0127536,39.8747826 69.7151691,39.9744928 69.3217391,39.9744928 C68.9283092,39.9744928 68.6303382,39.8747826 68.4278261,39.6753623 C68.2224389,39.465211 68.1133017,39.1793555 68.1263768,38.8857971 L68.1263768,35.4075362 L68.7536232,35.4075362 L68.7536232,38.8602899 C68.7536232,39.2274396 68.9441546,39.4110145 69.3252174,39.4110145 C69.7062802,39.4110145 69.8964251,39.2274396 69.8956522,38.8602899 L69.8921739,35.4075362 Z" id="Path" fill="#878787"></path>
                <path d="M73.2,39.9095652 L72.9542029,38.7142029 L71.8388406,38.7142029 L71.5930435,39.9095652 L70.982029,39.9095652 L71.964058,35.4075362 L72.8405797,35.4075362 L73.8110145,39.9095652 L73.2,39.9095652 Z M71.9443478,38.1704348 L72.8405797,38.1704348 L72.3895652,35.986087 L71.9443478,38.1704348 Z" id="Shape" fill="#878787"></path>
                <path d="M74.2492754,36.4057971 C74.2341908,36.1159974 74.3556067,35.8358399 74.5773913,35.6486957 C74.7969082,35.4670531 75.1300483,35.3762017 75.5768116,35.3762017 C75.861838,35.374959 76.1456128,35.4139927 76.4197101,35.4921739 L76.4197101,36.0904348 C76.150205,36.000674 75.8678242,35.9556341 75.5837681,35.9571014 C75.1145894,35.9571014 74.88,36.1252174 74.88,36.4614493 L74.88,38.9055072 C74.88,39.2247343 75.0732367,39.3843478 75.4597101,39.3843478 C75.6313955,39.3947037 75.8023399,39.3543867 75.9513043,39.2684058 L75.9513043,37.6452174 L76.5681159,37.6452174 L76.5681159,39.6834783 C76.2349393,39.8630816 75.861361,39.9544805 75.4828986,39.9489855 C75.0817391,39.9489855 74.7756522,39.8666667 74.5623188,39.7008696 C74.3489855,39.5350725 74.2446377,39.2857971 74.2446377,38.9530435 L74.2492754,36.4057971 Z" id="Path" fill="#878787"></path>
                <polygon id="Path" fill="#878787" points="77.3333333 35.4075362 79.3855072 35.4075362 79.3855072 35.9582609 77.9547826 35.9582609 77.9547826 37.3588406 79.1965217 37.3588406 79.1965217 37.9130435 77.9547826 37.9130435 77.9547826 39.3669565 79.382029 39.3669565 79.382029 39.9118841 77.3333333 39.9118841"></polygon>
                <path d="M83.6185507,36.4301449 L83.6185507,36.822029 C83.6185507,37.2417391 83.4593237,37.5122705 83.1408696,37.6336232 C83.4886957,37.7495652 83.6591304,38.0278261 83.6591304,38.4707246 L83.6591304,38.8892754 C83.6778894,39.170282 83.5777674,39.4462485 83.3831884,39.6498551 C83.1992271,39.825314 82.9286957,39.912657 82.5715942,39.9118891 L81.2614493,39.9118891 L81.2614493,35.4075362 L82.5298551,35.4075362 C82.8877295,35.4075362 83.1582609,35.4948792 83.3414493,35.6695652 C83.5269565,35.8446377 83.6185507,36.0973913 83.6185507,36.4301449 Z M82.4591304,35.9443478 L81.8875362,35.9443478 L81.8875362,37.3657971 L82.4591304,37.3657971 C82.8216425,37.3657971 83.0028986,37.1930435 83.0028986,36.8475362 L83.0028986,36.4556522 C83.0013527,36.1132367 82.8193237,35.942029 82.4568116,35.942029 L82.4591304,35.9443478 Z M83.0388406,38.8602899 L83.0388406,38.4347826 C83.0388406,38.093913 82.8571981,37.9234783 82.493913,37.9234783 L81.8828986,37.9234783 L81.8828986,39.3715942 L82.493913,39.3715942 C82.857971,39.3715942 83.0403865,39.2011594 83.0411594,38.8602899 L83.0388406,38.8602899 Z" id="Shape" fill="#878787"></path>
                <path d="M86.3084058,39.9095652 L86.0626087,38.7142029 L84.9472464,38.7142029 L84.7014493,39.9095652 L84.0904348,39.9095652 L85.0724638,35.4075362 L85.9501449,35.4075362 L86.9194203,39.9095652 L86.3084058,39.9095652 Z M85.0527536,38.1704348 L85.9501449,38.1704348 L85.497971,35.986087 L85.0527536,38.1704348 Z" id="Shape" fill="#878787"></path>
                <path d="M88.0475362,38.1565217 L88.0475362,39.9095652 L87.4202899,39.9095652 L87.4202899,35.4075362 L88.6284058,35.4075362 C88.9831884,35.4075362 89.2537198,35.4960386 89.44,35.6730435 C89.635284,35.8666807 89.7382686,36.1346939 89.7228986,36.4092754 L89.7228986,37.1269565 C89.7228986,37.6185507 89.534686,37.9350725 89.1582609,38.0765217 L89.8747826,39.9095652 L89.1791304,39.9095652 L88.5344928,38.1565217 L88.0475362,38.1565217 Z M88.0475362,35.9536205 L88.0475362,37.6336232 L88.5797101,37.6336232 C88.7248072,37.6473309 88.8693338,37.6022186 88.9808696,37.5084058 C89.0709178,37.4008266 89.1150591,37.2621562 89.1037681,37.1223188 L89.1037681,36.4521739 C89.1037681,36.1190338 88.9290821,35.9528502 88.5797101,35.9536205 L88.0475362,35.9536205 Z" id="Shape" fill="#878787"></path>
                <path d="M91.1304348,38.1565217 L91.1304348,39.9095652 L90.5066667,39.9095652 L90.5066667,35.4075362 L91.7101449,35.4075362 C92.0649275,35.4075362 92.3350725,35.4956522 92.5217391,35.6730435 C92.7165987,35.8668829 92.8191512,36.13487 92.8034783,36.4092754 L92.8034783,37.1269565 C92.8034783,37.6185507 92.6152657,37.9350725 92.2388406,38.0765217 L92.9565217,39.9095652 L92.2608696,39.9095652 L91.6173913,38.1565217 L91.1304348,38.1565217 Z M91.1304348,35.9536205 L91.1304348,37.6336232 L91.6614493,37.6336232 C91.8069067,37.6473855 91.9518129,37.602285 92.0637681,37.5084058 C92.1533752,37.4005846 92.1974578,37.2620986 92.1866667,37.1223188 L92.1866667,36.4521739 C92.1866667,36.1190338 92.0115942,35.9528502 91.6614493,35.9536205 L91.1304348,35.9536205 Z" id="Shape" fill="#878787"></path>
                <polygon id="Path" fill="#878787" points="93.586087 35.4075362 94.2168116 35.4075362 94.2168116 39.9095652 93.586087 39.9095652"></polygon>
                <polygon id="Path" fill="#878787" points="95.0342029 35.4075362 97.0863768 35.4075362 97.0863768 35.9582609 95.657971 35.9582609 95.657971 37.3588406 96.8997101 37.3588406 96.8997101 37.9130435 95.657971 37.9130435 95.657971 39.3669565 97.0863768 39.3669565 97.0863768 39.9118841 95.0342029 39.9118841"></polygon>
                <path d="M98.3408696,38.1565217 L98.3408696,39.9095652 L97.7171014,39.9095652 L97.7171014,35.4075362 L98.9252174,35.4075362 C99.28,35.4075362 99.5501449,35.4956522 99.7368116,35.6730435 C99.9316711,35.8668829 100.034224,36.13487 100.018551,36.4092754 L100.018551,37.1269565 C100.018551,37.6185507 99.8303382,37.9350725 99.453913,38.0765217 L100.173913,39.9095652 L99.4782609,39.9095652 L98.8347826,38.1565217 L98.3408696,38.1565217 Z M98.3408696,35.9536205 L98.3408696,37.6336232 L98.8718841,37.6336232 C99.0173415,37.6473855 99.1622477,37.602285 99.2742029,37.5084058 C99.36381,37.4005846 99.4078926,37.2620986 99.3971014,37.1223188 L99.3971014,36.4521739 C99.3971014,36.1190338 99.222029,35.9528502 98.8718841,35.9536205 L98.3408696,35.9536205 Z" id="Shape" fill="#878787"></path>
            </g>
        </g>
    </g>
</svg>