<?xml version="1.0" encoding="UTF-8"?>
<svg width="514px" height="565px" viewBox="0 0 514 565" version="1.1" xmlns="http://www.w3.org/2000/svg" xmlns:xlink="http://www.w3.org/1999/xlink">
    <title>Illustrations/aurora</title>
    <defs>
        <linearGradient x1="50.7514941%" y1="-0.239030023%" x2="49.5754263%" y2="78.3683834%" id="linearGradient-1">
            <stop stop-color="#442EBB" offset="0%"></stop>
            <stop stop-color="#25146A" offset="100%"></stop>
        </linearGradient>
        <linearGradient x1="-2.17957894e-14%" y1="50%" x2="100%" y2="50%" id="linearGradient-2">
            <stop stop-color="#3F27B4" offset="0%"></stop>
            <stop stop-color="#291773" offset="100%"></stop>
        </linearGradient>
        <linearGradient x1="-2.17957894e-14%" y1="50%" x2="100%" y2="50%" id="linearGradient-3">
            <stop stop-color="#000000" offset="0%"></stop>
            <stop stop-color="#291773" offset="100%"></stop>
        </linearGradient>
        <linearGradient x1="42.6200112%" y1="39.1500776%" x2="80.8161183%" y2="100%" id="linearGradient-4">
            <stop stop-color="#52379F" offset="0%"></stop>
            <stop stop-color="#312366" offset="100%"></stop>
        </linearGradient>
        <linearGradient x1="71.0742215%" y1="38.3323659%" x2="36.255409%" y2="60.7149117%" id="linearGradient-5">
            <stop stop-color="#3E29AB" stop-opacity="0" offset="0%"></stop>
            <stop stop-color="#95FDF9" offset="100%"></stop>
        </linearGradient>
    </defs>
    <g id="Screens" stroke="none" stroke-width="1" fill="none" fill-rule="evenodd">
        <g id="Aurora" transform="translate(-747.000000, -127.000000)">
            <g id="Illustrations/aurora" transform="translate(747.000000, 127.000000)">
                <g id="innov_illu-06-06" transform="translate(14.000000, 0.000000)">
                    <path d="M500,26.0969977 L500,538.903002 C499.957043,553.298131 488.307717,564.957008 473.924381,565 L38.4615385,565 C24.0782025,564.957008 12.4288762,553.298131 12.3859192,538.903002 L0,25.4445727 C0,11.091224 24.1199478,0 38.4615385,0 L473.924381,0 C488.307717,0.0429922085 499.957043,11.7018694 500,26.0969977 Z" id="Path" fill="url(#linearGradient-1)"></path>
                    <path d="M500,457.573643 L500,538.79845 C500,553.269166 488.35391,565 473.98773,565 L291.251534,565 L76,473.949612 L288.650307,396 L500,457.573643 Z" id="Path" fill="url(#linearGradient-2)"></path>
                    <path d="M374,480 L500,502.351 L500,538.79845 C500,553.269166 488.35391,565 473.98773,565 L372.872,565 L213,508.020013 L244.821839,493 L291,493 L374,480 Z" id="Combined-Shape" fill="url(#linearGradient-3)" opacity="0.556663876"></path>
                    <path d="M247,443.118308 C247,443.118308 237.341672,438.384233 233.345122,437.692116 C229.348573,437 224.685931,436.307884 223.353748,438.384233 C222.021565,440.460581 224.252972,445.499188 233.465019,446.786524 C242.677066,448.07386 247,443.118308 247,443.118308 Z" id="Path" fill="#5D49CD"></path>
                    <polygon id="Path" fill="#2A1976" points="212 509 244.821839 493 245 451 212 463.337662"></polygon>
                    <path d="M234.129101,445.323529 C234.129101,445.323529 235.390092,444.098039 239.80356,444.098039 C244.217028,444.098039 248,443.485294 248,445.323529 C248,447.161765 248,447.161765 246.108514,447.77451 C244.217028,448.387255 237.281578,449 237.281578,449 C237.281578,449 230.346129,447.77451 234.129101,445.323529 Z" id="Path" fill="#2A1976"></path>
                    <polygon id="Path" fill="#391C59" points="155 444.912139 155 489 187 474.381734 187 433"></polygon>
                    <polygon id="Path" fill="#5D49CD" points="212 463.347826 245 451 187.276596 433 154 445.888889"></polygon>
                    <polygon id="Path" fill="#432CB6" points="210 421.183673 210 446 202.690714 444.053878 183 438.816327 183 414 193.407857 416.76898"></polygon>
                    <path d="M195.205761,441 L195.205761,445.666667 C195.205761,445.666667 193.865731,447.666667 192.5257,448.333333 C191.18567,449 192.5257,451 195.205761,451 C197.885822,451 200.565883,451 199.895868,449.666667 C199.225853,448.333333 197.215807,446.333333 197.215807,445.666667 L197.215807,442.333333 L195.205761,441 Z" id="Path" fill="#432CB6"></path>
                    <polygon id="Path" fill="#2A1976" points="210 421.641026 211 421 211 444.717949 210 446"></polygon>
                    <path d="M247.457088,440.547677 C244.433163,442.237323 239.152873,443.376701 235.665765,442.884697 C233.813032,442.619274 232.729996,440.189916 232.498404,438.843378 C231.836713,434.959135 231.576518,419.831714 242.163565,417.242219 C242.163565,417.242219 247.503407,416.122262 250.944197,418.69881 C252.170847,419.63321 253.040243,420.944435 253.412302,422.421209 C255.397373,429.542322 252.088921,437.958182 247.457088,440.547677 Z" id="Path" fill="#432CB6"></path>
                    <polygon id="Path" fill="#2A1976" points="239 441.699164 239.527143 444 245.004286 444 243.5 441.049211 248 430 243.5 430"></polygon>
                    <path d="M250,418.706377 C248.616835,418.706377 244.800559,417.243298 241.657003,419.19407 C239.249039,420.689663 234.112469,423.095616 234.112469,437.401282 C234.112469,441.302828 234.741181,441.953085 235.48306,443 C233.722669,442.733394 232.446385,439.404076 232.226336,438.05154 C231.597625,434.149994 231.597625,419.844328 241.657003,417.243298 C241.657003,417.243298 246.730702,416.118352 250,418.706377 Z" id="Path" fill="#7664DB"></path>
                    <polygon id="Path" fill="#503BBB" points="202 444 183 438.771838 183 414 193.042769 416.764016"></polygon>
                    <g id="Group-3" transform="translate(271.000000, 360.000000)">
                        <polygon id="Path" fill="#20125B" points="9 104.966667 84.7658537 117 89 114.466667 42.3138211 100.533333 30.4634146 98 18.7560976 99.2666667 46.0731707 104.966667 19.4065041 103.085667"></polygon>
                        <path d="M25.5946162,1 C25.5946162,1 18.3729407,6.91185643 14.1679145,14.235102 C9.96288828,21.5583476 18.2423498,25.4396678 21.1871741,24.960328 C24.1319984,24.4809883 54.553143,13.6159549 25.5946162,1 Z" id="Path" fill="#936944"></path>
                        <path d="M15.9444308,104.995838 C15.2256173,105.020646 14.5074167,104.934413 13.8220437,104.741009 C11.8134755,104.148383 11.1439527,104.741009 9.1353845,104.741009 C7.12681626,104.741009 4.44872528,102.370504 7.12681626,101.777878 C9.45675541,101.262294 16.332754,100.302239 18.0935988,100.059263 L18.5087029,100 C19.9548721,103.85207 17.9396086,104.91287 15.9444308,104.995838 Z" id="Path" fill="#5D49CD"></path>
                        <path d="M29.9554457,96.700253 C29.4769377,99.6032781 25.6488738,98.3159056 25.6488738,98.3159056 C25.6488738,98.3159056 22.7714457,76.0829813 21.8208098,72.5684542 C21.6613072,71.9891366 21.4954244,71.4098189 21.3104013,70.843375 C20.870174,71.3905083 20.4108063,71.9569523 19.9067779,72.5684542 C16.7167246,76.4305719 18.6307566,99.6032781 18.6307566,99.6032781 C18.0877888,100.219297 17.3816509,100.665955 16.5955026,100.890651 C15.600206,101.160999 14.3050443,101 12.8886607,99.6032781 C10.9746287,83.5111211 12.7482983,61.9218831 12.7482983,61.9218831 C12.907801,60.2032407 14.285904,59.347138 16.0914742,59.0703528 L16.0914742,59.0703528 L16.1680354,59.0703528 C18.5006501,58.8307486 20.8549854,59.2055592 23.0011295,60.1581827 L24.4111331,60.3834729 L28.239197,60.988538 C28.239197,60.988538 29.5152183,65.494342 28.239197,69.3564597 C26.9631757,73.2185774 30.4275736,93.8101016 29.9554457,96.700253 Z" id="Path" fill="#291386"></path>
                        <path d="M38.3480083,15.6376808 C36.4490353,20.370223 29.2460342,24.8409371 26.1880328,26.4119054 C25.3105763,26.8570131 24.7736253,27.0664756 24.799818,26.9813814 C24.8522035,26.7915561 24.2366743,26.4380882 23.4901815,25.6264212 C23.1542772,25.2631478 22.8538775,24.8686117 22.5930804,24.448195 C21.9034428,23.3225157 21.4573191,22.0649237 21.2834438,20.7564193 C20.5434992,16.0958799 21.7811057,18.1054103 23.7390124,15.4020355 C25.6969191,12.6986608 18.6838152,13.85725 20.6155292,9.64836396 C22.8026223,4.88963899 20,0 20,0 C26.0767137,0.438561998 30.4770926,1.81315931 33.5219976,3.67868422 C38.8129293,6.96462636 39.9064758,11.7691712 38.3480083,15.6376808 Z" id="Path" fill="#1D1739"></path>
                        <path d="M30.9544897,96.7592946 C30.4606898,99.6971719 26.5102909,98.3943438 26.5102909,98.3943438 C26.5102909,98.3943438 23.5409076,75.8945027 22.5598919,72.337782 C22.3952919,71.7515094 22.224108,71.1652367 22.033172,70.5919924 C21.5788762,71.1456943 21.1048283,71.7189387 20.5846924,72.337782 C17.2926933,76.2462663 19.2678928,99.6971719 19.2678928,99.6971719 C18.7075732,100.320587 17.9788689,100.772607 17.1675973,101 C17.0161654,93.4175405 16.8318134,80.4478869 17.2926933,78.2005084 C17.9510931,74.9434382 19.9262926,62.5665713 19.9262926,62.5665713 L25.1934912,60 L29.1438902,60.6123292 C29.1438902,60.6123292 30.4606898,65.1722275 29.1438902,69.0807118 C27.8270905,72.9891961 31.4417056,93.8344455 30.9544897,96.7592946 Z" id="Path" fill="#150A43"></path>
                        <path d="M16,105 L16.2169244,101.4828 L18.1100828,100.059312 L18.5176378,100 C19.9375066,103.855279 17.9588931,104.916963 16,105 Z" id="Path" fill="#261280"></path>
                        <path d="M27.5326368,99.9879055 C26.8858889,100.033533 26.2367535,99.949796 25.6199856,99.7411775 C23.9241017,99.1476968 23.3566818,99.7411775 21.6544223,99.7411775 C19.9521628,99.7411775 17.688859,97.3739229 19.9521628,96.7804422 C21.6225448,96.3470012 26.0407689,95.5868124 28.2403177,95.2133863 L29.560047,95 C30.8032702,98.7475974 29.1838922,99.8612074 27.5326368,99.9879055 Z" id="Path" fill="#5D49CD"></path>
                        <path d="M28,100 L28,95.6666667 L28.6050882,95.2133333 L29.6665566,95 C30.6305954,98.76 29.3281174,99.8733333 28,100 Z" id="Path" fill="#261280"></path>
                        <path d="M21.9327923,13 C21.3927923,12.2379269 14,15.9584544 14,18.5417531 C14,19.8334025 14,21.7708766 15.3846154,23.0625259 C17.3715385,24.9160428 18.1538462,25 18.1538462,25 L23,25 C21.8773553,23.6073668 22.1624374,21.2659817 21.4462328,19.6566909 C20.7539251,17.7192168 23,16.5675818 23,16.5675818 C23.7975941,15.383082 25.5,13.8548589 21.9327923,13 Z" id="Path" fill="#664A30"></path>
                        <path d="M38.3560682,16.0993377 C36.4782932,20.8874172 29.3556981,25.410596 26.3318328,27 L23.6576221,26.205298 L22,25.7086093 L22.7705353,25.013245 C25.3605698,22.6225166 33.5709794,14.6688742 33.0270721,10.1986755 C32.7275754,8.11931786 32.9049138,5.99721602 33.545079,4 C38.8157994,7.32450331 39.8971388,12.1854305 38.3560682,16.0993377 Z" id="Path" fill="#0F0E13"></path>
                        <path d="M29,31.2555172 L34.8872936,36.7791559 C35.542811,37.3941824 35.7074967,38.3709719 35.2898695,39.1669293 L30,49.2489152 L30,49.2489152 L29,42.7435167 L31.0948181,39.4501708 L28,37.0060495 L29,31.2555172 Z" id="Path-4" fill="#664A30"></path>
                        <path d="M28.7912698,37.1765904 C30.7743978,46.49614 30.2429713,58.2822465 27.7413785,60.7943597 C25.6221535,62.9224971 22.0901118,63.2023439 18.9274763,62.8964648 C16.6352583,62.6581542 14.3754339,62.1715579 12.1874334,61.4451663 C11.2995624,49.6330275 11.7791424,41.71922 12.7966296,36.4086386 C12.1031829,34.8076546 10.8912714,36.0637112 9.1090485,34.6905094 C7.32682563,33.3173076 8.22765828,29.8420007 8.22765828,29.8420007 C12.6929367,26.8743228 18.6682439,25 18.6682439,25 L18.9858036,25.5401694 C19.5295144,25.3488511 20.1011773,25.249874 20.6772951,25.2473065 L20.6772951,25.2473065 C22.4011907,25.2473065 23.8723346,26.2105002 25.1036886,27.8179923 C27.1840288,28.781186 26.1795032,31.072025 27.0803358,31.5080654 C28.3764979,32.1588719 29.9837389,36.6168967 29.9837389,36.6168967 L28.7912698,37.1765904 Z" id="Path" fill="#7353A3"></path>
                        <path d="M29.0207543,37.4725598 C30.600246,47.8028891 30.2155366,58.3019819 27.7360422,60.8035864 C25.6355379,62.9228213 22.1346975,63.2014975 19,62.8968979 C19.4614964,62.3972171 15.3495996,58.5 11.1948481,50.7796025 C11.0089447,50.4341551 12.8383582,48.1065315 14.2467692,48.3941213 C16.5800205,48.8705584 19.472321,51.6102614 19.7930681,50.7796025 C25.5,36 19.3620904,26.3461114 19.3620904,26.3461114 C19.3620904,26.3461114 18.9593423,25.8974076 18.1538462,25 C19.8625132,25 21.3958063,24.5904933 23.6567008,25.9695185 C25.4617212,26.8120278 27.4855234,27.2069081 28.3848218,28.4253062 C30.31189,31.0176424 29.9778648,36.7531865 29.9778648,36.7531865 L29.0207543,37.4725598 Z" id="Path" fill="url(#linearGradient-4)"></path>
                        <path d="M8.3854597,30.2305317 C3.35687725,32.9451597 0.625158747,34.8683158 0.190304183,36 C-0.461977664,37.6975263 8.30907689,47.512239 10.1545384,48.962937 C12,50.4136351 11,52.5374222 12,52.5374222 C13,52.5374222 18.8601784,50.9367187 14.9464874,47.9598359 C12.33736,45.9752474 9.01740021,42.2914035 4.98660809,36.908304 C8.09120268,35.926485 9.85535089,34.9884652 10.2790527,34.0942447 C10.7027545,33.2000242 10.0715569,31.9121199 8.3854597,30.2305317 Z" id="Path-3" fill="#936944"></path>
                    </g>
                    <g id="Group" opacity="0.11" transform="translate(74.000000, 103.000000)" fill="#F0EEFF">
                        <ellipse id="Oval" cx="324.528261" cy="134.462238" rx="2.14565217" ry="2.14633333"></ellipse>
                        <ellipse id="Oval" cx="369.332609" cy="116.045524" rx="2.14565217" ry="2.14633333"></ellipse>
                        <ellipse id="Oval" cx="374.236957" cy="29.487619" rx="2.14565217" ry="2.14633333"></ellipse>
                        <ellipse id="Oval" cx="320.230435" cy="110.519857" rx="2.14565217" ry="2.14633333"></ellipse>
                        <ellipse id="Oval" cx="2.33478261" cy="27.0281429" rx="2.14565217" ry="2.14633333"></ellipse>
                        <ellipse id="Oval" cx="155.145652" cy="108.680143" rx="2.14565217" ry="2.14633333"></ellipse>
                        <ellipse id="Oval" cx="128.145652" cy="68.1607619" rx="2.14565217" ry="2.14633333"></ellipse>
                        <ellipse id="Oval" cx="50.8173913" cy="24.5751905" rx="2.14565217" ry="2.14633333"></ellipse>
                        <ellipse id="Oval" cx="82.7282609" cy="6.77171429" rx="2.14565217" ry="2.14633333"></ellipse>
                        <ellipse id="Oval" cx="229.402174" cy="2.47252381" rx="2.14565217" ry="2.14633333"></ellipse>
                        <ellipse id="Oval" cx="74.1391304" cy="52.8102381" rx="2.14565217" ry="2.14633333"></ellipse>
                        <ellipse id="Oval" cx="168.645652" cy="45.4448571" rx="2.14565217" ry="2.14633333"></ellipse>
                        <ellipse id="Oval" cx="253.956522" cy="111.133095" rx="2.14565217" ry="2.14633333"></ellipse>
                        <ellipse id="Oval" cx="184.604348" cy="80.4385714" rx="2.14565217" ry="2.14633333"></ellipse>
                        <ellipse id="Oval" cx="387.743478" cy="63.8615714" rx="2.14565217" ry="2.14633333"></ellipse>
                    </g>
                    <g id="Group-4" transform="translate(255.000000, 215.000000)">
                        <polygon id="Path" fill="#5D49CD" points="0 0 27 6.25 21.8571429 15 18 8.75"></polygon>
                        <polygon id="Path" fill="#2A1976" points="26.917342 6 32 12 24 10.8244898"></polygon>
                        <polygon id="Path" fill="#7664DB" points="7.71428571 19 0 0 18 8.86666667"></polygon>
                        <polygon id="Path" fill="#432CB6" points="22 15 16 11.0265306 18.1610446 9"></polygon>
                    </g>
                    <polygon id="Path" fill="#5D49CD" points="290 461.55102 325.944882 472 373 449.795918 339.669291 440"></polygon>
                    <polygon id="Path" fill="#2A1976" points="326 472.246914 326 503 373 479.652017 373 449.795918 325.773982 472.042832"></polygon>
                    <polygon id="Path" fill="#432CB6" points="290 462 290 493.238095 326 503 326 472 290 461.587302"></polygon>
                    <g id="Group-5-Copy" transform="translate(325.000000, 461.000000)">
                        <polygon id="Path" fill="#7664DB" points="0 2.28571429 6.66666667 4 14 1.14285714 8 0"></polygon>
                        <polygon id="Path" fill="#2A1976" points="6 3.77777778 14 1.14285714 14 3 6 6"></polygon>
                        <polygon id="Path" fill="#432CB6" points="0 4.38475164 0 2.28571429 6 3.77777778 6 6"></polygon>
                    </g>
                    <polygon id="Path" fill="#432CB6" points="154 490.413043 212 509 212 463.347826 154 446"></polygon>
                    <polygon id="Path" fill="#5149CD" points="183 414.666667 210.348837 422 211 421.333333 183.651163 414"></polygon>
                    <g id="Group-5" transform="translate(324.000000, 459.000000)">
                        <polygon id="Path" fill="#7664DB" points="0 2.28571429 6.66666667 4 14 1.14285714 8 0"></polygon>
                        <polygon id="Path" fill="#2A1976" points="6 3.77777778 14 1.14285714 14 3 6 6"></polygon>
                        <polygon id="Path" fill="#432CB6" points="0 4.38475164 0 2.28571429 6 3.77777778 6 6"></polygon>
                    </g>
                </g>
                <polygon id="Star" fill="#F96A00" points="81 170 69.244295 176.18034 71.4894348 163.09017 61.9788697 153.81966 75.1221475 151.90983 81 140 86.8778525 151.90983 100.02113 153.81966 90.5105652 163.09017 92.755705 176.18034"></polygon>
                <path d="M99.409,154.387 L99.994,154.47 L99.993,154.5 L90.5105652,163.512916 L92.755705,176.275831 L81,170.25 L69.389061,176.202682 C69.3477625,176.189227 69.3064168,176.175735 69.2650238,176.162208 L69.32,175.844 L79.287972,168.649504 L80.8409463,168.649504 L92.6818927,176.075321 L89.1348115,161.12499 L99.409,154.387 Z" id="Combined-Shape" fill="#231464"></path>
                <polygon id="Star" fill="#715CE4" points="20 154 8.24429495 160.18034 10.4894348 147.09017 0.978869674 137.81966 14.1221475 135.90983 20 124 25.8778525 135.90983 39.0211303 137.81966 29.5105652 147.09017 31.755705 160.18034"></polygon>
                <path d="M38.432,138.385 L38.994,138.467 L38.993,138.525 L29.772801,147.512916 L31.9618124,160.275831 L20.5,154.25 L9.25591082,160.162017 C9.19350619,160.140943 9.13099057,160.119783 9.06836396,160.098535 L9.083,160.013 L18.9561019,152.649504 L20.4589803,152.649504 L31.9179607,160.075321 L28.4853015,145.12499 L38.432,138.385 Z" id="Combined-Shape" fill="#231464"></path>
                <polygon id="Star" fill="#715CE4" points="113 119 101.244295 125.18034 103.489435 112.09017 93.9788697 102.81966 107.122147 100.90983 113 89 118.877853 100.90983 132.02113 102.81966 122.510565 112.09017 124.755705 125.18034"></polygon>
                <path d="M131.409,103.387 L131.994,103.47 L131.993,103.5 L122.510565,112.512916 L124.755705,125.275831 L113,119.25 L101.389061,125.202682 C101.347763,125.189227 101.306417,125.175735 101.265024,125.162208 L101.32,124.844 L111.287972,117.649504 L112.840946,117.649504 L124.681893,125.075321 L121.134811,110.12499 L131.409,103.387 Z" id="Combined-Shape" fill="#231464"></path>
                <polygon id="Star" fill="#715CE4" points="166 154 154.244295 160.18034 156.489435 147.09017 146.97887 137.81966 160.122147 135.90983 166 124 171.877853 135.90983 185.02113 137.81966 175.510565 147.09017 177.755705 160.18034"></polygon>
                <polygon id="Star-Copy" fill="#F96A00" points="215 134 203.244295 140.18034 205.489435 127.09017 195.97887 117.81966 209.122147 115.90983 215 104 220.877853 115.90983 234.02113 117.81966 224.510565 127.09017 226.755705 140.18034"></polygon>
                <path d="M184.409,138.387 L184.994,138.47 L184.993,138.5 L175.510565,147.512916 L177.755705,160.275831 L166,154.25 L154.389061,160.202682 C154.347763,160.189227 154.306417,160.175735 154.265024,160.162208 L154.32,159.844 L164.287972,152.649504 L165.840946,152.649504 L177.681893,160.075321 L174.134811,145.12499 L184.409,138.387 Z" id="Combined-Shape" fill="#231464"></path>
                <path d="M233.409,118.387 L233.994,118.47 L233.993,118.5 L224.510565,127.512916 L226.755705,140.275831 L215,134.25 L203.389061,140.202682 C203.347763,140.189227 203.306417,140.175735 203.265024,140.162208 L203.32,139.844 L213.287972,132.649504 L214.840946,132.649504 L226.681893,140.075321 L223.134811,125.12499 L233.409,118.387 Z" id="Combined-Shape-Copy" fill="#231464"></path>
                <path d="M18.5,256 L98,256 L98,256 L98,271 C98,277.627417 92.627417,283 86,283 L18.5,283 C11.0441559,283 5,276.955844 5,269.5 C5,262.044156 11.0441559,256 18.5,256 Z" id="Rectangle-Copy-22" fill="#432CB6" transform="translate(51.500000, 269.500000) scale(-1, 1) translate(-51.500000, -269.500000) "></path>
                <path d="M90.5,218 L170,218 L170,218 L170,237 C170,241.418278 166.418278,245 162,245 L90.5,245 C83.0441559,245 77,238.955844 77,231.5 C77,224.044156 83.0441559,218 90.5,218 Z" id="Rectangle-Copy-23" fill="#5D49CD"></path>
                <path d="M398,245 L407,254 L483,254 C489.627417,254 495,259.372583 495,266 L495,297 C495,303.627417 489.627417,309 483,309 L410,309 C403.372583,309 398,303.627417 398,297 L398,254 L401.051,254 L398,253.561822 L398,245 Z" id="Combined-Shape" fill="#4930C3" opacity="0.771926153" transform="translate(446.500000, 277.000000) scale(-1, 1) translate(-446.500000, -277.000000) "></path>
                <path d="M119.534633,-1.42108547e-14 C132.389805,29.4050077 143.484241,48.3285933 152.81794,56.7707566 C166.818488,69.4340017 187.808902,84.2303523 238.934989,67.0906583 C290.061076,49.9509642 304.434989,90 310.434989,103 C316.434989,116 335.887163,142 362.434989,140 C388.982815,138 408.434989,132.597048 417.434989,146.298524 C426.434989,160 429.547998,176.321537 439.934989,185.584905 C450.32198,194.848272 467.067915,191.412514 485,200.675881 C496.954723,206.85146 506.62139,214.640691 514,224.043574 C514,202.758842 514,188.722351 514,181.9341 C512.07071,180.896514 507.03548,170.803227 499.397749,166.861571 C481.364482,157.555021 472.934989,161.182381 464.031165,150.59119 C455.127341,140 464.031165,118 439.934989,103 C415.838813,88 386.991453,107.320554 370.713221,91.5987232 C354.434989,75.8768926 351.825165,60.1383092 326.934989,39.2825985 C302.044812,18.4268879 242.980072,29.8581397 235,21.9434852 C229.679952,16.6670489 226.837239,9.35255382 226.471859,-1.42108547e-14 L119.534633,-1.42108547e-14 Z" id="Path-23" fill="url(#linearGradient-5)" opacity="0.424827939"></path>
            </g>
        </g>
    </g>
</svg>