<svg xmlns="http://www.w3.org/2000/svg" width="131.992" height="131.992" viewBox="0 0 131.992 131.992">
  <g id="Group_31" data-name="Group 31" transform="translate(-397 -123)">
    <path id="Path_13" data-name="Path 13" d="M408.953,189.227c0-.03,0-.059,0-.089a54.046,54.046,0,0,1,50.07-53.9l-.491-11.944A66,66,0,0,0,397,189.138c0,.19.006.379.007.568Z" transform="translate(0 -0.142)"/>
    <path id="Path_14" data-name="Path 14" d="M523.89,134.954a54.048,54.048,0,0,1,53.7,49.8l11.947-.48A66,66,0,0,0,523.711,123c-.1,0-.208,0-.313,0Z" transform="translate(-60.715)"/>
    <path id="Path_15" data-name="Path 15" d="M517.2,249.386c0,.03,0,.059,0,.089a54.045,54.045,0,0,1-107.923,4.241l-11.947.48a66,66,0,0,0,131.822-4.721c0-.19-.006-.379-.007-.568Z" transform="translate(-0.157 -60.479)"/>
  </g>
</svg>
