<?xml version="1.0" encoding="UTF-8"?>
<svg width="371px" height="325px" viewBox="0 0 371 325" version="1.1" xmlns="http://www.w3.org/2000/svg" xmlns:xlink="http://www.w3.org/1999/xlink">
    <title>platforms/chatbots_assistants</title>
    <g id="Page-1" stroke="none" stroke-width="1" fill="none" fill-rule="evenodd">
        <g id="Gov-tech" transform="translate(-130.000000, -1321.000000)">
            <g id="platforms/chatbots_assistants" transform="translate(130.000000, 1321.000000)">
                <rect id="Rectangle-Copy-12" stroke-opacity="0.08" stroke="#000000" fill="#2B0F82" x="0.5" y="0.5" width="370" height="324"></rect>
                <g id="Group-32" transform="translate(151.000000, 83.000000)">
                    <g id="Group-30" opacity="0.699999988">
                        <path d="M60.6417112,102.547619 C73.5598583,102.547619 84.0320856,109.551165 84.0320856,118.190476 C84.0320856,125.001354 77.5234947,130.795587 68.4389844,132.943111 L68.4385027,138.178571 L63.3696653,133.728081 C62.4747781,133.797597 61.5644849,133.833333 60.6417112,133.833333 C47.7235642,133.833333 37.2513369,126.829788 37.2513369,118.190476 C37.2513369,109.551165 47.7235642,102.547619 60.6417112,102.547619 Z" id="Combined-Shape-Copy-3" fill="#8473D9" opacity="0.200000003" transform="translate(60.641711, 120.363095) scale(-1, 1) translate(-60.641711, -120.363095) "></path>
                        <g id="Group-2-Copy-2" transform="translate(104.390374, 33.458333) scale(-1, 1) rotate(-12.000000) translate(-104.390374, -33.458333) translate(71.037433, 6.952381)" fill="#362C7D">
                            <path d="M33.6428374,0.0762358943 C51.8239332,0.0762358943 66.5626235,10.5730084 66.5626235,23.5214335 C66.5626235,33.5361385 57.7460199,42.0842784 45.339172,45.4436836 L45.3390493,52.219093 L37.5045896,46.8070222 C36.2379071,46.9124332 34.9492593,46.9666311 33.6428374,46.9666311 C15.4617416,46.9666311 0.723051309,36.4698586 0.723051309,23.5214335 C0.723051309,10.5730084 15.4617416,0.0762358943 33.6428374,0.0762358943 Z" id="Combined-Shape"></path>
                        </g>
                        <g id="Group-2" transform="translate(0.000000, 42.583333)" fill="#6756BE">
                            <path d="M41.1497326,0 C63.8761024,0 82.2994652,15.0453739 82.2994652,33.6047833 C82.2994652,47.9592398 71.27864,60.2116063 55.7700015,65.0267214 L55.7699975,74.7380952 L45.9764221,66.9808416 C44.3932301,67.1318992 42.7825879,67.2095665 41.1497326,67.2095665 C18.4233628,67.2095665 0,52.1641926 0,33.6047833 C0,15.0453739 18.4233628,0 41.1497326,0 Z" id="Combined-Shape"></path>
                        </g>
                        <g id="Group-2-Copy" transform="translate(116.085561, 102.982143) scale(-1, 1) translate(-116.085561, -102.982143) translate(70.171123, 59.964286)" fill="#8473D9">
                            <path d="M45.9144385,0 C71.2722827,0 91.828877,17.3196747 91.828877,38.6845761 C91.828877,55.2086741 79.532281,69.3129881 62.2282663,74.8561224 L62.2275762,86.0357143 L51.3007751,77.1057769 C49.5340192,77.2797186 47.736625,77.3691522 45.9144385,77.3691522 C20.5565943,77.3691522 0,60.0494775 0,38.6845761 C0,17.3196747 20.5565943,0 45.9144385,0 Z" id="Combined-Shape"></path>
                        </g>
                    </g>
                    <rect id="Rectangle" fill="#D8D8D8" opacity="0.300000012" x="94" y="89" width="45" height="4" rx="2"></rect>
                    <rect id="Rectangle-Copy-7" fill="#D8D8D8" opacity="0.300000012" x="24" y="68" width="34" height="3" rx="1.5"></rect>
                    <rect id="Rectangle-Copy-2" fill="#D8D8D8" opacity="0.300000012" x="94" y="98" width="26" height="4" rx="2"></rect>
                    <rect id="Rectangle-Copy-21" fill="#D8D8D8" opacity="0.300000012" x="93" y="107" width="36" height="4" rx="2"></rect>
                    <rect id="Rectangle-Copy-18" fill="#D8D8D8" opacity="0.300000012" x="24" y="75" width="25" height="3" rx="1.5"></rect>
                    <g id="Group-31" opacity="0.300000012" transform="translate(100.845739, 28.709985) rotate(-6.000000) translate(-100.845739, -28.709985) translate(88.284242, 19.150461)" fill="#D8D8D8">
                        <path d="M1.73217303,11.2955724 L23.3876035,11.3156771 C24.3477591,11.3165685 25.1258959,12.0947072 25.126785,13.0548627 C25.127672,14.0127196 24.3518947,14.789935 23.3940378,14.790822 C23.3929658,14.790823 23.3918937,14.790823 23.3908216,14.790822 L1.73539111,14.7707172 C0.775235572,14.7698258 -0.00290122925,13.9916872 -0.00379035855,13.0315317 C-0.00467735919,12.0736748 0.771099974,11.2964594 1.72895681,11.2955724 C1.73002888,11.2955714 1.73110096,11.2955714 1.73217303,11.2955724 Z" id="Rectangle-Copy-19" transform="translate(12.561497, 13.043197) rotate(18.000000) translate(-12.561497, -13.043197) "></path>
                        <path d="M4.60840418,2.60284266 L14.9984044,2.61248867 C15.9585599,2.61338007 16.7366967,3.39151871 16.7375858,4.35167425 C16.7384728,5.30953108 15.9626955,6.08674653 15.0048387,6.08763353 C15.0037666,6.08763452 15.0026945,6.08763452 15.0016224,6.08763353 L4.61162225,6.07798752 C3.65146672,6.07709612 2.87332992,5.29895748 2.87244079,4.33880194 C2.87155379,3.38094511 3.64733112,2.60372966 4.60518796,2.60284266 C4.60626003,2.60284167 4.60733211,2.60284167 4.60840418,2.60284266 Z" id="Rectangle-Copy-20" transform="translate(9.805013, 4.345238) rotate(18.000000) translate(-9.805013, -4.345238) "></path>
                    </g>
                </g>
            </g>
        </g>
    </g>
</svg>