<?xml version="1.0" encoding="UTF-8"?>
<svg width="64px" height="64px" viewBox="0 0 64 64" version="1.1" xmlns="http://www.w3.org/2000/svg" xmlns:xlink="http://www.w3.org/1999/xlink">
    <!-- Generator: Sketch 52.6 (67491) - http://www.bohemiancoding.com/sketch -->
    <title>internet (1)</title>
    <desc>Created with Sketch.</desc>
    <g id="Page-1" stroke="none" stroke-width="1" fill="none" fill-rule="evenodd">
        <g id="Home-page" transform="translate(-686.000000, -2349.000000)" fill="#FFFFFF" fill-rule="nonzero">
            <g id="internet-(1)" transform="translate(686.000000, 2349.000000)">
                <path d="M32,0 C14.3268315,0 0,14.3268315 0,32 C0,49.6731685 14.3268315,64 32,64 C49.6731685,64 64,49.6731685 64,32 C63.9762697,14.3367191 49.6632809,0.0237303371 32,0 Z M24.0898876,3.23595506 C20.9218876,6.22166292 18.5195506,9.92647191 17.0858427,14.0368539 C14.7043596,13.4585169 12.3721348,12.6939326 10.1105618,11.7501124 C13.8853034,7.664 18.7273708,4.71496629 24.0898876,3.23595506 Z M8.64359551,13.447191 C11.1401348,14.5768989 13.7288989,15.4910562 16.3811236,16.1797753 C14.8796404,20.9526292 14.0801798,25.918382 14.0080899,30.9213483 L14.0080899,30.8782022 L2.21483146,30.8782022 C2.43649438,24.5294382 4.68979775,18.4194157 8.64359551,13.447191 Z M8.64359551,50.4377528 C4.68979775,45.4655281 2.43649438,39.3555056 2.21483146,33.0067416 L14.0080899,33.0355056 C14.0760449,38.0528539 14.8755056,43.0335281 16.3811236,47.8202247 C13.7323146,48.4717303 11.1439101,49.3474157 8.64359551,50.4377528 Z M10.1105618,52.2211236 L10.1105618,52.1348315 C12.3721348,51.1908315 14.7043596,50.4262472 17.0858427,49.8480899 C18.5030112,53.9998202 20.906427,57.745618 24.0898876,60.7640449 C18.7241348,59.2769438 13.8817079,56.3176629 10.1105618,52.2211236 Z M30.9213483,61.7420225 C26.0889888,61.1235955 21.8606742,56.4350562 19.171236,49.4741573 C23.0408989,48.695191 26.974382,48.2763146 30.9213483,48.2229213 L30.9213483,61.7420225 Z M30.9213483,45.9793258 C26.7315056,46.0327191 22.5562247,46.4853933 18.4521348,47.331236 C17.0126742,42.714427 16.247191,37.9140674 16.1797753,33.0786517 L16.1797753,33.0355056 L30.9213483,33.0355056 L30.9213483,45.9793258 Z M30.9213483,30.8782022 L16.1797753,30.8782022 C16.2347865,25.9992809 17.0002697,21.1543371 18.4521348,16.4961798 C22.5533483,17.3709663 26.7286292,17.8525843 30.9213483,17.934382 L30.9213483,30.8782022 Z M30.9213483,15.7770787 C26.9749213,15.7281798 23.0414382,15.3141573 19.171236,14.5402247 C21.8606742,7.5505618 26.0889888,2.87640449 30.9213483,2.25797753 L30.9213483,15.7770787 Z M55.3564045,13.5334831 C59.3102022,18.5057079 61.5635056,24.6157303 61.7851685,30.9644944 L49.9919101,30.9644944 C49.9268315,25.9374382 49.127191,20.9468764 47.6188764,16.1510112 C50.2676854,15.4995056 52.8560899,14.6238202 55.3564045,13.5334831 Z M53.8750562,11.7788764 C51.6134831,12.7226966 49.2812584,13.4872809 46.8997753,14.065618 C45.4743371,9.94624719 43.0766742,6.23137079 39.9101124,3.23595506 C45.2706517,4.72539326 50.1078652,7.68449438 53.8750562,11.7788764 Z M33.0786517,2.25797753 C37.9110112,2.87640449 42.1393258,7.56494382 44.828764,14.5258427 C40.9591011,15.3046292 37.025618,15.7235056 33.0786517,15.7770787 L33.0786517,2.25797753 Z M33.0786517,17.934382 C37.2684944,17.8811685 41.4439551,17.4284944 45.5478652,16.5824719 C46.9997303,21.2406292 47.7652135,26.085573 47.8202247,30.9644944 L33.0786517,30.9644944 L33.0786517,17.934382 Z M33.0786517,33.1217978 L47.8202247,33.1217978 C47.7652135,38.0007191 46.9997303,42.8456629 45.5478652,47.5038202 C41.4466517,46.6288539 37.2713708,46.1474157 33.0786517,46.065618 L33.0786517,33.1217978 Z M33.0786517,61.7420225 L33.0786517,48.2229213 C37.0250787,48.2716404 40.9585618,48.6856629 44.828764,49.4597753 C42.1393258,56.4494382 37.9110112,61.1235955 33.0786517,61.7420225 Z M39.9101124,60.7640449 C43.0800899,57.7742022 45.4826067,54.0643596 46.9141573,49.948764 C49.2956404,50.5269213 51.6278652,51.2915056 53.8894382,52.2355056 C50.1164944,56.3268315 45.2742472,59.2810787 39.9101124,60.7640449 Z M55.3564045,50.552809 C52.8598652,49.4231011 50.2712809,48.508764 47.6188764,47.8202247 C49.1203596,43.0473708 49.9198202,38.081618 49.9919101,33.0786517 L49.9919101,33.1217978 L61.7851685,33.1217978 C61.5635056,39.4705618 59.3102022,45.5805843 55.3564045,50.552809 Z" id="Shape"></path>
            </g>
        </g>
    </g>
</svg>