<?xml version="1.0" encoding="UTF-8"?>
<svg width="501px" height="578px" viewBox="0 0 501 578" version="1.1" xmlns="http://www.w3.org/2000/svg" xmlns:xlink="http://www.w3.org/1999/xlink">
    <!-- Generator: Sketch 52.6 (67491) - http://www.bohemiancoding.com/sketch -->
    <title>innov_illu-06-06</title>
    <desc>Created with Sketch.</desc>
    <defs>
        <linearGradient x1="50.9595828%" y1="-0.239030023%" x2="49.1056063%" y2="96.8071594%" id="linearGradient-1">
            <stop stop-color="#8F16FF" offset="0%"></stop>
            <stop stop-color="#8217E9" offset="9%"></stop>
            <stop stop-color="#501996" offset="44%"></stop>
            <stop stop-color="#311A61" offset="69%"></stop>
            <stop stop-color="#251B4D" offset="81%"></stop>
        </linearGradient>
        <linearGradient x1="-2.17957894e-14%" y1="50%" x2="100%" y2="50%" id="linearGradient-2">
            <stop stop-color="#8F16FF" offset="0%"></stop>
            <stop stop-color="#8A16F7" offset="11%"></stop>
            <stop stop-color="#7C17E0" offset="29%"></stop>
            <stop stop-color="#6618BB" offset="50%"></stop>
            <stop stop-color="#481987" offset="75%"></stop>
            <stop stop-color="#251B4D" offset="100%"></stop>
        </linearGradient>
        <linearGradient x1="-9.65083512e-15%" y1="50%" x2="100%" y2="50%" id="linearGradient-3">
            <stop stop-color="#8F16FF" offset="0%"></stop>
            <stop stop-color="#8816F4" offset="1%"></stop>
            <stop stop-color="#7117CD" offset="6%"></stop>
            <stop stop-color="#5D18AA" offset="12%"></stop>
            <stop stop-color="#4B198D" offset="18%"></stop>
            <stop stop-color="#3D1A76" offset="25%"></stop>
            <stop stop-color="#321A63" offset="33%"></stop>
            <stop stop-color="#2B1B57" offset="42%"></stop>
            <stop stop-color="#261B4F" offset="55%"></stop>
            <stop stop-color="#251B4D" offset="81%"></stop>
        </linearGradient>
        <linearGradient x1="0%" y1="49.989467%" x2="100%" y2="49.989467%" id="linearGradient-4">
            <stop stop-color="#230540" offset="15%"></stop>
            <stop stop-color="#230741" offset="16%"></stop>
            <stop stop-color="#241248" offset="27%"></stop>
            <stop stop-color="#25194C" offset="41%"></stop>
            <stop stop-color="#251B4D" offset="81%"></stop>
        </linearGradient>
    </defs>
    <g id="Page-1" stroke="none" stroke-width="1" fill="none" fill-rule="evenodd">
        <g id="Innovation" transform="translate(-760.000000, -114.000000)">
            <g id="innov_illu-06-06" transform="translate(760.000000, 114.000000)">
                <path d="M501,39.0969977 L501,551.903002 C500.957043,566.298131 489.307717,577.957008 474.924381,578 L39.4615385,578 C25.0782025,577.957008 13.4288762,566.298131 13.3859192,551.903002 L1,38.4445727 C1,24.091224 25.1199478,13 39.4615385,13 L474.924381,13 C489.307717,13.0429922 500.957043,24.7018694 501,39.0969977 Z" id="Path" fill="url(#linearGradient-1)"></path>
                <path d="M501,470.573643 L501,551.79845 C501,566.269166 489.35391,578 474.98773,578 L292.251534,578 L77,486.949612 L289.650307,409 L501,470.573643 Z" id="Path" fill="url(#linearGradient-2)"></path>
                <path d="M501,473.425234 L501,553.96729 C501,568.257009 489.295416,578 474.989813,578 L447.028862,578 L272.760611,541.626168 L118,490.313084 L259.755518,439 L501,473.425234 Z" id="Path" fill="url(#linearGradient-3)"></path>
                <polygon id="Path" stroke="#FFFFFF" fill="#8F16FF" opacity="0.27" points="117 490.151899 272.027523 541 401 480.373418 259 438"></polygon>
                <polygon id="Path" fill="url(#linearGradient-4)" points="245.821839 506 327 515.79566 280.832356 537 214 521.020013"></polygon>
                <path d="M248,456.118308 C248,456.118308 238.341672,451.384233 234.345122,450.692116 C230.348573,450 225.685931,449.307884 224.353748,451.384233 C223.021565,453.460581 225.252972,458.499188 234.465019,459.786524 C243.677066,461.07386 248,456.118308 248,456.118308 Z" id="Path" fill="#A44BFF"></path>
                <polygon id="Path" stroke="#FFFFFF" fill="#BA99E5" opacity="0.17" points="116 314.610315 116 491 259 439.389685 259 263"></polygon>
                <polygon id="Path" stroke="#FFFFFF" fill="#8F16FF" opacity="0.27" points="259 263 259 438.701493 402 481 402 305.298507"></polygon>
                <polygon id="Path" fill="#391C59" points="214 476.337662 214 522 246 506.857143 246 464"></polygon>
                <path d="M235.129101,458.323529 C235.129101,458.323529 236.390092,457.098039 240.80356,457.098039 C245.217028,457.098039 249,456.485294 249,458.323529 C249,460.161765 249,460.161765 247.108514,460.77451 C245.217028,461.387255 238.281578,462 238.281578,462 C238.281578,462 231.346129,460.77451 235.129101,458.323529 Z" id="Path" fill="#6812BF"></path>
                <polygon id="Path" fill="#391C59" points="156 457.912139 156 502 188 487.381734 188 446"></polygon>
                <polygon id="Path" fill="#8F16FF" points="154 458.888889 214.028369 475 246 462.755556 187.276596 446"></polygon>
                <polygon id="Path" fill="#6812BF" points="211 434.183673 211 459 203.690714 457.053878 184 451.816327 184 427 194.407857 429.76898"></polygon>
                <path d="M196.205761,454 L196.205761,458.666667 C196.205761,458.666667 194.865731,460.666667 193.5257,461.333333 C192.18567,462 193.5257,464 196.205761,464 C198.885822,464 201.565883,464 200.895868,462.666667 C200.225853,461.333333 198.215807,459.333333 198.215807,458.666667 L198.215807,455.333333 L196.205761,454 Z" id="Path" fill="#6812BF"></path>
                <polygon id="Path" fill="#4D1480" points="211 433.666667 212 433 212 457.666667 211 459"></polygon>
                <polygon id="Path" fill="#A44BFF" points="184 427.666667 211.348837 435 212 434.333333 184.651163 427"></polygon>
                <path d="M248.457088,453.547677 C245.433163,455.237323 240.152873,456.376701 236.665765,455.884697 C234.813032,455.619274 233.4698,454.894215 233.238209,453.547677 C232.576518,449.663434 232.576518,432.831714 243.163565,430.242219 C243.163565,430.242219 248.503407,429.122262 251.944197,431.69881 C253.170847,432.63321 254.040243,433.944435 254.412302,435.421209 C256.397373,442.542322 253.088921,450.958182 248.457088,453.547677 Z" id="Path" fill="#8F16FF"></path>
                <polygon id="Path" fill="#6812BF" points="240 454.699164 240.527143 457 246.004286 457 244.5 454.049211 249 443 244.5 443"></polygon>
                <path d="M251,431.706377 C249.616835,431.706377 245.800559,430.243298 242.657003,432.19407 C240.249039,433.689663 235.112469,436.095616 235.112469,450.401282 C235.112469,454.302828 235.741181,454.953085 236.48306,456 C234.722669,455.733394 233.446385,452.404076 233.226336,451.05154 C232.597625,447.149994 232.597625,432.844328 242.657003,430.243298 C242.657003,430.243298 247.730702,429.118352 251,431.706377 Z" id="Path" fill="#A44BFF"></path>
                <polygon id="Path" fill="#7C3AC2" points="203 457 184 451.771838 184 427 194.042769 429.764016"></polygon>
                <path d="M258,262 L116,314.151899 L271.027523,365 L400,304.373418 L258,262 Z M294.477064,323.278481 L281.449541,323.278481 L276.238532,315.455696 L256.697248,319.367089 L267.119266,323.278481 L263.862385,331.101266 L250.183486,325.886076 L239.761468,320.018987 L233.247706,329.797468 L221.522936,329.797468 L217.614679,325.234177 C217.614679,325.234177 226.082569,323.278481 226.733945,322.626582 C227.385321,321.974684 228.688073,314.151899 228.688073,314.151899 L219.568807,308.936709 L235.201835,305.025316 L231.293578,303.06962 C234.045351,301.807036 236.873532,300.718402 239.761468,299.810127 L243.669725,303.06962 L250.183486,305.025316 L253.766055,300.462025 L250.183486,299.810127 L254.417431,296.224684 L260.605505,299.810127 L258,305.025316 L274.93578,308.28481 L292.522936,307.632911 L299.036697,303.06962 L299.036697,310.892405 L287.311927,318.063291 L294.477064,323.278481 Z" id="Shape" fill="#CA9DFF" fill-rule="nonzero" opacity="0.27"></path>
                <polygon id="Path" fill="#6812BF" points="320 294.966667 395.765854 307 400 304.466667 353.313821 290.533333 341.463415 288 329.756098 289.266667 357.073171 294.966667 330.406504 293.085667"></polygon>
                <path d="M336.594616,191 C336.594616,191 329.372941,196.911856 325.167914,204.235102 C320.962888,211.558348 329.24235,215.439668 332.187174,214.960328 C335.131998,214.480988 365.553143,203.615955 336.594616,191 Z" id="Path" fill="#FFEB30"></path>
                <path d="M326.944431,294.995838 C326.225617,295.020646 325.507417,294.934413 324.822044,294.741009 C322.813475,294.148383 322.143953,294.741009 320.135384,294.741009 C318.126816,294.741009 315.448725,292.370504 318.126816,291.777878 C320.456755,291.262294 327.332754,290.302239 329.093599,290.059263 L329.508703,290 C330.954872,293.85207 328.939609,294.91287 326.944431,294.995838 Z" id="Path" fill="#490A86"></path>
                <path d="M340.955446,286.700253 C340.476938,289.603278 336.648874,288.315906 336.648874,288.315906 C336.648874,288.315906 333.771446,266.082981 332.82081,262.568454 C332.661307,261.989137 332.495424,261.409819 332.310401,260.843375 C331.870174,261.390508 331.410806,261.956952 330.906778,262.568454 C327.716725,266.430572 329.630757,289.603278 329.630757,289.603278 C329.087789,290.219297 328.381651,290.665955 327.595503,290.890651 C326.600206,291.160999 325.305044,291.000077 323.888661,289.603278 C321.974629,273.511121 323.748298,251.921883 323.748298,251.921883 C323.907801,250.203241 325.285904,249.347138 327.091474,249.070353 L327.168035,249.070353 C329.50065,248.830749 331.854985,249.205559 334.00113,250.158183 L335.411133,250.383473 L339.239197,250.988538 C339.239197,250.988538 340.515218,255.494342 339.239197,259.35646 C337.963176,263.218577 341.427574,283.810102 340.955446,286.700253 Z" id="Path" fill="#620AB2"></path>
                <path d="M349.348008,205.637681 C347.449035,210.370223 340.246034,214.840937 337.188033,216.411905 C336.310576,216.857013 335.773625,217.066476 335.799818,216.981381 C335.852203,216.791556 335.236674,216.438088 334.490181,215.626421 C334.154277,215.263148 333.853877,214.868612 333.59308,214.448195 C332.903443,213.322516 332.457319,212.064924 332.283444,210.756419 C331.543499,206.09588 332.781106,208.10541 334.739012,205.402036 C336.696919,202.698661 329.683815,203.85725 331.615529,199.648364 C333.802622,194.889639 331,190 331,190 C337.076714,190.438562 341.477093,191.813159 344.521998,193.678684 C349.812929,196.964626 350.906476,201.769171 349.348008,205.637681 Z" id="Path" fill="#300559"></path>
                <path d="M330,215.279344 L326.754026,224.419843 C326.754026,224.419843 325.085595,224.589595 322.858856,224.746289 C318.866308,225.020504 313.075489,225.255545 311.822543,224.419843 C311.505644,224.171453 311.227707,223.876527 310.998066,223.544966 C308.583061,220.365378 303.954301,210.487111 303.38301,208.750416 C302.733815,206.791737 299.48784,208.750416 298.838645,207.44463 C298.18945,206.138845 300.78623,207.44463 300.137035,205.485952 C299.48784,203.527273 295.592671,201.568595 297.540255,200.262809 C299.48784,198.957024 301.435425,202.874381 304.032204,204.180166 C306.628984,205.485952 309.225764,217.238022 314.419323,219.849593 C319.612882,222.461164 330,215.279344 330,215.279344 Z" id="Path" fill="#D1C989"></path>
                <g id="Group" opacity="0.11" transform="translate(75.000000, 116.000000)" fill="#F0EEFF">
                    <ellipse id="Oval" cx="324.528261" cy="134.462238" rx="2.14565217" ry="2.14633333"></ellipse>
                    <ellipse id="Oval" cx="369.332609" cy="116.045524" rx="2.14565217" ry="2.14633333"></ellipse>
                    <ellipse id="Oval" cx="374.236957" cy="29.487619" rx="2.14565217" ry="2.14633333"></ellipse>
                    <ellipse id="Oval" cx="320.230435" cy="110.519857" rx="2.14565217" ry="2.14633333"></ellipse>
                    <ellipse id="Oval" cx="2.33478261" cy="27.0281429" rx="2.14565217" ry="2.14633333"></ellipse>
                    <ellipse id="Oval" cx="155.145652" cy="108.680143" rx="2.14565217" ry="2.14633333"></ellipse>
                    <ellipse id="Oval" cx="128.145652" cy="68.1607619" rx="2.14565217" ry="2.14633333"></ellipse>
                    <ellipse id="Oval" cx="50.8173913" cy="24.5751905" rx="2.14565217" ry="2.14633333"></ellipse>
                    <ellipse id="Oval" cx="82.7282609" cy="6.77171429" rx="2.14565217" ry="2.14633333"></ellipse>
                    <ellipse id="Oval" cx="229.402174" cy="2.47252381" rx="2.14565217" ry="2.14633333"></ellipse>
                    <ellipse id="Oval" cx="74.1391304" cy="52.8102381" rx="2.14565217" ry="2.14633333"></ellipse>
                    <ellipse id="Oval" cx="168.645652" cy="45.4448571" rx="2.14565217" ry="2.14633333"></ellipse>
                    <ellipse id="Oval" cx="253.956522" cy="111.133095" rx="2.14565217" ry="2.14633333"></ellipse>
                    <ellipse id="Oval" cx="184.604348" cy="80.4385714" rx="2.14565217" ry="2.14633333"></ellipse>
                    <ellipse id="Oval" cx="387.743478" cy="63.8615714" rx="2.14565217" ry="2.14633333"></ellipse>
                </g>
                <path d="M339.79127,227.17659 C341.774398,236.49614 341.242971,248.282246 338.741378,250.79436 C336.622153,252.922497 333.090112,253.202344 329.927476,252.896465 C327.635258,252.658154 325.375434,252.171558 323.187433,251.445166 C322.299562,239.633028 322.779142,231.71922 323.79663,226.408639 C323.103183,224.807655 321.891271,226.063711 320.109048,224.690509 C318.326826,223.317308 319.227658,219.842001 319.227658,219.842001 C323.692937,216.874323 329.668244,215 329.668244,215 L329.985804,215.540169 C330.529514,215.348851 331.101177,215.249874 331.677295,215.247306 C333.401191,215.247306 334.872335,216.2105 336.103689,217.817992 C338.184029,218.781186 337.179503,221.072025 338.080336,221.508065 C339.376498,222.158872 340.983739,226.616897 340.983739,226.616897 L339.79127,227.17659 Z" id="Path" fill="#BDA3E0"></path>
                <polygon id="Path" fill="#A364F2" points="233 156 260 162.25 254.857143 171 251 164.75"></polygon>
                <polygon id="Path" fill="#583480" points="260.917342 161 266 167 258 165.82449"></polygon>
                <polygon id="Path" fill="#B07AF5" points="251 163.866667 240.714286 174 233 155"></polygon>
                <polygon id="Path" fill="#5B258F" points="256 170 250 166.026531 252.161045 164"></polygon>
                <polygon id="Path" fill="#8F16FF" points="292 474.55102 327.944882 485 375 462.795918 341.669291 453"></polygon>
                <polygon id="Path" fill="#391C59" points="327 485.246914 327 516 375 492.909012 374.226018 463"></polygon>
                <polygon id="Path" fill="#8647CC" points="291 475 291 506.238095 327 516 327 485.412698"></polygon>
                <polygon id="Path" fill="#A364F2" points="326 475.285714 332.666667 477 340 474.142857 334 473"></polygon>
                <polygon id="Path" fill="#3F0A72" points="333 479 333 476.777778 341 474 341 476.222222"></polygon>
                <polygon id="Path" fill="#6812BF" points="333 481 327 479.23125 327 476 333 478.5"></polygon>
                <polygon id="Path" fill="#A364F2" points="326 472.285714 332.666667 474 340 471.142857 334 470"></polygon>
                <polygon id="Path" fill="#3F0A72" points="332 476 332 473.777778 340 471 340 473.222222"></polygon>
                <polygon id="Path" fill="#6812BF" points="332 476 326 474.23125 326 471 332 473.5"></polygon>
                <polyline id="Path" stroke="#FCE500" opacity="0.67" points="251 305 244.559322 303.857143 240.694915 301 232 303.571429"></polyline>
                <polyline id="Path" stroke="#FCE500" opacity="0.67" points="261 299 254.8125 296 250 299"></polyline>
                <polyline id="Path" stroke="#FCE500" opacity="0.67" points="259 304.875 275.920635 308 293.492063 308 300 303"></polyline>
                <path d="M288,319 L296,323" id="Path" stroke="#FCE500" opacity="0.67"></path>
                <path d="M258,320 L268,323" id="Path" stroke="#FCE500" opacity="0.67"></path>
                <path d="M235,306 L220,309" id="Path" stroke="#FCE500" opacity="0.67"></path>
                <path d="M228,323 L218,325" id="Path" stroke="#FCE500" opacity="0.67"></path>
                <path d="M340.020754,227.47256 C340.66311,236.545737 341.215537,248.301982 338.736042,250.803586 C336.635538,252.922821 333.134698,253.201497 330,252.896898 C330.526732,252.326584 332.736437,249.092644 331.02777,235.897653 C329.100702,220.991719 331.670126,215.431158 331.670126,215.431158 L331.753632,215.431158 C333.462299,215.431158 332.395988,214.232202 333.603617,215.83297 C335.408638,216.675479 338.485523,217.206908 339.384822,218.425306 C341.31189,221.017642 340.977865,226.753186 340.977865,226.753186 L340.020754,227.47256 Z" id="Path" fill="#8362AB"></path>
                <path d="M340.95449,286.759295 C340.46069,289.697172 336.510291,288.394344 336.510291,288.394344 C336.510291,288.394344 333.540908,265.894503 332.559892,262.337782 C332.395292,261.751509 332.224108,261.165237 332.033172,260.591992 C331.578876,261.145694 331.104828,261.718939 330.584692,262.337782 C327.292693,266.246266 329.267893,289.697172 329.267893,289.697172 C328.707573,290.320587 327.978869,290.772607 327.167597,291 C327.016165,283.417541 326.831813,270.447887 327.292693,268.200508 C327.951093,264.943438 329.926293,252.566571 329.926293,252.566571 L335.193491,250 L339.14389,250.612329 C339.14389,250.612329 340.46069,255.172228 339.14389,259.080712 C337.827091,262.989196 341.441706,283.834446 340.95449,286.759295 Z" id="Path" fill="#3F0A72"></path>
                <path d="M327,295 L327.216924,291.4828 L329.110083,290.059312 L329.517638,290 C330.937507,293.855279 328.958893,294.916963 327,295 Z" id="Path" fill="#1B0730"></path>
                <path d="M338.532637,289.987905 C337.885889,290.033533 337.236753,289.949796 336.619986,289.741178 C334.924102,289.147697 334.356682,289.741178 332.654422,289.741178 C330.952163,289.741178 328.688859,287.373923 330.952163,286.780442 C332.622545,286.347001 337.040769,285.586812 339.240318,285.213386 L340.560047,285 C341.80327,288.747597 340.183892,289.861207 338.532637,289.987905 Z" id="Path" fill="#490A86"></path>
                <path d="M339,290 L339,285.666667 L339.605088,285.213333 L340.666557,285 C341.630595,288.76 340.328117,289.873333 339,290 Z" id="Path" fill="#220A39"></path>
                <g id="Group" opacity="0.31" transform="translate(63.000000, 223.000000)" fill="#7880E6">
                    <ellipse id="Oval" cx="324.345652" cy="134.697095" rx="2.14565217" ry="2.14633333"></ellipse>
                    <ellipse id="Oval" cx="369.143478" cy="116.280381" rx="2.14565217" ry="2.14633333"></ellipse>
                    <ellipse id="Oval" cx="374.054348" cy="29.7159524" rx="2.14565217" ry="2.14633333"></ellipse>
                    <ellipse id="Oval" cx="320.047826" cy="110.754714" rx="2.14565217" ry="2.14633333"></ellipse>
                    <ellipse id="Oval" cx="2.15217391" cy="27.263" rx="2.14565217" ry="2.14633333"></ellipse>
                    <ellipse id="Oval" cx="154.963043" cy="108.908476" rx="2.14565217" ry="2.14633333"></ellipse>
                    <ellipse id="Oval" cx="127.956522" cy="68.395619" rx="2.14565217" ry="2.14633333"></ellipse>
                    <ellipse id="Oval" cx="50.6347826" cy="24.8035238" rx="2.14565217" ry="2.14633333"></ellipse>
                    <ellipse id="Oval" cx="82.5456522" cy="7.00004762" rx="2.14565217" ry="2.14633333"></ellipse>
                    <ellipse id="Oval" cx="229.219565" cy="2.70738095" rx="2.14565217" ry="2.14633333"></ellipse>
                    <ellipse id="Oval" cx="73.9565217" cy="53.0450952" rx="2.14565217" ry="2.14633333"></ellipse>
                    <ellipse id="Oval" cx="168.463043" cy="45.6797143" rx="2.14565217" ry="2.14633333"></ellipse>
                    <ellipse id="Oval" cx="253.767391" cy="111.367952" rx="2.14565217" ry="2.14633333"></ellipse>
                    <ellipse id="Oval" cx="184.421739" cy="80.6734286" rx="2.14565217" ry="2.14633333"></ellipse>
                    <ellipse id="Oval" cx="387.554348" cy="64.0964286" rx="2.14565217" ry="2.14633333"></ellipse>
                </g>
                <polygon id="Path" stroke="#FFFFFF" fill="#8F16FF" opacity="0.13" points="272 364.719008 272 541 400 480.280992 400 304"></polygon>
                <polygon id="Path" stroke="#FFFFFF" fill="#8F16FF" opacity="0.13" points="117 313 272 364.610315 272 541 117 489.389685"></polygon>
                <polygon id="Path" fill="#A44BFF" points="157 503.413043 215 522 215 476.347826 157 459"></polygon>
                <path d="M501,38.9239076 L501,89.4755274 C501,89.4755274 479.480731,61.6073267 449.484173,62.2554244 C419.487616,62.9035221 422.096012,84.9388435 374.49278,86.2350389 C359.918366,86.6303785 323.629053,62.2554244 286.459406,86.8831366 C243.212195,115.535535 202.990725,79.754062 202.990725,79.754062 L179,13 L474.916037,13 C489.303975,13.0427071 500.957029,24.624256 501,38.9239076 Z" id="Path" fill="#DDD170"></path>
                <path d="M393,13.0337079 C387.862319,19.0226966 369.913035,28.6741573 361.854439,33.8876404 C320.77907,60.6067416 262.099972,33.8876404 235.368383,52.1348315 C211.994542,68.0946067 213.200723,87.3258427 179.949234,106.876404 C149.912056,124.537079 119.314166,100.359551 80.8467575,120.561798 C65.7988287,128.466742 59.3310881,140.764045 29.3395491,155.101124 C23.6737562,157.805618 1.30397996,172.044944 3.91193988,174 L0,26.0674157 C0.0429635462,11.6886049 11.6940679,0.0429434752 26.0795992,0 L393,13.0337079 Z" id="Path" fill="#F2E45B"></path>
                <path d="M320.299229,222 L321,224.84889 C316.690259,225.148023 313.242467,225.048312 311.889979,224.136667 C311.547903,223.865706 311.247885,223.543979 311,223.182289 L320.299229,222 Z" id="Path" fill="#867C17"></path>
                <path d="M333.307692,202.083506 C332.767692,201.321433 325,205.958454 325,208.541753 C325,209.833402 325,211.770877 326.384615,213.062526 C328.371538,214.916043 329.153846,215 329.153846,215 L334,215 C332.877355,213.607367 331.946974,212.088518 331.230769,210.479227 C330.538462,208.541753 333.307692,205.958454 333.307692,205.958454 C334.105286,204.773955 334.105286,203.268006 333.307692,202.083506 Z" id="Path" fill="#B2A20C"></path>
                <path d="M348.356068,205.099338 C346.478293,209.887417 339.355698,214.410596 336.331833,216 L333.657622,215.205298 L332,214.708609 L332.770535,214.013245 C335.36057,211.622517 343.570979,203.668874 343.027072,199.198675 C342.727575,197.119318 342.904914,194.997216 343.545079,193 C348.815799,196.324503 349.897139,201.18543 348.356068,205.099338 Z" id="Path" fill="#19022D"></path>
            </g>
        </g>
    </g>
</svg>