<?xml version="1.0" encoding="UTF-8"?>
<svg width="562px" height="524px" viewBox="0 0 562 524" version="1.1" xmlns="http://www.w3.org/2000/svg" xmlns:xlink="http://www.w3.org/1999/xlink">
    <title>cx_pack_illustration</title>
    <defs>
        <path d="M13.7187676,77.1457356 L188.360465,62.173913 L188.360465,62.173913 L188.360465,233.036892 L13.9093099,220.318415 C6.06902225,219.746814 4.10046493e-12,213.219218 4.10330168e-12,205.358121 L4.10330168e-12,92.0909169 C4.10412432e-12,84.303286 5.95959717,77.81092 13.7187676,77.1457356 Z" id="path-1"></path>
        <linearGradient x1="49.9996071%" y1="0.210517477%" x2="49.9996071%" y2="78.0773209%" id="linearGradient-3">
            <stop stop-color="#662D91" offset="0%"></stop>
            <stop stop-color="#290175" offset="55%"></stop>
        </linearGradient>
        <linearGradient x1="50.0007039%" y1="0.216334035%" x2="50.0007039%" y2="78.0778653%" id="linearGradient-4">
            <stop stop-color="#662D91" offset="0%"></stop>
            <stop stop-color="#290175" offset="55%"></stop>
        </linearGradient>
        <linearGradient x1="49.8445397%" y1="36.6886353%" x2="48.9008393%" y2="66.0768014%" id="linearGradient-5">
            <stop stop-color="#654BF9" offset="0%"></stop>
            <stop stop-color="#4400C2" offset="100%"></stop>
        </linearGradient>
        <linearGradient x1="0.0119153334%" y1="50%" x2="100%" y2="50%" id="linearGradient-6">
            <stop stop-color="#A381BD" offset="0%"></stop>
            <stop stop-color="#5C34A8" offset="55%"></stop>
        </linearGradient>
        <linearGradient x1="50.7457161%" y1="-0.239030023%" x2="49.5786907%" y2="78.3683834%" id="linearGradient-7">
            <stop stop-color="#442EBB" offset="0%"></stop>
            <stop stop-color="#25146A" offset="100%"></stop>
        </linearGradient>
        <linearGradient x1="-2.17957894e-14%" y1="50%" x2="100%" y2="50%" id="linearGradient-8">
            <stop stop-color="#3F27B4" offset="0%"></stop>
            <stop stop-color="#291773" offset="100%"></stop>
        </linearGradient>
        <linearGradient x1="-2.17957894e-14%" y1="50%" x2="100%" y2="50%" id="linearGradient-9">
            <stop stop-color="#000000" offset="0%"></stop>
            <stop stop-color="#291773" offset="100%"></stop>
        </linearGradient>
        <linearGradient x1="42.6600458%" y1="39.1500776%" x2="80.6489485%" y2="100%" id="linearGradient-10">
            <stop stop-color="#52379F" offset="0%"></stop>
            <stop stop-color="#312366" offset="100%"></stop>
        </linearGradient>
        <linearGradient x1="71.0742215%" y1="38.4258278%" x2="36.255409%" y2="60.6290815%" id="linearGradient-11">
            <stop stop-color="#3E29AB" stop-opacity="0" offset="0%"></stop>
            <stop stop-color="#95FDF9" offset="100%"></stop>
        </linearGradient>
    </defs>
    <g id="Screens" stroke="none" stroke-width="1" fill="none" fill-rule="evenodd">
        <g id="Customer-Experience" transform="translate(-749.000000, -138.000000)">
            <g id="cx_pack_illustration" transform="translate(749.000000, 138.000000)">
                <polygon id="Path-32" fill="#2E1B81" points="137.875605 298.199647 362.064512 257.286585 550.013077 286.870141 381.338548 338.428548"></polygon>
                <g id="Group-12">
                    <g id="platforms/feedback_helpdesk" opacity="0.492861793" transform="translate(400.000000, 0.000000)">
                        <path d="M48.0934319,27.0379747 L107.622378,27.0379747 L107.622378,27.0379747 L107.622378,34.1898734 C107.622378,40.8172904 102.249795,46.1898734 95.6223776,46.1898734 L48.0934319,46.1898734 C42.8047811,46.1898734 38.5174825,41.9025749 38.5174825,36.6139241 C38.5174825,31.3252733 42.8047811,27.0379747 48.0934319,27.0379747 Z" id="Rectangle-Copy-22" fill="#646EE7" transform="translate(73.069930, 36.613924) scale(-1, 1) translate(-73.069930, -36.613924) "></path>
                        <path d="M100.20532,0 L159.734266,0 L159.734266,0 L159.734266,11.1518987 C159.734266,15.5701767 156.152544,19.1518987 151.734266,19.1518987 L100.20532,19.1518987 C94.9166692,19.1518987 90.6293706,14.8646002 90.6293706,9.57594937 C90.6293706,4.28729857 94.9166692,2.74786623e-15 100.20532,0 Z" id="Rectangle-Copy-23" fill="#646EE7"></path>
                        <polygon id="Star" fill="#646EE7" points="17.5594406 80.2689873 7.23826036 85.6650499 9.20943038 74.236006 0.859420193 66.1419121 12.3988505 64.4744371 17.5594406 54.0759494 22.7200307 64.4744371 34.2594609 66.1419121 25.9094507 74.236006 27.8806208 85.6650499"></polygon>
                        <path d="M35.1188811,66.4683544 L26.7170764,74.4085364 L28.7004735,85.6202532 L18.3152717,80.3267985 L7.93006993,85.6202532 L16.9532224,79.1778324 L18.3152717,79.1778324 L28.7004735,85.6202532 L25.589476,72.6497858 L35.1188811,66.4683544 Z" id="Combined-Shape" fill="#1C26A7"></path>
                        <polygon id="Star" fill="#646EE7" points="60.6083916 80.2689873 50.2872114 85.6650499 52.2583814 74.236006 43.9083712 66.1419121 55.4478015 64.4744371 60.6083916 54.0759494 65.7689817 64.4744371 77.308412 66.1419121 68.9584018 74.236006 70.9295718 85.6650499"></polygon>
                        <path d="M77.034965,66.4683544 L68.6331603,74.4085364 L70.6165574,85.6202532 L60.2313556,80.3267985 L49.8461538,85.6202532 L58.8693063,79.1778324 L60.2313556,79.1778324 L70.6165574,85.6202532 L67.5055599,72.6497858 L77.034965,66.4683544 Z" id="Combined-Shape" fill="#1C26A7"></path>
                        <polygon id="Star" fill="#646EE7" points="102.524476 80.2689873 92.2032953 85.6650499 94.1744653 74.236006 85.8244552 66.1419121 97.3638854 64.4744371 102.524476 54.0759494 107.685066 64.4744371 119.224496 66.1419121 110.874486 74.236006 112.845656 85.6650499"></polygon>
                        <path d="M118.951049,66.4683544 L110.549244,74.4085364 L112.532641,85.6202532 L102.14744,80.3267985 L91.7622378,85.6202532 L100.78539,79.1778324 L102.14744,79.1778324 L112.532641,85.6202532 L109.421644,72.6497858 L118.951049,66.4683544 Z" id="Combined-Shape" fill="#1C26A7"></path>
                        <polygon id="Star" fill="#646EE7" points="144.440559 80.2689873 134.119379 85.6650499 136.090549 74.236006 127.740539 66.1419121 139.279969 64.4744371 144.440559 54.0759494 149.60115 64.4744371 161.14058 66.1419121 152.79057 74.236006 154.76174 85.6650499"></polygon>
                        <path d="M160.867133,66.4683544 L152.465328,74.4085364 L154.448725,85.6202532 L144.063523,80.3267985 L133.678322,85.6202532 L142.701474,79.1778324 L144.063523,79.1778324 L154.448725,85.6202532 L151.337728,72.6497858 L160.867133,66.4683544 Z" id="Combined-Shape" fill="#1C26A7"></path>
                    </g>
                    <g id="Group-20" opacity="0.692406064" transform="translate(0.000000, 108.000000)">
                        <mask id="mask-2" fill="white">
                            <use xlink:href="#path-1"></use>
                        </mask>
                        <g id="Mask"></g>
                        <ellipse id="Oval-Copy-4" fill="#4A4CB4" cx="183.284884" cy="86.4782609" rx="10.7151163" ry="10.7391304"></ellipse>
                        <ellipse id="Oval-Copy-5" fill="#4A4CB4" cx="183.284884" cy="162.217391" rx="10.7151163" ry="10.7391304"></ellipse>
                        <path d="M44.5788675,113.043478 L117.302326,113.043478 L117.302326,113.043478 L117.302326,128.782609 C117.302326,133.200887 113.720604,136.782609 109.302326,136.782609 L44.5788675,136.782609 C38.0234877,136.782609 32.7093023,131.468423 32.7093023,124.913043 C32.7093023,118.357664 38.0234877,113.043478 44.5788675,113.043478 Z" id="Rectangle-Copy-5" fill="#8473D9" transform="translate(75.005814, 124.913043) scale(-1, 1) translate(-75.005814, -124.913043) "></path>
                        <path d="M110.560162,75.7391304 L165.802326,75.7391304 L165.802326,75.7391304 L165.802326,90.3478261 C165.802326,94.7661041 162.220604,98.3478261 157.802326,98.3478261 L110.560162,98.3478261 C104.316943,98.3478261 99.255814,93.2866972 99.255814,87.0434783 C99.255814,80.8002593 104.316943,75.7391304 110.560162,75.7391304 Z" id="Rectangle-Copy-6" fill="#6756BE"></path>
                        <path d="M110.560162,151.478261 L165.802326,151.478261 L165.802326,151.478261 L165.802326,166.086957 C165.802326,170.505235 162.220604,174.086957 157.802326,174.086957 L110.560162,174.086957 C104.316943,174.086957 99.255814,169.025828 99.255814,162.782609 C99.255814,156.53939 104.316943,151.478261 110.560162,151.478261 Z" id="Rectangle-Copy-8" fill="#6756BE"></path>
                        <ellipse id="Oval-Copy-3" fill="#4A4CB4" cx="10.7151163" cy="123.782609" rx="10.7151163" ry="10.7391304"></ellipse>
                        <ellipse id="Oval-Copy-6" fill="#4A4CB4" cx="183.284884" cy="86.4782609" rx="10.7151163" ry="10.7391304"></ellipse>
                        <ellipse id="Oval-Copy-7" fill="#4A4CB4" cx="183.284884" cy="162.217391" rx="10.7151163" ry="10.7391304"></ellipse>
                        <path d="M20.0033335,118.424482 C20.9109521,120.001477 21.4302326,121.831265 21.4302326,123.782609 C21.4302326,129.713667 16.6329116,134.521739 10.7151163,134.521739 C6.21269394,134.521739 2.35886794,131.738544 0.772964669,127.795111 L0.862457168,127.414845 C2.41864807,129.83984 5.70286778,130.193237 10.7151163,128.475036 C15.6020586,126.79979 18.6689045,123.567368 19.9156541,118.777769 Z" id="Combined-Shape" fill="#3B3C9D"></path>
                        <path d="M192.573101,81.1201343 C193.48072,82.6971296 194,84.5269171 194,86.4782609 C194,92.4093188 189.202679,97.2173913 183.284884,97.2173913 C178.782461,97.2173913 174.928635,94.4341966 173.342732,90.4907627 L173.432225,90.1104969 C174.988416,92.5354923 178.272635,92.8888894 183.284884,91.1706883 C188.171826,89.4954422 191.238672,86.2630198 192.485422,81.4734212 Z" id="Combined-Shape-Copy" fill="#3B3C9D"></path>
                        <path d="M192.573101,156.859265 C193.48072,158.43626 194,160.266048 194,162.217391 C194,168.148449 189.202679,172.956522 183.284884,172.956522 C178.782461,172.956522 174.928635,170.173327 173.342732,166.229893 L173.432225,165.849627 C174.988416,168.274623 178.272635,168.62802 183.284884,166.909819 C188.171826,165.234573 191.238672,162.00215 192.485422,157.212552 Z" id="Combined-Shape-Copy-2" fill="#3B3C9D"></path>
                        <g id="Group-13" transform="translate(75.569767, 0.000000)">
                            <polygon id="Rectangle" fill="#6756BE" points="0.248853273 10.4832184 7.01629513 14.2984856 7.01629513 34.2223488 0.647529967 28.4701256"></polygon>
                            <polygon id="Rectangle" fill="#332A76" points="7.01629513 14.2984856 37.5167258 5.67341868 36.0930233 24.7803579 7.01629513 34.2223488"></polygon>
                            <path d="M22.0165561,15.1008665 C23.1030162,14.7134692 23.9348998,15.5517038 23.9348998,16.6802999 C23.9348998,17.3552003 23.7153594,18.2408027 23.3281105,18.8437604 L23.327307,24.0484358 C23.2487726,24.6142829 23.0128472,24.9574594 22.6195308,25.0779652 C22.2262144,25.1984711 21.9127327,25.0236241 21.6790858,24.5534244 L21.6785141,19.3837161 C21.018177,19.0840617 20.5511789,18.346085 20.5511789,17.4831926 C20.5511789,16.3545965 20.9300961,15.4882639 22.0165561,15.1008665 Z" id="Combined-Shape" fill="#000000" opacity="0.400000006"></path>
                            <polygon id="Path-43" fill="#6756BE" points="-2.0075724e-12 10.4526682 7.01629513 14.4953486 37.5167258 5.67341868 29.2079819 2.43278807"></polygon>
                            <path d="M10.9639696,10.7900085 C9.70607614,10.7340361 9.3807377,10.920399 9.98795423,11.3490973 C10.5951708,11.7777957 11.3740435,12.3187949 12.3245726,12.9720951 L15.24553,12.1042526 L16.7316887,11.7069199 L12.1772756,10.7900085 L10.9639696,10.7900085 Z" id="Path-45" fill="#3E376F"></path>
                            <path d="M27.4632627,5.97117527 C26.2053693,5.91520282 25.8800309,6.10156576 26.4872474,6.53026407 C27.0944639,6.95896238 28.0350537,7.47626875 29.3090167,8.08218318 L31.5855812,7.41165513 L32.9629356,7.02183122 L28.6765688,5.97117527 L27.4632627,5.97117527 Z" id="Path-45-Copy" fill="#3E376F"></path>
                            <path d="M29.2166963,5.15697975 L29.2751746,5.31935657 C29.4638928,5.50172963 29.5744347,5.72297901 29.5744347,5.96147926 C29.5744347,6.58580115 28.8169629,7.09191404 27.8825742,7.09191404 C27.1269574,7.09191404 26.4870364,6.76093887 26.2698302,6.30412654 L26.1907137,6.32686291 C25.0624219,3.06587525 22.5849716,1.94239237 18.7583629,2.95641429 C14.9317541,3.97043621 12.8975765,6.39103007 12.65583,10.2181959 L12.6104936,10.2221668 C12.640141,10.3059648 12.65583,10.3933674 12.65583,10.4832184 C12.65583,11.1075403 11.8983583,11.6136532 10.9639696,11.6136532 C10.0295808,11.6136532 9.27210909,11.1075403 9.27210909,10.4832184 C9.27210909,10.4416431 9.27546816,10.4005921 9.28201486,10.3601798 L9.27210909,10.4832184 C9.67977781,4.9022898 12.739069,1.52744809 18.4499828,0.358693241 C24.0489178,-0.787144845 27.6378223,0.812283991 29.2166963,5.15697975 Z" id="Combined-Shape" fill="#7D6CD2"></path>
                        </g>
                    </g>
                    <g id="illustrations/rain" opacity="0.829752604" transform="translate(327.000000, 89.000000)">
                        <g id="Layer_2" transform="translate(13.572816, 0.000000)">
                            <path d="M202.294432,9.59555208 L193.089727,166.666385 L192.623934,174.585812 L191.962297,185.904927 L188.52178,244.590385 C188.378823,247.024723 187.234374,249.292697 185.358172,250.859762 C183.481971,252.426826 181.039994,253.154351 178.607799,252.870865 L20.7569009,234.483562 C16.4908557,233.987315 13.1902127,230.526463 12.9125232,226.258427 L6.94190374,134.582823 L0.240836157,31.6908854 C-0.0640882019,26.9978787 3.36714482,22.8856886 8.05610178,22.3246146 L192.353986,0.281989583 C194.969949,-0.0299267547 197.590219,0.828648027 199.509041,2.62646108 C201.427862,4.42427414 202.447908,6.97644242 202.294432,9.59555208 Z" id="Path" fill="url(#linearGradient-3)"></path>
                            <g id="Group" opacity="0.31" transform="translate(22.231030, 20.556250)" fill="#7D66DE">
                                <ellipse id="Oval" cx="147.685495" cy="54.2263333" rx="1" ry="1"></ellipse>
                                <ellipse id="Oval" cx="165.867302" cy="46.7865521" rx="1" ry="1"></ellipse>
                                <ellipse id="Oval" cx="167.857508" cy="11.8198437" rx="1" ry="1"></ellipse>
                                <ellipse id="Oval" cx="145.941418" cy="44.5569896" rx="1" ry="1"></ellipse>
                                <ellipse id="Oval" cx="16.9379275" cy="10.8289271" rx="1" ry="1"></ellipse>
                                <ellipse id="Oval" cx="78.9492682" cy="43.8111667" rx="1" ry="1"></ellipse>
                                <ellipse id="Oval" cx="67.9925463" cy="27.4452292" rx="1" ry="1"></ellipse>
                                <ellipse id="Oval" cx="36.612389" cy="9.835375" rx="1" ry="1"></ellipse>
                                <ellipse id="Oval" cx="49.5619639" cy="2.64332292" rx="1" ry="1"></ellipse>
                                <ellipse id="Oval" cx="109.0829" cy="0.90921875" rx="1" ry="1"></ellipse>
                                <ellipse id="Oval" cx="46.076456" cy="21.2440937" rx="1" ry="1"></ellipse>
                                <ellipse id="Oval" cx="0.997749794" cy="12.8133958" rx="1" ry="1"></ellipse>
                                <ellipse id="Oval" cx="84.4276291" cy="18.2687083" rx="1" ry="1"></ellipse>
                                <ellipse id="Oval" cx="119.044518" cy="44.8047187" rx="1" ry="1"></ellipse>
                                <ellipse id="Oval" cx="90.9037398" cy="32.4050833" rx="1" ry="1"></ellipse>
                                <ellipse id="Oval" cx="173.338516" cy="25.7084896" rx="1" ry="1"></ellipse>
                            </g>
                        </g>
                        <g id="Layer_1" transform="translate(0.000000, 7.906250)">
                            <path d="M208.484348,125.570235 L202.540337,236.666011 C202.397198,239.105595 201.251298,241.378457 199.372718,242.948899 C197.494137,244.519341 195.049064,245.248434 192.613785,244.964336 L34.5627361,226.537406 C30.2912817,226.04009 26.9864536,222.571778 26.708412,218.294544 L20.7302219,126.421363 C20.7302219,126.421363 37.5120825,118.057011 50.8782131,118.057011 C70.0794388,118.057011 75.8138374,141.169246 102.49575,142.410561 C149.576647,144.605313 141.531529,124.020607 155.109652,124.020607 C170.571859,124.02853 183.050541,165.582847 208.484348,125.570235 Z" id="Path" fill="url(#linearGradient-4)"></path>
                            <path d="M29.1834251,223.938567 L120.44887,207.534717 L198.74302,242.825048 C197.746655,245.561224 192.330245,244.937925 190.120223,244.673816 L33.455075,226.407993 C32.4269111,226.175576 29.6789577,224.683357 29.1834251,223.938567 Z" id="Path" fill="#4D33B7"></path>
                            <path d="M56.3635205,154.847482 C50.5088034,154.84428 45.2289907,158.35745 42.98725,163.748009 C40.7455092,169.138568 41.9835796,175.344297 46.1238697,179.470065 C50.2641597,183.595833 56.4908175,184.82865 61.8989482,182.593375 C67.3070788,180.3581 70.831,175.095198 70.8267164,169.259948 C70.8252492,161.299737 64.3502861,154.847482 56.3635205,154.847482 L56.3635205,154.847482 Z M57.5798278,176.470141 C57.1781196,176.539283 56.7711742,176.573745 56.3635205,176.573152 C52.3110801,176.573152 49.0259282,173.298914 49.0259282,169.259948 C49.0259282,165.220981 52.3110801,161.946752 56.3635205,161.946752 C60.4159608,161.946752 63.7011222,165.220981 63.7011222,169.259948 C63.7018284,169.694084 63.6619068,170.12734 63.581867,170.554085 C63.0364672,173.592048 60.6337905,175.960305 57.5798278,176.470141 L57.5798278,176.470141 Z" id="Shape" fill="#3E269E" fill-rule="nonzero"></path>
                            <path d="M19.2303746,60.5233661 L23.120438,77.5082573 C23.2066291,77.8804342 23.1311967,78.2715819 22.9127137,78.5853927 C22.6942307,78.8992036 22.3529962,79.1065217 21.9730283,79.1563015 C14.2585631,80.1362269 6.699686,76.4432663 2.75149108,69.7654384 C-1.19670384,63.0876105 -0.775652032,54.7079228 3.82218754,48.4566544 C8.42002712,42.205386 16.311274,39.2835898 23.888911,41.0267922 C24.2030812,41.0992767 24.4724223,41.2996117 24.6315477,41.5791628 C24.7906731,41.858714 24.8250314,42.1919174 24.7262816,42.4978829 L19.2939724,59.1103795 C19.1459804,59.5671609 19.1240135,60.0552124 19.2303746,60.5233661 Z" id="Path" fill="#5233D3"></path>
                            <rect id="Rectangle" fill="#5233D3" x="0.148394788" y="98.1801192" width="74.0066008" height="7.95234139" rx="3.9761707"></rect>
                            <path d="M206.918671,158.424085 L206.452287,166.36058 L183.943977,166.36058 C181.745064,166.36058 179.962492,164.583935 179.962492,162.392333 C179.962492,160.20073 181.745064,158.424085 183.943977,158.424085 L206.918671,158.424085 Z" id="Path" fill="#5233D3"></path>
                            <ellipse id="Oval" fill="#DE962B" cx="128.928572" cy="78.2979452" rx="8.97788469" ry="8.94803475"></ellipse>
                            <rect id="Rectangle" fill="#C97800" x="95.015063" y="106.879891" width="16.116734" height="4.61663658" rx="2.30831829"></rect>
                            <rect id="Rectangle" fill="#C97800" x="102.993933" y="113.847103" width="32.4163115" height="4.61663658" rx="2.30831829"></rect>
                            <rect id="Rectangle" fill="#F96A00" x="41.3385482" y="98.2487877" width="32.858846" height="7.81500438" rx="3.90750219"></rect>
                            <rect id="Rectangle" fill="#C97800" x="98.2558992" y="121.804727" width="25.5636522" height="4.61663658" rx="2.30831829"></rect>
                            <rect id="Rectangle" fill="#C97800" x="107.731966" y="129.764992" width="32.4163115" height="4.61663658" rx="2.30831829"></rect>
                            <path d="M176.5474,95.8955708 C176.5474,95.8955708 177.342372,85.1489494 186.264608,85.1489494 C195.186845,85.1489494 192.388543,79.0453755 197.182225,79.0453755 C202.638383,79.0453755 201.30813,85.6798097 205.56653,85.6798097 C209.824931,85.6798097 209.827581,82.893453 212.755728,82.893453 C216.351652,82.893453 217.8144,94.7017952 217.8144,94.7017952 L176.5474,95.8955708 Z" id="Path" fill="#8E66DA"></path>
                            <path d="M176.5368,95.9457516 C176.5368,95.9457516 178.126744,89.7919969 182.896577,88.5850158 C187.666409,87.3780348 186.680644,90.5024518 190.682003,89.4882708 C194.683363,88.4740898 193.268312,82.5316228 196.596595,82.5157307 C201.30283,82.4946474 198.73772,89.8448188 205.900419,88.0330267 C213.063117,86.2212345 217.295018,92.6100468 217.825,94.6674609 C211.462573,95.0451377 176.5368,95.9457516 176.5368,95.9457516 Z" id="Path" fill="#5233D3"></path>
                            <path d="M9.47606719,142.867471 C9.47606719,142.867471 10.6658754,127.438186 19.2091754,129.992126 C26.6898626,132.229135 26.1360321,134.466143 30.9297137,134.466143 C36.388522,134.466143 35.1695648,128.999074 37.9122185,128.999074 C40.6548722,128.999074 42.6635016,134.714406 45.3929058,132.477398 C48.1223099,130.240389 50.7430679,141.673695 50.7430679,141.673695 L9.47606719,142.867471 Z" id="Path" fill="#8E66DA"></path>
                            <path d="M9.46546757,142.917652 C9.46546757,142.917652 11.190557,137.500763 15.9683392,138.691898 C20.955464,139.933213 21.2045553,136.454889 23.6159706,136.460171 C26.1916801,136.460171 27.3523394,140.199964 30.6806225,140.184117 C35.3868572,140.160347 35.1033171,134.854384 38.8343861,135.007568 C43.8957083,135.213574 50.2289859,139.581947 50.7589673,141.639361 C44.3965408,142.017038 9.46546757,142.917652 9.46546757,142.917652 Z" id="Path" fill="#5233D3"></path>
                            <path d="M202.007705,147.637291 L174.978655,147.637291 C173.368801,147.637291 172.063757,146.336586 172.063757,144.732085 L172.063757,126.920531 C172.071051,125.321189 173.373961,124.02853 174.978655,124.02853 L203.136566,124.02853 C203.937182,124.031531 204.701315,124.36261 205.249626,124.944065 C205.797937,125.525521 206.082151,126.306159 206.035564,127.102766 L204.904054,144.927526 C204.801196,146.448139 203.536841,147.631044 202.007705,147.637291 Z" id="Path" fill="url(#linearGradient-5)"></path>
                            <polygon id="Path" fill="#7D66DE" points="180.726957 142.661883 187.46037 136.19912 195.43924 139.42918 204.417125 132.221628 208.097845 132.314067 207.491017 142.661883"></polygon>
                            <polyline id="Path" stroke="#5233D3" points="102.49575 24.6150189 120.44887 13.9291426 139.151913 34.3078428 181.044292 24.1184927"></polyline>
                            <ellipse id="Oval" fill="#7D66DE" cx="181.417928" cy="23.9943612" rx="1" ry="1"></ellipse>
                            <ellipse id="Oval" fill="#7D66DE" cx="139.027367" cy="34.4319743" rx="1" ry="1"></ellipse>
                            <ellipse id="Oval" fill="#7D66DE" cx="120.573415" cy="14.0532742" rx="1" ry="1"></ellipse>
                            <ellipse id="Oval" fill="#7D66DE" cx="102.371205" cy="24.9900546" rx="1" ry="1"></ellipse>
                            <polyline id="Path" stroke="#5233D3" points="172.190953 6.10093279 182.416943 10.078424 199.121957 0.882126212 218.074091 14.0532742 231.790009 8.83446761"></polyline>
                            <ellipse id="Oval" fill="#7D66DE" cx="172.190953" cy="6.10093279" rx="1" ry="1"></ellipse>
                            <ellipse id="Oval" fill="#7D66DE" cx="182.165202" cy="10.0757829" rx="1" ry="1"></ellipse>
                            <ellipse id="Oval" fill="#7D66DE" cx="199.121957" cy="0.882126212" rx="1" ry="1"></ellipse>
                            <ellipse id="Oval" fill="#7D66DE" cx="218.074091" cy="14.0532742" rx="1" ry="1"></ellipse>
                            <ellipse id="Oval" fill="#7D66DE" cx="231.790009" cy="9.08273067" rx="1" ry="1"></ellipse>
                            <path d="M28.2957062,78.6888275 C27.6452178,78.9157562 26.9284292,78.8547657 26.3259493,78.5212235 C25.7234693,78.1876813 25.2927491,77.6133934 25.142317,76.9430627 L21.4085981,60.6395744 C21.3584917,60.4217674 21.3685653,60.1944961 21.4377471,59.9819413 L26.9760526,43.049872 C27.0822617,42.7291546 27.3147462,42.465264 27.6200977,42.318824 C27.9254491,42.1723841 28.2774177,42.1559834 28.5951457,42.2733897 C36.1820027,45.1123885 41.2090888,52.3407075 41.2140025,60.4177223 C41.2140025,68.616837 36.0428052,75.9308622 28.2957062,78.6888275 Z" id="Path" fill="#DE962B"></path>
                            <path d="M145.554088,174.536858 C144.92076,178.120826 142.042961,180.61138 139.128064,180.083161 C138.645745,179.998375 138.180956,179.834142 137.752762,179.597199 C135.659336,178.445681 134.466877,175.64876 134.994209,172.669603 C135.627537,169.088277 138.505336,166.595081 141.420233,167.110095 C142.978378,167.374205 144.231784,168.457054 144.963159,169.943992 C145.642621,171.374106 145.849515,172.982146 145.554088,174.536858 Z" id="Path" fill="#976E33"></path>
                            <polygon id="Path" fill="#3E269E" points="124.937812 226.920365 136.332412 238.401212 180.23872 243.522298 140.148278 226.672102 137.145933 226.796234 153.366014 237.857146 151.121542 239.098461 130.923952 229.405637"></polygon>
                            <path d="M142.392749,202.572097 C142.392749,202.572097 140.272824,202.255166 137.665315,201.806179 C133.351267,201.064031 127.712265,199.957412 128.178648,199.342036 C128.928572,198.346343 130.174028,191.886221 131.422134,186.168247 C132.38935,181.733846 136.509956,180.590252 138.311892,180.299731 C138.591803,180.253318 138.873964,180.221581 139.157213,180.204651 C139.157213,181.566824 139.600996,187.058103 139.972274,191.868487 C140.402957,197.448555 142.392749,202.572097 142.392749,202.572097 Z" id="Path" fill="#755CDC"></path>
                            <path d="M130.923952,228.909111 C130.691378,229.21653 130.321404,229.389533 129.935537,229.371303 C128.244896,229.445254 125.2823,227.710053 124.688721,226.920365 C123.941447,225.927313 125.685086,225.927313 127.182283,225.927313 C128.679481,225.927313 129.930237,224.683357 129.930237,224.683357 L131.435384,224.683357 C131.435384,224.683357 131.472483,224.889362 131.506931,225.211576 C131.583779,226.093702 131.647376,227.826261 130.923952,228.909111 Z" id="Path" fill="#291A6A"></path>
                            <path d="M118.45084,179.700202 L117.202734,209.016373 C117.336974,209.151353 117.512027,209.238589 117.700916,209.264694 C117.767417,209.266093 117.831627,209.240405 117.878662,209.193527 C117.925696,209.146649 117.95147,209.082652 117.950008,209.016373 L119.198114,179.700202 L118.45084,179.700202 Z" id="Path" fill="#150A43"></path>
                            <path d="M139.154563,222.446348 C139.154563,222.446348 137.903807,223.700869 136.409259,223.700869 C134.914712,223.700869 133.168423,223.700869 133.915697,224.693921 C134.662971,225.686973 139.151913,228.174886 140.148278,226.682667 C141.144643,225.190447 140.64911,222.456912 140.64911,222.456912 L139.154563,222.446348 Z" id="Path" fill="#1F0E65"></path>
                            <path d="M119.092117,179.700202 L129.813641,213.001787 C129.881826,213.06703 129.92037,213.157164 129.92037,213.251371 C129.92037,213.345578 129.881826,213.435712 129.813641,213.500954 C129.56455,213.749217 129.066367,213.500954 129.066367,213.500954 L118.344844,179.69492 L119.092117,179.700202 Z" id="Path" fill="#3E269E"></path>
                            <polygon id="Path" fill="#3E269E" points="117.208034 208.778674 146.383509 239.594987 148.378889 239.84325 117.955307 208.778674"></polygon>
                            <polygon id="Path" fill="#3E269E" points="128.928572 211.512209 172.567239 242.825048 174.809061 242.825048 129.675846 211.512209"></polygon>
                            <path d="M141.621626,202.572097 C141.621626,202.572097 140.148278,205.057369 140.148278,206.797852 C140.148278,208.538334 141.396384,219.969 140.898202,222.206008 C140.400019,224.443017 138.902822,222.702534 138.902822,222.702534 C138.345844,219.651468 137.511209,216.657303 136.409259,213.757141 C134.662971,209.283123 132.667591,203.56515 132.667591,203.56515 L132.68084,200.72333 L141.621626,202.572097 Z" id="Path" fill="#150A43"></path>
                            <path d="M137.487771,201.779768 C137.487771,201.779768 136.409259,207.061961 134.662971,209.288406 C132.916682,211.51485 132.418499,223.951773 131.920317,225.193088 C131.812591,225.559937 131.503666,225.832939 131.125345,225.89562 C130.79012,225.929156 130.452781,225.85711 130.160779,225.689614 C130.160779,225.689614 129.164414,225.940519 128.165399,216.744221 C127.573706,211.130278 127.834562,205.459508 128.939172,199.923078 L132.760337,200.736535 L137.487771,201.779768 Z" id="Path" fill="#291386"></path>
                            <path d="M135.900477,170.017942 L135.887228,170.017942 L135.357246,170.630677 L105.980378,149.486059 L105.961829,149.472853 L105.050261,148.81522 L104.117493,148.144382 L102.744842,147.153971 C102.744842,147.153971 101.419888,144.370255 104.740221,144.172173 C105.21222,144.439896 105.661542,144.745515 106.083724,145.085992 C106.290417,145.239176 106.518309,145.410847 106.7621,145.598365 C113.845302,151.052229 135.900477,170.017942 135.900477,170.017942 Z" id="Path" fill="url(#linearGradient-6)"></path>
                            <path d="M139.151913,180.196728 C139.151913,180.196728 138.95317,180.566482 138.598082,181.126394 L138.598082,181.142241 C137.408274,183.009496 134.493376,186.923601 131.443334,186.160324 C127.452574,185.167272 125.457194,180.941517 124.959011,178.456246 C124.741719,177.373396 125.046458,175.28693 125.457194,173.303466 C125.987175,170.720474 126.7053,168.266896 126.7053,168.266896 C126.43457,167.806948 126.098028,167.388782 125.706285,167.02558 C124.959011,166.27815 125.706285,165.781624 124.959011,164.788572 C124.211738,163.795519 122.963631,164.540308 124.959011,163.048089 C126.43501,161.944111 127.362477,163.151092 128.048803,164.368637 C128.292594,164.793854 128.504587,165.21907 128.70068,165.543925 C129.341957,166.600364 128.334993,170.768014 128.501937,174.283313 C128.525654,174.853532 128.592087,175.421187 128.70068,175.981538 C128.899423,176.977232 129.736794,177.740508 130.860354,178.326832 C133.775252,179.845462 138.568933,180.175599 139.120114,180.20201 L139.151913,180.196728 Z" id="Path" fill="#9F7942"></path>
                            <path d="M139.098915,180.191446 L138.590133,181.126394 L138.590133,181.142241 C137.400324,183.009496 134.485427,186.923601 131.435384,186.160324 C127.444624,185.167272 125.449244,180.941517 124.951062,178.456246 C124.733769,177.373396 125.038509,175.28693 125.449244,173.303466 L127.216732,173.86602 L128.493987,174.272749 C128.517705,174.842967 128.584137,175.410622 128.69273,175.970974 C128.891473,176.966667 129.728844,177.729944 130.852404,178.316268 C133.740803,179.834898 138.547734,180.159753 139.098915,180.191446 Z" id="Path" fill="#755CDC"></path>
                            <polygon id="Path" fill="#5233D3" points="118.273296 158.576713 118.254747 179.700202 119.092117 179.700202 119.092117 158.574072"></polygon>
                            <path d="M118.45084,179.700202 L107.731966,213.001787 C107.663781,213.06703 107.625237,213.157164 107.625237,213.251371 C107.625237,213.345578 107.663781,213.435712 107.731966,213.500954 C107.981058,213.749217 108.47924,213.500954 108.47924,213.500954 L119.203413,179.69492 L118.45084,179.700202 Z" id="Path" fill="#5233D3"></path>
                            <polygon id="Path" fill="#3E269E" points="107.731966 213.500954 129.924937 237.656422 131.983915 237.894121 108.48189 213.500954"></polygon>
                            <path d="M105.050261,148.802015 L104.117493,148.131176 C104.091467,147.418511 104.31125,146.718476 104.740221,146.147713 C105.091697,145.683914 105.553388,145.314519 106.083724,145.072787 C106.290417,145.22597 106.518309,145.397641 106.7621,145.585159 C106.075775,145.92322 104.893916,146.800064 105.050261,148.802015 Z" id="Path" fill="#5233D3"></path>
                            <path d="M118.204399,158.574072 C118.204399,158.574072 117.706216,156.337063 119.452505,155.592274 C119.950687,155.592274 119.950687,156.337063 119.950687,156.337063 C119.950687,156.337063 118.954322,156.833589 119.203413,158.574072 C119.282911,159.12342 118.204399,158.574072 118.204399,158.574072 Z" id="Path" fill="#755CDC"></path>
                            <rect id="Rectangle" fill="#F96A00" x="135.661985" y="44.7480971" width="59.5964069" height="4.47401738" rx="2.23700869"></rect>
                            <path d="M130.839155,178.316268 C130.577576,178.573236 130.19201,178.659315 129.84544,178.53812 C128.521447,178.085599 127.521699,176.989533 127.195533,175.632914 C127.140583,175.045222 127.140583,174.453711 127.195533,173.86602 C127.328028,171.393954 127.752013,166.999169 128.019654,164.358073 C128.263445,164.783289 128.475438,165.208506 128.671531,165.533361 C129.312808,166.589799 128.305844,170.757449 128.472788,174.272749 C128.496505,174.842967 128.562938,175.410622 128.671531,175.970974 C128.878224,176.966667 129.715594,177.729944 130.839155,178.316268 Z" id="Path" fill="#7C4A00"></path>
                            <rect id="Rectangle" fill="#F96A00" x="145.135403" y="31.3260449" width="33.9135089" height="4.47401738" rx="2.23700869"></rect>
                            <rect id="Rectangle" fill="#5233D3" x="171.070042" y="44.7480971" width="59.5964069" height="4.47401738" rx="2.23700869"></rect>
                            <path d="M69.957543,173.966382 C68.4694089,178.006547 65.2520362,181.175463 61.1810513,182.61069 L57.5877775,176.221878 C60.6417402,175.712042 63.044417,173.343785 63.5898167,170.305822 L69.957543,173.966382 Z" id="Path" fill="#6551B1"></path>
                            <rect id="Rectangle" fill="#5233D3" x="174.559969" y="31.3260449" width="20.4466819" height="4.47401738" rx="2.23700869"></rect>
                            <path d="M145.554088,174.536858 C144.92076,178.120826 142.042961,180.61138 139.128064,180.083161 C138.645745,179.998375 138.180956,179.834142 137.752762,179.597199 C137.752762,179.597199 140.66766,178.068004 141.24004,177.204366 C142.19971,175.711962 142.6633,173.956176 142.564993,172.186283 L144.949909,169.943992 C145.633861,171.372655 145.845402,172.980754 145.554088,174.536858 L145.554088,174.536858 Z" id="Path" fill="#7C4A00"></path>
                            <path d="M142.996928,179.018799 C142.162207,177.682404 142.578243,175.524629 142.432498,173.826404 C142.421898,173.710195 142.408648,173.596628 142.392749,173.485702 C142.143658,171.74522 140.898202,170.503904 138.65373,169.524057 C136.409259,168.544211 136.65835,166.787882 136.65835,166.787882 C136.213166,163.674029 141.163192,162.562127 145.426892,166.637339 C145.956648,167.143814 146.443255,167.693292 146.881691,168.280101 C151.370634,174.230491 143.889946,180.444991 142.996928,179.018799 Z" id="Path" fill="#150A43"></path>
                            <path d="M142.996928,179.018799 C142.162207,177.682404 142.578243,175.524629 142.432498,173.826404 C142.432498,173.826404 144.552423,171.330567 144.949909,170.350721 C145.289097,169.516134 145.426892,166.624134 145.426892,166.624134 C145.956648,167.130608 146.443255,167.680087 146.881691,168.266896 C151.370634,174.230491 143.889946,180.444991 142.996928,179.018799 Z" id="Path" fill="#0B0522"></path>
                            <path d="M133.081331,179.206026 C132.81634,179.446365 130.237626,178.667533 129.84544,178.53812 C128.521447,178.085599 127.521699,176.989533 127.195533,175.632914 C127.140583,175.045222 127.140583,174.453711 127.195533,173.86602 L128.55915,174.269812 C128.582867,174.84003 128.665899,175.426404 128.774492,175.986756 C129.092794,177.075627 129.851201,178.132936 133.081331,179.206026 Z" id="Path" fill="#31236B"></path>
                            <path d="M130.923952,228.909111 C130.691378,229.21653 130.321404,229.389533 129.935537,229.371303 L129.935537,229.371303 C130.295924,228.961933 130.640412,225.813746 130.640412,225.813746 L131.493682,225.22214 C131.583779,226.093702 131.647376,227.826261 130.923952,228.909111 Z" id="Path" fill="#1B0E50"></path>
                            <path d="M140.198626,226.532124 C139.966053,226.839543 139.596078,227.012546 139.210211,226.994316 L139.210211,226.994316 C139.570598,226.584946 139.915086,223.436759 139.915086,223.436759 L140.768356,222.845154 C140.858453,223.716715 140.922051,225.449275 140.198626,226.532124 Z" id="Path" fill="#1B0E50"></path>
                            <path d="M137.487771,201.779768 C138.584833,203.459506 136.409259,207.061961 134.662971,209.288406 C132.916682,211.51485 132.460898,224.044211 131.965365,225.285527 C131.777222,225.758283 130.905403,225.94316 130.640412,225.813746 C130.515866,225.753001 130.640412,225.285527 130.640412,224.493198 C130.640412,223.117186 130.375421,219.475114 130.40457,212.254357 C130.431069,205.258092 132.487397,200.860667 132.752388,200.736535 C133.849449,200.224163 136.825295,200.755023 137.487771,201.779768 Z" id="Path" fill="#150A43"></path>
                            <path d="M142.392749,202.572097 C142.392749,202.572097 139.941585,202.252525 137.53017,201.779768 C135.659336,201.417938 133.899797,200.918771 132.760337,200.72333 C133.290319,198.610453 133.605658,196.19649 134.085291,194.120589 C134.880263,190.687163 134.880263,188.838396 135.145254,185.66908 C135.54274,180.915106 138.306593,180.291808 138.306593,180.291808 C138.586503,180.245395 138.868664,180.213658 139.151913,180.196728 C142.115839,179.798293 143.021159,185.26812 142.392749,188.434599 C141.264325,194.120589 142.392749,202.572097 142.392749,202.572097 Z" id="Path" fill="#412E8F"></path>
                        </g>
                    </g>
                    <g id="Illustrations/aurora" transform="translate(138.000000, 89.000000)">
                        <g id="innov_illu-06-06" transform="translate(7.917031, 0.000000)">
                            <path d="M251.082969,13.644248 L251.082969,271.859286 C251.061398,279.107716 245.211503,284.978352 237.988682,285 L19.3140746,285 C12.0912532,284.978352 6.24135826,279.107716 6.21978673,271.859286 L0,13.3157301 C0,9.51599607 0.716912072,5.62876362 5.02165939,2.33389142 C9.32640671,-0.960980771 15.7145565,0.503533569 19.3140746,0.503533569 L237.988682,0.503533569 C245.211503,0.525181589 251.061398,6.39581764 251.082969,13.644248 Z" id="Path" fill="url(#linearGradient-7)"></path>
                            <path d="M251.082969,230.907223 L251.082969,271.80664 C251.082969,279.093131 245.2347,285 238.020493,285 L146.2566,285 L38.1646114,239.153073 L144.950352,199.902827 L251.082969,230.907223 Z" id="Path" fill="url(#linearGradient-8)"></path>
                            <path d="M187.810061,242.199647 L251.082345,253.453647 L251.082969,271.80664 C251.082969,279.093131 245.2347,285 238.020493,285 L187.244345,284.999647 L106.961345,256.308664 L122.941189,248.745583 L146.130288,248.745583 L187.810061,242.199647 Z" id="Combined-Shape" fill="url(#linearGradient-9)" opacity="0.556663876"></path>
                            <path d="M124.034987,223.628477 C124.034987,223.628477 119.184903,221.244711 117.177972,220.896207 C115.171041,220.547703 112.829622,220.199199 112.160645,221.244711 C111.491668,222.290222 112.612204,224.82733 117.23818,225.475547 C121.864156,226.123764 124.034987,223.628477 124.034987,223.628477 Z" id="Path" fill="#5D49CD"></path>
                            <polygon id="Path" fill="#2A1976" points="106.459179 256.80212 122.941189 248.745583 123.030655 227.597173 106.459179 233.8096"></polygon>
                            <path d="M117.57166,224.73888 C117.57166,224.73888 118.204887,224.121804 120.42118,224.121804 C122.637473,224.121804 124.537153,223.813266 124.537153,224.73888 C124.537153,225.664493 124.537153,225.664493 123.587313,225.973031 C122.637473,226.281568 119.154727,226.590106 119.154727,226.590106 C119.154727,226.590106 115.67198,225.973031 117.57166,224.73888 Z" id="Path" fill="#2A1976"></path>
                            <polygon id="Path" fill="#391C59" points="77.8357205 224.531731 77.8357205 246.731449 93.9050306 239.370661 93.9050306 218.533569"></polygon>
                            <polygon id="Path" fill="#5D49CD" points="106.459179 233.814718 123.030655 227.597173 94.0439275 218.533569 77.3335546 225.023557"></polygon>
                            <polygon id="Path" fill="#432CB6" points="105.454847 212.583652 105.454847 225.079505 101.784373 224.099567 91.8963668 221.462285 91.8963668 208.966431 97.1228382 210.360705"></polygon>
                            <path d="M98.0256844,222.561837 L98.0256844,224.911661 C98.0256844,224.911661 97.3527668,225.918728 96.6798491,226.254417 C96.0069315,226.590106 96.6798491,227.597173 98.0256844,227.597173 C99.3715197,227.597173 100.717355,227.597173 100.380896,226.925795 C100.044437,226.254417 99.0350609,225.24735 99.0350609,224.911661 L99.0350609,223.233216 L98.0256844,222.561837 Z" id="Path" fill="#432CB6"></path>
                            <polygon id="Path" fill="#2A1976" points="105.454847 212.813944 105.957013 212.491166 105.957013 224.433949 105.454847 225.079505"></polygon>
                            <path d="M124.264521,222.334078 C122.746009,223.184871 120.094427,223.758586 118.34332,223.510846 C117.412941,223.377196 116.869077,222.153933 116.752779,221.475906 C116.420501,219.520059 116.28984,211.902895 121.606294,210.598997 C121.606294,210.598997 124.287781,210.035061 126.015628,211.33244 C126.63161,211.802941 127.068191,212.463187 127.255027,213.206793 C128.251862,216.792512 126.59047,221.03018 124.264521,222.334078 Z" id="Path" fill="#432CB6"></path>
                            <polygon id="Path" fill="#2A1976" points="120.017659 222.91389 120.282373 224.072438 123.032807 224.072438 122.277406 222.586617 124.537153 217.022968 122.277406 217.022968"></polygon>
                            <path d="M125.541485,211.33625 C124.846907,211.33625 122.930502,210.59954 121.351916,211.58182 C120.142719,212.334901 117.563308,213.546379 117.563308,220.749762 C117.563308,222.714321 117.879025,223.041748 118.251572,223.568905 C117.367563,223.43466 116.726657,221.758236 116.616156,221.077189 C116.300439,219.11263 116.300439,211.909246 121.351916,210.59954 C121.351916,210.59954 123.899755,210.033092 125.541485,211.33625 Z" id="Path" fill="#7664DB"></path>
                            <polygon id="Path" fill="#503BBB" points="101.43752 224.072438 91.8963668 221.439883 91.8963668 208.966431 96.9395031 210.358206"></polygon>
                            <g id="Group-3" transform="translate(136.086969, 181.775618)">
                                <polygon id="Path" fill="#20125B" points="4.51949345 52.8542403 42.5665245 58.9134276 44.6927686 57.6378092 21.2485597 50.6219081 15.2976892 49.3462898 9.41867334 49.9840989 23.136377 52.8542403 9.74528533 51.9070936"></polygon>
                                <path d="M12.8527445,0.503533569 C12.8527445,0.503533569 9.22626502,3.48035174 7.11464408,7.16785172 C5.00302314,10.8553517 9.16068673,12.8097267 10.6394772,12.5683631 C12.1182676,12.3269994 27.3947303,6.85609036 12.8527445,0.503533569 Z" id="Path" fill="#936944"></path>
                                <path d="M8.00675007,52.8689289 C7.64578642,52.8814205 7.28513053,52.8379996 6.94095956,52.7406139 C5.932325,52.4422068 5.59611349,52.7406139 4.58747893,52.7406139 C3.57884438,52.7406139 2.23399831,51.5469854 3.57884438,51.2485783 C4.74886046,50.9889641 8.20175275,50.5055445 9.08598904,50.3831976 L9.29444018,50.3533569 C10.0206571,52.2930032 9.00866039,52.827152 8.00675007,52.8689289 Z" id="Path" fill="#5D49CD"></path>
                                <path d="M15.0426045,48.6918235 C14.8023141,50.1535941 12.8799908,49.5053588 12.8799908,49.5053588 C12.8799908,49.5053588 11.4350444,38.3103351 10.9576675,36.5406527 C10.8775707,36.2489469 10.79427,35.957241 10.7013577,35.6720174 C10.4802905,35.9475174 10.2496117,36.232741 9.9965058,36.5406527 C8.39456971,38.4853587 9.35573136,50.1535941 9.35573136,50.1535941 C9.08307146,50.4637804 8.72847305,50.6886877 8.33369613,50.8018294 C7.83389207,50.9379588 7.18350602,50.8568905 6.47224639,50.1535941 C5.51108473,42.0506528 6.4017612,31.1797468 6.4017612,31.1797468 C6.48185801,30.3143527 7.1738944,29.8832762 8.08059023,29.7439056 L8.08059023,29.7439056 L8.1190367,29.7439056 C9.29039634,29.6232568 10.4726633,29.8119865 11.5503838,30.2916644 L12.2584396,30.4051056 L14.1807629,30.7097762 C14.1807629,30.7097762 14.8215373,32.9785998 14.1807629,34.9233057 C13.5399884,36.8680116 15.279691,47.2365353 15.0426045,48.6918235 Z" id="Path" fill="#291386"></path>
                                <path d="M19.2570636,7.87409722 C18.303464,10.2570911 14.6863622,12.5082457 13.1507381,13.299281 C12.7101093,13.5234077 12.4404708,13.628879 12.4536239,13.5860313 C12.4799301,13.4904479 12.1708323,13.3124649 11.795969,12.9037633 C11.6272893,12.720843 11.4764388,12.5221808 11.3454754,12.3104869 C10.9991629,11.7436696 10.7751348,11.1104298 10.6878206,10.4515539 C10.3162456,8.10481585 10.9377294,9.11668184 11.9209235,7.75544193 C12.9041175,6.39420201 9.38237563,6.97759055 10.3524166,4.85827514 C11.4507002,2.46209737 10.0433188,0 10.0433188,0 C13.0948374,0.220830688 15.3045578,0.912986576 16.8336054,1.852341 C19.4905311,3.50692317 20.0396729,5.92617279 19.2570636,7.87409722 Z" id="Path" fill="#1D1739"></path>
                                <path d="M15.5442904,48.7215529 C15.2963209,50.2008728 13.3125651,49.5448551 13.3125651,49.5448551 C13.3125651,49.5448551 11.821442,38.2154298 11.3288093,36.4245015 C11.2461528,36.1292936 11.1601901,35.8340856 11.0643085,35.5454379 C10.8361766,35.8242454 10.5981259,36.1128931 10.3369314,36.4245015 C8.68380156,38.3925546 9.67567946,50.2008728 9.67567946,50.2008728 C9.39430605,50.514783 9.0283756,50.7423904 8.62098263,50.8568905 C8.54493866,47.0388676 8.45236338,40.5082116 8.68380156,39.3765811 C9.01442753,37.7365369 10.0063054,31.504369 10.0063054,31.504369 L12.6513132,30.2120141 L14.635069,30.5203424 C14.635069,30.5203424 15.2963209,32.8164043 14.635069,34.7844573 C13.973817,36.7525104 15.7889536,47.2487932 15.5442904,48.7215529 Z" id="Path" fill="#150A43"></path>
                                <path d="M8.03465502,52.8710247 L8.14358707,51.0999962 L9.09426674,50.3832225 L9.29892695,50.3533569 C10.0119367,52.2946192 9.01834441,52.8292129 8.03465502,52.8710247 Z" id="Path" fill="#261280"></path>
                                <path d="M13.8259524,50.3472669 C13.5011777,50.3702419 13.1752039,50.3280775 12.8654841,50.2230311 C12.013869,49.9241936 11.7289301,50.2230311 10.8741133,50.2230311 C10.0192966,50.2230311 8.88274248,49.0310389 10.0192966,48.7322015 C10.8581055,48.5139494 13.0767872,48.1311688 14.1813256,47.9431362 L14.8440487,47.835689 C15.4683531,49.7227302 14.6551566,50.2834701 13.8259524,50.3472669 Z" id="Path" fill="#5D49CD"></path>
                                <path d="M14.0606463,50.3533569 L14.0606463,48.1713781 L14.364501,47.9431095 L14.8975342,47.835689 C15.3816417,49.7289753 14.7275816,50.289576 14.0606463,50.3533569 Z" id="Path" fill="#261280"></path>
                                <path d="M11.0139012,6.5459364 C10.7427316,6.16220699 7.03032314,8.03561748 7.03032314,9.33639512 C7.03032314,9.98678394 7.03032314,10.9623672 7.72562983,11.612756 C8.72339492,12.5460639 9.1162432,12.5883392 9.1162432,12.5883392 L11.5498166,12.5883392 C10.9860627,11.8871017 11.1292212,10.7081357 10.7695676,9.89780373 C10.4219143,8.92222049 11.5498166,8.34233361 11.5498166,8.34233361 C11.9503412,7.74589817 12.8052314,6.97638655 11.0139012,6.5459364 Z" id="Path" fill="#664A30"></path>
                                <path d="M19.261111,8.10655699 C18.3181563,10.5175157 14.7414317,12.7950881 13.2229495,13.5954064 L11.880052,13.1952472 L11.0476507,12.9451478 L11.4345872,12.5950085 C12.7352144,11.3911965 16.8582024,7.38627056 16.5850707,5.13537547 C16.4346736,4.0883491 16.5237269,3.01979958 16.8451961,2.01413428 C19.4919723,3.68813329 20.0349842,6.13577329 19.261111,8.10655699 Z" id="Path" fill="#0F0E13"></path>
                                <path d="M14.5628122,15.7382021 L16.971212,18.0039904 C17.6245559,18.618647 17.7887325,19.5931284 17.3728474,20.3879244 L15.0649782,24.798482 L15.0649782,24.798482 L14.5628122,21.5227955 L15.6147585,19.8644853 L14.0606463,18.6337882 L14.5628122,15.7382021 Z" id="Path-4" fill="#664A30"></path>
                                <path d="M14.457995,18.7196612 C15.4538543,23.4123673 15.1869901,29.3470676 13.9307754,30.6120009 C12.8665727,31.6835895 11.0929017,31.8245018 9.5047339,31.6704814 C8.35366008,31.550484 7.21885327,31.3054664 6.12011396,30.9397039 C5.67425537,24.9918955 5.9150841,21.0070277 6.42603153,18.3329718 C6.07780621,17.5268225 5.46922551,18.1592892 4.57425389,17.467836 C3.67928227,16.7763828 4.13164974,15.0264491 4.13164974,15.0264491 C6.37396046,13.5321237 9.37455621,12.5883392 9.37455621,12.5883392 L9.53402388,12.8603327 C9.80705695,12.7639975 10.0941266,12.7141592 10.3834333,12.7128663 L10.3834333,12.7128663 C11.249115,12.7128663 11.9878733,13.1978667 12.6062174,14.007293 C13.6508933,14.4922933 13.1464548,15.6458077 13.5988223,15.8653686 C14.2497107,16.1930716 15.0568124,18.4378367 15.0568124,18.4378367 L14.457995,18.7196612 Z" id="Path" fill="#7353A3"></path>
                                <path d="M14.5732343,18.8686918 C15.3664013,24.0703593 15.1732133,29.357005 13.9280957,30.6166469 C12.873294,31.6837528 11.1152912,31.8240756 9.54115284,31.6706995 C9.77290061,31.4190934 7.70804611,29.4567138 5.62167142,25.5692345 C5.52831707,25.3952901 6.44698621,24.2232535 7.15424222,24.3680646 C8.32592154,24.6079667 9.77833638,25.9874991 9.93940463,25.5692345 C12.8052314,18.1272085 9.72298232,13.2661515 9.72298232,13.2661515 C9.72298232,13.2661515 9.52073595,13.0402141 9.1162432,12.5883392 C9.97427761,12.5883392 10.7442452,12.3821389 11.8795893,13.0765244 C12.7860092,13.5007561 13.8022936,13.6995915 14.2538907,14.3130959 C15.2215987,15.6184242 15.0538626,18.5064632 15.0538626,18.5064632 L14.5732343,18.8686918 Z" id="Path" fill="url(#linearGradient-10)"></path>
                                <path d="M4.21089224,15.2220875 C1.68570942,16.5889939 0.313933429,17.5573675 0.0955642785,18.1272085 C-0.231989447,18.98197 4.1725354,23.9240073 5.09926333,24.6544824 C6.02599127,25.3849576 5.52382533,26.4543557 6.02599127,26.4543557 C6.52815721,26.4543557 9.47093921,25.6483477 7.50561685,24.1493874 C6.19540195,23.1500804 4.52823124,21.2951413 2.50410473,18.58457 C4.06312639,18.0901912 4.94902153,17.6178668 5.16179016,17.1675967 C5.37455879,16.7173267 5.05759281,16.0688236 4.21089224,15.2220875 Z" id="Path-3" fill="#936944"></path>
                            </g>
                            <g id="Group" opacity="0.11" transform="translate(37.160279, 52.367491)" fill="#F0EEFF">
                                <ellipse id="Oval" cx="162.967039" cy="67.7062506" rx="1.07747344" ry="1.08075088"></ellipse>
                                <ellipse id="Oval" cx="185.466256" cy="58.4328168" rx="1.07747344" ry="1.08075088"></ellipse>
                                <ellipse id="Oval" cx="187.929053" cy="14.8480061" rx="1.07747344" ry="1.08075088"></ellipse>
                                <ellipse id="Oval" cx="160.808817" cy="55.6504581" rx="1.07747344" ry="1.08075088"></ellipse>
                                <ellipse id="Oval" cx="1.1724483" cy="13.6095772" rx="1.07747344" ry="1.08075088"></ellipse>
                                <ellipse id="Oval" cx="77.9088621" cy="54.7241002" rx="1.07747344" ry="1.08075088"></ellipse>
                                <ellipse id="Oval" cx="64.3503817" cy="34.3212317" rx="1.07747344" ry="1.08075088"></ellipse>
                                <ellipse id="Oval" cx="25.518763" cy="12.3744334" rx="1.07747344" ry="1.08075088"></ellipse>
                                <ellipse id="Oval" cx="41.5433148" cy="3.40978546" rx="1.07747344" ry="1.08075088"></ellipse>
                                <ellipse id="Oval" cx="115.197958" cy="1.24499874" rx="1.07747344" ry="1.08075088"></ellipse>
                                <ellipse id="Oval" cx="37.230146" cy="26.5917277" rx="1.07747344" ry="1.08075088"></ellipse>
                                <ellipse id="Oval" cx="84.6881023" cy="22.8830111" rx="1.07747344" ry="1.08075088"></ellipse>
                                <ellipse id="Oval" cx="127.528315" cy="55.9592441" rx="1.07747344" ry="1.08075088"></ellipse>
                                <ellipse id="Oval" cx="92.7020156" cy="40.5035209" rx="1.07747344" ry="1.08075088"></ellipse>
                                <ellipse id="Oval" cx="194.711568" cy="32.156445" rx="1.07747344" ry="1.08075088"></ellipse>
                            </g>
                            <g id="Group-4" transform="translate(128.052314, 108.763251)">
                                <polygon id="Path" fill="#5D49CD" points="0 0 13.5584803 3.14708481 10.9759127 7.55300353 9.0389869 4.40591873"></polygon>
                                <polygon id="Path" fill="#2A1976" points="13.5169723 3.02120141 16.06931 6.04240283 12.0519825 5.45049398"></polygon>
                                <polygon id="Path" fill="#7664DB" points="3.87385153 9.56713781 0 0 9.0389869 4.46466431"></polygon>
                                <polygon id="Path" fill="#432CB6" points="11.0476507 7.55300353 8.03465502 5.55222831 9.11985802 4.53180212"></polygon>
                            </g>
                            <polygon id="Path" fill="#5D49CD" points="145.628122 232.909966 163.678418 238.171378 187.307895 226.990878 170.570349 222.058304"></polygon>
                            <polygon id="Path" fill="#2A1976" points="163.706096 238.295707 163.706096 253.780919 187.307895 242.024426 187.307895 226.990878 163.592598 238.192945"></polygon>
                            <polygon id="Path" fill="#432CB6" points="145.628122 233.136042 145.628122 248.865472 163.706096 253.780919 163.706096 238.171378 145.628122 232.928235"></polygon>
                            <g id="Group-5-Copy" transform="translate(163.203930, 232.632509)">
                                <polygon id="Path" fill="#7664DB" points="0 1.15093387 3.34777293 2.01413428 7.03032314 0.575466936 4.01732751 0"></polygon>
                                <polygon id="Path" fill="#2A1976" points="3.01299563 1.90223793 7.03032314 0.575466936 7.03032314 1.51060071 3.01299563 3.02120141"></polygon>
                                <polygon id="Path" fill="#432CB6" points="0 2.20786964 0 1.15093387 3.01299563 1.90223793 3.01299563 3.02120141"></polygon>
                            </g>
                            <polygon id="Path" fill="#432CB6" points="77.3335546 247.442964 106.459179 256.80212 106.459179 233.814718 77.3335546 225.079505"></polygon>
                            <polygon id="Path" fill="#5149CD" points="91.8963668 209.30212 105.630021 212.9947 105.957013 212.659011 92.2233586 208.966431"></polygon>
                            <g id="Group-5" transform="translate(162.701764, 231.625442)">
                                <polygon id="Path" fill="#7664DB" points="0 1.15093387 3.34777293 2.01413428 7.03032314 0.575466936 4.01732751 0"></polygon>
                                <polygon id="Path" fill="#2A1976" points="3.01299563 1.90223793 7.03032314 0.575466936 7.03032314 1.51060071 3.01299563 3.02120141"></polygon>
                                <polygon id="Path" fill="#432CB6" points="0 2.20786964 0 1.15093387 3.01299563 1.90223793 3.01299563 3.02120141"></polygon>
                            </g>
                        </g>
                        <polygon id="Star" fill="#F96A00" points="40.7161572 85.3869048 34.733068 88.5322563 35.8757364 81.8702948 31.0353155 77.1522675 37.7246126 76.1803004 40.7161572 70.1190476 43.7077018 76.1803004 50.3969989 77.1522675 45.556578 81.8702948 46.6992464 88.5322563"></polygon>
                        <path d="M49.48473,78.0347143 L49.76373,78.0777143 L49.76373,78.0927143 L45.2267213,82.7507312 L46.3010379,89.3452381 L40.675843,86.2317343 L35.1204127,89.307616 C35.1006403,89.3006599 35.0808454,89.2936853 35.0610278,89.2866922 L35.08673,89.1217143 L39.8566244,85.4047693 L40.5997346,85.4047693 L46.2657181,89.241636 L44.5684126,81.516907 L49.48473,78.0347143 Z" id="Combined-Shape" fill="#231464"></path>
                        <polygon id="Star" fill="#715CE4" points="10.1790393 78.6011905 4.19595012 81.746542 5.33861847 75.0845805 0.498197644 70.3665532 7.18749471 69.3945861 10.1790393 63.3333333 13.1705839 69.3945861 19.859881 70.3665532 15.0194601 75.0845805 16.1621285 81.746542"></polygon>
                        <path d="M18.952646,70.1179167 L19.227646,70.1599167 L19.226646,70.1899167 L14.6968005,74.8343514 L15.7724463,81.4285714 L10.1402917,78.3152031 L4.61545836,81.3698862 C4.58493572,81.3590485 4.55435904,81.3481664 4.52372834,81.3372398 L4.530646,81.2929167 L9.38164447,77.4882741 L10.1201353,77.4882741 L15.7508983,81.3249739 L14.0641435,73.6005809 L18.952646,70.1179167 Z" id="Combined-Shape" fill="#231464"></path>
                        <polygon id="Star" fill="#715CE4" points="56.5502183 60.5059524 50.5671292 63.6513039 51.7097975 56.9893424 46.8693767 52.2713151 53.5586737 51.299348 56.5502183 45.2380952 59.5417629 51.299348 66.23106 52.2713151 61.3906392 56.9893424 62.5333075 63.6513039"></polygon>
                        <path d="M65.423,52 L65.702,52.043 L65.702,52.058 L61.1649912,56.7160169 L62.2393079,63.3105238 L56.6141129,60.19702 L51.0586827,63.2729017 C51.0389103,63.2659456 51.0191154,63.258971 50.9992978,63.2519779 L51.025,63.087 L55.7948944,59.370055 L56.5380046,59.370055 L62.2039881,63.2069217 L60.5066826,55.4821928 L65.423,52 Z" id="Combined-Shape" fill="#231464"></path>
                        <polygon id="Star" fill="#715CE4" points="83.6943231 78.6011905 77.711234 81.746542 78.8539023 75.0845805 74.0134815 70.3665532 80.7027786 69.3945861 83.6943231 63.3333333 86.6858677 69.3945861 93.3751648 70.3665532 88.534744 75.0845805 89.6774123 81.746542"></polygon>
                        <polygon id="Star-Copy" fill="#F96A00" points="108.576419 68.422619 102.59333 71.5679706 103.735998 64.9060091 98.8955776 60.1879818 105.584875 59.2160147 108.576419 53.1547619 111.567964 59.2160147 118.257261 60.1879818 113.41684 64.9060091 114.559508 71.5679706"></polygon>
                        <path d="M92.462896,70.1180476 L92.741896,70.1610476 L92.741896,70.1760476 L88.2048872,74.8340645 L89.2792038,81.4285714 L83.6540089,78.3150676 L78.0985786,81.3909493 C78.0788063,81.3839932 78.0590113,81.3770186 78.0391937,81.3700256 L78.064896,81.2050476 L82.8347904,77.4881027 L83.5779005,77.4881027 L89.2438841,81.3249694 L87.5465785,73.6002404 L92.462896,70.1180476 Z" id="Combined-Shape" fill="#231464"></path>
                        <path d="M118.423,61 L118.702,61.043 L118.702,61.058 L114.164991,65.7160169 L115.239308,72.3105238 L109.614113,69.19702 L104.058683,72.2729017 C104.03891,72.2659456 104.019115,72.258971 103.999298,72.2519779 L104.025,72.087 L108.794894,68.370055 L109.538005,68.370055 L115.203988,72.2069217 L113.506683,64.4821928 L118.423,61 Z" id="Combined-Shape-Copy" fill="#231464"></path>
                        <path d="M9.04772302,130.059524 L48.6331878,130.059524 L48.6331878,130.059524 L48.6331878,131.630952 C48.6331878,138.258369 43.2606048,143.630952 36.6331878,143.630952 L9.04772302,143.630952 C5.3000765,143.630952 2.26200873,140.592885 2.26200873,136.845238 C2.26200873,133.097592 5.3000765,130.059524 9.04772302,130.059524 Z" id="Rectangle-Copy-22" fill="#432CB6" transform="translate(25.447598, 136.845238) scale(-1, 1) translate(-25.447598, -136.845238) "></path>
                        <path d="M46.3708671,109.702381 L85.9563319,109.702381 L85.9563319,109.702381 L85.9563319,115.27381 C85.9563319,119.692088 82.3746099,123.27381 77.9563319,123.27381 L46.3708671,123.27381 C42.6232206,123.27381 39.5851528,120.235742 39.5851528,116.488095 C39.5851528,112.740449 42.6232206,109.702381 46.3708671,109.702381 Z" id="Rectangle-Copy-23" fill="#5D49CD"></path>
                        <path d="M199.056769,123.27381 L203.673769,127.88581 L236.820961,127.885975 C243.448378,127.885975 248.820961,133.258558 248.820961,139.885975 L248.820961,144.071429 C248.820961,150.698846 243.448378,156.071429 236.820961,156.071429 L211.056769,156.071429 C204.429352,156.071429 199.056769,150.698846 199.056769,144.071429 L199.056769,127.885975 L200.622769,127.88581 L199.056769,127.661425 L199.056769,123.27381 Z" id="Combined-Shape" fill="#4930C3" opacity="0.771926153" transform="translate(223.938865, 139.672619) scale(-1, 1) translate(-223.938865, -139.672619) "></path>
                        <path d="M61.0742358,1.13095238 C67.5244085,15.8259094 73.0911192,25.2828454 77.7743681,29.5017603 C84.7992413,35.8301328 95.3313288,43.2245106 120.984201,34.6590625 C146.637074,26.0936144 153.849286,46.1078536 156.859828,52.6045172 C159.87037,59.1011807 169.630635,72.0945077 182.951193,71.095021 C196.271751,70.0955343 206.032015,67.3954448 210.547828,74.2426664 C215.063641,81.089888 216.625616,89.2464677 221.837361,93.8757739 C227.049107,98.5050802 235.451497,96.7880828 244.449047,101.417389 C250.447413,104.503593 255.297731,108.39621 259,113.095238 C259,102.458335 259,95.4436916 259,92.0513084 C258.031965,91.5327819 255.505503,86.4887286 251.673218,84.5189126 C242.6249,79.868026 238.395343,81.680775 233.927786,76.387898 C229.46023,71.095021 233.927786,60.1006674 221.837361,52.6045172 C209.746936,45.108367 195.272571,54.7636852 187.104854,46.9068049 C178.937137,39.0499247 177.627639,31.1846723 165.138819,20.7621697 C152.649998,10.339667 123.01385,16.052359 119.009793,12.0970631 C116.340422,9.46019918 114.914071,5.80482893 114.730739,1.13095238 L61.0742358,1.13095238 Z" id="Path-23" fill="url(#linearGradient-11)" opacity="0.424827939"></path>
                    </g>
                </g>
                <polygon id="Path-31" fill="#6756BE" points="137.875605 298.199647 381.88401 338.731298 550.013077 286.870141 548.097845 453.906307 381.214003 523.570513 140.917031 469.493068"></polygon>
                <polygon id="Path-33" fill="#342871" points="381.214003 339.731298 381.214003 523.570513 548.484348 454.626314 550.013077 287.870141"></polygon>
            </g>
        </g>
    </g>
</svg>