<?xml version="1.0" encoding="UTF-8"?>
<svg width="40px" height="57px" viewBox="0 0 40 57" version="1.1" xmlns="http://www.w3.org/2000/svg" xmlns:xlink="http://www.w3.org/1999/xlink">
    <!-- Generator: Sketch 52.6 (67491) - http://www.bohemiancoding.com/sketch -->
    <title>Group 5</title>
    <desc>Created with Sketch.</desc>
    <g id="Page-1" stroke="none" stroke-width="1" fill="none" fill-rule="evenodd">
        <g id="Design-process" transform="translate(-852.000000, -1171.000000)" stroke="#FFFFFF" stroke-width="2">
            <g id="Group-5" transform="translate(870.500000, 1200.000000) rotate(-30.000000) translate(-870.500000, -1200.000000) translate(865.000000, 1167.000000)">
                <path d="M4.48598131,18.2429907 C0.897196262,16.7088402 -0.498442368,14.2816888 0.299065421,10.9615367 C1.4953271,5.98130841 5.98130841,2.55508954 4.48598131,0.380348508 C2.99065421,-1.79439252 13.7570093,8.07476636 6.57943925,18.2429907 C5.58255452,18.2429907 4.8847352,18.2429907 4.48598131,18.2429907 Z" id="Path-18"></path>
                <path d="M5.34579439,22 C3.55140187,38.9470405 3.55140187,50.5109034 5.34579439,56.6915888 C7.14018692,62.8722741 8.43613707,65.9626168 9.23364486,65.9626168 C10.2305296,63.7694704 10.728972,60.6791277 10.728972,56.6915888 C10.728972,52.7040498 9.43302181,41.1401869 6.8411215,22 L5.34579439,22 Z" id="Path-20"></path>
            </g>
        </g>
    </g>
</svg>