<?xml version="1.0" encoding="UTF-8"?>
<svg width="469px" height="586px" viewBox="0 0 469 586" version="1.1" xmlns="http://www.w3.org/2000/svg" xmlns:xlink="http://www.w3.org/1999/xlink">
    <title>Illustrations/gov_tech</title>
    <defs>
        <linearGradient x1="49.9996071%" y1="0.210517477%" x2="49.9996071%" y2="42.6269419%" id="linearGradient-1">
            <stop stop-color="#233BB0" offset="0%"></stop>
            <stop stop-color="#241A5A" offset="100%"></stop>
        </linearGradient>
    </defs>
    <g id="Page-1" stroke="none" stroke-width="1" fill="none" fill-rule="evenodd">
        <g id="Gov-tech:hover" transform="translate(-810.000000, -54.000000)">
            <g id="Illustrations/gov_tech" transform="translate(810.000000, 54.000000)">
                <g id="Group-16">
                    <g id="Layer_2" fill="url(#linearGradient-1)">
                        <path d="M440.612941,22.3769792 L457.444592,565.97559 C457.112726,571.652503 454.455965,576.941455 450.100489,580.595874 C445.745014,584.250293 440.076129,585.946894 434.429952,585.285798 L19.1857516,546.819375 C9.28241418,545.662118 1.62019321,537.591355 0.975555556,527.638229 L52.7082499,73.2933046 C52.0003885,62.3491388 59.9657656,52.7594465 70.8508643,51.4510129 L417.536863,0.657604167 C423.609645,-0.0697896651 429.692427,1.9324203 434.146842,6.12494877 C438.601257,10.3174773 440.969224,16.269174 440.612941,22.3769792 Z" id="Path"></path>
                    </g>
                    <path d="M434.619809,293 C421.025809,292.992541 408.766673,301.177243 403.561601,313.735741 C398.356529,326.294238 401.231191,340.751854 410.844482,350.363742 C420.457774,359.97563 434.915378,362.847749 447.472454,357.640183 C460.02953,352.432616 468.211682,340.171524 468.201736,326.57702 C468.198329,308.031952 453.164187,293 434.619809,293 L434.619809,293 Z M437.443938,343.374757 C436.511217,343.535838 435.566335,343.616125 434.619809,343.614743 C425.210494,343.614743 417.582738,335.986685 417.582738,326.57702 C417.582738,317.167356 425.210494,309.539315 434.619809,309.539315 C444.029123,309.539315 451.656901,317.167356 451.656901,326.57702 C451.658541,327.588437 451.565847,328.597803 451.380004,329.591999 C450.113646,336.669604 444.534899,342.186981 437.443938,343.374757 L437.443938,343.374757 Z" id="Shape" fill="#6756BE" fill-rule="nonzero"></path>
                    <ellipse id="Oval" fill="#DE962B" cx="146.845646" cy="165.846422" rx="20.8456464" ry="20.8464224"></ellipse>
                    <path d="M78.0246112,373.309494 C78.0246112,373.309494 80.7872131,337.363567 100.623802,343.313534 C117.993123,348.52514 116.707191,353.736746 127.837584,353.736746 C140.512328,353.736746 137.682046,341 144.050181,341 C150.418317,341 155.082131,354.315129 161.419502,349.103524 C167.756874,343.891918 173.841982,370.52833 173.841982,370.52833 L78.0246112,373.309494 Z" id="Path" fill="#8E66DA"></path>
                    <path d="M78,373.904047 C78,373.904047 82.0054651,361.284208 93.0989422,364.059219 C104.67849,366.951137 105.256852,358.847613 110.855889,358.859919 C116.836399,358.859919 119.53132,367.572592 127.259222,367.535674 C138.186574,367.480297 137.528226,355.118885 146.191352,355.47576 C157.943177,355.955695 172.648341,366.132786 173.878899,370.925986 C159.106054,371.805868 78,373.904047 78,373.904047 Z" id="Path" fill="#342871"></path>
                    <path d="M466.183612,337.541697 C462.728331,346.954153 455.25795,354.336842 445.805578,357.680522 L437.462397,342.796374 C444.553357,341.608598 450.132105,336.09122 451.398462,329.013615 L466.183612,337.541697 Z" id="Path" fill="#342871"></path>
                    <g id="Group-15" transform="translate(126.000000, 210.000000)">
                        <path d="M259,163 L36,163 C39.392526,104.41875 88.0158122,58 147.5,58 C172.073365,58 194.804822,65.91875 213.245797,79.371875 C239.442055,98.446875 257.006973,128.634375 259,163" id="Fill-1" fill="#6756BE"></path>
                        <polygon id="Fill-3" fill="#5233D3" points="143 58 147 58 147 1 143 1"></polygon>
                        <path d="M147,0.97826087 L147,38.3967391 C147,38.3967391 166.636364,33.9945652 179.727273,38.3967391 C192.818182,42.798913 199.363636,25.1902174 219,45 L219,7.58152174 C219,7.58152174 203.727273,0.97826087 197.181818,0.97826087 C190.636364,0.97826087 177.545455,3.17934783 168.818182,0.97826087 C160.090909,-1.22282609 147,0.97826087 147,0.97826087" id="Fill-5" fill="#835EB3"></path>
                        <polygon id="Fill-6" fill="#6756BE" points="34.8 163 15 171.8 15 185 279 185 279 169.6 259.2 163"></polygon>
                        <path d="M31.4954955,295.901961 L51.2792793,295.901961 L51.2792793,190.490196 L31.4954955,190.490196 L31.4954955,295.901961 Z M26,185 L26,297 L61.8086486,297 L61.8086486,191.588235 L81.5924324,191.588235 L81.5924324,297 L92.0998198,297 L92.0998198,191.588235 L111.883604,191.588235 L111.883604,297 L122.412973,297 L122.412973,191.588235 L142.196757,191.588235 L142.196757,297 L152.704144,297 L152.704144,191.588235 L172.487928,191.588235 L172.487928,297 L183.017297,297 L183.017297,191.588235 L202.801081,191.588235 L202.801081,297 L213.308468,297 L213.308468,191.588235 L233.092252,191.588235 L233.092252,297 L243.621622,297 L243.621622,191.588235 L263.405405,191.588235 L263.405405,297 L270,297 L270,185 L26,185 Z" id="Fill-7" fill="#6756BE"></path>
                        <polygon id="Fill-8" fill="#6756BE" points="20 330 275 330 275 297 20 297"></polygon>
                        <polygon id="Fill-9" fill="#4D33B7" points="0 346.854012 128.85027 358.25 290 373 290 329 0 329"></polygon>
                        <polygon id="Fill-10" fill="#342871" points="270 185 270 248 263.405405 246.834148 263.405405 191.599162 243.621622 191.599162 243.621622 243.314595 233.092252 241.444832 233.092252 191.599162 213.308468 191.599162 213.308468 237.903282 202.801081 236.03352 202.801081 191.599162 183.017297 191.599162 183.017297 232.513966 172.487928 230.644204 172.487928 191.599162 152.704144 191.599162 152.704144 227.124651 142.196757 225.254888 142.196757 191.599162 122.412973 191.599162 122.412973 221.735335 111.883604 219.843575 111.883604 191.599162 92.0998198 191.599162 92.0998198 216.324022 81.5924324 214.45426 81.5924324 191.599162 61.8086486 191.599162 61.8086486 210.934707 51.2792793 209.064944 51.2792793 190.499302 31.4954955 190.499302 31.4954955 205.523394 26 204.555517 26 185"></polygon>
                        <polygon id="Fill-11" fill="#342871" points="15 172.142857 15 185 279 185 279 170"></polygon>
                        <path d="M259,163 L136,163 C214.945874,145.422182 213.098017,79 213.098017,79 C239.378885,98.1598221 257.000536,128.481559 259,163" id="Fill-12" fill="#342871"></path>
                    </g>
                    <g id="Group-12" transform="translate(426.000000, 170.000000)">
                        <polygon id="Path" fill="#4D33B7" points="4.30638298 11 9 15.822337 0 22"></polygon>
                        <polygon id="Path" fill="#BDAFFF" points="32 0 17.0172414 10.1563795 17.012931 10.1607554 11.9396552 19 8.75431034 15.7662368 4 10.9396591"></polygon>
                        <polygon id="Path" fill="#D4D0E7" points="32 0 25.0566743 20 18.8340046 12.3017074 17 10.0324184"></polygon>
                        <polygon id="Path" fill="#54429F" points="19 13.0781791 13 19 17.4054897 11.0039584 17.4092327 11"></polygon>
                    </g>
                    <path d="M88,477.213658 L59.659362,495.561222 C59.659362,495.561222 54.020527,497.69085 38.4022191,492.566638 C30.0404993,489.827609 27.89681,481.938156 26.2457698,474.415655 C25.6813395,471.408498 24.9275985,468.438769 23.9889043,465.523639 C22.9836338,462.745293 21.592233,460.497717 19.3287101,459.272361 C18.3159638,458.709996 17.1611077,458.444011 16,458.505695 L47.9556172,455 C50.5586685,456.710255 54.0271845,464.396574 57.0629681,470.647851 C60.0987517,476.899128 88,477.213658 88,477.213658 Z" id="Path" fill="#835EB3"></path>
                    <path d="M320.5,147 L375,147 L375,147 L375,156 C375,160.418278 371.418278,164 367,164 L320.5,164 C315.80558,164 312,160.19442 312,155.5 C312,150.80558 315.80558,147 320.5,147 Z" id="Rectangle" fill="#8473D9" transform="translate(343.500000, 155.500000) scale(-1, 1) translate(-343.500000, -155.500000) "></path>
                    <path d="M370.5,119 L411,119 L411,119 L411,128 C411,132.418278 407.418278,136 403,136 L370.5,136 C365.80558,136 362,132.19442 362,127.5 C362,122.80558 365.80558,119 370.5,119 Z" id="Rectangle-Copy" fill="#6756BE"></path>
                    <path d="M370.5,175 L411,175 L411,175 L411,184 C411,188.418278 407.418278,192 403,192 L370.5,192 C365.80558,192 362,188.19442 362,183.5 C362,178.80558 365.80558,175 370.5,175 Z" id="Rectangle-Copy-3" fill="#6756BE"></path>
                    <circle id="Oval" fill="#4A4CB4" cx="296" cy="155" r="8"></circle>
                </g>
                <path d="M23,465.292226 L15.6706148,468.682908 L0,476 C0,476 6.71319797,459.480596 14.4836435,458.083635 L14.5485054,458.083635 L15.1971235,458.00904 C16.3283658,457.945203 17.4535173,458.220471 18.4402143,458.80246 C20.6649746,460.057012 22.0205866,462.38302 23,465.292226 Z" id="Path" fill="#412AB6"></path>
                <circle id="Oval-Copy-3" fill="#4A4CB4" cx="296.5" cy="155.5" r="9.5"></circle>
                <path d="M304.735409,150.760976 C305.539796,152.155817 306,153.774165 306,155.5 C306,160.746705 301.746705,165 296.5,165 C292.508338,165 289.09167,162.538161 287.685496,159.049984 L287.764653,158.713132 C289.144368,160.85832 292.056151,161.170941 296.5,159.650993 C300.820409,158.173267 303.536306,155.325876 304.647691,151.108822 Z" id="Combined-Shape" fill="#3B3C9D"></path>
            </g>
        </g>
    </g>
</svg>