<?xml version="1.0" encoding="UTF-8"?>
<svg width="371px" height="326px" viewBox="0 0 371 326" version="1.1" xmlns="http://www.w3.org/2000/svg" xmlns:xlink="http://www.w3.org/1999/xlink">
    <title>home/govtech_thumb</title>
    <defs>
        <rect id="path-1" x="0" y="0" width="371" height="325" rx="8"></rect>
        <rect id="path-3" x="0" y="0" width="371" height="324" rx="8"></rect>
        <linearGradient x1="49.9996071%" y1="0.210517477%" x2="49.9996071%" y2="42.6269419%" id="linearGradient-5">
            <stop stop-color="#233BB0" offset="0%"></stop>
            <stop stop-color="#241A5A" offset="100%"></stop>
        </linearGradient>
    </defs>
    <g id="Screens" stroke="none" stroke-width="1" fill="none" fill-rule="evenodd">
        <g id="Home-page" transform="translate(-132.000000, -2372.000000)">
            <g id="home/govtech_thumb" transform="translate(132.000000, 2372.000000)">
                <g id="Group-Copy">
                    <mask id="mask-2" fill="white">
                        <use xlink:href="#path-1"></use>
                    </mask>
                    <use id="Mask" fill="#1E1746" xlink:href="#path-1"></use>
                </g>
                <g id="Group-13" transform="translate(0.000000, 2.000000)">
                    <mask id="mask-4" fill="white">
                        <use xlink:href="#path-3"></use>
                    </mask>
                    <g id="Mask"></g>
                    <g id="Group-21" mask="url(#mask-4)">
                        <g transform="translate(140.000000, 16.000000)">
                            <g id="Group-16" stroke-width="1" fill="none" transform="translate(0.500000, 0.000000)">
                                <g id="Layer_2" fill="url(#linearGradient-5)">
                                    <path d="M244.263038,12.4486266 L253.594017,314.86014 C253.41004,318.018287 251.937209,320.960605 249.522659,322.993609 C247.10811,325.026614 243.965444,325.970456 240.835368,325.602679 L10.6360244,304.20327 C5.14590125,303.559472 0.898188131,299.069594 0.540819711,293.53253 L29.2199253,40.774091 C28.8275075,34.6856984 33.2432815,29.3508184 39.2776646,28.6229185 L231.470329,0.3658344 C234.836903,-0.0388249672 238.209021,1.07503245 240.67842,3.40739471 C243.147819,5.73975697 244.46055,9.05076916 244.263038,12.4486266 Z" id="Path"></path>
                                </g>
                                <path d="M240.940619,163 C233.4045,162.99585 226.60839,167.549115 223.722849,174.535583 C220.837308,181.522051 222.430937,189.565025 227.760267,194.912253 C233.089597,200.25948 241.104474,201.85728 248.065753,198.960238 C255.027032,196.063196 259.562979,189.242179 259.557465,181.679366 C259.555577,171.362485 251.221085,163 240.940619,163 L240.940619,163 Z M242.506234,191.024182 C241.989161,191.113794 241.465346,191.158458 240.940619,191.15769 C235.724368,191.15769 231.495761,186.914094 231.495761,181.679366 C231.495761,176.444638 235.724368,172.201053 240.940619,172.201053 C246.15687,172.201053 250.385489,176.444638 250.385489,181.679366 C250.386398,182.242031 250.335011,182.803556 250.231985,183.356641 C249.529953,187.294012 246.437257,190.363406 242.506234,191.024182 L242.506234,191.024182 Z" id="Shape" fill="#6756BE" fill-rule="nonzero"></path>
                                <ellipse id="Oval" fill="#DE962B" cx="81.4069682" cy="92.2626855" rx="11.5562219" ry="11.5971565"></ellipse>
                                <path d="M43.2545819,207.677295 C43.2545819,207.677295 44.7860883,187.680073 55.7829181,190.990123 C65.411966,193.889412 64.6990822,196.788702 70.8694498,196.788702 C77.8959602,196.788702 76.3269336,189.703072 79.8572434,189.703072 C83.3875532,189.703072 85.9730361,197.110464 89.4862913,194.211175 C92.9995465,191.311886 96.3729537,206.130095 96.3729537,206.130095 L43.2545819,207.677295 Z" id="Path" fill="#8E66DA"></path>
                                <path d="M43.2409382,208.008053 C43.2409382,208.008053 45.4614519,200.987461 51.6113539,202.531238 C58.0307192,204.140052 58.3513464,199.631949 61.4552903,199.638795 C64.7707117,199.638795 66.2646979,204.485776 70.5488226,204.465238 C76.6066296,204.434431 76.2416604,197.557605 81.0442461,197.756139 C87.5591174,198.023134 95.7112338,203.684792 96.3934192,206.351317 C88.2037826,206.840807 43.2409382,208.008053 43.2409382,208.008053 Z" id="Path" fill="#342871"></path>
                                <g id="Group-15" transform="translate(69.850746, 116.825939)">
                                    <path d="M143.58209,90.6791809 L19.9573561,90.6791809 C21.8380741,58.0896118 48.793414,32.2662116 81.7697228,32.2662116 C95.3924837,32.2662116 107.994145,36.671523 118.217286,44.1556847 C132.739732,54.7673741 142.477213,71.5611028 143.58209,90.6791809" id="Fill-1" fill="#6756BE"></path>
                                    <polygon id="Fill-3" fill="#5233D3" points="79.2750533 32.2662116 81.4925373 32.2662116 81.4925373 0.556313993 79.2750533 0.556313993"></polygon>
                                    <path d="M81.4925373,0.544220211 L81.4925373,21.3606433 C81.4925373,21.3606433 92.3783679,18.9116523 99.6355883,21.3606433 C106.892809,23.8096342 110.521419,14.0136704 121.407249,25.0341297 L121.407249,4.21770663 C121.407249,4.21770663 112.940492,0.544220211 109.311882,0.544220211 C105.683272,0.544220211 98.4260516,1.76871568 93.5879046,0.544220211 C88.7497577,-0.680275263 81.4925373,0.544220211 81.4925373,0.544220211" id="Fill-5" fill="#835EB3"></path>
                                    <polygon id="Fill-6" fill="#6756BE" points="19.2921109 90.6791809 8.31556503 95.574744 8.31556503 102.918089 154.66951 102.918089 154.66951 94.3508532 143.692964 90.6791809"></polygon>
                                    <path d="M17.4601894,164.614401 L28.4277454,164.614401 L28.4277454,105.972362 L17.4601894,105.972362 L17.4601894,164.614401 Z M14.4136461,102.918089 L14.4136461,165.225256 L34.2649225,165.225256 L34.2649225,106.583216 L45.2324785,106.583216 L45.2324785,165.225256 L51.0574694,165.225256 L51.0574694,106.583216 L62.0250255,106.583216 L62.0250255,165.225256 L67.8622025,165.225256 L67.8622025,106.583216 L78.8297585,106.583216 L78.8297585,165.225256 L84.6547494,165.225256 L84.6547494,106.583216 L95.6223055,106.583216 L95.6223055,165.225256 L101.459483,165.225256 L101.459483,106.583216 L112.427039,106.583216 L112.427039,165.225256 L118.252029,165.225256 L118.252029,106.583216 L129.219585,106.583216 L129.219585,165.225256 L135.056763,165.225256 L135.056763,106.583216 L146.024319,106.583216 L146.024319,165.225256 L149.680171,165.225256 L149.680171,102.918089 L14.4136461,102.918089 Z" id="Fill-7" fill="#6756BE"></path>
                                    <polygon id="Fill-8" fill="#6756BE" points="11.08742 183.583618 152.452026 183.583618 152.452026 165.225256 11.08742 165.225256"></polygon>
                                    <polygon id="Fill-9" fill="#4D33B7" points="0 192.95974 71.4308532 199.299488 160.767591 207.505119 160.767591 183.027304 0 183.027304"></polygon>
                                    <polygon id="Fill-10" fill="#342871" points="149.680171 102.918089 149.680171 137.96587 146.024319 137.317291 146.024319 106.589295 135.056763 106.589295 135.056763 135.359314 129.219585 134.319139 129.219585 106.589295 118.252029 106.589295 118.252029 132.348925 112.427039 131.30875 112.427039 106.589295 101.459483 106.589295 101.459483 129.350773 95.6223055 128.310598 95.6223055 106.589295 84.6547494 106.589295 84.6547494 126.352621 78.8297585 125.312446 78.8297585 106.589295 67.8622025 106.589295 67.8622025 123.35447 62.0250255 122.302057 62.0250255 106.589295 51.0574694 106.589295 51.0574694 120.344081 45.2324785 119.303906 45.2324785 106.589295 34.2649225 106.589295 34.2649225 117.345929 28.4277454 116.305754 28.4277454 105.977427 17.4601894 105.977427 17.4601894 114.33554 14.4136461 113.797096 14.4136461 102.918089"></polygon>
                                    <polygon id="Fill-11" fill="#342871" points="8.31556503 95.7654803 8.31556503 102.918089 154.66951 102.918089 154.66951 94.5733788"></polygon>
                                    <path d="M143.58209,90.6791809 L75.3944563,90.6791809 C119.159759,80.9003945 118.135361,43.9488055 118.135361,43.9488055 C132.704713,54.6076826 142.473645,71.4760891 143.58209,90.6791809" id="Fill-12" fill="#342871"></path>
                                </g>
                                <path d="M48.7846482,265.480636 L33.0734203,275.687643 C33.0734203,275.687643 29.9474137,276.872384 21.2890767,274.021713 C16.6535817,272.497953 15.4651825,268.10894 14.5498937,263.924067 C14.2369899,262.251144 13.8191377,260.599042 13.2987529,258.977314 C12.7414601,257.431682 11.9701079,256.181324 10.7152764,255.499641 C10.1538392,255.18679 9.51362045,255.038818 8.86993603,255.073134 L26.5852036,253.122867 C28.0282597,254.074306 29.9511044,258.350312 31.6340548,261.827985 C33.3170052,265.305659 48.7846482,265.480636 48.7846482,265.480636 Z" id="Path" fill="#835EB3"></path>
                                <path d="M177.692422,81.778157 L207.889126,81.778157 L207.889126,81.778157 L207.889126,83.2354949 C207.889126,87.6537729 204.307404,91.2354949 199.889126,91.2354949 L177.692422,91.2354949 C175.08085,91.2354949 172.963753,89.1183977 172.963753,86.5068259 C172.963753,83.8952542 175.08085,81.778157 177.692422,81.778157 Z" id="Rectangle" fill="#8473D9" transform="translate(190.426439, 86.506826) scale(-1, 1) translate(-190.426439, -86.506826) "></path>
                                <path d="M205.410972,66.2013652 L227.846482,66.2013652 L227.846482,66.2013652 L227.846482,67.6587031 C227.846482,72.0769811 224.26476,75.6587031 219.846482,75.6587031 L205.410972,75.6587031 C202.7994,75.6587031 200.682303,73.5416059 200.682303,70.9300341 C200.682303,68.3184624 202.7994,66.2013652 205.410972,66.2013652 Z" id="Rectangle-Copy" fill="#6756BE"></path>
                                <path d="M205.410972,97.3549488 L227.846482,97.3549488 L227.846482,97.3549488 L227.846482,98.8122867 C227.846482,103.230565 224.26476,106.812287 219.846482,106.812287 L205.410972,106.812287 C202.7994,106.812287 200.682303,104.695189 200.682303,102.083618 C200.682303,99.472046 202.7994,97.3549488 205.410972,97.3549488 Z" id="Rectangle-Copy-3" fill="#6756BE"></path>
                                <ellipse id="Oval" fill="#4A4CB4" cx="164.093817" cy="86.2286689" rx="4.43496802" ry="4.45051195"></ellipse>
                            </g>
                            <path d="M13.5,243.051236 L9.357304,244.934949 L0.5,249 C0.5,249 4.29441624,239.822554 8.68640722,239.046464 L8.72306825,239.046464 L9.08967851,239.005022 C9.72907631,238.969557 10.3650315,239.122484 10.9227298,239.445811 C12.180203,240.142785 12.9464185,241.435011 13.5,243.051236 Z" id="Path" fill="#412AB6"></path>
                            <circle id="Oval-Copy-3" fill="#4A4CB4" cx="165" cy="70.5" r="5.5"></circle>
                            <path d="M169.809352,67.9997115 C170.24866,68.7834486 170.5,69.6927997 170.5,70.6625554 C170.5,73.6103446 168.177636,76 165.312854,76 C163.132889,76 161.26701,74.6162691 160.499517,72.6558316 L160.543221,72.4678094 C161.296567,73.673054 162.886445,73.8486956 165.312854,72.9947341 C167.645941,72.1736173 169.122088,70.5997932 169.741296,68.2732618 Z" id="Combined-Shape" fill="#3B3C9D"></path>
                        </g>
                    </g>
                </g>
            </g>
        </g>
    </g>
</svg>