<?xml version="1.0" encoding="UTF-8"?>
<svg width="48px" height="72px" viewBox="0 0 48 72" version="1.1" xmlns="http://www.w3.org/2000/svg" xmlns:xlink="http://www.w3.org/1999/xlink">
    <title>govTech</title>
    <g id="Page-1" stroke="none" stroke-width="1" fill="none" fill-rule="evenodd">
        <g id="Home-page" transform="translate(-989.000000, -2345.000000)" fill="#FFFFFF" fill-rule="nonzero">
            <g id="Group-12-Copy" transform="translate(943.000000, 2311.000000)">
                <path d="M80.6666667,34 C82.5076158,34 84,35.5153439 84,37.3846154 L84,37.3846154 L84,41.6153846 C84,43.4846561 82.5076158,45 80.6666667,45 L80.6666667,45 L71,45 L71.000997,48.0290489 C78.8657327,48.4866478 85.3688093,54.3013093 86.7360012,61.9739798 L86.7928723,62.3130255 L86.80875,62.42 L86.986,75 L94,75 L94,83 L90,83 L90,99 L94,99 L94,106 L46,106 L46,99 L50,99 L50,83 L46,83 L46,75 L53.014,75 L53.1904,62.42 L53.2071277,62.3130255 C54.4406609,54.4726507 61.01968,48.4925914 69.0005503,48.028959 L69,34 Z M92.2857143,100.75 L47.7142857,100.75 L47.7142857,104.25 L92.2857143,104.25 L92.2857143,100.75 Z M66,83 L57,83 L57,99 L66,99 L66,83 Z M83,83 L73,83 L73,99 L83,99 L83,83 Z M55.25,83.7142857 L51.75,83.7142857 L51.75,98.7142857 L55.25,98.7142857 L55.25,83.7142857 Z M71.25,83.7142857 L67.75,83.7142857 L67.75,98.7142857 L71.25,98.7142857 L71.25,83.7142857 Z M88.25,83.7142857 L84.75,83.7142857 L84.75,98.7142857 L88.25,98.7142857 L88.25,83.7142857 Z M92.2857143,76.6927007 L47.7142857,76.6927007 L47.7142857,81.3064526 L92.2857143,81.3064526 L92.2857143,76.6927007 Z M70,49.6969697 C62.1495663,49.6969697 55.5939952,55.6277493 54.7837455,63.3614639 L54.7837455,63.3614639 L54.7,64.1254545 L54.7,74.3030303 L85.3,74.3030303 L85.2963413,64.1258807 L85.2162545,63.3614639 C84.4060048,55.6277493 77.8504337,49.6969697 70,49.6969697 Z M80.6666667,35.6923077 L71,35.692 L71,43.307 L80.6666667,43.3076923 C81.5386952,43.3076923 82.254304,42.6276765 82.3272157,41.7614034 L82.3333333,41.6153846 L82.3333333,37.3846154 C82.3333333,36.4499797 81.5871412,35.6923077 80.6666667,35.6923077 L80.6666667,35.6923077 Z" id="govTech"></path>
            </g>
        </g>
    </g>
</svg>