<?xml version="1.0" encoding="UTF-8"?>
<svg width="65px" height="65px" viewBox="0 0 65 65" version="1.1" xmlns="http://www.w3.org/2000/svg" xmlns:xlink="http://www.w3.org/1999/xlink">
    <!-- Generator: Sketch 52.6 (67491) - http://www.bohemiancoding.com/sketch -->
    <title>Group 4</title>
    <desc>Created with Sketch.</desc>
    <g id="Page-1" stroke="none" stroke-width="1" fill="none" fill-rule="evenodd">
        <g id="Design-process" transform="translate(-538.000000, -1167.000000)" stroke="#FFFFFF" stroke-width="2">
            <g id="Group-4" transform="translate(570.000000, 1200.000000) rotate(-360.000000) translate(-570.000000, -1200.000000) translate(538.000000, 1168.000000)">
                <path d="M20.146263,54.2716935 L29.4124149,45.0055416 C29.4124149,45.0055416 46.68187,46.2683902 56.7914243,36.1599634 C66.9009787,26.0504091 64.9728794,12.3293332 58.3812605,5.73771431 C51.0725241,-1.57102217 38.0685658,-2.78200381 27.9590114,7.32755053 C17.8494571,17.4359773 19.1134333,34.7054324 19.1134333,34.7054324 L9.84615385,43.9727118 L20.146263,54.2716935 Z" id="Stroke-5"></path>
                <path d="M15.7538462,47.7508605 L26.6526809,36.8520258 C26.6526809,36.8520258 31.5744079,37.1136159 29.2325002,34.2722065 C26.7688179,31.2808337 29.7703385,28.2793132 32.3388824,31.1658243 C36.4555434,34.651061 39.3522025,30.912127 36.9189638,26.5846154" id="Stroke-7"></path>
                <path d="M8.67039777,61.7193467 L2.12132034,55.1702692 C0.949747468,53.9986964 0.949747468,52.0992014 2.12132034,50.9276285 L4.65070546,48.3982434 C5.82227834,47.2266705 7.72177327,47.2266705 8.89334615,48.3982434 L15.4424236,54.9473208 C16.6139965,56.1188937 16.6139965,58.0183887 15.4424236,59.1899615 L12.9130385,61.7193467 C11.7414656,62.8909195 9.84197065,62.8909195 8.67039777,61.7193467 Z" id="Stroke-19"></path>
            </g>
        </g>
    </g>
</svg>