<?xml version="1.0" encoding="UTF-8"?>
<svg width="371px" height="326px" viewBox="0 0 371 326" version="1.1" xmlns="http://www.w3.org/2000/svg" xmlns:xlink="http://www.w3.org/1999/xlink">
    <title>platforms/integration_platform</title>
    <defs>
        <rect id="path-1" x="0" y="0" width="247" height="220"></rect>
    </defs>
    <g id="Page-1" stroke="none" stroke-width="1" fill="none" fill-rule="evenodd">
        <g id="Gov-tech" transform="translate(-534.000000, -1321.000000)">
            <g id="platforms/integration_platform" transform="translate(534.000000, 1321.000000)">
                <rect id="Rectangle-Copy-13" stroke-opacity="0.08" stroke="#000000" fill="#1C0D6C" x="0.5" y="0.5" width="370" height="324"></rect>
                <g id="Group-29" transform="translate(124.000000, 106.000000)">
                    <mask id="mask-2" fill="white">
                        <use xlink:href="#path-1"></use>
                    </mask>
                    <g id="Mask"></g>
                    <g mask="url(#mask-2)">
                        <g transform="translate(45.000000, 16.000000)">
                            <g id="Group-28" stroke-width="1" fill="none">
                                <g id="Group-26">
                                    <path d="M4.61935602e-12,3.71846105 L89.8026717,43.2115794 L89.802,91.817461 L83.430524,87.6634061 C82.5621287,78.3421747 78.9860865,71.317123 74.6780427,71.1125196 L74.4846626,71.1079314 C69.4327818,71.1079314 65.3374233,80.4863877 65.3374233,92.0552999 C65.3374233,103.624212 69.4327818,113.002668 74.4846626,113.002668 C76.9882318,113.002668 79.2568874,110.699401 80.9086076,106.967704 L80.9086076,106.967704 L89.802,112.765461 L89.8026717,149.845566 L4.61935602e-12,109.764514 L4.61935602e-12,3.71846105 Z" id="Combined-Shape" fill="#755CDC"></path>
                                    <path d="M95.0292699,111.751881 L95.0296656,145.917934 L89.8026717,149.845566 L89.7012699,112.559881 L89.8026717,113.002668 L95.0292699,111.751881 Z M95.0296656,39.8718814 L95.0296656,90.007088 L89.8026717,92.0552999 L89.6462699,92.5088814 L89.5122699,43.2115794 L95.0296656,39.8718814 Z" id="Combined-Shape" fill="#291386"></path>
                                    <polygon id="Path-53" fill="#927DEA" points="0 3.71846105 5.54580006 5.83085026e-13 95.0296656 39.8718814 89.5122699 43.2115794"></polygon>
                                    <g id="Group-27" transform="translate(95.392638, 87.507935)">
                                        <path d="M9.14723926,42.5144704 L14.3742331,42.5144704 C15.6577087,41.9448842 16.9644572,40.3422012 18.2944785,37.7064214 C20.2895105,33.7527517 23.6750976,7.54494882 16.4111684,2.15629583 C11.568549,-1.43613949 7.54477969,-0.539768814 4.33986053,4.84540787 L9.14723926,42.5144704 Z" id="Path-54" fill="#291386"></path>
                                        <path d="M6.88402552,25.348467 L14.3742331,22.8266441 C16.5288744,31.4201992 18.2712057,34.3990868 19.601227,31.763307 C21.596259,27.8096373 23.6750976,7.54494882 16.4111684,2.15629583 C11.568549,-1.43613949 7.54477969,-0.539768814 4.33986053,4.84540787 L6.88402552,25.348467 Z" id="Path-54" fill="#927DEA"></path>
                                        <path d="M9.14723926,0.619733558 C13.5413125,0.619733558 17.2117443,7.71485391 18.0931007,17.1752082 L24.8282209,21.567102 L24.8282209,42.5144704 L15.5711843,36.4795059 C13.9194641,40.2112029 11.6508085,42.5144704 9.14723926,42.5144704 C4.09535852,42.5144704 0,33.1360141 0,21.567102 C0,9.99818985 4.09535852,0.619733558 9.14723926,0.619733558 Z" id="Combined-Shape" fill="#755CDC"></path>
                                    </g>
                                </g>
                                <g id="Group-26-Copy" transform="translate(117.607362, 49.231619)">
                                    <polygon id="Rectangle-Copy-10" fill="#755CDC" points="0 2.71846105 89.8026717 42.2115794 89.8026717 148.845566 0 108.764514"></polygon>
                                    <polygon id="Path-53" fill="#927DEA" points="0 2.71846105 5.95102139 0.146483576 95.0296656 38.8718814 89.5122699 42.2115794"></polygon>
                                </g>
                            </g>
                            <path d="M74.1369663,71 C75.5176009,71 76.8267144,71.7037988 78.0000939,72.9638125 C77.8181591,72.9410952 77.6182021,72.9047462 77.4001686,72.8556864 C72.2142598,71.688803 68.0370458,80.3218361 68.0370458,93.0658863 C68.0370458,105.809937 73.1251778,109.432006 74.1369663,110.237646 C74.738032,110.716246 76.0033487,111.00568 77.9329165,111.105947 C76.7773038,112.322501 75.4915593,113 74.1369663,113 C69.0907592,113 65,103.59798 65,92 C65,80.4020203 69.0907592,71 74.1369663,71 Z" id="Combined-Shape" fill="#251076"></path>
                        </g>
                    </g>
                </g>
            </g>
        </g>
    </g>
</svg>