<?xml version="1.0" encoding="UTF-8"?>
<svg width="579px" height="591px" viewBox="0 0 579 591" version="1.1" xmlns="http://www.w3.org/2000/svg" xmlns:xlink="http://www.w3.org/1999/xlink">
    <!-- Generator: Sketch 52.6 (67491) - http://www.bohemiancoding.com/sketch -->
    <title>Design_illu-05</title>
    <desc>Created with Sketch.</desc>
    <defs>
        <linearGradient x1="50%" y1="-12.026975%" x2="50%" y2="86.5809973%" id="linearGradient-1">
            <stop stop-color="#5233D3" offset="12%"></stop>
            <stop stop-color="#290175" offset="92%"></stop>
        </linearGradient>
        <linearGradient x1="49.9739448%" y1="-12.0171674%" x2="49.9739448%" y2="86.5879828%" id="linearGradient-2">
            <stop stop-color="#5233D3" offset="12%"></stop>
            <stop stop-color="#290175" offset="92%"></stop>
        </linearGradient>
        <linearGradient x1="0%" y1="50.0927644%" x2="100%" y2="50.0927644%" id="linearGradient-3">
            <stop stop-color="#FCEE21" offset="12%"></stop>
            <stop stop-color="#FFCC00" offset="100%"></stop>
        </linearGradient>
        <linearGradient x1="0.229357798%" y1="50.1061571%" x2="99.7706422%" y2="50.1061571%" id="linearGradient-4">
            <stop stop-color="#FCEE21" offset="12%"></stop>
            <stop stop-color="#FFCC00" offset="100%"></stop>
        </linearGradient>
        <linearGradient x1="0%" y1="50%" x2="100%" y2="50%" id="linearGradient-5">
            <stop stop-color="#FCEE21" offset="12%"></stop>
            <stop stop-color="#FFCC00" offset="100%"></stop>
        </linearGradient>
        <linearGradient x1="-0.180831826%" y1="50.0805153%" x2="100%" y2="50.0805153%" id="linearGradient-6">
            <stop stop-color="#FCEE21" offset="12%"></stop>
            <stop stop-color="#FFCC00" offset="100%"></stop>
        </linearGradient>
        <linearGradient x1="0%" y1="50.0740741%" x2="100%" y2="50.0740741%" id="linearGradient-7">
            <stop stop-color="#FCEE21" offset="12%"></stop>
            <stop stop-color="#FFCC00" offset="100%"></stop>
        </linearGradient>
        <linearGradient x1="-0.0487804878%" y1="49.8511018%" x2="100.04878%" y2="49.8511018%" id="linearGradient-8">
            <stop stop-color="#FCEE21" offset="12%"></stop>
            <stop stop-color="#FFCC00" offset="100%"></stop>
        </linearGradient>
        <radialGradient cx="48.5930889%" cy="51.0457468%" fx="48.5930889%" fy="51.0457468%" r="49.7007228%" gradientTransform="translate(0.485931,0.510457),scale(1.000000,0.767677),translate(-0.485931,-0.510457)" id="radialGradient-9">
            <stop stop-color="#FDE116" offset="0%"></stop>
            <stop stop-color="#CCAD2C" offset="13%"></stop>
            <stop stop-color="#9B7942" offset="28%"></stop>
            <stop stop-color="#724E54" offset="42%"></stop>
            <stop stop-color="#522C63" offset="56%"></stop>
            <stop stop-color="#3B146D" offset="70%"></stop>
            <stop stop-color="#2E0673" offset="82%"></stop>
            <stop stop-color="#290175" offset="92%"></stop>
        </radialGradient>
        <linearGradient x1="8.44313685e-13%" y1="49.9105088%" x2="100%" y2="49.9105088%" id="linearGradient-10">
            <stop stop-color="#FCEE21" offset="12%"></stop>
            <stop stop-color="#FFCC00" offset="100%"></stop>
        </linearGradient>
        <linearGradient x1="39.6693923%" y1="-10.02999%" x2="65.2437302%" y2="62.7615595%" id="linearGradient-11">
            <stop stop-color="#FCEE21" offset="12%"></stop>
            <stop stop-color="#FFCC00" offset="100%"></stop>
        </linearGradient>
    </defs>
    <g id="Page-1" stroke="none" stroke-width="1" fill="none" fill-rule="evenodd">
        <g id="Design-process" transform="translate(-731.000000, -120.000000)">
            <g id="Design_illu-05" transform="translate(731.000000, 120.000000)">
                <path d="M541,526.409626 C541,541.095084 529.080559,553 514.377183,553 L57.6228173,553 C42.9194413,553 31,541.095084 31,526.409626 L65.2302874,28.1725008 C65.2302874,13.487043 77.1497287,1.58212723 91.8531047,1.58212723 L514.377183,0 C529.080559,0 541,11.9049158 541,26.5903736 L541,526.409626 Z" id="Path" fill="url(#linearGradient-1)"></path>
                <g id="Group" opacity="0.31" transform="translate(90.000000, 20.000000)" fill="#7D66DE">
                    <ellipse id="Oval" cx="330.998896" cy="137.646667" rx="2.18966555" ry="2.19333333"></ellipse>
                    <ellipse id="Oval" cx="376.715652" cy="118.826667" rx="2.18966555" ry="2.19333333"></ellipse>
                    <ellipse id="Oval" cx="381.727258" cy="30.3666667" rx="2.18966555" ry="2.19333333"></ellipse>
                    <ellipse id="Oval" cx="326.61291" cy="113.18" rx="2.18966555" ry="2.19333333"></ellipse>
                    <ellipse id="Oval" cx="2.19632107" cy="27.86" rx="2.18966555" ry="2.19333333"></ellipse>
                    <ellipse id="Oval" cx="158.141773" cy="111.293333" rx="2.18966555" ry="2.19333333"></ellipse>
                    <ellipse id="Oval" cx="130.581271" cy="69.8933333" rx="2.18966555" ry="2.19333333"></ellipse>
                    <ellipse id="Oval" cx="51.6734448" cy="25.3466667" rx="2.18966555" ry="2.19333333"></ellipse>
                    <ellipse id="Oval" cx="84.2388963" cy="7.15333333" rx="2.18966555" ry="2.19333333"></ellipse>
                    <ellipse id="Oval" cx="233.921505" cy="2.76666667" rx="2.18966555" ry="2.19333333"></ellipse>
                    <ellipse id="Oval" cx="75.4735786" cy="54.2066667" rx="2.18966555" ry="2.19333333"></ellipse>
                    <ellipse id="Oval" cx="171.918696" cy="46.68" rx="2.18966555" ry="2.19333333"></ellipse>
                    <ellipse id="Oval" cx="258.972876" cy="113.806667" rx="2.18966555" ry="2.19333333"></ellipse>
                    <ellipse id="Oval" cx="188.204749" cy="82.44" rx="2.18966555" ry="2.19333333"></ellipse>
                    <ellipse id="Oval" cx="395.504181" cy="65.5" rx="2.18966555" ry="2.19333333"></ellipse>
                </g>
                <g id="Group" opacity="0.31" transform="translate(95.000000, 228.000000)" fill="#7D66DE">
                    <ellipse id="Oval" cx="371.175046" cy="137.406667" rx="2.19" ry="2.19333333"></ellipse>
                    <ellipse id="Oval" cx="416.905441" cy="118.586667" rx="2.19" ry="2.19333333"></ellipse>
                    <ellipse id="Oval" cx="421.911155" cy="30.1333333" rx="2.19" ry="2.19333333"></ellipse>
                    <ellipse id="Oval" cx="366.788389" cy="112.94" rx="2.19" ry="2.19333333"></ellipse>
                    <ellipse id="Oval" cx="42.3222492" cy="27.62" rx="2.19" ry="2.19333333"></ellipse>
                    <ellipse id="Oval" cx="198.29152" cy="111.06" rx="2.19" ry="2.19333333"></ellipse>
                    <ellipse id="Oval" cx="170.733465" cy="69.6533333" rx="2.19" ry="2.19333333"></ellipse>
                    <ellipse id="Oval" cx="91.8069301" cy="25.1133333" rx="2.19" ry="2.19333333"></ellipse>
                    <ellipse id="Oval" cx="124.377356" cy="6.92" rx="2.19" ry="2.19333333"></ellipse>
                    <ellipse id="Oval" cx="274.082827" cy="2.52666667" rx="2.19" ry="2.19333333"></ellipse>
                    <ellipse id="Oval" cx="115.610699" cy="53.9666667" rx="2.19" ry="2.19333333"></ellipse>
                    <ellipse id="Oval" cx="2.22993921" cy="32.64" rx="2.19" ry="2.19333333"></ellipse>
                    <ellipse id="Oval" cx="212.070547" cy="46.44" rx="2.19" ry="2.19333333"></ellipse>
                    <ellipse id="Oval" cx="299.144681" cy="113.566667" rx="2.19" ry="2.19333333"></ellipse>
                    <ellipse id="Oval" cx="228.359088" cy="82.2" rx="2.19" ry="2.19333333"></ellipse>
                    <ellipse id="Oval" cx="435.696839" cy="65.26" rx="2.19" ry="2.19333333"></ellipse>
                </g>
                <g id="Group" opacity="0.31" transform="translate(100.000000, 82.000000)" fill="#7D66DE">
                    <ellipse id="Oval" cx="67.1157056" cy="137.446667" rx="2.1916692" ry="2.19333333"></ellipse>
                    <ellipse id="Oval" cx="21.3504552" cy="118.626667" rx="2.1916692" ry="2.19333333"></ellipse>
                    <ellipse id="Oval" cx="16.3409256" cy="30.1733333" rx="2.1916692" ry="2.19333333"></ellipse>
                    <ellipse id="Oval" cx="71.499044" cy="112.98" rx="2.1916692" ry="2.19333333"></ellipse>
                    <ellipse id="Oval" cx="396.21915" cy="27.6666667" rx="2.1916692" ry="2.19333333"></ellipse>
                    <ellipse id="Oval" cx="240.131002" cy="111.1" rx="2.1916692" ry="2.19333333"></ellipse>
                    <ellipse id="Oval" cx="267.710061" cy="69.6933333" rx="2.1916692" ry="2.19333333"></ellipse>
                    <ellipse id="Oval" cx="346.696753" cy="25.1533333" rx="2.1916692" ry="2.19333333"></ellipse>
                    <ellipse id="Oval" cx="314.101502" cy="6.96" rx="2.1916692" ry="2.19333333"></ellipse>
                    <ellipse id="Oval" cx="164.281927" cy="2.57333333" rx="2.1916692" ry="2.19333333"></ellipse>
                    <ellipse id="Oval" cx="322.874841" cy="54.0133333" rx="2.1916692" ry="2.19333333"></ellipse>
                    <ellipse id="Oval" cx="436.342018" cy="32.68" rx="2.1916692" ry="2.19333333"></ellipse>
                    <ellipse id="Oval" cx="226.341472" cy="46.4866667" rx="2.1916692" ry="2.19333333"></ellipse>
                    <ellipse id="Oval" cx="139.200971" cy="113.606667" rx="2.1916692" ry="2.19333333"></ellipse>
                    <ellipse id="Oval" cx="210.040516" cy="82.24" rx="2.1916692" ry="2.19333333"></ellipse>
                    <ellipse id="Oval" cx="2.54473445" cy="65.3066667" rx="2.1916692" ry="2.19333333"></ellipse>
                </g>
                <g id="Group-11" transform="translate(362.000000, 87.000000)">
                    <path d="M142.99043,40.1372767 C142.99043,42.7402387 141.249606,50.9796401 138.493838,55.1655739 C137.904299,56.2165129 137.003827,57.0451574 135.924357,57.5300967 C132.294966,58.7620329 123.443104,57.8215224 120,51.6883346 C122.974174,50.0523763 125.363791,48.7078437 126.186025,48.3170683 C126.586788,48.1260487 126.973269,47.9046652 127.342291,47.654737 C131.206716,44.8740533 133.691594,40.483623 134.138568,35.6466705 C134.832328,28.5928422 133.997247,29.3147833 133.303487,26.0031268 C132.609727,22.6914703 130.650498,11.4782014 130.894599,9.74951672 C131.08731,8.42485413 138.082721,2.63607857 141.352386,0 C145.585605,1.09946996 140.594389,6.04708476 138.281856,10.4515879 C135.969323,14.856091 143.028972,36.799127 142.99043,40.1372767 Z" id="Path" fill="#1F0E65"></path>
                    <path d="M154.038045,21.2040705 C153.800708,25.5611158 152.838176,49.6771627 152.11298,52.6304183 C151.387785,55.5836739 136.699277,70.5618446 131.154827,68.8667024 C127.034397,67.608589 126.856395,59.2388243 127.027805,55.034077 C127.093732,53.5839358 127.199215,52.6304183 127.199215,52.6304183 L124.56214,53.1932585 C122.524999,53.6236657 121.035052,53.9547481 120,54.1865058 C121.160313,53.8885316 122.768929,53.4515028 124.614881,52.9019059 C130.726302,51.0809523 139.277018,48.0151287 141.755868,44.6711958 C146.093857,38.870631 144.643465,18.5487892 147.030018,16.1252655 C149.416571,13.7017419 157.624467,10.8279461 161.237259,12.4966017 C161.355148,12.5514099 161.46963,12.6133249 161.580079,12.6820079 C164.124857,14.3639068 154.281974,16.9860799 154.038045,21.2040705 Z" id="Path" fill="#291A6A"></path>
                    <path d="M161,12.683949 C156.802443,13.7065853 149.564348,15.685453 148.649495,17.5580727 C147.304125,20.1545065 146.678527,34.8698447 146.456541,40.0560717 C146.234555,45.2422987 143.321827,56.3120049 138.095061,55.9932611 L125.690742,55.1565586 L123,54.9772652 C123,54.9772652 123.073995,54.3132157 123.195079,53.3105009 C123.195079,53.2175339 123.195079,53.1179265 123.228713,53.018319 C129.464507,51.1921828 138.189237,48.1176333 140.718534,44.7641831 C145.144804,38.9471089 143.664896,18.567428 146.100018,16.1370067 C148.535139,13.7065853 156.910073,10.8246102 160.596389,12.4980151 C160.735027,12.5509201 160.869873,12.6130405 161,12.683949 Z" id="Path" fill="#5233D3"></path>
                    <path d="M129.988357,71.1880234 C115.937224,76.475697 64.5036333,92.3052089 71.6835344,75.4101202 C78.8634355,58.5150314 86.5935719,55.3585115 86.5935719,55.3585115 C89.9987841,55.3040618 93.3978113,55.0489522 96.772927,54.594513 C98.1149646,57.5097703 99.4570021,59.6744326 100.221964,60.0497301 C101.946482,60.8941494 111.897691,55.7606159 118.809184,52.0813602 C121.916001,50.4260302 124.412191,49.0655768 125.271095,48.6701741 C125.689731,48.4768926 126.093449,48.2528876 126.478929,48 C132.336923,50.2651884 136.108048,52.9056743 138.134525,55.6198794 C142.630351,61.5978322 138.644499,67.9309774 129.988357,71.1880234 Z" id="Path" fill="#755CDC"></path>
                    <path d="M50.9380642,73.7568938 C47.9674658,77.5424488 34.2117219,75.4393627 28.8592923,75.2257159 C23.5068628,75.012069 16.1472722,53.5138557 15.4180037,51.8046809 C14.6887352,50.0955062 13.7052262,51.8046809 7.83762536,50.8299172 C2.68591194,49.9753299 5.83046429,45.9160399 7.3358351,42.6245432 C7.53536969,42.1921955 7.70307694,41.7459168 7.83762536,41.2892505 C8.82113429,37.8775775 12.4875485,38.618665 16.8832313,41.2892505 C18.4220548,42.2239554 18.8903923,43.4323954 18.8903923,44.5673942 C19.1513233,44.6141294 19.3854921,44.6541882 19.5995893,44.6808941 C21.3123667,44.8945409 24.4903717,56.6584701 27.1799676,62.9744048 C29.2607246,67.8615763 41.5980746,68.1219584 47.0709338,67.9817527 C48.6699721,67.9483703 49.6869338,67.8749292 49.6869338,67.8749292 C49.6869338,67.8749292 53.9153531,69.9780153 50.9380642,73.7568938 Z" id="Path" fill="#A77120"></path>
                    <path d="M89.0526734,76.9419692 C88.2288211,79.2085219 87.1479268,80.7217791 85.8231723,81.0550956 C80.5505174,82.3883619 68.4234113,89.534669 56.5401654,75.1087281 C55.3304411,73.6274208 54.2164755,72.0687055 53.2052112,70.4422963 C49.6857141,64.8559107 45.0062329,45.2368978 55.1231394,40.4838036 C65.2400459,35.7307095 84.017288,34.5841005 88.3540466,45.2102325 C91.6890008,53.4098199 91.8142264,69.3423516 89.0526734,76.9419692 Z" id="Path" fill="#DE962B"></path>
                    <circle id="Oval" fill="#5233D3" cx="52.5" cy="54.5" r="9.5"></circle>
                    <circle id="Oval" fill="#5233D3" cx="69.5" cy="54.5" r="9.5"></circle>
                    <path d="M138,55.5440376 C137.574578,55.8296282 125.769131,56.8723658 125.370298,57.0118402 C124.519455,57.403697 119.799935,58.4065848 116.728923,60.04707 C109.882296,63.6933307 101.566634,65.0349422 98.7349222,63.1487162 C98.070201,62.6838014 98.3227951,57.4369052 97,54.5145833 C104.504702,53.5249789 114.44893,51.2468961 120.43142,46 L121.049611,46.1793243 C137.441634,51.5789782 138,55.5440376 138,55.5440376 Z" id="Path" fill="#9785E5"></path>
                    <polygon id="Path" fill="url(#linearGradient-2)" points="78.7993747 55 91 64.3347639 90.8441897 67 78 58.6051502"></polygon>
                    <path d="M95.9615192,66.1154551 C91.9884362,69.6830144 89.7899969,61.5651343 85.9228627,57.6340879 C82.0557286,53.7030415 72.9772338,37.5884438 64.0245534,44.2321815 C58.296692,48.4795963 52.5158562,46.7833229 49.0990048,45.0130058 C47.9993351,44.4519701 46.9606415,43.7751367 46,42.9936326 C53.6216976,42.6234142 55.681079,33.6506662 66.2031273,30.9447062 C76.7251755,28.2387462 78.6653644,31.5572494 93.5445604,38.200987 C96.2660434,39.3039875 98.5809629,41.2430064 100.166365,43.7475319 C105.000283,51.784637 99.1002548,63.3152577 95.9615192,66.1154551 Z" id="Path" fill="#150A43"></path>
                    <path d="M113.999749,88.3171379 C114.080809,91.3735891 94.4912933,89.668273 95.5991142,93.1772888 C95.9706395,95.1449612 94.126523,99.2836321 92.6404218,98.2014123 C91.1543206,97.1191925 93.7482427,90.7439339 89.3034491,97.8406724 C86.4055517,102.484379 83.5549394,101.507102 83.055069,98.1423821 C83.055069,98.0439985 83.055069,97.9456149 83.0145389,97.8406724 C82.7038087,94.8760459 87.4593326,91.4129425 89.0940439,90.2979282 C89.4366859,90.0698491 89.8063693,89.8826658 90.1951098,89.740421 L104.481946,84.5720015 L97.841776,81.2138406 L91.654191,78.0786825 C98.6253566,68.7322386 104.299561,74.6680504 108.183689,77.1801121 C108.725267,77.5308648 109.227837,77.9353169 109.683301,78.3869512 C111.391651,80.1683599 112.641608,82.3170067 113.331004,84.6572673 C113.719258,85.8432291 113.944126,87.0738741 113.999749,88.3171379 Z" id="Path" fill="#DE962B"></path>
                    <path d="M5,17.2536614 L8.77425817,41.807236 C8.77425817,41.807236 10.1517247,43.463628 11.7909098,42.8725234 C13.4300949,42.2814188 12.9273196,41.092714 12.9273196,40.6185312 C12.9273196,40.1443484 5.55787393,16 5.55787393,16 L5,17.2536614 Z" id="Path" fill="#9785E5"></path>
                    <path d="M5.73502412,17.2066458 C5.73502412,17.2066458 0.996364193,20.386761 1.24909272,14.0131125 C1.24909272,13.2214383 1.31929509,12.4968551 1.36141651,11.8326538 C1.65626646,7.13628129 2.02131879,5.27785959 0.224138131,4.204403 C-0.948241436,3.53349264 2.74440319,4.49289446 5.13830398,7.39793633 C6.92144416,9.53143129 7.96043923,12.7719283 5.73502412,17.2066458 Z" id="Path" fill="#F2D5AA"></path>
                    <path d="M89.3883207,77.1882186 C88.5422757,79.3756929 87.4322646,80.8361537 86.0718242,81.1578411 C80.6571361,82.4445907 68.2033534,89.3415686 56,75.4189378 C59.9324173,74.5310806 65.4757042,71.4171466 69.8886751,74.009947 C78.4032721,79.041138 93.1853707,68.5669962 89.3883207,77.1882186 Z" id="Path" fill="#915C0E"></path>
                    <path d="M113.999749,87.8123549 C114.080953,90.990454 94.456576,89.2172657 95.5663683,92.8659417 C95.9385548,94.9119283 94.0911565,99.21532 92.6024107,98.0900274 C91.1136648,96.9647348 93.712203,90.3357384 89.2594996,97.7149298 C86.3564452,102.543458 83.50076,101.527285 83,98.0286478 C87.4527035,93.9844144 94.3618376,89.9129011 94.3618376,89.9129011 L113.309512,84 C113.705938,85.2344113 113.938043,86.5163899 113.999749,87.8123549 Z" id="Path" fill="#A77020"></path>
                    <path d="M47,68.2890754 C47,68.2890754 45.1350396,68.8304898 41.7137565,69.8464774 C38.2924735,70.862465 27.7331201,66.5044129 27.1618118,66.4709923 C26.5905035,66.4375716 20.4834147,52.1535882 18.3360835,47.1338074 L17.6071729,45.4694593 L14.2909581,44.4868923 L8,42.6287045 C8.1958432,42.1958604 8.36044787,41.7490694 8.49250716,41.2918787 C9.45782118,37.8762889 13.0564068,38.6182272 17.3707695,41.2918787 C18.8811248,42.2276568 19.3407981,43.4374841 19.3407981,44.573786 C19.5969018,44.6205749 19.8267385,44.6606797 20.0368749,44.6874162 C21.717966,44.9013083 24.837178,56.6787435 27.4770163,63.0019294 C29.5192793,67.8947117 41.6283886,68.1553928 47,68.0150261 L47,68.2890754 Z" id="Path" fill="#DE962B"></path>
                    <path d="M56.1000449,66.5136978 C56.1000449,66.5136978 69,68.6913587 69,76.3098625 C69,83.9283662 55.0277729,100.250895 39.9767356,89.3692091 C24.9256982,78.4875234 31.3724067,8.86194482 31.3724067,8.86194482 C31.3724067,8.86194482 36.5114663,6.92256897 37.7079649,8.86194482 C38.9044636,10.8013207 34.6022991,29.1757485 36.0341745,45.8623236 C37.4660499,62.5488987 38.1983332,78.4875234 40.8136308,79.937091 C43.4289283,81.3866586 41.0490075,61.3177591 56.1000449,66.5136978 Z" id="Path" fill="#EBC080"></path>
                    <path d="M100,43.95134 C99.3192864,45.1560526 98.4045234,46.2023974 97.3132029,47.0246129 C89.7875306,52.57831 93.0156479,44.5850747 87.9721271,45.2801387 C82.9286064,45.9752026 77.099511,38.5884447 72.6897311,36.9325571 C68.2799511,35.2766695 60.5430318,40.8099236 57.9618582,43.1540608 C56.3444988,44.6191465 52.0667482,45.0825225 49.0894866,45.1983664 C47.9931944,44.6304038 46.957691,43.9452138 46,43.1540608 C53.5982885,42.7792714 55.6513447,33.6957398 66.1410758,30.9563701 C76.6308068,28.2170005 78.5650367,31.5764762 93.398533,38.3022419 C96.1162871,39.4278722 98.4246514,41.4032175 100,43.95134 Z" id="Path" fill="#291A6A"></path>
                    <path d="M133.618729,26.290643 C134.341137,29.6121481 135.792642,31.6050511 135.070234,38.6997859 C134.441472,44.8179982 130.180602,46.1997443 127.411371,48 C125.772575,47.3755571 123.973244,46.7776861 122,46.2196733 C125.034267,44.1167591 128.195121,42.1999984 131.464883,40.4801126 C137.324415,37.5173301 124.622074,10.6330682 129.016722,7.08570081 C133.411371,3.53833342 136.83612,-0.832767223 141.725753,0.137112251 L142,0.203542352 C138.595318,2.86074639 131.297659,8.6534512 131.110368,9.98205321 C130.856187,11.7225219 132.889632,22.975781 133.618729,26.290643 Z" id="Path" fill="#5233D3"></path>
                </g>
                <path d="M479,141.785 C479.084034,141.785 479.705882,141.565 481,141.215 C479.773109,141.585 479.042017,141.785 479,141.785 Z" id="Path" fill="#291A6A"></path>
                <path d="M367,94.4765301 C366.316906,95.5030361 365.729445,96.4953253 365.422053,97.1180723 C364.912903,97.9273702 364.189204,98.5789366 363.331785,99 C363.618684,94.2096385 363.973893,92.314024 362.225172,91.2190842 C361.063912,90.5073734 364.656987,91.5133493 367,94.4765301 Z" id="Path" fill="#9B00FF"></path>
                <circle id="Oval" fill="#C6B9FF" cx="386" cy="68" r="5"></circle>
                <circle id="Oval" fill="#C6B9FF" cx="396.5" cy="89.5" r="3.5"></circle>
                <circle id="Oval" fill="#C6B9FF" cx="405" cy="49" r="5"></circle>
                <circle id="Oval" fill="#C6B9FF" cx="389.5" cy="23.5" r="14.5"></circle>
                <g id="Group-20" transform="translate(192.000000, 432.000000)">
                    <polygon id="Path" fill="#755CDC" points="0 84 8.85212694 12 20 13.675339 11.6137745 82.661048"></polygon>
                    <polygon id="Path" fill="#DE962B" points="20 14 9 12.1838611 14.6198547 2.91011236 16.377724 0 17.3831719 3.85393258"></polygon>
                    <polygon id="Path" fill="url(#linearGradient-3)" points="14 4 16.5 0 17.5 4"></polygon>
                </g>
                <g id="Group-18" transform="translate(148.000000, 442.000000)">
                    <polygon id="Path" fill="#5233D3" points="12.8049874 84 0 12.6301419 10.6461194 11 23 79.3537655"></polygon>
                    <polygon id="Path" fill="#DE962B" points="11 11.3592233 0 13 2.80326877 3.10884006 3.68220339 0 5.70641646 3.12876852"></polygon>
                    <polygon id="Path" fill="url(#linearGradient-4)" points="7 5 2.5 4 3.5 8.8817842e-16 5.5 3"></polygon>
                </g>
                <g id="Group-19" transform="translate(180.000000, 438.000000)">
                    <polygon id="Path" fill="#5233D3" points="0 84 6.94104561 11 18 12.4206487 11.4393771 82.3659205"></polygon>
                    <polygon id="Path" fill="#DE962B" points="18 13 7 11.5756173 12.3904647 2.76851852 14.0766445 0 15.1653591 3.58436214"></polygon>
                    <polygon id="Path" fill="url(#linearGradient-5)" points="16 6 11.5 4 14 -5.77315973e-15 15.5 4.5"></polygon>
                </g>
                <g id="Group-17" transform="translate(158.000000, 418.000000)">
                    <polygon id="Path" fill="#755CDC" points="11.5974026 109 0 16.338576 13.7857143 15 25 103.752249"></polygon>
                    <polygon id="Path" fill="#DE962B" points="14 14.6900204 0 16 4.22243167 3.82566191 5.53534402 0 7.87087653 4.04725051"></polygon>
                    <polygon id="Path" fill="url(#linearGradient-6)" points="8 4 4 3.78099839 5.43942134 0"></polygon>
                </g>
                <g id="Group-16" transform="translate(109.000000, 422.000000)">
                    <polygon id="Path" fill="#755CDC" points="40.1365694 112 0 18.6074089 14.4363682 13 53 102.419569"></polygon>
                    <polygon id="Path" fill="#DE962B" points="1.0658141e-13 19 0.736842105 4.54143059 0.956602031 0 4.5567867 3.67351275 14.5 13"></polygon>
                    <polygon id="Path" fill="url(#linearGradient-7)" points="0.5 7.5 1 2.22044605e-15 5 4.04444444"></polygon>
                </g>
                <path d="M433.717715,465 C433.717715,465 413,489.901025 413,500.224519 C413,510.548013 417.447644,516.96294 425.358288,517.911292 C433.268931,518.859644 444.883712,512.153438 441.347031,500.224519 C437.441947,487.069516 433.717715,465 433.717715,465 Z" id="Path" fill="#5233D3"></path>
                <path d="M488.786855,475 C488.786855,475 470,497.651725 470,505.879631 C470,514.107537 473.472329,519.204175 479.652556,519.937025 C485.832784,520.669875 496.010076,514.946983 492.149054,505.879631 C487.517122,494.966829 488.786855,475 488.786855,475 Z" id="Path" fill="#5233D3"></path>
                <path d="M432.874292,485 C432.874292,485 419,501.117961 419,506.954474 C419,512.790986 421.56729,516.411786 426.135155,516.952204 C430.70302,517.492621 438.220538,513.405712 435.373304,506.954474 C431.93887,499.199478 432.874292,485 432.874292,485 Z" id="Path" fill="#755CDC"></path>
                <path d="M409.867465,492 C409.867465,492 396,508.118494 396,513.961954 C396,519.805415 398.56729,523.419579 403.135155,523.953259 C407.70302,524.486939 415.220538,520.40665 412.373304,513.961954 C408.932042,506.199947 409.867465,492 409.867465,492 Z" id="Path" fill="#755CDC"></path>
                <path d="M498.878941,486 C498.878941,486 485,502.118494 485,507.961954 C485,513.805415 487.573714,517.419579 492.140862,517.953259 C496.708009,518.486939 504.224347,514.40665 501.370733,507.961954 C497.943665,500.199947 498.878941,486 498.878941,486 Z" id="Path" fill="#755CDC"></path>
                <g id="Group-23" transform="translate(448.000000, 397.000000)">
                    <path d="M14,18.8893805 C13.8634146,23.329646 11.7121951,27 6.82926829,27 C2.56780488,27 0,23.130531 0,19.4469027 C0.00437144261,18.8503255 0.0408440206,18.2543789 0.109268293,17.6615044 C0.894634146,10.5995575 5.71609756,0 5.71609756,0 C5.71609756,0 11.6917073,9.63053097 13.4946341,15.829646 C13.8193651,16.8193073 13.9897108,17.8506646 14,18.8893805 Z" id="Path" fill="#755CDC"></path>
                    <path d="M14,18.9940441 C13.8634146,23.3770101 11.7121951,27 6.82926829,27 C2.56780488,27 0,23.1804646 0,19.5443716 C0.00437144261,18.9554931 0.0408440206,18.3672368 0.109268293,17.7820131 C0.706834131,17.8634538 1.29952239,17.9749836 1.88487805,18.1161406 C6.33756098,19.1840381 7.81268293,20.4681358 9.30146341,19.4264443 C10.2780488,18.7254318 11.7668293,16.9106611 13.4946341,16 C13.8166841,16.9685063 13.9869976,17.9775303 14,18.9940441 Z" id="Path" fill="url(#linearGradient-8)"></path>
                </g>
                <g id="Group-22" transform="translate(469.000000, 367.000000)">
                    <path d="M13.9997361,18.8940251 C13.8631533,23.3353823 11.7119743,27 6.82913956,27 C2.56775647,27 0,23.1362183 0,19.4516843 C0.00668440049,18.7503136 0.0545663324,18.0498863 0.143411931,17.3538235 C1.03120007,10.296779 5.71598981,0 5.71598981,0 C5.71598981,0 12.3607426,10.7017458 13.7538871,16.8094418 C13.9227444,17.4919966 14.0053041,18.1920299 13.9997361,18.8940251 Z" id="Path" fill="#755CDC"></path>
                    <path d="M13.9994811,19.0456026 C13.8629008,23.4039088 11.7117611,27 6.8290152,27 C2.56770971,27 0,23.2084691 0,19.5928339 C0.00668427876,18.9045784 0.0545653387,18.2172488 0.143409319,17.534202 C1.03570257,17.3217129 1.9586587,17.2512753 2.8750154,17.3257329 C5.98904633,17.534202 5.14224844,18.8110749 7.01339861,18.3876221 C8.88454877,17.9641694 7.32070429,17.2736156 11.3293362,17.2996743 C12.150195,17.3052058 12.9680409,17.2043937 13.7604656,17 C13.927021,17.6700614 14.0072855,18.3570008 13.9994811,19.0456026 Z" id="Path" fill="#2EF5FF"></path>
                </g>
                <path d="M454.289592,517.893809 C443.860806,516.651784 438,508.251421 438,494.682632 C438.01508,493.742141 438.144215,492.80703 438.384533,491.898092 C438.678504,490.777915 439.050704,489.680062 439.498351,488.612736 C446.128221,472.419668 472.767042,444 472.767042,444 C472.767042,444 467.940496,473.040681 473.781412,490.742876 C474.2193,492.090196 474.746454,493.406404 475.359321,494.682632 C482.486432,509.366573 464.711749,519.135834 454.289592,517.893809 Z" id="Path" fill="#755CDC"></path>
                <path d="M36,203.292226 L28.6706148,206.682908 L13,214 C13,214 19.713198,197.480596 27.4836435,196.083635 L27.5485054,196.083635 L28.1971235,196.00904 C29.3283658,195.945203 30.4535173,196.220471 31.4402143,196.80246 C33.6649746,198.057012 35.0205866,200.38302 36,203.292226 Z" id="Path" fill="#694CF2"></path>
                <path d="M101,215.213658 L72.659362,233.561222 C72.659362,233.561222 67.020527,235.69085 51.4022191,230.566638 C43.0404993,227.827609 40.89681,219.938156 39.2457698,212.415655 C38.6813395,209.408498 37.9275985,206.438769 36.9889043,203.523639 C35.9836338,200.745293 34.592233,198.497717 32.3287101,197.272361 C31.3159638,196.709996 30.1611077,196.444011 29,196.505695 L60.9556172,193 C63.5586685,194.710255 67.0271845,202.396574 70.0629681,208.647851 C73.0987517,214.899128 101,215.213658 101,215.213658 Z" id="Path" fill="#D9D0FF"></path>
                <g id="Group-14" transform="translate(262.000000, 308.000000)">
                    <path d="M35,17.3685094 L39.1418294,15.6572585 L48,12 C48,12 44.2055498,20.2597205 39.8098664,20.9578121 L39.7764645,20.9578121 L39.4090442,20.9948789 C38.7683193,21.029037 38.1305184,20.8917701 37.5719424,20.5994996 C36.3227133,19.9631861 35.5678314,18.8017594 35,17.3685094 Z" id="Path" fill="#694CF2"></path>
                    <path d="M0,10.5207085 L15.3528817,0.245221056 C15.3528817,0.245221056 18.408999,-0.947110605 26.867543,1.92654267 C31.3958544,3.46049745 32.5591507,7.88820097 33.4398382,12.1015527 C33.7463338,13.7912311 34.1545881,15.4600786 34.6622851,17.0986281 C35.2077856,18.6526784 35.9767442,19.911995 37.1926188,20.6019397 C37.7421582,20.918844 38.3696407,21.0676803 39,21.0306432 L21.682002,23 C20.2755308,22.0421156 18.3958544,17.7282864 16.7527806,14.2249749 C15.1097068,10.7216633 0,10.5207085 0,10.5207085 Z" id="Path" fill="#D9D0FF"></path>
                </g>
                <g id="Group-13" transform="translate(360.000000, 273.000000)">
                    <polygon id="Path" fill="#694CF2" points="20.507549 5.09021675 21 5 15.4953421 14.2601054 0 16"></polygon>
                    <polygon id="Path" fill="#694CF2" points="46 0 35.0260931 8 27 3.39524175"></polygon>
                    <polygon id="Path" fill="#ECE8FF" points="46 0 33.7485748 20.9233404 23.0975004 25 0 16.0300316 15.4454027 14.251844 29.8351118 12.5987882 34.9858208 8.58798736 34.9858208 8.58140148"></polygon>
                    <polygon id="Path" fill="#D9D0FF" points="35 8.34125379 35 8.34782609 29.7281487 12.3503539 15 14 20.615967 4.55561173 22.7288369 1 26.7549897 3.41203236"></polygon>
                    <polygon id="Path" fill="#FBFAFF" points="30.3257576 13 24 25 34 21.055231"></polygon>
                </g>
                <g id="Group-12" transform="translate(202.000000, 137.000000)">
                    <polygon id="Path" fill="#694CF2" points="6.69881797 17 14 24.4527027 0 34"></polygon>
                    <polygon id="Path" fill="#BDAFFF" points="50 0 26.9907635 15.5018425 26.9841441 15.5085214 19.1930419 29 14.3012623 24.0642561 7 16.6973745"></polygon>
                    <polygon id="Path" fill="#D4D0E7" points="50 0 39.3535673 31 29.8121404 19.0676464 27 15.5502485"></polygon>
                    <polygon id="Path" fill="#54429F" points="30 19.3770411 20 29 27.3424828 16.0064325 27.3487211 16"></polygon>
                </g>
                <g id="Group-15" transform="translate(101.000000, 258.000000)">
                    <circle id="Oval" fill="#E6E3F2" cx="17.5" cy="6.5" r="6.5"></circle>
                    <ellipse id="Oval" fill="#BAADED" cx="50" cy="9" rx="5" ry="4"></ellipse>
                    <path d="M18.9046668,11.1150681 C18.9046668,11.1150681 2.50774271,16.0183007 1.47088816,16.8355062 C0.26787103,17.7945407 -1.1278947,20.360971 1.47088816,21.0160861 C4.06967103,21.6712012 10.3506168,18.7603289 11.4406434,19.2330924 C12.53067,19.7058559 13.2551389,33.8077152 13.8200917,37.5222854 C14.484742,41.7771567 15.1493924,44.5597075 17.28292,43.9045924 C19.4164476,43.2494773 17.9475703,31.1399784 18.9113133,31.1399784 C19.8750563,31.1399784 20.6792833,43.0941407 23.1916616,42.7699601 C25.2720172,42.4998095 25.7439189,42.4187643 24.8665805,29.8770245 C24.2019301,20.6041065 24.5076693,20.0030215 25.5312308,18.9359268 C26.6943689,17.699988 34.1716854,18.3753644 34.8363357,15.9575169 C35.5009861,13.5396693 34.1716854,13.3167951 30.2901273,13.2087349 C26.4085693,13.1006747 21.5433287,10.4194304 18.9046668,11.1150681 Z" id="Path" fill="#ECE8FF"></path>
                    <path d="M52,27 C51.939444,27.4686928 50.8763499,34.988763 46.159711,34.9957584 C45.5180931,35.0297429 44.8818278,34.8588729 44.3363028,34.5060794 C41.698753,33.2818819 38.1057641,29.938074 39.2025004,28.958716 C40.4136203,27.8674314 41.9611623,28.7068811 43.6298163,29.6582574 C44.5497839,30.2460139 45.5348198,30.7157938 46.5634176,31.0573402 C48.4541103,31.526033 50.3515313,30.952409 52,27 Z" id="Path" fill="#ECE8FF"></path>
                    <path d="M66.8468701,12.463312 C66.1662102,14.8563354 58.5019792,14.1812087 57.3176309,15.4111425 C56.2898343,16.4672813 55.956311,17.0621949 56.6369709,26.233223 C57.5422486,38.6461962 57.0589801,38.7264093 54.9285145,38.9937862 C52.3556199,39.3213229 50.9398472,26.5874974 50.5450644,27.4832101 C48.8774475,31.259909 46.9579865,31.8080317 45.045332,31.3200688 C44.9500396,30.4243561 44.8547472,29.394955 44.7594548,28.3053941 C44.2693797,22.9177493 43.6703989,15.9993717 42.8944466,15.6785194 C41.7917775,15.2172942 35.359541,18.1049649 32.6845474,17.4498915 C30.0095538,16.794818 31.0305437,15.1237123 32.2625382,14.1812087 C33.3243677,13.3657091 49.0816455,12.9512749 49.0816455,12.9512749 C51.8042853,12.2828326 53.5467748,7.14251149 62.1775429,9.71601427 C66.0096584,10.8791038 67.5139169,10.0636043 66.8468701,12.463312 Z" id="Path" fill="#D9D0FF"></path>
                </g>
                <path d="M296,206.989922 C296,206.989922 306.907326,201.315418 317.353594,202.068907 C327.799861,202.822396 328.912988,207.863436 336.006702,207.730075 C343.100416,207.596714 349.700139,206.396467 353,203.909287 C349.463023,207.730075 333.688237,215.24496 322.142015,210.450637 C310.595794,205.656314 307.776751,205.196219 296,206.989922 Z" id="Path" fill="#5233D3"></path>
                <path d="M0,355.496276 C0,355.496276 24.8747001,342.422007 48.6944317,344.158911 C72.5141632,345.895814 75.0553769,357.511355 91.2448323,357.19247 C107.434288,356.873586 122.475884,354.186813 130,348.372258 C121.938447,357.19247 85.9500842,374.439377 59.6289491,363.454821 C33.307814,352.470264 26.8585719,351.37113 0,355.496276 Z" id="Path" fill="#5233D3"></path>
                <path d="M449,257.49963 C449,257.49963 473.8747,244.422392 497.694432,246.158789 C521.514163,247.895186 524.055377,259.507339 540.244832,259.19533 C556.434288,258.883321 571.475884,256.19055 579,250.37769 C570.938447,259.19533 534.950084,276.437208 508.628949,265.455855 C482.307814,254.474501 475.858572,253.368905 449,257.49963 Z" id="Path" fill="#5233D3"></path>
                <path d="M342,188.993424 C342,188.993424 359.606988,179.903271 376.463471,181.1104 C393.319954,182.31753 395.119838,190.393961 406.576668,190.173876 C418.033497,189.953792 428.680046,188.086409 434,184.058197 C428.301473,190.180545 402.830783,202.171811 384.187699,194.535549 C365.544614,186.899287 361.028299,186.125657 342,188.993424 Z" id="Path" fill="#5233D3"></path>
                <path d="M346,226.995025 C346,226.995025 356.908587,221.315548 367.349474,222.068812 C377.790362,222.822076 378.910205,227.868278 386.011326,227.728291 C393.112447,227.588303 399.706345,226.39508 403,223.908642 C399.469201,227.728291 383.686005,235.240932 372.145036,230.454706 C360.604068,225.66848 357.778112,225.201857 346,226.995025 Z" id="Path" fill="#291386"></path>
                <path d="M392,218.995225 C392,218.995225 409.600347,209.903024 426.463471,211.110425 C443.326595,212.317827 445.119838,220.396078 456.576668,220.175944 C468.033497,219.95581 478.680046,218.081335 484,214.052216 C478.294831,220.175944 452.824141,232.169911 434.187699,224.538599 C415.551256,216.907287 411.008374,216.126812 392,218.995225 Z" id="Path" fill="#291386"></path>
                <path d="M443,201.990122 C443,201.990122 460.601617,192.902893 477.459317,194.11052 C494.317017,195.318148 496.117031,203.391237 507.574688,203.171061 C519.032344,202.950886 529.679662,201.082734 535,197.052861 C529.301061,203.177733 503.828532,215.173943 485.184102,207.534533 C466.539672,199.895122 462.009747,199.107829 443,201.990122 Z" id="Path" fill="#5233D3"></path>
                <g id="Group-21" transform="translate(251.000000, 455.000000)">
                    <ellipse id="Oval" fill="url(#radialGradient-9)" opacity="0.7" cx="38" cy="49.5" rx="38" ry="49.5"></ellipse>
                    <path d="M47,51.4875991 C47,56.4137049 44.5803936,60.6218358 41.1715559,62.2572232 L41.1715559,64.0521606 C41.1678733,65.128997 40.2891481,66.0000062 39.2064612,66 L37.1344226,66 C36.0517357,66.0000062 35.1730105,65.128997 35.1693279,64.0521606 L35.1693279,62.430069 C31.5867063,60.9143442 29,56.5998466 29,51.5075428 C29,45.152135 33.0103973,40 38.003342,40 C42.9962867,40 47,45.1321913 47,51.4875991 Z" id="Path" fill="url(#linearGradient-10)"></path>
                    <path d="M35.3610503,67.4554391 C35.6258853,66.6122 35.952888,65.7913021 36.3391685,65 L40.2778993,65 L41,68.4416958 C41,68.4416958 40.6061269,71.0535756 40.4485777,70.9991614 C40.2910284,70.9447473 32,70.5570464 32,70.2781738 C32,69.9993012 35.3610503,67.4554391 35.3610503,67.4554391 Z" id="Path" fill="#755CDC"></path>
                </g>
                <path d="M362.96872,90.4862741 C362.96872,90.4862741 338.344151,96.1345975 333.126629,85.6096886 C327.909106,75.0847798 331.162542,63.3823052 320.720817,58.1863799 C310.279091,52.9904546 276.315091,57.5210886 265.873365,43.8759634 C255.43164,30.2308381 263.909279,26.9709106 248.24335,18.5217107 C232.577422,10.0725108 223.805838,3.61918485 221,0 L343.661882,0 C341.944977,6.36018514 341.39717,11.5428046 343.775452,13.3058266 C351.611756,19.1670433 356.181264,26.9709106 351.611756,35.4267634 C347.042249,43.8826163 339.680265,44.5346018 349.934934,51.6931365 C360.189604,58.8516713 363.44304,62.9498659 358.793366,70.1017477 C354.143691,77.2536295 355.713624,79.3559501 359.635117,83.2545573 C363.556609,87.1531645 362.96872,90.4862741 362.96872,90.4862741 Z" id="Path" fill="url(#linearGradient-11)"></path>
                <path d="M541,507 L541,565.018975 C541,579.689753 528.394096,591 513.711612,591 L57.6228173,554.193548 C42.9194413,554.193548 31,542.299785 31,527.628083 L31,517.413662 C31,517.413662 105.157858,520.873814 126.842142,517.413662 C148.526427,513.95351 191.894996,507.896584 214.451178,507.033207 C237.00736,506.169829 291.657349,528.664137 304.649284,523.470588 C317.641218,518.27704 335.172344,508.6537 356.770104,515.627135 C378.367865,522.600569 390.015347,526.074004 405.44327,520.873814 C420.871193,515.673624 437.76337,512.107211 454.908464,515.627135 C472.053559,519.147059 484.339989,520.767552 495.108919,515.627135 C505.877848,510.486717 541,507 541,507 Z" id="Path" fill="#4825BB"></path>
            </g>
        </g>
    </g>
</svg>