<?xml version="1.0" encoding="UTF-8"?>
<svg width="84px" height="49px" viewBox="0 0 84 49" version="1.1" xmlns="http://www.w3.org/2000/svg" xmlns:xlink="http://www.w3.org/1999/xlink">
    <title>logos/light/jitsi</title>
    <defs>
        <polygon id="path-1" points="4.55766555e-06 0.0186985319 31.0365819 0.0186985319 31.0365819 47.8415842 4.55766555e-06 47.8415842"></polygon>
        <polygon id="path-3" points="0.0976508087 0.13908212 3.51493069 0.13908212 3.51493069 3.53443834 0.0976508087 3.53443834"></polygon>
    </defs>
    <g id="Page-1" stroke="none" stroke-width="1" fill="none" fill-rule="evenodd">
        <g id="Gov-tech:hover" transform="translate(-560.000000, -1928.000000)">
            <g id="logos/light/jitsi" transform="translate(560.000000, 1928.000000)">
                <g id="Group-3" transform="translate(0.000000, 0.139723)">
                    <mask id="mask-2" fill="white">
                        <use xlink:href="#path-1"></use>
                    </mask>
                    <g id="Clip-2"></g>
                    <path d="M3.90840396,41.3326416 C4.30840396,40.934701 4.31806733,40.5304238 4.41074059,40.155295 C4.93066139,38.0516911 5.6737901,36.0855921 7.61089901,34.8190574 C8.01390891,34.5556119 8.28955248,34.4939881 8.70127525,34.8474139 C9.55260198,35.5788198 10.5897505,36.0627802 11.6775921,36.2232554 C15.8355327,36.8364832 19.2444832,35.5056317 21.7480871,32.0817901 C22.0427406,31.6787802 22.2779881,31.5254337 22.6971564,31.8414733 C23.0024238,32.0718099 23.2581069,31.9449188 23.5644832,31.7888792 C25.2196119,30.9456317 26.2710178,29.5504634 27.0398099,27.9403248 C28.426899,25.034503 28.7874535,21.9406416 28.6608792,18.7498297 C28.5526812,16.0236515 26.9279683,14.2126416 24.2596119,14.237196 C23.7940277,14.2416317 23.6590574,14.0635723 23.7080079,13.626503 C23.8065426,12.7471366 23.7301861,11.8663446 23.2668198,11.1083248 C22.886305,10.4857505 23.0531168,10.0863842 23.4714931,9.57961188 C24.2524832,8.63339406 24.5981465,7.54428515 24.382701,6.28519604 C24.1943446,5.18468119 23.7406416,4.1817505 23.3539485,3.15458218 C23.2375129,2.84519604 23.1106218,2.31893861 22.6686416,2.43505743 C22.2684832,2.54040396 22.5113347,3.03054257 22.4639683,3.34816634 C22.4370376,3.52860198 22.4744238,3.71822574 22.4508198,3.89945347 C22.2846416,5.17596832 22.1992554,6.50238416 21.0928792,7.39632475 C20.3194931,8.02127525 19.4889188,8.55893861 18.514503,8.87244356 C17.0147802,9.35466139 15.8157307,10.186503 15.4767208,11.8650772 C15.2156515,13.1571168 14.9770772,14.4515327 15.3336713,15.7624238 C15.4901861,16.3376317 15.2530376,16.6422653 14.7039683,16.6714139 C14.0634931,16.7056317 13.4561267,16.8779881 12.8497109,17.0405228 C11.2417901,17.4712554 9.81287921,18.1720871 8.89089901,19.6673743 C7.50951287,21.9075327 8.59355248,26.4906614 10.9130772,28.0710178 C11.6227802,28.554503 11.4657901,29.0161267 11.1451564,29.5965624 C10.7453149,30.3205228 10.2971564,29.870305 9.89794851,29.6448792 C8.93747327,29.1024634 8.06317624,28.4141465 7.04725545,27.9626614 C5.72606733,27.3752554 5.00099802,27.5089584 4.01723564,28.5781069 C3.07624554,29.6006812 2.58927525,30.8375921 2.46190891,32.2026614 C2.1697901,35.3305822 2.45446337,38.3734337 3.90840396,41.3326416 M0.0205623762,33.8289584 C-0.113774257,31.6993743 0.398384158,29.4362455 1.90792871,27.4685624 C2.88614653,26.1933149 4.10056238,25.2775129 5.80495842,25.2692752 C6.23363168,25.2672158 6.3337505,25.1477703 6.24202772,24.7081663 C5.95814653,23.3456317 5.7438099,21.9894337 6.07743366,20.5782653 C6.72266139,17.8487604 8.42990891,16.0301465 11.0139881,15.2268198 C12.4424238,14.7826218 12.9208396,14.1247208 12.9989386,12.7099089 C13.1711366,9.59418614 14.8500277,7.56313663 17.8526416,6.64131485 C18.0010772,6.5958495 18.1403248,6.52060198 18.2881267,6.47228515 C19.9166416,5.94111683 20.1298693,4.63038416 20.0913743,3.19355248 C20.0698297,2.38246337 20.1721663,1.62349307 20.7461069,0.989829703 C21.9407208,-0.32929901 24.0017109,-0.343873267 24.8768,1.18816634 C26.4962851,4.02301782 27.710701,6.99157228 25.8496317,10.2501861 C25.4434535,10.9613149 25.8653149,11.9834139 26.6482059,12.2777505 C29.5792158,13.3796911 30.8387802,15.6482059 30.9956119,18.6080475 C31.1945822,22.3609188 30.6952554,26.0152554 28.9149782,29.3825426 C27.666503,31.7443644 25.966701,33.6713347 23.2134337,34.3468198 C22.9018297,34.4233347 22.7304238,34.6500277 22.5263842,34.8496317 C19.2994535,38.0043248 15.5003248,39.338503 11.0054337,38.4477307 C10.2542257,38.2988198 9.53295842,38.0407604 8.86729505,37.6680079 C8.32567129,37.3648 8.00899802,37.517196 7.70468119,38.0119287 C6.87331485,39.3632158 6.63632475,40.8990574 6.29018614,42.4000475 C5.91268119,44.0368 5.56749307,45.6811564 5.20551287,47.3215525 C5.1608396,47.5233743 5.14214653,47.7944238 4.91291881,47.8357703 C4.61921584,47.8888396 4.65359208,47.5655129 4.5628198,47.398701 C3.68440396,45.7849188 2.81153267,44.1682851 1.93834455,42.5518099 C0.51909703,39.9241663 -0.000348514851,37.0926416 0.0205623762,33.8289584" id="Fill-1" fill="#33A2DB" mask="url(#mask-2)"></path>
                </g>
                <path d="M72.1961505,35.5139802 C70.415398,35.5022574 68.7328634,35.2144158 67.447002,33.8148119 C67.0327446,33.3639604 66.7243089,32.8622574 66.527398,32.2753267 C66.2569822,31.4697822 66.3802297,31.0849901 67.1008634,30.7505743 C67.7473584,30.4506931 68.4464475,30.677703 68.7615366,31.3414653 C68.9877545,31.8176634 69.1813386,32.3093861 69.5759525,32.673901 C70.7000713,33.712 73.6996752,33.7200792 74.8323485,32.6875248 C75.3530614,32.2129109 75.6128634,31.6172673 75.4511208,30.9159604 C75.2611802,30.0926733 74.677101,29.6164752 73.8867644,29.4160792 C72.5891802,29.0870495 71.2811406,28.7993663 69.9791208,28.487604 C67.4462099,27.8810297 66.2644277,26.0278812 66.9221703,23.6299406 C67.244705,22.4549703 68.0800317,21.7170693 69.2054178,21.3080396 C71.1658139,20.5953267 73.1235168,20.5893069 75.0422495,21.4453861 C75.9872,21.8669307 76.671398,22.5828119 77.0861307,23.5371089 C77.3860119,24.2271683 77.2150812,24.721901 76.5844277,25.0300198 C75.9856158,25.3226139 75.2355168,25.1138218 74.9296158,24.569505 C73.9607446,22.8451485 71.6214178,22.2325545 69.9434772,23.2638416 C68.7957545,23.9694257 68.7892594,25.3950099 69.9423683,26.0771485 C70.8421703,26.6094257 71.8742495,26.7282376 72.8706851,26.9447921 C73.7446653,27.1345743 74.6165861,27.3311683 75.4501703,27.6549703 C77.0617347,28.2808713 77.8118337,29.4873663 77.8088328,31.198099 C77.8058139,32.9422574 76.9364277,34.134495 75.4219723,34.8754059 C74.4158733,35.3674455 73.3220119,35.5464554 72.1961505,35.5139802" id="Fill-4" fill="#4C5974"></path>
                <path d="M47.2379881,23.3987168 C47.2379881,25.5032713 47.2625426,27.6081426 47.2289584,29.7120634 C47.2075723,31.0603406 47.0328396,32.3881822 46.2182653,33.5393901 C45.4952554,34.5611723 44.4880475,35.1509545 43.2796515,35.3610139 C40.4741069,35.8486178 38.024998,35.2165386 36.6860673,32.8428356 C36.3926812,32.3224396 36.0943842,31.7602218 36.552998,31.1547564 C36.8866218,30.7145188 37.332404,30.575905 37.8662653,30.5876277 C38.4788594,30.6010931 38.7234535,31.0430733 38.9558495,31.4844198 C39.8032158,33.0928158 41.0055921,33.6130535 42.7502257,33.1151525 C43.7401663,32.832697 44.2813149,32.1369347 44.5246416,31.1864396 C44.7015921,30.4954297 44.7274139,29.7844594 44.7264634,29.0714297 C44.7215525,25.0202614 44.720602,20.9692515 44.7253545,16.9180832 C44.7267802,15.7218851 45.0497901,15.3253703 45.978899,15.3244191 C46.8104238,15.3237861 47.2291168,15.7564198 47.2341861,16.690598 C47.2463842,18.9266376 47.2381465,21.1626772 47.2379881,23.3987168" id="Fill-6" fill="#4C5974"></path>
                <path d="M58.4970455,28.1306931 C58.4970455,26.6360396 58.4512634,25.4236832 58.5133624,24.2168713 C58.5536,23.433505 58.3370455,23.0853069 57.5093228,23.187802 C57.151303,23.2321584 56.769996,23.1901782 56.4130851,23.1188911 C55.8663921,23.0097426 55.6046891,22.5994455 55.6602931,22.0796832 C55.7170059,21.550099 55.9883723,21.1638812 56.6191842,21.1195248 C57.2305109,21.0767525 58.0606099,21.4373069 58.3953426,20.9107327 C58.6847683,20.4559208 58.481996,19.6898218 58.4965703,19.0613861 C58.5030653,18.7722772 58.4875406,18.4807921 58.5189069,18.1943762 C58.609204,17.3717228 58.9512238,17.0889505 59.7692832,17.1306139 C60.507501,17.1683168 60.8105505,17.4962376 60.8238574,18.3092277 C60.8360554,19.0455446 60.8539564,19.7837624 60.8167287,20.5183366 C60.7912238,21.0189307 60.9892436,21.1527921 61.4578376,21.1352079 C62.2478574,21.1057426 63.0405703,21.1508911 63.8304317,21.1204752 C64.5089267,21.0941782 64.8856396,21.4016634 64.9756198,22.0456238 C65.0575208,22.632396 64.6280554,23.1230099 63.9330851,23.1738614 C63.1985109,23.2278812 62.4544317,23.238495 61.7203327,23.1862178 C61.0470653,23.1382178 60.7959762,23.3191287 60.8096,24.0445149 C60.8544317,26.4373861 60.8200554,28.8316832 60.829402,31.2253465 C60.8371644,33.2240792 61.6607683,33.7641188 63.5470257,33.0273267 C64.5193822,32.647604 65.2382733,33.1781386 65.1246891,34.1805941 C65.0776396,34.5965941 64.8346297,34.8445149 64.483897,35.0125941 C63.3208079,35.5695842 62.0992634,35.6774653 60.8634614,35.3630099 C59.4785901,35.0103762 58.7616,34.0473663 58.5922535,32.6547327 C58.3977188,31.0552079 58.5486891,29.4485545 58.4970455,28.1306931" id="Fill-8" fill="#4C5974"></path>
                <path d="M51.2093782,28.1221069 C51.2093782,26.229196 51.1997149,24.3362851 51.2133386,22.4435327 C51.2204673,21.4531168 51.5279525,21.1269386 52.3707248,21.1319499 C53.2149228,21.1367604 53.5393584,21.4683248 53.5425267,22.448602 C53.5542495,26.2605624 53.5552,30.0726812 53.5399921,33.8846416 C53.5361901,34.8284832 53.2141307,35.1719287 52.4415366,35.2072554 C51.633299,35.2441663 51.2326653,34.8980277 51.2222099,34.037196 C51.1984475,32.0657109 51.2147644,30.0937505 51.2147644,28.1221069 L51.2093782,28.1221069 Z" id="Fill-10" fill="#4C5974"></path>
                <path d="M80.6742653,28.1031604 C80.6744238,26.1842693 80.6674535,24.2653782 80.6775921,22.3466455 C80.6821861,21.4558733 80.9692356,21.1493386 81.7519683,21.1323881 C82.5866614,21.1143287 82.9654337,21.4316356 82.9697109,22.3130614 C82.9890376,26.2032792 82.988404,30.0936554 82.9690772,33.9838733 C82.9646416,34.8738535 82.5853941,35.2142891 81.7852356,35.2072698 C80.9880871,35.2001901 80.6810772,34.8648238 80.6769584,33.9385663 C80.6677703,31.9935366 80.6741069,30.0483485 80.6742653,28.1031604" id="Fill-12" fill="#4C5974"></path>
                <g id="Group-16" transform="translate(80.000000, 15.189228)">
                    <mask id="mask-4" fill="white">
                        <use xlink:href="#path-3"></use>
                    </mask>
                    <g id="Clip-15"></g>
                    <path d="M3.51483564,1.86171881 C3.50374653,2.81506535 2.76901386,3.53696634 1.81265743,3.53443834 C0.833647525,3.53173861 0.0726178218,2.75423366 0.0982811881,1.78282772 C0.122518812,0.864332673 0.911746535,0.12579802 1.85479604,0.139263366 C2.79182574,0.152728713 3.52592475,0.914550495 3.51483564,1.86171881" id="Fill-14" fill="#4C5974" mask="url(#mask-4)"></path>
                </g>
                <path d="M54.0708436,17.0604673 C54.0572198,18.0155564 53.3283485,18.7268436 52.3666059,18.7235285 C51.3869624,18.7201901 50.6420911,17.9493386 50.6674376,16.965101 C50.6910416,16.0410614 51.4728238,15.311398 52.4217347,15.3275564 C53.3544871,15.343398 54.0843089,16.1104475 54.0708436,17.0604673" id="Fill-17" fill="#4C5974"></path>
                <path d="M22.5776475,9.12419802 C23.0628752,8.28475248 23.5873901,7.45592079 23.2209743,6.44015842 C23.0224792,7.34106931 22.5618059,8.17845545 22.5776475,9.12419802 M22.7821624,12.8905347 C22.8898851,12.4111683 22.7230733,11.8152079 22.3412911,11.609901 C21.9485782,11.3988911 21.6208158,11.9923168 21.280697,12.2562376 C21.1587168,12.3511287 21.0459248,12.4689901 20.9605386,12.5971485 C20.6240634,13.1021782 20.7436673,13.5972277 21.0544792,14.0548911 C21.2751525,14.3796436 21.6119446,14.5779802 22.0029149,14.4270099 C22.478796,14.2430891 22.7115089,13.8327921 22.7794693,13.3361584 C22.796895,13.2081584 22.7821624,13.0757228 22.7821624,12.8905347 M7.13432079,31.6721584 C7.11150891,32.8086337 7.31285545,32.9459802 8.11665743,32.5008317 C8.61772673,32.2232871 9.08251881,31.8809505 9.56853861,31.5753663 C9.87729109,31.3813069 9.89550891,31.1661782 9.5934099,30.9759208 C9.02010297,30.6148911 8.42921188,30.281901 7.84845941,29.9324356 C7.61669703,29.7928713 7.45986535,29.7977822 7.40774653,30.1073267 C7.30778614,30.6988515 7.20133069,31.2894257 7.13432079,31.6721584 M25.8782416,26.9440792 C25.1129347,27.3234851 24.2197861,27.4337426 23.375905,27.7074851 C23.2002218,27.7645149 23.1100832,27.967604 23.1170535,28.1635644 C23.1419248,28.8571089 22.9342416,29.5080396 22.7780436,30.1705347 C22.7200634,30.4160792 22.6494099,30.7150099 22.946598,30.8742178 C23.2171723,31.0190099 23.4476673,30.8845149 23.6597861,30.7013861 C24.7313109,29.776396 25.484895,28.6171089 26.1229941,27.3740198 C26.2275485,27.1704554 26.2833109,26.9569109 25.8782416,26.9440792 M16.3018455,12.8640792 C16.2365782,13.3927129 16.4830733,13.3863762 16.8542416,13.2140198 C17.422004,12.9504158 17.9807366,12.6570297 18.5698851,12.4518812 C20.1760634,11.8925149 20.815905,10.5093861 21.4814099,9.14130693 C21.5484198,9.00332673 21.592301,8.83350495 21.4741228,8.69663366 C21.3684594,8.57433663 21.2276277,8.61790099 21.1238653,8.70059406 C20.0447366,9.56079208 18.7094495,9.94621782 17.5319446,10.6285149 C16.6315089,11.1503366 16.4868752,12.0021386 16.3018455,12.8640792 M27.5376475,20.3991287 C27.5376475,19.9443168 27.5675881,19.5470099 27.5319446,19.1557228 C27.4210535,17.9359208 27.1894495,16.7512871 26.1846178,15.9048713 C25.6135287,15.4239208 25.2558257,15.5349703 25.0072713,16.2221782 C24.8295287,16.7134257 24.8702416,17.1945347 25.0231129,17.6900594 C25.6016475,19.5660198 26.4092515,21.3705347 26.7835881,23.3106535 C26.8162218,23.4792079 26.8436277,23.7271287 27.0717465,23.7236799 C27.3621228,23.7190495 27.3499248,23.446099 27.3526178,23.2468119 C27.3649743,22.2736634 27.6222416,21.3171485 27.5376475,20.3991287 M14.8618455,23.0915644 C17.0798257,23.1685545 18.8005386,24.1917624 20.2650931,25.7725941 C21.2292119,26.8133861 23.216697,27.0749307 24.4840238,26.4344554 C24.9323406,26.2079208 24.7957861,26.0778614 24.4944792,25.8663762 C23.7434297,25.3394851 23.0332515,24.7485941 22.2533703,24.2698614 C19.9639446,22.8642376 17.5378059,22.2015842 14.8618455,23.0915644 M3.98960792,37.752 C4.49352871,36.2967921 5.37875644,35.2368317 6.48307327,34.3604752 C6.84885545,34.0702574 6.79451881,33.9007525 6.49432079,33.6376238 C6.00212277,33.2064158 5.84782574,32.6410297 5.90184554,32.0029307 C5.94160792,31.5333861 6.00513267,31.0611485 5.98770693,30.5927129 C5.96980594,30.114297 6.10683564,29.3662574 5.6704,29.2458614 C5.11024158,29.0912475 4.79546931,29.7806733 4.50921188,30.2348515 C3.30398416,32.1485149 3.32774653,34.2655842 3.56093465,36.3980198 C3.60608317,36.8116436 3.54794455,37.2932277 3.98960792,37.752 M16.132499,15.0226535 C16.1174495,16.0887921 17.2269941,17.6967129 18.1600634,18.0119604 C18.3013703,18.059802 18.4881426,18.0902178 18.6175683,18.0384158 C19.6993901,17.6057822 20.7343208,17.1107327 21.3440634,16.0252673 C21.5108752,15.728396 21.5290931,15.5218218 21.1981624,15.4044356 C20.3309941,15.0967921 19.9132515,14.4453861 19.7573703,13.5885149 C19.6862416,13.1972277 19.4391129,13.1132673 19.1232317,13.2339802 C18.2913901,13.5519208 17.4231129,13.7841584 16.6614495,14.2725545 C16.3517465,14.4710495 16.1505584,14.718495 16.132499,15.0226535 M13.3207762,35.2092673 C17.5661624,35.4788911 21.4684198,32.1529505 21.9826376,28.4618614 C22.0544,27.9466931 21.9664792,27.6320792 21.4072713,27.5786931 C20.8588356,27.5262574 20.3910337,27.2895842 20.0114693,26.911604 C19.6716673,26.5733861 19.3496079,26.6199604 18.9372515,26.7682376 C17.5547564,27.2658218 16.1334495,27.6632871 14.7736079,28.2134653 C13.9425584,28.5497822 12.8677069,28.5464554 12.460895,29.6306535 C11.8484594,31.2634455 10.6619248,32.3680792 9.11150891,33.1091485 C8.66810297,33.3209505 8.54200396,33.5023366 9.00204356,33.8758812 C10.298202,34.9282376 11.7860436,35.2962376 13.3207762,35.2092673 M17.358004,21.721901 C18.6750733,21.6575842 19.9574495,22.0412673 21.2352317,22.5871683 C22.6826772,23.2057822 23.9308356,24.1100198 25.2057663,24.9925545 C25.4443406,25.1576238 25.7152317,25.5278416 26.0255683,25.3025743 C26.2931327,25.1083564 26.1752713,24.6947327 26.0995485,24.4083168 C25.7706772,23.1674455 25.3958653,21.9387723 25.0430733,20.7040792 C24.704697,19.5194455 24.1141228,18.415604 23.9264,17.1813861 C23.8695287,16.8073663 24.1518257,16.2633663 23.7752713,16.0938614 C23.3450139,15.9001188 23.0039446,16.427802 22.618202,16.6280396 C22.4819644,16.6988515 22.3816871,16.8360396 22.2568554,16.9323564 C21.2594693,17.7009901 20.3476277,18.585901 19.2057663,19.1584158 C18.5855683,19.4693861 17.9878653,19.4776238 17.4346772,19.0261386 C17.0890139,18.7441584 16.7609347,18.4396832 16.4357069,18.1339406 C16.2392713,17.9493861 16.0539248,17.7619802 15.7507168,17.8293069 C14.2668356,18.1581782 12.7322614,18.306297 11.3608554,19.0383366 C10.3610931,19.572198 9.64394455,20.3129505 9.47475644,21.497901 C9.2293703,23.214495 9.67451881,24.7587327 10.5377267,26.2264554 C11.0348356,27.071604 11.7101624,27.4207525 12.7016871,27.2845149 C14.6357861,27.0190099 16.4856079,26.4197228 18.3628356,25.9302178 C18.8304792,25.8082376 18.7902416,25.5173861 18.4173307,25.2786535 C17.7071525,24.824 16.978598,24.4018218 16.1405782,24.2207525 C14.5762218,23.8830099 13.0530535,24.125703 11.5382812,24.5380594 C11.3130139,24.5993663 11.0090139,24.8274851 10.8372911,24.4805545 C10.6597069,24.1212673 11.0007762,23.9592079 11.2163802,23.7984158 C13.0121822,22.459802 14.9817663,21.6111683 17.358004,21.721901 M3.90834059,41.472396 C2.45455842,38.5131881 2.16988515,35.4703366 2.46184554,32.3424158 C2.5893703,30.9773465 3.07618218,29.7404356 4.01717228,28.7178614 C5.00109307,27.6487129 5.72616238,27.5150099 7.0473505,28.1022574 C8.06311287,28.553901 8.9374099,29.2422178 9.89788515,29.7844752 C10.2970931,30.009901 10.7452515,30.4602772 11.1452515,29.7363168 C11.4657267,29.1558812 11.6228752,28.6942574 10.9131723,28.2107723 C8.59364752,26.6304158 7.50960792,22.0472871 8.89099406,19.8071287 C9.81281584,18.3118416 11.2417267,17.6110099 12.8498059,17.1802772 C13.4560634,17.0177426 14.0635881,16.8453861 14.7040634,16.8111683 C15.2529743,16.7818614 15.4901228,16.4773861 15.3336079,15.9021782 C14.9770139,14.5912871 15.2157465,13.2967129 15.4766574,12.0048317 C15.8156673,10.3262574 17.0147168,9.49441584 18.5144396,9.0120396 C19.4888554,8.69869307 20.3194297,8.1610297 21.0928158,7.53607921 C22.1993505,6.64213861 22.2845782,5.31556436 22.4509149,4.03920792 C22.4745188,3.85782178 22.4371327,3.66835644 22.463905,3.48792079 C22.5112713,3.17029703 22.2685782,2.68 22.6685782,2.57481188 C23.1107168,2.45869307 23.2374495,2.9849505 23.3538851,3.29433663 C23.7405782,4.32150495 24.1944396,5.32443564 24.3826376,6.42479208 C24.5980832,7.6840396 24.2524198,8.77314851 23.4715881,9.71920792 C23.0530535,10.2261386 22.8864,10.625505 23.2669149,11.2480792 C23.7302812,12.006099 23.8066376,12.8868911 23.7079446,13.7662574 C23.6589941,14.2033267 23.7941228,14.3813861 24.2595485,14.3769505 C26.927905,14.3522376 28.5527762,16.1634059 28.6608158,18.8895842 C28.7875485,22.080396 28.4268356,25.174099 27.0397465,28.0800792 C26.2709545,29.6902178 25.2195485,31.0853861 23.5644198,31.9286337 C23.2580436,32.0846733 23.0023604,32.2115644 22.6970931,31.9812277 C22.2779248,31.6651881 22.0428356,31.8183762 21.7480238,32.2213861 C19.2444198,35.6453861 15.8354693,36.9762376 11.6775287,36.3630099 C10.5898455,36.2025347 9.55269703,35.7184158 8.70121188,34.9871683 C8.28964752,34.6337426 8.01384554,34.6952079 7.61083564,34.9588119 C5.67372673,36.2253465 4.93075644,38.1914455 4.41083564,40.2950495 C4.31816238,40.6700198 4.30834059,41.0744554 3.90834059,41.472396" id="Fill-19" fill="#FBFCFC"></path>
                <path d="M17.3580356,21.721901 C14.981798,21.6111683 13.0122139,22.459802 11.2162535,23.7984158 C11.0008079,23.9592079 10.6595802,24.1212673 10.8373228,24.4805545 C11.0088871,24.8274851 11.3130455,24.5993663 11.5383129,24.5380594 C13.0530851,24.125703 14.5762535,23.8830099 16.1406099,24.2207525 C16.9786297,24.4018218 17.7071842,24.824 18.4173624,25.2786535 C18.7902733,25.5173861 18.8305109,25.8082376 18.3627089,25.9302178 C16.4856396,26.4197228 14.6356594,27.0190099 12.7017188,27.2845149 C11.7101941,27.4207525 11.0347089,27.071604 10.5377584,26.2264554 C9.6745505,24.7587327 9.22924356,23.214495 9.4746297,21.497901 C9.64397624,20.3129505 10.3611248,19.572198 11.3608871,19.038495 C12.7321347,18.306297 14.2668673,18.1581782 15.7507485,17.8293069 C16.0539564,17.7619802 16.239303,17.9493861 16.4355802,18.1339406 C16.7608079,18.4396832 17.0890455,18.7441584 17.4347089,19.0261386 C17.987897,19.4776238 18.5856,19.4693861 19.205798,19.1584158 C20.3476594,18.585901 21.2593426,17.7009901 22.2567287,16.9323564 C22.3817188,16.8360396 22.4818376,16.6988515 22.6182337,16.6280396 C23.0039762,16.427802 23.3448871,15.9001188 23.7751446,16.0938614 C24.1518574,16.2633663 23.8695604,16.8073663 23.9264317,17.1813861 C24.113996,18.415604 24.7045703,19.5194455 25.043105,20.7040792 C25.395897,21.9387723 25.7707089,23.1674455 26.0995802,24.4083168 C26.175303,24.6947327 26.2931644,25.1083564 26.0254416,25.3027327 C25.715105,25.5278416 25.4442139,25.1576238 25.205798,24.9925545 C23.9308673,24.1100198 22.6825505,23.2057822 21.2352634,22.5871683 C19.9574812,22.0412673 18.675105,21.6575842 17.3580356,21.721901" id="Fill-21" fill="#33A2DB"></path>
                <path d="M13.3208396,35.209204 C11.7861069,35.2963327 10.2982653,34.9283327 9.00194851,33.8758178 C8.54190891,33.5024317 8.66816634,33.3208871 9.11141386,33.1090851 C10.6618297,32.3680158 11.8485228,31.2633822 12.4609584,29.6307485 C12.8677703,28.5463921 13.9426218,28.5497188 14.7736713,28.213402 C16.1335129,27.6632238 17.5548198,27.2657584 18.9373149,26.7683327 C19.3496713,26.619897 19.6715723,26.5733228 20.0113743,26.911699 C20.391097,27.2895208 20.8587406,27.5261941 21.4073347,27.5786297 C21.9665426,27.6320158 22.054305,27.9467881 21.9825426,28.461798 C21.4683248,32.1530455 17.5660673,35.4788277 13.3208396,35.209204" id="Fill-23" fill="#33A2DB"></path>
                <path d="M16.1324832,15.0227168 C16.1505426,14.7185584 16.3517307,14.4711129 16.6614337,14.2726178 C17.423097,13.7840634 18.2913743,13.5518257 19.1232158,13.2340436 C19.439097,13.1133307 19.6862257,13.1972911 19.7573545,13.5884198 C19.9132356,14.4452911 20.3309782,15.0968554 21.1981465,15.404499 C21.5290772,15.5218851 21.5108594,15.7284594 21.3440475,16.0251723 C20.734305,17.110796 19.6993743,17.6056871 18.6175525,18.0384792 C18.4881267,18.0902812 18.3013545,18.0597069 18.1600475,18.0120238 C17.2269782,17.6966178 16.1174337,16.0888554 16.1324832,15.0227168" id="Fill-25" fill="#33A2DB"></path>
                <path d="M3.98962376,37.7520634 C3.5479604,37.2932911 3.60609901,36.8115485 3.56079208,36.3979248 C3.32776238,34.2654891 3.304,32.1485782 4.50922772,30.2349149 C4.79532673,29.7807366 5.11025743,29.0911525 5.67041584,29.2457663 C6.10685149,29.3663208 5.96982178,30.114202 5.98772277,30.5926178 C6.00514851,31.0610535 5.94162376,31.5332911 5.90186139,32.0028356 C5.84768317,32.6410931 6.00213861,33.2063208 6.49433663,33.6375287 C6.79453465,33.9006574 6.84887129,34.0703208 6.48308911,34.3605386 C5.37877228,35.236895 4.49354455,36.296697 3.98962376,37.7520634" id="Fill-27" fill="#33A2DB"></path>
                <path d="M14.8619089,23.0915644 C17.5378693,22.2015842 19.9640079,22.8642376 22.2534337,24.2698614 C23.0333149,24.7485941 23.7433347,25.3394851 24.4943842,25.8663762 C24.7958495,26.0778614 24.9322455,26.2079208 24.4839287,26.4344554 C23.2167604,27.0750891 21.2292752,26.8133861 20.264998,25.7725941 C18.8004436,24.1917624 17.0797307,23.1685545 14.8619089,23.0915644" id="Fill-29" fill="#33A2DB"></path>
                <path d="M27.5375683,20.3991129 C27.6221624,21.3171327 27.3650535,22.2736475 27.3525386,23.246796 C27.350004,23.4460832 27.362202,23.7191921 27.0716673,23.7236641 C26.8437069,23.7271129 26.8161426,23.4791921 26.7836673,23.3106376 C26.4091723,21.3705188 25.6017267,19.566004 25.0230337,17.6900436 C24.8703208,17.1945188 24.8296079,16.7134099 25.0071921,16.2221624 C25.2557465,15.5349545 25.6134495,15.423905 26.1845386,15.9048554 C27.1895287,16.7512713 27.4211327,17.935905 27.5320238,19.1557069 C27.5675089,19.5469941 27.5375683,19.944301 27.5375683,20.3991129" id="Fill-31" fill="#33A2DB"></path>
                <path d="M16.3018139,12.8640634 C16.4868436,12.0021228 16.6314772,11.1503208 17.5320713,10.628499 C18.7094178,9.9463604 20.044705,9.56077624 21.1238337,8.70057822 C21.227596,8.61788515 21.3684277,8.57432079 21.4740911,8.69661782 C21.5922693,8.83348911 21.5483881,9.00331089 21.4813782,9.14129109 C20.8158733,10.5093703 20.1760317,11.892499 18.5698535,12.4518653 C17.9808634,12.6570139 17.4219723,12.9504 16.8542099,13.214004 C16.4832,13.3863604 16.2365465,13.392697 16.3018139,12.8640634" id="Fill-33" fill="#33A2DB"></path>
                <path d="M25.8782257,26.9441267 C26.283295,26.9569584 26.2275327,27.170503 26.1229782,27.3740673 C25.4848792,28.6171564 24.731295,29.7762851 23.6597703,30.7014337 C23.4476515,30.8845624 23.2171564,31.0190574 22.9465822,30.8742653 C22.6493941,30.7150574 22.7200475,30.4161267 22.7780277,30.1705822 C22.9343842,29.5080871 23.1419089,28.8571564 23.1170376,28.1634535 C23.1100673,27.9674931 23.2002059,27.764404 23.3758891,27.7075327 C24.2197703,27.4337901 25.1129188,27.3235327 25.8782257,26.9441267" id="Fill-35" fill="#33A2DB"></path>
                <path d="M7.13425743,31.6721584 C7.20142574,31.2894257 7.30788119,30.6988515 7.40768317,30.1073267 C7.45980198,29.7977822 7.61663366,29.7928713 7.84839604,29.9324356 C8.42914851,30.281901 9.0200396,30.6148911 9.59334653,30.9759208 C9.89560396,31.1661782 9.87722772,31.3813069 9.56847525,31.5753663 C9.08261386,31.8809505 8.61782178,32.2232871 8.11659406,32.5008317 C7.31279208,32.9461386 7.11144554,32.8086337 7.13425743,31.6721584" id="Fill-37" fill="#33A2DB"></path>
                <path d="M22.7820832,12.8905188 C22.7820832,13.0757069 22.7969743,13.2081426 22.7793901,13.3361426 C22.7114297,13.8327762 22.4787168,14.2430733 22.0028356,14.4269941 C21.6118653,14.5779644 21.2750733,14.3796277 21.0545584,14.0548752 C20.7437465,13.5972119 20.6241426,13.1021624 20.9604594,12.5971327 C21.046004,12.4689743 21.1586376,12.3511129 21.2807762,12.2563802 C21.6207366,11.992301 21.9486574,11.3988752 22.3412119,11.6098851 C22.7231525,11.8151921 22.8899644,12.4111525 22.7820832,12.8905188" id="Fill-39" fill="#33A2DB"></path>
                <path d="M22.5776475,9.12419802 C22.5618059,8.17845545 23.0224792,7.34106931 23.2209743,6.44015842 C23.5873901,7.45592079 23.0628752,8.28475248 22.5776475,9.12419802" id="Fill-41" fill="#33A2DB"></path>
            </g>
        </g>
    </g>
</svg>