<svg xmlns="http://www.w3.org/2000/svg" width="" height="" viewBox="0 0 453.743 510.203">
  <g id="Group_31" data-name="Group 31" transform="translate(-510.896 -331.421)">
    <path id="Path_13" data-name="Path 13" d="M879.308,730.633l85.331-86.99H908.863c-.37-3.554-.6-6.188-.925-8.811-1.279-10.4-1.9-20.927-3.986-31.162C877.021,471.214,734.176,408.063,620.323,465.6c-65.407,33.052-101.186,87.889-108.465,161.033-3.714,37.329,3.4,72.8,20.159,106,40.551,80.333,128.918,122.689,217.628,105.015A184.346,184.346,0,0,0,805.923,816.5c9.9-5.7,14.64-16.885,12.775-28.278-1.881-11.49-9.5-20.6-19.8-22.577-8.251-1.585-16.664-1.7-24.38,2.489-21.813,11.827-45.043,15.955-69.795,15.345a134.667,134.667,0,0,1-52.2-11.394c-58.985-26.127-93.356-89.566-82.481-152.663C583.316,542.4,656.922,490.523,733.808,504c56.211,9.857,102.821,54.654,113.646,109.869,1.857,9.47,1.664,19.341,2.491,29.971H793.51Z" fill="#fff"/>
    <path id="Path_14" data-name="Path 14" d="M684.042,394.9c4.563-.209,6.581,1.238,6.242,6.261-.455,6.738-.112,13.53-.112,20.279h38.565c0-7.033.342-13.7-.112-20.315-.345-5.028,1.681-6.454,6.247-6.23,4.426.217,8.871.047,13.424.047V331.421H670.435v63.521C675.133,394.942,679.6,395.1,684.042,394.9Z" fill="#fff"/>
    <path id="Path_15" data-name="Path 15" d="M780.335,577.5c2.546-4.04,4.83-8.247,7.235-12.377l-.925-.721c-16.842,10.734-33.93,21.108-50.429,32.348-8.868,6.042-17.686,9.247-28.652,8.631-23.444-1.316-40.794,22.067-35.9,45.759a38.2,38.2,0,0,0,45.086,29.7,38.694,38.694,0,0,0,30.666-44.618,13.222,13.222,0,0,1,2.092-10.255C759.911,609.888,770.126,593.694,780.335,577.5Z" fill="#fff"/>
    <path id="Path_16" data-name="Path 16" d="M565.279,473.317,540.2,448.3l-26.38,24.935q13.6,12.684,26.6,24.816Z" fill="#fff"/>
    <path id="Path_17" data-name="Path 17" d="M904.064,473,878.58,447.775l-25.226,25.2,25.521,25.254Z" fill="#fff"/>
  </g>
</svg>
