<?xml version="1.0" encoding="UTF-8"?>
<svg width="64px" height="62px" viewBox="0 0 64 62" version="1.1" xmlns="http://www.w3.org/2000/svg" xmlns:xlink="http://www.w3.org/1999/xlink">
    <!-- Generator: Sketch 52.6 (67491) - http://www.bohemiancoding.com/sketch -->
    <title>Group 6</title>
    <desc>Created with Sketch.</desc>
    <g id="Page-1" stroke="none" stroke-width="1" fill="none" fill-rule="evenodd">
        <g id="Home-page" transform="translate(-1196.000000, -2351.000000)" stroke="#FFFFFF" stroke-width="2">
            <g id="Group-6" transform="translate(1196.000000, 2352.000000)">
                <path d="M6.49275362,12.057971 C18.8599034,14.8405797 27.5169082,18.8599034 32.4637681,24.115942 C40.3478261,16.2318841 50.5507246,12.057971 57.0434783,12.057971 C57.0434783,18.2415459 57.0434783,30.2995169 57.0434783,48.2318841 C45.6038647,50.705314 37.410628,54.4154589 32.4637681,59.3623188 C25.0434783,53.178744 16.3864734,49.468599 6.49275362,48.2318841 L6.49275362,12.057971 Z" id="Path-6"></path>
                <circle id="Oval" cx="31.5362319" cy="6.49275362" r="6.49275362"></circle>
                <path d="M23.1884058,17.6231884 C26.589372,16.3864734 29.52657,15.7681159 32,15.7681159 C34.47343,15.7681159 37.410628,16.3864734 40.8115942,17.6231884 C35.8647343,20.7149758 33.0821256,22.7246377 32.4637681,23.6521739 C31.2270531,22.1062802 28.1352657,20.0966184 23.1884058,17.6231884 Z" id="Path-7"></path>
                <rect id="Rectangle" x="57.5797101" y="27.8985507" width="5.42028986" height="9.13043478" rx="2.71014493"></rect>
                <rect id="Rectangle-Copy-8" x="1" y="27.8985507" width="5.42028986" height="9.13043478" rx="2.71014493"></rect>
            </g>
        </g>
    </g>
</svg>