<?xml version="1.0" encoding="UTF-8"?>
<svg width="70px" height="70px" viewBox="0 0 70 70" version="1.1" xmlns="http://www.w3.org/2000/svg" xmlns:xlink="http://www.w3.org/1999/xlink">
    <!-- Generator: Sketch 64 (93537) - https://sketch.com -->
    <title>Marketing</title>
    <desc>Created with Sketch.</desc>
    <g id="Page-1" stroke="none" stroke-width="1" fill="none" fill-rule="evenodd">
        <g id="Thor" transform="translate(-130.000000, -4539.000000)">
            <g id="use-cases-section" transform="translate(0.000000, 4241.000000)">
                <g id="Marketing" transform="translate(130.000000, 298.000000)">
                    <g id="Group-6-Copy-4" fill="#120033">
                        <rect id="Rectangle-Copy-3" x="0" y="0" width="70" height="70" rx="8"></rect>
                    </g>
                    <g id="speaker" transform="translate(23.000000, 21.000000)" fill="#FFFFFF" fill-rule="nonzero">
                        <g id="Group_648" transform="translate(0.008278, 1.039062)">
                            <g id="Group_647">
                                <path d="M23.0119757,10.0031094 L13.6487859,0.724773437 C12.7440928,-0.171035701 11.3007126,-0.239319698 10.3140145,0.56701077 C9.32731633,1.37334124 9.12012432,2.79047418 9.83532009,3.84114062 L9.82229581,3.90572656 C9.1525925,7.24083379 7.49840318,10.3037096 5.06953642,12.705875 L0.774668874,16.9616016 C0.308702394,17.4228001 0.0468788569,18.0486468 0.0468788569,18.7012656 C0.0468788569,19.3538844 0.308702394,19.9797311 0.774668874,20.4409297 L3.11539735,22.7604453 C3.58082812,23.2221621 4.21239305,23.4815943 4.8709713,23.4815943 C5.52954955,23.4815943 6.16111449,23.2221621 6.62654525,22.7604453 L7.21153422,22.1807578 L11.307947,26.2397734 C12.2782603,27.1961864 13.8466316,27.1941173 14.8143715,26.2351475 C15.7821114,25.2761777 15.7841995,23.7220198 14.8190397,22.7605 L13.0634658,21.0208359 L13.6484547,20.4411484 C14.1144043,19.9799521 14.3762171,19.3541171 14.3762171,18.7015117 C14.3762171,18.0489063 14.1144043,17.4230713 13.6484547,16.961875 L13.2507726,16.5677422 C15.2169993,15.2038931 17.4477281,14.2597229 19.8015453,13.7950859 L19.8677704,13.7820156 C20.8533528,14.439534 22.1706988,14.3139863 23.011755,13.4823828 L23.011755,13.4823828 C23.9797604,12.5210051 23.9798592,10.9646077 23.0119757,10.0031094 Z M5.45618102,21.6006875 C5.30101916,21.754573 5.09049591,21.8410358 4.8709713,21.8410358 C4.65144669,21.8410358 4.44092345,21.754573 4.28576159,21.6006875 L1.94503311,19.2811172 C1.78971658,19.1273851 1.70244565,18.9187734 1.70244565,18.7012383 C1.70244565,18.4837032 1.78971658,18.2750915 1.94503311,18.1213594 L6.04133554,14.062125 L9.55248344,17.5414531 L5.45618102,21.6006875 Z M13.6487859,23.9203125 C13.8663645,24.1257349 13.9545061,24.4318718 13.8790676,24.7201363 C13.8036291,25.0084008 13.5764609,25.2335103 13.2855601,25.3082651 C12.9946594,25.3830199 12.6857227,25.2956771 12.4784216,25.0800703 L8.38206402,21.0208359 L9.55248344,19.8610781 L13.6487859,23.9203125 Z M10.7229581,18.7012109 C10.9717439,18.4546797 11.3441501,18.0770625 11.9318985,17.579625 L12.4782561,18.1213594 C12.6335726,18.2750915 12.7208435,18.4837032 12.7208435,18.7012383 C12.7208435,18.9187734 12.6335726,19.1273851 12.4782561,19.2811172 L11.8932671,19.8608047 L10.7229581,18.7012109 Z M10.7581126,16.4165859 L7.17643488,12.8673672 C9.09436031,10.6748309 10.4735122,8.07173166 11.2056843,5.26230469 L18.4326711,12.4238516 C15.5975182,13.149347 12.9705855,14.5160046 10.7580022,16.4165859 L10.7581126,16.4165859 Z M21.8415563,12.3225156 C21.6864039,12.4763978 21.4758897,12.5628593 21.2563742,12.5628593 C21.0368586,12.5628593 20.8263445,12.4763978 20.6711921,12.3225156 L11.307947,3.04428906 C10.9968585,2.72202167 11.0025773,2.21251278 11.3208223,1.89718164 C11.6390672,1.58185051 12.1532363,1.5762316 12.4784216,1.88453125 L21.8414459,11.1627031 C22.1640802,11.4832095 22.1640802,12.0020093 21.8414459,12.3225156 L21.8415563,12.3225156 Z" id="Path_1073"></path>
                            </g>
                        </g>
                        <g id="Group_650" transform="translate(4.036976, 17.718750)">
                            <g id="Group_649">
                                <path d="M2.59779249,0.281859375 C2.27454999,-0.0382664823 1.75067076,-0.0382664823 1.42742826,0.281859375 L0.257064018,1.44161719 C-0.0529257198,1.76402699 -0.0467189892,2.27263055 0.271047986,2.58751776 C0.588814962,2.90240497 1.10206989,2.90855546 1.42742826,2.601375 L2.59779249,1.44161719 C2.92084602,1.12130407 2.92084602,0.60217249 2.59779249,0.281859375 L2.59779249,0.281859375 Z" id="Path_1074"></path>
                            </g>
                        </g>
                        <g id="Group_652" transform="translate(16.619757, 0.000000)">
                            <g id="Group_651">
                                <path d="M0.838300221,0 C0.381110858,0 0.0104856512,0.367266416 0.0104856512,0.8203125 L0.0104856512,2.46028125 C0.0208712835,2.90582768 0.388338415,3.26165071 0.83807947,3.26165071 C1.28782053,3.26165071 1.65528766,2.90582768 1.66567329,2.46028125 L1.66567329,0.8203125 C1.66567329,0.367437216 1.29531716,0.000241533485 0.838300221,0 Z" id="Path_1075"></path>
                            </g>
                        </g>
                        <g id="Group_654" transform="translate(21.586645, 6.507812)">
                            <g id="Group_653">
                                <path d="M2.49210817,0.052828125 L0.83692053,0.052828125 C0.387299405,0.0631196375 0.0282222443,0.427256598 0.0282222443,0.872921875 C0.0282222443,1.31858715 0.387299405,1.68272411 0.83692053,1.69301562 L2.49210817,1.69301562 C2.79233593,1.69988763 3.0727738,1.54509903 3.22492536,1.28853479 C3.37707691,1.03197055 3.37707691,0.713873204 3.22492536,0.457308961 C3.0727738,0.200744718 2.79233593,0.0459561217 2.49210817,0.052828125 L2.49210817,0.052828125 Z" id="Path_1076"></path>
                            </g>
                        </g>
                        <g id="Group_656" transform="translate(19.875828, 1.585938)">
                            <g id="Group_655">
                                <path d="M3.13294702,0.294382813 C2.80970452,-0.0257430448 2.28582528,-0.0257430448 1.96258278,0.294382813 L0.307395143,1.93457031 C0.0898165007,2.13999275 0.00167492297,2.44612965 0.0771134307,2.73439411 C0.152551939,3.02265857 0.379720146,3.24776806 0.670620891,3.32252291 C0.961521636,3.39727776 1.27045828,3.30993496 1.47775938,3.09432812 L3.13294702,1.45414062 C3.45600055,1.13382751 3.45600055,0.614695928 3.13294702,0.294382813 Z" id="Path_1077"></path>
                            </g>
                        </g>
                    </g>
                </g>
            </g>
        </g>
    </g>
</svg>