<?xml version="1.0" encoding="utf-8"?>
<!-- Generator: Adobe Illustrator 23.0.1, SVG Export Plug-In . SVG Version: 6.00 Build 0)  -->
<svg version="1.1" id="Layer_1" xmlns="http://www.w3.org/2000/svg" xmlns:xlink="http://www.w3.org/1999/xlink" x="0px" y="0px"
	 viewBox="0 0 74.5 55.29" style="enable-background:new 0 0 74.5 55.29;" xml:space="preserve">
<style type="text/css">
	.st0{fill:#FFFFFF;}
	.st1{fill:#373737;}
	.st2{fill:#4A4A4A;}
</style>
<g>
	<g>
		<path class="st0" d="M16.55,0l0.73,1.76v28.47h-4.61V0H16.55z M18.13,3.82l5.36,11.7v10.8l-5.36-12.18V3.82z M24.34,28.46V0h4.46
			v30.24h-3.75L24.34,28.46z"/>
		<path class="st0" d="M30.83,0.02h5.63l11.97,30.22h-5.66L30.83,0.02z M38.72,22.27l-2.83,7.97h-5.04l5.22-14.65L38.72,22.27z
			 M40.33,7.5l2.38-7.48h5.14l-4.8,14.28L40.33,7.5z"/>
		<path class="st0" d="M49.13,0.02h14.82v4.04H49.13V0.02z M59.25,4.9v25.34h-5.38V4.9H59.25z"/>
	</g>
	<g>
		<path class="st1" d="M16.72,36.49h-1.71v4.41h-0.63v-4.41h-1.71v-0.56h4.06V36.49z"/>
		<path class="st1" d="M20.96,35.93h0.53l2.03,4.97h-0.67l-0.59-1.46h-2.09l-0.58,1.46h-0.67L20.96,35.93z M22.12,38.96l-0.9-2.3
			l-0.92,2.3H22.12z"/>
		<path class="st1" d="M26.66,40.9v-4.97h2.13c0.22,0,0.42,0.05,0.61,0.14c0.18,0.09,0.34,0.21,0.48,0.36
			c0.13,0.15,0.24,0.32,0.31,0.51s0.11,0.38,0.11,0.58c0,0.17-0.02,0.34-0.07,0.5c-0.05,0.16-0.12,0.31-0.21,0.44
			c-0.09,0.13-0.2,0.24-0.33,0.34c-0.13,0.09-0.27,0.16-0.43,0.2l1.2,1.9h-0.71l-1.13-1.79h-1.32v1.79H26.66z M27.29,38.56h1.5
			c0.13,0,0.25-0.03,0.35-0.08c0.1-0.06,0.19-0.13,0.27-0.23c0.07-0.1,0.13-0.21,0.17-0.33c0.04-0.13,0.06-0.26,0.06-0.39
			c0-0.14-0.02-0.27-0.07-0.4s-0.11-0.23-0.2-0.33c-0.08-0.1-0.18-0.17-0.29-0.22c-0.11-0.05-0.23-0.08-0.35-0.08h-1.46V38.56z"/>
		<path class="st1" d="M37.11,40.34v0.56h-3.37v-4.97h3.31v0.56h-2.68v1.61h2.33v0.52h-2.33v1.71H37.11z"/>
		<path class="st1" d="M41.08,37.11v3.79h-0.63v-4.97h0.49l3.08,3.87v-3.86h0.63v4.96h-0.53L41.08,37.11z"/>
		<path class="st1" d="M51.9,36.49h-1.71v4.41h-0.63v-4.41h-1.71v-0.56h4.06V36.49z"/>
		<path class="st1" d="M56.96,40.94c-0.35,0-0.67-0.07-0.96-0.21c-0.29-0.14-0.53-0.33-0.74-0.57c-0.21-0.24-0.36-0.5-0.48-0.81
			c-0.11-0.3-0.17-0.61-0.17-0.93c0-0.33,0.06-0.65,0.18-0.95c0.12-0.3,0.28-0.57,0.49-0.81c0.21-0.23,0.46-0.42,0.75-0.56
			s0.6-0.21,0.93-0.21c0.35,0,0.67,0.07,0.95,0.22c0.29,0.15,0.53,0.34,0.74,0.58c0.21,0.24,0.36,0.51,0.48,0.81
			c0.11,0.3,0.17,0.61,0.17,0.92c0,0.33-0.06,0.65-0.18,0.95c-0.12,0.3-0.28,0.57-0.49,0.8c-0.21,0.23-0.46,0.42-0.74,0.55
			S57.3,40.94,56.96,40.94z M55.26,38.42c0,0.25,0.04,0.5,0.12,0.73c0.08,0.24,0.2,0.44,0.35,0.63s0.33,0.33,0.54,0.43
			s0.44,0.16,0.7,0.16c0.27,0,0.5-0.06,0.71-0.17c0.21-0.11,0.39-0.26,0.54-0.45c0.15-0.18,0.26-0.39,0.34-0.63
			c0.08-0.23,0.12-0.47,0.12-0.71c0-0.25-0.04-0.5-0.12-0.73c-0.08-0.24-0.2-0.44-0.35-0.62s-0.33-0.32-0.54-0.43
			s-0.44-0.16-0.69-0.16c-0.27,0-0.5,0.06-0.71,0.17c-0.21,0.11-0.39,0.26-0.54,0.44c-0.15,0.18-0.26,0.39-0.34,0.62
			C55.3,37.94,55.26,38.17,55.26,38.42z"/>
	</g>
	<g>
		<path class="st2" d="M2.9,51.02H1.67v3.15H1.23v-3.15H0v-0.4h2.9V51.02z"/>
		<path class="st2" d="M3.94,54.22c-0.2,0-0.38-0.04-0.54-0.11c-0.16-0.07-0.3-0.17-0.42-0.29c-0.12-0.12-0.21-0.27-0.27-0.43
			c-0.07-0.16-0.1-0.34-0.1-0.52c0-0.18,0.03-0.36,0.1-0.52c0.06-0.16,0.16-0.31,0.28-0.43c0.12-0.12,0.26-0.22,0.42-0.29
			s0.34-0.11,0.54-0.11s0.38,0.04,0.54,0.11c0.16,0.07,0.3,0.17,0.41,0.29s0.2,0.26,0.26,0.42s0.09,0.33,0.09,0.5
			c0,0.04,0,0.07,0,0.1c0,0.03,0,0.05-0.01,0.07H3.08c0.01,0.13,0.04,0.25,0.09,0.35c0.05,0.11,0.12,0.2,0.2,0.27
			s0.17,0.14,0.27,0.18c0.1,0.04,0.21,0.07,0.32,0.07c0.08,0,0.16-0.01,0.24-0.03c0.08-0.02,0.15-0.05,0.21-0.09
			s0.13-0.08,0.18-0.14c0.05-0.05,0.09-0.11,0.12-0.18l0.38,0.1c-0.04,0.1-0.1,0.19-0.18,0.26c-0.08,0.08-0.16,0.15-0.26,0.21
			c-0.1,0.06-0.21,0.1-0.33,0.14S4.07,54.22,3.94,54.22z M4.83,52.69c-0.01-0.12-0.04-0.24-0.09-0.34c-0.05-0.11-0.12-0.19-0.2-0.27
			s-0.17-0.13-0.27-0.17c-0.1-0.04-0.21-0.06-0.33-0.06c-0.12,0-0.23,0.02-0.33,0.06c-0.1,0.04-0.19,0.1-0.27,0.18
			c-0.08,0.07-0.14,0.16-0.19,0.27c-0.05,0.1-0.08,0.22-0.09,0.34H4.83z"/>
		<path class="st2" d="M5.57,52.86c0-0.18,0.03-0.36,0.09-0.52c0.06-0.16,0.15-0.31,0.27-0.43c0.12-0.12,0.26-0.22,0.42-0.29
			c0.16-0.07,0.34-0.11,0.54-0.11c0.26,0,0.48,0.06,0.67,0.17c0.19,0.11,0.33,0.27,0.43,0.46l-0.43,0.14
			c-0.07-0.12-0.16-0.22-0.28-0.29s-0.25-0.1-0.4-0.1c-0.12,0-0.23,0.02-0.34,0.07c-0.11,0.05-0.2,0.12-0.27,0.2
			c-0.08,0.09-0.14,0.19-0.18,0.31s-0.07,0.24-0.07,0.38c0,0.14,0.02,0.27,0.07,0.39c0.05,0.12,0.11,0.22,0.19,0.31
			c0.08,0.09,0.17,0.16,0.27,0.21c0.11,0.05,0.22,0.07,0.34,0.07c0.08,0,0.15-0.01,0.23-0.03c0.08-0.02,0.14-0.05,0.21-0.09
			c0.06-0.04,0.12-0.08,0.16-0.13s0.08-0.1,0.1-0.16l0.43,0.13c-0.04,0.1-0.1,0.19-0.17,0.27c-0.07,0.08-0.16,0.15-0.25,0.21
			s-0.2,0.1-0.32,0.13c-0.12,0.03-0.24,0.05-0.37,0.05c-0.2,0-0.38-0.04-0.54-0.11s-0.3-0.17-0.42-0.29
			c-0.12-0.12-0.21-0.27-0.27-0.43C5.6,53.21,5.57,53.04,5.57,52.86z"/>
		<path class="st2" d="M10.78,54.17h-0.44v-1.46c0-0.27-0.05-0.47-0.14-0.6c-0.09-0.13-0.23-0.2-0.41-0.2
			c-0.09,0-0.17,0.02-0.26,0.05c-0.09,0.04-0.17,0.08-0.24,0.14c-0.07,0.06-0.14,0.13-0.2,0.21c-0.06,0.08-0.1,0.18-0.13,0.27v1.58
			H8.51v-3.65h0.44v1.6c0.1-0.19,0.24-0.34,0.42-0.45c0.18-0.11,0.37-0.16,0.58-0.16c0.15,0,0.28,0.03,0.39,0.08
			s0.19,0.13,0.25,0.23s0.11,0.21,0.14,0.35c0.03,0.14,0.04,0.28,0.04,0.43V54.17z"/>
		<path class="st2" d="M13.73,54.17h-0.44v-1.46c0-0.28-0.04-0.48-0.13-0.61c-0.09-0.13-0.21-0.19-0.39-0.19
			c-0.09,0-0.18,0.02-0.27,0.05s-0.17,0.08-0.25,0.14s-0.15,0.13-0.21,0.21c-0.06,0.08-0.1,0.18-0.13,0.27v1.58h-0.44v-2.61h0.4
			v0.56c0.1-0.18,0.25-0.33,0.45-0.44c0.2-0.11,0.41-0.16,0.64-0.16c0.15,0,0.28,0.03,0.38,0.08c0.1,0.05,0.18,0.13,0.24,0.23
			c0.06,0.1,0.1,0.21,0.13,0.35c0.03,0.13,0.04,0.28,0.04,0.44V54.17z"/>
		<path class="st2" d="M15.55,54.22c-0.2,0-0.38-0.04-0.54-0.11c-0.16-0.07-0.3-0.17-0.42-0.29s-0.2-0.27-0.27-0.43
			c-0.06-0.16-0.09-0.33-0.09-0.51c0-0.18,0.03-0.36,0.1-0.52c0.07-0.16,0.16-0.31,0.27-0.43c0.12-0.12,0.25-0.22,0.42-0.29
			c0.16-0.07,0.34-0.11,0.53-0.11s0.37,0.04,0.54,0.11s0.3,0.17,0.42,0.29c0.12,0.12,0.21,0.27,0.27,0.43
			c0.07,0.16,0.1,0.34,0.1,0.52c0,0.18-0.03,0.35-0.09,0.51c-0.06,0.16-0.15,0.31-0.27,0.43s-0.26,0.22-0.42,0.29
			C15.93,54.18,15.75,54.22,15.55,54.22z M14.68,52.87c0,0.14,0.02,0.26,0.07,0.38c0.05,0.12,0.11,0.22,0.19,0.31
			c0.08,0.09,0.17,0.15,0.28,0.21c0.1,0.05,0.22,0.07,0.34,0.07s0.23-0.02,0.34-0.07c0.1-0.05,0.2-0.12,0.28-0.21
			s0.14-0.19,0.19-0.31c0.04-0.12,0.07-0.25,0.07-0.38c0-0.13-0.02-0.26-0.07-0.38c-0.04-0.12-0.11-0.22-0.19-0.31
			c-0.08-0.09-0.17-0.16-0.28-0.21c-0.11-0.05-0.22-0.07-0.34-0.07s-0.23,0.03-0.34,0.08c-0.11,0.05-0.2,0.12-0.28,0.21
			s-0.14,0.19-0.19,0.31C14.71,52.61,14.68,52.73,14.68,52.87z"/>
		<path class="st2" d="M17.42,50.52h0.44v2.98c0,0.1,0.03,0.17,0.08,0.23c0.05,0.05,0.12,0.08,0.22,0.08c0.04,0,0.08-0.01,0.13-0.02
			s0.1-0.03,0.14-0.04l0.07,0.35c-0.07,0.03-0.16,0.05-0.26,0.07c-0.1,0.02-0.19,0.03-0.27,0.03c-0.17,0-0.3-0.05-0.4-0.15
			s-0.15-0.23-0.15-0.41V50.52z"/>
		<path class="st2" d="M19.98,54.22c-0.2,0-0.38-0.04-0.54-0.11c-0.16-0.07-0.3-0.17-0.42-0.29c-0.11-0.12-0.2-0.27-0.27-0.43
			c-0.06-0.16-0.09-0.33-0.09-0.51c0-0.18,0.03-0.36,0.1-0.52c0.06-0.16,0.16-0.31,0.27-0.43c0.12-0.12,0.25-0.22,0.42-0.29
			c0.16-0.07,0.34-0.11,0.53-0.11s0.37,0.04,0.53,0.11c0.16,0.07,0.3,0.17,0.42,0.29c0.12,0.12,0.21,0.27,0.27,0.43
			c0.07,0.16,0.1,0.34,0.1,0.52c0,0.18-0.03,0.35-0.09,0.51c-0.06,0.16-0.15,0.31-0.27,0.43c-0.12,0.12-0.26,0.22-0.42,0.29
			S20.17,54.22,19.98,54.22z M19.11,52.87c0,0.14,0.02,0.26,0.07,0.38s0.11,0.22,0.18,0.31c0.08,0.09,0.17,0.15,0.28,0.21
			c0.11,0.05,0.22,0.07,0.34,0.07s0.23-0.02,0.34-0.07c0.11-0.05,0.2-0.12,0.28-0.21s0.14-0.19,0.19-0.31
			c0.04-0.12,0.07-0.25,0.07-0.38c0-0.13-0.02-0.26-0.07-0.38c-0.04-0.12-0.11-0.22-0.19-0.31c-0.08-0.09-0.17-0.16-0.28-0.21
			c-0.1-0.05-0.22-0.07-0.34-0.07s-0.23,0.03-0.34,0.08c-0.1,0.05-0.2,0.12-0.28,0.21c-0.08,0.09-0.14,0.19-0.18,0.31
			C19.13,52.61,19.11,52.73,19.11,52.87z"/>
		<path class="st2" d="M22.87,54.2c-0.18,0-0.34-0.04-0.49-0.11s-0.28-0.17-0.38-0.29c-0.11-0.12-0.19-0.27-0.25-0.42
			c-0.06-0.16-0.09-0.33-0.09-0.5c0-0.18,0.03-0.36,0.09-0.52c0.06-0.17,0.14-0.31,0.25-0.43c0.11-0.12,0.23-0.22,0.38-0.29
			s0.31-0.11,0.49-0.11c0.22,0,0.41,0.05,0.57,0.16c0.16,0.11,0.29,0.24,0.41,0.41v-0.52h0.39v2.58c0,0.19-0.03,0.35-0.1,0.49
			s-0.17,0.26-0.29,0.36s-0.26,0.17-0.42,0.22c-0.16,0.05-0.33,0.08-0.52,0.08c-0.3,0-0.54-0.05-0.72-0.15
			c-0.19-0.1-0.34-0.24-0.46-0.42l0.25-0.23c0.1,0.15,0.24,0.27,0.4,0.35c0.16,0.08,0.34,0.11,0.53,0.11c0.12,0,0.23-0.02,0.34-0.05
			c0.11-0.03,0.2-0.08,0.28-0.15c0.08-0.07,0.14-0.15,0.19-0.25c0.05-0.1,0.07-0.22,0.07-0.35v-0.46c-0.05,0.08-0.11,0.15-0.18,0.22
			s-0.14,0.12-0.22,0.17s-0.17,0.08-0.25,0.1C23.06,54.18,22.96,54.2,22.87,54.2z M23.01,53.84c0.09,0,0.18-0.02,0.27-0.05
			s0.17-0.08,0.24-0.13c0.07-0.05,0.13-0.12,0.18-0.19c0.05-0.07,0.08-0.14,0.1-0.21V52.5c-0.04-0.09-0.08-0.17-0.14-0.25
			c-0.06-0.07-0.12-0.14-0.2-0.19s-0.15-0.1-0.24-0.13s-0.17-0.04-0.26-0.04c-0.13,0-0.25,0.03-0.36,0.08
			c-0.11,0.06-0.19,0.13-0.27,0.23s-0.13,0.2-0.17,0.32s-0.06,0.24-0.06,0.36c0,0.13,0.02,0.25,0.07,0.37s0.11,0.22,0.19,0.3
			c0.08,0.09,0.17,0.16,0.28,0.21C22.76,53.81,22.88,53.84,23.01,53.84z"/>
		<path class="st2" d="M25.07,54.88c0.04,0.01,0.09,0.01,0.13,0.02c0.04,0,0.08,0,0.1,0c0.04,0,0.08-0.01,0.11-0.03
			c0.03-0.02,0.06-0.05,0.09-0.11c0.03-0.05,0.07-0.13,0.11-0.22c0.04-0.1,0.09-0.22,0.15-0.37l-1.11-2.61h0.46L26,53.77l0.81-2.21
			h0.42l-1.27,3.29c-0.05,0.12-0.12,0.22-0.23,0.31c-0.11,0.09-0.26,0.13-0.45,0.13c-0.03,0-0.06,0-0.09,0
			c-0.03,0-0.07-0.01-0.12-0.02V54.88z"/>
		<path class="st2" d="M28.77,54.17v-0.56h0.37v0.56H28.77z"/>
		<path class="st2" d="M31.15,54.17v-3.55h1.23c0.28,0,0.53,0.05,0.75,0.14c0.21,0.09,0.39,0.22,0.54,0.38
			c0.14,0.16,0.25,0.35,0.32,0.56c0.07,0.21,0.11,0.44,0.11,0.69c0,0.27-0.04,0.51-0.12,0.73s-0.2,0.4-0.34,0.56
			c-0.15,0.15-0.33,0.27-0.54,0.36s-0.45,0.13-0.71,0.13H31.15z M33.64,52.39c0-0.2-0.03-0.38-0.08-0.55
			c-0.05-0.17-0.14-0.31-0.24-0.43c-0.11-0.12-0.24-0.21-0.4-0.28c-0.16-0.07-0.33-0.1-0.54-0.1H31.6v2.75h0.78
			c0.2,0,0.38-0.04,0.54-0.1c0.16-0.07,0.29-0.17,0.4-0.29c0.1-0.12,0.18-0.27,0.24-0.44C33.61,52.76,33.64,52.58,33.64,52.39z"/>
		<path class="st2" d="M35.81,54.22c-0.2,0-0.38-0.04-0.54-0.11c-0.16-0.07-0.3-0.17-0.42-0.29c-0.12-0.12-0.21-0.27-0.27-0.43
			c-0.06-0.16-0.1-0.34-0.1-0.52c0-0.18,0.03-0.36,0.1-0.52c0.07-0.16,0.16-0.31,0.28-0.43c0.12-0.12,0.26-0.22,0.42-0.29
			c0.16-0.07,0.34-0.11,0.54-0.11c0.2,0,0.38,0.04,0.54,0.11c0.16,0.07,0.3,0.17,0.41,0.29s0.2,0.26,0.26,0.42s0.09,0.33,0.09,0.5
			c0,0.04,0,0.07,0,0.1c0,0.03,0,0.05-0.01,0.07h-2.17c0.01,0.13,0.04,0.25,0.09,0.35c0.05,0.11,0.11,0.2,0.19,0.27
			s0.17,0.14,0.27,0.18c0.1,0.04,0.21,0.07,0.32,0.07c0.08,0,0.16-0.01,0.23-0.03c0.08-0.02,0.15-0.05,0.21-0.09
			c0.07-0.04,0.13-0.08,0.18-0.14c0.05-0.05,0.09-0.11,0.12-0.18l0.38,0.1c-0.04,0.1-0.1,0.19-0.18,0.26
			c-0.08,0.08-0.16,0.15-0.26,0.21c-0.1,0.06-0.21,0.1-0.33,0.14S35.94,54.22,35.81,54.22z M36.71,52.69
			c-0.01-0.12-0.04-0.24-0.09-0.34c-0.05-0.11-0.12-0.19-0.2-0.27s-0.17-0.13-0.27-0.17c-0.1-0.04-0.21-0.06-0.33-0.06
			c-0.12,0-0.23,0.02-0.33,0.06c-0.1,0.04-0.19,0.1-0.27,0.18c-0.08,0.07-0.14,0.16-0.19,0.27c-0.05,0.1-0.08,0.22-0.09,0.34H36.71z
			"/>
		<path class="st2" d="M38.53,54.22c-0.21,0-0.42-0.03-0.62-0.1c-0.2-0.06-0.38-0.16-0.53-0.28l0.19-0.29
			c0.15,0.12,0.31,0.2,0.46,0.26c0.15,0.06,0.31,0.09,0.48,0.09c0.19,0,0.34-0.04,0.45-0.11c0.11-0.07,0.17-0.18,0.17-0.32
			c0-0.06-0.01-0.12-0.04-0.16c-0.03-0.04-0.08-0.08-0.13-0.12c-0.06-0.03-0.14-0.06-0.23-0.09c-0.09-0.03-0.2-0.05-0.33-0.08
			c-0.16-0.04-0.29-0.08-0.4-0.11s-0.21-0.08-0.28-0.13c-0.07-0.05-0.13-0.11-0.16-0.18s-0.05-0.16-0.05-0.26
			c0-0.13,0.03-0.25,0.08-0.35s0.12-0.19,0.21-0.25s0.2-0.12,0.32-0.16s0.25-0.05,0.39-0.05c0.2,0,0.38,0.03,0.55,0.09
			c0.17,0.06,0.31,0.15,0.43,0.25l-0.2,0.27c-0.11-0.1-0.23-0.17-0.37-0.22c-0.14-0.05-0.28-0.07-0.42-0.07
			c-0.16,0-0.3,0.03-0.41,0.1c-0.11,0.07-0.17,0.18-0.17,0.33c0,0.06,0.01,0.11,0.03,0.15s0.06,0.07,0.11,0.1
			c0.05,0.03,0.11,0.06,0.19,0.08c0.08,0.02,0.17,0.05,0.28,0.07c0.17,0.04,0.32,0.08,0.45,0.12c0.13,0.04,0.24,0.09,0.32,0.15
			s0.15,0.12,0.19,0.2c0.04,0.08,0.06,0.17,0.06,0.28c0,0.24-0.09,0.44-0.28,0.58C39.1,54.14,38.85,54.22,38.53,54.22z"/>
		<path class="st2" d="M40.09,51.07v-0.55h0.44v0.55H40.09z M40.09,54.17v-2.61h0.44v2.61H40.09z"/>
		<path class="st2" d="M42.27,54.2c-0.18,0-0.34-0.04-0.49-0.11s-0.28-0.17-0.38-0.29c-0.11-0.12-0.19-0.27-0.25-0.42
			c-0.06-0.16-0.09-0.33-0.09-0.5c0-0.18,0.03-0.36,0.09-0.52c0.06-0.17,0.14-0.31,0.25-0.43c0.11-0.12,0.23-0.22,0.38-0.29
			s0.31-0.11,0.49-0.11c0.22,0,0.41,0.05,0.57,0.16c0.16,0.11,0.29,0.24,0.41,0.41v-0.52h0.39v2.58c0,0.19-0.03,0.35-0.1,0.49
			s-0.17,0.26-0.29,0.36s-0.26,0.17-0.42,0.22c-0.16,0.05-0.33,0.08-0.52,0.08c-0.3,0-0.54-0.05-0.72-0.15
			c-0.19-0.1-0.34-0.24-0.46-0.42l0.25-0.23c0.1,0.15,0.24,0.27,0.4,0.35c0.16,0.08,0.34,0.11,0.53,0.11c0.12,0,0.23-0.02,0.34-0.05
			c0.11-0.03,0.2-0.08,0.28-0.15c0.08-0.07,0.14-0.15,0.19-0.25c0.05-0.1,0.07-0.22,0.07-0.35v-0.46c-0.05,0.08-0.11,0.15-0.18,0.22
			s-0.14,0.12-0.22,0.17s-0.17,0.08-0.25,0.1C42.46,54.18,42.37,54.2,42.27,54.2z M42.41,53.84c0.09,0,0.18-0.02,0.27-0.05
			s0.17-0.08,0.24-0.13c0.07-0.05,0.13-0.12,0.18-0.19c0.05-0.07,0.08-0.14,0.1-0.21V52.5c-0.04-0.09-0.08-0.17-0.14-0.25
			c-0.06-0.07-0.12-0.14-0.2-0.19s-0.15-0.1-0.24-0.13s-0.17-0.04-0.26-0.04c-0.13,0-0.25,0.03-0.36,0.08
			c-0.11,0.06-0.19,0.13-0.27,0.23s-0.13,0.2-0.17,0.32s-0.06,0.24-0.06,0.36c0,0.13,0.02,0.25,0.07,0.37s0.11,0.22,0.19,0.3
			c0.08,0.09,0.17,0.16,0.28,0.21C42.17,53.81,42.28,53.84,42.41,53.84z"/>
		<path class="st2" d="M46.62,54.17h-0.44v-1.46c0-0.28-0.04-0.48-0.13-0.61c-0.08-0.13-0.21-0.19-0.39-0.19
			c-0.09,0-0.18,0.02-0.27,0.05c-0.09,0.04-0.17,0.08-0.25,0.14s-0.15,0.13-0.21,0.21c-0.06,0.08-0.1,0.18-0.13,0.27v1.58h-0.44
			v-2.61h0.4v0.56c0.1-0.18,0.25-0.33,0.45-0.44c0.2-0.11,0.41-0.16,0.64-0.16c0.15,0,0.28,0.03,0.38,0.08
			c0.1,0.05,0.18,0.13,0.24,0.23c0.06,0.1,0.1,0.21,0.13,0.35c0.03,0.13,0.04,0.28,0.04,0.44V54.17z"/>
		<path class="st2" d="M48.54,54.17v-0.56h0.37v0.56H48.54z"/>
		<path class="st2" d="M50.92,54.17v-3.55h0.45v3.55H50.92z"/>
		<path class="st2" d="M54.41,54.17h-0.44v-1.46c0-0.28-0.04-0.48-0.13-0.61c-0.08-0.13-0.21-0.19-0.39-0.19
			c-0.09,0-0.18,0.02-0.27,0.05c-0.09,0.04-0.17,0.08-0.25,0.14s-0.15,0.13-0.21,0.21c-0.06,0.08-0.1,0.18-0.13,0.27v1.58h-0.44
			v-2.61h0.4v0.56c0.1-0.18,0.25-0.33,0.45-0.44c0.2-0.11,0.41-0.16,0.64-0.16c0.15,0,0.28,0.03,0.38,0.08
			c0.1,0.05,0.18,0.13,0.24,0.23c0.06,0.1,0.1,0.21,0.13,0.35c0.03,0.13,0.04,0.28,0.04,0.44V54.17z"/>
		<path class="st2" d="M57.36,54.17h-0.44v-1.46c0-0.28-0.04-0.48-0.13-0.61c-0.08-0.13-0.21-0.19-0.39-0.19
			c-0.09,0-0.18,0.02-0.27,0.05c-0.09,0.04-0.17,0.08-0.25,0.14s-0.15,0.13-0.21,0.21c-0.06,0.08-0.1,0.18-0.13,0.27v1.58H55.1
			v-2.61h0.4v0.56c0.1-0.18,0.25-0.33,0.45-0.44c0.2-0.11,0.41-0.16,0.64-0.16c0.15,0,0.28,0.03,0.38,0.08
			c0.1,0.05,0.18,0.13,0.24,0.23c0.06,0.1,0.1,0.21,0.13,0.35c0.03,0.13,0.04,0.28,0.04,0.44V54.17z"/>
		<path class="st2" d="M59.18,54.22c-0.2,0-0.38-0.04-0.54-0.11c-0.16-0.07-0.3-0.17-0.41-0.29c-0.12-0.12-0.21-0.27-0.27-0.43
			c-0.06-0.16-0.1-0.33-0.1-0.51c0-0.18,0.03-0.36,0.1-0.52c0.07-0.16,0.16-0.31,0.27-0.43c0.11-0.12,0.25-0.22,0.42-0.29
			c0.16-0.07,0.34-0.11,0.53-0.11s0.37,0.04,0.54,0.11c0.16,0.07,0.3,0.17,0.42,0.29c0.12,0.12,0.21,0.27,0.27,0.43
			c0.06,0.16,0.1,0.34,0.1,0.52c0,0.18-0.03,0.35-0.1,0.51c-0.06,0.16-0.15,0.31-0.27,0.43c-0.12,0.12-0.26,0.22-0.42,0.29
			C59.56,54.18,59.38,54.22,59.18,54.22z M58.32,52.87c0,0.14,0.02,0.26,0.07,0.38s0.11,0.22,0.19,0.31
			c0.08,0.09,0.17,0.15,0.27,0.21c0.11,0.05,0.22,0.07,0.34,0.07s0.23-0.02,0.34-0.07c0.11-0.05,0.2-0.12,0.28-0.21
			s0.14-0.19,0.19-0.31c0.04-0.12,0.07-0.25,0.07-0.38c0-0.13-0.02-0.26-0.07-0.38c-0.04-0.12-0.11-0.22-0.19-0.31
			c-0.08-0.09-0.17-0.16-0.28-0.21c-0.1-0.05-0.22-0.07-0.34-0.07s-0.23,0.03-0.34,0.08c-0.1,0.05-0.2,0.12-0.27,0.21
			c-0.08,0.09-0.14,0.19-0.19,0.31C58.34,52.61,58.32,52.73,58.32,52.87z"/>
		<path class="st2" d="M61.71,54.17l-1.03-2.61h0.46l0.83,2.23l0.83-2.23h0.42l-1.03,2.61H61.71z"/>
		<path class="st2" d="M64.25,54.22c-0.12,0-0.24-0.02-0.35-0.06c-0.11-0.04-0.2-0.1-0.28-0.17s-0.14-0.16-0.18-0.26
			c-0.04-0.1-0.07-0.21-0.07-0.32c0-0.12,0.03-0.23,0.08-0.33c0.05-0.1,0.13-0.18,0.23-0.25c0.1-0.07,0.22-0.12,0.35-0.16
			c0.13-0.04,0.28-0.06,0.44-0.06c0.13,0,0.25,0.01,0.38,0.03c0.13,0.02,0.25,0.06,0.35,0.1v-0.21c0-0.21-0.06-0.38-0.18-0.5
			s-0.29-0.18-0.51-0.18c-0.26,0-0.54,0.1-0.83,0.31l-0.14-0.29c0.34-0.23,0.67-0.34,1.01-0.34c0.34,0,0.61,0.09,0.8,0.27
			c0.19,0.18,0.29,0.44,0.29,0.77v1.06c0,0.1,0.05,0.16,0.14,0.16v0.38c-0.05,0.01-0.08,0.01-0.11,0.02c-0.03,0-0.06,0-0.1,0
			c-0.09,0-0.16-0.03-0.21-0.08s-0.08-0.11-0.09-0.19l-0.01-0.19c-0.12,0.16-0.26,0.28-0.44,0.36
			C64.64,54.17,64.45,54.22,64.25,54.22z M64.36,53.89c0.16,0,0.3-0.03,0.44-0.09c0.14-0.06,0.24-0.14,0.31-0.23
			c0.06-0.06,0.1-0.13,0.1-0.19v-0.39c-0.21-0.08-0.44-0.12-0.67-0.12c-0.22,0-0.4,0.05-0.54,0.14s-0.21,0.21-0.21,0.37
			c0,0.07,0.01,0.14,0.04,0.2c0.03,0.06,0.07,0.12,0.12,0.17c0.05,0.05,0.11,0.08,0.18,0.11C64.21,53.87,64.28,53.89,64.36,53.89z"
			/>
		<path class="st2" d="M67.67,54.04c-0.03,0.01-0.06,0.03-0.11,0.05c-0.04,0.02-0.09,0.04-0.15,0.06c-0.05,0.02-0.11,0.03-0.18,0.04
			s-0.13,0.02-0.2,0.02c-0.16,0-0.3-0.04-0.42-0.13c-0.12-0.09-0.17-0.23-0.17-0.41V51.9h-0.36v-0.34h0.36v-0.87h0.44v0.87h0.58
			v0.34h-0.58v1.62c0.01,0.1,0.04,0.17,0.09,0.21s0.12,0.06,0.2,0.06c0.09,0,0.17-0.01,0.24-0.04c0.07-0.03,0.12-0.05,0.15-0.07
			L67.67,54.04z"/>
		<path class="st2" d="M68.08,51.07v-0.55h0.44v0.55H68.08z M68.08,54.17v-2.61h0.44v2.61H68.08z"/>
		<path class="st2" d="M70.38,54.22c-0.2,0-0.38-0.04-0.54-0.11c-0.16-0.07-0.3-0.17-0.41-0.29c-0.12-0.12-0.21-0.27-0.27-0.43
			c-0.06-0.16-0.1-0.33-0.1-0.51c0-0.18,0.03-0.36,0.1-0.52c0.07-0.16,0.16-0.31,0.27-0.43c0.11-0.12,0.25-0.22,0.42-0.29
			c0.16-0.07,0.34-0.11,0.53-0.11s0.37,0.04,0.54,0.11c0.16,0.07,0.3,0.17,0.42,0.29c0.12,0.12,0.21,0.27,0.27,0.43
			c0.06,0.16,0.1,0.34,0.1,0.52c0,0.18-0.03,0.35-0.1,0.51c-0.06,0.16-0.15,0.31-0.27,0.43c-0.12,0.12-0.26,0.22-0.42,0.29
			C70.75,54.18,70.57,54.22,70.38,54.22z M69.51,52.87c0,0.14,0.02,0.26,0.07,0.38s0.11,0.22,0.19,0.31
			c0.08,0.09,0.17,0.15,0.27,0.21c0.11,0.05,0.22,0.07,0.34,0.07s0.23-0.02,0.34-0.07c0.11-0.05,0.2-0.12,0.28-0.21
			s0.14-0.19,0.19-0.31c0.04-0.12,0.07-0.25,0.07-0.38c0-0.13-0.02-0.26-0.07-0.38c-0.04-0.12-0.11-0.22-0.19-0.31
			c-0.08-0.09-0.17-0.16-0.28-0.21c-0.1-0.05-0.22-0.07-0.34-0.07s-0.23,0.03-0.34,0.08c-0.1,0.05-0.2,0.12-0.27,0.21
			c-0.08,0.09-0.14,0.19-0.19,0.31C69.53,52.61,69.51,52.73,69.51,52.87z"/>
		<path class="st2" d="M74.5,54.17h-0.44v-1.46c0-0.28-0.04-0.48-0.13-0.61c-0.08-0.13-0.21-0.19-0.39-0.19
			c-0.09,0-0.18,0.02-0.27,0.05c-0.09,0.04-0.17,0.08-0.25,0.14s-0.15,0.13-0.21,0.21c-0.06,0.08-0.1,0.18-0.13,0.27v1.58h-0.44
			v-2.61h0.4v0.56c0.1-0.18,0.25-0.33,0.45-0.44c0.2-0.11,0.41-0.16,0.64-0.16c0.15,0,0.28,0.03,0.38,0.08
			c0.1,0.05,0.18,0.13,0.24,0.23c0.06,0.1,0.1,0.21,0.13,0.35c0.03,0.13,0.04,0.28,0.04,0.44V54.17z"/>
	</g>
</g>
</svg>
