<?xml version="1.0" encoding="UTF-8"?>
<svg width="103px" height="50px" viewBox="0 0 103 50" version="1.1" xmlns="http://www.w3.org/2000/svg" xmlns:xlink="http://www.w3.org/1999/xlink">
    <title>logos/dark/oresund</title>
    <defs>
        <polygon id="path-1" points="2.468875e-05 0.0374387232 102.312626 0.0374387232 102.312626 50 2.468875e-05 50"></polygon>
    </defs>
    <g id="Page-1" stroke="none" stroke-width="1" fill="none" fill-rule="evenodd">
        <g id="Gov-tech" transform="translate(-574.000000, -1569.000000)">
            <g id="logos/dark/oresund" transform="translate(574.000000, 1569.000000)">
                <g id="Group-3">
                    <mask id="mask-2" fill="white">
                        <use xlink:href="#path-1"></use>
                    </mask>
                    <g id="Clip-2"></g>
                    <path d="M70.3815838,24.5618406 C69.4101502,25.591913 68.4444544,26.6160435 67.4215257,27.7006812 C68.4101728,27.7006812 69.2996065,27.6974203 70.1889676,27.7035932 C70.3605936,27.7048116 70.3836175,27.6218406 70.3831172,27.4821304 C70.3800586,26.5214058 70.3815838,25.5606087 70.3815838,24.5618406 L70.3815838,24.5618406 Z M24.5981887,27.700971 C25.5712929,27.700971 26.4385743,27.6941594 27.3057831,27.7057536 C27.5207695,27.7086522 27.5626773,27.6295942 27.564711,27.4353188 C27.5737898,26.5695217 27.5997916,25.7038696 27.6133735,24.8381449 C27.6147535,24.7551014 27.6702432,24.6515507 27.552727,24.5695942 C26.5877574,25.5922754 25.6251121,26.6125652 24.5981887,27.700971 L24.5981887,27.700971 Z M75.3816163,27.7008986 C74.3010916,26.5569855 73.2852807,25.4815507 72.2744813,24.4112609 C72.2744813,25.4647391 72.2784034,26.4845942 72.2710539,27.5043768 C72.2696151,27.7077101 72.383645,27.7023478 72.5253472,27.7019855 C73.441509,27.6998841 74.3576708,27.7008986 75.3816163,27.7008986 L75.3816163,27.7008986 Z M32.5584246,27.7002464 C31.4815314,26.5594493 30.4661563,25.4837246 29.4535412,24.4111159 C29.4535412,25.4716232 29.4546306,26.5016957 29.4521598,27.5316957 C29.4518707,27.6547391 29.4990805,27.7019855 29.6224072,27.701697 C30.5698001,27.699087 31.517193,27.7002464 32.5584246,27.7002464 L32.5584246,27.7002464 Z M70.5110115,18.4977826 C67.6365847,21.5693768 64.7966575,24.604087 61.8986985,27.7008261 C63.6188805,27.7008261 65.2354187,27.6991594 66.8519569,27.703872 C66.9890834,27.7043043 67.0744969,27.646913 67.1607094,27.5553913 C68.2028125,26.4487971 69.2451336,25.3422754 70.2930472,24.2412609 C70.4216759,24.1061159 70.4534881,23.9626377 70.4558849,23.7860435 C70.4688131,22.8583623 70.4981559,21.9307536 70.5090505,21.0030725 C70.5184924,20.189087 70.5110115,19.375029 70.5110115,18.4977826 L70.5110115,18.4977826 Z M19.0760152,27.700971 C20.7914036,27.700971 22.3976282,27.698942 24.0037803,27.7042355 C24.1520919,27.7047391 24.2499978,27.6518406 24.3465238,27.5491594 C25.3794029,26.4503913 26.4132989,25.3524928 27.4533684,24.2606087 C27.5899864,24.1172029 27.6326932,23.9677101 27.6350174,23.7763333 C27.646493,22.8364783 27.6769978,21.896913 27.6882556,20.957058 C27.6976975,20.1573478 27.6902166,19.3574203 27.6902166,18.4967681 C24.8148457,21.5690145 21.9776784,24.6005362 19.0760152,27.700971 L19.0760152,27.700971 Z M72.2021413,18.4040145 C72.2021413,20.1898116 72.2043202,21.9624928 72.1986521,23.7351739 C72.198074,23.9024203 72.2855938,24.0002464 72.3854608,24.1058986 C73.4553815,25.2382899 74.5269726,26.3692319 75.5907923,27.5074203 C75.7267567,27.6529275 75.8659895,27.7057536 76.0618741,27.7048116 C77.5616224,27.6978551 79.0614433,27.702058 80.5611916,27.6982899 C80.6471861,27.6980725 80.7544615,27.7503913 80.8325393,27.6260435 C77.9496874,24.5456087 75.0654555,21.4636522 72.2021413,18.4040145 L72.2021413,18.4040145 Z M29.3222251,18.3416957 C29.3045033,18.4451014 29.2933182,18.4787971 29.2938776,18.5123478 C29.3220799,20.2490145 29.3543278,21.9856812 29.3757538,23.7224203 C29.3780054,23.9043043 29.4722072,24.0083623 29.5800636,24.1226377 C30.6332792,25.2374203 31.6881654,26.3506812 32.7347716,27.4716232 C32.88548,27.6330725 33.0335737,27.7087246 33.262941,27.706913 C34.7383581,27.6953188 36.2137751,27.7021304 37.6891921,27.6985797 C37.7895676,27.6983623 37.9022176,27.7421304 38.0199517,27.6364783 C35.1315072,24.5497391 32.2480017,21.4683623 29.3222251,18.3416957 L29.3222251,18.3416957 Z M13.7076731,27.700971 L14.1200694,27.700971 C15.5350578,27.700971 16.9500463,27.6961159 18.3649621,27.7060006 C18.5893905,27.7075652 18.7427862,27.6448116 18.8963272,27.4786522 C19.8958688,26.3965507 20.9066682,25.3246667 21.914054,24.2496667 C23.7553838,22.2847391 25.5947525,20.3178551 27.441457,18.3579275 C27.643152,18.1437971 27.7446895,17.9266957 27.7483937,17.6241594 C27.7671324,16.0804638 27.8090402,14.537058 27.8387461,12.9934348 C27.8400534,12.9199565 27.8876264,12.8272029 27.7751217,12.7543043 C23.1091898,17.711913 18.4430399,22.6697391 13.7076731,27.700971 L13.7076731,27.700971 Z M70.5585845,12.7948116 C65.9280236,17.7151739 61.2567896,22.6788696 56.5305743,27.700971 C58.1500177,27.700971 59.6613143,27.6958986 61.1726108,27.7063597 C61.4106938,27.7079275 61.5734588,27.6373478 61.7343355,27.4636522 C62.98162,26.1173478 64.2371117,24.7785797 65.4919498,23.4391594 C67.0769663,21.7473478 68.6643071,20.0576377 70.2487426,18.3651014 C70.4024288,18.200971 70.5654844,18.0532899 70.5638266,17.7838696 C70.5532825,16.1202464 70.5585845,14.4564058 70.5585845,12.7948116 L70.5585845,12.7948116 Z M29.27211,12.6372029 C29.27211,14.3162609 29.2731995,16.0010435 29.2704387,17.6858986 C29.270149,17.8464058 29.3501152,17.9536522 29.4521612,18.0625652 C32.3984195,21.2078551 35.3440242,24.3537971 38.2855616,27.5035072 C38.4200734,27.6474928 38.5567641,27.7062609 38.754755,27.7051739 C40.2054776,27.6974203 41.6562729,27.702058 43.1071408,27.6982174 C43.1927723,27.698 43.299975,27.7510435 43.3783433,27.6264783 C38.6652741,22.6183623 33.9508976,17.6088696 29.27211,12.6372029 L29.27211,12.6372029 Z M72.0433709,12.5833623 C72.0110503,12.6432174 71.9918032,12.6619855 71.9921613,12.6803913 C72.0249227,14.3440145 72.0610201,16.0075652 72.0905807,17.6712609 C72.0936312,17.8461159 72.1782458,17.960971 72.2882811,18.0784348 C75.2264049,21.2148841 78.1640928,24.3516957 81.0966966,27.4932174 C81.2416672,27.6485072 81.3875094,27.7067681 81.5979927,27.7055362 C83.0245294,27.696913 84.4512113,27.7021304 85.8778207,27.6985797 C85.9781234,27.6983623 86.0904103,27.7414058 86.2106138,27.6373478 C81.4878122,22.618942 76.7707483,17.6066957 72.0433709,12.5833623 L72.0433709,12.5833623 Z M70.7225117,6.24676812 C63.9607525,13.3979275 57.2273918,20.5190145 50.4366531,27.7008261 C52.352066,27.7008261 54.1636172,27.6983623 55.9751685,27.7047414 C56.151806,27.7053188 56.2320627,27.595029 56.328734,27.4924203 C57.3967663,26.3588696 58.4635638,25.224087 59.5310151,24.0899565 C63.1805551,20.2129275 66.8292235,16.3351739 70.4829035,12.462058 C70.6280193,12.3082174 70.6773355,12.1537246 70.6787154,11.9485797 C70.6837996,11.1768406 70.7149581,10.4052464 70.720478,9.63357971 C70.7284674,8.52582609 70.7225117,7.418 70.7225117,6.24676812 L70.7225117,6.24676812 Z M27.8876264,6.26024638 C21.1359629,13.4007536 14.405798,20.5185072 7.61440556,27.700971 L8.05774245,27.700971 C9.67805745,27.700971 11.2982998,27.6951739 12.9184696,27.7067317 C13.1925046,27.7085797 13.3847577,27.6368406 13.5759939,27.4318406 C15.3467268,25.5337246 17.1285722,23.645971 18.9077302,21.7556812 C21.8122986,18.6696667 24.7169397,15.5836522 27.6232512,12.4992319 C27.7580535,12.3562609 27.8566132,12.2230725 27.85901,12.0014783 C27.8788381,10.2047391 27.916025,8.40807246 27.9450772,6.6114058 C27.9466751,6.50930435 27.9862587,6.39973913 27.8876264,6.26024638 L27.8876264,6.26024638 Z M29.1015009,6.08292754 C29.0741918,6.18669565 29.0577773,6.21923188 29.0583434,6.2514058 C29.0914052,8.14524638 29.1277931,10.038942 29.1563369,11.9327826 C29.1586611,12.0842319 29.2297664,12.1772754 29.321862,12.275029 C34.0995723,17.3485797 38.8772827,22.422058 43.6503447,27.4999565 C43.7975669,27.6566232 43.9471132,27.7060435 44.1547639,27.7051014 C45.8239593,27.6977826 47.4931547,27.7021304 49.16235,27.6981449 C49.2604013,27.6978551 49.3764649,27.7508986 49.4766224,27.631913 C42.697795,20.4624928 35.9209287,13.2952464 29.1015009,6.08292754 L29.1015009,6.08292754 Z M92.3640195,27.7008261 C85.5167742,20.4593043 78.7362037,13.2882174 71.941325,6.10205797 C71.844,6.26531884 71.8840921,6.38626087 71.8860531,6.50133333 C71.9154685,8.23836232 71.953309,9.97524638 71.9746624,11.7122754 C71.9779308,11.9814783 72.0467845,12.1792319 72.2374397,12.380971 C75.0002333,15.303942 77.7526407,18.2365507 80.5091155,21.1654638 C82.4874265,23.2676377 84.4675532,25.368 86.4486968,27.4674928 C86.5520501,27.5769855 86.6342679,27.7057536 86.8279735,27.7049602 C88.6394522,27.698 90.4509308,27.7008261 92.3640195,27.7008261 L92.3640195,27.7008261 Z M49.9150204,28.425971 C43.2378032,28.425971 36.5607312,28.4282899 29.883514,28.4187971 C29.5559502,28.4183623 29.4655978,28.4937971 29.4725704,28.8312609 C29.5957518,34.790029 29.7042618,40.7491594 29.8173476,46.7082174 C29.8336895,47.5646667 29.8590375,48.420971 29.8760331,49.2774203 C29.8883076,49.8953188 29.785027,50.000001 29.1821208,50.000001 C28.698256,50.000001 28.2143913,50.000001 27.7305992,50.000001 C27.2646016,49.9985072 27.1257319,49.8648116 27.1346655,49.3979275 C27.1956025,46.2254638 27.2614058,43.053 27.3225607,39.8804638 C27.3942471,36.1651739 27.4599051,32.4497391 27.539145,28.7345217 C27.5448829,28.4654638 27.4531505,28.4205362 27.2128886,28.4214058 C25.0113839,28.4291594 22.8098792,28.425971 20.6083019,28.425971 C13.9552707,28.425971 7.30231207,28.425971 0.649353455,28.4257536 C0.360429117,28.4257536 -0.00635517335,28.4753913 2.46887503e-05,28.0574928 C0.00650043446,27.6428551 0.375899425,27.7016957 0.661918541,27.7015507 C2.74249335,27.7005362 4.82306816,27.6973478 6.90364297,27.7062609 C7.12952399,27.7072029 7.28081343,27.640029 7.43449968,27.4772754 C12.0695637,22.5675652 16.709276,17.6623478 21.3484073,12.7563333 C23.4728509,10.5096667 25.5951157,8.26075362 27.7260961,6.02017391 C27.9067283,5.83010145 27.9866219,5.63930435 27.9898903,5.3814058 C28.0100816,3.78894203 28.0421843,2.19669565 28.0699291,0.604304348 C28.0770469,0.198217391 28.2043683,0.0340144928 28.5117408,0.0374387232 C28.8104702,0.0408985507 28.9353948,0.209521739 28.9426578,0.618652174 C28.9696764,2.15075362 29.0023602,3.68263768 29.0187747,5.21481159 C29.0216799,5.48894203 29.1124681,5.68510145 29.299637,5.88278261 C35.1876507,12.1013333 41.070217,18.3251014 46.9539454,24.5476377 C47.8833986,25.5306087 48.8211317,26.5058986 49.7401987,27.4984348 C49.940078,27.7142319 50.0456828,27.7027101 50.2414221,27.4951014 C53.6139492,23.9182899 56.9942478,20.3487971 60.3723674,16.7773478 C63.5845262,13.3813333 66.7820137,9.97133333 70.021191,6.60118841 C70.5986766,6.00031884 70.8677001,5.40915942 70.8373406,4.57118841 C70.7888234,3.23481159 70.8694433,1.89394203 70.890143,0.554956522 C70.8946461,0.264376812 70.9831827,0.0550289855 71.310456,0.0387246377 C71.6057718,0.023942029 71.7564076,0.195826087 71.7631622,0.559521739 C71.7924323,2.1156087 71.8233003,3.67176812 71.8412401,5.228 C71.8442179,5.48763768 71.9261452,5.67684058 72.1053974,5.86618841 C78.8318581,12.9711159 85.5559947,20.0781449 92.2670577,27.1974928 C92.6089297,27.5601014 92.9384546,27.7179275 93.4433095,27.7132174 C96.1888897,27.6874928 98.9349056,27.7008986 101.680776,27.7012609 C101.789577,27.7013333 101.901791,27.6891594 102.006379,27.7111884 C102.188827,27.7496667 102.311282,27.8674203 102.312672,28.0616232 C102.313969,28.2563333 102.191877,28.3782899 102.010156,28.4147391 C101.88189,28.4403913 101.745054,28.4256812 101.612068,28.4256812 C91.9954921,28.425971 82.3789164,28.4254638 72.7623407,28.4272754 C72.2561058,28.4274203 72.2940916,28.3408986 72.3042598,28.8826377 C72.3921428,33.5872029 72.4781374,38.2916957 72.5678361,42.9962609 C72.6080008,45.1072754 72.6563728,47.2180725 72.6984985,49.329087 C72.7096836,49.8879275 72.5931842,49.9994493 72.0246322,50.000001 C71.5407675,50.000001 71.0569027,50.000001 70.573038,50.000001 C70.0802397,49.998942 69.9473258,49.8715507 69.9565498,49.3824928 C69.9920662,47.5127101 70.0344098,45.6431449 70.0694177,43.7734348 C70.1545407,39.2377826 70.2368312,34.7021304 70.3208647,30.1664058 C70.3295804,29.695971 70.323552,29.224087 70.361102,28.7557536 C70.3841985,28.4677826 70.2794653,28.4183623 70.0191574,28.4205362 C68.6160077,28.432058 67.2127855,28.425971 65.8096358,28.425971 L49.9150204,28.425971 Z" id="Fill-1" fill="#FFFFFF" mask="url(#mask-2)"></path>
                </g>
                <path d="M57.2872299,34.8150205 C57.2872299,34.9203588 57.2905617,35.0259787 57.2838225,35.1310354 C57.2701926,35.342909 57.1645613,35.5021134 56.9238431,35.5080281 C56.6755528,35.5141541 56.564621,35.3438243 56.5555345,35.1394145 C56.53827,34.7536905 56.544252,34.3670512 56.5431919,33.9808343 C56.5418289,33.4539316 56.5413746,32.927029 56.5436462,32.4001967 C56.5447063,32.14861 56.5545501,31.8888554 56.87523,31.7981631 C57.1914424,31.7087382 57.3586352,31.9007553 57.5114409,32.1192477 C57.9433555,32.7371243 58.3817821,33.3510578 58.8191487,33.9655546 C58.8851777,34.0582185 58.9593846,34.1458126 59.0953045,34.3193814 C59.0953045,33.7088981 59.094623,33.2003734 59.0956073,32.6918486 C59.0959859,32.4928606 59.0917456,32.2934502 59.1046939,32.0950255 C59.116885,31.9082895 59.2251666,31.7867561 59.4371864,31.781968 C59.6442843,31.7772503 59.7664986,31.877378 59.7914109,32.0716483 C59.800346,32.1412871 59.8103412,32.2114187 59.8104927,32.2813391 C59.8121585,33.1712223 59.8156417,34.061035 59.8099626,34.9508478 C59.8086753,35.1722271 59.8117042,35.415153 59.5099546,35.4939455 C59.2183517,35.5699918 59.0226877,35.4197299 58.8759397,35.2155313 C58.3667136,34.5070328 57.8659683,33.7932533 57.3618912,33.0815861 C57.3370546,33.0889795 57.312218,33.0963729 57.2873814,33.1037663 C57.2873814,33.6741844 57.2875328,34.2446025 57.2872299,34.8150205 Z" id="Fill-4" fill="#FFFFFF"></path>
                <path d="M62.4943891,32.3876462 C62.3601454,32.4847483 62.0063249,32.1819928 62.0058046,32.6215608 C62.0049126,33.3066375 62.0043923,33.9917143 62.0067709,34.6768636 C62.0071426,34.7666468 61.98239,34.8655604 62.1108358,34.9158506 C62.6643121,35.1325186 63.4644965,34.782299 63.624459,34.2370057 C63.6955204,33.9946129 63.7296388,33.7418577 63.7105355,33.4881604 C63.6494346,32.6780104 63.355823,32.4079362 62.4943891,32.3876462 L62.4943891,32.3876462 Z M61.2167701,33.6606253 C61.2167701,33.2269994 61.2119385,32.7932285 61.2180337,32.3596026 C61.2243519,31.9117737 61.3368906,31.7909034 61.7805042,31.7811207 C62.1631655,31.7727148 62.5477595,31.7711931 62.9291571,31.7980773 C63.8229999,31.8609763 64.3770708,32.3890231 64.4664179,33.2582314 C64.4922112,33.5085953 64.4916908,33.7651187 64.4696142,34.0159899 C64.3905249,34.9166477 63.8001799,35.4673034 62.8766044,35.5049123 C62.4940174,35.5204921 62.1103898,35.5080282 61.7272825,35.5138979 C61.3899637,35.5190428 61.22123,35.3599114 61.219669,35.0339673 C61.217439,34.5762108 61.2190744,34.1184543 61.2190744,33.6606253 L61.2167701,33.6606253 Z" id="Fill-6" fill="#FFFFFF"></path>
                <path d="M41.0862564,32.3299446 C40.5039546,32.328591 40.5039546,32.328591 40.5040314,32.8709198 C40.5040314,32.965179 40.5089473,33.0595807 40.5032633,33.1535549 C40.4955054,33.2830099 40.5466613,33.3509791 40.6957509,33.3537577 C41.0392483,33.3600987 41.3845124,33.3650859 41.7199447,33.295763 C41.9637418,33.2454629 42.1165183,33.0981251 42.1119097,32.8427061 C42.1073778,32.5971905 41.9793344,32.4484989 41.729162,32.3793898 C41.5180094,32.3210388 41.3017873,32.3325095 41.0862564,32.3299446 M41.9861706,33.7949164 C42.4019469,34.1428134 42.704197,34.5182115 42.9153496,34.9541692 C43.0046804,35.1383416 43.0561436,35.3227989 42.8235608,35.4506865 C42.5940504,35.5768642 42.3930368,35.5051901 42.2568515,35.3180967 C42.0142833,34.984734 41.7964481,34.6361246 41.5609466,34.2982734 C41.3862022,34.0476992 41.1588426,33.8829059 40.810122,33.8783461 C40.5883695,33.8754963 40.4821403,33.9114758 40.4986546,34.1468744 C40.5200848,34.4537334 40.5018807,34.7629435 40.5015734,35.0711561 C40.501343,35.3171705 40.395421,35.5032665 40.1112983,35.5030527 C39.8268683,35.5029102 39.7213304,35.3154605 39.7212536,35.0703011 C39.7210999,34.1220094 39.7237115,33.1736464 39.7196333,32.2252834 C39.7183348,31.9236255 39.8940776,31.7903944 40.1931017,31.7853359 C40.6913727,31.7769288 41.1905654,31.7680943 41.6882219,31.7866896 C42.4401218,31.8147608 42.8405359,32.111004 42.9274856,32.6681521 C43.0075224,33.1806998 42.7253967,33.5312329 41.9861706,33.7949164" id="Fill-8" fill="#FFFFFF"></path>
                <path d="M37.9924256,33.6289142 C37.9925735,32.8890079 37.6218638,32.4085292 37.0154295,32.362843 C36.3935366,32.3158916 35.9485666,32.6863016 35.8533004,33.3302668 C35.7352532,34.1273863 36.0711996,34.7750063 36.6689801,34.8929471 C36.775119,34.9138925 36.8882107,34.9233812 36.9957549,34.9140331 C37.631849,34.8589284 37.9922037,34.3906093 37.9924256,33.6289142 M36.9547786,31.7758099 C38.0825143,31.7855095 38.8001171,32.5306872 38.7848065,33.6760062 C38.7697177,34.7986226 38.0396149,35.5170915 36.9169828,35.5140088 C35.771052,35.510836 35.024455,34.7473837 35.0472361,33.6017836 C35.0700171,32.4514743 35.7863626,31.7657589 36.9547786,31.7758099" id="Fill-10" fill="#FFFFFF"></path>
                <path d="M43.9276998,33.6337547 C43.9272737,33.1739413 43.9325991,32.714128 43.9253566,32.2543873 C43.9205993,31.9571262 44.0538042,31.7891944 44.3400952,31.7845417 C45.013149,31.773637 45.6865578,31.7745821 46.3598246,31.7780716 C46.530662,31.778944 46.6704703,31.8659632 46.6736655,32.0546866 C46.6772158,32.2659463 46.5246976,32.3464227 46.3410084,32.3496214 C45.8919745,32.3575455 45.4423016,32.3699768 44.9939067,32.3526747 C44.7308342,32.342497 44.6194988,32.427408 44.6573443,32.7010424 C44.6704802,32.7959857 44.6697702,32.8957997 44.6574863,32.9908884 C44.6278064,33.2203225 44.727426,33.2814613 44.9390201,33.272883 C45.3049074,33.2579072 45.6717178,33.2665583 46.0381732,33.269757 C46.2505484,33.2715744 46.515112,33.2473661 46.5224965,33.5513154 C46.529952,33.8595539 46.2714238,33.8445782 46.0542203,33.8442874 C45.6641203,33.8438512 45.2739494,33.8501759 44.8840624,33.8418156 C44.7191894,33.8382535 44.6656519,33.8935764 44.6552852,34.0675422 C44.6049428,34.9149073 44.5993335,34.9141803 45.4281006,34.9147619 C45.7471959,34.9150527 46.0663621,34.9160705 46.3854574,34.9195599 C46.5697146,34.9215955 46.725499,34.9862238 46.7289072,35.2001006 C46.7325995,35.4284443 46.5779512,35.5120467 46.3755167,35.5124829 C45.7017528,35.5137914 45.027918,35.5160451 44.3542251,35.5101566 C44.066017,35.5075394 43.9264927,35.344333 43.9276998,35.0493981 C43.9295459,34.577517 43.9281968,34.1056358 43.9276998,33.6337547" id="Fill-12" fill="#FFFFFF"></path>
                <path d="M54.8112288,33.1953611 C54.8112288,32.855836 54.8000879,32.5158889 54.8153413,32.1769968 C54.824912,31.9647849 54.9100019,31.7801457 55.1868057,31.7765584 C55.4787133,31.7727601 55.5888516,31.9576807 55.5880291,32.1873366 C55.5850382,32.9473467 55.6587628,33.709889 55.5372593,34.4668041 C55.4515713,35.0006048 55.1048562,35.3150189 54.5582024,35.4486625 C54.1367906,35.5517088 53.7152294,35.5251911 53.3025659,35.4229186 C52.7782688,35.2930029 52.4748464,34.9490465 52.4038135,34.4535804 C52.295395,33.6968059 52.3469125,32.9338417 52.3613433,32.1734096 C52.3654558,31.9571883 52.4601164,31.7775431 52.733705,31.7757009 C53.0242667,31.7738855 53.1256568,31.9593688 53.1299187,32.1910646 C53.1418074,32.8349454 53.1302926,33.4792482 53.143901,34.1230587 C53.1540699,34.604246 53.3576725,34.8390367 53.776841,34.8985433 C54.4445498,34.9934302 54.7678614,34.7474557 54.7953773,34.1086393 C54.8084623,33.8047056 54.7976204,33.4998575 54.7976204,33.1953611 C54.8021815,33.1953611 54.8066678,33.1953611 54.8112288,33.1953611" id="Fill-14" fill="#FFFFFF"></path>
                <path d="M50.4686658,32.0612729 C50.6156504,32.1816444 50.7262337,32.3302477 50.7722181,32.5176874 C50.8190988,32.7088491 50.7664959,32.8724814 50.5843507,32.9585112 C50.401654,33.0447517 50.2674925,32.9484685 50.1879333,32.788137 C50.0231615,32.4563077 49.7939288,32.2426729 49.4029578,32.294361 C49.3131261,32.3062296 49.2225361,32.3299668 49.1382888,32.3638169 C48.9913041,32.422879 48.884168,32.5281514 48.8656226,32.6957164 C48.8452846,32.8793637 48.9755853,32.9760683 49.1084369,33.0421532 C49.2509403,33.1130137 49.4095073,33.151218 49.5622831,33.1994649 C49.8026844,33.2755223 50.0505315,33.331705 50.2836939,33.4258111 C50.6601181,33.5777152 50.9169966,33.8342596 50.9334738,34.2827383 C50.9513298,34.7681571 50.7530522,35.1277969 50.327679,35.3293524 C49.7752455,35.591164 49.2087477,35.5714298 48.6687237,35.2902352 C48.3696526,35.1344686 48.1885416,34.8620525 48.1362834,34.5149837 C48.1104301,34.3430645 48.1767525,34.2174961 48.3338716,34.1489531 C48.5043656,34.0746515 48.6221878,34.1612431 48.7124331,34.2972053 C48.7569008,34.3642032 48.7826162,34.4438423 48.8192245,34.5164585 C49.036806,34.94738 49.4579047,35.0900842 49.8963079,34.8858599 C50.0888634,34.7961783 50.2211634,34.6553703 50.2295054,34.4361171 C50.2383989,34.2040824 50.0850026,34.0655218 49.8928608,33.997962 C49.5470469,33.8763264 49.1829633,33.8049041 48.8439058,33.6678182 C48.2220475,33.4165409 48.0045349,32.7450168 48.3626205,32.2468866 C48.565931,31.9642172 48.8641058,31.8509387 49.1889613,31.7975651 C49.2904442,31.780921 49.3948916,31.7828874 49.4978911,31.7758646 C49.8494272,31.7722127 50.1842793,31.8285359 50.4686658,32.0612729 Z" id="Fill-16" fill="#FFFFFF"></path>
                <path d="M57.5470277,46.7276129 C57.7254259,46.5169622 57.9205853,46.3637878 58.1792189,46.2999173 C58.8170215,46.1424322 59.3100213,46.4819735 59.3326855,47.1244151 C59.3528719,47.6975258 59.3412119,48.2717142 59.3375681,48.8453997 C59.337058,48.9266569 59.3907669,49.0560504 59.2301503,49.0611515 C59.0467966,49.0668273 59.0994124,48.9234238 59.0975905,48.8291627 C59.0865864,48.2679064 59.1024003,47.7052851 59.0683676,47.1456095 C59.0400921,46.68156 58.8611838,46.5229973 58.4537393,46.499863 C58.025744,46.4755074 57.7316202,46.694133 57.6529152,47.1141412 C57.5575217,47.6235969 57.6256599,48.1395905 57.6073683,48.652423 C57.6043804,48.7359792 57.6055464,48.8197509 57.606931,48.903379 C57.6083885,48.9945508 57.5978216,49.0685515 57.4742255,49.0653185 C57.3431233,49.0617981 57.3563136,48.9724224 57.3560221,48.8900876 C57.354346,48.3283284 57.3719089,47.7658508 57.3477873,47.2050975 C57.3219166,46.6059068 56.908715,46.3489877 56.3515851,46.5568364 C56.0702145,46.6617307 55.9507722,46.8866787 55.9095249,47.1626368 C55.829581,47.697885 55.8870065,48.2370129 55.8638323,48.773698 C55.8595326,48.8739224 55.9460353,49.0444115 55.7517504,49.0571281 C55.5403398,49.0708506 55.6254579,48.890375 55.6244377,48.7947487 C55.6170044,48.0657335 55.6173688,47.3366464 55.6240733,46.6075593 C55.6248749,46.5160282 55.5500322,46.363716 55.7118149,46.3413002 C55.9083589,46.3140708 55.8029087,46.5238594 55.9061727,46.6166836 C56.1516159,46.4253594 56.4147678,46.2473265 56.7617988,46.2701015 C57.0999392,46.292158 57.3611963,46.4348429 57.5470277,46.7276129" id="Fill-18" fill="#FFFFFF"></path>
                <path d="M46.9088816,40.8838029 C47.3112161,40.8878415 47.5799139,40.605437 47.5797105,40.1789882 C47.5795069,39.7376563 47.3295996,39.4681904 46.9189891,39.4665367 C46.510278,39.4648249 46.2557579,39.7314488 46.2483638,40.1688916 C46.2411053,40.5957891 46.5034266,40.8797642 46.9088816,40.8838029 M46.8403673,43.2130418 C47.1399984,43.2188754 47.3859712,43.194868 47.6016892,43.0407272 C47.7866098,42.9085744 47.8719473,42.7101583 47.8483404,42.4704585 C47.8302283,42.2875238 47.7469937,42.1389922 47.5717058,42.0912766 C47.1724917,41.9825329 46.7696145,41.9730347 46.375149,42.1041404 C46.1597701,42.1757138 46.0555064,42.3745786 46.0512327,42.6169708 C46.0470947,42.8598118 46.1471526,43.0355667 46.3617853,43.1360836 C46.5348346,43.2171552 46.7131751,43.1994301 46.8403673,43.2130418 M46.3560193,41.9120814 C46.0715835,41.5510733 46.0814197,41.4231087 46.4395252,41.0110943 C46.2900828,40.8904591 46.1458638,40.7631677 46.0725332,40.5646768 C45.8443334,39.9469917 46.1721841,39.3023824 46.7795864,39.2601265 C47.1921641,39.2313326 47.6098974,39.2900422 48.0251885,39.3117311 C48.0665006,39.3139 48.1190734,39.3079916 48.1290452,39.3769474 C48.1417984,39.4643761 48.0843414,39.4737248 48.029123,39.4883087 C47.9114278,39.5191967 47.7806402,39.4833726 47.6626058,39.578729 C47.6997121,39.6805173 47.743941,39.7802863 47.7729748,39.8851409 C47.9251985,40.4335711 47.6743415,40.9236656 47.1684894,41.0515553 C47.0277978,41.0872298 46.8788981,41.0843131 46.7335259,41.0969525 C46.5208604,41.1153506 46.4015371,41.2516916 46.3833571,41.4741898 C46.3626672,41.7274265 46.5528111,41.738271 46.7059845,41.7527053 C46.9527035,41.7760396 47.20295,41.7601095 47.4486515,41.7902496 C47.743127,41.8264476 47.9981899,41.9511214 48.0747766,42.311606 C48.1538732,42.6840569 48.0372633,43.0230769 47.7408884,43.2124435 C47.2745169,43.5104042 46.7723958,43.5111521 46.2692572,43.3530474 C45.999067,43.2680868 45.8193019,43.0579287 45.7969161,42.7393262 C45.7741232,42.4136186 45.9062675,42.1637475 46.1715057,42.0077369 C46.2307943,41.9729599 46.2932033,41.9444652 46.3560193,41.9120814" id="Fill-20" fill="#FFFFFF"></path>
                <path d="M40.4811739,46.410634 C40.4811739,47.3954448 40.589128,47.4767314 41.5900133,47.2386828 C41.6740026,47.2187062 41.7557382,47.1852182 41.8341683,47.149115 C41.9868215,47.0787973 42.0900427,46.9625697 42.1562275,46.8117644 C42.2959593,46.4936641 42.2278964,46.0393596 42.0053773,45.8283339 C41.795404,45.6293668 40.8082665,45.4284384 40.5795121,45.5972589 C40.3497058,45.7668059 40.5260984,46.0651476 40.4820754,46.3022518 C40.4755396,46.3372654 40.4811739,46.3744582 40.4811739,46.410634 L40.4811739,46.410634 Z M40.1940476,47.1845644 C40.1939725,46.6656809 40.2087721,46.1461437 40.187662,45.6280593 C40.17737,45.377153 40.2730036,45.3143174 40.5085193,45.3291365 C40.8569473,45.3510018 41.2086807,45.3336403 41.5553057,45.3677821 C42.1122796,45.4225544 42.4607827,45.7487906 42.5128441,46.2229991 C42.5803811,46.837843 42.3224032,47.2468914 41.7488267,47.430531 C41.4237625,47.5346273 41.086453,47.5490831 40.7497444,47.5302688 C40.5344373,47.5182102 40.4681774,47.5922326 40.4770421,47.7964299 C40.4921421,48.145839 40.4834277,48.4962652 40.4793709,48.8461828 C40.4783192,48.9334988 40.5180601,49.0524141 40.3602233,49.0644001 C40.1878874,49.0774757 40.1926954,48.9626283 40.1941228,48.8500329 C40.194273,48.8379742 40.1940476,48.8259156 40.1940476,48.813857 L40.1940476,47.1845644 Z" id="Fill-22" fill="#FFFFFF"></path>
                <path d="M44.8281733,40.4499231 L43.7197289,40.4497141 C43.2520333,40.4494354 43.2253015,40.4128593 43.4008724,40.0123332 C43.5708157,39.6246958 43.9692011,39.4092798 44.3742509,39.4863335 C44.7303542,39.5540516 44.9898971,39.8886013 45.0207756,40.2817425 C45.033364,40.4426775 44.950799,40.4508985 44.8281733,40.4499231 M44.5013936,39.287429 C43.9358048,39.1489971 43.3585903,39.4287871 43.1322955,39.973876 C42.951467,40.4091668 42.9408039,40.8605512 43.1174856,41.2991861 C43.3797684,41.9503806 44.4942108,42.2754554 45.1000825,41.8916498 C45.1709477,41.8467831 45.2083426,41.7957855 45.1838323,41.7204735 C45.1468076,41.6067043 45.0651312,41.6870325 45.0053734,41.694696 C44.9453194,41.7023596 44.8888197,41.7317598 44.829136,41.7447182 C43.9609816,41.9326847 43.3895429,41.6285106 43.2957964,40.9383016 C43.2719526,40.7628755 43.3136423,40.6722363 43.5184628,40.6769738 C43.776969,40.6829653 44.0357714,40.6784368 44.2944257,40.6784368 L44.2944257,40.6772525 C44.5654463,40.6772525 44.8364668,40.6756501 45.1074134,40.6779492 C45.2325567,40.6790639 45.3078649,40.6570485 45.3219343,40.5102563 C45.3748795,39.9604299 45.0154441,39.4132509 44.5013936,39.287429" id="Fill-24" fill="#FFFFFF"></path>
                <path d="M52.1456529,40.6592954 C51.924896,40.6578075 51.6794296,40.6887685 51.4494148,40.8053859 C51.2486734,40.9072668 51.1675033,41.09197 51.1793691,41.3205996 C51.1904526,41.5330757 51.275013,41.7049553 51.4732769,41.7825349 C51.9316113,41.9619954 52.4180457,41.6841257 52.5427022,41.1728087 C52.6547105,40.7137074 52.6031398,40.6414414 52.1456529,40.6592954 M52.5548288,41.5963438 C52.2559661,41.9692928 51.9089228,42.1333082 51.4727553,42.0215085 C51.1916913,41.9494551 51.0077056,41.7782131 50.9528749,41.4669028 C50.8947845,41.1374551 50.9706085,40.8559721 51.2439793,40.6695685 C51.5203491,40.4809685 51.8324468,40.459643 52.1491735,40.4351292 C52.2927372,40.4240768 52.5202093,40.5746308 52.5747139,40.2798991 C52.631696,39.9714936 52.4540996,39.6091011 52.2162611,39.5258536 C51.9548866,39.4343875 51.7045956,39.5018358 51.4550217,39.5949313 C51.3767202,39.6241211 51.2667982,39.7386839 51.215423,39.5658832 C51.1665905,39.4014428 51.3123056,39.4188008 51.3913895,39.3802589 C51.5723762,39.292052 51.7675106,39.2649876 51.9616019,39.2542186 C52.4527956,39.2270126 52.7547226,39.4951759 52.7814534,40.030865 C52.8113788,40.6299639 52.7986654,41.2316133 52.802186,41.8322 C52.8025772,41.8975936 52.8198544,41.9838168 52.7288394,42.0006789 C52.6369118,42.0176118 52.6290229,41.9344351 52.6131149,41.8679788 C52.5945338,41.7903283 52.5794081,41.7116859 52.5548288,41.5963438" id="Fill-26" fill="#FFFFFF"></path>
                <path d="M46.0191888,47.9257393 C45.9732592,47.8603989 46.10495,47.6628892 45.8958016,47.6631018 C45.5647581,47.6633853 45.2293682,47.651196 44.9177215,47.8101533 C44.6749692,47.9339601 44.6143136,48.1548562 44.653756,48.4231631 C44.6922253,48.6841707 44.8523302,48.7899769 45.0776967,48.8199541 C45.6265814,48.8928775 46.0031004,48.5500881 46.0191888,47.9257393 M46.0081605,48.6193263 C45.6927512,48.9731003 45.368195,49.1343963 44.9566449,49.0378738 C44.6453226,48.9649504 44.4587498,48.7736063 44.4054247,48.4347855 C44.3494399,48.0792398 44.476914,47.8130589 44.7634551,47.6409201 C45.0263827,47.4829549 45.316362,47.4696317 45.6084821,47.4453948 C45.7510714,47.4335598 45.996224,47.58132 46.0199024,47.274319 C46.0431267,46.9730583 45.9941481,46.6734985 45.6894427,46.5412585 C45.433716,46.430208 45.1830493,46.5084465 44.9339396,46.5975987 C44.847854,46.6283555 44.7216773,46.7573356 44.67205,46.5642197 C44.6326076,46.4102232 44.7819437,46.425389 44.8606987,46.3862697 C45.0302101,46.3021492 45.2143178,46.2793296 45.3961549,46.2652977 C45.8829569,46.2278085 46.19895,46.4821544 46.2350839,47.0148705 C46.2764724,47.6240535 46.2559728,48.238268 46.2605139,48.8502857 C46.2610328,48.9171144 46.2721909,48.999038 46.1789045,49.0122195 C46.0862019,49.0254719 46.0799093,48.9540367 46.0685566,48.8813968 C46.0578527,48.8130799 46.0380018,48.7464638 46.0081605,48.6193263" id="Fill-28" fill="#FFFFFF"></path>
                <path d="M58.6129063,40.6655271 C58.6148163,40.0332253 58.411404,39.6583026 57.9955801,39.5278085 C57.4378278,39.3527314 56.9838083,39.6385587 56.8455209,40.2517533 C56.6720606,41.0214135 56.977076,41.7118148 57.5311873,41.8034579 C58.2043508,41.9148449 58.6102823,41.487767 58.6129063,40.6655271 M58.877583,40.6708346 C58.8726368,41.64862 58.2665904,42.2122779 57.4302711,42.0179522 C57.1218209,41.9464069 56.8890749,41.7670837 56.7471466,41.4794165 C56.4883643,40.9549635 56.4733197,40.4106957 56.7086075,39.8797321 C56.9032265,39.4406238 57.2721303,39.2453781 57.7352865,39.2525255 C58.1987863,39.2598145 58.5447452,39.4704166 58.7384712,39.9153278 C58.8428909,40.1550151 58.8854831,40.4083604 58.877583,40.6708346" id="Fill-30" fill="#FFFFFF"></path>
                <path d="M52.5491068,47.6629529 C52.547234,47.0668529 52.3421546,46.6860151 51.9495051,46.5493059 C51.4111976,46.3618512 50.9355513,46.6291294 50.7913408,47.199892 C50.5895014,47.999115 50.8810932,48.7138564 51.4488357,48.8116772 C52.1326634,48.9295421 52.5516458,48.4920303 52.5491068,47.6629529 M52.8037383,47.6517311 C52.799878,48.6638873 52.2027006,49.2201815 51.359428,49.0276453 C51.0897572,48.9661014 50.8674442,48.8264985 50.7277145,48.5819465 C50.3955204,48.0008089 50.3817335,47.3968041 50.6829073,46.8052915 C50.9008084,46.3773078 51.410715,46.1828659 51.8998725,46.2911323 C52.3866861,46.3990457 52.7148821,46.7806599 52.7865737,47.3299669 C52.8017392,47.4459262 52.7994644,47.564144 52.8037383,47.6517311" id="Fill-32" fill="#FFFFFF"></path>
                <path d="M60.1728162,39.6270463 C60.3571522,39.4479332 60.5753986,39.3369648 60.8290796,39.2878288 C61.6113072,39.136404 62.1000756,39.4735412 62.1353577,40.221986 C62.1606573,40.7576756 62.1445021,41.2951585 62.1438925,41.8317806 C62.1438163,41.9337825 62.1722402,42.063688 61.9894283,42.0557258 C61.8227715,42.0485527 61.8740564,41.9238836 61.8732182,41.8411774 C61.8684935,41.3522566 61.8744374,40.8631206 61.8698652,40.3741999 C61.8639213,39.7431793 61.6514664,39.5077571 61.090762,39.4980016 C60.5112354,39.488031 60.1606237,39.7783994 60.1301423,40.3404144 C60.103776,40.8281875 60.1241985,41.3181842 60.1157399,41.807105 C60.1140634,41.8986342 60.1815796,42.0451096 59.994729,42.053789 C59.7835694,42.063688 59.8388931,41.9041575 59.8382072,41.7978516 C59.8341685,41.0941673 59.8294439,40.3904112 59.8425508,39.686942 C59.8447607,39.5679397 59.7232926,39.3662312 59.9580751,39.332374 C60.1585662,39.3033228 60.0582826,39.5388885 60.1728162,39.6270463" id="Fill-34" fill="#FFFFFF"></path>
                <path d="M38.6711001,39.6054631 C38.9066429,39.3882168 39.2027625,39.2711936 39.5461598,39.254682 C40.2312632,39.221803 40.6193245,39.5348743 40.6400037,40.1755816 C40.6578385,40.726737 40.6482292,41.2787576 40.6432324,41.8303456 C40.6426174,41.911101 40.7048855,42.0402375 40.5392984,42.0547302 C40.3548002,42.0708812 40.3818599,41.9382117 40.3812449,41.8350323 C40.3780931,41.3193516 40.3971579,40.8028778 40.3716356,40.2883507 C40.3374266,39.5981807 39.9195381,39.3394752 39.2080668,39.5358116 C38.8595958,39.6319971 38.6911643,39.8638082 38.6406579,40.1879112 C38.5606318,40.7013567 38.6203631,41.2180469 38.5945334,41.7325018 C38.5889984,41.8436847 38.6875512,42.0377139 38.4740714,42.0467988 C38.2429874,42.0567491 38.3444614,41.8547885 38.3429239,41.7490855 C38.3331609,41.0537241 38.3326228,40.3580743 38.3433083,39.6626408 C38.3450764,39.5495112 38.2422186,39.3670906 38.4371718,39.3265687 C38.6574165,39.2807112 38.5087417,39.5499438 38.6711001,39.6054631" id="Fill-36" fill="#FFFFFF"></path>
                <path d="M48.5981308,46.3431808 C48.8527978,46.1680934 49.1222459,45.7595814 49.2210178,45.43114 C49.355203,44.9850331 49.7945573,44.7654112 50.2933442,44.8982519 C50.3742557,44.9198328 50.4888096,44.9241795 50.4637894,45.0538937 C50.4393081,45.1813201 50.3461561,45.1412086 50.2536969,45.1344217 C49.6470538,45.089811 49.5192584,45.2063326 49.4358834,45.7604203 C49.3874598,46.0827611 49.4786102,46.2062222 49.8111861,46.1744227 C49.9096502,46.1650431 50.1102735,46.0784144 50.1006504,46.2944522 C50.0928749,46.4670231 49.9149621,46.4022042 49.8212712,46.3904605 C49.4999351,46.3501202 49.4045505,46.4676332 49.4167141,46.7877626 C49.4422732,47.4594395 49.4273381,48.132794 49.4211793,48.8053097 C49.4203324,48.9016231 49.4887722,49.0597813 49.2975411,49.0652719 C49.100921,49.0709912 49.1690528,48.9103927 49.168052,48.8149944 C49.1619702,48.2185838 49.1649726,47.6220969 49.1648956,47.0255337 C49.1648956,46.448035 49.1648956,46.448035 48.5981308,46.3431808" id="Fill-38" fill="#FFFFFF"></path>
                <path d="M53.8284533,38.317757 C53.9627264,38.5211724 53.7659914,38.8628697 53.9476746,38.9828645 C54.1013759,39.0844943 54.3345801,39.0186606 54.5324424,39.0309558 C54.5795872,39.0339129 54.6107518,39.069709 54.6143987,39.1302511 C54.618974,39.2067459 54.5909921,39.2553041 54.5249496,39.2605957 C54.4480327,39.2666655 54.3682645,39.2806727 54.2938672,39.2646422 C53.9316281,39.1867467 53.8496054,39.3850261 53.8728132,39.7728693 C53.9013255,40.2498915 53.873211,40.7311159 53.8888596,41.2096166 C53.9040441,41.6744215 54.0349355,41.8006417 54.4234325,41.7970621 C54.5087705,41.7962839 54.6504038,41.6892068 54.6708929,41.8637518 C54.6932386,42.0532378 54.5233582,42.0244453 54.4290023,42.0415652 C53.9741977,42.1236628 53.6700441,41.8544137 53.645245,41.308912 C53.6189209,40.7276919 53.6284692,40.1438261 53.634039,39.5612053 C53.635962,39.3647935 53.6182578,39.2296243 53.40972,39.2643309 C53.3599892,39.2726574 53.2929521,39.2787272 53.2738555,39.1946063 C53.2600635,39.134142 53.299185,39.0832493 53.337975,39.0789693 C53.6679223,39.0430175 53.6785315,38.7434196 53.7176531,38.4634317 C53.7266046,38.3993099 53.7498123,38.3397794 53.8284533,38.317757" id="Fill-40" fill="#FFFFFF"></path>
                <path d="M47.2707941,45.3271028 C47.3798337,45.7088799 47.590891,45.9260176 47.9600756,46.0357514 C48.0164502,46.052526 48.0669291,46.0631654 48.0689165,46.1472713 C48.0707713,46.2248538 48.0382449,46.265237 47.9735233,46.2720711 C47.9515962,46.2743233 47.929404,46.2738573 47.9076093,46.2768084 C47.7250375,46.3014266 47.4634352,46.1742194 47.3778463,46.3428195 C47.2844406,46.5267186 47.3371718,46.8161579 47.3353169,47.0597777 C47.3324684,47.4344878 47.3280299,47.8097414 47.3411465,48.1839855 C47.3588339,48.6932029 47.4741669,48.8058101 47.9168837,48.7966462 C47.9929994,48.795093 48.1105847,48.7101328 48.1292658,48.8747723 C48.1463571,49.0251999 48.020425,49.0142499 47.9427856,49.0353734 C47.4756905,49.162969 47.1270419,48.8774127 47.0996827,48.3076205 C47.0736483,47.7664071 47.0876923,47.222398 47.0870298,46.6797091 C47.0866986,46.4649012 47.1381711,46.2129718 46.8260899,46.2729254 C46.7832955,46.2810797 46.7324854,46.2610434 46.7290407,46.198061 C46.7274508,46.1675406 46.7538164,46.1089849 46.7712389,46.1070434 C47.1513539,46.063476 47.1271744,45.6918724 47.1993817,45.3964533 C47.2061387,45.3685733 47.2446272,45.3514104 47.2707941,45.3271028" id="Fill-42" fill="#FFFFFF"></path>
                <path d="M42.1499178,38.7850467 C42.2602956,38.9664412 42.0739784,39.2577924 42.2502734,39.363788 C42.4012778,39.4546219 42.6396562,39.3954774 42.8393586,39.4034681 C42.9067556,39.4061316 42.9413286,39.4434896 42.9321136,39.5115808 C42.9259927,39.556588 42.9100515,39.6002975 42.8524075,39.6023464 C42.818978,39.6035074 42.7854813,39.6038489 42.7521191,39.6065124 C42.1871812,39.6511781 42.1869794,39.6512464 42.1872485,40.2364758 C42.187383,40.5765222 42.1793115,40.9170466 42.1908806,41.2566832 C42.2064855,41.7149501 42.3424904,41.8367221 42.786423,41.8296193 C42.8606135,41.8284583 42.9820224,41.7470493 42.9903629,41.9059061 C42.99756,42.0419519 42.869694,42.0199606 42.793351,42.0353955 C42.3243967,42.1301905 42.004698,41.8957299 41.9760442,41.4008563 C41.9467177,40.8923917 41.9529059,40.3815367 41.9541166,39.8717745 C41.9545202,39.7006245 41.9357539,39.577828 41.7240115,39.6043269 C41.6736319,39.6106102 41.6056967,39.617713 41.5906299,39.541836 C41.5806078,39.4916384 41.6126248,39.4436945 41.6574216,39.4410992 C42.0026129,39.4217031 41.9916491,39.1411427 42.0447865,38.9066138 C42.0565574,38.8544356 42.0498984,38.788803 42.1499178,38.7850467" id="Fill-44" fill="#FFFFFF"></path>
                <path d="M49.3356807,39.7816949 C49.5742634,39.3763729 49.873135,39.2113618 50.2676204,39.2608651 C50.3512043,39.2713855 50.4749808,39.2440758 50.4669145,39.3925858 C50.4599608,39.5196948 50.3721351,39.5230094 50.2662992,39.5204153 C49.6876788,39.5062201 49.4637685,39.7046657 49.3605751,40.3056232 C49.2747659,40.8057726 49.3420086,41.3105337 49.316697,41.8124125 C49.312038,41.9032046 49.3793501,42.0513543 49.2042551,42.055966 C49.029299,42.0606497 49.0815216,41.9130044 49.0809653,41.8196182 C49.0767931,41.0883812 49.0754719,40.3570001 49.082217,39.625763 C49.0831905,39.5222888 49.0064908,39.3404884 49.1730328,39.3298239 C49.3773336,39.3167095 49.2742096,39.5227932 49.3094651,39.6313835 C49.316836,39.6537933 49.3180182,39.6782207 49.3356807,39.7816949" id="Fill-46" fill="#FFFFFF"></path>
                <path d="M43.4480562,46.9669537 C43.4480562,47.580262 43.4522358,48.1934934 43.4438765,48.8067248 C43.4425243,48.9057373 43.5406233,49.0575258 43.2369835,49.0651421 C42.939859,49.0726046 42.9946863,48.9285094 42.9945634,48.8211882 C42.9912442,47.5818776 42.991613,46.3425671 42.9940716,45.1032565 C42.9943175,44.9925502 42.9564547,44.8483781 43.2434988,44.8605335 C43.5337392,44.8727658 43.4427702,45.025939 43.4441224,45.1272596 C43.4521129,45.7404909 43.4480562,46.3537223 43.4480562,46.9669537" id="Fill-48" fill="#FFFFFF"></path>
                <path d="M53.5228621,46.7975863 C53.7842798,46.3991044 54.0855771,46.2102928 54.4979228,46.2737352 C54.5742598,46.2854277 54.6763684,46.2733022 54.6728065,46.3964339 C54.6688255,46.5322685 54.5760757,46.5264945 54.4738972,46.5245457 C53.8892519,46.5132863 53.6383804,46.7435989 53.556456,47.3453275 C53.4897571,47.8358335 53.5413702,48.3285046 53.5201383,48.819588 C53.5160875,48.9119007 53.5790847,49.0647687 53.4077629,49.0654206 C53.2066187,49.0661401 53.2907082,48.8920523 53.2897304,48.7959865 C53.2822573,48.0757454 53.2821875,47.3552878 53.2895907,46.6349745 C53.2906383,46.5327016 53.2098314,46.3469214 53.3774516,46.3404977 C53.5799927,46.3327749 53.4647538,46.53862 53.5007921,46.6462339 C53.5081954,46.6685362 53.5081255,46.693509 53.5228621,46.7975863" id="Fill-50" fill="#FFFFFF"></path>
                <path d="M37.8387202,40.194063 C37.8388528,40.7309255 37.8442872,41.2678612 37.833816,41.8046503 C37.8319603,41.8988946 37.9417096,42.0518857 37.6209447,42.0559929 C37.2879854,42.0601734 37.4022414,41.9032951 37.4015786,41.8105177 C37.3934932,40.7246181 37.394156,39.6387185 37.4002532,38.5527455 C37.4009159,38.456961 37.3119765,38.3053634 37.6426825,38.3185649 C37.9088378,38.3291262 37.8339485,38.4596747 37.8351414,38.5468782 C37.8421665,39.095842 37.8387202,39.6450259 37.8387202,40.194063" id="Fill-52" fill="#FFFFFF"></path>
                <path d="M56.066056,40.6733501 C56.0661932,41.0536838 56.0730516,41.4339435 56.0613923,41.8142031 C56.0583747,41.9095457 56.165228,42.0621085 55.820938,42.0558905 C55.5319264,42.0505608 55.6203994,41.9176142 55.6197135,41.8320429 C55.6128552,41.0468736 55.6129923,40.2617043 55.6195764,39.4765351 C55.6203994,39.3905936 55.5341211,39.2568328 55.8213495,39.2524654 C56.161113,39.2472837 56.0587862,39.3994764 56.0615295,39.4956332 C56.0725029,39.8881068 56.066056,40.2807284 56.066056,40.6733501" id="Fill-54" fill="#FFFFFF"></path>
                <path d="M37.6135556,30.8411215 C37.7515914,30.8750407 37.8518692,30.9354146 37.8504525,31.0804074 C37.848851,31.2385976 37.7564575,31.3184989 37.5977255,31.3073916 C37.4550083,31.2973591 37.3765354,31.2106501 37.3836189,31.0701958 C37.3907024,30.9281888 37.4928896,30.8699051 37.6135556,30.8411215" id="Fill-56" fill="#31799D"></path>
                <path d="M36.4485981,31.0811543 C36.4235837,31.2207041 36.3508857,31.3181474 36.1943653,31.3076358 C36.0570267,31.2983325 35.9785561,31.2153275 35.9813822,31.0739049 C35.9845691,30.9162921 36.0816803,30.8353412 36.2279784,30.8414427 C36.362551,30.8470005 36.4360308,30.9397921 36.4485981,31.0811543" id="Fill-58" fill="#31799D"></path>
                <path d="M55.8243088,38.7850467 C55.6296918,38.7532095 55.6027287,38.643669 55.6080793,38.537036 C55.61343,38.4322202 55.638085,38.3066884 55.8521112,38.3185365 C56.0516593,38.3295124 56.0756847,38.453227 56.0747405,38.5578974 C56.0736914,38.6670745 56.0201848,38.7694189 55.8243088,38.7850467" id="Fill-60" fill="#31799D"></path>
            </g>
        </g>
    </g>
</svg>