<?xml version="1.0" encoding="UTF-8"?>
<svg width="371px" height="325px" viewBox="0 0 371 325" version="1.1" xmlns="http://www.w3.org/2000/svg" xmlns:xlink="http://www.w3.org/1999/xlink">
    <title>pulz</title>
    <defs>
        <rect id="path-1" x="107" y="64" width="264" height="174"></rect>
    </defs>
    <g id="Screens" stroke="none" stroke-width="1" fill="none" fill-rule="evenodd">
        <g id="Customer-Experience" transform="translate(-535.000000, -3986.000000)">
            <g id="pulz" transform="translate(535.000000, 3986.000000)">
                <rect id="Rectangle-Copy-16" stroke-opacity="0.08" stroke="#000000" fill="#2A205F" x="0.5" y="0.5" width="370" height="324" rx="8"></rect>
                <path d="M194,125 L292,125 L292,125 L292,145 C292,151.627417 286.627417,157 280,157 L194,157 C185.163444,157 178,149.836556 178,141 C178,132.163444 185.163444,125 194,125 Z" id="Rectangle-Copy-22" fill="#7960FF" transform="translate(235.000000, 141.000000) scale(-1, 1) translate(-235.000000, -141.000000) "></path>
                <mask id="mask-2" fill="white">
                    <use xlink:href="#path-1"></use>
                </mask>
                <g id="Mask"></g>
                <path d="M281,80 L379,80 L379,80 L379,104 C379,108.418278 375.418278,112 371,112 L281,112 C272.163444,112 265,104.836556 265,96 C265,87.163444 272.163444,80 281,80 Z" id="Rectangle-Copy-23" fill="#7960FF" mask="url(#mask-2)"></path>
                <polygon id="Star" fill="#614CD5" mask="url(#mask-2)" points="143 215.5 125.954228 224.461493 129.209681 205.480746 115.419361 192.038507 134.477114 189.269254 143 172 151.522886 189.269254 170.580639 192.038507 156.790319 205.480746 160.045772 224.461493"></polygon>
                <path d="M170.580639,192.038507 L156.790319,205.480746 L160.045772,224.461493 L143,215.5 L125.954228,224.461493 L140.764398,213.554871 L143,213.554871 L160.045772,224.461493 L154.93953,202.50329 L170.580639,192.038507 Z" id="Combined-Shape" fill="#0B004A" mask="url(#mask-2)"></path>
                <polygon id="Star" fill="#614CD5" mask="url(#mask-2)" points="213 215.5 195.954228 224.461493 199.209681 205.480746 185.419361 192.038507 204.477114 189.269254 213 172 221.522886 189.269254 240.580639 192.038507 226.790319 205.480746 230.045772 224.461493"></polygon>
                <path d="M240.580639,192.038507 L226.790319,205.480746 L230.045772,224.461493 L213,215.5 L195.954228,224.461493 L210.764398,213.554871 L213,213.554871 L230.045772,224.461493 L224.93953,202.50329 L240.580639,192.038507 Z" id="Combined-Shape" fill="#0B004A" mask="url(#mask-2)"></path>
                <polygon id="Star" fill="#614CD5" mask="url(#mask-2)" points="283 215.5 265.954228 224.461493 269.209681 205.480746 255.419361 192.038507 274.477114 189.269254 283 172 291.522886 189.269254 310.580639 192.038507 296.790319 205.480746 300.045772 224.461493"></polygon>
                <path d="M310.580639,192.038507 L296.790319,205.480746 L300.045772,224.461493 L283,215.5 L265.954228,224.461493 L280.764398,213.554871 L283,213.554871 L300.045772,224.461493 L294.93953,202.50329 L310.580639,192.038507 Z" id="Combined-Shape" fill="#0B004A" mask="url(#mask-2)"></path>
                <polygon id="Star" fill="#614CD5" mask="url(#mask-2)" points="353 215.5 335.954228 224.461493 339.209681 205.480746 325.419361 192.038507 344.477114 189.269254 353 172 361.522886 189.269254 380.580639 192.038507 366.790319 205.480746 370.045772 224.461493"></polygon>
                <path d="M380.580639,192.038507 L366.790319,205.480746 L370.045772,224.461493 L353,215.5 L335.954228,224.461493 L350.764398,213.554871 L353,213.554871 L370.045772,224.461493 L364.93953,202.50329 L380.580639,192.038507 Z" id="Combined-Shape" fill="#0B004A" mask="url(#mask-2)"></path>
            </g>
        </g>
    </g>
</svg>