<?xml version="1.0" encoding="UTF-8"?>
<svg width="524px" height="331px" viewBox="0 0 524 331" version="1.1" xmlns="http://www.w3.org/2000/svg" xmlns:xlink="http://www.w3.org/1999/xlink">
    <title>home/pyramid</title>
    <g id="Screens" stroke="none" stroke-width="1" fill="none" fill-rule="evenodd">
        <g id="Home-page" transform="translate(-159.000000, -1427.000000)">
            <g id="home/pyramid" transform="translate(159.000000, 1427.000000)">
                <path d="M262.112,0 L360.966,125 L163.256,125 L262.112,0 Z" id="Combined-Shape" fill="#572398"></path>
                <path d="M365.538,131 L446.204,233 L77.673,233 L158.338,131 L365.538,131 Z" id="Combined-Shape" fill="#3E107F"></path>
                <path d="M450.779,239 L523.536,331 L0.001,331 L72.758,239 L450.779,239 Z" id="Combined-Shape" fill="#290175"></path>
                <g id="Rain/full/dark" transform="translate(208.001000, 155.000000)">
                    <path d="M50.584,32.64 L50.584,29.676 L53.416,29.676 L55.912,32.64 L57.64,32.64 L57.64,32.232 L55.492,29.676 L55.96,29.676 C56.884,29.676 57.64,28.92 57.64,28.008 L57.64,25.68 C57.64,24.768 56.884,24.012 55.96,24.012 L49,24.012 L49,32.64 L50.584,32.64 Z M55.96,28.092 L50.668,28.092 C50.62,28.092 50.584,28.056 50.584,28.008 L50.584,25.68 C50.584,25.632 50.62,25.596 50.668,25.596 L55.96,25.596 C56.008,25.596 56.044,25.632 56.044,25.68 L56.044,28.008 C56.044,28.056 56.008,28.092 55.96,28.092 Z M63.52,32.64 L63.52,29.736 L68.98,29.736 L68.98,32.64 L70.576,32.64 L70.576,25.668 C70.576,24.744 69.82,24 68.896,24 L63.604,24 C62.68,24 61.936,24.744 61.936,25.668 L61.936,32.64 L63.52,32.64 Z M68.98,28.152 L63.52,28.152 L63.52,25.668 C63.52,25.62 63.556,25.584 63.604,25.584 L68.896,25.584 C68.944,25.584 68.98,25.62 68.98,25.668 L68.98,28.152 Z M76.54,32.64 L76.54,24 L74.956,24 L74.956,32.64 L76.54,32.64 Z M82.168,32.64 L82.168,26.304 L87.496,32.64 L89.224,32.64 L89.224,24 L87.628,24 L87.628,30.336 L82.312,24 L80.584,24 L80.584,32.64 L82.168,32.64 Z" id="RAIN" fill="#FFFFFF" fill-rule="evenodd"></path>
                    <g id="Rain/symbol/dark" transform="translate(16.000000, 16.000000)">
                        <path d="M12.0000229,2 C17.5228346,2 22,6.47716543 22,12.0000229 C22,17.5228804 17.5228346,22 12.0000229,22 C6.47721124,22 2,17.5228346 2,12.0000229 C2,6.47721124 6.47716543,2 12.0000229,2 Z" id="circle" fill-opacity="0.2" fill="#FFFFFF" fill-rule="evenodd"></path>
                        <rect id="size" x="0" y="0" width="23.9862779" height="23.9798601"></rect>
                        <polygon id="Path-5" fill="#FFFFFF" fill-rule="evenodd" points="8.26689121 6.01044083 24 6.01044083 18.4358452 11.8263172 18.4358452 8.64953297 10.45573 16.3602817 12 9.33018468 0 22.0104408"></polygon>
                    </g>
                </g>
                <g id="Bolt/full/dark" transform="translate(208.001000, 253.000000)">
                    <g id="Bolt/symbol/dark" transform="translate(16.000000, 18.000000)">
                        <rect id="size" x="0" y="0" width="23.9862779" height="23.9798601"></rect>
                        <path d="M12.0000229,2 C17.5228346,2 22,6.47716543 22,12.0000229 C22,17.5228804 17.5228346,22 12.0000229,22 C6.47721124,22 2,17.5228346 2,12.0000229 C2,6.47721124 6.47716543,2 12.0000229,2 Z" id="circle" fill-opacity="0.2" fill="#FFFFFF" fill-rule="evenodd"></path>
                        <polygon id="lightning" fill="#FFFFFF" fill-rule="evenodd" points="14.3329095 1 21.1985138 1 13.1082376 8.85284272 21.1985138 9.8895017 2 23.881103 11.5783175 12.3864607 5.60793793 11.881103"></polygon>
                    </g>
                    <path d="M55.96,34.652 C56.884,34.652 57.64,33.908 57.64,32.984 L57.64,31.124 C57.64,30.692 57.448,30.272 57.172,29.984 C57.256,29.804 57.292,29.6 57.292,29.372 L57.292,27.68 C57.292,26.756 56.536,26.012 55.624,26.012 L49,26.012 L49,34.652 L55.96,34.652 Z M55.624,29.456 L50.668,29.456 C50.62,29.456 50.584,29.42 50.584,29.372 L50.584,27.68 C50.584,27.632 50.62,27.596 50.668,27.596 L55.624,27.596 C55.66,27.596 55.696,27.632 55.696,27.68 L55.696,29.372 C55.696,29.42 55.66,29.456 55.624,29.456 Z M55.96,33.068 L50.668,33.068 C50.62,33.068 50.584,33.032 50.584,32.984 L50.584,31.124 C50.584,31.076 50.62,31.052 50.668,31.052 L55.96,31.052 C56.008,31.052 56.044,31.076 56.044,31.124 L56.044,32.984 C56.044,33.032 56.008,33.068 55.96,33.068 Z M68.896,34.652 C69.808,34.652 70.564,33.908 70.564,32.984 L70.564,27.68 C70.564,26.756 69.808,26.012 68.896,26.012 L63.592,26.012 C62.668,26.012 61.924,26.756 61.924,27.68 L61.924,32.984 C61.924,33.908 62.668,34.652 63.592,34.652 L68.896,34.652 Z M68.896,33.068 L63.592,33.068 C63.544,33.068 63.508,33.032 63.508,32.984 L63.508,27.68 C63.508,27.632 63.544,27.596 63.592,27.596 L68.896,27.596 C68.932,27.596 68.968,27.632 68.968,27.68 L68.968,32.984 C68.968,33.032 68.932,33.068 68.896,33.068 Z M83.536,34.652 L83.536,33.068 L76.48,33.068 L76.48,26 L74.896,26 L74.896,34.652 L83.536,34.652 Z M90.124,34.652 L90.124,27.596 L93.64,27.596 L93.64,26.012 L85,26.012 L85,27.596 L88.528,27.596 L88.528,34.652 L90.124,34.652 Z" id="BOLT" fill="#FFFFFF" fill-rule="evenodd"></path>
                </g>
                <g id="Thor/full/dark" transform="translate(207.001000, 54.000000)">
                    <g id="Thor/symbol/dark" transform="translate(16.000000, 16.000000)" stroke-width="1">
                        <g id="Group">
                            <path d="M12.0000229,2 C17.5228346,2 22,6.47716543 22,12.0000229 C22,17.5228804 17.5228346,22 12.0000229,22 C6.47721124,22 2,17.5228346 2,12.0000229 C2,6.47721124 6.47716543,2 12.0000229,2 Z" id="circle" fill-opacity="0.2" fill="#FFFFFF"></path>
                            <rect id="size" x="0" y="0" width="23.9862779" height="23.9798601"></rect>
                            <path d="M22,4 L20.8798794,6.79255401 L16.4954766,11.4221363 L13.3797537,20.8444027 L12,22 L12.9347462,8 L22,4 Z M2,4 L11.0652879,7.99994424 L12,22 L10.6201928,20.844481 L7.50444383,11.4221708 L3.12017189,6.79256698 L2,4 Z" id="wings" fill="#FFFFFF"></path>
                        </g>
                    </g>
                    <path d="M53.124,32.64 L53.124,25.584 L56.64,25.584 L56.64,24 L48,24 L48,25.584 L51.528,25.584 L51.528,32.64 L53.124,32.64 Z M62.136,32.64 L62.136,29.112 L67.8,29.112 L67.8,32.64 L69.384,32.64 L69.384,24 L67.8,24 L67.8,27.528 L62.136,27.528 L62.136,24 L60.552,24 L60.552,32.64 L62.136,32.64 Z M80.7,32.64 C81.612,32.64 82.368,31.896 82.368,30.972 L82.368,25.668 C82.368,24.744 81.612,24 80.7,24 L75.396,24 C74.472,24 73.728,24.744 73.728,25.668 L73.728,30.972 C73.728,31.896 74.472,32.64 75.396,32.64 L80.7,32.64 Z M80.7,31.056 L75.396,31.056 C75.348,31.056 75.312,31.02 75.312,30.972 L75.312,25.668 C75.312,25.62 75.348,25.584 75.396,25.584 L80.7,25.584 C80.736,25.584 80.772,25.62 80.772,25.668 L80.772,30.972 C80.772,31.02 80.736,31.056 80.7,31.056 Z M88.26,32.64 L88.26,29.676 L91.092,29.676 L93.588,32.64 L95.316,32.64 L95.316,32.232 L93.168,29.676 L93.636,29.676 C94.56,29.676 95.316,28.92 95.316,28.008 L95.316,25.68 C95.316,24.768 94.56,24.012 93.636,24.012 L86.676,24.012 L86.676,32.64 L88.26,32.64 Z M93.636,28.092 L88.344,28.092 C88.296,28.092 88.26,28.056 88.26,28.008 L88.26,25.68 C88.26,25.632 88.296,25.596 88.344,25.596 L93.636,25.596 C93.684,25.596 93.72,25.632 93.72,25.68 L93.72,28.008 C93.72,28.056 93.684,28.092 93.636,28.092 Z" id="THOR" fill="#FFFFFF"></path>
                </g>
            </g>
        </g>
    </g>
</svg>