<?xml version="1.0" encoding="utf-8"?>
<!-- Generator: Adobe Illustrator 27.0.0, SVG Export Plug-In . SVG Version: 6.00 Build 0)  -->
<svg version="1.1" id="Layer_1" xmlns="http://www.w3.org/2000/svg" xmlns:xlink="http://www.w3.org/1999/xlink" x="0px" y="0px"
	 viewBox="0 0 106 33" style="enable-background:new 0 0 106 33;" xml:space="preserve">
<style type="text/css">
	.st0{display:none;}
	.st1{display:inline;}
	.st2{fill:#4448AA;}
	.st3{fill-rule:evenodd;clip-rule:evenodd;}
	.st4{fill-rule:evenodd;clip-rule:evenodd;fill-opacity:0.2;}
	.st5{fill:none;}
	.st6{display:inline;fill-rule:evenodd;clip-rule:evenodd;fill:#FFFFFF;}
	.st7{fill-rule:evenodd;clip-rule:evenodd;fill:#FFFFFF;fill-opacity:0.2;}
	.st8{fill-rule:evenodd;clip-rule:evenodd;fill:#FFFFFF;}
</style>
<g id="Page-1" class="st0">
	<g id="Gov-tech:hover" transform="translate(-559.000000, -1220.000000)" class="st1">
		<g id="logos_x2F_light_x2F_rain" transform="translate(559.000000, 1220.000000)">
			
				<image style="overflow:visible;enable-background:new    ;" width="131" height="131" id="Styria" xlink:href="FF83C7A2A30844CA.png"  transform="matrix(0.2444 0 0 0.2444 0.6702 0.4823)">
			</image>
			<path id="RAIN" class="st2" d="M49.2,24v-5.7h2.3l3.4,5.7h2.7l-4-6.3c1.8-0.8,2.8-2,2.8-3.8c0-1.4-0.4-2.4-1.3-3.1s-2.2-1-4.1-1
				l0,0h-4V24H49.2z M50.8,16.4h-1.6v-4.7h1.5c1.1,0,1.9,0.2,2.4,0.5s0.8,0.9,0.8,1.7c0,0.8-0.2,1.4-0.7,1.8
				C52.7,16.2,51.9,16.4,50.8,16.4L50.8,16.4z M65.2,24l1.4-4h5.5l1.4,4H76L70.7,9.7h-2.5L62.8,24H65.2z M71.5,18h-4.2l1.3-3.7
				c0.3-1,0.6-1.8,0.8-2.6c0.1,0.3,0.2,0.7,0.4,1.2s0.3,1,0.4,1.2l0,0L71.5,18z M85.2,24V9.7h-2.3V24H85.2z M96.1,24v-7.4
				c0-1,0-2.1-0.1-3.3l0,0l0-0.6H96l7,11.4h2.9V9.7h-2.1l0,7.7c0,0.5,0,1.2,0.1,2c0,0.8,0.1,1.3,0.1,1.5l0,0.1h-0.1l-7-11.3H94V24
				H96.1z"/>
		</g>
	</g>
</g>
<g id="Rain_x2F_full_x2F_light">
	<g id="Rain_x2F_full_x2F_dark">
		<path id="RAIN_00000106853241355091686730000016237490969779258042_" class="st3" d="M50.1,23.2v-4.3h4.1l3.6,4.3h2.5v-0.6
			l-3.1-3.7h0.7c1.3,0,2.4-1.1,2.4-2.4v-3.4c0-1.3-1.1-2.4-2.4-2.4H47.8v12.5H50.1z M57.8,16.6h-7.7c-0.1,0-0.1-0.1-0.1-0.1v-3.4
			c0-0.1,0.1-0.1,0.1-0.1h7.7c0.1,0,0.1,0.1,0.1,0.1v3.4C58,16.5,57.9,16.6,57.8,16.6z M68.8,23.2V19h7.9v4.2H79V13.1
			c0-1.3-1.1-2.4-2.4-2.4h-7.7c-1.3,0-2.4,1.1-2.4,2.4v10.1H68.8z M76.7,16.7h-7.9v-3.6c0-0.1,0.1-0.1,0.1-0.1h7.7
			c0.1,0,0.1,0.1,0.1,0.1V16.7z M87.6,23.2V10.7h-2.3v12.5H87.6z M95.8,23.2V14l7.7,9.2h2.5V10.7h-2.3v9.2L96,10.7h-2.5v12.5H95.8z"
			/>
		<g id="Rain_x2F_symbol_x2F_light" transform="translate(16.000000, 16.000000)">
			<g id="Rain_x2F_symbol_x2F_dark">
				<path id="circle" class="st4" d="M1.4-14c8,0,14.5,6.5,14.5,14.5S9.4,14.9,1.4,14.9S-13.1,8.5-13.1,0.5S-6.6-14,1.4-14z"/>
				<rect id="size" x="-16" y="-16.9" class="st5" width="34.7" height="34.7"/>
				<polygon id="Path-5" class="st3" points="-4,-8.2 18.7,-8.2 10.7,0.2 10.7,-4.4 -0.9,6.8 1.4,-3.4 -16,15 				"/>
			</g>
		</g>
	</g>
</g>
<g id="Rain_x2F_full_x2F_dark_00000008838379939946261420000007372547676543894446_" class="st0">
	<path id="RAIN_00000085952759488150350900000008933194696763373463_" class="st6" d="M50,23.2v-4.3h4.1l3.6,4.3h2.5v-0.6l-3.1-3.7
		h0.7c1.3,0,2.4-1.1,2.4-2.4v-3.4c0-1.3-1.1-2.4-2.4-2.4H47.7v12.5H50z M57.8,16.6h-7.7c-0.1,0-0.1-0.1-0.1-0.1v-3.4
		c0-0.1,0.1-0.1,0.1-0.1h7.7c0.1,0,0.1,0.1,0.1,0.1v3.4C57.9,16.6,57.9,16.6,57.8,16.6z M68.7,23.2V19h7.9v4.2h2.3V13.1
		c0-1.3-1.1-2.4-2.4-2.4h-7.7c-1.3,0-2.4,1.1-2.4,2.4v10.1H68.7z M76.6,16.7h-7.9v-3.6c0-0.1,0.1-0.1,0.1-0.1h7.7
		c0.1,0,0.1,0.1,0.1,0.1V16.7z M87.5,23.2V10.7h-2.3v12.5H87.5z M95.7,23.2v-9.2l7.7,9.2h2.5V10.7h-2.3v9.2l-7.7-9.2h-2.5v12.5H95.7
		z"/>
	
		<g id="Rain_x2F_symbol_x2F_dark_00000139290358070720741280000015493927363742318756_" transform="translate(16.000000, 16.000000)" class="st1">
		<path id="circle_00000148647605113257481450000013203115078609138101_" class="st7" d="M1.4-13.9c8,0,14.5,6.5,14.5,14.5
			S9.3,15,1.4,15S-13.1,8.5-13.1,0.5S-6.6-13.9,1.4-13.9z"/>
		<rect id="size_00000161594338031760203380000013948110513867927214_" x="-16" y="-16.8" class="st5" width="34.7" height="34.7"/>
		<polygon id="Path-5_00000049189819555277060250000001933889205494162339_" class="st8" points="-4,-8.1 18.7,-8.1 10.7,0.3 
			10.7,-4.3 -0.9,6.8 1.4,-3.3 -16,15 		"/>
	</g>
</g>
</svg>
