<?xml version="1.0" encoding="UTF-8"?>
<svg width="300px" height="305px" viewBox="0 0 300 305" version="1.1" xmlns="http://www.w3.org/2000/svg" xmlns:xlink="http://www.w3.org/1999/xlink">
    <!-- Generator: Sketch 52.6 (67491) - http://www.bohemiancoding.com/sketch -->
    <title>Group 29</title>
    <desc>Created with Sketch.</desc>
    <defs>
        <rect id="path-1" x="0" y="0" width="300" height="225" rx="12"></rect>
        <rect id="path-3" x="0" y="0" width="260" height="195" rx="12"></rect>
    </defs>
    <g id="Page-1" stroke="none" stroke-width="1" fill="none" fill-rule="evenodd">
        <g id="Retail-Page" transform="translate(-169.000000, -4537.000000)">
            <g id="Group-29" transform="translate(168.000000, 4537.000000)">
                <circle id="Oval-Copy" fill="#4D33B7" cx="179.5" cy="222.5" r="82.5"></circle>
                <g id="Group-14" transform="translate(1.000000, 0.000000)">
                    <mask id="mask-2" fill="white">
                        <use xlink:href="#path-1"></use>
                    </mask>
                    <use id="Mask" fill="#15043C" xlink:href="#path-1"></use>
                    <g mask="url(#mask-2)">
                        <g transform="translate(20.000000, 9.000000)">
                            <mask id="mask-4" fill="white">
                                <use xlink:href="#path-3"></use>
                            </mask>
                            <use id="Mask" stroke="none" fill="#15043C" fill-rule="evenodd" xlink:href="#path-3"></use>
                            <g id="Group-14" stroke="none" stroke-width="1" fill="none" fill-rule="evenodd" mask="url(#mask-4)">
                                <g transform="translate(-1.000000, 46.000000)">
                                    <path d="M0,49.3831715 C10.1214128,45.3667745 19.3752759,43.3585761 27.7615894,43.3585761 C40.3410596,43.3585761 50.7516556,52.3954693 57.2582781,49.3831715 C63.7649007,46.3708738 78.9470199,28.6736246 103.672185,22.6490291 C128.397351,16.6244337 127.963576,0.433333333 146.615894,0.433333333 C165.268212,0.433333333 171.774834,37.3339806 180.884106,43.3585761 C189.993377,49.3831715 200.403974,78 211.248344,72.3519417 C222.092715,66.7038835 229.900662,49.3831715 241.612583,58.0435275 C249.42053,63.8170982 256.071744,72.9795038 261.566225,85.5307443 L261.566225,155.566667 L0,155.566667 L0,49.3831715 Z" id="Path-3" fill="#56FAFF"></path>
                                    <path d="M-2.84217094e-14,83.2 C18.218543,78 30.7980132,78 37.7384106,83.2 C48.1490066,91 60.7284768,99.2333333 72.4403974,99.2333333 C84.1523179,99.2333333 106.274834,84.0666667 118.42053,89.2666667 C130.566225,94.4666667 140.543046,84.0666667 152.254967,89.2666667 C163.966887,94.4666667 175.245033,107.9 183.05298,103.566667 C190.860927,99.2333333 198.668874,94.9 205.175497,99.2333333 C211.682119,103.566667 221.225166,107.9 229.033113,103.566667 C236.84106,99.2333333 240.311258,92.3307961 247.68543,92.3307961 C252.601545,92.3307961 257.083885,92.3307961 261.13245,92.3307961 L261.13245,149.933333 L-2.84217094e-14,149.933333" id="Path-4" fill="#F96A00"></path>
                                </g>
                            </g>
                        </g>
                    </g>
                </g>
                <path d="" id="Path-2" stroke="#979797"></path>
            </g>
        </g>
    </g>
</svg>