<?xml version="1.0" encoding="UTF-8"?>
<svg width="70px" height="70px" viewBox="0 0 70 70" version="1.1" xmlns="http://www.w3.org/2000/svg" xmlns:xlink="http://www.w3.org/1999/xlink">
    <!-- Generator: Sketch 64 (93537) - https://sketch.com -->
    <title>recomendations</title>
    <desc>Created with Sketch.</desc>
    <g id="Page-1" stroke="none" stroke-width="1" fill="none" fill-rule="evenodd">
        <g id="Thor" transform="translate(-936.000000, -4413.000000)">
            <g id="use-cases-section" transform="translate(0.000000, 4241.000000)">
                <g id="recomendations" transform="translate(936.000000, 172.000000)">
                    <g id="Group-6-Copy-3" fill="#120033">
                        <rect id="Rectangle-Copy-3" x="0" y="0" width="70" height="70" rx="8"></rect>
                    </g>
                    <g id="like" transform="translate(21.000000, 21.000000)" fill="#FFFFFF" fill-rule="nonzero">
                        <g id="Group_636" transform="translate(-0.000055, 5.031250)">
                            <g id="Group_635">
                                <path d="M26.3594369,10.6640625 C26.357838,9.30556141 25.2569386,8.20466202 23.8984375,8.203125 L20.2435078,8.203125 C20.6963203,6.97883594 20.9771406,5.52464062 21.1413125,4.42307031 C21.3078779,3.31477966 20.9833397,2.18891294 20.2524055,1.33933221 C19.5214713,0.489751476 18.4566746,0.000763919125 17.3359375,7.77156117e-16 C16.8828914,7.77156117e-16 16.515625,0.367266416 16.515625,0.8203125 C16.515625,2.80202344 15.3767578,5.79364844 14.0476875,6.46001563 C12.5516563,7.20994531 9.60859375,8.04103125 9.02239844,8.203125 L0.8203125,8.203125 C0.367266416,8.203125 0,8.57039142 0,9.0234375 L0,20.5078125 C0,20.9608586 0.367266416,21.328125 0.8203125,21.328125 L3.28125,21.328125 L3.28125,22.1484375 C3.28125,22.6014836 3.64851642,22.96875 4.1015625,22.96875 L7.4921875,22.96875 C8.46493961,22.9676459 9.34599624,22.3943442 9.74104688,21.5054219 L15.4963594,22.94425 C15.5614287,22.9605052 15.6282435,22.96875 15.6953125,22.96875 L20.6171875,22.96875 C21.4324069,22.96875 22.1947326,22.5650881 22.6528562,21.8907696 C23.1109797,21.2164511 23.2054387,20.3590241 22.9050938,19.6011484 C23.580649,19.4168687 24.1457399,18.9535807 24.458896,18.3272683 C24.7720522,17.700956 24.8036281,16.9709105 24.5457188,16.3198984 C25.3688715,16.0958272 26.0171417,15.4612376 26.2587164,14.6430506 C26.5002911,13.8248637 26.3006698,12.9399289 25.7312344,12.3046875 C26.1361294,11.8542061 26.3598932,11.2697631 26.3594369,10.6640625 L26.3594369,10.6640625 Z M3.28125,19.6875 L1.640625,19.6875 L1.640625,9.84375 L3.28125,9.84375 L3.28125,19.6875 Z M8.3125,20.5078125 C8.31198766,20.9606462 7.9450212,21.3276127 7.4921875,21.328125 L4.921875,21.328125 L4.921875,9.84375 L8.3125,9.84375 L8.3125,20.5078125 Z M18.9765625,13.125 L23.8984375,13.125 C24.3514836,13.125 24.71875,13.4922664 24.71875,13.9453125 C24.71875,14.3983586 24.3514836,14.765625 23.8984375,14.765625 L18.9765625,14.765625 C18.5235164,14.765625 18.15625,15.1328914 18.15625,15.5859375 C18.15625,16.0389836 18.5235164,16.40625 18.9765625,16.40625 L22.2578125,16.40625 C22.7108586,16.40625 23.078125,16.7735164 23.078125,17.2265625 C23.078125,17.6796086 22.7108586,18.046875 22.2578125,18.046875 L18.9765625,18.046875 C18.5235164,18.046875 18.15625,18.4141414 18.15625,18.8671875 C18.15625,19.3202336 18.5235164,19.6875 18.9765625,19.6875 L20.6171875,19.6875 C21.0702336,19.6875 21.4375,20.0547664 21.4375,20.5078125 C21.4375,20.9608586 21.0702336,21.328125 20.6171875,21.328125 L15.7963203,21.328125 L9.953125,19.8673672 L9.953125,9.6455625 C11.0598906,9.32777344 13.4074609,8.61623438 14.7829063,7.92667969 C16.6668906,6.98217188 17.8205234,3.99464844 18.0934141,1.77466406 C19.0795739,2.13659262 19.6751903,3.14216101 19.5186797,4.18091406 C19.130125,6.78699219 18.6426953,7.85673438 18.242875,8.65632031 C18.1156084,8.91062622 18.1291288,9.21270354 18.2786056,9.45462289 C18.4280825,9.69654224 18.692189,9.84378775 18.9765625,9.84375 L23.8984375,9.84375 C24.3514836,9.84375 24.71875,10.2110164 24.71875,10.6640625 C24.71875,11.1171086 24.3514836,11.484375 23.8984375,11.484375 L18.9765625,11.484375 C18.5235164,11.484375 18.15625,11.8516414 18.15625,12.3046875 C18.15625,12.7577336 18.5235164,13.125 18.9765625,13.125 Z" id="Path_1067"></path>
                            </g>
                        </g>
                        <g id="Group_638" transform="translate(17.335883, 0.000000)">
                            <g id="Group_637">
                                <path d="M0.8203125,0 C0.367266416,0 0,0.367266416 0,0.8203125 L0,2.5703125 C0,3.02335858 0.367266416,3.390625 0.8203125,3.390625 C1.27335858,3.390625 1.640625,3.02335858 1.640625,2.5703125 L1.640625,0.8203125 C1.640625,0.367266416 1.27335858,0 0.8203125,0 Z" id="Path_1068"></path>
                            </g>
                        </g>
                        <g id="Group_640" transform="translate(10.937445, 2.734375)">
                            <g id="Group_639">
                                <path d="M2.57835156,1.41826563 L1.41826563,0.258179687 C1.0975097,-0.059778959 0.580074793,-0.0586459011 0.260714446,0.260714446 C-0.0586459011,0.580074793 -0.059778959,1.0975097 0.258179688,1.41826563 L1.41826563,2.57835156 C1.62518996,2.78709634 1.92798371,2.86917795 2.21200447,2.79351904 C2.49602522,2.71786013 2.71786013,2.49602522 2.79351904,2.21200447 C2.86917795,1.92798371 2.78709634,1.62518996 2.57835156,1.41826563 Z" id="Path_1069"></path>
                            </g>
                        </g>
                        <g id="Group_642" transform="translate(8.312445, 9.132812)">
                            <g id="Group_641">
                                <path d="M2.4609375,0 L0.8203125,0 C0.367266416,0 0,0.367266416 0,0.8203125 C0,1.27335858 0.367266416,1.640625 0.8203125,1.640625 L2.4609375,1.640625 C2.91398358,1.640625 3.28125,1.27335858 3.28125,0.8203125 C3.28125,0.367266416 2.91398358,0 2.4609375,0 Z" id="Path_1070"></path>
                            </g>
                        </g>
                        <g id="Group_644" transform="translate(24.718695, 9.132812)">
                            <g id="Group_643">
                                <path d="M2.4609375,0 L0.8203125,0 C0.367266416,0 0,0.367266416 0,0.8203125 C0,1.27335858 0.367266416,1.640625 0.8203125,1.640625 L2.4609375,1.640625 C2.91398358,1.640625 3.28125,1.27335858 3.28125,0.8203125 C3.28125,0.367266416 2.91398358,0 2.4609375,0 Z" id="Path_1071"></path>
                            </g>
                        </g>
                        <g id="Group_646" transform="translate(22.531195, 2.734375)">
                            <g id="Group_645">
                                <path d="M2.58557031,0.258179687 C2.26521963,-0.0621648537 1.74583506,-0.0621648537 1.42548437,0.258179687 L0.265398438,1.41826562 C-0.052560209,1.73902155 -0.0514271511,2.25645646 0.267933196,2.5758168 C0.587293543,2.89517715 1.10472845,2.89631021 1.42548438,2.57835156 L2.58557031,1.41826562 C2.90591485,1.09791494 2.90591485,0.578530373 2.58557031,0.258179687 Z" id="Path_1072"></path>
                            </g>
                        </g>
                    </g>
                </g>
            </g>
        </g>
    </g>
</svg>