<?xml version="1.0" encoding="UTF-8"?>
<svg width="70px" height="70px" viewBox="0 0 70 70" version="1.1" xmlns="http://www.w3.org/2000/svg" xmlns:xlink="http://www.w3.org/1999/xlink">
    <!-- Generator: Sketch 64 (93537) - https://sketch.com -->
    <title>Reservations</title>
    <desc>Created with Sketch.</desc>
    <g id="Page-1" stroke="none" stroke-width="1" fill="none" fill-rule="evenodd">
        <g id="Thor" transform="translate(-533.000000, -4539.000000)">
            <g id="use-cases-section" transform="translate(0.000000, 4241.000000)">
                <g id="Reservations" transform="translate(533.000000, 298.000000)">
                    <g id="Group-6-Copy-5" fill="#120033">
                        <rect id="Rectangle-Copy-3" x="0" y="0" width="70" height="70" rx="8"></rect>
                    </g>
                    <g id="reservation" transform="translate(21.000000, 29.000000)" fill="#FFFFFF" fill-rule="nonzero">
                        <path d="M27.9248047,8.60456075 L25.9936797,1.77571963 C25.7203516,0.729011363 24.7957407,0.000825006059 23.7389688,0 L4.08335156,0 C3.90657166,0 3.7393648,0.0823564112 3.62873438,0.223738318 C3.60685938,0.251775701 0.24040625,6.57140187 0.24040625,6.57140187 C-0.0928847983,7.20001018 -0.0787179506,7.96212918 0.277692632,8.5772581 C0.634103214,9.19238701 1.28008532,9.5696189 1.97788281,9.57011215 L5.43046875,9.57011215 L5.54290625,10.0888037 C5.7752824,11.1864633 6.72488921,11.9678001 7.8203125,11.9626795 C7.82714844,11.9626795 7.83283594,11.9626795 7.83967188,11.9620935 L25.8694844,11.3645047 C26.5336008,11.3644692 27.1597207,11.046906 27.5627656,10.5056856 C27.9658105,9.96446516 28.0996807,9.26149148 27.9248047,8.60456075 Z M1.97788281,8.37386916 C1.53003062,8.3734981 1.167065,8.00132508 1.16670313,7.54211215 C1.16687532,7.4031491 1.20054015,7.26638374 1.26470313,7.14398131 L3.85082031,2.28319626 L5.17108594,8.37386916 L1.97788281,8.37386916 Z M25.850125,10.1688224 L7.81238281,10.7663551 C7.26769104,10.7653126 6.79726454,10.3753543 6.68215625,9.82945794 L4.81020313,1.19629907 L23.7389141,1.19629907 C24.2713784,1.19809006 24.7356849,1.56786361 24.8691406,2.09641121 L26.8014141,8.92816822 C26.8230795,9.01023247 26.8338046,9.0949276 26.8333141,9.17994393 C26.8317311,9.44505991 26.7270415,9.69857192 26.5424583,9.88422649 C26.3578751,10.0698811 26.1086643,10.1723236 25.850125,10.1688224 L25.850125,10.1688224 Z" id="Path_1078"></path>
                        <path d="M21.5400391,4.30026168 L9.97248438,4.67119626 C9.6539484,4.68119888 9.40222893,4.95153351 9.40714719,5.27826288 C9.41221137,5.60499225 9.67206477,5.86711041 9.99075,5.86687866 L10.0089609,5.86687866 L21.5765156,5.49538318 C21.731202,5.49065351 21.8777012,5.4230292 21.9837076,5.30742256 C22.089714,5.19181592 22.1465209,5.03772213 22.1416016,4.8791215 C22.131375,4.54968224 21.8716094,4.26757009 21.5400391,4.30026168 Z" id="Path_1079"></path>
                        <path d="M19.8139922,6.78566355 L11.6951953,7.04500935 C11.37651,7.05501437 11.1246707,7.32547381 11.129589,7.65235633 C11.1346531,7.97923886 11.3946264,8.24148184 11.7134609,8.24125249 C11.7189297,8.24125249 11.7259844,8.24125249 11.7316719,8.24069159 L19.8504688,7.98134579 C20.172626,7.97100877 20.4256186,7.69485334 20.4155547,7.36452336 C20.4138785,7.20485717 20.3487299,7.05280704 20.2351767,6.9435393 C20.1216236,6.83427156 19.969501,6.77725033 19.8139922,6.78566355 L19.8139922,6.78566355 Z" id="Path_1080"></path>
                    </g>
                </g>
            </g>
        </g>
    </g>
</svg>