<?xml version="1.0" encoding="UTF-8"?>
<svg width="55px" height="65px" viewBox="0 0 55 65" version="1.1" xmlns="http://www.w3.org/2000/svg" xmlns:xlink="http://www.w3.org/1999/xlink">
    <!-- Generator: Sketch 52.6 (67491) - http://www.bohemiancoding.com/sketch -->
    <title>Group 7</title>
    <desc>Created with Sketch.</desc>
    <g id="Page-1" stroke="none" stroke-width="1" fill="none" fill-rule="evenodd">
        <g id="Home-page" transform="translate(-185.000000, -2348.000000)">
            <g id="Group-7" transform="translate(186.000000, 2349.000000)">
                <path d="M0,0 L6.95399134,3.1292961 C9.10709561,4.09819302 10.4918033,6.23976198 10.4918033,8.60082514 L10.4918033,45.9344262 C10.4918033,49.2481347 13.1780948,51.9344262 16.4918033,51.9344262 L51.4098361,51.9344262" id="Path-9" stroke="#FFFFFF" stroke-width="2" stroke-linecap="round"></path>
                <path d="M11.0163934,14.6885246 L50.7101768,19.7130541 C51.7096609,19.8395711 52.4590164,20.6897613 52.4590164,21.6972211 L52.4590164,33.3442623 C52.4590164,36.6579708 49.7727249,39.3442623 46.4590164,39.3442623 L17.0163934,39.3442623 C13.7026849,39.3442623 11.0163934,36.6579708 11.0163934,33.3442623 L11.0163934,14.6885246 Z" id="Path-10" stroke="#FFFFFF" stroke-width="2"></path>
                <circle id="Oval" stroke="#FFFFFF" stroke-width="2" cx="45.1147541" cy="57.704918" r="5.29508197"></circle>
                <circle id="Oval-Copy-2" stroke="#FFFFFF" stroke-width="2" cx="19.9344262" cy="57.704918" r="5.29508197"></circle>
                <path d="" id="Path-11" stroke="#979797"></path>
            </g>
        </g>
    </g>
</svg>