<?xml version="1.0" encoding="UTF-8"?>
<svg width="300px" height="225px" viewBox="0 0 300 225" version="1.1" xmlns="http://www.w3.org/2000/svg" xmlns:xlink="http://www.w3.org/1999/xlink">
    <!-- Generator: Sketch 52.6 (67491) - http://www.bohemiancoding.com/sketch -->
    <title>Group 20 Copy</title>
    <desc>Created with Sketch.</desc>
    <defs>
        <rect id="path-1" x="0" y="0" width="300" height="225" rx="12"></rect>
        <rect id="path-3" x="0" y="0" width="252" height="189" rx="12"></rect>
        <polygon id="path-5" points="0 0.733889873 251.999832 0.733889873 251.999832 94.919748 0 94.919748"></polygon>
    </defs>
    <g id="Page-1" stroke="none" stroke-width="1" fill="none" fill-rule="evenodd">
        <g id="Retail-Page" transform="translate(-507.000000, -4940.000000)">
            <g id="Group-20-Copy" transform="translate(507.000000, 4940.000000)">
                <mask id="mask-2" fill="white">
                    <use xlink:href="#path-1"></use>
                </mask>
                <use id="Mask" fill="#15043C" xlink:href="#path-1"></use>
                <g id="Group-20" mask="url(#mask-2)">
                    <g transform="translate(24.000000, 18.000000)">
                        <mask id="mask-4" fill="white">
                            <use xlink:href="#path-3"></use>
                        </mask>
                        <use id="Mask" stroke="none" fill="#15043C" fill-rule="evenodd" xlink:href="#path-3"></use>
                        <g id="Group-20" stroke="none" stroke-width="1" fill="none" fill-rule="evenodd" mask="url(#mask-4)">
                            <polygon id="Fill-1" fill-opacity="0.17" fill="#D7F3FF" points="78.19392 188.11968 125.33052 188.11968 125.33052 0 78.19392 0"></polygon>
                            <g id="Group-19" transform="translate(0.000000, 34.440000)">
                                <g id="Group-4" transform="translate(0.000000, 59.640000)">
                                    <mask id="mask-6" fill="white">
                                        <use xlink:href="#path-5"></use>
                                    </mask>
                                    <g id="Clip-3"></g>
                                    <path d="M251.999832,80.42 L252,94.919748 L-0.000168,94.919748 L-0.000168,65.897748 C-0.000168,65.897748 8.792112,50.941548 11.428032,50.941548 C14.065632,50.941548 15.829632,65.897748 27.257832,72.053268 C38.696112,78.208788 40.460112,66.771348 45.733632,65.897748 C51.007152,65.015748 52.770312,78.316308 56.289912,73.861788 C59.807832,69.416508 70.364952,76.624548 75.637632,74.779908 C76.385232,74.518668 77.248752,72.880668 78.193752,70.262388 C83.880552,54.495588 92.718192,3.065748 100.268112,0.806988 C108.853752,-1.766772 119.121912,64.439508 125.330352,70.820148 C125.484072,70.973868 125.627712,71.089788 125.772192,71.171268 C131.927712,74.689188 138.083232,75.482148 145.119912,75.085668 C152.157432,74.689188 152.157432,79.090788 160.958112,79.963548 C169.750392,80.845548 173.848184,54.99043 185.580192,56.223468 C195.723451,57.2895279 197.30471,73.6511014 202,77.92 C203.56932,79.3468058 204.5,72.053268 209.5,72.053268 C214.5,72.053268 214.354308,76.8269862 216.5,76.92 C225.632333,77.3158783 221.225794,74.8785805 227,75.085668 C230.852016,75.2238176 231.853355,77.4924658 235,77.92 C244.181003,79.1674214 250,78.92 251.999832,79.42 L251.999832,80.42 Z" id="Fill-2" fill="#56FAFF" mask="url(#mask-6)"></path>
                                </g>
                                <path d="M125.33052,130.460232 L125.33052,153.680352 L78.19392,153.680352 L78.19392,129.902472 C83.88072,114.135672 92.71836,62.705832 100.26828,60.447072 C108.85392,57.873312 119.12124,124.079592 125.33052,130.460232" id="Fill-5" fill="#F96A00"></path>
                                <path d="M219.17028,47.223456 C213.97068,58.235856 202.76592,65.845416 189.77952,65.845416 C171.83628,65.845416 157.27908,51.297456 157.27908,33.346656 C157.27908,15.404256 171.83628,0.847056 189.77952,0.847056 C207.73032,0.847056 222.27912,15.404256 222.27912,33.346656 C222.27912,38.310216 221.16192,43.015056 219.17028,47.223456 Z" id="Fill-7" fill="#56FAFF"></path>
                                <path d="M219.170112,47.22312 C213.971352,58.23552 202.765752,65.84592 189.779352,65.84592 L189.779352,33.34632 L219.170112,47.22312 Z" id="Fill-9" fill="#F96A00"></path>
                                <path d="M189.779184,0.00672 L189.779184,5.4306" id="Stroke-11" stroke="#29ABE2"></path>
                                <path d="M189.779184,61.854996 L189.779184,67.278876" id="Stroke-13" stroke="#29ABE2"></path>
                                <path d="M156.988776,33.346656 L162.412656,33.346656" id="Stroke-15" stroke="#29ABE2"></path>
                                <path d="M217.299012,33.346656 L222.722052,33.346656" id="Stroke-17" stroke="#29ABE2"></path>
                            </g>
                        </g>
                    </g>
                </g>
            </g>
        </g>
    </g>
</svg>