<?xml version="1.0" encoding="UTF-8"?>
<svg width="139px" height="38px" viewBox="0 0 139 38" version="1.1" xmlns="http://www.w3.org/2000/svg" xmlns:xlink="http://www.w3.org/1999/xlink">
    <title>logos/dark/thor</title>
    <g id="Page-1" stroke="none" stroke-width="1" fill="none" fill-rule="evenodd">
        <g id="Gov-tech" transform="translate(-162.000000, -1574.000000)">
            <g id="logos/dark/thor" transform="translate(162.000000, 1574.000000)">
                <g id="Thor">
                    <rect id="size" x="0" y="0" width="38" height="38"></rect>
                    <path d="M19.0000367,3 C27.8365353,3 35,10.1634647 35,19.0000367 C35,27.8366086 27.8365353,35 19.0000367,35 C10.163538,35 3,27.8365353 3,19.0000367 C3,10.163538 10.1634647,3 19.0000367,3 Z" id="circle" fill="#FFFFFF" fill-rule="nonzero" opacity="0.2"></path>
                    <polygon id="wing_2" fill="#FFFFFF" fill-rule="nonzero" points="37 6 35.0957949 10.9645405 27.6423103 19.194909 22.3455813 35.9456048 20 38 21.5890685 13.1111276"></polygon>
                    <polygon id="wing_1" fill="#FFFFFF" fill-rule="nonzero" points="1 6 2.90429221 10.9645635 10.3575545 19.1949703 15.6543278 35.945744 18 38 16.4109894 13.111012"></polygon>
                </g>
                <path d="M61.94,27 L61.94,15.24 L67.8,15.24 L67.8,12.6 L53.4,12.6 L53.4,15.24 L59.28,15.24 L59.28,27 L61.94,27 Z M76.96,27 L76.96,21.12 L86.4,21.12 L86.4,27 L89.04,27 L89.04,12.6 L86.4,12.6 L86.4,18.48 L76.96,18.48 L76.96,12.6 L74.32,12.6 L74.32,27 L76.96,27 Z M107.9,27 C109.42,27 110.68,25.76 110.68,24.22 L110.68,15.38 C110.68,13.84 109.42,12.6 107.9,12.6 L99.06,12.6 C97.52,12.6 96.28,13.84 96.28,15.38 L96.28,24.22 C96.28,25.76 97.52,27 99.06,27 L107.9,27 Z M107.9,24.36 L99.06,24.36 C98.98,24.36 98.92,24.3 98.92,24.22 L98.92,15.38 C98.92,15.3 98.98,15.24 99.06,15.24 L107.9,15.24 C107.96,15.24 108.02,15.3 108.02,15.38 L108.02,24.22 C108.02,24.3 107.96,24.36 107.9,24.36 Z M120.5,27 L120.5,22.06 L125.22,22.06 L129.38,27 L132.26,27 L132.26,26.32 L128.68,22.06 L129.46,22.06 C131,22.06 132.26,20.8 132.26,19.28 L132.26,15.4 C132.26,13.88 131,12.62 129.46,12.62 L117.86,12.62 L117.86,27 L120.5,27 Z M129.46,19.42 L120.64,19.42 C120.56,19.42 120.5,19.36 120.5,19.28 L120.5,15.4 C120.5,15.32 120.56,15.26 120.64,15.26 L129.46,15.26 C129.54,15.26 129.6,15.32 129.6,15.4 L129.6,19.28 C129.6,19.36 129.54,19.42 129.46,19.42 Z" id="THOR" fill-opacity="0.87" fill="#FFFFFF" fill-rule="nonzero"></path>
            </g>
        </g>
    </g>
</svg>