<?xml version="1.0" encoding="UTF-8"?>
<svg width="97px" height="33px" viewBox="0 0 97 33" version="1.1" xmlns="http://www.w3.org/2000/svg" xmlns:xlink="http://www.w3.org/1999/xlink">
    <title>logos/light/tring</title>
    <g id="Page-1" stroke="none" stroke-width="1" fill="none" fill-rule="evenodd" fill-opacity="0.87">
        <g id="Gov-tech:hover" transform="translate(-968.000000, -1577.000000)" fill="#000000" fill-rule="nonzero">
            <path d="M1059.38423,1591 C1061.30652,1591 1063.12808,1591.37081 1064.8489,1592.11244 L1064.8489,1592.11244 L1063.79122,1594.62808 L1063.41768,1594.46251 C1062.04801,1593.88183 1060.67835,1593.59148 1059.30868,1593.59148 C1057.34442,1593.59148 1055.79148,1594.21091 1054.64986,1595.44977 C1053.50824,1596.68862 1052.93743,1598.38257 1052.93743,1600.5316 C1052.93743,1602.7902 1053.45158,1604.50732 1054.47988,1605.68297 C1055.50818,1606.85862 1056.98767,1607.44644 1058.91835,1607.44644 C1059.89209,1607.44644 1060.93298,1607.32424 1062.04102,1607.07984 L1062.04102,1607.07984 L1062.04102,1602.31404 L1058.22582,1602.31404 L1058.22582,1599.72255 L1065,1599.72255 L1065,1609.00133 L1064.44965,1609.17375 C1063.53852,1609.44647 1062.658,1609.64604 1061.80808,1609.77246 C1060.78817,1609.92415 1059.68643,1610 1058.50283,1610 C1055.71594,1610 1053.567,1609.17199 1052.05603,1607.51597 C1050.54507,1605.85995 1049.78958,1603.5234 1049.78958,1600.50632 C1049.78958,1597.53138 1050.6416,1595.20326 1052.34564,1593.52196 C1054.04967,1591.84065 1056.39587,1591 1059.38423,1591 Z M981.837956,1591.26547 L981.837956,1593.85695 L976.423651,1593.85695 L976.423651,1609.74717 L973.414305,1609.74717 L973.414305,1593.85695 L968,1593.85695 L968,1591.26547 L981.837956,1591.26547 Z M995.231016,1591.26547 L995.621233,1591.2696 C997.80009,1591.31648 999.428617,1591.76176 1000.50681,1592.60546 C1001.64844,1593.49878 1002.21925,1594.84719 1002.21925,1596.6507 C1002.21925,1598.95143 1001.02726,1600.5906 998.643287,1601.5682 L998.643287,1601.5682 L1003.84354,1609.74717 L1000.41868,1609.74717 L996.011683,1602.3646 L993.040111,1602.3646 L993.040111,1609.74717 L990.030765,1609.74717 L990.030765,1591.26547 L995.231016,1591.26547 Z M1014.8946,1591.26547 L1014.8946,1609.74717 L1011.88525,1609.74717 L1011.88525,1591.26547 L1014.8946,1591.26547 Z M1028.77872,1591.26547 L1037.80676,1605.91683 L1037.88231,1605.91683 L1037.87873,1605.87124 C1037.86097,1605.62661 1037.82858,1604.936 1037.78158,1603.7994 C1037.73121,1602.58161 1037.70603,1601.6314 1037.70603,1600.94877 L1037.70603,1591.26547 L1040.46355,1591.26547 L1040.46355,1609.74717 L1036.77426,1609.74717 L1027.72104,1595.01996 L1027.62031,1595.01996 L1027.68327,1595.84165 L1027.73004,1596.50519 C1027.81638,1597.81577 1027.85955,1599.02728 1027.85955,1600.13972 L1027.85955,1600.13972 L1027.85955,1609.74717 L1025.12721,1609.74717 L1025.12721,1591.26547 L1028.77872,1591.26547 Z M995.029553,1593.81903 L993.040111,1593.81903 L993.040111,1599.86161 L995.130284,1599.86161 C996.532128,1599.86161 997.547834,1599.60035 998.177405,1599.07784 C998.806975,1598.55533 999.12176,1597.78 999.12176,1596.75183 C999.12176,1595.70681 998.781792,1594.95675 998.101856,1594.50166 C997.42192,1594.04657 996.397819,1593.81903 995.029553,1593.81903 L995.029553,1593.81903 Z M1013.5,1587 C1014.76177,1587 1015.86118,1587.34809 1016.77533,1588.04011 L1017,1588.22028 L1016.2212,1589 C1015.48041,1588.37145 1014.58304,1588.05981 1013.5,1588.05981 C1012.50721,1588.05981 1011.67044,1588.32167 1010.96727,1588.84946 L1010.7788,1589 L1010,1588.22028 C1010.95671,1587.40852 1012.13308,1587 1013.5,1587 Z M1013,1582 C1015.34137,1582 1017.27478,1582.68504 1018.76791,1584.05281 L1019,1584.27445 L1018.18787,1585 C1016.88387,1583.70236 1015.16714,1583.05489 1013,1583.05489 C1010.95325,1583.05489 1009.30827,1583.63242 1008.03329,1584.78975 L1007.81213,1585 L1007,1584.27445 C1008.52283,1582.75905 1010.5354,1582 1013,1582 Z M1014,1577 C1018.32249,1577 1021.90342,1578.33515 1024.71219,1581.00126 L1025,1581.28181 L1024.23791,1582 C1021.59289,1579.35266 1018.19155,1578.03131 1014,1578.03131 C1009.95299,1578.03131 1006.64262,1579.26311 1004.03841,1581.73087 L1003.76209,1582 L1003,1581.28181 C1005.8505,1578.42881 1009.52846,1577 1014,1577 Z" id="logos/light/tring"></path>
        </g>
    </g>
</svg>