<?xml version="1.0" encoding="UTF-8"?>
<svg width="513px" height="590px" viewBox="0 0 513 590" version="1.1" xmlns="http://www.w3.org/2000/svg" xmlns:xlink="http://www.w3.org/1999/xlink">
    <title>LEAD Graphic</title>
    <defs>
        <linearGradient x1="49.9996071%" y1="0.210517477%" x2="49.9996071%" y2="78.0773209%" id="linearGradient-1">
            <stop stop-color="#662D91" offset="0%"></stop>
            <stop stop-color="#290175" offset="55%"></stop>
        </linearGradient>
        <linearGradient x1="54.8824514%" y1="61.0328868%" x2="58.4975148%" y2="17.9292214%" id="linearGradient-2">
            <stop stop-color="#290175" offset="0%"></stop>
            <stop stop-color="#2337A5" offset="100%"></stop>
        </linearGradient>
        <linearGradient x1="20.5161074%" y1="37.0829546%" x2="50%" y2="100%" id="linearGradient-3">
            <stop stop-color="#FDA300" offset="0%"></stop>
            <stop stop-color="#F96A00" offset="100%"></stop>
        </linearGradient>
        <linearGradient x1="26.3039494%" y1="36.8960081%" x2="86.9419021%" y2="81.2881786%" id="linearGradient-4">
            <stop stop-color="#2F1878" offset="0%"></stop>
            <stop stop-color="#58238A" offset="100%"></stop>
        </linearGradient>
    </defs>
    <g id="LEAD-marketing-" stroke="none" stroke-width="1" fill="none" fill-rule="evenodd">
        <g id="Home-Page" transform="translate(-786.000000, -133.000000)">
            <g id="LEAD-Graphic" transform="translate(786.198395, 133.000000)">
                <path d="M497.899189,21.8660553 L476.531085,388.157722 L475.449777,406.625951 L473.91383,433.022305 L465.926902,569.877722 C465.595035,575.554636 462.938274,580.843588 458.582799,584.498006 C454.227323,588.152425 448.558438,589.849026 442.912261,589.18793 L76.4719997,546.308451 C66.5686622,545.151195 58.9064413,537.080432 58.2618036,527.127305 L44.4014115,313.338347 L28.845333,73.3927219 C28.1374716,62.4485561 36.1028487,52.8588638 46.9879474,51.5504303 L474.823111,0.146680273 C480.895893,-0.580713559 486.978675,1.42149641 491.43309,5.61402488 C495.887505,9.80655336 498.255472,15.7582501 497.899189,21.8660553 Z" id="Path" fill="url(#linearGradient-1)" transform="translate(263.367961, 294.664040) scale(-1, 1) translate(-263.367961, -294.664040) "></path>
                <g id="Group" opacity="0.31" transform="translate(282.394091, 111.926576) scale(-1, 1) translate(-282.394091, -111.926576) translate(79.894091, 47.426576)" fill="#7D66DE">
                    <ellipse id="Oval" cx="342.841961" cy="126.456667" rx="2.02130719" ry="2.02197917"></ellipse>
                    <ellipse id="Oval" cx="385.049804" cy="109.106979" rx="2.02130719" ry="2.02197917"></ellipse>
                    <ellipse id="Oval" cx="389.669935" cy="27.5640625" rx="2.02130719" ry="2.02197917"></ellipse>
                    <ellipse id="Oval" cx="338.793203" cy="103.907604" rx="2.02130719" ry="2.02197917"></ellipse>
                    <ellipse id="Oval" cx="39.3202614" cy="25.2532292" rx="2.02130719" ry="2.02197917"></ellipse>
                    <ellipse id="Oval" cx="183.275425" cy="102.168333" rx="2.02130719" ry="2.02197917"></ellipse>
                    <ellipse id="Oval" cx="157.840131" cy="64.0027083" rx="2.02130719" ry="2.02197917"></ellipse>
                    <ellipse id="Oval" cx="84.9932026" cy="22.93625" rx="2.02130719" ry="2.02197917"></ellipse>
                    <ellipse id="Oval" cx="115.054771" cy="6.16427083" rx="2.02130719" ry="2.02197917"></ellipse>
                    <ellipse id="Oval" cx="253.228627" cy="2.1203125" rx="2.02130719" ry="2.02197917"></ellipse>
                    <ellipse id="Oval" cx="106.963399" cy="49.5415625" rx="2.02130719" ry="2.02197917"></ellipse>
                    <ellipse id="Oval" cx="2.31620915" cy="29.8810417" rx="2.02130719" ry="2.02197917"></ellipse>
                    <ellipse id="Oval" cx="195.993072" cy="42.6029167" rx="2.02130719" ry="2.02197917"></ellipse>
                    <ellipse id="Oval" cx="276.353856" cy="104.485312" rx="2.02130719" ry="2.02197917"></ellipse>
                    <ellipse id="Oval" cx="211.026928" cy="75.5691667" rx="2.02130719" ry="2.02197917"></ellipse>
                    <ellipse id="Oval" cx="402.393725" cy="59.9526042" rx="2.02130719" ry="2.02197917"></ellipse>
                </g>
                <path d="M481.363639,311.032662 L467.562309,569.854798 C467.229956,575.538348 464.569304,580.833482 460.207451,584.492172 C455.845597,588.150863 450.168409,589.849447 444.513964,589.187578 L77.5370646,546.257977 C67.6192241,545.099368 59.945782,537.019171 59.3002003,527.05441 L45.4195102,313.015552 C45.4195102,313.015552 84.3851178,293.528947 115.419782,293.528947 C160.002885,293.528947 173.317519,347.374001 235.269943,350.265919 C344.586531,355.379076 325.906666,307.42246 357.433553,307.42246 C393.335072,307.440919 422.309178,404.250873 481.363639,311.032662 Z" id="Path" fill="url(#linearGradient-2)" transform="translate(263.391575, 441.428419) scale(-1, 1) translate(-263.391575, -441.428419) "></path>
                <g id="undraw_powerful_re_frhr" transform="translate(187.801605, 260.000000)" fill-rule="nonzero">
                    <circle id="Oval" fill="url(#linearGradient-3)" cx="89.5" cy="89.5" r="89.5"></circle>
                    <path d="M96.7981792,124.953313 C104.568241,120.670623 114.238622,121.530122 122.610365,124.458216 C130.982109,127.386311 138.568584,132.183401 146.698375,135.731513 C171.541506,146.57389 201.484028,144.825592 224.904625,131.16516 C227.119657,136.332197 224.743417,142.242424 222.133186,147.220406 C219.522955,152.198388 216.548059,157.593795 217.622567,163.113885 C218.997559,170.17768 226.382614,174.412824 229.374913,180.954507 C232.215446,187.164384 230.690811,194.456988 228.511648,200.930119 C226.332486,207.403251 223.504589,213.924877 223.87488,220.746862 C224.245171,227.568848 229.187359,234.782582 236,234.787977 C225.903881,236.36118 215.609147,237.935477 205.519162,236.323211 C195.429176,234.710946 185.392309,229.3594 180.707449,220.253592 C178.365811,215.702224 177.46313,210.469163 174.773877,206.115299 C170.193324,198.699448 161.402573,195.212094 153.108299,192.583757 C144.814025,189.955421 135.937867,187.423557 130.09804,180.95845 C124.533752,174.798401 122.771342,166.217357 119.823296,158.449228 C114.858285,145.445376 106.234682,134.16723 95,125.984751" id="Path" fill="url(#linearGradient-4)"></path>
                    <path d="M106.386953,92.4341355 C103.638486,91.1503402 100.264019,90.7294764 97.4673832,91.9224138 C94.6707478,93.1153512 92.7641555,96.1731018 93.6684541,98.8791953 C94.0784546,100.106098 95.0122439,101.312731 94.6484487,102.551848 C94.3684242,103.505629 93.3915742,104.135331 92.4322521,104.583072 C91.47293,105.030812 90.4234976,105.407239 89.7297083,106.16239 C89.035919,106.917541 88.8912304,108.21757 89.7579249,108.803196 C90.0434641,108.996134 90.4003504,109.087637 90.6772108,109.290953 C91.1609606,109.685583 91.3420471,110.34493 91.1281189,110.932736 C90.8973691,111.509692 90.5159696,112.013514 90.0240695,112.391166 C89.0401944,113.243104 87.7399146,114.218156 88.0454021,115.427561 C88.2754395,116.083548 88.8099134,116.585485 89.4771452,116.772144 C90.1599157,116.969867 90.8683401,117.063748 91.5788217,117.050659 L120.611106,117.968943 C121.569484,118.041236 122.533164,117.987188 123.477562,117.808178 C124.405542,117.638213 125.221178,117.08806 125.728749,116.289734 C126.284712,115.256461 125.919712,113.983654 125.233119,113.018814 C124.546525,112.053974 123.574822,111.292873 122.771911,110.406899 C121.969,109.520925 121.312098,108.414957 121.453638,107.269894 C121.566938,106.353255 122.168999,105.561028 122.601205,104.728158 C123.033412,103.895288 123.284457,102.854514 122.724691,102.088308 C121.935904,101.008618 120.042111,101.106277 119.145201,100.100204 C118.46834,99.340958 118.599044,98.2479501 118.531744,97.2688782 C118.369864,94.9138077 116.745969,92.6896502 114.434306,91.656828 C112.049639,90.6289882 109.318114,90.8157752 107.094258,92.1587546 L106.386953,92.4341355 Z" id="Path" fill="#150A43"></path>
                    <polygon id="Path" fill="#7C4A00" points="88.1687313 240 84 238.602634 86.8472069 220 93 222.062382"></polygon>
                    <path d="M87.2761529,244 L73,239.512581 L73.0542483,239.323666 C73.4969542,237.781832 74.5069904,236.487146 75.8621482,235.724439 C77.217306,234.961731 78.8065711,234.793485 80.2803037,235.256712 L89,237.997606 L87.2761529,244 Z" id="Path" fill="#1F0E65"></path>
                    <polygon id="Path" fill="#7C4A00" points="130.999226 239 126.256218 238.999619 124 221 131 221.000381"></polygon>
                    <path d="M130.999712,244 L116,243.999445 L116,243.81062 C116,242.269526 116.615088,240.791548 117.709996,239.701839 C118.804904,238.61213 120.28992,238 121.838341,238 L121.838721,238 L131,238.000378 L130.999712,244 Z" id="Path" fill="#291A6A"></path>
                    <path d="M123.574468,226 C122.718726,226 121.989891,225.380187 121.854432,224.538298 L114.804754,180.721097 C114.708769,180.124767 114.227112,179.664411 113.625138,179.593649 C113.023163,179.522888 112.447208,179.858922 112.214578,180.416624 L93.9502419,224.226663 C93.5974827,225.065432 92.6566904,225.492892 91.7897917,225.20829 L85.1929098,223.017054 C84.3416252,222.737144 83.8439595,221.857734 84.0441412,220.987099 L99.0118333,154.995262 C99.1613126,154.346769 99.6676842,153.839275 100.317653,153.68655 L120.391,149.043708 C120.890182,148.930778 121.413983,149.039103 121.826824,149.340645 C135.044602,158.909738 133.927977,190.173769 131.464594,224.121171 C131.400924,225.000835 130.685794,225.693359 129.801473,225.731721 L123.650865,225.998514 C123.625336,226 123.599807,226 123.574468,226 Z" id="Path" fill="#412E8F"></path>
                    <circle id="Oval" fill="#976E33" cx="106.5" cy="108.5" r="9.5"></circle>
                    <path d="M107.246759,158 C104.98534,157.985487 102.755226,157.467475 100.71682,156.483223 L100.64677,156.450455 L100.618957,156.377796 L92.1688711,134.374922 L92.0081704,130.551917 C91.8992759,127.966648 92.8829393,125.455598 94.7162717,123.638802 C96.5496041,121.822007 99.0617229,120.868807 101.632329,121.014569 L110.603373,121.522424 C115.413163,121.797171 119.181651,125.782628 119.209664,130.624218 C119.442658,131.074096 121.09741,134.591785 117.854477,137.896767 C117.733297,138.649321 116.598948,146.473017 120.879663,150.77526 L121,150.896103 L120.894834,151.030504 C120.82666,151.117835 115.328999,157.99887 107.246759,158 Z" id="Path" fill="#755CDC"></path>
                    <path d="M120.156906,158.75978 C121.216279,158.372767 122.051108,157.532837 122.436755,156.466 C122.822403,155.399163 122.719254,154.215007 122.155064,153.232167 L131,142.914472 L124.027324,142 L116.697009,151.938055 C115.085775,153.026374 114.537057,155.156935 115.419764,156.897334 C116.302472,158.637732 118.337597,159.43786 120.156898,158.75978 L120.156906,158.75978 Z" id="Path" fill="#976E33"></path>
                    <path d="M125.272238,151 C124.934748,151 124.604674,150.90093 124.322835,150.715192 L119.879917,147.799879 C119.103736,147.292612 118.866284,146.262749 119.341937,145.466578 L122.558378,140.060156 C122.910336,139.468558 122.992988,138.754733 122.785537,138.098302 C122.578085,137.44187 122.100281,136.905333 121.472357,136.623702 L112.232015,132.478992 C109.891581,131.416023 108.596998,128.874984 109.112374,126.355686 L109.112374,126.355686 C109.462521,124.683556 110.572222,123.270522 112.113257,122.534522 C113.654293,121.798521 115.45028,121.823795 116.970016,122.602868 L130.988357,129.789512 C132.902093,130.770651 134.292489,132.538585 134.795415,134.630311 C135.298341,136.722036 134.863699,138.929191 133.605318,140.673744 L126.675312,150.280831 C126.350725,150.732687 125.828418,151.000403 125.272238,151 L125.272238,151 Z" id="Path" fill="#755CDC"></path>
                    <path d="M97.3480389,108.113437 C100.321331,107.868292 102.789923,104.818574 102.480765,101.772421 C102.408606,104.371527 104.245222,106.613473 106.75156,106.985755 C108.115409,107.140041 109.610611,106.716369 110.797732,107.42282 C112.112565,108.205269 112.533303,110.105414 113.903079,110.78122 C115.226556,111.434179 116.907533,110.543644 117.561403,109.193767 C118.215273,107.84389 118.054802,106.222116 117.621467,104.781652 C116.364445,100.603135 113.065526,97.407361 108.929704,96.3616482 C104.793882,95.3159354 100.426882,96.5734369 97.4238354,99.6748259 C96.1736214,100.96598 95.1809535,102.61155 95.0199536,104.424701 C94.8589537,106.237852 95.6781365,108.205229 97.2640468,109.019759 L97.3480389,108.113437 Z" id="Path" fill="#0B0522"></path>
                    <path d="M75.0297769,81.4809852 C76.0852453,82.0274745 76.8344909,82.994941 77.0759065,84.1230586 C77.3173222,85.2511762 77.0261091,86.4240617 76.2806268,87.3261149 L84,99 L76.5190994,98.8768827 L70.3355531,87.8100391 C68.80732,86.4774305 68.5583036,84.2575373 69.7559215,82.6428289 C70.9535393,81.0281204 73.2192433,80.5289806 75.0297648,81.4809891 L75.0297769,81.4809852 Z" id="Path" fill="#976E33"></path>
                    <path d="M81.6264107,90.0451841 L91.1998064,112.203 L101.236915,128.87378 C102.095327,130.299709 102.237561,132.032822 101.622716,133.574756 C101.007872,135.116691 99.7040815,136.296583 98.086254,136.77515 L98.086254,136.77515 C95.4696969,137.535774 92.6776639,136.314566 91.5093,133.898453 L72.1645773,93.4103875 C71.9519998,92.9654124 71.9450507,92.452381 72.145501,92.0020382 C72.3459513,91.5516955 72.7344399,91.2075391 73.2119612,91.0572766 L79.4843765,89.083654 C79.6032547,89.0461944 79.7258179,89.021058 79.8500527,89.0086578 C80.6105673,88.9334255 81.3318311,89.3542916 81.6264107,90.0451841 L81.6264107,90.0451841 Z" id="Path" fill="#755CDC"></path>
                </g>
                <path d="M469.801605,490 L469.801605,520.018975 C469.801605,534.689753 459.741599,546 448.024402,546 L84.8016051,589.327892 C73.0677345,589.327892 59.2208409,584.526499 59.2208409,569.854798 L59.2208409,550.74944 C59.2208409,550.74944 88.6908553,531.093715 105.995765,527.633563 C123.300674,524.173411 176.196186,490.580428 191.58124,486 C206.966293,481.419572 278.301605,504 296.801605,504 C315.301605,504 326.540914,504 345.187895,504 C363.834875,504 362.222686,503 378.021665,501 C393.820644,499 415.560995,491.480076 429.243452,495 C442.92591,498.519924 443.425849,500.140417 452.019877,495 C460.613905,489.859583 469.801605,490 469.801605,490 Z" id="Path" fill="#4825BB"></path>
                <g id="Group-4" transform="translate(79.471852, 184.030765)">
                    <polyline id="Path" stroke="#5233D3" points="2.31344836 57.3153556 43.9985884 32.4202478 87.4249676 79.8969289 184.694396 56.1585884"></polyline>
                    <ellipse id="Oval" fill="#7D66DE" cx="185.561939" cy="55.8693966" rx="2.02426732" ry="2.02434267"></ellipse>
                    <ellipse id="Oval" fill="#7D66DE" cx="87.1357865" cy="80.1861207" rx="2.02426732" ry="2.02434267"></ellipse>
                    <ellipse id="Oval" fill="#7D66DE" cx="44.2877695" cy="32.7094397" rx="2.02426732" ry="2.02434267"></ellipse>
                    <ellipse id="Oval" fill="#7D66DE" cx="2.02426732" cy="58.1890841" rx="2.02426732" ry="2.02434267"></ellipse>
                    <polyline id="Path" stroke="#5233D3" points="164.137931 14.1827047 187.881541 23.4491487 226.668717 2.02434267 270.673459 32.7094397 302.52029 20.5510776"></polyline>
                    <ellipse id="Oval" fill="#7D66DE" cx="164.137931" cy="14.1827047" rx="2.02426732" ry="2.02434267"></ellipse>
                    <ellipse id="Oval" fill="#7D66DE" cx="187.297026" cy="23.4429957" rx="2.02426732" ry="2.02434267"></ellipse>
                    <ellipse id="Oval" fill="#7D66DE" cx="226.668717" cy="2.02434267" rx="2.02426732" ry="2.02434267"></ellipse>
                    <ellipse id="Oval" fill="#7D66DE" cx="270.673459" cy="32.7094397" rx="2.02426732" ry="2.02434267"></ellipse>
                    <ellipse id="Oval" fill="#7D66DE" cx="302.52029" cy="21.1294612" rx="2.02426732" ry="2.02434267"></ellipse>
                </g>
                <g id="Group-5" transform="translate(109.779365, 167.531821)">
                    <path d="M0.0246111528,32.3094935 C0.0246111528,32.3094935 2.78721306,-3.63643319 22.6238022,2.31353448 C39.9931233,7.52514009 38.7071906,12.7367457 49.8375844,12.7367457 C62.5123281,12.7367457 59.6820456,-2.27373675e-13 66.0501813,-2.27373675e-13 C72.4183171,-2.27373675e-13 77.0821306,13.3151293 83.4195024,8.10352371 C89.7568743,2.8919181 95.8419818,29.5283297 95.8419818,29.5283297 L0.0246111528,32.3094935 Z" id="Path" fill="#8E66DA"></path>
                    <path d="M0,32.4264009 C0,32.4264009 4.00546512,19.8065625 15.0989422,22.5815733 C26.6784896,25.4734914 27.2568517,17.3699677 32.855889,17.3822737 C38.8363991,17.3822737 41.5313204,26.0949461 49.2592223,26.058028 C60.1865742,26.0026509 59.5282258,13.6412392 68.1913516,13.9981142 C79.9431771,14.4780496 94.6483409,24.6551401 95.8788985,29.4483405 C81.1060541,30.328222 0,32.4264009 0,32.4264009 Z" id="Path" fill="#5233D3"></path>
                </g>
                <g id="Group-7" transform="translate(236.301605, 326.000000) scale(-1, 1) translate(-236.301605, -326.000000) translate(210.801605, 307.000000)">
                    <path d="M1.5,38 C2.32842712,38 3,37.3284271 3,36.5 L3,1.5 C3,0.671572875 2.32842712,-1.52179594e-16 1.5,0 C0.671572875,1.52179594e-16 -1.01453063e-16,0.671572875 0,1.5 L0,36.5 C1.01453063e-16,37.3284271 0.671572875,38 1.5,38 Z" id="Fill-3" fill="#5233D3"></path>
                    <path d="M3,1.65217391 L3,26.5978261 C3,26.5978261 16.0909091,23.6630435 24.8181818,26.5978261 C33.5454545,29.5326087 37.9090909,17.7934783 51,31 L51,6.05434783 C51,6.05434783 40.8181818,1.65217391 36.4545455,1.65217391 C32.0909091,1.65217391 23.3636364,3.11956522 17.5454545,1.65217391 C11.7272727,0.184782609 3,1.65217391 3,1.65217391" id="Fill-5" fill="#58238B"></path>
                </g>
                <g id="Group-12" transform="translate(444.801605, 231.000000)">
                    <polygon id="Path" fill="#4D33B7" points="9.09125296 23 19 33.0830684 0 46"></polygon>
                    <polygon id="Path" fill="#BDAFFF" points="67 0 35.4291872 21.3818517 35.4201047 21.391064 24.7299877 40 18.0180111 33.1920774 8 23.0308614"></polygon>
                    <polygon id="Path" fill="#D4D0E7" points="67 0 52.6504603 42 39.7902762 25.8335855 36 21.0680787"></polygon>
                    <polygon id="Path" fill="#54429F" points="40 27.4161306 27 40 36.5452277 23.0084117 36.5533375 23"></polygon>
                </g>
                <g id="Group-12-Copy" transform="translate(64.801605, 461.000000) scale(-1, 1) translate(-64.801605, -461.000000) translate(45.801605, 448.000000)">
                    <polygon id="Path" fill="#4D33B7" points="5.26335697 13 11 18.6991256 0 26"></polygon>
                    <polygon id="Path" fill="#BDAFFF" points="38 0 20.3417488 12.2945647 20.3366687 12.2998618 14.3574507 23 10.6032943 19.0854445 5 13.2427453"></polygon>
                    <polygon id="Path" fill="#D4D0E7" points="38 0 29.6680092 24 22.2008055 14.7620488 20 12.0389021"></polygon>
                    <polygon id="Path" fill="#54429F" points="22 15.5977239 15 23 20.139738 13.004948 20.1441048 13"></polygon>
                </g>
                <path d="M0.0281283481,162.020038 C0.0281283481,162.020038 2.13775446,133.405411 25.8147915,133.405411 C49.4918285,133.405411 42.0659446,117.153653 54.7869901,117.153653 C69.2660573,117.153653 65.7359496,134.818913 77.0365134,134.818913 C88.3370773,134.818913 88.3441094,127.399785 96.1145656,127.399785 C105.657108,127.399785 109.53882,158.841417 109.53882,158.841417 L0.0281283481,162.020038 Z" id="Path" fill="#8E66DA"></path>
                <path d="M-4.54747351e-13,162.153653 C-4.54747351e-13,162.153653 4.21925222,145.76828 16.8770089,142.554497 C29.5347655,139.340713 26.9188292,147.659982 37.5372806,144.95956 C48.155732,142.259138 44.4005975,126.436353 53.2328988,126.394038 C65.7218854,126.337901 58.9148252,145.908927 77.9225564,141.084736 C96.9302876,136.260545 108.160531,153.271796 109.566948,158.749996 C92.6829071,159.755622 -4.54747351e-13,162.153653 -4.54747351e-13,162.153653 Z" id="Path" fill="#5233D3"></path>
                <path d="M407.301605,140 L461.801605,140 L461.801605,140 L461.801605,149 C461.801605,153.418278 458.219883,157 453.801605,157 L407.301605,157 C402.607185,157 398.801605,153.19442 398.801605,148.5 C398.801605,143.80558 402.607185,140 407.301605,140 Z" id="Rectangle" fill="#8473D9" transform="translate(430.301605, 148.500000) scale(-1, 1) translate(-430.301605, -148.500000) "></path>
                <path d="M457.301605,112 L497.801605,112 L497.801605,112 L497.801605,121 C497.801605,125.418278 494.219883,129 489.801605,129 L457.301605,129 C452.607185,129 448.801605,125.19442 448.801605,120.5 C448.801605,115.80558 452.607185,112 457.301605,112 Z" id="Rectangle-Copy" fill="#F96A00"></path>
                <path d="M439.301605,168 L497.801605,168 L497.801605,168 L497.801605,177 C497.801605,181.418278 494.219883,185 489.801605,185 L439.301605,185 C434.607185,185 430.801605,181.19442 430.801605,176.5 C430.801605,171.80558 434.607185,168 439.301605,168 Z" id="Rectangle-Copy-3" fill="#C97800"></path>
                <circle id="Oval-Copy-3" fill="#5233D3" cx="383.301605" cy="148.5" r="9.5"></circle>
                <path d="M391.537014,143.760976 C392.341401,145.155817 392.801605,146.774165 392.801605,148.5 C392.801605,153.746705 388.54831,158 383.301605,158 C379.309943,158 375.893275,155.538161 374.487101,152.049984 L374.566258,151.713132 C375.945974,153.85832 378.857756,154.170941 383.301605,152.650993 C387.622014,151.173267 390.337911,148.325876 391.449296,144.108822 Z" id="Combined-Shape" fill="#DE962B"></path>
                <rect id="Rectangle" fill="#F96A00" x="10.7935971" y="80.2505711" width="138.376207" height="10.4232112" rx="5.2116056"></rect>
                <rect id="Rectangle" fill="#F96A00" x="32.7898149" y="48.9809375" width="78.7433834" height="10.4232112" rx="5.2116056"></rect>
                <rect id="Rectangle" fill="#5233D3" x="93.007153" y="80.2505711" width="138.376207" height="10.4232112" rx="5.2116056"></rect>
                <rect id="Rectangle" fill="#5233D3" x="101.110375" y="48.9809375" width="47.4749138" height="10.4232112" rx="5.2116056"></rect>
            </g>
        </g>
    </g>
</svg>