<?xml version="1.0" encoding="UTF-8"?>
<svg width="576px" height="266px" viewBox="0 0 576 266" version="1.1" xmlns="http://www.w3.org/2000/svg" xmlns:xlink="http://www.w3.org/1999/xlink">
    <title>Step 3</title>
    <defs>
        <linearGradient x1="50%" y1="0%" x2="50%" y2="100%" id="linearGradient-1">
            <stop stop-color="#FCA300" offset="0%"></stop>
            <stop stop-color="#FA6D00" offset="100%"></stop>
        </linearGradient>
    </defs>
    <g id="LEAD-marketing-" stroke="none" stroke-width="1" fill="none" fill-rule="evenodd">
        <g id="Home-Page" transform="translate(-120.000000, -3203.000000)" fill-rule="nonzero">
            <g id="Step-3" transform="translate(120.000000, 3203.000000)">
                <g id="undraw_calendar_re_ki49" transform="translate(0.000000, 8.000000)">
                    <path d="M423.926401,256 L4.07360473,256 C1.82483258,256 0,254.177769 0,251.932203 L0,4.06779721 C0,1.82223102 1.82483258,0 4.07360473,0 L423.926401,0 C426.175172,0 428,1.82223193 428,4.06779721 L428,251.932197 C428,254.177765 426.175174,256 423.926401,256 Z M4.07360473,1.62711888 C2.72434118,1.62711888 1.62944189,2.72045724 1.62944189,4.06779721 L1.62944189,251.932197 C1.62944189,253.279537 2.72434118,254.372875 4.07360473,254.372875 L423.926401,254.372875 C425.275664,254.372875 426.370558,253.279536 426.370558,251.932197 L426.370558,4.06779721 C426.370558,2.72045815 425.275664,1.62711888 423.926401,1.62711888 L4.07360473,1.62711888 Z" id="Shape" fill="#E6E6E6"></path>
                    <path d="M174.16035,20.0004205 C172.406442,20.0278342 171,21.3627486 171,23.0000435 C171,24.6373385 172.406442,25.9722528 174.16035,25.9996665 L254.738386,25.9996665 C256.509412,26.0240664 257.967808,24.7065469 258,23.0535875 C258.031143,21.4006282 256.624146,20.0352835 254.853317,20.0005677 L254.843918,20.0004205 C254.808752,19.9998598 254.773574,19.9998598 254.738386,20.0004205 L174.16035,20.0004205 Z" id="bbcc4262-a9b8-4c1e-bf70-e1245b5187b9-132" fill="#3F3D56"></path>
                    <path d="M272.860838,20.0973763 L275.723372,22.8571247 L268.664818,22.8571247 C268.297329,22.858182 268,23.1456905 268,23.4999851 C268,23.8542797 268.297329,24.1417882 268.664818,24.1428455 L275.723372,24.1428455 L272.860909,26.9025481 C272.692454,27.0649465 272.626661,27.3016511 272.688314,27.5234976 C272.749966,27.7453441 272.929697,27.9186287 273.159804,27.9780768 C273.389911,28.037525 273.635435,27.974105 273.803889,27.8117066 L277.804707,23.9545729 C278.065098,23.7035086 278.065098,23.2964787 277.804707,23.0454144 L273.803889,19.1882807 C273.678848,19.0677268 273.509254,19 273.332417,19 C273.15558,19 272.985986,19.0677268 272.860945,19.1882807 C272.600519,19.4393059 272.600487,19.8463074 272.860838,20.0973763 Z" id="Path" fill="#C6C6C6"></path>
                    <path d="M155.136772,20.0973859 L152.275579,22.8571295 L159.330884,22.8571295 C159.569435,22.8562268 159.790296,22.9783649 159.910006,23.1773886 C160.029715,23.3764123 160.030017,23.62197 159.910796,23.8212667 C159.791576,24.0205634 159.571015,24.1432058 159.332463,24.1428481 L152.275579,24.1428481 L155.136719,26.9025459 C155.305096,27.064946 155.370858,27.3016521 155.309232,27.5234993 C155.247606,27.7453464 155.067956,27.9186308 154.837953,27.9780778 C154.60795,28.0375248 154.362538,27.974103 154.194161,27.8117029 L150.195203,23.9545759 C149.934932,23.703512 149.934932,23.2964828 150.195203,23.0454189 L154.194161,19.1882919 C154.454427,18.9372494 154.876404,18.9372341 155.136689,19.1882576 C155.397001,19.4393149 155.397025,19.8463287 155.136772,20.0973859 Z" id="Path" fill="#C6C6C6"></path>
                    <rect id="Rectangle" fill="#EAEAEA" x="35" y="53" width="56" height="38"></rect>
                    <rect id="Rectangle" fill="#EAEAEA" x="110" y="53" width="56" height="38"></rect>
                    <rect id="Rectangle" fill="#EAEAEA" x="186" y="53" width="56" height="38"></rect>
                    <rect id="Rectangle" fill="#EAEAEA" x="262" y="53" width="56" height="38"></rect>
                    <rect id="Rectangle" fill="#EAEAEA" x="337" y="53" width="56" height="38"></rect>
                    <rect id="Rectangle" fill="#EAEAEA" x="35" y="119" width="56" height="38"></rect>
                    <rect id="Rectangle" fill="#EAEAEA" x="110" y="119" width="56" height="38"></rect>
                    <rect id="Rectangle" fill="#EAEAEA" x="186" y="119" width="56" height="38"></rect>
                    <rect id="Rectangle" fill="#EAEAEA" x="262" y="119" width="56" height="38"></rect>
                    <rect id="Rectangle" fill="#EAEAEA" x="338" y="119" width="56" height="38"></rect>
                    <rect id="Rectangle" fill="#EAEAEA" x="35" y="186" width="56" height="38"></rect>
                    <rect id="Rectangle" fill="#EAEAEA" x="111" y="186" width="56" height="38"></rect>
                    <rect id="Rectangle" fill="#EAEAEA" x="186" y="186" width="56" height="38"></rect>
                    <rect id="Rectangle" fill="#EAEAEA" x="262" y="186" width="56" height="38"></rect>
                    <rect id="Rectangle" fill="#EAEAEA" x="338" y="186" width="56" height="38"></rect>
                    <circle id="Oval" fill="#6C63FF" cx="196.5" cy="64.5" r="6.5"></circle>
                    <circle id="Oval" fill="#6C63FF" cx="120.5" cy="131.5" r="6.5"></circle>
                    <circle id="Oval" fill="#6C63FF" cx="196.5" cy="198.5" r="6.5"></circle>
                    <circle id="Oval" fill="#3F3D56" cx="275.5" cy="131.5" r="6.5"></circle>
                    <circle id="Oval" fill="#3F3D56" cx="349.5" cy="131.5" r="6.5"></circle>
                    <circle id="Oval" fill="#3F3D56" cx="120.5" cy="198.5" r="6.5"></circle>
                </g>
                <g id="undraw_visual_data_re_mxxo-copy" transform="translate(277.000000, 0.000000)">
                    <polygon id="Path" fill="#976E33" points="272.999226 261 268.256218 260.999619 266 243 273 243"></polygon>
                    <path d="M273.999731,265 L259,264.999449 L259,264.810623 C259.000224,261.601562 261.614009,259.000173 264.838312,259 L264.838691,259 L274,259.000378 L273.999731,265 Z" id="Path" fill="#2F2E41"></path>
                    <polygon id="Path" fill="#976E33" points="254.999226 261 250.256218 260.999619 248 243 255 243"></polygon>
                    <path d="M255.999731,265 L241,264.999449 L241,264.810623 C241.000224,261.601562 243.614009,259.000173 246.838312,259 L246.838691,259 L256,259.000378 L255.999731,265 Z" id="Path" fill="#2F2E41"></path>
                    <path d="M50,264.616318 L50,117.418254 C50,115.530404 51.524117,114 53.4042105,114 L68.5957895,114 C70.475883,114 72,115.530404 72,117.418254 L72,117.418254 L72,265 L50,264.616318 Z" id="ae5c11dc-7e77-468a-a39f-cc8da6ee1565-548" fill="#3F3D56"></path>
                    <path d="M101,265 L101,148.405186 C101,146.524554 102.524117,145 104.404211,145 L119.595789,145 C121.475883,145 123,146.524554 123,148.405186 L123,148.405186 L123,264.749051 L101,265 Z" id="bc696f83-47b6-45c9-967f-bb64f1f3bee5-549" fill="#3F3D56"></path>
                    <path d="M11.1574807,126 C10.7007208,126 10.286714,125.7316 10.1005469,125.315047 C9.91437974,124.898495 9.99085526,124.411562 10.2957842,124.071937 L61.0862706,67.4951122 L111.07126,95.526824 L161.3536,9 L212.577223,51.1057283 C212.896984,51.3681372 213.052179,51.7810465 212.984294,52.1887738 C212.916408,52.5965011 212.635767,52.9370347 212.248182,53.0819807 C211.860597,53.2269266 211.425017,53.1542399 211.105672,52.8913261 L161.987521,12.5162455 L111.928097,98.6595261 L61.5711722,70.4192881 L12.0198797,125.615519 C11.8004521,125.860615 11.4866889,126 11.1574807,126 Z" id="Path" fill="#3F3D56"></path>
                    <circle id="a1f8771a-4bf9-4603-9747-6ae739e4ad47" fill="#4D33B7" cx="11" cy="125" r="11"></circle>
                    <circle id="ffdbdf53-78c2-412f-9ede-372406e5d245" fill="#CCCCCC" cx="61" cy="69" r="11"></circle>
                    <circle id="b7cff929-f00d-4f86-944c-e500b6ceb6ad" fill="#E6E6E6" cx="112" cy="97" r="11"></circle>
                    <circle id="eabc0b76-6faa-4fa0-934c-daff28b491dd" fill="#552289" cx="162" cy="11" r="11"></circle>
                    <circle id="a7ca0488-8ee6-49e2-b245-2872b84c042e" fill="#4D33B7" cx="259" cy="91" r="11"></circle>
                    <path d="M254.919659,176.381517 C258.957444,176.867284 269.282953,173.188351 269.842574,178.78519 C275.157213,194.41035 274.999505,254.306339 274.999505,254.306339 L266.908376,254.691148 C266.908376,254.691148 260.442817,207.100161 257.385576,196.918714 C255.851394,209.293778 256.120197,256.615191 256.120197,256.615191 L248.799652,257 C248.799652,257 242.233058,216.703829 242.195577,204.87647 C241.397537,196.213075 243.354827,183.374924 242.517153,175 C246.520841,176.267326 250.734825,176.736703 254.919697,176.381463 L254.919659,176.381517 Z" id="b579ef19-595a-43de-9b6d-0ead8268ca48-550" fill="#412E8F"></path>
                    <path d="M201,264.555958 L201,94.939029 C201,92.7637675 202.524175,91 204.404211,91 L219.595789,91 C221.475825,91 223,92.76338 223,94.939029 L223,265 L201,264.555958 Z" id="b3465432-03e0-48eb-8016-b04aa244e72c-551" fill="#3F3D56"></path>
                    <path d="M240.729826,130.02454 C239.067558,126.669843 237.037126,123.505496 234.675041,120.588399 C234.181492,120.018677 233.732016,119.413142 233.330412,118.77691 C232.480132,117.320691 232.227026,115.610708 231.689174,114.017847 C230.186354,109.551589 226.437212,105.963748 225.523655,101.345231 C225.191453,99.6664804 222.385264,104.545754 223.123097,106.62744 C224.440043,110.394869 224.610099,114.38483 226.28693,118.023424 C227.963761,121.662019 229.933247,125.152259 231.3807,128.872839 C232.203297,130.984941 232.859792,133.167317 234.066003,135.119353 C235.272214,137.071389 237.154695,138.707195 239.428699,139 C239.413308,137.584848 239.631041,136.176635 240.073382,134.830452 C240.567679,133.292248 241.445643,131.480758 240.729826,130.02454 Z" id="ac7870c5-efcc-4c4b-b17f-07e0bff4d096-552" fill="#976E33"></path>
                    <path d="M265.257163,132.563064 C265.16157,129.840414 265.571903,127.124092 266.465866,124.56168 C266.808022,123.579797 267.209684,122.582512 267.176212,121.53902 C267.127864,120.568689 266.681573,119.679218 266.276193,118.801299 C264.877816,115.77864 263.895977,112.575006 262.929014,109.379073 L261.06947,103.353007 C260.463192,102.892704 264.00383,102.733073 264.758805,103.81507 C267.228279,107.36525 269.09898,111.442953 271.055239,115.320428 C271.554217,116.244387 271.979603,117.208929 272.327167,118.204469 C272.804942,119.817872 273.03093,121.499887 272.996603,123.187044 C272.996603,126.340621 272.59496,129.482646 272.178422,132.60927 C271.914367,134.569185 271.568492,136.702374 270.136643,138 C268.648944,136.028533 267.153897,134.103272 265.257163,132.563064 Z" id="be4b35b3-6955-40b7-9549-45fdba6a2930-553" fill="#976E33"></path>
                    <circle id="a7d383a2-21d6-4551-be8a-8c82a5e576cb" fill="#7C4A00" cx="255" cy="122" r="8"></circle>
                    <path d="M249.085657,113.369162 C248.903839,112.876647 249.016439,112.323389 249.376194,111.941613 C249.574387,111.785065 249.83759,111.726669 250.050057,111.577275 C250.352114,111.322749 250.599325,111.009261 250.776637,110.655901 C251.896192,109.085481 253.983165,108.554497 255.71442,109.399591 C257.026071,110.087741 257.818045,111.465639 258.984607,112.393371 C259.576816,112.874118 260.263741,113.230914 260.859507,113.711662 C262.052899,114.744956 262.901286,116.120368 263.290152,117.652244 C263.67701,119.17376 263.902877,120.731893 263.964015,122.300847 C264.026109,122.771606 264.007741,123.249528 263.909699,123.714103 C263.789005,124.103732 263.6089,124.472298 263.375773,124.806726 C262.176697,126.627629 260.596304,128.281253 258.61597,129.220901 C256.635635,130.160549 254.226789,130.313523 252.273792,129.330171 C252.07716,129.250485 251.90799,129.115031 251.787018,128.94041 C251.676023,128.674536 251.649444,128.380842 251.710899,128.099289 C251.816843,126.986205 251.597161,125.866282 251.078676,124.87626 C250.715191,124.147979 250.17016,123.521412 249.879597,122.767704 C249.60928,121.923919 249.49352,121.038068 249.537911,120.152965 C249.503428,117.859631 249.658825,115.576254 249.085657,113.369162 Z" id="fb091cb1-8ad4-4d57-b74d-c940c723d6bf-554" fill="#2D293D"></path>
                    <path d="M0,264.786513 L0,182.901624 C0,181.851624 1.52417544,181 3.40421053,181 L18.5957895,181 C20.4758246,181 22,181.852399 22,182.901624 L22,265 L0,264.786513 Z" id="ef6ae9ea-be37-4bc6-b1be-067860dc7e9d-555" fill="#3F3D56"></path>
                    <path d="M298.916057,266 L230.084027,266 C230.03762,266 230,265.776142 230,265.5 C230,265.223858 230.03762,265 230.084027,265 L298.915973,265 C298.96238,265 299,265.223858 299,265.5 C299,265.776142 298.96238,266 298.915973,266 L298.916057,266 Z" id="b4c810f7-8361-4f56-9780-d97c96bbbba4-556" fill="#3F3D56"></path>
                    <path d="M151,264.499383 L151,72.4595517 C151,69.9966699 152.524175,68 154.404211,68 L169.595789,68 C171.475825,68 173,69.9966699 173,72.4595517 L173,265 L151,264.499383 Z" id="b32730d1-ac43-40b1-a176-73e18bf362e5-557" fill="url(#linearGradient-1)"></path>
                    <circle id="Oval" fill="#7C4A00" cx="223.5" cy="102.5" r="3.5"></circle>
                    <circle id="Oval" fill="#7C4A00" cx="262.5" cy="101.5" r="3.5"></circle>
                    <path d="M270.902473,143.978218 C271.242661,143.666326 274.016103,127.415517 274,127.049307 C273.957085,125.047191 267.859909,122.760541 266.639653,123.556194 C265.488401,124.306856 263.483772,132.919348 262.193659,134.48781 L260.828908,132.094915 L249.982185,132.094915 L249.324765,133.31818 C247.90152,132.459115 246.621192,131.667067 246.164557,131.40499 C246.007616,131.29846 245.836706,131.21422 245.656698,131.15467 C244.529271,130.902073 243.471195,130.403826 242.557634,129.695325 C241.666653,129.008346 237.531681,121.813527 236.423773,122.003703 C235.172526,122.21329 230.952105,125.869415 231,129.378053 C231.531715,129.366685 238.443487,143.21375 238.540476,143.729842 C239.071191,145.911097 240.82368,177.721695 241.389267,179.204346 C243.994805,178.952066 241.937802,178.501843 244.459665,179.204346 C247.17522,179.961188 250.041854,179.142247 252.842632,178.83951 C254.008837,178.723803 255.180477,178.671976 256.352322,178.684261 C260.613535,178.703667 266.695448,178.940422 270.821076,180 C270.844343,177.290897 268.469685,171.430229 267.590302,168.872494 C267.475086,168.108036 267.479006,167.330292 267.601924,166.567039 C267.714319,165.631669 269.982629,145.012482 270.902473,143.978218 Z" id="Path" fill="#755CDC"></path>
                </g>
            </g>
        </g>
    </g>
</svg>