<?xml version="1.0" encoding="UTF-8"?>
<svg width="526px" height="348px" viewBox="0 0 526 348" version="1.1" xmlns="http://www.w3.org/2000/svg" xmlns:xlink="http://www.w3.org/1999/xlink">
    <title>Step 2</title>
    <defs>
        <linearGradient x1="50%" y1="0%" x2="50%" y2="100%" id="linearGradient-1">
            <stop stop-color="#FDA300" offset="0%"></stop>
            <stop stop-color="#FA7400" offset="100%"></stop>
        </linearGradient>
    </defs>
    <g id="LEAD-marketing-" stroke="none" stroke-width="1" fill="none" fill-rule="evenodd">
        <g id="Home-Page" transform="translate(-120.000000, -2508.000000)" fill-rule="nonzero">
            <g id="Step-2" transform="translate(120.000000, 2508.000000)">
                <g id="undraw_community_re_cyrm">
                    <path d="M111.661025,204 C87.169248,179.755592 76.8250849,154.462584 82.5332228,132.780854 C89.8585658,104.956936 122.401443,85.7190514 171.817488,80 L172,81.5960289 C123.271874,87.2350887 91.2254429,106.04122 84.0775382,133.191823 C78.5223011,154.292397 88.7163211,179.032874 112.781858,202.855727 L111.661025,204 Z" id="Path" fill="#8473D9"></path>
                    <path d="M349.323188,290 C318.702344,290 285.427341,285.439455 252.375802,276.669955 C211.503215,265.825376 174.027432,249.456642 144,229.332772 L144.889149,228 C174.772029,248.026384 212.081782,264.320307 252.785249,275.119499 C289.568392,284.879566 326.627352,289.401738 359.942183,288.208357 L360,289.810496 C356.481679,289.937336 352.922742,290 349.323188,290 Z" id="Path" fill="#8473D9"></path>
                    <path d="M420.14249,280 L419.632734,278.481209 C446.869609,269.203299 463.905194,254.257734 468.897824,235.258806 C475.244101,211.106565 461.456655,183.079469 430.074922,156.340206 C398.533114,129.465138 353.049205,107.165585 302,93.5501052 L302.407182,92 C353.679426,105.675347 399.384781,128.090376 431.102203,155.116169 C462.979701,182.277405 476.948982,210.885014 470.436407,235.669028 C465.300792,255.212849 447.90932,270.542025 420.14249,280 Z" id="Path" fill="#F0F0F0"></path>
                    <path d="M168.347542,290 C107.812238,263.415314 61.1651975,228.925038 37,192.881902 L38.3410868,192 C62.3392219,227.793668 108.7414,262.079619 169,288.542881 L168.347542,290 Z" id="Path" fill="#8473D9"></path>
                    <path d="M379.953883,336 C373.742021,336 367.42406,335.865866 361,335.597598 L361.068824,334.050004 C409.009558,336.057485 451.308569,330.508547 483.400952,318 L484,319.437128 C456.004794,330.347464 420.32276,336 379.953883,336 Z" id="Path" fill="#F0F0F0"></path>
                    <path d="M345.503074,82 C335.528267,78.8089686 325.2682,75.8378534 315.008139,73.168938 C255.965365,57.8107399 197.925664,52.3577899 147.161407,57.4026196 L147,55.8333048 C197.95358,50.7719154 256.191894,56.2379559 315.41886,71.6442805 C325.7079,74.3208943 335.99698,77.3005207 346,80.5007505 L345.503074,82 Z" id="Path" fill="#F0F0F0"></path>
                    <path d="M75.6610553,206 C51.1692675,181.755586 40.8251026,156.462587 46.533208,134.780845 C53.8585589,106.956934 86.4014343,87.7190511 135.817495,82 L136,83.5960288 C87.2718659,89.2350883 55.2254296,108.041219 48.0775237,135.191814 C42.5222856,156.292393 52.716314,181.032862 76.7818483,204.855713 L75.6610553,206 Z" id="Path" fill="#8473D9"></path>
                    <path d="M312.323181,292 C281.702337,292 248.427341,287.439448 215.375795,278.669955 C174.503208,267.825376 137.027426,251.456642 107,231.332772 L107.889143,230 C137.772029,250.026384 175.081782,266.320306 215.785242,277.119492 C252.568385,286.879559 289.627345,291.401737 322.942183,290.20835 L323,291.810496 C319.481679,291.937349 315.92274,292 312.323181,292 Z" id="Path" fill="#F0F0F0"></path>
                    <path d="M382.142497,281 L381.632748,279.481216 C408.869618,270.203306 425.90521,255.257733 430.897833,236.258804 C437.244117,212.10657 423.456664,184.079465 392.07493,157.340201 C360.533126,130.465113 315.049228,108.165558 264,94.5501053 L264.407182,93 C315.679429,106.675347 361.3848,129.09037 393.10221,156.116171 C424.979743,183.277408 438.948992,211.885012 432.436397,236.669013 C427.300802,256.212848 409.909328,271.542031 382.142497,281 Z" id="Path" fill="#8473D9"></path>
                    <path d="M131.347529,293 C70.8122433,266.415314 24.1651876,231.925038 0,195.881895 L1.34108629,195 C25.3392655,230.793668 71.7414177,265.079619 132,291.542881 L131.347529,293 Z" id="Path" fill="#8473D9"></path>
                    <path d="M342.953876,339 C336.742018,339 330.42406,338.865864 324,338.597591 L324.068817,337.050004 C372.009558,339.057485 414.308562,333.508549 446.400945,321 L447,322.43716 C419.004774,333.34744 383.32276,339 342.953876,339 Z" id="Path" fill="#F0F0F0"></path>
                    <path d="M307.503108,84 C297.528308,80.8090075 287.26824,77.8378586 277.008173,75.1689425 C217.965399,59.8107342 159.925697,54.357783 109.161407,59.4026204 L109,57.8333053 C159.95358,52.7719147 218.191894,58.2379564 277.41886,73.6442847 C287.7079,76.3208991 297.996987,79.3005262 308,82.5007568 L307.503108,84 Z" id="Path" fill="#F0F0F0"></path>
                    <path d="M26.431821,162.534777 C37.9564656,149.558445 56.3401976,141.649766 73,146.384038 C57.6306402,157.306802 46.603823,173.336991 41.8705115,191.638402 C40.0705451,198.703132 38.8010424,206.749037 32.9505133,211.068549 C29.310227,213.75633 24.4867294,214.398396 20.0099102,213.786293 C15.5328826,213.174043 11.2997374,211.425643 7.12371897,209.693075 L6,209.790848 C9.23079621,192.708489 14.9071764,175.511108 26.431821,162.534777 Z" id="Path" fill="#D4D0E7"></path>
                    <path d="M73.6867672,146.779122 C59.7910289,150.192717 47.30867,157.961839 38.0126572,168.98298 C35.9699203,171.319531 34.3029563,173.968171 33.0731346,176.83139 C31.9639602,179.659804 31.6215333,182.737976 32.0814329,185.746073 C32.4547029,188.559578 33.1576463,191.393624 32.8503378,194.250191 C32.4888974,197.20287 30.9026094,199.858687 28.490095,201.550255 C25.5714852,203.712595 22.0611528,204.681975 18.5958718,205.508902 C14.7483306,206.427049 10.737612,207.318867 7.60125356,209.913165 C7.22123923,210.227496 6.76273347,209.610859 7.14217796,209.296996 C12.5989006,204.783372 20.1825342,205.362884 26.2198842,202.084426 C29.0370209,200.554633 31.4168369,198.154205 31.995453,194.860347 C32.501417,191.980013 31.7789982,189.056889 31.3767867,186.211469 C30.8857452,183.283653 31.1087631,180.278378 32.0263588,177.458169 C33.1085339,174.540667 34.672151,171.831282 36.6502531,169.446036 C41.0191885,164.004009 46.2043059,159.292788 52.0156597,155.484958 C58.6243568,151.101793 65.923366,147.897934 73.5968923,146.011998 C74.0718834,145.895467 74.1586946,146.663359 73.6867806,146.779128 L73.6867672,146.779122 Z" id="Path" fill="#FFFFFF"></path>
                    <path d="M41.1470404,165.872436 C37.1003863,162.274478 36.9384801,156.882885 40.7645861,153.136434 C41.1410141,152.770425 41.876354,153.216819 41.4994203,153.583319 C37.9270927,157.068077 38.0910445,162.096003 41.8857155,165.429875 C42.284308,165.780903 41.5433251,166.221448 41.1470159,165.872436 L41.1470404,165.872436 Z" id="Path" fill="#FFFFFF"></path>
                    <path d="M32.4030314,184.230898 C37.1083138,184.545362 41.7585181,183.063739 45.4263882,180.081467 C45.7895536,179.785696 46.2265902,180.36838 45.8638656,180.663791 C42.0412364,183.760046 37.1988689,185.292004 32.3031586,184.953933 C31.8365493,184.921386 31.9389583,184.198524 32.4030314,184.230898 L32.4030314,184.230898 Z" id="Path" fill="#FFFFFF"></path>
                    <path d="M58.6002781,152.158762 C59.4572828,153.936953 61.0050009,155.080935 62.7189772,155.203063 C63.1517308,155.232326 63.0563208,156.028294 62.6263864,155.999223 C60.7340727,155.853817 59.0251006,154.596894 58.0637574,152.64348 C57.9579419,152.464551 57.986598,152.218164 58.1292337,152.080509 C58.2776444,151.947825 58.487778,151.982734 58.600284,152.158762 L58.6002781,152.158762 Z" id="Path" fill="#FFFFFF"></path>
                    <path d="M97,200.18301 C96.6945978,200.174411 96.3892357,200.165811 96.0799509,200.162322 C91.9736915,200.067995 87.8665724,200.308154 83.799121,200.88043 C83.4839419,200.919671 83.1651274,200.964196 82.8517327,201.012424 C73.0669823,202.495861 63.6420762,205.787015 55.0561244,210.718584 C51.6413776,212.684122 48.3807875,214.907175 45.3025811,217.368497 C41.0516768,220.767915 36.7124263,224.79273 31.7357006,226.534935 C31.2185184,226.722542 30.6902369,226.877861 30.1538911,227 L7.05826868,211.007921 C7.02397944,210.945179 6.98581419,210.887514 6.95126431,210.824592 L6,210.228336 C6.1499077,210.090282 6.30834928,209.950325 6.45825698,209.812276 C6.54488561,209.731827 6.6366867,209.654946 6.72328192,209.574516 C6.78266493,209.522015 6.84232862,209.469661 6.89291713,209.418881 C6.9126179,209.401333 6.93257263,209.38396 6.94865135,209.37167 C6.99924654,209.32089 7.05161265,209.279105 7.09855905,209.233616 C7.9820468,208.448851 8.87257595,207.668952 9.77014651,206.893917 C9.77378861,206.888632 9.77378861,206.888632 9.78258312,206.886904 C16.6366501,200.998962 24.0414101,195.632759 32.0234804,191.563527 C32.2636722,191.441178 32.5072521,191.313363 32.757996,191.198321 C36.3660907,189.384108 40.116102,187.868472 43.9705798,186.666549 C46.0832827,186.015219 48.2275308,185.471493 50.3950923,185.037457 C55.9978979,183.926774 61.7401544,183.706221 67.4113468,184.383885 C78.7166072,185.736472 89.4643983,190.697585 96.4712533,199.504865 C96.6503379,199.730282 96.8245575,199.952296 97,200.18301 Z" id="Path" fill="#D4D0E7"></path>
                    <path d="M96.4182118,201.293222 C83.3235379,195.682313 68.775651,194.298035 54.8408977,197.337008 C51.829332,197.938519 48.9323766,199.006138 46.2566804,200.500562 C43.6977381,202.039695 41.6018748,204.22902 40.1868559,206.841062 C38.8180532,209.250302 37.6997885,211.871588 35.7631487,213.909492 C33.7264565,215.98995 30.8895354,217.111131 27.9652842,216.991288 C24.3589285,216.936426 20.9875814,215.602212 17.7364818,214.18405 C14.1267806,212.609451 10.4025927,210.917333 6.36691336,211.068762 C5.87793434,211.087113 5.87776038,210.33503 6.3660034,210.316712 C13.3873907,210.053247 19.0873196,215.014208 25.8398828,216.056313 C28.9907538,216.542573 32.3087617,216.09189 34.720564,213.875358 C36.8295728,211.9371 37.9850787,209.234983 39.3497197,206.783749 C40.6923746,204.215595 42.6499127,202.011921 45.0513346,200.365227 C47.6415245,198.740783 50.4921044,197.564473 53.4810072,196.886669 C60.1854072,195.254496 67.1073855,194.67589 73.9933699,195.172047 C81.8554678,195.695153 89.5692268,197.545632 96.800907,200.643421 C97.2484163,200.835334 96.8628038,201.48391 96.4181917,201.293249 L96.4182118,201.293222 Z" id="Path" fill="#FFFFFF"></path>
                    <path d="M60.033689,196.63924 C59.635084,191.707803 62.8118255,187.209105 67.5377776,186.012428 C68.0011654,185.896812 68.1997872,186.622923 67.7357855,186.738693 C63.331325,187.845184 60.3771516,192.046799 60.7753028,196.638337 C60.8166233,197.121346 60.0747679,197.119462 60.033689,196.63924 L60.033689,196.63924 Z" id="Path" fill="#FFFFFF"></path>
                    <path d="M41.6372254,206.087071 C45.24135,208.953228 49.8863835,210.463358 54.6461011,210.31634 C55.117665,210.301418 55.1179747,210.976002 54.6469786,210.990901 C49.6935943,211.135384 44.8631914,209.554816 41.119782,206.564633 C40.7631912,206.279401 41.2825766,205.80339 41.6372254,206.087071 L41.6372254,206.087071 Z" id="Path" fill="#FFFFFF"></path>
                    <path d="M81.8266739,196.372502 C81.5804081,198.262222 82.3481919,200.143247 83.8698585,201.378184 C84.2549813,201.688823 83.6994392,202.214866 83.3168265,201.906249 C81.643019,200.534992 80.7915635,198.462615 81.0436026,196.373396 C81.0501772,196.17017 81.2213254,196.00675 81.4346556,196 C81.6504385,196.000785 81.8253055,196.166958 81.8266464,196.372502 L81.8266739,196.372502 Z" id="Path" fill="#FFFFFF"></path>
                    <path d="M477.710748,268.804342 C471.155925,252.758081 456.390511,239.159607 439,238 C449.891942,253.412429 454.945884,272.155918 453.26764,290.914202 C452.594019,298.146161 451.086889,306.120145 455.17858,312.138685 C457.724453,315.883616 462.081376,318.107381 466.532154,319.038168 C470.983177,319.968887 475.585753,319.751876 480.128832,319.53053 L481.16131,320 C483.85342,302.890308 484.265564,284.850595 477.710748,268.804342 Z" id="Path" fill="#D4D0E7"></path>
                    <path d="M440.187259,238.745379 C452.368809,246.609996 461.724174,258.05431 466.924541,271.452797 C468.096061,274.317615 468.801682,277.34637 469.015425,280.42756 C469.125148,283.435655 468.414849,286.417805 466.95833,289.064158 C465.650607,291.558495 464.019615,293.960803 463.350403,296.724734 C462.700701,299.596426 463.32649,302.60466 465.070515,304.993493 C467.141278,307.991405 470.182446,310.077838 473.22847,312.016422 C476.610494,314.168855 480.157987,316.351791 482.291909,319.825399 C482.550461,320.246278 483.198534,319.826609 482.940372,319.406376 C479.227717,313.362885 471.755271,311.345393 467.068618,306.256461 C464.881741,303.881851 463.40833,300.843886 463.964796,297.58123 C464.451409,294.728187 466.131148,292.249487 467.477414,289.735186 C468.936714,287.174103 469.736982,284.30011 469.808313,281.364261 C469.754568,278.282306 469.168614,275.231829 468.075544,272.34346 C465.720014,265.80215 462.334671,259.666224 458.04353,254.160459 C453.181474,247.850028 447.259015,242.405111 440.532391,238.061288 C440.115945,237.792602 439.773511,238.478468 440.187239,238.745399 L440.187259,238.745379 Z" id="Path" fill="#FFFFFF"></path>
                    <path d="M465.607396,267.948621 C470.059836,265.482953 472.09454,260.110601 470.413766,255.258068 C470.247494,254.783245 469.511795,255.022856 469.678292,255.498307 C471.252243,260.015728 469.344577,265.022027 465.183541,267.293907 C464.746168,267.53338 465.172513,268.186723 465.607369,267.948621 L465.607396,267.948621 Z" id="Path" fill="#FFFFFF"></path>
                    <path d="M467.700828,288.207459 C462.70904,286.801029 458.43445,283.57786 455.729416,279.180653 C455.461764,278.74477 454.794697,279.180214 455.062026,279.615559 C457.885547,284.186182 462.340781,287.531409 467.538592,288.98363 C468.034115,289.121711 468.193659,288.344786 467.700828,288.207452 L467.700828,288.207459 Z" id="Path" fill="#FFFFFF"></path>
                    <path d="M451.450228,249.055967 C450.05939,250.198734 448.166173,250.590163 446.412102,250.097619 C445.969727,249.971992 445.827139,250.648801 446.266667,250.773613 C448.206412,251.308856 450.295013,250.881696 451.842833,249.633177 C452.002408,249.524946 452.047416,249.315746 451.94567,249.155183 C451.836654,248.996644 451.615637,248.952383 451.450228,249.055967 L451.450228,249.055967 Z" id="Path" fill="#FFFFFF"></path>
                    <path d="M400,280.321662 C400.292844,280.41822 400.585682,280.514791 400.8805,280.617586 C404.810894,281.936415 408.629028,283.576537 412.297225,285.521765 C412.583191,285.667594 412.870828,285.81975 413.152092,285.973598 C421.940291,290.755526 429.775732,297.148758 436.260103,304.828297 C438.837609,307.886569 441.181704,311.139059 443.272094,314.55761 C446.158749,319.278931 448.917793,324.630719 453.053753,328.010778 C453.481354,328.368324 453.930405,328.698697 454.398326,329 L481.731725,321.579804 C481.785489,321.531351 481.841221,321.489122 481.895288,321.440587 L483,321.194877 C482.904341,321.010934 482.801232,320.822268 482.705613,320.638311 C482.650562,320.531381 482.589428,320.426075 482.534377,320.319165 C482.49575,320.248403 482.456806,320.177682 482.425919,320.111589 C482.413119,320.087983 482.400077,320.064467 482.388969,320.047147 C482.358102,319.981053 482.322506,319.922944 482.29331,319.86321 C481.719806,318.806871 481.137993,317.75278 480.547872,316.700936 C480.546195,316.69461 480.546195,316.69461 480.538441,316.689942 C476.021631,308.687043 470.805615,300.995784 464.60306,294.351064 C464.416384,294.151213 464.22834,293.944955 464.029174,293.748475 C461.216945,290.769058 458.169041,288.027467 454.915901,285.551083 C453.130277,284.200904 451.278327,282.943162 449.367161,281.782684 C444.423304,278.793804 439.046135,276.611287 433.432784,275.315145 C422.242245,272.73298 410.361082,273.805131 400.731332,279.852305 C400.485031,280.007197 400.24457,280.160464 400,280.321662 Z" id="Path" fill="#D4D0E7"></path>
                    <path d="M400.444379,280.907048 C414.781137,279.957582 429.050928,283.574703 441.226904,291.244645 C443.877268,292.849004 446.259573,294.863425 448.286117,297.213748 C450.186655,299.567423 451.425722,302.389924 451.874573,305.387984 C452.348938,308.174921 452.513204,311.080887 453.653026,313.703343 C454.873198,316.400813 457.180251,318.446416 459.99444,319.326108 C463.433277,320.500526 467.086665,320.362405 470.654748,320.102477 C474.616403,319.813879 478.726774,319.451024 482.502234,320.970304 C482.959688,321.154383 483.216988,320.429867 482.760227,320.246099 C476.191575,317.602838 469.089823,320.44263 462.329741,319.148654 C459.175354,318.54486 456.182815,316.981512 454.653402,314.025299 C453.316026,311.440212 453.14408,308.443703 452.688033,305.617691 C452.292803,302.686538 451.189823,299.897285 449.475445,297.493587 C447.574455,295.047087 445.273297,292.943723 442.670513,291.273566 C436.870453,287.41951 430.503826,284.506446 423.80386,282.641089 C416.168982,280.469522 408.220941,279.62726 400.303613,280.150744 C399.813591,280.183351 399.957537,280.93943 400.444359,280.907041 L400.444379,280.907048 Z" id="Path" fill="#FFFFFF"></path>
                    <path d="M437.119615,288.769096 C439.117609,284.213365 437.620687,278.835874 433.583593,276.066405 C433.187179,275.79649 432.761767,276.418998 433.158727,276.689276 C436.924075,279.261977 438.310167,284.279919 436.424574,288.512321 C436.226757,288.957721 436.922962,289.211908 437.119647,288.769096 L437.119615,288.769096 Z" id="Path" fill="#FFFFFF"></path>
                    <path d="M450.468126,304.070935 C445.966728,305.7238 440.973356,305.708016 436.483692,304.02673 C436.039014,303.859808 435.789099,304.522616 436.233241,304.689339 C440.908738,306.430661 446.105146,306.437079 450.785417,304.707314 C451.231396,304.542146 450.911679,303.906678 450.468126,304.070941 L450.468126,304.070935 Z" id="Path" fill="#FFFFFF"></path>
                    <path d="M415.352471,282.246363 C414.980404,284.101935 413.793786,285.625206 412.194705,286.300013 C411.790544,286.469006 412.079445,287.141194 412.480951,286.973302 C414.243782,286.21894 415.555583,284.542484 415.98321,282.497485 C416.039274,282.304293 415.950687,282.095921 415.780805,282.021393 C415.606676,281.953154 415.415585,282.053512 415.352453,282.246356 L415.352471,282.246363 Z" id="Path" fill="#FFFFFF"></path>
                    <circle id="Oval" fill="#FDA200" cx="352.5" cy="317.5" r="6.5"></circle>
                    <circle id="Oval" fill="#5233D3" cx="131.5" cy="178.5" r="6.5"></circle>
                    <circle id="Oval" fill="#FC9D00" cx="255.5" cy="29.5" r="6.5"></circle>
                    <path d="M122,276.000123 C122,277.624181 122.053535,279.248239 122.167147,280.85893 C122.287442,282.78374 122.494617,284.695183 122.775306,286.593259 C123.718617,292.984235 125.521549,299.218347 128.13512,305.126233 C128.26875,305.420301 128.402411,305.714369 128.536104,306.008437 L128.736595,306.449539 C128.803426,306.596573 128.87694,306.743608 128.94377,306.883958 C129.037333,307.077776 129.124213,307.26491 129.217776,307.452044 C129.331388,307.685962 129.445,307.91988 129.565295,308.153798 C129.578661,308.180531 129.592027,308.213948 129.612076,308.247365 C129.712322,308.447866 129.805885,308.641684 129.912814,308.842185 C129.932465,308.885843 129.954784,308.928251 129.979644,308.969168 C130.093257,309.196403 130.213552,309.430321 130.333847,309.657555 C130.467508,309.89819 130.594486,310.145441 130.728147,310.386042 C131.048934,310.980862 131.383087,311.568998 131.723923,312.157134 C131.824169,312.330902 131.924415,312.504669 132.031344,312.678437 C132.124907,312.838837 132.21847,312.999238 132.318716,313.159639 C132.385546,313.266573 132.452377,313.38019 132.519207,313.487124 C132.626136,313.667575 132.733065,313.841342 132.846677,314.021793 C133.09395,314.416112 133.347907,314.81043 133.59518,315.204749 L133.601863,315.204749 C133.715475,315.3852 133.83577,315.565651 133.956065,315.739418 L133.956065,315.746102 C134.310267,316.280771 134.677836,316.81544 135.045404,317.343393 C135.047188,317.343356 135.048909,317.344048 135.05017,317.34531 C135.051432,317.346571 135.052124,317.348293 135.052087,317.350076 C135.346142,317.777812 135.653563,318.19218 135.9543,318.606549 L135.9543,318.613232 C136.154792,318.873884 136.348601,319.141218 136.549093,319.40187 C136.709486,319.615737 136.876563,319.836288 137.043639,320.050156 C137.077054,320.0969 137.117153,320.137 137.150568,320.183823 L137.150568,320.190507 C137.197349,320.250657 137.244131,320.304124 137.290912,320.364274 C137.999317,321.273212 138.729998,322.1621 139.482956,323.030937 L139.603251,323.171288 C139.643349,323.218072 139.690131,323.264855 139.730229,323.318322 C139.79706,323.391873 139.857207,323.465356 139.924038,323.538873 C139.984185,323.61239 140.051016,323.685907 140.117847,323.759424 C144.04286,328.181003 148.49333,332.106484 153.370355,335.448632 C154.018612,335.896417 154.680235,336.330836 155.341858,336.751888 C155.508934,336.858822 155.676011,336.965756 155.843087,337.066006 C155.889868,337.099423 155.943333,337.13284 155.990114,337.166257 C156.083677,337.219724 156.170557,337.273191 156.26412,337.333341 C156.351,337.386808 156.437879,337.440275 156.531442,337.493742 C156.885644,337.714293 157.24653,337.928161 157.607415,338.142028 C157.694295,338.195495 157.787858,338.248962 157.88142,338.302469 C157.9683,338.349213 158.061863,338.40272 158.155426,338.456187 C158.155426,338.46287 158.155426,338.46287 158.162109,338.46287 L158.168792,338.46287 L158.168792,338.469553 L158.175475,338.469553 C158.623267,338.730169 159.077715,338.984126 159.538819,339.231424 C159.786093,339.365091 160.040049,339.505442 160.294005,339.632426 C160.868748,339.946544 161.450174,340.247295 162.031601,340.53468 C162.238776,340.634931 162.452633,340.735181 162.659808,340.842115 C162.833568,340.922315 163.007327,341.009199 163.181087,341.089399 C163.234552,341.116133 163.281333,341.136183 163.328114,341.162916 C163.475142,341.22975 163.615486,341.296584 163.762513,341.363417 C163.922907,341.436968 164.0833,341.510451 164.237011,341.583969 C164.417453,341.664169 164.591213,341.744369 164.771655,341.817886 C165.439961,342.118638 166.11495,342.406023 166.789939,342.680041 C169.208911,343.671658 171.680979,344.528443 174.19477,345.246453 C174.308382,345.27987 174.428677,345.313287 174.548972,345.346704 C175.624981,345.647455 176.707647,345.921473 177.796973,346.168758 C179.701645,346.609887 181.624139,346.970788 183.564454,347.251463 L183.57782,347.251463 C183.811727,347.28488 184.038951,347.318297 184.272858,347.351713 C184.292907,347.351713 184.312956,347.358397 184.339689,347.358397 C184.339689,347.36508 184.339689,347.36508 184.346372,347.358397 C184.600328,347.391814 184.860967,347.425231 185.114924,347.458647 C185.132262,347.463771 185.150322,347.466029 185.168388,347.465331 C185.408978,347.498748 185.656252,347.525481 185.896842,347.552214 C186.157454,347.578948 186.418094,347.605681 186.67876,347.632415 C186.879252,347.652465 187.079743,347.672515 187.280235,347.692565 C187.297394,347.698502 187.315607,347.700779 187.3337,347.699249 C187.514142,347.712615 187.694585,347.732665 187.875027,347.746032 L187.90176,347.746032 C188.05547,347.759399 188.215864,347.772766 188.369574,347.786172 C190.234148,347.933206 192.105405,348 194.003394,348 C196.055093,348 198.093426,347.9198 200.105027,347.746032 L200.125077,347.746032 C200.559476,347.705932 200.987191,347.665832 201.414907,347.625731 C201.528519,347.612365 201.635448,347.605681 201.74906,347.592315 C201.769109,347.592315 201.795842,347.585631 201.815891,347.585631 C201.849306,347.578948 201.882721,347.578948 201.92282,347.572265 C201.940886,347.572963 201.958946,347.570705 201.976284,347.565581 C202.123312,347.552214 202.270339,347.532164 202.424049,347.518798 L202.925279,347.458647 C203.092355,347.438597 203.259432,347.411864 203.426508,347.391814 C203.466607,347.38513 203.500022,347.38513 203.54012,347.378447 C203.660415,347.36508 203.780711,347.34503 203.901006,347.325013 C203.961153,347.31833 204.021301,347.311647 204.074765,347.304963 C204.19506,347.284913 204.308672,347.271547 204.428967,347.251496 L204.43565,347.251496 C208.102886,346.723533 211.722906,345.907874 215.262208,344.812068 C215.449333,344.751917 215.636459,344.698417 215.823585,344.6383 C215.830268,344.6383 215.836951,344.631617 215.843634,344.631617 C215.897098,344.611567 215.957246,344.5982 216.01071,344.57815 C216.51194,344.417749 217.006486,344.250665 217.501033,344.076897 C218.182705,343.849663 218.857694,343.602378 219.532683,343.348411 C219.713126,343.274894 219.893568,343.20806 220.074011,343.134543 C220.441579,342.994192 220.802465,342.847158 221.16335,342.700124 C221.778191,342.45284 222.393033,342.192188 223.001191,341.924854 C223.569251,341.670886 224.130629,341.416918 224.692006,341.149583 C224.705372,341.14294 224.725421,341.14294 224.738787,341.129533 C224.865765,341.069383 224.992743,341.009232 225.113038,340.949082 L225.119721,340.949082 C228.197398,339.47199 231.165557,337.776778 234.001508,335.876407 C234.910404,335.268221 235.805934,334.639984 236.688098,333.991698 C237.396503,333.463712 238.091541,332.929043 238.786579,332.381007 C242.215479,329.653442 245.389602,326.620103 248.269842,323.318362 L248.269842,323.311679 C248.477016,323.084444 248.670825,322.850527 248.871317,322.616609 C248.904732,322.583192 248.931465,322.549775 248.958197,322.523042 C249.085175,322.369324 249.20547,322.22229 249.332448,322.075256 L249.332448,322.068573 C249.499525,321.874755 249.666601,321.674254 249.826995,321.473753 C249.867093,321.42701 249.900508,321.38691 249.933924,321.346769 L249.933924,321.340086 C250.067585,321.179685 250.194529,321.019284 250.328224,320.8522 C250.395055,320.772 250.455202,320.691799 250.522033,320.611599 L250.522033,320.604916 C250.916333,320.110347 251.297268,319.615777 251.678202,319.107842 C251.778448,318.974174 251.878694,318.833824 251.985623,318.693473 C252.466803,318.045186 252.934618,317.383533 253.389066,316.72188 L253.389066,316.715197 C253.562825,316.467912 253.729902,316.213944 253.903661,315.96666 C254.070738,315.712692 254.237814,315.458735 254.404891,315.204789 C254.571967,314.937455 254.745727,314.676803 254.912803,314.409469 L254.932852,314.369368 C255.099929,314.1154 255.267005,313.848066 255.427399,313.587415 C255.554377,313.373547 255.681355,313.166363 255.808333,312.959178 C255.88853,312.818827 255.97541,312.678477 256.055607,312.531476 C256.086964,312.48622 256.115963,312.439374 256.142486,312.391125 C256.329612,312.063641 256.516738,311.736156 256.703863,311.408671 C256.924404,311.027759 257.138262,310.640084 257.35212,310.252448 C257.432317,310.092047 257.519197,309.931647 257.606077,309.771246 C257.639492,309.717779 257.666224,309.664312 257.692956,309.610845 C257.793202,309.423711 257.893448,309.229933 257.987011,309.036076 C258.087257,308.848941 258.187503,308.655124 258.287749,308.461306 C258.381278,308.274172 258.481557,308.080354 258.57512,307.886537 C258.648634,307.739503 258.715464,307.592469 258.788978,307.445435 C258.794131,307.433446 258.800875,307.422206 258.809027,307.412018 C258.842443,307.338501 258.875858,307.271667 258.90259,307.204833 C258.910752,307.194651 258.917496,307.18341 258.922639,307.171416 C258.996153,307.024382 259.062984,306.870665 259.136497,306.723631 C259.23006,306.529813 259.31694,306.329312 259.410503,306.135495 C259.47065,306.001827 259.537481,305.861477 259.597628,305.721126 C259.684508,305.527308 259.778071,305.333491 259.858268,305.13299 C259.951831,304.932455 260.03871,304.731988 260.12559,304.524803 C260.150647,304.474818 260.172957,304.423503 260.192421,304.371086 C260.239202,304.277519 260.272617,304.183952 260.312716,304.090385 C260.419645,303.8431 260.526574,303.589132 260.62682,303.341848 C260.747115,303.061146 260.860727,302.773762 260.967656,302.49306 C261.074585,302.232409 261.174831,301.965074 261.275077,301.69774 L261.315175,301.604172 C262.872312,297.50261 264.053391,293.267981 264.843831,288.95256 L264.843831,288.945877 C265.289614,286.482115 265.608594,283.997087 265.799508,281.500607 C265.806191,281.360256 265.819557,281.226589 265.82624,281.092922 C265.946536,279.40203 266,277.704455 266,276.000197 C266,275.244976 265.986634,274.496439 265.966585,273.747902 C265.500076,258.093028 259.917967,243.022049 250.074268,230.840692 C249.86041,230.573357 249.646552,230.306022 249.426011,230.038688 C249.20547,229.771353 248.978246,229.510702 248.757705,229.250051 C233.900162,211.849803 211.658167,202.546028 188.83712,204.18541 C166.016074,205.824791 145.332153,218.212209 133.114033,237.557475 C132.786563,238.078777 132.459093,238.606763 132.144989,239.134783 C131.824202,239.669452 131.516782,240.204121 131.209361,240.745474 C125.154937,251.507822 121.982728,263.651551 122,276.000123 L122,276.000123 Z" id="Path" fill="#F2F2F2"></path>
                    <path d="M191.20784,228.536017 C203.01839,231.673846 215.121553,233.482554 227.307033,233.930712 C229.149689,234.034645 230.996762,234.021641 232.837883,233.891773 C236.883925,233.539422 240.349667,232.222736 244.20944,231.503193 C246.064999,231.158262 248.131907,230.906043 250,230.533294 C249.568347,229.978805 249.128938,229.431113 248.681773,228.890218 C244.653625,229.242576 240.562809,230.39606 236.486314,230.932011 C229.556629,231.844417 221.792302,230.826302 216.539068,228.315329 C213.990375,227.096931 212.038082,225.576254 209.498329,224.352293 C209.152896,224.168679 208.778729,224.050004 208.393238,224.001791 C207.660959,223.979042 206.937643,224.173353 206.308416,224.561853 C202.047446,226.789082 195.861055,228.59906 190.118856,227.603206 C189.690791,227.949994 190.503946,228.344997 191.20784,228.536017 Z" id="Path" fill="#4D33B7"></path>
                    <path d="M165.270825,235.870255 C165.192165,235.855885 165.113295,235.844675 165.034585,235.831045 C165.365478,235.625977 165.677038,235.391244 165.965415,235.129745 L165.270825,235.870255 Z" id="Path" fill="#FFFFFF"></path>
                    <path d="M131,240.509245 C133.383053,240.699507 135.778571,240.841166 138.186554,240.934224 C140.017559,241.032988 141.852879,241.02052 143.68237,240.896888 C147.702779,240.557256 151.146564,239.296562 154.981884,238.606641 C158.496842,237.975393 162.768206,237.671336 165,236.270162 C159.231884,235.272623 153.255552,237.303263 147.30768,238.058973 C142.496562,238.650039 137.619517,238.409441 132.890082,237.347714 C132.23158,238.382595 131.601553,239.436439 131,240.509245 Z" id="Path" fill="#4D33B7"></path>
                    <path d="M159,339.801559 C159.579612,340.109328 160.165964,340.404 160.752316,340.685576 C160.961246,340.7838 161.176915,340.882024 161.385845,340.986797 C161.561077,341.065376 161.736308,341.150504 161.91154,341.229083 C161.965457,341.255276 162.012635,341.274921 162.059813,341.301114 C162.208086,341.366597 162.349619,341.432079 162.497892,341.497562 C162.659644,341.569626 162.821396,341.641624 162.976409,341.713655 C163.15838,341.792235 163.333612,341.870814 163.515583,341.942845 C164.18955,342.237517 164.870258,342.519093 165.550965,342.787572 C167.990429,343.759146 170.483439,344.598613 173.018526,345.30211 C173.1331,345.334852 173.254414,345.367593 173.375729,345.400335 C174.460852,345.695007 175.552691,345.963486 176.651245,346.205772 C178.572052,346.637985 180.510832,346.991592 182.467585,347.266593 L182.481064,347.266593 C182.716953,347.299334 182.946102,347.332076 183.181991,347.364817 C183.20221,347.364817 183.222429,347.371366 183.249387,347.371366 C183.249387,347.377914 183.249387,347.377914 183.256127,347.371366 C183.512235,347.404107 183.775082,347.436848 184.03119,347.46959 C184.048675,347.47461 184.066888,347.476822 184.085107,347.476138 C184.327735,347.508879 184.577103,347.535072 184.819732,347.561266 C185.082552,347.587459 185.345399,347.613652 185.608274,347.639845 C185.810464,347.65949 186.012654,347.679134 186.214845,347.698779 C186.232149,347.704596 186.250516,347.706827 186.268762,347.705328 C186.450733,347.718424 186.632705,347.738069 186.814676,347.751166 L186.841634,347.751166 C186.996647,347.764262 187.158399,347.777359 187.313412,347.790494 C189.193781,347.934557 191.080891,348 192.994958,348 C195.064039,348 197.11964,347.921421 199.148282,347.751166 L199.168502,347.751166 C199.60658,347.711876 200.03792,347.672586 200.469259,347.633297 C200.583833,347.6202 200.691668,347.613652 200.806243,347.600555 C200.826462,347.600555 200.85342,347.594007 200.87364,347.594007 C200.907338,347.587459 200.941036,347.587459 200.981474,347.58091 C200.999694,347.581595 201.017906,347.579383 201.035392,347.574362 C201.183665,347.561266 201.331937,347.541621 201.48695,347.528524 L201.992426,347.46959 C202.160918,347.449945 202.329409,347.423752 202.497901,347.404107 C202.538339,347.397559 202.572038,347.397559 202.612476,347.39101 C202.73379,347.377914 202.855104,347.358269 202.976418,347.338657 C203.037075,347.332109 203.097733,347.32556 203.15165,347.319012 C203.272964,347.299367 203.387539,347.286271 203.508853,347.266626 L203.515592,347.266626 C207.213895,346.749334 210.864582,345.950162 214.433867,344.876505 C214.622578,344.817571 214.811289,344.765152 215,344.70625 C213.236258,336.714369 207.749691,329.972889 200.152494,326.462754 C201.07963,325.604614 201.720552,324.496021 201.992426,323.280259 C202.345831,321.697485 202.035363,320.043129 201.129747,318.683402 C200.255174,317.378608 198.883046,316.46471 197.315091,316.142671 L187.326891,314.112705 C183.980391,313.478806 180.732916,315.582307 180.048041,318.827464 C179.946137,319.305447 179.900911,319.793198 179.913248,320.281181 C170.295703,326.502011 163.374043,332.952043 159,339.801559 Z" id="Path" fill="#5A248B"></path>
                    <circle id="Oval" fill="#976E33" cx="189" cy="289" r="21"></circle>
                    <path d="M176.523288,306.619971 C174.299583,305.109857 172.028797,302.208064 170.512799,300.033238 C166.450248,294.251814 165.045092,287.028577 166.64645,280.158186 C166.898988,278.79985 167.519613,277.535784 168.441439,276.502219 C169.423592,275.536036 171.0277,275.077901 172.226399,275.761145 C171.565231,274.000876 171.665823,272.047137 172.504323,270.363181 C173.34687,268.699661 174.567666,267.254161 176.069914,266.141295 C181.923255,261.660297 189.778579,260.735724 196.52262,263.734007 C197.825178,264.334035 195.685767,259.699846 197.049177,260.146714 C198.403497,260.668101 199.909298,260.641793 201.244354,260.073421 C202.526659,259.431731 206.77696,263.244322 206.28513,261.903496 C208.263014,262.796272 209.642629,264.634533 209.940202,266.773675 C210.237774,268.912818 209.411777,271.05432 207.751853,272.447243 C206.675633,273.350353 205.331978,273.870386 204.153587,274.63719 C199.880931,277.625528 198.524576,283.314503 200.99354,287.891421 C199.753734,287.099498 198.393423,286.51182 196.96514,286.151082 C195.511304,285.798371 193.975628,286.165565 192.842127,287.136931 C191.898698,288.210334 191.442476,289.623113 191.581124,291.04187 C191.627833,292.448684 191.964502,293.834664 192.002289,295.24174 C192.113166,299.370446 194.33735,307.219998 191.117411,309.41455 C188.576346,311.146416 179.559458,308.681829 176.523288,306.619971 Z" id="Path" fill="#2F2E41"></path>
                    <path d="M204.123824,186 C203.68856,185.998997 203.257792,185.911131 202.856324,185.74146 C201.629964,185.244385 200.831586,184.038961 200.845591,182.705572 L200.845591,179.404884 C200.844116,177.963353 199.686368,176.795082 198.257643,176.793415 C196.459324,176.791401 195.001996,175.32101 195,173.506572 L195,128.286843 C195.001955,126.472514 196.459111,125.002151 198.257322,125 L346.742357,125 C348.540676,125.002014 349.998004,126.472405 350,128.286843 L350,173.506572 C349.998004,175.32101 348.540676,176.791401 346.742357,176.793415 L215.641766,176.793415 C214.954933,176.791546 214.295886,177.066906 213.811442,177.558154 L206.406825,185.029143 C205.805137,185.6478 204.982887,185.997466 204.123824,186 L204.123824,186 Z" id="Path" fill="#FFFFFF"></path>
                    <path d="M203.83462,187 C203.309064,186.999374 202.788852,186.894602 202.304102,186.691747 C200.819797,186.09553 199.853554,184.65071 199.870316,183.052517 L199.870316,179.770718 C199.869342,178.707935 199.007408,177.846521 197.943627,177.845192 C195.766539,177.842672 194.002341,176.079981 194,173.904935 L194,128.939928 C194.002334,126.765058 195.766393,125.002509 197.943304,125 L347.056373,125 C349.233348,125.002483 350.997514,126.764995 351,128.939928 L351,173.904948 C350.997659,176.079994 349.233461,177.842685 347.056373,177.845206 L215.401277,177.845206 C214.889822,177.843711 214.399052,178.046824 214.038482,178.409221 L206.602546,185.83786 C205.872408,186.579193 204.875631,186.9977 203.83462,187 L203.83462,187 Z M197.943304,126.34315 C196.508537,126.344835 195.344411,127.506533 195.344411,128.939955 L195.344411,173.904975 C195.344411,175.338619 196.508638,176.500524 197.943627,176.502083 C199.749506,176.504374 201.212789,177.966573 201.214726,179.770758 L201.214726,183.052557 C201.214981,184.102692 201.848304,185.049302 202.819447,185.451089 C203.79059,185.852877 204.908361,185.630742 205.651671,184.88824 L213.087943,177.459601 C213.700019,176.84444 214.533081,176.499625 215.401277,176.502083 L347.056373,176.502083 C348.491362,176.500524 349.655589,175.338619 349.655589,173.904975 L349.655589,128.939928 C349.655589,127.506396 348.491251,126.344667 347.056373,126.34315 L197.943304,126.34315 Z" id="Shape" fill="#3F3D56"></path>
                    <path d="M334.250014,146 L212.749986,146 C211.783496,146 211,145.104569 211,144 C211,142.895431 211.783496,142 212.749986,142 L334.250014,142 C335.216504,142 336,142.895431 336,144 C336,145.104569 335.216504,146 334.250014,146 L334.250014,146 Z" id="Path" fill="#6C63FF"></path>
                    <path d="M334.260907,153 L213.739093,153 C212.778618,153 212,152.104569 212,151 C212,149.895431 212.778618,149 213.739093,149 L334.260907,149 C335.221382,149 336,149.895431 336,151 C336,152.104569 335.221382,153 334.260907,153 Z" id="Path" fill="#E6E6E6"></path>
                    <path d="M334.259223,160 L213.740777,160 C212.779372,160 212,159.104569 212,158 C212,156.895431 212.779372,156 213.740777,156 L334.259223,156 C335.220628,156 336,156.895431 336,158 C336,159.104569 335.220628,160 334.259223,160 Z" id="Path" fill="#E6E6E6"></path>
                    <path d="M523,118.00014 C523,119.624198 522.946465,121.248255 522.832853,122.858946 C522.712558,124.783755 522.505383,126.695197 522.224695,128.593273 C521.281383,134.984248 519.478452,141.218358 516.864882,147.126243 C516.731252,147.420311 516.59759,147.714379 516.463898,148.008447 L516.263406,148.449549 C516.196576,148.596583 516.123062,148.743617 516.056231,148.883968 C515.962669,149.077785 515.875789,149.26492 515.782226,149.452054 C515.668614,149.685972 515.555002,149.919889 515.434707,150.153807 C515.421341,150.180541 515.407975,150.213957 515.387926,150.247374 C515.28768,150.447875 515.194117,150.641693 515.087188,150.842194 C515.067537,150.885852 515.045218,150.928261 515.020357,150.969178 C514.906745,151.196412 514.78645,151.43033 514.666155,151.657564 C514.532494,151.898199 514.405516,152.14545 514.271855,152.386051 C513.951068,152.98087 513.616915,153.569006 513.276079,154.157142 C513.175833,154.33091 513.075587,154.504677 512.968658,154.678445 C512.875096,154.838846 512.781533,154.999246 512.681287,155.159647 C512.614456,155.266581 512.547626,155.380198 512.480762,155.487132 C512.373833,155.667583 512.266904,155.84135 512.153292,156.021801 C511.906019,156.41612 511.652063,156.810438 511.404789,157.204757 L511.398106,157.204757 C511.284494,157.385208 511.164199,157.565658 511.043904,157.739426 L511.043904,157.746109 C510.689702,158.280778 510.322134,158.815448 509.954566,159.3434 C509.952782,159.343363 509.951061,159.344055 509.949799,159.345317 C509.948538,159.346578 509.947846,159.3483 509.947883,159.350083 C509.653828,159.777819 509.346407,160.192187 509.04567,160.606556 L509.04567,160.613239 C508.845178,160.87389 508.651369,161.141225 508.450877,161.401876 C508.290484,161.615744 508.123408,161.836295 507.956331,162.050163 C507.922916,162.096906 507.882817,162.137006 507.849402,162.18383 L507.849402,162.190513 C507.802621,162.250664 507.755839,162.30413 507.709058,162.364281 C507.000654,163.273218 506.269973,164.162106 505.517015,165.030943 L505.39672,165.171294 C505.356621,165.218077 505.30984,165.264861 505.269742,165.318328 C505.202911,165.391878 505.142763,165.465362 505.075933,165.538879 C505.015785,165.612396 504.948955,165.685913 504.882124,165.75943 C500.957112,170.181008 496.506643,174.106488 491.629619,177.448635 C490.981362,177.89642 490.31974,178.330839 489.658117,178.751891 C489.49104,178.858825 489.323964,178.965758 489.156887,179.066009 C489.110106,179.099426 489.056642,179.132842 489.00986,179.166259 C488.916297,179.219726 488.829418,179.273193 488.735855,179.333343 C488.648975,179.38681 488.562095,179.440277 488.468532,179.493744 C488.11433,179.714295 487.753445,179.928163 487.39256,180.142031 C487.30568,180.195497 487.212117,180.248964 487.118555,180.302471 C487.031675,180.349215 486.938112,180.402722 486.844549,180.456189 C486.844549,180.462872 486.844549,180.462872 486.837866,180.462872 L486.831183,180.462872 L486.831183,180.469556 L486.8245,180.469556 C486.376708,180.730171 485.92226,180.984128 485.461156,181.231426 C485.213883,181.365093 484.959927,181.505444 484.70597,181.632428 C484.131227,181.946546 483.549801,182.247297 482.968375,182.534682 C482.7612,182.634932 482.547343,182.735183 482.340168,182.842117 C482.166408,182.922317 481.992649,183.009201 481.818889,183.089401 C481.765425,183.116134 481.718643,183.136185 481.671862,183.162918 C481.524835,183.229752 481.38449,183.296585 481.237463,183.363419 C481.07707,183.436969 480.916676,183.510453 480.762966,183.58397 C480.582523,183.66417 480.408764,183.744371 480.228321,183.817888 C479.560015,184.118639 478.885026,184.406024 478.210038,184.680042 C475.791067,185.671659 473.318999,186.528444 470.805209,187.246454 C470.691597,187.279871 470.571302,187.313287 470.451007,187.346704 C469.374998,187.647456 468.292332,187.921474 467.203007,188.168758 C465.298335,188.609887 463.375842,188.970789 461.435527,189.251463 L461.422161,189.251463 C461.188254,189.28488 460.96103,189.318297 460.727123,189.351714 C460.707074,189.351714 460.687025,189.358397 460.660292,189.358397 C460.660292,189.36508 460.660292,189.36508 460.653609,189.358397 C460.399653,189.391814 460.139014,189.425231 459.885058,189.458647 C459.867719,189.463772 459.84966,189.466029 459.831593,189.465331 C459.591003,189.498748 459.34373,189.525481 459.10314,189.552215 C458.842527,189.578948 458.581888,189.605681 458.321222,189.632415 C458.12073,189.652465 457.920238,189.672515 457.719747,189.692565 C457.702587,189.698502 457.684375,189.700779 457.666282,189.699249 C457.48584,189.712615 457.305397,189.732665 457.124954,189.746032 L457.098222,189.746032 C456.944512,189.759399 456.784118,189.772766 456.630408,189.786172 C454.765835,189.933206 452.894578,190 450.99659,190 C448.944891,190 446.906558,189.9198 444.894957,189.746032 L444.874908,189.746032 C444.440509,189.705932 444.012794,189.665832 443.585078,189.625732 C443.471466,189.612365 443.364537,189.605681 443.250925,189.592315 C443.230876,189.592315 443.204143,189.585631 443.184094,189.585631 C443.150679,189.578948 443.117264,189.578948 443.077165,189.572265 C443.059099,189.572963 443.04104,189.570705 443.023701,189.565581 C442.876674,189.552215 442.729646,189.532164 442.575936,189.518798 L442.074707,189.458647 C441.90763,189.438597 441.740554,189.411864 441.573477,189.391814 C441.533379,189.38513 441.499964,189.38513 441.459865,189.378447 C441.33957,189.36508 441.219275,189.34503 441.09898,189.325014 C441.038832,189.31833 440.978685,189.311647 440.92522,189.304963 C440.804925,189.284913 440.691313,189.271547 440.571018,189.251497 L440.564335,189.251497 C436.8971,188.723534 433.277081,187.907875 429.73778,186.812069 C429.550655,186.751918 429.363529,186.698418 429.176404,186.638301 C429.169721,186.638301 429.163037,186.631618 429.156354,186.631618 C429.10289,186.611568 429.042742,186.598201 428.989278,186.578151 C428.488049,186.41775 427.993502,186.250666 427.498956,186.076898 C426.817284,185.849664 426.142295,185.60238 425.467306,185.348412 C425.286863,185.274895 425.106421,185.208061 424.925978,185.134544 C424.55841,184.994193 424.197525,184.847159 423.83664,184.700125 C423.221798,184.452841 422.606957,184.19219 421.998799,183.924855 C421.430739,183.670887 420.869362,183.416919 420.307985,183.149585 C420.294619,183.142941 420.27457,183.142941 420.261203,183.129535 C420.134225,183.069384 420.007247,183.009234 419.886952,182.949084 L419.880269,182.949084 C416.802593,181.471992 413.834434,179.77678 410.998484,177.87641 C410.089588,177.268224 409.194059,176.639988 408.311895,175.991701 C407.603491,175.463715 406.908452,174.929046 406.213414,174.38101 C402.784516,171.653446 399.610394,168.620108 396.730154,165.318368 L396.730154,165.311685 C396.52298,165.08445 396.329171,164.850532 396.128679,164.616615 C396.095264,164.583198 396.068532,164.549781 396.041799,164.523048 C395.914821,164.36933 395.794526,164.222296 395.667548,164.075262 L395.667548,164.068579 C395.500472,163.874761 395.333395,163.67426 395.173002,163.473759 C395.132903,163.427016 395.099488,163.386916 395.066073,163.346775 L395.066073,163.340092 C394.932412,163.179691 394.805433,163.019291 394.671772,162.852206 C394.604942,162.772006 394.544794,162.691806 394.477964,162.611605 L394.477964,162.604922 C394.083663,162.110353 393.702729,161.615784 393.321794,161.107848 C393.221549,160.974181 393.121303,160.83383 393.014374,160.69348 C392.533194,160.045193 392.065379,159.38354 391.610931,158.721887 L391.610931,158.715204 C391.437172,158.467919 391.270095,158.213951 391.096336,157.966667 C390.92926,157.712699 390.762183,157.458742 390.595107,157.204797 C390.42803,156.937462 390.254271,156.676811 390.087194,156.409476 L390.067145,156.369376 C389.900068,156.115408 389.732992,155.848074 389.572599,155.587389 C389.445621,155.373521 389.318642,155.166337 389.191664,154.959153 C389.111468,154.818802 389.024588,154.678452 388.944391,154.531451 C388.913034,154.486195 388.884035,154.439349 388.857511,154.3911 C388.670386,154.063615 388.48326,153.736131 388.296134,153.408646 C388.075594,153.027734 387.861736,152.640059 387.647878,152.252424 C387.567681,152.092023 387.480801,151.931622 387.393922,151.771221 C387.360506,151.717754 387.333774,151.664288 387.307042,151.610821 C387.206796,151.423686 387.10655,151.229909 387.012987,151.036051 C386.912741,150.848917 386.812495,150.655099 386.71225,150.461282 C386.618687,150.274148 386.518441,150.08033 386.424878,149.886513 C386.351364,149.739479 386.284534,149.592445 386.21102,149.44541 C386.205867,149.433422 386.199124,149.422182 386.190971,149.411994 C386.157556,149.338477 386.12414,149.271643 386.097408,149.204809 C386.089247,149.194627 386.082502,149.183386 386.077359,149.171393 C386.003812,149.024359 385.937015,148.870641 385.863501,148.723607 C385.769938,148.52979 385.683059,148.329289 385.589496,148.135471 C385.529348,148.001804 385.462518,147.861453 385.40237,147.721102 C385.31549,147.527285 385.221928,147.333467 385.141731,147.132966 C385.048168,146.932465 384.961288,146.731964 384.874408,146.52478 C384.849349,146.474796 384.827039,146.423481 384.807578,146.371063 C384.760796,146.277496 384.727381,146.183929 384.687283,146.090361 C384.580354,145.843077 384.473425,145.589109 384.373179,145.341825 C384.252884,145.06109 384.139272,144.773739 384.032343,144.493037 C383.925414,144.232386 383.825168,143.965052 383.724922,143.697717 L383.684824,143.60415 C382.127687,139.502589 380.946609,135.267961 380.156169,130.952541 L380.156169,130.945857 C379.710386,128.482096 379.391406,125.997068 379.200492,123.500589 C379.193809,123.360239 379.180443,123.226571 379.17376,123.092904 C379.053464,121.402013 379,119.704438 379,118.00018 C379,117.24496 379.013366,116.496423 379.033415,115.747886 C379.499923,100.093015 385.082032,85.0220402 394.925729,72.8406856 C395.139586,72.573351 395.353444,72.3060164 395.573985,72.0386818 C395.794526,71.7713472 396.02175,71.510696 396.242291,71.2500448 C411.099831,53.8498009 433.341821,44.5460283 456.162862,46.1854096 C478.983903,47.8247908 499.667819,60.2122056 511.885936,79.557467 C512.213406,80.0787694 512.540876,80.6067552 512.85498,81.1347744 C513.175766,81.6694436 513.483187,82.2041128 513.790608,82.7454653 C519.845045,93.5078185 523.017265,105.651557 523,118.00014 L523,118.00014 Z" id="Path" fill="#F2F2F2"></path>
                    <path d="M454.792163,69.5360171 C442.981613,72.6738464 430.878449,74.4825538 418.692969,74.9307119 C416.850313,75.0346452 415.003239,75.0216414 413.162118,74.8917735 C409.116076,74.5394224 405.650333,73.2227361 401.79056,72.5031931 C399.935001,72.1582626 397.868093,71.9060429 396,71.5332942 C396.431649,70.9788006 396.871058,70.4311086 397.318227,69.8902181 C401.346375,70.242576 405.437191,71.3960606 409.513687,71.932011 C416.443365,72.8444169 424.207693,71.8263023 429.460927,69.3153292 C432.00962,68.0969311 433.961914,66.5762546 436.501667,65.352293 C436.8471,65.1686791 437.221267,65.0500049 437.606758,65.0017919 C438.339037,64.9790401 439.062354,65.1733505 439.69158,65.5618537 C443.952551,67.7890822 450.138948,69.59906 455.881141,68.6032067 C456.309212,68.9499941 455.496057,69.3449972 454.792163,69.5360171 Z" id="Path" fill="#4D33B7"></path>
                    <path d="M480.729175,77.870255 C480.807835,77.855885 480.886705,77.844675 480.965415,77.831045 C480.634522,77.6259771 480.322962,77.3912439 480.034585,77.129745 L480.729175,77.870255 Z" id="Path" fill="#FFFFFF"></path>
                    <path d="M514,81.5092445 C511.616947,81.6995067 509.221429,81.8411664 506.813446,81.9342236 C504.982441,82.032988 503.147121,82.0205199 501.31763,81.8968882 C497.297221,81.5572557 493.853436,80.2965615 490.018116,79.6066406 C486.503158,78.9753934 482.231794,78.6713358 480,77.2701622 C485.768116,76.2726228 491.744448,78.3032632 497.69232,79.0589728 C502.503438,79.6500387 507.380483,79.4094408 512.109918,78.3477136 C512.76842,79.382595 513.398447,80.4364386 514,81.5092445 Z" id="Path" fill="#4D33B7"></path>
                    <ellipse id="Oval" fill="#976E33" cx="444" cy="126.5" rx="22" ry="22.5"></ellipse>
                    <path d="M485,180.801558 C484.420388,181.109327 483.834036,181.404 483.247684,181.685575 C483.038754,181.7838 482.823085,181.882024 482.614155,181.986796 C482.438923,182.065375 482.263692,182.150503 482.08846,182.229082 C482.034543,182.255275 481.987365,182.27492 481.940187,182.301113 C481.791914,182.366596 481.650381,182.432079 481.502108,182.497562 C481.340356,182.569625 481.178604,182.641624 481.023591,182.713655 C480.84162,182.792234 480.666388,182.870813 480.484417,182.942844 C479.81045,183.237517 479.129742,183.519093 478.449035,183.787572 C476.009571,184.759146 473.516561,185.598613 470.981474,186.30211 C470.8669,186.334852 470.745586,186.367593 470.624271,186.400334 C469.539148,186.695007 468.447309,186.963486 467.348755,187.205772 C465.427948,187.637985 463.489168,187.991592 461.532415,188.266593 L461.518936,188.266593 C461.283047,188.299334 461.053898,188.332076 460.818009,188.364817 C460.79779,188.364817 460.777571,188.371365 460.750613,188.371365 C460.750613,188.377914 460.750613,188.377914 460.743873,188.371365 C460.487765,188.404107 460.224918,188.436848 459.96881,188.46959 C459.951325,188.47461 459.933112,188.476822 459.914893,188.476138 C459.672265,188.508879 459.422897,188.535072 459.180268,188.561265 C458.917448,188.587459 458.654601,188.613652 458.391726,188.639845 C458.189536,188.65949 457.987346,188.679134 457.785155,188.698779 C457.767851,188.704596 457.749484,188.706827 457.731238,188.705328 C457.549267,188.718424 457.367295,188.738069 457.185324,188.751166 L457.158366,188.751166 C457.003353,188.764262 456.841601,188.777359 456.686588,188.790494 C454.806219,188.934557 452.919109,189 451.005042,189 C448.935961,189 446.88036,188.921421 444.851718,188.751166 L444.831498,188.751166 C444.39342,188.711876 443.96208,188.672586 443.530741,188.633297 C443.416167,188.6202 443.308332,188.613652 443.193757,188.600555 C443.173538,188.600555 443.14658,188.594007 443.12636,188.594007 C443.092662,188.587459 443.058964,188.587459 443.018526,188.58091 C443.000306,188.581594 442.982094,188.579383 442.964608,188.574362 C442.816335,188.561265 442.668063,188.541621 442.51305,188.528524 L442.007574,188.46959 C441.839082,188.449945 441.670591,188.423752 441.502099,188.404107 C441.461661,188.397559 441.427962,188.397559 441.387524,188.39101 C441.26621,188.377914 441.144896,188.358269 441.023582,188.338657 C440.962925,188.332109 440.902267,188.32556 440.84835,188.319012 C440.727036,188.299367 440.612461,188.286271 440.491147,188.266626 L440.484408,188.266626 C436.786105,187.749334 433.135418,186.950162 429.566133,185.876505 C429.377422,185.81757 429.188711,185.765152 429,185.70625 C430.763742,177.714368 436.250309,170.972888 443.847506,167.462752 C442.92037,166.604612 442.279448,165.49602 442.007574,164.280257 C441.654169,162.697483 441.964637,161.043127 442.870253,159.6834 C443.744826,158.378606 445.116954,157.464708 446.684909,157.142669 L456.673109,155.112703 C460.019607,154.478812 463.267077,156.582309 463.951959,159.827462 C464.05386,160.305446 464.099086,160.793196 464.086752,161.281179 C473.704297,167.502009 480.625957,173.952042 485,180.801558 Z" id="Path" fill="#4D33B7"></path>
                    <path d="M502.00128,117.1459 C498.288551,112.85342 496.523394,107.158384 493.555346,102.284061 C490.587257,97.4096974 485.422239,93.0471306 479.965698,94.1814588 C476.204314,94.9634512 473.297401,98.2540608 471.825726,101.922744 C470.354375,105.591387 470.078538,109.637167 469.82063,113.600653 C469.911756,105.45553 464.499023,97.5593542 457.042825,94.9603461 C449.587201,92.3613514 440.664135,95.2604159 435.979071,101.804065 C431.747285,97.9154545 425.250371,97.7802436 420.857713,101.489366 C416.667069,105.202673 415.739663,112.270332 418.821593,117.006736 C421.903523,121.74314 428.578083,123.507596 433.475829,120.880728 L435.207364,122.459864 C434.232707,125.8395 436.122815,129.831655 439.300118,131.103862 C441.876531,132.135619 445.51382,131.963885 446.477934,134.644424 C447.15171,136.517406 445.892408,138.516622 444.552799,139.955879 C443.213528,141.395122 441.623145,142.881371 441.462303,144.873012 C441.219224,147.878073 444.351537,149.98318 447.198914,150.617162 C454.064766,152.145959 461.682919,148.993831 465.640171,142.986692 C465.71643,142.870855 465.799351,142.754858 465.888934,142.6387 C470.37598,136.949822 472.304591,129.681299 471.221914,122.539836 C470.999316,121.151426 471.223602,120.118725 472.189153,119.789919 C476.362456,118.368712 488.054868,121.351549 491.593409,124.047386 C495.132235,126.743223 497.965936,130.310914 501.374335,133.180734 C504.783052,136.050594 509.126593,138.264268 513.454474,137.48277 C516.920661,136.856866 519.869438,134.362035 521.852901,131.35275 C523.836087,128.343486 524.977532,124.835756 526,121.349782 C518.335264,125.739592 507.845218,123.902025 502.00128,117.1459 Z" id="Path" fill="#2F2E41"></path>
                    <path d="M56,72.00014 C56,73.6241976 56.0535353,75.2482552 56.1671473,76.8589461 C56.2874424,78.7837551 56.4946172,80.6951973 56.7753058,82.5932729 C57.7186175,88.9842477 59.5215489,95.2183582 62.1351199,101.126243 C62.26875,101.420311 62.4024112,101.714379 62.5361035,102.008447 L62.7365954,102.449549 C62.803426,102.596583 62.8769396,102.743617 62.9437702,102.883968 C63.0373331,103.077785 63.1242128,103.26492 63.2177757,103.452054 C63.3313877,103.685972 63.4449997,103.919889 63.5652948,104.153807 C63.5786609,104.180541 63.592027,104.213957 63.6120762,104.247374 C63.7123221,104.447875 63.805885,104.641693 63.9128139,104.842194 C63.9324651,104.885852 63.9547841,104.928261 63.9796445,104.969178 C64.0932566,105.196412 64.2135516,105.43033 64.3338467,105.657564 C64.4675079,105.898199 64.5944861,106.14545 64.7281473,106.386051 C65.0489341,106.98087 65.3830871,107.569006 65.7239232,108.157142 C65.8241691,108.33091 65.924415,108.504677 66.031344,108.678445 C66.1249068,108.838846 66.2184697,108.999246 66.3187156,109.159647 C66.3855462,109.266581 66.4523768,109.380198 66.5192074,109.487132 C66.6261363,109.667583 66.7330653,109.84135 66.8466773,110.021801 C67.0939505,110.41612 67.3479068,110.810438 67.59518,111.204757 L67.6018631,111.204757 C67.7154751,111.385208 67.8357702,111.565658 67.9560653,111.739426 L67.9560653,111.746109 C68.3102675,112.280778 68.6778358,112.815448 69.0454041,113.3434 C69.0471876,113.343363 69.0489089,113.344055 69.0501703,113.345317 C69.0514316,113.346578 69.0521239,113.3483 69.0520871,113.350083 C69.3461418,113.777819 69.6535625,114.192187 69.9543003,114.606556 L69.9543003,114.613239 C70.1547921,114.87389 70.3486008,115.141225 70.5490926,115.401876 C70.709486,115.615744 70.8765625,115.836295 71.043639,116.050163 C71.0770543,116.096906 71.1171527,116.137006 71.150568,116.18383 L71.150568,116.190513 C71.1973494,116.250664 71.2441308,116.30413 71.2909123,116.364281 C71.9993166,117.273218 72.7299979,118.162106 73.482956,119.030943 L73.6032511,119.171294 C73.6433494,119.218077 73.6901308,119.264861 73.7302292,119.318328 C73.7970598,119.391878 73.8572073,119.465362 73.9240379,119.538879 C73.9841855,119.612396 74.0510161,119.685913 74.1178467,119.75943 C78.0428599,124.181008 82.4933299,128.106488 87.3703549,131.448635 C88.0186117,131.89642 88.6802346,132.330839 89.3418576,132.751891 C89.5089341,132.858825 89.6760106,132.965758 89.8430871,133.066009 C89.8898685,133.099426 89.943333,133.132842 89.9901144,133.166259 C90.0836772,133.219726 90.170557,133.273193 90.2641199,133.333343 C90.3509997,133.38681 90.4378794,133.440277 90.5314423,133.493744 C90.8856445,133.714295 91.2465297,133.928163 91.607415,134.142031 C91.6942947,134.195497 91.7878576,134.248964 91.8814204,134.302471 C91.9683002,134.349215 92.061863,134.402722 92.1554259,134.456189 C92.1554259,134.462872 92.1554259,134.462872 92.1621089,134.462872 L92.168792,134.462872 L92.168792,134.469556 L92.1754751,134.469556 C92.6232668,134.730171 93.0777149,134.984128 93.5388193,135.231426 C93.7860925,135.365093 94.0400488,135.505444 94.2940051,135.632428 C94.8687483,135.946546 95.4501745,136.247297 96.0316007,136.534682 C96.2387756,136.634932 96.4526335,136.735183 96.6598084,136.842117 C96.8335679,136.922317 97.0073275,137.009201 97.1810871,137.089401 C97.2345515,137.116134 97.281333,137.136185 97.3281144,137.162918 C97.4751417,137.229752 97.615486,137.296585 97.7625133,137.363419 C97.9229067,137.436969 98.0833002,137.510453 98.2370106,137.58397 C98.4174532,137.66417 98.5912127,137.744371 98.7716554,137.817888 C99.4399614,138.118639 100.11495,138.406024 100.78994,138.680042 C103.208911,139.671659 105.680979,140.528444 108.19477,141.246454 C108.308382,141.279871 108.428677,141.313287 108.548972,141.346704 C109.624981,141.647456 110.707647,141.921474 111.796973,142.168758 C113.701645,142.609887 115.624139,142.970789 117.564454,143.251463 L117.57782,143.251463 C117.811727,143.28488 118.038951,143.318297 118.272858,143.351714 C118.292907,143.351714 118.312956,143.358397 118.339689,143.358397 C118.339689,143.36508 118.339689,143.36508 118.346372,143.358397 C118.600328,143.391814 118.860967,143.425231 119.114924,143.458647 C119.132262,143.463772 119.150322,143.466029 119.168388,143.465331 C119.408978,143.498748 119.656252,143.525481 119.896842,143.552215 C120.157454,143.578948 120.418094,143.605681 120.67876,143.632415 C120.879252,143.652465 121.079743,143.672515 121.280235,143.692565 C121.297394,143.698502 121.315607,143.700779 121.3337,143.699249 C121.514142,143.712615 121.694585,143.732665 121.875028,143.746032 L121.90176,143.746032 C122.05547,143.759399 122.215864,143.772766 122.369574,143.786172 C124.234148,143.933206 126.105405,144 128.003394,144 C130.055093,144 132.093426,143.9198 134.105027,143.746032 L134.125077,143.746032 C134.559476,143.705932 134.987191,143.665832 135.414907,143.625732 C135.528519,143.612365 135.635448,143.605681 135.74906,143.592315 C135.769109,143.592315 135.795842,143.585631 135.815891,143.585631 C135.849306,143.578948 135.882721,143.578948 135.92282,143.572265 C135.940886,143.572963 135.958946,143.570705 135.976284,143.565581 C136.123312,143.552215 136.270339,143.532164 136.424049,143.518798 L136.925279,143.458647 C137.092355,143.438597 137.259432,143.411864 137.426508,143.391814 C137.466607,143.38513 137.500022,143.38513 137.54012,143.378447 C137.660415,143.36508 137.780711,143.34503 137.901006,143.325014 C137.961153,143.31833 138.021301,143.311647 138.074765,143.304963 C138.19506,143.284913 138.308672,143.271547 138.428967,143.251497 L138.43565,143.251497 C142.102886,142.723534 145.722906,141.907875 149.262208,140.812069 C149.449333,140.751918 149.636459,140.698418 149.823585,140.638301 C149.830268,140.638301 149.836951,140.631618 149.843634,140.631618 C149.897098,140.611568 149.957246,140.598201 150.010711,140.578151 C150.51194,140.41775 151.006486,140.250666 151.501033,140.076898 C152.182705,139.849664 152.857694,139.60238 153.532683,139.348412 C153.713126,139.274895 153.893568,139.208061 154.074011,139.134544 C154.441579,138.994193 154.802465,138.847159 155.16335,138.700125 C155.778191,138.452841 156.393033,138.19219 157.001191,137.924855 C157.569251,137.670887 158.130629,137.416919 158.692006,137.149585 C158.705372,137.142941 158.725421,137.142941 158.738787,137.129535 C158.865765,137.069384 158.992743,137.009234 159.113038,136.949084 L159.119721,136.949084 C162.197398,135.471992 165.165557,133.77678 168.001508,131.87641 C168.910404,131.268224 169.805935,130.639988 170.688098,129.991701 C171.396503,129.463715 172.091541,128.929046 172.786579,128.38101 C176.215479,125.653446 179.389602,122.620108 182.269842,119.318368 L182.269842,119.311685 C182.477016,119.08445 182.670825,118.850532 182.871317,118.616615 C182.904732,118.583198 182.931465,118.549781 182.958197,118.523048 C183.085175,118.36933 183.20547,118.222296 183.332448,118.075262 L183.332448,118.068579 C183.499525,117.874761 183.666601,117.67426 183.826995,117.473759 C183.867093,117.427016 183.900508,117.386916 183.933924,117.346775 L183.933924,117.340092 C184.067585,117.179691 184.194529,117.019291 184.328224,116.852206 C184.395055,116.772006 184.455202,116.691806 184.522033,116.611605 L184.522033,116.604922 C184.916333,116.110353 185.297268,115.615784 185.678202,115.107848 C185.778448,114.974181 185.878694,114.83383 185.985623,114.69348 C186.466803,114.045193 186.934618,113.38354 187.389066,112.721887 L187.389066,112.715204 C187.562825,112.467919 187.729902,112.213951 187.903661,111.966667 C188.070738,111.712699 188.237814,111.458742 188.404891,111.204797 C188.571967,110.937462 188.745727,110.676811 188.912803,110.409476 L188.932852,110.369376 C189.099929,110.115408 189.267005,109.848074 189.427399,109.587389 C189.554377,109.373521 189.681355,109.166337 189.808333,108.959153 C189.88853,108.818802 189.97541,108.678452 190.055607,108.531451 C190.086964,108.486195 190.115963,108.439349 190.142486,108.3911 C190.329612,108.063615 190.516738,107.736131 190.703863,107.408646 C190.924404,107.027734 191.138262,106.640059 191.35212,106.252424 C191.432317,106.092023 191.519197,105.931622 191.606077,105.771221 C191.639492,105.717754 191.666224,105.664288 191.692956,105.610821 C191.793202,105.423686 191.893448,105.229909 191.987011,105.036051 C192.087257,104.848917 192.187503,104.655099 192.287749,104.461282 C192.381278,104.274148 192.481557,104.08033 192.57512,103.886513 C192.648634,103.739479 192.715464,103.592445 192.788978,103.44541 C192.794131,103.433422 192.800875,103.422182 192.809027,103.411994 C192.842443,103.338477 192.875858,103.271643 192.90259,103.204809 C192.910752,103.194627 192.917496,103.183386 192.922639,103.171393 C192.996186,103.024359 193.062984,102.870641 193.136497,102.723607 C193.23006,102.52979 193.31694,102.329289 193.410503,102.135471 C193.47065,102.001804 193.537481,101.861453 193.597628,101.721102 C193.684508,101.527285 193.778071,101.333467 193.858268,101.132966 C193.951831,100.932465 194.03871,100.731964 194.12559,100.52478 C194.150647,100.474795 194.172957,100.423479 194.192421,100.371063 C194.239202,100.277496 194.272618,100.183929 194.312716,100.090361 C194.419645,99.843077 194.526574,99.5891091 194.62682,99.3418246 C194.747115,99.0610899 194.860727,98.7737386 194.967656,98.4930373 C195.074585,98.2323861 195.174831,97.9650515 195.275077,97.697717 L195.315175,97.6041498 C196.872312,93.5025887 198.053391,89.2679606 198.843831,84.9525407 L198.843831,84.9458573 C199.289614,82.4820963 199.608594,79.9970682 199.799508,77.5005892 C199.806191,77.3602385 199.819557,77.2265712 199.82624,77.0929039 C199.946536,75.4020127 200,73.7044381 200,72.0001801 C200,71.2449599 199.986634,70.4964231 199.966585,69.7478862 C199.500076,54.0930152 193.917967,39.0220402 184.074268,26.8406856 C183.86041,26.573351 183.646552,26.3060164 183.426011,26.0386818 C183.20547,25.7713472 182.978246,25.510696 182.757705,25.2500448 C167.900162,7.84980089 145.658167,-1.4539717 122.83712,0.185409552 C100.016074,1.82479081 79.3321529,14.2122056 67.1140331,33.557467 C66.7865632,34.0787694 66.4590932,34.6067552 66.1449894,35.1347744 C65.8242025,35.6694436 65.5167818,36.2041128 65.209361,36.7454653 C59.1549315,47.5078206 55.982722,59.6515592 56,72.00014 Z" id="Path" fill="#F2F2F2"></path>
                    <path d="M126.20784,25.5360169 C138.01839,28.6738464 150.121553,30.4825537 162.307033,30.9307119 C164.149689,31.0346452 165.996762,31.0216414 167.837883,30.8917735 C171.883925,30.5394224 175.349667,29.222736 179.20944,28.503193 C181.064999,28.1582624 183.131907,27.9060427 185,27.5332941 C184.568351,26.9788005 184.128942,26.4311084 183.681773,25.8902179 C179.653625,26.2425758 175.562809,27.3960604 171.486314,27.9320109 C164.556629,28.8444168 156.792302,27.8263021 151.539068,25.315329 C148.990375,24.0969309 147.038082,22.5762543 144.498329,21.3522926 C144.152896,21.1686787 143.778729,21.0500045 143.393238,21.0017915 C142.660959,20.9790424 141.937643,21.1733526 141.308416,21.5618533 C137.047446,23.7890819 130.861055,25.5990597 125.118856,24.6032064 C124.690791,24.9499938 125.503946,25.344997 126.20784,25.5360169 Z" id="Path" fill="#4D33B7"></path>
                    <path d="M99.270825,32.870255 C99.192165,32.855885 99.113295,32.844675 99.034585,32.831045 C99.3654781,32.6259771 99.6770377,32.3912439 99.965415,32.129745 L99.270825,32.870255 Z" id="Path" fill="#FFFFFF"></path>
                    <path d="M65,37.5092445 C67.3830529,37.6995067 69.7785709,37.8411664 72.1865541,37.9342236 C74.0175592,38.032988 75.8528789,38.0205199 77.6823705,37.8968882 C81.7027786,37.5572557 85.1465639,36.2965615 88.9818836,35.6066406 C92.4968425,34.9753934 96.7682065,34.6713358 99,33.2701622 C93.2318836,32.2726228 87.2555525,34.3032632 81.3076803,35.0589728 C76.4965624,35.6500387 71.6195173,35.4094408 66.890082,34.3477136 C66.2315804,35.382595 65.601553,36.4364386 65,37.5092445 Z" id="Path" fill="#4D33B7"></path>
                    <path d="M94,135.801559 C94.5796121,136.109328 95.1659639,136.404 95.7523157,136.685576 C95.9612457,136.7838 96.1769153,136.882024 96.3858452,136.986797 C96.5610768,137.065376 96.7363084,137.150504 96.9115399,137.229083 C96.9654574,137.255276 97.0126351,137.274921 97.0598128,137.301114 C97.2080857,137.366597 97.3496189,137.432079 97.4978917,137.497562 C97.659644,137.569626 97.8213962,137.641624 97.9764087,137.713655 C98.15838,137.792235 98.3336115,137.870814 98.5155828,137.942845 C99.1895504,138.237517 99.8702576,138.519093 100.550965,138.787572 C102.990429,139.759146 105.483439,140.598613 108.018526,141.30211 C108.1331,141.334852 108.254414,141.367593 108.375729,141.400335 C109.460852,141.695007 110.552691,141.963486 111.651245,142.205772 C113.572052,142.637985 115.510832,142.991592 117.467585,143.266593 L117.481064,143.266593 C117.716953,143.299334 117.946102,143.332076 118.181991,143.364817 C118.20221,143.364817 118.222429,143.371366 118.249387,143.371366 C118.249387,143.377914 118.249387,143.377914 118.256127,143.371366 C118.512235,143.404107 118.775082,143.436848 119.03119,143.46959 C119.048675,143.47461 119.066888,143.476822 119.085107,143.476138 C119.327735,143.508879 119.577103,143.535072 119.819732,143.561266 C120.082552,143.587459 120.345399,143.613652 120.608274,143.639845 C120.810464,143.65949 121.012654,143.679134 121.214845,143.698779 C121.232149,143.704596 121.250516,143.706827 121.268762,143.705328 C121.450733,143.718424 121.632705,143.738069 121.814676,143.751166 L121.841634,143.751166 C121.996647,143.764262 122.158399,143.777359 122.313412,143.790494 C124.193781,143.934557 126.080891,144 127.994958,144 C130.064039,144 132.11964,143.921421 134.148282,143.751166 L134.168502,143.751166 C134.60658,143.711876 135.03792,143.672586 135.469259,143.633297 C135.583833,143.6202 135.691668,143.613652 135.806243,143.600555 C135.826462,143.600555 135.85342,143.594007 135.87364,143.594007 C135.907338,143.587459 135.941036,143.587459 135.981474,143.58091 C135.999694,143.581595 136.017906,143.579383 136.035392,143.574362 C136.183665,143.561266 136.331937,143.541621 136.48695,143.528524 L136.992426,143.46959 C137.160918,143.449945 137.329409,143.423752 137.497901,143.404107 C137.538339,143.397559 137.572038,143.397559 137.612476,143.39101 C137.73379,143.377914 137.855104,143.358269 137.976418,143.338657 C138.037075,143.332109 138.097733,143.32556 138.15165,143.319012 C138.272964,143.299367 138.387539,143.286271 138.508853,143.266626 L138.515592,143.266626 C142.213895,142.749334 145.864582,141.950162 149.433867,140.876505 C149.622578,140.817571 149.811289,140.765152 150,140.70625 C148.236258,132.714369 142.749691,125.972889 135.152494,122.462754 C136.07963,121.604614 136.720552,120.496021 136.992426,119.280259 C137.345831,117.697485 137.035363,116.043129 136.129747,114.683402 C135.255174,113.378608 133.883046,112.46471 132.315091,112.142671 L122.326891,110.112705 C118.980391,109.478806 115.732916,111.582307 115.048041,114.827464 C114.946137,115.305447 114.900911,115.793198 114.913248,116.281181 C105.295703,122.502011 98.3740429,128.952043 94,135.801559 Z" id="Path" fill="#8473D9"></path>
                    <circle id="Oval" fill="#976E33" cx="133" cy="80" r="24"></circle>
                    <path d="M128.955147,102.451857 C122.907131,104.092069 116.239378,101.911401 111.519486,97.7749527 C106.799594,93.6385048 103.847117,87.7771864 102.145922,81.7229208 C100.899998,77.2889017 100.309239,72.3669399 102.275375,68.2042385 C104.241512,64.0415371 109.533037,61.2330771 113.615472,63.3357789 C111.09705,60.3894611 112.355216,55.5164018 115.296536,52.9959503 C118.237855,50.4754989 122.276739,49.7528548 126.123431,49.3578484 C131.706043,48.784575 137.472568,48.7204072 142.784847,50.5364926 C148.097126,52.3525779 152.92385,56.3230651 154.586416,61.7050552 C158.078695,63.3378003 162.228422,62.3969955 164.683294,59.4159427 C165.316041,62.8384477 163.583725,66.2616409 160.45763,67.7661868 L168.597024,65.1164045 C169.996846,68.0916322 167.544028,71.7739293 164.40743,72.7267152 C161.270832,73.6795011 157.884969,72.638076 154.908477,71.2615823 C151.931985,69.8850886 149.047503,68.1448251 145.81442,67.6080134 C142.581338,67.0712017 138.783628,68.1143215 137.288159,71.0422538 C136.504886,72.5757844 136.464028,74.3718434 136.009265,76.0337028 C135.554503,77.6955622 134.402512,79.4186035 132.691485,79.5546053 C131.610476,79.6405345 130.552083,79.062352 129.474094,79.1805668 C128.122244,79.4478642 127.056334,80.4936321 126.758839,81.8445114 C126.490445,83.1711145 126.487167,84.5380397 126.749196,85.8659254 L128.816739,101.735043 L128.955147,102.451857 Z" id="Path" fill="#2F2E41"></path>
                </g>
                <g id="Group-10" transform="translate(367.731959, 10.762887)">
                    <circle id="Oval" fill="#FA7700" cx="27.2680412" cy="95.2371134" r="9"></circle>
                    <path d="M26.5765682,0.237113402 C12.2252555,0.337781637 0.474557778,11.8405678 0.270694134,25.9943814 C0.268805694,26.1250561 0.268041237,27.0439059 0.268041237,28.2456785 C0.268041237,31.9149744 3.28390672,34.889543 7.00412522,34.8899681 L7.00413919,34.8899681 C8.79271785,34.8895817 10.5078216,34.1881325 11.7718522,32.9400521 C13.0358828,31.6919717 13.7452074,29.9995852 13.7436608,28.2354893 C13.7429761,27.4179755 13.7425609,26.8521634 13.7425609,26.8174259 C13.7412871,20.774839 18.0890939,15.5819518 24.1052495,14.4405478 C30.1214051,13.2991438 36.1121681,16.5305651 38.3838078,22.1424111 C40.6554474,27.754257 38.568424,34.1666122 33.4095356,37.4258044 L33.4118732,37.4286042 C33.4118732,37.4286042 23.8242852,43.5163927 20.9012821,51.8677072 L20.9037674,51.8682979 C20.3897864,53.57914 20.1293413,55.3542999 20.1305173,57.1386691 C20.1305173,57.8721635 20.1742668,64.2900283 20.2587974,69.4990384 C20.3202936,73.2385477 23.4118168,76.2379921 27.2037218,76.2371134 L27.2037357,76.2371134 C29.0533311,76.2371134 30.8265162,75.5093932 32.1303099,74.2154343 C33.4341036,72.9214753 34.1608228,71.1680763 34.1494087,69.343833 C34.120052,64.5733331 34.104172,59.0185289 34.104172,58.6153529 C34.104172,53.4873754 39.1197658,48.3780454 43.2396823,45.046123 C47.9839117,41.2093164 51.3978851,35.9806802 52.7691279,30.0825727 C53.0725544,28.8682625 53.2398616,27.6247592 53.2680412,26.3744227 C53.2680412,19.4096576 50.4497383,12.7329316 45.4385563,7.82591907 C40.4273743,2.91890658 33.6378063,0.187483211 26.5765682,0.237113402 Z" id="Path" fill="url(#linearGradient-1)"></path>
                    <path d="M8.85414137,32.0658909 L8.85414137,32.0658909 C5.19622758,32.0654685 2.23106365,29.0711108 2.2308469,25.3773863 C2.23075072,24.1676125 2.23161239,23.2426561 2.23343387,23.1111118 C2.28924454,18.967394 3.32270158,14.8968366 5.24807437,11.2371134 C2.08473905,15.6100104 0.345383994,20.8675296 0.270635448,26.2823343 C0.268813971,26.4138786 0.268041237,27.338835 0.268041237,28.5486088 C0.268265234,32.2423333 3.23342916,35.2366909 6.89134295,35.2371134 L6.89134295,35.2371134 C9.85734571,35.2359776 12.461635,33.2454494 13.2680412,30.3632318 C12.0552683,31.4614233 10.4831188,32.067879 8.85414137,32.0658909 Z" id="Path" fill="#3F3D56"></path>
                    <path d="M26.3937587,13.4370054 C30.501778,13.6366885 34.2514268,15.8771126 36.4248624,19.4306137 C38.5982981,22.9841148 38.9182784,27.3974106 37.2808776,31.2371134 C40.4678805,27.4277101 41.1691053,22.0724235 39.073532,17.5465272 C36.9779588,13.020631 32.4735515,10.162027 27.5581864,10.238615 C22.6428213,10.3152031 18.2265047,13.312804 16.2680412,17.9018677 C18.7795558,14.8948895 22.5206055,13.2453006 26.3937587,13.4370054 L26.3937587,13.4370054 Z" id="Path" fill="#3F3D56"></path>
                    <path d="M28.8483931,73.0889903 L28.8483931,73.0889903 C25.2609857,73.089824 22.3362023,70.0924337 22.2779912,66.3554801 C22.1980396,61.1500018 22.1566342,54.7364865 22.1566342,54.0034952 C22.1555216,52.2203359 22.4019222,50.4463796 22.8881868,48.7366974 L22.8858808,48.7361071 C23.1730249,47.877955 23.5198158,47.042745 23.9234982,46.2371134 C22.6842722,47.9576089 21.6980405,49.8608802 20.9972916,51.88423 L20.9995976,51.8848203 C20.513333,53.5945025 20.2669324,55.3684588 20.2680412,57.1516181 C20.2680412,57.8846094 20.3094504,64.2981247 20.389402,69.503603 C20.4476131,73.2405567 23.3723965,76.237947 26.9598039,76.2371134 L26.9598039,76.2371134 C29.879936,76.2365798 32.4495982,74.2289634 33.2680412,71.3086363 C32.0599312,72.4562858 30.4833236,73.0913861 28.8483931,73.0889903 L28.8483931,73.0889903 Z" id="Path" fill="#3F3D56"></path>
                    <path d="M25.3296604,101.993586 C22.7270182,100.883269 20.8084015,98.6394302 20.1490841,95.9348566 C19.4897667,93.2302829 20.166408,90.3794383 21.9761255,88.2371134 C19.1510307,90.2575411 17.7701684,93.6935638 18.4311477,97.0581402 C19.0921271,100.422717 21.6762055,103.111413 25.0650461,103.960615 C28.4538867,104.809817 32.0386961,103.666969 34.2680412,101.026672 C31.6758968,102.882418 28.2727601,103.250554 25.3296604,101.993586 L25.3296604,101.993586 Z" id="Path" fill="#3F3D56"></path>
                </g>
            </g>
        </g>
    </g>
</svg>