<?xml version="1.0" encoding="UTF-8"?>
<svg width="313px" height="206px" viewBox="0 0 313 206" version="1.1" xmlns="http://www.w3.org/2000/svg" xmlns:xlink="http://www.w3.org/1999/xlink">
    <title>Inception</title>
    <defs>
        <linearGradient x1="50%" y1="0%" x2="50%" y2="100%" id="linearGradient-1">
            <stop stop-color="#252897" offset="0%"></stop>
            <stop stop-color="#290175" offset="100%"></stop>
        </linearGradient>
        <linearGradient x1="50%" y1="0%" x2="50%" y2="100%" id="linearGradient-2">
            <stop stop-color="#33187A" offset="0%"></stop>
            <stop stop-color="#512187" offset="100%"></stop>
        </linearGradient>
    </defs>
    <g id="LEAD-marketing-" stroke="none" stroke-width="1" fill="none" fill-rule="evenodd">
        <g id="Home-Page" transform="translate(-871.000000, -5267.000000)" fill-rule="nonzero">
            <g id="Inception" transform="translate(871.000000, 5267.000000)">
                <circle id="Oval" fill="#6C63FF" opacity="0.4" cx="9.5" cy="68.5" r="9.5"></circle>
                <circle id="Oval" fill="#6C63FF" opacity="0.4" cx="274.5" cy="48.5" r="14.5"></circle>
                <circle id="Oval" fill="#6C63FF" opacity="0.4" cx="296.5" cy="72.5" r="9.5"></circle>
                <rect id="Rectangle" fill="url(#linearGradient-1)" x="163" y="137" width="137" height="69"></rect>
                <rect id="Rectangle" fill="#FFFFFF" x="12" y="68" width="137" height="71"></rect>
                <path d="M136.77747,126.243153 C136.77747,126.243153 136.979151,128.373372 137.382516,128.567027 C137.785881,128.760682 140.811114,133.602111 137.382516,134.570363 C133.953918,135.538615 131.9371,135.151331 131.130383,135.538645 C130.323666,135.925959 116.205907,136.700582 116.00424,134.570363 C115.802573,132.440143 122.861432,132.052821 122.861432,132.052821 C122.861432,132.052821 129.315259,127.986037 130.32367,125.855817 C131.332081,123.725598 136.77747,126.243153 136.77747,126.243153 Z" id="Path" fill="#2F2E41"></path>
                <path d="M143,140.846507 C137.129791,139.847414 131.484386,138.989392 126.063786,138.272439 L128.206675,134.098526 C127.484089,133.846401 124.309404,136.23668 124.309404,136.23668 L127.121602,124.120822 C123.487442,124.561107 121.639703,136.932138 121.639703,136.932138 L117.579445,132.749567 L119.545163,137.451865 C105.285597,135.720082 90.9387457,134.813003 76.5755693,134.735117 L78.4096703,131.162687 C77.6870838,130.910562 74.5123991,133.300837 74.5123991,133.300837 L77.3245965,121.184978 C73.6904419,121.625268 71.8426983,133.996294 71.8426983,133.996294 L67.7824035,129.813732 L69.8644122,134.794233 C61.6073261,134.931221 53.3626786,135.493829 45.1629989,136.479839 C47.0181144,130.914635 53.3200467,125.621696 53.3200467,125.621696 C48.5072937,127.059677 45.9827395,129.469326 44.6635902,131.715812 C44.5457079,120.232883 46.4463181,108.819182 50.2779496,98 C50.2779496,98 40.3301569,119.747016 41.5994899,134.344528 L41.7513133,136.936623 C33.3178269,138.149749 30,141 30,141 L143,140.846507 Z" id="Path" fill="#4D33B7"></path>
                <rect id="Rectangle" fill="url(#linearGradient-2)" x="12" y="137" width="137" height="69"></rect>
                <rect id="Rectangle" fill="#FFFFFF" x="163" y="68" width="137" height="71"></rect>
                <path d="M178.114656,129 C178.114656,129 183.032067,137.776081 181.802689,138.846335 C180.573312,139.916588 168.600889,143.816842 166.845582,143.983551 C164.591772,144.1976 162.952636,142.271145 164.796662,141.200882 C166.640687,140.130618 170.533637,135.635544 170.533637,134.137207 L170.533637,130.284317 L178.114656,129 Z" id="Path" fill="#2F2E41"></path>
                <polygon id="Rectangle" fill="#3F3D56" transform="translate(116.858704, 27.989912) rotate(-4.467160) translate(-116.858704, -27.989912) " points="116.499815 4.95384889 117.217593 4.95384889 117.217593 51.0259758 116.499815 51.0259758"></polygon>
                <path d="M133,32.571429 C133,46.3785499 122.186046,59 122.186046,59 C119.461693,50.9579079 118.04748,42.5119105 118,34 C118,20.1928836 119.874159,9 122.186046,9 C124.497932,9 133,18.7643125 133,32.571429 Z" id="Path" fill="#4D33B7"></path>
                <path d="M101.550769,40.5079708 C106.870704,53.4699609 122,61 122,61 C121.487709,52.3621106 119.576012,43.868281 116.341413,35.8584178 C111.021473,22.8964231 104.929587,13.1371526 102.734821,14.0604711 C100.540055,14.9837896 96.230834,27.5459761 101.550769,40.5079708 Z" id="Path" fill="#1C0D6C"></path>
                <circle id="Oval" fill="#3F3D56" cx="115.5" cy="4.5" r="4.5"></circle>
                <circle id="Oval" fill="#FC9A00" cx="117.5" cy="2.5" r="2.5"></circle>
                <polygon id="Rectangle" fill="#3F3D56" transform="translate(221.070588, 110.531421) rotate(-15.737110) translate(-221.070588, -110.531421) " points="220.711699 87.495358 221.429477 87.495358 221.429477 133.567485 220.711699 133.567485"></polygon>
                <path d="M238.482263,112.948916 C241.094783,126.47457 232.970384,141 232.970384,141 C228.800276,133.666339 225.827369,125.675164 224.170631,117.346265 C221.558111,103.820611 221.262171,92.4813341 223.509626,92.0192836 C225.757082,91.5572331 235.869743,99.4232666 238.482263,112.948916 Z" id="Path" fill="#1C0D6C"></path>
                <path d="M208.717354,125.086913 C216.524279,136.646324 233,141 233,141 C230.805598,132.701851 227.251348,124.818282 222.479485,117.664776 C214.672555,106.105369 206.725224,97.8114016 204.728615,99.1396853 C202.732007,100.467969 200.910405,113.527506 208.717354,125.086913 Z" id="Path" fill="#4D33B7"></path>
                <circle id="Oval" fill="#3F3D56" cx="214.5" cy="88.5" r="4.5"></circle>
                <circle id="Oval" fill="#FC9A00" cx="215.5" cy="84.5" r="2.5"></circle>
                <polygon id="Rectangle" fill="#3F3D56" transform="translate(245.389589, 110.266220) rotate(-64.103560) translate(-245.389589, -110.266220) " points="222.353525 109.90733 268.425652 109.90733 268.425652 110.625109 222.353525 110.625109"></polygon>
                <path d="M256.514533,123.893165 C249.656331,135.73705 234,141 234,141 C235.629753,132.699714 238.597399,124.727031 242.78418,117.401001 C249.642382,105.557116 256.828927,96.9200193 258.835764,98.1095024 C260.842602,99.2989856 263.37274,112.04928 256.514533,123.893165 Z" id="Path" fill="#1C0D6C"></path>
                <path d="M226.243401,113.618698 C224.422129,127.147268 233.419221,141 233.419221,141 C237.166103,133.494493 239.674538,125.413207 240.844144,117.079541 C242.665416,103.55097 242.294032,92.3263747 240.014637,92.0087046 C237.735243,91.6910345 228.064678,100.090123 226.243401,113.618698 Z" id="Path" fill="#4D33B7"></path>
                <circle id="Oval" fill="#3F3D56" cx="255.5" cy="89.5" r="4.5"></circle>
                <circle id="Oval" fill="#FC9A00" cx="258.5" cy="88.5" r="2.5"></circle>
                <path d="M125,62.4384201 C125,62.4384201 121.297684,52.4833487 118.623804,55.6065085 C115.949923,58.7296683 122.737489,64 122.737489,64 L125,62.4384201 Z" id="Path" fill="#976E33"></path>
                <path d="M143.489227,53 L141.230093,53.8287317 C141.230093,53.8287317 140.151096,58.5757739 140.568364,59.4018169 C140.985631,60.2278599 141.194263,59.6083254 140.568364,61.2604067 C139.942465,62.912488 138.064763,67.2492021 137.856123,67.8687321 C137.647482,68.488262 125.755398,63.9450394 125.755398,61.6734282 C125.755398,61.6734282 123.251798,64.5645694 122,65.1840993 C122,65.1840993 135.76979,75.0965919 137.647473,76.3356518 C139.525156,77.5747116 140.568341,76.9551817 142.237406,75.5096088 C143.906471,74.0640359 151,62.0864497 151,62.0864497 L143.489227,53 Z" id="Path" fill="#755CDC"></path>
                <path d="M184.637053,75 C184.637053,75 188.983184,80.3538863 182.153552,89.0024189 L170.770828,103.416693 C170.770828,103.416693 177.807421,114.536266 178.014378,120.301967 C178.221335,126.067667 179.670047,124.832165 180.083965,127.303178 C180.497883,129.774192 182.360509,128.538685 180.911797,130.391949 C179.463085,132.245214 174.082166,133.892553 172.426497,132.45113 C171.272712,131.401086 170.663156,129.884858 170.770828,128.332769 C170.770828,127.509099 167.873409,122.772984 167.666448,121.331557 C167.459486,119.89013 159.802023,108.152808 159.802023,108.152808 C159.802023,108.152808 157.318517,101.151596 160.215941,97.2391554 C163.113365,93.3267148 165.027985,87.7777641 165.027985,87.7777641 C165.027985,87.7777641 156.490685,98.0628295 150.488886,100.533843 C150.488886,100.533843 148.212342,100.94568 148.62626,101.97527 C149.040178,103.004861 148.62626,103.622614 148.005385,104.652213 C147.38451,105.681813 143.038374,117.625042 141.589681,120.713813 C140.140987,123.802584 140.761844,125.655844 139.106175,126.685434 C137.450507,127.715025 130,126.89135 130,125.86176 C130,124.83217 131.034794,122.155259 131.655669,120.713813 C132.276544,119.272367 137.24355,102.593037 136.829632,99.7101823 C136.415713,96.8273275 137.036593,92.9148868 140.140969,91.2675432 C143.245345,89.6201995 158.9742,76.235534 159.802036,76.235534 C160.629873,76.235534 184.637053,75 184.637053,75 Z" id="Path" fill="#412E8F"></path>
                <circle id="Oval" fill="#976E33" cx="143.5" cy="33.5" r="8.5"></circle>
                <path d="M149.433301,34 C149.433301,34 152.118525,38.5999964 155.423394,39.2000129 C158.728263,39.8000293 146.748087,49 146.748087,49 C146.748087,49 143.856319,40.2000123 141.37764,39.8000116 C138.89896,39.400011 149.433301,34 149.433301,34 Z" id="Path" fill="#976E33"></path>
                <path d="M142,53.9914608 C142,56.6444473 149.940124,64.1952192 149.940124,64.1952192 L157.473057,70.5215368 C157.473057,70.5215368 157.676652,72.7663628 158.491022,72.9704408 C159.305391,73.1745187 160.32336,73.1745142 159.508987,74.3989639 C158.694613,75.6234137 156.658687,78.2763911 158.491022,78.6845425 C159.043426,78.7687565 159.600102,78.8218964 160.158435,78.8437127 C160.647088,78.8722896 161.221184,78.8988194 161.866607,78.9233068 C163.373175,78.9763665 165.258448,79.0110573 167.300491,78.9967734 C167.88075,78.9947249 168.471163,78.9879226 169.071732,78.9763665 C176.769589,78.8233103 185.68697,77.9355788 184.958088,75.0111888 C183.736532,70.1133853 184.550906,68.4807842 181.904198,65.8278068 C179.25749,63.1748293 174.982039,53.9914473 174.982039,53.9914473 C174.982039,53.9914473 166.431137,39.5021149 159.305386,39.5021149 L157.825263,39.1123233 C156.414854,38.7398903 154.9249,39.3136166 154.125994,40.5367751 C152.696767,42.7183425 150.442982,45.9957862 149.125741,47.0528822 C147.089811,48.6854834 146.772196,47.5140934 146.772196,47.5140934 C146.772196,47.5140934 142,51.3384744 142,53.9914608 Z" id="Path" fill="#755CDC"></path>
                <path d="M159.488627,85 C159.488627,85 153.498642,94.201569 157.216564,95.8374034 C160.934487,97.4732378 163,86.2268747 163,86.2268747 L159.488627,85 Z" id="Path" fill="#976E33"></path>
                <path d="M148.502338,32.9201849 C148.157873,32.8772559 148.048955,32.4480503 147.990977,32.1100062 C147.680514,30.2997323 146.314439,28.5831107 144.47896,28.2908787 C143.777405,28.1987086 143.06401,28.2554864 142.386456,28.4574171 C141.415809,28.7204495 140.504659,29.1633527 139.701552,29.762529 C139.308588,30.1172619 138.854074,30.3991138 138.359827,30.5945577 C138.023055,30.6922192 136.593127,31.3200373 136.259019,31.426264 C135.524447,31.659815 134.916574,32.4191023 134.160052,32.2687691 C133.436273,32.1249358 133.161386,31.2618143 133.045058,30.5418205 C132.780033,28.9015243 133.730743,26.4540587 134.675974,25.0801165 C135.393295,24.0374896 136.607109,23.4374465 137.820743,23.0470765 C139.242537,22.6208627 140.703434,22.3341897 142.182218,22.1912212 C144.178508,21.9583944 146.246105,21.8348597 148.159221,22.4442437 C150.072338,23.0536277 151.814325,24.5443197 152.171471,26.4978942 C152.245867,26.9048386 152.259806,27.3216614 152.350981,27.7252648 C152.573393,28.7098556 153.233053,29.5374638 153.617851,30.4719342 C154.179237,31.8597714 154.119884,33.4173763 153.454467,34.7596216 C152.92162,35.817851 151.994999,36.8347729 152.194973,38 L150.545964,36.7159157 C150.054925,36.4403683 149.825549,35.8634879 149.995543,35.3316046 L150.235264,33.2925086 C150.318235,32.9230798 150.280806,32.537202 150.128328,32.1900465 C149.395379,30.925658 149.076639,32.9917487 148.502338,32.9201849 Z" id="Path" fill="#2F2E41"></path>
                <path d="M162.93009,70.8944497 L160.918257,78.9213639 C162.947195,78.9910436 165.631735,79.0279299 168.476548,78.9746446 C169.194172,76.9089974 169.879729,74.755234 170.405106,72.7387746 C172.327256,65.3614707 169.123676,54.0905845 167.415101,48.762529 C165.706525,43.4344734 161.435085,42 161.435085,42 C159.683937,42.5909066 158.029821,43.418983 156.522934,44.4590998 C153.746508,46.3034292 162.93009,70.8944497 162.93009,70.8944497 Z" id="Path" fill="#000000" opacity="0.1"></path>
                <path d="M161.762144,70.4571858 L159.883012,78.8425265 C160.342764,78.8713202 160.882904,78.8980515 161.490154,78.9227247 C162.907617,78.9761871 164.681386,79.0111413 166.602653,78.9967489 C167.294126,76.7945213 167.962686,74.4709718 168.466443,72.3077961 C170.190409,64.9053321 167.317136,53.596007 165.784724,48.2497803 C164.252313,42.9035536 160.900163,48.7638248 160.900163,48.7638248 C160.900163,48.7638248 162.241025,45.2682129 159.750855,47.1188323 C157.260686,48.9694517 161.762144,70.4571858 161.762144,70.4571858 Z" id="Path" fill="#000000" opacity="0.1"></path>
                <path d="M160.435102,41 C160.435102,41 164.706536,42.4242441 166.415108,47.7142838 C168.123681,53.0043235 171.327251,64.1948055 169.405109,71.5194783 C167.482967,78.8441511 163.425103,88 163.425103,88 C163.425103,88 159.367244,85.1515164 157.872222,85.7619054 L161.930086,69.6883112 C161.930086,69.6883112 152.746505,45.2727277 155.522935,43.4415561 C157.029828,42.4088574 158.683949,41.5866886 160.435102,41 L160.435102,41 Z" id="Path" fill="#755CDC"></path>
                <rect id="Rectangle" fill="#2F2E41" x="1" y="205" width="312" height="1"></rect>
            </g>
        </g>
    </g>
</svg>