<?xml version="1.0" encoding="UTF-8"?>
<svg width="687px" height="510px" viewBox="0 0 687 510" version="1.1" xmlns="http://www.w3.org/2000/svg" xmlns:xlink="http://www.w3.org/1999/xlink">
    <title>Map</title>
    <g id="LEAD-marketing-" stroke="none" stroke-width="1" fill="none" fill-rule="evenodd">
        <g id="Home-Page" transform="translate(-633.000000, -4376.000000)" fill-rule="nonzero">
            <g id="undraw_connected_world_wuay" transform="translate(633.000000, 4376.000000)">
                <path d="M632.909351,123.973777 C554.936192,15.5347598 390.221597,-28.452806 228.230085,18.9228478 C142.590038,43.968939 60.017238,94.1524977 19.0961618,191.324048 C-54.0546569,365.028698 99.5347244,420.505732 199.965472,438.186933 C248.528347,446.736604 294.266333,461.098172 336.062113,480.651469 C411.256503,515.829607 544.355729,547.001165 644.721357,400.467888 C717.466488,294.26038 684.847179,196.204874 632.909351,123.973777 Z" id="Path" fill="#FFFFFF"></path>
                <path d="M176.961431,145.111162 C176.743506,143.389883 176.30277,141.704165 175.650278,140.096293 C175.482039,139.481508 175.062854,138.965704 174.495167,138.674939 C174.119867,138.57745 173.726408,138.573049 173.349017,138.662117 L167.464504,139.561693 C166.971979,139.584167 166.500386,139.767235 166.121884,140.082888 C165.355454,140.888159 166.110158,142.184849 166.086696,143.295807 C166.06031,144.545067 164.949296,145.559097 163.744506,145.894584 C162.5147,146.142838 161.246125,146.127124 160.022858,145.848483 L151.794569,144.570985 C154.217905,143.798038 156.374903,142.359967 158.01935,140.420922 C159.10217,139.139368 159.678244,136.746739 158.113329,136.139853 C157.64836,136.012373 157.163527,135.973481 156.684156,136.025207 C152.956166,136.054167 150.022549,132.944442 146.53253,131.634726 C141.950449,130.026336 136.852739,131.544578 133.900085,135.397024 L138.283391,135.608161 C138.695769,135.585424 139.104692,135.694381 139.450968,135.919263 C140.411587,136.707783 139.217292,138.222359 139.35262,139.457095 C139.528444,141.061285 141.660426,141.4038 143.267547,141.566015 C144.874668,141.72823 146.913487,143.032771 146.14043,144.449736 C138.062858,147.229419 129.843051,139.016061 121.359892,140.027101 C119.212854,140.282992 117.185463,141.125669 115.089253,141.655542 C102.284075,144.892397 89.0457935,136.256095 75.9645931,138.085112 C73.0564876,138.580413 70.1983193,139.333516 67.4239674,140.335492 C65.6435943,140.919521 63.7865502,141.550664 62.4929442,142.905128 C61.1993381,144.259592 60.707,146.575977 61.932493,147.992261 C58.5547177,148.270153 55.1543808,147.947232 51.8895059,147.038506 C53.6878774,148.037238 54.7971706,149.937043 54.7822001,151.992611 C49.5082083,152.851825 44.3738642,154.415896 39.5172742,156.642754 C40.4236981,158.148665 41.4824016,159.557676 42.6767505,160.847649 L36,165.133095 C38.2557238,165.700903 39.4219882,168.773905 38.1102047,170.693159 C40.4491331,169.653608 41.8986887,166.964367 44.3997852,166.419142 C46.0383377,166.061946 47.7056032,166.731625 49.2600177,167.360716 C50.8144322,167.989808 52.5228887,168.599818 54.1320399,168.127673 C55.7411911,167.655528 56.9280831,165.570958 55.9055818,164.242832 C62.7835052,162.237954 69.8916932,161.128446 77.0539532,160.941808 C77.6065152,160.872529 78.166886,160.978775 78.6556257,161.245485 C79.5879804,161.891729 79.3426718,163.287561 79.2924504,164.420153 C79.242229,165.552745 80.1257856,167.041263 81.1389882,166.530757 C79.9469509,167.563455 80.965987,169.507577 82.1096229,170.593533 C83.2532589,171.679488 84.6316679,173.177937 83.9315079,174.590549 C83.7487704,174.959232 83.4388314,175.254219 83.2630068,175.626242 C82.7440208,176.72436 83.5680398,178.004574 84.5399813,178.733817 C85.5119228,179.463059 86.7024491,179.97272 87.3776064,180.982536 C88.0527636,181.992353 87.7461614,183.759934 86.5388692,183.900947 L83.1073372,179.548075 C81.934932,180.762651 81.1311739,182.284388 80.7892757,183.936807 C84.4281279,186.90872 84.9754651,192.957767 81.9290439,196.533448 C80.3722434,198.36071 78.1583582,199.471033 76.2261191,200.896298 C74.29388,202.321563 72.5059407,204.351132 72.5108001,206.750685 C72.5191947,210.896313 72.180146,214.747771 73.7350622,218.591343 C76.6023419,225.678476 79.912718,232.578524 83.6466067,239.250666 C84.627141,241.002704 85.8943851,242.923025 87.8807483,243.224696 C85.3703763,237.119034 83.1105438,230.918381 81.1012506,224.622737 C82.409954,224.627854 83.9223083,224.731665 84.6894964,225.790933 C85.3247751,226.668071 85.1883098,227.860635 85.385707,228.92523 C85.6367765,229.956644 86.0554395,230.939945 86.6250315,231.835994 L98.6127824,253.169868 C99.6065474,254.938412 100.746456,256.836766 102.645735,257.552977 C103.860045,258.010883 105.264944,257.924621 106.382621,258.583873 C107.258687,259.100615 107.848738,260.01788 108.741838,260.504636 C111.267115,261.880945 114.778772,259.241394 117.138718,260.884633 C117.813497,261.354487 118.242773,262.100917 118.86453,262.638856 C121.044137,264.524627 124.619607,263.263093 127.135731,264.66983 C128.757331,265.576453 129.597737,267.38964 130.462667,269.03279 C132.629224,273.148695 136.134831,277.181042 140.777966,277.508782 C142.236464,277.611731 143.726266,277.335453 145.151939,277.659551 C146.577612,277.983649 147.981035,279.226708 147.752183,280.669481 C147.359845,283.142952 148.583068,285.851368 148.254549,288.334094 C147.656145,292.856455 141.235501,294.843793 140.683993,299.372098 C140.563237,300.363573 140.752246,301.386963 140.51595,302.357451 C140.226335,303.546891 139.33222,304.515316 139.014504,305.697569 C138.412413,307.938036 140.019091,310.167768 141.784116,311.675082 C143.549141,313.182395 145.654498,314.482157 146.619456,316.59216 C147.639397,318.822393 147.138407,321.422831 147.470111,323.852299 C148.194259,329.156152 152.779601,333.08805 157.498544,335.623276 C158.93631,336.395706 160.48006,337.143517 161.410642,338.483516 C162.625249,340.232494 162.504249,342.538166 162.909829,344.627981 C163.903122,349.746009 168.215644,353.96305 168.338091,359.174963 C168.425122,362.879418 166.364002,366.24008 165.132774,369.735426 C162.79697,376.512091 163.531891,383.969164 167.145744,390.160562 C168.066788,391.714349 169.168381,393.179292 169.81993,394.863741 C170.982624,397.869638 170.605359,401.286642 171.677394,404.325992 C173.094719,408.344275 176.989246,411.663261 176.616502,415.907431 C178.384607,419.57571 182.288912,421.378121 186.214888,422.469939 L193.251128,424.426744 C194.598391,424.801425 196.006225,425.179078 197.378095,424.907783 C198.749964,424.636488 200.059216,423.4984 200.0238,422.101664 C196.573326,421.324228 193.012189,420.49751 190.167844,418.39686 C187.323499,416.296211 185.375071,412.555464 186.454263,409.190116 C186.954675,407.62962 188.019289,405.827606 187.007137,404.538201 C186.42761,403.799936 185.367896,403.607053 184.714236,402.933452 C183.694669,401.882839 184.044953,400.117868 184.777927,398.850943 C185.510901,397.584017 186.57034,396.451833 186.865987,395.018613 C187.17165,393.376574 186.423584,391.717705 184.989995,390.858519 C186.294667,390.366427 187.481213,389.605801 188.472653,388.62599 C189.388528,387.581053 189.811586,385.970098 189.091125,384.782231 C191.230615,385.053316 193.756498,385.186082 195.160954,383.550974 C196.282469,382.245274 196.205436,380.293208 195.762293,378.630585 C195.31915,376.967963 194.570133,375.353079 194.546799,373.632682 C199.482216,373.866388 204.428483,373.698824 209.336718,373.131646 C208.626968,370.743513 207.014096,368.725464 204.8401,367.505409 C207.063045,367.129638 209.08819,364.47082 209.790491,362.330457 C210.492792,360.190095 210.313683,357.858697 209.879599,355.648396 C209.712884,355.079332 209.690035,354.477844 209.813096,353.897792 C210.063421,353.100785 210.847089,352.614431 211.572124,352.198452 L222.606017,345.867491 C223.264447,345.5379 223.86128,345.097702 224.370453,344.566121 C225.526479,343.2095 225.355234,341.161608 224.763311,339.480953 C224.171387,337.800298 223.223241,336.219905 222.995241,334.452865 C222.313293,329.16814 227.975745,325.376375 229.886726,320.40169 C230.63667,318.449443 230.78951,316.327387 230.934638,314.241325 C231.090512,312.000818 231.102098,309.398369 229.380183,307.954536 C227.729578,306.570511 225.150527,306.87924 223.423351,305.59187 C221.839833,304.411568 221.293505,302.11926 219.563598,301.165913 C217.992581,300.30014 216.022832,300.850767 214.275564,300.443577 C211.199135,299.726637 209.263128,296.18427 206.121222,295.856273 C204.348503,295.671211 202.342177,296.537043 200.889249,295.505598 C199.609002,294.596743 199.557696,292.769994 199.313997,291.219925 C198.439293,286.285922 194.580759,282.418572 189.64499,281.528826 C187.817213,281.235984 185.8277,281.347197 184.272778,280.343687 C182.69829,279.327536 181.976371,277.425084 180.739601,276.017869 C178.746314,273.749882 175.606957,272.944098 172.666113,272.253385 L160.704024,269.443886 C158.580524,268.945141 155.843348,268.680682 154.703819,270.539043 C154.366494,271.246624 154.127687,271.997 153.994045,272.769282 C153.118075,275.635402 150.49204,277.61014 147.492874,277.658065 C146.490393,275.949641 144.866179,274.694068 142.959271,274.153435 C141.746296,273.815711 140.447954,273.778148 139.291104,273.28128 C138.017776,272.660347 137.056575,271.542951 136.63358,270.19191 C136.210586,268.840868 136.363132,267.375423 137.055337,266.140251 C138.47313,263.618324 138.024048,260.460112 135.959327,258.432458 C133.925041,256.607847 130.982388,256.166988 128.254685,256.349555 C127.540279,254.792189 128.73479,253.03508 130.022008,251.903322 C131.309227,250.771563 132.872304,249.658897 133.152602,247.968824 C133.593552,245.310332 130.1983,243.291143 127.62038,244.083825 C125.042461,244.876507 123.397083,247.37814 122.309433,249.844081 C121.685378,251.258943 121.154835,252.748836 120.170462,253.94186 C119.186089,255.134885 117.600874,255.989095 116.101487,255.606225 C113.978781,255.064207 113.158962,252.544617 112.689165,250.406633 C112.058845,247.538146 111.424856,244.629865 111.556928,241.696034 C111.689001,238.762202 112.678968,235.74983 114.844365,233.763733 C118.372979,230.527292 123.786103,230.84456 128.548255,231.36083 C127.423158,230.094371 127.701217,227.959994 128.905014,226.767943 C130.195156,225.622749 131.967961,225.187627 133.642385,225.60519 C135.077376,225.903617 136.370097,226.675816 137.312424,227.797464 C138.665696,229.445831 139.050521,231.671442 140.073402,233.542467 C141.096282,235.413493 143.396312,237.009342 145.278884,236.005547 C146.904929,235.138532 147.163013,232.885879 146.758319,231.089395 C146.353625,229.292911 145.494097,227.546019 145.640689,225.710435 C145.92041,222.207926 149.55452,220.099665 152.761406,218.657196 C155.968292,217.214726 159.640378,215.274794 160.148438,211.798017 C160.165809,211.117282 160.29435,210.443952 160.528987,209.804617 C160.884581,209.239932 161.378875,208.775533 161.964845,208.455596 C171.324234,202.276074 180.83928,196.021118 191.536622,192.644509 C192.093147,192.468831 192.158483,192.664075 192.725666,192.526443 C193.519467,192.068087 192.993493,190.800113 192.232424,190.289321 C191.471356,189.778529 190.454093,189.386813 190.261007,188.491363 C190.119069,187.833125 190.50726,187.186793 190.608106,186.521031 C190.855894,184.885066 188.896977,183.374606 187.375709,184.028647 C186.51642,182.891708 188.216704,181.570639 189.591537,181.192473 C193.719936,180.057346 197.957816,179.365705 202.233164,179.129304 C202.726521,179.050933 203.231983,179.136829 203.671659,179.373754 C204.389734,179.870698 204.297989,181.010506 203.789084,181.719822 C203.280178,182.429138 202.488571,182.874491 201.854395,183.474681 C200.44199,184.84932 199.913776,186.895597 200.484596,188.78122 C202.71653,189.915479 205.143027,191.083122 207.615002,190.683532 C210.086977,190.283942 212.281046,187.509079 211.119122,185.292927 C210.037106,183.229175 206.78694,182.763704 206.228023,180.501876 C205.573628,177.853677 209.325903,175.498401 208.480673,172.904707 C208.110438,171.768583 206.977127,171.099947 206.107501,170.279704 C204.005342,168.221223 203.385555,165.083656 204.547335,162.381626 C201.673042,162.886806 198.732083,161.967337 196.658771,159.915324 C194.771906,158.012867 193.266593,155.011784 190.58721,155.09691 C188.128436,155.175007 186.010618,158.040888 183.711533,157.166554 C183.14592,156.951454 182.549563,156.513654 182.001525,156.770169 C181.637628,157.006236 181.402457,157.396239 181.363668,157.82798 C180.77941,160.61873 181.784492,163.798446 180.262057,166.209987 C178.605356,168.834215 174.773342,169.198038 172.76491,171.56444 C171.674664,172.849007 171.252259,174.579959 170.250134,175.934254 C169.24801,177.28855 167.121033,178.149602 165.918402,176.969388 C167.135591,174.469443 166.462814,171.460906 164.296423,169.716196 C163.179865,168.988409 161.976283,168.403523 160.7139,167.975255 C159.303297,167.378722 157.9614,166.631539 156.711609,165.746736 C156.08554,165.369438 155.57683,164.825626 155.242336,164.176082 C154.977748,163.362751 155.013391,162.481652 155.342814,161.692306 C156.585684,158.132311 159.700291,155.553198 163.432345,154.993606 C165.033597,154.775965 166.897239,154.852652 167.956924,153.633739 C168.517626,152.988789 168.811826,152.013691 169.625694,151.75175 C170.14628,151.647255 170.686732,151.713748 171.166388,151.941305 L177.143101,154.043045 C177.809952,154.343815 178.543947,154.465099 179.272218,154.394856 C180.021267,154.294033 180.565651,153.633024 180.520404,152.879266 C180.329441,151.887657 178.802205,151.411811 178.941173,150.411623 C179.019011,150.087501 179.193427,149.794591 179.441387,149.571581 C183.808592,144.927613 190.023931,142.475489 196.388746,142.885376 C197.143106,144.123161 195.950059,145.588914 194.957362,146.645577 C193.964664,147.70224 193.166926,149.590237 194.367439,150.403604 C194.859419,150.654457 195.406673,150.777589 195.958792,150.761657 C197.430256,150.960642 198.860282,151.393986 200.19445,152.045198 C202.259742,152.943147 204.285399,153.925629 206.27142,154.992644 C206.095992,153.684391 205.928562,152.30616 206.424896,151.082905 C206.92123,149.85965 208.331858,148.900172 209.563984,149.376559 C210.751424,149.835673 211.360411,151.406508 212.625496,151.550422 C214.313045,151.742396 214.978822,149.251656 214.273919,147.707829 C213.569017,146.164002 212.173568,144.871304 212.057088,143.178434 C211.978504,142.036359 212.413521,140.619936 211.500394,139.928372 C211.175452,139.720749 210.806602,139.591534 210.423033,139.550952 L187.623077,135.359252 C186.269169,135.110337 184.313007,135.301116 184.252967,136.675169 C184.219447,137.442155 184.905204,138.200935 184.601478,138.906119 C184.277311,139.658767 183.212382,139.589954 182.436735,139.856161 C181.233229,140.269209 180.629311,141.696951 180.744898,142.963048 C180.956529,144.221108 181.44421,145.416787 182.172963,146.464321 C180.689958,145.844689 178.444437,145.730789 176.961431,145.111162 Z" id="Path" fill="#3F3D56"></path>
                <path d="M158.830096,125.386555 C155.811398,124.379876 152.49018,125.382168 150.517508,127.895165 C150.132722,128.405699 149.80957,129.109486 150.131694,129.662305 C150.59354,130.45485 151.770321,130.14181 152.637916,129.858306 C153.913124,129.399205 155.301098,129.365839 156.59658,129.763143 C157.411253,130.045003 158.140095,130.543149 158.958326,130.814356 C159.769982,131.156452 160.702745,131.019096 161.383316,130.45726 C161.944871,129.880129 161.980107,128.98289 161.981099,128.174608 C162.059982,127.626868 161.889416,127.0725 161.516873,126.665798 C161.189349,126.474637 160.821307,126.36494 160.443288,126.345811 C159.596686,126.187899 158.8313,125.737247 158.279118,125.071569" id="Path" fill="#3F3D56"></path>
                <path d="M167.860583,123.002867 C167.245813,122.96621 166.658042,123.283043 166.309667,123.838876 C165.961293,124.394708 165.90269,125.109166 166.155036,125.724072 C167.083426,126.001294 168.053361,126.070541 169.006769,125.927665 C169.979157,125.762369 170.765393,124.973078 171,123.926691 C169.877505,124.150354 168.71917,123.908127 167.750959,123.247263" id="Path" fill="#3F3D56"></path>
                <path d="M194.772242,119.46852 C192.086575,120.035623 189.477754,120.915815 187,122.090802 C189.398088,123.006314 190.912033,125.370931 190.729686,127.916163 C190.624859,128.392115 190.636998,128.886142 190.765075,129.356448 C191.05052,130.043757 191.877679,130.301651 192.604869,130.478065 C193.911369,130.872976 195.275633,131.045924 196.64012,130.989613 C198.026779,130.91755 199.283085,130.155062 199.980262,128.962386 C200.178009,128.405199 200.409979,127.860583 200.674865,127.331605 C202.417934,124.695003 207.596134,127.883046 209.467594,125.334741 C210.126843,124.437062 210.066544,123.085814 210.925947,122.37449 C211.370524,122.06458 211.885703,121.869311 212.42513,121.806252 C216.188647,121.06361 219.990226,120.525868 223.812852,120.195432 C225.624101,120.038887 227.98493,119.392947 228,117.587302 C221.177761,116.25656 214.103983,117.201703 207.878374,120.275796 C205.635352,121.39161 202.668723,123.738755 200.50813,122.259457 C199.699158,121.70558 199.739213,120.214132 198.625794,119.591312 C197.487453,118.954554 195.980616,119.213536 194.772242,119.46852 Z" id="Path" fill="#3F3D56"></path>
                <path d="M217.126816,123.04157 L220.317333,123.660681 C219.12924,123.607543 217.976027,124.073653 217.152309,124.93993 C216.328591,125.806208 215.914152,126.988748 216.014869,128.185443 C219.002658,129.193421 222.260028,128.212545 225.407331,128.346533 C228.554634,128.480522 232.216542,130.75091 231.67928,133.885527 C231.51683,134.83333 230.974657,135.780499 231.256593,136.699284 C231.454202,137.343263 232.016583,137.800205 232.334014,138.393305 C232.995487,139.629211 232.466814,141.19245 231.631574,142.31593 C230.796334,143.439411 229.673662,144.335824 228.940514,145.529771 C227.117078,148.499296 228.153067,152.338302 229.239281,155.655795 C229.553354,156.909294 230.133312,158.078931 230.93904,159.083804 C232.548309,160.81176 235.170827,160.962042 237.5195,160.996657 C239.228946,161.02186 241.187189,160.936564 242.26822,159.599016 C243.679554,157.852779 242.69267,155.12828 243.621866,153.078836 C244.465759,151.217523 246.615819,150.419001 248.563807,149.852663 C252.132543,148.815122 255.769437,147.933045 259.143304,146.365857 C263.332794,144.419812 267.248154,141.387111 271.85289,141.136612 C273.144739,141.066338 274.468601,141.220307 275.712976,140.862861 C276.957351,140.505415 278.139418,139.41893 278.045213,138.115891 C277.964716,137.002538 277.03198,136.184985 276.303156,135.345688 C275.574332,134.50639 275.001975,133.215795 275.671811,132.327804 L287.741427,130.051139 C286.88588,127.696506 286.219388,124.595407 288.185344,123.062746 C288.894673,122.509753 289.844408,122.288728 290.448354,121.620191 C291.477709,120.480751 290.960092,118.517956 289.771862,117.548925 C288.583632,116.579894 286.977004,116.354942 285.454952,116.227266 C280.162697,115.783399 274.840053,116.076702 269.537554,116.370228 C259.172293,116.944005 248.80703,117.517781 238.441766,118.091555 C236.355152,118.207058 233.946022,118.030601 232.032264,118.749507 C230.412131,119.358132 229.260191,120.47533 227.407227,120.867848 C223.986571,121.592481 220.222188,121.10213 217.126816,123.04157 Z" id="Path" fill="#3F3D56"></path>
                <path d="M274.357925,148.298678 C274.018869,148.24792 273.672159,148.322313 273.38942,148.506489 C273.202467,148.70124 273.091261,148.950462 273.074145,149.213046 C272.859338,150.371929 273.11521,151.564808 273.79052,152.55279 C274.491095,153.539822 275.702674,154.089385 276.954772,153.988069 C278.452986,153.80732 279.557102,152.598045 280.934478,152.00796 C283.057353,151.099313 292.072825,149.682804 285.836405,146.495143 C283.687201,145.396602 282.298447,146.366354 280.604525,147.08982 C278.677235,148.022632 276.517571,148.440576 274.357925,148.298678 Z" id="Path" fill="#3F3D56"></path>
                <path d="M325.92833,121.193292 C325.19242,121.498802 324.576783,122.043347 324.177552,122.741897 C323.795523,123.478592 324.049169,124.390288 324.754229,124.814683 C325.029097,124.915956 325.320478,124.962923 325.612694,124.95306 L328.604921,125.043895 C329.876082,125.082486 331.463908,125.357585 331.805489,126.602376 C332.05913,127.526671 331.491437,128.714399 332.176399,129.374919 C332.470362,129.606239 332.823832,129.746331 333.194294,129.778345 C334.179968,130.035638 335.209281,130.069393 336.20923,129.877217 C338.386375,129.28381 337.242397,127.933546 337.928099,126.731237 C338.97726,124.891622 338.795634,126.005227 340.644293,124.950903 C342.009537,124.172275 343.773722,122.759828 342.634209,120.775317 C340.652617,117.324298 328.852438,119.710743 325.92833,121.193292 Z" id="Path" fill="#3F3D56"></path>
                <path d="M383.02572,119.344876 L381.332909,119.586843 C377.515575,120.132489 373.67661,120.683159 370,121.911047 C371.591492,122.585051 373.261217,123.023917 374.963209,123.215564 C375.900119,123.264757 376.83079,123.406463 377.743384,123.638879 C379.367291,124.156695 381.003592,125.493861 382.572479,124.808886 C383.545232,124.384173 383.862666,123.299264 384.668463,122.724288 C385.224874,122.327265 387.335243,121.684661 387.571163,121.283935 C389.478417,118.044323 384.491783,119.135321 383.02572,119.344876 Z" id="Path" fill="#3F3D56"></path>
                <path d="M390.881339,127.563804 C388.592778,128.823137 386.469455,130.353404 384.558731,132.120472 C383.753742,132.865166 382.931516,133.791363 383.00453,134.876247 C383.101548,136.318165 384.662328,137.154548 386.014539,137.717954 L391.491598,140 C392.156036,139.078385 391.547905,137.806188 390.861206,136.90051 C390.174508,135.994831 389.358476,134.946984 389.661869,133.857126 C390.008095,132.613407 391.549027,132.189589 392.841185,131.975329 C394.946533,131.626231 400.625867,131.654228 399.943462,128.315193 C399.13939,124.380798 392.994727,126.401292 390.881339,127.563804 Z" id="Path" fill="#3F3D56"></path>
                <path d="M389.36762,345.903035 C388.85443,347.346788 388.805742,349.047546 389.693456,350.308078 C390.689568,351.722533 392.683092,352.249787 394.407813,351.891091 C396.125333,351.447035 397.656215,350.49056 398.784813,349.156401 C399.816968,348.038643 400.666085,346.773279 401.30239,345.404681 C402.19046,343.27193 402.816795,341.04491 403.168437,338.769694 L404.842167,330.23017 C405.216181,328.32164 405.201703,322.47041 401.591933,324.376806 C400.605799,324.897599 398.322566,329.009532 397.289122,330.17556 C395.426518,332.277117 395.180082,334.316249 394.199541,336.862214 C392.971359,340.051194 390.502974,342.708962 389.36762,345.903035 Z" id="Path" fill="#3F3D56"></path>
                <path d="M576.337752,389.723056 C575.117962,389.236653 573.934169,388.660801 572.795626,388 C571.653935,391.207246 571.046967,394.587504 571,398 L579.346371,393.173922 C580.60193,392.447954 582.024987,391.439191 581.997991,389.965306 C582.021061,389.594541 581.844069,389.240518 581.536552,389.042325 C581.351076,388.966258 581.14912,388.942044 580.951449,388.972171 C579.713827,389.077565 578.585389,389.699843 577.417886,390.132567 C576.250383,390.565292 574.88521,390.794019 573.814013,390.151841" id="Path" fill="#3F3D56"></path>
                <path d="M618.803683,392.911112 C617.936163,393.15989 617.088609,393.480322 616.268893,393.86943 C614.45501,394.841697 613.221068,396.688407 611.588782,397.968988 C610.026784,399.194424 608.146473,399.867241 606.300581,400.521416 C605.757584,401.027062 606.007096,402.04543 606.596516,402.489626 C607.230245,402.869423 607.957076,403.041532 608.684123,402.983957 C610.601813,403.028553 612.622168,403.048006 614.301882,402.072234 C615.248334,401.425464 616.133982,400.684937 616.94676,399.86074 C618.910683,398.134458 621.269153,396.995467 623.603775,395.894759 C624.453506,395.556762 625.239225,395.061864 625.924047,394.433296 C627.391083,392.910671 627.494241,390.561685 625.378874,390.04346 C623.669675,389.624692 620.431145,392.356455 618.803683,392.911112 Z" id="Path" fill="#3F3D56"></path>
                <path d="M638.058497,380.546981 C638.252876,378.478065 637.501679,376.433031 636.020938,375 C635.999104,377.042962 635.938076,379.219391 634.807795,380.908756 C634.002458,382.112438 632.739766,382.925558 631.857446,384.072118 C630.975127,385.218677 630.583474,387.036079 631.618415,388.042162 C632.279934,388.553888 633.085685,388.836007 633.91688,388.846926 C635.977024,389.093453 638.361582,389.230855 639.806503,387.717824 C640.595161,386.891991 640.97878,385.66886 641.940656,385.061702 C642.298978,384.908747 642.618955,384.675973 642.876986,384.380548 C643.27415,383.738726 642.643091,382.892872 641.932741,382.661615 C641.22239,382.430357 640.439596,382.539072 639.725687,382.319437 C639.011778,382.099803 638.35681,381.283732 638.723104,380.623219" id="Path" fill="#3F3D56"></path>
                <path d="M604.363124,307.695041 C603.280355,307.948917 602.158999,308.012657 601.052785,307.883205 C599.21543,307.557556 597.7854,306.222616 596.302026,305.127844 C592.775789,302.539472 588.489083,301.095574 584.058065,301.003693 C580.027272,300.930313 575.958823,301.983301 572,301.248635 C572.258645,302.635528 573.489677,303.675731 574.803145,304.294005 C576.116613,304.912279 577.566243,305.223416 578.886014,305.829102 C580.999657,306.808735 582.676122,308.490123 583.607951,310.564908 C584.03302,311.521431 584.300453,312.562358 584.944344,313.397562 C586.26039,315.104697 588.754917,315.479558 590.956437,315.33995 C593.826718,315.15793 596.82455,314.362097 599.494863,315.39303 C601.537648,316.181688 602.999701,317.905369 604.705363,319.245643 C606.411025,320.585917 608.813436,321.58065 610.771999,320.613595 C606.596469,319.310351 603.784995,315.541065 603.832676,311.310187 C605.753619,311.48048 611.286435,311.414574 610.988413,308.267936 C610.735894,305.601205 606.01257,307.407212 604.363124,307.695041 Z" id="Path" fill="#3F3D56"></path>
                <path d="M580.25143,330.35941 C580.5918,328.509795 582.453494,326.876445 581.873585,325.086287 C581.472536,323.848291 580.023761,323.237078 578.711817,323.206553 C577.399874,323.176029 576.111038,323.563223 574.799253,323.599682 C573.945411,323.554773 573.089487,323.566818 572.237276,323.635735 C569.633296,324.05983 568.028263,326.764017 565.574262,327.725535 C564.082099,328.310184 562.405783,328.198418 560.853903,328.602593 C557.33115,329.52006 555.102187,332.818189 552.639653,335.477316 C548.660809,339.754632 543.477317,342.749678 537.760607,344.074499 C535.757649,344.534008 533.604488,344.82799 532.012414,346.116855 C529.904118,347.823623 529.385146,350.749599 528.916085,353.40674 C527.620149,360.745085 525.639628,367.948432 523,374.924118 L531.364717,375.982249 C532.955043,376.183427 534.602919,376.380291 536.135392,375.913581 C537.248805,375.497431 538.303442,374.940839 539.273239,374.257559 C542.998624,371.965958 547.1681,370.474802 551.51188,369.880577 C553.70235,369.582622 555.998914,369.528026 558.054521,370.334726 C560.110128,371.141426 561.873641,372.970832 562.045918,375.154775 C563.857237,374.596458 565.831686,375.072227 567.181904,376.392359 C568.491752,377.714653 569.349449,379.411083 569.633964,381.242259 C569.854301,382.376085 570.074755,383.734634 571.136667,384.210288 C572.003007,384.598347 572.996813,384.180391 573.944542,384.105253 C577.160488,383.850303 579.829104,387.56558 582.990051,386.925806 C586.380109,386.239658 587.212394,381.209394 590.519634,380.201771 C592.419106,379.623057 595.083454,380.326772 595.993018,378.576198 C596.794729,377.033225 595.195217,375.252655 595.360167,373.524939 C595.563271,371.39755 598.096015,370.494572 600.048529,369.586856 C606.779959,366.457442 609.974253,357.481068 606.712363,350.860738 C604.779703,346.938207 600.976967,343.850473 600.274674,339.54133 C599.734343,336.225952 601.053437,332.359871 598.919965,329.750241 C597.834654,328.422711 595.997074,327.68994 595.351258,326.105903 C594.94474,325.108809 595.108131,323.977514 594.889366,322.924221 C594.6706,321.870927 593.743112,320.769164 592.69331,321.042176 C589.645943,321.834671 588.673537,331.161679 587.041992,333.427886 C584.561878,336.872673 579.47041,334.603574 580.25143,330.35941 Z" id="Path" fill="#3F3D56"></path>
                <path d="M524.26926,311.371235 C523.242881,311.079554 522.122132,310.792218 521.1387,311.209047 C520.155268,311.625877 519.580947,313.08927 520.370246,313.815398 C526.545097,313.571607 532.757753,313.329513 538.880119,314.179408 C545.934073,315.15862 552.915092,317.584187 560,316.870595 C555.952906,315.660495 551.839017,314.69298 547.679692,313.973072 L540.743747,312.630213 C538.883092,312.235235 537.003032,311.940806 535.111528,311.748173 C531.15461,311.416964 528.159725,312.476849 524.26926,311.371235 Z" id="Path" fill="#3F3D56"></path>
                <path d="M529.928368,289.238751 C529.414531,289.197121 528.778136,289.161256 528.512308,289.589926 C528.258334,289.999498 528.54904,290.540629 528.412469,290.999911 C528.225888,291.627346 527.379015,291.787634 526.711773,291.702212 C526.044531,291.616789 525.322901,291.412208 524.73175,291.724372 C524.115925,292.132541 523.851586,292.886066 524.082888,293.574017 C524.324584,294.239001 524.715471,294.843602 525.227318,295.34415 C526.10157,296.413087 527.09771,297.382574 528.196714,298.234096 C530.323997,299.757709 533.205998,300.491941 534.545839,302.703679 C534.73485,303.13235 535.025366,303.511739 535.393807,303.811051 C536.037012,304.206374 536.875859,303.905627 537.568372,303.598599 L539.995886,302.522366 C540.433156,302.369533 540.823517,302.111933 541.130697,301.773502 C541.685296,301.043349 541.344651,300.005206 540.879155,299.218629 C540.41366,298.432052 539.817801,297.618015 539.917699,296.716185 C540.095807,295.108245 542.22653,294.493193 543.102653,293.117444 C543.985754,291.730721 543.410852,289.943979 543.512643,288.316732 C543.631755,286.413787 544.864095,283.938499 542.881368,282.516704 C541.196301,281.308356 539.585711,282.424864 538.375897,283.758905 C535.824645,286.572114 534.6183,289.618762 529.928368,289.238751 Z" id="Path" fill="#3F3D56"></path>
                <path d="M544.454449,260.680034 C545.294972,262.258509 547.047209,263.200485 547.963763,264.73771 C548.95723,266.403921 548.84404,268.556736 549.921813,270.171755 C551.027571,271.828726 553.252836,272.708433 553.872969,274.593064 C554.549994,276.650614 553.013882,279.151428 554.238356,280.949228 C554.700055,281.543368 555.394558,281.920451 556.153011,281.9888 C556.911465,282.057148 557.664395,281.8105 558.228743,281.308823 C559.3023,280.162332 559.248709,278.385552 558.10793,277.303312 C557.382947,276.654981 556.341927,276.374815 555.736611,275.617533 C555.421366,275.180507 555.211365,274.679001 555.122433,274.150809 C554.792466,272.627252 554.845322,271.047835 555.27644,269.548781 C555.438415,269.168331 555.479544,268.748789 555.394445,268.345038 C555.121939,267.568125 554.049381,267.513004 553.296619,267.152586 C551.586896,266.334008 551.628388,263.967392 551.927099,262.124449 C551.728223,263.3514 547.27225,261.264581 546.805642,260.569585 C545.878704,259.188943 546.383193,256.525682 546.199692,255 C544.198522,255.945812 543.426784,258.750069 544.454449,260.680034 Z" id="Path" fill="#3F3D56"></path>
                <path d="M500.945177,284.487079 C500.144193,283.569485 498.937732,282.609556 497.863878,283.162948 C497.04459,283.585142 496.819222,284.745156 497.140333,285.624464 C497.531518,286.47857 498.13382,287.213371 498.887662,287.756183 C501.125532,289.644886 503.53533,291.349518 505.487649,293.545025 C508.981443,297.474067 510.832242,302.775663 514.631905,306.395225 C515.395663,307.23439 516.406979,307.794483 517.511213,307.989859 C518.618213,308.095245 519.86132,307.370121 519.988567,306.239882 C520.093381,305.308856 519.459132,304.47553 518.839309,303.785601 C517.363324,302.142673 515.747462,300.630417 514.353944,298.913733 C513.710363,298.254326 513.305916,297.389936 513.207448,296.463432 C513.200379,295.539102 514.024064,294.571645 514.899205,294.80055 C513.834862,294.522157 513.045517,292.707602 511.483387,292.366504 C510.177895,292.081455 509.862075,292.908506 508.308409,292.226613 C505.345176,290.926048 503.020327,286.864344 500.945177,284.487079 Z" id="Path" fill="#3F3D56"></path>
                <path d="M571.424597,196.04519 C570.53508,195.792085 569.660548,195.493001 568.804851,195.149254 C566.502452,194.487595 563.456135,196.107795 563.763031,198.390388 C563.96694,199.906987 565.441229,200.929486 566.255405,202.244998 C567.46283,204.195862 567.14094,206.670246 566.506444,208.854997 C566.35067,209.531462 566.054419,210.171036 565.635304,210.735697 C565.049343,211.331841 564.348853,211.814267 563.572164,212.156575 C560.462887,213.825824 557.720885,216.056023 555.497747,218.723881 C555.256046,218.970271 555.087675,219.274133 555.010129,219.603893 C554.900325,220.374573 555.709485,220.935978 556.166958,221.578761 C557.183164,223.006619 556.448667,224.92797 556.549128,226.653094 C556.517735,227.149043 556.756608,227.625236 557.180548,227.91183 C557.793041,228.209698 558.518828,227.703735 558.85081,227.127907 C559.952518,225.21699 559.122594,222.14965 561.189355,221.228293 C561.580306,221.054008 562.054264,220.980532 562.315078,220.651737 C562.728863,220.130147 562.329646,219.357845 562.539343,218.734403 C562.854182,217.798348 564.191427,217.756326 565.217676,217.797843 C566.985493,217.868618 568.752644,217.643382 570.439546,217.132276 C571.101281,216.981635 571.70231,216.648429 572.168167,216.173941 C572.785993,215.435747 572.731238,214.386126 572.607786,213.447607 C571.989439,208.768667 570.44136,204.246283 568.047107,200.124549 C569.862601,200.34658 571.837784,200.538859 573.404418,199.633038 C574.281669,199.125809 575.333644,197.608963 574.898556,196.576533 C574.210501,194.94387 572.96754,196.318119 571.424597,196.04519 Z" id="Path" fill="#3F3D56"></path>
                <path d="M344.812589,222.458503 C345.024645,223.595172 345.233091,224.792033 344.86038,225.886641 C344.487669,226.98125 343.315203,227.895853 342.208065,227.560459 C341.348834,227.300167 340.852506,226.436687 340.24238,225.77837 C336.849398,222.117387 329.194303,224.236972 327.098264,219.707726 C326.242825,217.859217 326.824174,215.644625 326.240692,213.693292 C325.483628,211.373649 323.253002,209.859116 320.816452,210.010384 C319.735972,210.16635 318.684279,210.480121 317.69506,210.941645 C311.068021,213.5943 304.110696,215.333481 297.014495,216.111342 C295.665902,216.193464 294.331921,216.436054 293.040818,216.833971 C290.127061,217.889747 288.13618,220.58961 286.719352,223.34466 C285.302524,226.09971 284.25655,229.082344 282.357011,231.530031 C280.360668,234.102472 277.563202,235.903835 274.953701,237.852267 C273.948457,238.499779 273.111412,239.376601 272.511439,240.410584 C271.945716,241.571385 271.97763,242.921574 272.021542,244.212016 L272.554866,259.885048 C272.623466,261.900986 272.709603,263.988984 273.612355,265.79305 C274.739653,268.045844 276.966594,269.521323 278.511503,271.511402 C280.088107,273.556554 280.90938,276.083288 280.836352,278.664048 C280.803468,279.701608 280.700314,280.928811 281.508815,281.580443 C282.000645,281.899155 282.576153,282.06458 283.162246,282.055707 L304.374675,283.790901 C308.106093,284.096133 312.241371,284.597998 314.677546,287.439325 C315.827306,288.7803 316.750925,290.7087 318.512008,290.852587 C319.267401,290.914295 320.002419,290.604375 320.757964,290.54457 C322.664162,290.393683 324.338735,291.839683 325.395558,293.432402 C326.99507,295.859983 327.721123,298.759018 327.454495,301.653465 C327.281211,303.470323 326.717597,305.236631 326.596088,307.057699 C326.133735,313.986848 332.010912,320.006941 332.124832,326.950552 C332.191843,331.034853 330.251914,334.850975 328.360589,338.472127 C331.4131,343.093932 328.913547,349.248424 330.128822,354.651549 C331.281783,359.777636 335.558163,363.790648 336.623766,368.935583 C337.111588,371.290926 337.13981,374.189419 339.217873,375.40254 C340.129714,375.846741 341.140554,376.049029 342.153216,375.989959 C348.261442,376.062274 354.300025,374.688261 359.774955,371.980328 C362.344527,370.705895 365.00755,368.803367 365.456309,365.97165 C365.818207,363.688052 364.659527,361.133734 365.838711,359.144601 C367.228468,356.80021 370.788723,356.98606 372.833529,355.183594 C376.150842,352.259469 373.564054,346.682738 374.908129,342.471015 C376.116288,338.68519 380.275167,336.673923 382.336692,333.276098 C383.147974,331.814815 383.73016,330.237789 384.062935,328.600046 C385.007342,324.685782 385.595196,320.69409 385.819298,316.673861 C385.874235,314.23125 386.054427,311.79306 386.359165,309.36889 C388.581812,295.567688 402.233145,286.326162 406.665313,273.067805 C407.08859,271.801623 407.287368,270.115083 406.160333,269.398619 C405.491839,269.079857 404.733994,269.000582 404.01395,269.174094 L394.2355,270.406237 C393.020938,270.55928 391.733523,270.70232 390.618124,270.19812 C389.502726,269.693919 388.703327,268.283634 389.294964,267.21252 C390.955779,264.205796 387.53943,260.406273 386.021674,257.324949 C381.934134,249.027973 377.066565,241.138218 371.484676,233.762185 C371.127358,233.382743 370.9036,232.897184 370.847339,232.379155 L373.622577,232.47151 C372.685762,229.111736 371.139749,225.435152 367.873902,224.206132 C366.03361,223.513583 363.995627,223.753055 362.032133,223.860287 C356.408168,224.167358 350.378837,223.318702 344.812589,222.458503 Z" id="Path" fill="#3F3D56"></path>
                <path d="M361.798916,145.739102 C363.266041,147.299882 364.910081,148.95469 367.032841,149.226728 C370.782187,149.707266 373.477942,145.823206 375.194278,142.449485 C375.326389,144.237887 376.855554,145.595995 378.643758,145.513095 C379.569246,145.357104 380.452557,145.011154 381.238249,144.496957 C388.666866,140.430124 396.9875,138.275358 405.452874,138.226178 C405.284474,136.895637 406.146418,135.652583 407.449846,135.346243 C409.171016,135.004412 410.721427,136.49513 411.551711,138.043664 C412.381995,139.592198 412.899711,141.387077 414.218848,142.546173 C415.537986,143.70527 418.091932,143.654775 418.612979,141.976281 C419.113207,140.364849 417.437421,138.990638 416.045172,138.040595 C414.652923,137.090552 413.185443,135.332166 414.123012,133.930143 C421.235769,132.352888 428.392646,130.769658 435.670855,130.456157 C436.909988,130.499369 438.144715,130.286291 439.297989,129.830216 C440.407937,129.28457 441.290151,128.045972 440.991677,126.844025 C437.743002,127.609053 434.355204,126.328942 432.420135,123.605188 C442.519142,122.770328 453.260512,122.058725 462.210552,126.819154 C463.284561,129.128875 457.810691,131.050547 459.275253,133.133794 C459.742349,133.798217 460.678323,133.876137 461.489394,133.891218 C467.708882,134.006897 473.964268,134.120329 480.113551,133.179673 C482.360759,132.835922 484.630575,132.350648 486.88674,132.629407 C490.644665,133.09369 493.858806,135.605534 497.555895,136.42449 C499.060648,136.757822 500.747871,136.769111 502.016324,135.892344 C503.284777,135.015578 503.830016,133.019171 502.790554,131.879392 C506.271505,128.461705 512.048812,129.308758 516.641038,130.944979 C521.233265,132.5812 525.583729,135.219877 530.444158,135.584596 C533.929524,135.846133 537.46332,134.906959 540.907285,135.50391 C543.071481,135.879043 545.085663,136.843542 547.200857,137.436106 C551.201394,138.556837 555.433287,138.320259 559.586954,138.374195 C570.184986,138.517227 580.667223,140.60381 590.514719,144.530643 C591.795742,144.948455 592.969472,145.643147 593.952883,146.565578 C594.869161,147.548537 595.336461,149.075993 594.720626,150.271062 L584.544908,148.781616 C585.503658,150.672337 587.984004,150.994537 589.99829,151.646796 C592.012577,152.299054 594.101081,154.527436 592.890551,156.267172 C590.708057,155.571023 588.730274,157.756951 587.627793,159.768182 C586.525312,161.779413 585.181808,164.188098 582.894625,164.310614 C580.846514,164.42033 578.369512,162.673296 577.034516,164.233155 C578.878866,166.563983 580.458215,169.09343 581.743329,171.774677 C583.062245,174.527277 584.001643,177.995645 582.218991,180.47221 C581.938533,180.914318 581.513138,181.244784 581.015887,181.406833 C579.560002,181.77605 578.614058,179.991836 577.56996,178.910421 C576.254299,177.547673 574.264618,177.161689 572.482922,176.522581 C570.701226,175.883472 568.824363,174.626235 568.684959,172.735554 C568.598226,171.559218 569.218201,170.465709 569.674861,169.3785 C570.442406,167.54595 570.778086,165.560862 570.655847,163.577314 C570.555882,161.981541 570.109216,160.321587 568.965205,159.20662 C567.821194,158.091653 565.846055,157.737949 564.61792,158.759144 C564.044861,159.235633 563.585604,159.997812 562.841419,160.026312 C561.52651,160.076706 560.516929,157.780182 559.459035,158.564116 C559.583158,159.399409 559.41027,160.251832 558.970595,160.97237 C555.813742,163.722787 550.96407,162.559205 546.894282,163.530799 C544.959036,164.085626 543.106188,164.896223 541.384619,165.941205 C540.740606,166.217072 540.192601,166.677872 539.809766,167.265447 C539.301752,168.254421 539.861853,169.521033 540.757294,170.178607 C541.706894,170.762042 542.773992,171.126915 543.88151,171.246872 C548.843074,172.188216 553.877011,173.645452 557.794169,176.837955 C561.711327,180.030457 564.280107,185.307846 563.04054,190.211795 L553.256104,180.845948 C553.62773,184.778464 553.838625,188.721812 553.888787,192.675991 C553.952056,193.448059 553.846205,194.224653 553.578636,194.951466 C552.881105,196.494849 550.990585,197.014212 549.333943,197.354918 C548.401955,197.532299 547.589984,198.100043 547.1024,198.915253 C546.614816,199.730463 546.498057,200.715497 546.781511,201.622424 C547.370108,203.544358 548.837705,205.042789 550.181506,206.535865 C551.525307,208.02894 552.847717,209.725882 553.023636,211.72849 C553.199555,213.731098 551.691354,215.988353 549.689391,215.849117 C548.171751,215.743554 547.045805,214.382552 546.398481,213.003411 C545.751157,211.62427 545.365984,210.08794 544.393356,208.916103 C541.449473,205.369225 534.837124,206.888857 532.199863,203.107606 C530.833048,204.660793 530.366387,206.812164 530.96651,208.793522 C532.19341,208.024097 533.873016,208.738991 534.79482,209.85698 C535.716625,210.974969 536.151492,212.408309 536.875405,213.663989 C537.852249,215.358387 539.406865,216.860493 539.543217,218.812421 C539.507068,219.55051 539.519488,220.290184 539.580396,221.026638 C539.822601,222.209327 540.820476,223.058539 541.51234,224.047098 C543.122212,226.347322 543.042665,229.507276 542.005032,232.117156 C540.967398,234.727036 539.103214,236.907841 537.256769,239.022184 C534.031714,242.715171 530.740833,246.386507 526.91742,249.453337 C525.826435,250.328453 524.662105,251.188936 523.982622,252.412394 C523.303139,253.635852 523.268295,255.353155 524.312446,256.283823 C523.565331,256.321307 522.225467,256.689421 521.478353,256.726905 C521.215685,253.724493 521.158597,250.707583 521.307489,247.697354 C518.359133,246.279154 515.1846,250.07716 515.565061,253.331347 C515.945522,256.585534 518.295048,259.196954 519.967834,262.012398 C521.191112,264.071253 522.100227,266.471934 521.691829,268.832709 C521.283431,271.193485 519.179831,273.37132 516.797156,273.163107 C513.007236,272.831928 511.421964,267.381476 507.668972,266.757694 C507.337968,266.679844 506.990523,266.7144 506.68126,266.855928 C506.124152,267.162219 506.027314,267.908984 505.996035,268.544825 C505.842491,271.665574 505.709552,274.910374 506.925626,277.787636 C508.704661,281.996901 513.300585,285.532186 512.336494,290 C507.142946,287.581554 504.442671,281.746997 503.216656,276.142606 C501.990641,270.538216 501.786308,264.654675 499.58859,259.356528 C497.919788,261.499266 494.412146,259.727927 492.8874,257.480036 C491.441864,255.348914 490.551863,252.883667 489.149399,250.723853 C487.746935,248.564039 485.598481,246.630063 483.029194,246.511304 C480.335431,246.38677 477.9992,248.238613 475.944672,249.988348 C474.255236,251.427154 472.520694,252.922581 471.533163,254.911496 C470.096106,257.805724 470.472019,261.217706 470.402768,264.449455 C470.327886,267.943271 469.588756,271.629537 467.21173,274.187278 C464.834704,276.745018 460.447236,277.635903 457.825378,275.330733 C456.456587,274.127268 455.793842,272.329221 455.203515,270.603301 C452.357956,262.283688 449.988093,253.808352 448.105458,245.218531 C447.664907,247.179076 445.946398,249.706024 444.304694,248.551152 C443.936316,248.240694 443.637871,247.855484 443.429066,247.420958 C440.366745,242.221506 434.695653,239.102811 428.965723,237.232864 C423.235792,235.362918 417.207178,234.490667 411.540792,232.435552 C408.365389,231.283423 405.332483,229.769994 402.501612,227.924974 C401.031448,230.088787 400.864623,232.886106 402.067159,235.209878 C403.324092,237.439415 406.168412,238.729399 408.603181,237.950091 C409.861378,237.547369 410.92392,236.672371 412.172351,236.240209 C413.420782,235.808048 415.096427,236.020264 415.642336,237.225193 C416.164874,238.378507 415.37506,239.773698 415.766854,240.977897 C416.363581,242.811958 419.124843,242.95326 420.090395,244.622245 C420.808804,245.864017 420.217691,247.512991 419.191938,248.515009 C418.166185,249.517028 416.79761,250.066601 415.545475,250.76412 C411.482688,253.027332 408.59356,256.890809 405.042927,259.896673 C401.492294,262.902536 396.482759,265.097116 392.251222,263.169021 C393.2599,258.052425 387.175803,254.295963 386.056537,249.2025 C385.688131,247.52603 385.87911,245.745164 385.353154,244.111417 C384.59166,241.746009 382.49679,240.119648 380.778247,238.327097 C376.567148,233.886966 374.325613,227.930661 374.562608,221.810636 C374.655474,219.705581 375.041532,217.566239 374.562812,215.514426 C374.084092,213.462613 372.388331,211.476684 370.286997,211.569674 C365.487584,211.782035 359.441353,212.139666 356.92331,208.041116 C356.024614,206.578325 355.633524,204.435903 356.932873,203.315195 C357.849482,202.52461 359.202502,202.599082 360.40623,202.717707 L371.22,203.783364 C373.749184,204.032609 376.483172,204.238302 378.653518,202.913733 C380.823864,201.589164 381.764293,198.073178 379.754637,196.514825 C378.286254,195.376177 375.655445,195.43792 375.228603,193.627528 C374.873114,192.119756 376.539052,190.409005 375.63929,189.148944 C374.994138,188.245451 373.543698,188.496108 372.66478,189.173412 C371.785862,189.850716 371.148164,190.841219 370.164511,191.354036 C368.438979,192.253655 366.377218,191.397477 364.52075,190.815595 C362.664282,190.233713 360.175486,190.184299 359.275026,191.911607 C358.267979,193.843389 360.16827,196.374696 359.168841,198.310422 C357.847485,200.869697 353.372683,199.41277 351.516949,201.614151 C349.387515,204.140219 352.965968,207.906943 352.247832,211.134024 C350.3828,212.059332 348.169589,211.934768 346.419754,210.806008 C344.695973,209.631473 343.756104,207.602875 343.973396,205.52583 C344.151155,204.07413 344.906662,202.592256 344.400448,201.220402 C343.991165,200.111234 342.879488,199.450919 341.846309,198.878955 L331.337757,193.061725 C330.362112,194.874812 331.595546,197.122552 333.138142,198.484354 C334.680737,199.846156 336.612903,200.871814 337.626263,202.664022 C338.956921,205.241567 338.0538,208.411389 335.565497,209.897002 C335.2615,210.107208 334.880938,210.17371 334.523851,210.079026 C334.185123,209.87963 333.941421,209.551336 333.848293,209.168976 C331.994155,204.415711 329.210373,199.729188 324.759775,197.246159 C320.309176,194.76313 313.914125,195.273649 310.995616,199.456438 C310.302406,200.449933 309.837157,201.582385 309.233278,202.632762 C306.02496,208.213274 299.146867,210.855854 292.720723,210.683241 C292.092078,210.71807 291.466715,210.570859 290.919348,210.259195 C289.880788,209.540637 289.927559,208.015883 290.086548,206.761528 L290.761092,201.438329 C290.896548,200.369393 291.092826,199.187871 291.937367,198.520601 C293.127845,197.580004 294.845177,198.173589 296.36124,198.151717 C298.714091,198.041374 300.747198,196.469525 301.450054,194.21742 C302.074217,191.954798 301.397141,189.531951 299.691006,187.922855 C298.996142,187.26905 298.063482,186.447778 298.430497,185.566396 C298.72695,185.072872 299.226222,184.736071 299.794192,184.646469 C302.517435,183.854245 305.394915,183.646597 308.072757,182.711834 C310.750598,181.777071 313.347524,179.864576 313.981692,177.095752 C314.176037,176.247234 314.264518,175.219365 315.025342,174.798679 C315.407097,174.637212 315.817061,174.553303 316.231445,174.551821 C319.240688,174.122945 321.425123,171.463388 321.265661,168.422647 C322.549012,167.524318 324.34702,168.185129 325.588568,169.140603 C326.830115,170.096078 327.926231,171.358426 329.436918,171.770302 C332.252212,172.537894 334.972881,170.040817 337.890557,170.029242 C339.117527,170.024376 340.387687,170.458976 341.542,170.042258 C342.712188,169.619805 343.411,168.452873 344.309114,167.590768 C345.207227,166.728663 346.783088,166.202835 347.612393,167.131542 L346.906197,161.891352 C349.783531,162.619528 352.834605,162.066936 355.275281,160.375593 L346.148262,157.286255 C345.830466,157.206773 345.537252,157.049719 345.294782,156.829107 C344.631227,156.113321 345.290309,154.997899 345.829887,154.184234 C347.120698,152.237732 347.337383,149.031374 345.214681,148.0623 C343.76579,147.400841 342.102701,148.194827 340.712019,148.971621 L334.050442,152.692582 C333.838748,153.961073 335.387214,154.679981 336.346756,155.53442 C337.535047,156.592556 337.951879,158.273568 337.395975,159.765739 C336.840071,161.257909 335.425773,162.254318 333.836011,162.273824 C334.7246,163.431118 335.039845,164.930317 334.692787,166.348361 L330.210711,166.671284 C329.707683,166.772668 329.185045,166.67048 328.756992,166.387047 C328.27762,165.960545 328.342631,165.213161 328.231525,164.580604 C327.963363,163.053867 326.471056,161.98381 324.948046,161.709438 C323.425035,161.435066 321.86696,161.786752 320.358842,162.134009 C319.718463,162.364861 319.015227,162.348603 318.38616,162.088404 C318.025442,161.853657 317.751342,161.507078 317.605728,161.101607 C316.944549,159.495624 317.562562,157.60793 318.624469,156.23453 C319.686376,154.86113 321.14006,153.857133 322.445622,152.713772 C325.567744,149.969514 327.861613,146.405318 329.068104,142.423809 C331.535497,141.38818 334.089945,139.98107 336.557309,138.945418 C340.361339,137.01603 344.627248,136.188037 348.875325,136.55455 L357.231324,136.71444 C359.705263,136.761777 362.246123,136.822435 364.533719,137.767262 C366.821315,138.712089 368.831368,140.755617 368.989303,143.229347 C369.086141,143.798643 368.88371,144.377794 368.453515,144.762222 C368.130455,144.93884 367.76454,145.021465 367.397083,145.000767 C365.089837,145.081995 364.106109,145.657903 361.798916,145.739102 Z" id="Path" fill="#3F3D56"></path>
                <path d="M295.525983,172.76233 C296.244291,172.133154 296.522071,171.185131 296.245601,170.306385 C294.496751,169.68191 292.516552,170.027904 291.13422,171.199482 C290.599939,171.699541 290.139491,172.262799 289.764855,172.8746 C288.579777,174.663657 287.531587,176.800643 288.218381,178.800484 C288.331458,179.241061 288.631588,179.620906 289.050995,179.854241 C289.358798,179.968559 289.690652,180.016658 290.021489,179.994906 C291.327006,179.993336 292.631236,179.919057 293.927107,179.772472 C294.722918,179.682437 295.647239,179.474486 295.954792,178.789381 C296.359075,177.888803 295.380554,176.869611 295.665813,175.930827 C295.853484,175.511018 296.137882,175.134152 296.499168,174.826521 C296.862562,174.512459 297.044691,174.058258 296.990638,173.600872 C296.875517,173.160384 296.146603,172.910492 295.884212,173.293196" id="Path" fill="#3F3D56"></path>
                <path d="M300.577889,164.264397 C299.496585,164.010345 298.381989,163.938723 297.278121,164.052361 C297.033985,164.044921 296.792017,164.101189 296.575002,164.215866 C296.36473,164.374542 296.212241,164.600504 296.141712,164.857924 C295.658252,166.44582 296.448238,168.147334 297.956602,168.766932 C298.353038,168.860196 298.732775,169.016346 299.082041,169.229719 C300.015313,169.970662 299.420359,171.485152 299.597031,172.680264 C299.795415,174.022271 301.064907,175.14874 300.832157,176.484955 C300.648793,177.537664 299.550001,178.371232 299.726896,179.425123 C299.912183,180.528912 301.280995,180.860588 302.372075,180.948979 C303.004409,181.062282 303.655275,180.985952 304.246161,180.729195 C304.83842,180.314796 305.259651,179.690575 305.428539,178.977034 C305.875226,177.616518 306.062926,176.181002 305.98148,174.748181 C305.976672,174.096507 305.816718,173.455851 305.515465,172.881675 C305.186905,172.426802 304.822698,172.000056 304.426454,171.605667 C302.336045,169.117522 304.537115,165.406146 300.577889,164.264397 Z" id="Path" fill="#3F3D56"></path>
                <g id="Group-11" transform="translate(325.000000, 130.000000)">
                    <path d="M40.0322581,21.2844935 C40.0322581,33.0395903 20.016129,59.2264151 20.016129,59.2264151 C20.016129,59.2264151 0,33.0395903 0,21.2844935 C0,9.52939234 8.96152622,0 20.016129,0 C31.0707318,0 40.0322581,9.52939234 40.0322581,21.2844935 L40.0322581,21.2844935 Z" id="Path" fill="#6C63FF"></path>
                    <path d="M30.3692992,19.9716987 C30.3692992,25.676904 25.7340262,30.3018868 20.0161285,30.3018868 C14.2982308,30.3018868 9.66295884,25.676904 9.66295884,19.9716987 C9.66295884,14.2664933 14.2982308,9.64150943 20.0161285,9.64150943 C22.7623454,9.64025477 25.3964459,10.7282075 27.3383148,12.6657658 C29.2801836,14.6033242 30.3705567,17.2315776 30.3692992,19.9716987 L30.3692992,19.9716987 Z" id="Path" fill="#FFFFFF"></path>
                    <ellipse id="Oval" fill="#F8CD7E" cx="21.3965517" cy="68.1792453" rx="4.83147942" ry="4.82075472"></ellipse>
                </g>
                <g id="Group-11-Copy-2" transform="translate(296.000000, 122.000000)">
                    <path d="M40.0322581,21.2844935 C40.0322581,33.0395903 20.016129,59.2264151 20.016129,59.2264151 C20.016129,59.2264151 0,33.0395903 0,21.2844935 C0,9.52939234 8.96152622,0 20.016129,0 C31.0707318,0 40.0322581,9.52939234 40.0322581,21.2844935 L40.0322581,21.2844935 Z" id="Path" fill="#6C63FF"></path>
                    <path d="M30.3692992,19.9716987 C30.3692992,25.676904 25.7340262,30.3018868 20.0161285,30.3018868 C14.2982308,30.3018868 9.66295884,25.676904 9.66295884,19.9716987 C9.66295884,14.2664933 14.2982308,9.64150943 20.0161285,9.64150943 C22.7623454,9.64025477 25.3964459,10.7282075 27.3383148,12.6657658 C29.2801836,14.6033242 30.3705567,17.2315776 30.3692992,19.9716987 L30.3692992,19.9716987 Z" id="Path" fill="#FFFFFF"></path>
                    <ellipse id="Oval" fill="#F8CD7E" cx="21.3965517" cy="68.1792453" rx="4.83147942" ry="4.82075472"></ellipse>
                </g>
                <g id="Group-11-Copy-4" transform="translate(80.000000, 155.000000)">
                    <path d="M40,21.2031256 C40,32.9132841 20,59 20,59 C20,59 0,32.9132841 0,21.2031256 C0,9.49296268 8.954305,0 20,0 C31.045695,0 40,9.49296268 40,21.2031256 L40,21.2031256 Z" id="Path" fill="#6C63FF"></path>
                    <path d="M31,19.5 C31,25.2989901 26.298989,30 20.5,30 C14.7010099,30 10,25.2989901 10,19.5 C10,13.701011 14.7010099,9 20.5,9 C23.2851635,8.99872472 25.9566212,10.1045616 27.9260298,12.0739702 C29.8954384,14.0433788 31.0012753,16.7148365 31,19.5 L31,19.5 Z" id="Path" fill="#FFFFFF"></path>
                    <circle id="Oval" fill="#F8CD7E" cx="21" cy="68" r="5"></circle>
                </g>
                <g id="Group-11-Copy" transform="translate(354.000000, 113.000000)">
                    <path d="M40.0322581,21.2844935 C40.0322581,33.0395903 20.016129,59.2264151 20.016129,59.2264151 C20.016129,59.2264151 0,33.0395903 0,21.2844935 C0,9.52939234 8.96152622,0 20.016129,0 C31.0707318,0 40.0322581,9.52939234 40.0322581,21.2844935 L40.0322581,21.2844935 Z" id="Path" fill="#6C63FF"></path>
                    <path d="M30.3692992,19.9716987 C30.3692992,25.676904 25.7340262,30.3018868 20.0161285,30.3018868 C14.2982308,30.3018868 9.66295884,25.676904 9.66295884,19.9716987 C9.66295884,14.2664933 14.2982308,9.64150943 20.0161285,9.64150943 C22.7623454,9.64025477 25.3964459,10.7282075 27.3383148,12.6657658 C29.2801836,14.6033242 30.3705567,17.2315776 30.3692992,19.9716987 L30.3692992,19.9716987 Z" id="Path" fill="#FFFFFF"></path>
                    <ellipse id="Oval" fill="#F8CD7E" cx="20.016129" cy="68.1792453" rx="4.83147942" ry="4.82075472"></ellipse>
                </g>
                <g id="Group-11-Copy-3" transform="translate(440.000000, 192.000000)">
                    <path d="M40.0322581,21.2844935 C40.0322581,33.0395903 20.016129,59.2264151 20.016129,59.2264151 C20.016129,59.2264151 0,33.0395903 0,21.2844935 C0,9.52939234 8.96152622,0 20.016129,0 C31.0707318,0 40.0322581,9.52939234 40.0322581,21.2844935 L40.0322581,21.2844935 Z" id="Path" fill="#6C63FF"></path>
                    <path d="M30.3692992,19.9716987 C30.3692992,25.676904 25.7340262,30.3018868 20.0161285,30.3018868 C14.2982308,30.3018868 9.66295884,25.676904 9.66295884,19.9716987 C9.66295884,14.2664933 14.2982308,9.64150943 20.0161285,9.64150943 C22.7623454,9.64025477 25.3964459,10.7282075 27.3383148,12.6657658 C29.2801836,14.6033242 30.3705567,17.2315776 30.3692992,19.9716987 L30.3692992,19.9716987 Z" id="Path" fill="#FFFFFF"></path>
                    <ellipse id="Oval" fill="#F8CD7E" cx="21.3965517" cy="68.1792453" rx="4.83147942" ry="4.82075472"></ellipse>
                </g>
            </g>
        </g>
    </g>
</svg>