<?xml version="1.0" encoding="UTF-8"?>
<svg width="360px" height="180px" viewBox="0 0 360 180" version="1.1" xmlns="http://www.w3.org/2000/svg" xmlns:xlink="http://www.w3.org/1999/xlink">
    <title>Overhaul</title>
    <g id="LEAD-marketing-" stroke="none" stroke-width="1" fill="none" fill-rule="evenodd">
        <g id="Home-Page" transform="translate(-233.000000, -5293.000000)" fill-rule="nonzero">
            <g id="Overhaul" transform="translate(233.000000, 5293.000000)">
                <path d="M76.0629194,0 C66.2822098,-0.0167111604 56.5910076,1.86488747 47.5257355,5.5407584 C47.1607213,5.69051177 46.7942708,5.84098222 46.4280002,5.99486159 C18.2601797,17.8938234 -0.0362367988,45.5382024 0,76.1436662 L0,159.230069 C0,161.057073 1.4811077,162.537639 3.30617574,162.539698 L3.3718243,162.545442 C67.0943108,174.129861 129.043393,180 187.549286,180 C188.4264,180 189.302676,180 190.178112,179.996051 C247.687988,179.820802 303.686143,173.950663 356.616735,162.547957 L356.693878,162.539698 C358.518973,162.537704 360,161.0571 360,159.230069 L360,3.30975941 C360,1.48275438 358.518947,0.00218718218 356.693878,0 L76.0629194,0 Z" id="Path" fill="#4D33B7"></path>
                <path d="M274.143607,66.0002775 C272.954063,66.0182401 272,66.9082569 272,67.9999846 C272,69.0917123 272.954063,69.9817291 274.143607,69.9996918 L328.782349,69.9996918 C329.56145,70.0122196 330.288568,69.6421026 330.68945,69.0289399 C331.090333,68.4157771 331.103983,67.6528657 330.725252,67.0279569 C330.346521,66.4030482 329.633036,66.0112266 328.853906,66.0002775 C328.830055,65.9999075 328.806202,65.9999075 328.782349,66.0002775 L274.143607,66.0002775 Z" id="f4300551-56ef-4356-8f30-d0080b223343-116" fill="#FC9A00"></path>
                <path d="M340.917165,65.1255274 C340.842144,65.2058979 340.799997,65.314909 340.799997,65.4285762 C340.799997,65.5422434 340.842144,65.6512545 340.917165,65.731625 L342.6343,67.5714258 L338.400003,67.5714258 C338.179087,67.5714258 338,67.7633042 338,68 C338,68.2366923 338.179087,68.4285707 338.400003,68.4285707 L342.634297,68.4285707 L340.917161,70.2683678 C340.816109,70.3766341 340.776642,70.5344374 340.813627,70.6823347 C340.850612,70.8302321 340.95843,70.9457543 341.096468,70.9853853 C341.234505,71.0250164 341.38179,70.9827353 341.482842,70.874469 L343.882846,68.3030488 C344.039051,68.1356753 344.039051,67.8643211 343.882846,67.6969476 L341.482842,65.1255274 C341.40783,65.0451538 341.306089,65 341.200003,65 C341.093918,65 340.992177,65.0451538 340.917165,65.1255274 Z" id="Path" fill="#FFFFFF"></path>
                <path d="M262.082235,65.1255277 C262.157241,65.2058983 262.19938,65.3149095 262.19938,65.428577 C262.19938,65.5422444 262.157241,65.6512557 262.082235,65.7316263 L260.365436,67.5714305 L264.598904,67.5714305 C264.742062,67.570982 264.874525,67.6525694 264.946225,67.7853546 C265.017925,67.9181399 265.017925,68.0818676 264.946225,68.2146529 C264.874525,68.3474382 264.742062,68.4290255 264.598904,68.428577 L260.365436,68.428577 L262.082235,70.2683776 C262.238418,70.435742 262.238422,70.7070983 262.082245,70.8744689 C261.926069,71.0418394 261.672852,71.0418443 261.516669,70.8744799 L259.117131,68.3030549 C258.960956,68.1356811 258.960956,67.8643264 259.117131,67.6969526 L261.516669,65.1255277 C261.591667,65.0451539 261.693387,65 261.799452,65 C261.905517,65 262.007238,65.0451539 262.082235,65.1255277 L262.082235,65.1255277 Z" id="Path" fill="#FFFFFF"></path>
                <g id="Group" opacity="0.4" transform="translate(274.000000, 16.000000)" fill="#FFFFFF">
                    <ellipse id="Oval" cx="2.3703701" cy="2.38636347" rx="2.3703701" ry="2.38636347"></ellipse>
                    <ellipse id="Oval" cx="12.2469146" cy="2.38636347" rx="2.3703701" ry="2.38636347"></ellipse>
                    <ellipse id="Oval" cx="22.1234555" cy="2.38636347" rx="2.3703701" ry="2.38636347"></ellipse>
                    <ellipse id="Oval" cx="32" cy="2.38636347" rx="2.3703701" ry="2.38636347"></ellipse>
                    <ellipse id="Oval" cx="41.8765408" cy="2.38636347" rx="2.3703701" ry="2.38636347"></ellipse>
                    <ellipse id="Oval" cx="51.7530854" cy="2.38636347" rx="2.3703701" ry="2.38636347"></ellipse>
                    <ellipse id="Oval" cx="61.6296299" cy="2.38636347" rx="2.3703701" ry="2.38636347"></ellipse>
                    <ellipse id="Oval" cx="2.3703701" cy="9.9431836" rx="2.3703701" ry="2.38636347"></ellipse>
                    <ellipse id="Oval" cx="12.2469146" cy="9.9431836" rx="2.3703701" ry="2.38636347"></ellipse>
                    <ellipse id="Oval" cx="22.1234555" cy="9.9431836" rx="2.3703701" ry="2.38636347"></ellipse>
                    <ellipse id="Oval" cx="32" cy="9.9431836" rx="2.3703701" ry="2.38636347"></ellipse>
                    <ellipse id="Oval" cx="41.8765408" cy="9.9431836" rx="2.3703701" ry="2.38636347"></ellipse>
                    <ellipse id="Oval" cx="51.7530854" cy="9.9431836" rx="2.3703701" ry="2.38636347"></ellipse>
                    <ellipse id="Oval" cx="61.6296299" cy="9.9431836" rx="2.3703701" ry="2.38636347"></ellipse>
                    <ellipse id="Oval" cx="2.3703701" cy="17.5" rx="2.3703701" ry="2.38636347"></ellipse>
                    <ellipse id="Oval" cx="12.2469146" cy="17.5" rx="2.3703701" ry="2.38636347"></ellipse>
                    <ellipse id="Oval" cx="22.1234555" cy="17.5" rx="2.3703701" ry="2.38636347"></ellipse>
                    <ellipse id="Oval" cx="32" cy="17.5" rx="2.3703701" ry="2.38636347"></ellipse>
                    <ellipse id="Oval" cx="41.8765408" cy="17.5" rx="2.3703701" ry="2.38636347"></ellipse>
                    <ellipse id="Oval" cx="51.7530854" cy="17.5" rx="2.3703701" ry="2.38636347"></ellipse>
                    <ellipse id="Oval" cx="61.6296299" cy="17.5" rx="2.3703701" ry="2.38636347"></ellipse>
                    <ellipse id="Oval" cx="2.3703701" cy="25.0568201" rx="2.3703701" ry="2.38636347"></ellipse>
                    <ellipse id="Oval" cx="12.2469146" cy="25.0568201" rx="2.3703701" ry="2.38636347"></ellipse>
                    <ellipse id="Oval" cx="2.3703701" cy="32.6136365" rx="2.3703701" ry="2.38636347"></ellipse>
                    <ellipse id="Oval" cx="12.2469146" cy="32.6136365" rx="2.3703701" ry="2.38636347"></ellipse>
                    <ellipse id="Oval" cx="22.1234555" cy="32.6136365" rx="2.3703701" ry="2.38636347"></ellipse>
                    <ellipse id="Oval" cx="22.1234555" cy="25.0568201" rx="2.3703701" ry="2.38636347"></ellipse>
                    <ellipse id="Oval" cx="32" cy="25.0568201" rx="2.3703701" ry="2.38636347"></ellipse>
                    <ellipse id="Oval" cx="41.8765408" cy="25.0568201" rx="2.3703701" ry="2.38636347"></ellipse>
                    <ellipse id="Oval" cx="51.7530854" cy="25.0568201" rx="2.3703701" ry="2.38636347"></ellipse>
                    <ellipse id="Oval" cx="61.6296299" cy="25.0568201" rx="2.3703701" ry="2.38636347"></ellipse>
                </g>
                <path d="M243,138 C235.820298,138 230,132.179702 230,125 C230,117.820298 235.820298,112 243,112 C250.179702,112 256,117.820298 256,125 C255.991866,132.17633 250.17633,137.991866 243,138 L243,138 Z M243,112.737119 C236.227398,112.737119 230.737119,118.227398 230.737119,125 C230.737119,131.772602 236.227398,137.262881 243,137.262881 C249.772602,137.262881 255.262881,131.772602 255.262881,125 C255.255274,118.230551 249.769449,112.744726 243,112.737119 L243,112.737119 Z" id="Shape" fill="#FC9A00"></path>
                <path d="M247.800004,123.800007 L244.200032,123.800007 L244.200032,120.20001 C244.200032,119.537263 243.662767,119 243.000018,119 C242.337268,119 241.800004,119.537263 241.800004,120.20001 L241.800004,123.800007 L238.199996,123.800007 C237.537257,123.800007 237,124.337262 237,125 C237,125.662738 237.537257,126.199993 238.199996,126.199993 L241.800004,126.199993 L241.800004,129.799989 C241.800004,130.462737 242.337268,131 243.000018,131 C243.662767,131 244.200032,130.462737 244.200032,129.799989 L244.200032,126.199993 L247.800004,126.199993 C248.462743,126.199993 249,125.662738 249,125 C249,124.337262 248.462743,123.800007 247.800004,123.800007 L247.800004,123.800007 Z" id="Path" fill="#FFFFFF"></path>
                <g id="Group" opacity="0.4" transform="translate(18.000000, 90.000000)" fill="#FFFFFF">
                    <ellipse id="Oval" cx="1.84090892" cy="48.1481483" rx="1.84090892" ry="1.85185172"></ellipse>
                    <ellipse id="Oval" cx="1.84090892" cy="40.4320989" rx="1.84090892" ry="1.85185172"></ellipse>
                    <ellipse id="Oval" cx="1.84090892" cy="32.7160494" rx="1.84090892" ry="1.85185172"></ellipse>
                    <ellipse id="Oval" cx="1.84090892" cy="25" rx="1.84090892" ry="1.85185172"></ellipse>
                    <ellipse id="Oval" cx="1.84090892" cy="17.2839506" rx="1.84090892" ry="1.85185172"></ellipse>
                    <ellipse id="Oval" cx="1.84090892" cy="9.56790114" rx="1.84090892" ry="1.85185172"></ellipse>
                    <ellipse id="Oval" cx="1.84090892" cy="1.85185172" rx="1.84090892" ry="1.85185172"></ellipse>
                    <ellipse id="Oval" cx="7.67045446" cy="48.1481483" rx="1.84090892" ry="1.85185172"></ellipse>
                    <ellipse id="Oval" cx="7.67045446" cy="40.4320989" rx="1.84090892" ry="1.85185172"></ellipse>
                    <ellipse id="Oval" cx="7.67045446" cy="32.7160494" rx="1.84090892" ry="1.85185172"></ellipse>
                    <ellipse id="Oval" cx="7.67045446" cy="25" rx="1.84090892" ry="1.85185172"></ellipse>
                    <ellipse id="Oval" cx="7.67045446" cy="17.2839506" rx="1.84090892" ry="1.85185172"></ellipse>
                    <ellipse id="Oval" cx="7.67045446" cy="9.56790114" rx="1.84090892" ry="1.85185172"></ellipse>
                    <ellipse id="Oval" cx="7.67045446" cy="1.85185172" rx="1.84090892" ry="1.85185172"></ellipse>
                    <ellipse id="Oval" cx="13.5" cy="48.1481483" rx="1.84090892" ry="1.85185172"></ellipse>
                    <ellipse id="Oval" cx="13.5" cy="40.4320989" rx="1.84090892" ry="1.85185172"></ellipse>
                    <ellipse id="Oval" cx="13.5" cy="32.7160494" rx="1.84090892" ry="1.85185172"></ellipse>
                    <ellipse id="Oval" cx="13.5" cy="25" rx="1.84090892" ry="1.85185172"></ellipse>
                    <ellipse id="Oval" cx="13.5" cy="17.2839506" rx="1.84090892" ry="1.85185172"></ellipse>
                    <ellipse id="Oval" cx="13.5" cy="9.56790114" rx="1.84090892" ry="1.85185172"></ellipse>
                    <ellipse id="Oval" cx="13.5" cy="1.85185172" rx="1.84090892" ry="1.85185172"></ellipse>
                    <ellipse id="Oval" cx="19.3295455" cy="48.1481483" rx="1.84090892" ry="1.85185172"></ellipse>
                    <ellipse id="Oval" cx="19.3295455" cy="40.4320989" rx="1.84090892" ry="1.85185172"></ellipse>
                    <ellipse id="Oval" cx="25.1590911" cy="48.1481483" rx="1.84090892" ry="1.85185172"></ellipse>
                    <ellipse id="Oval" cx="25.1590911" cy="40.4320989" rx="1.84090892" ry="1.85185172"></ellipse>
                    <ellipse id="Oval" cx="25.1590911" cy="32.7160494" rx="1.84090892" ry="1.85185172"></ellipse>
                    <ellipse id="Oval" cx="19.3295455" cy="32.7160494" rx="1.84090892" ry="1.85185172"></ellipse>
                    <ellipse id="Oval" cx="19.3295455" cy="25" rx="1.84090892" ry="1.85185172"></ellipse>
                    <ellipse id="Oval" cx="19.3295455" cy="17.2839506" rx="1.84090892" ry="1.85185172"></ellipse>
                    <ellipse id="Oval" cx="19.3295455" cy="9.56790114" rx="1.84090892" ry="1.85185172"></ellipse>
                    <ellipse id="Oval" cx="19.3295455" cy="1.85185172" rx="1.84090892" ry="1.85185172"></ellipse>
                </g>
                <path d="M183.713586,12 L60.2863884,12 C59.0241698,12.0012748 58,13.0231209 58,14.2840149 L58,119.715989 C58,120.976882 59.0241704,121.998727 60.2863884,122 L183.713586,122 C184.97581,121.998731 186,120.976888 186,119.715989 L186,14.2840038 C186,13.0231083 184.975806,12.0012707 183.713586,12 L183.713586,12 Z M185.083721,119.715989 C185.083721,120.472447 184.470834,121.086251 183.713586,121.088965 L60.2863884,121.088965 C59.5285182,121.087752 58.9162771,120.473064 58.9162771,119.715989 L58.9162771,14.2840038 C58.9162771,13.5269288 59.5285182,12.9122411 60.2863884,12.911028 L183.713586,12.911028 C184.470834,12.913742 185.083721,13.5275453 185.083721,14.2840038 L185.083721,119.715989 Z" id="Shape" fill="#FC9A00"></path>
                <path d="M89,102.504086 C89,102.670071 88.9956245,102.836052 88.9868774,102.997665 C88.723163,108.043744 84.5539589,112 79.4999849,112 C74.446011,112 70.2768068,108.043744 70.0130924,102.997665 C70.0043491,102.836052 70,102.670071 70,102.504086 C69.9978619,99.1093165 71.8080832,95.9715045 74.7482717,94.2735019 C77.6884602,92.5754994 81.3115398,92.5754994 84.2517283,94.2735019 C87.1919168,95.9715045 89.0021381,99.1093165 89,102.504086 L89,102.504086 Z" id="Path" fill="#FFFFFF"></path>
                <path d="M173.455491,97 L100.544509,97 C99.6911148,97.0012774 99,97.672476 99,98.5 C99,99.327524 99.6911148,99.9987226 100.544509,100 L173.455491,100 C174.308885,99.9987226 175,99.327524 175,98.5 C175,97.672476 174.308885,97.0012774 173.455491,97 L173.455491,97 Z" id="Path" fill="#FC9A00"></path>
                <path d="M132.431162,106 L100.568838,106 C99.7023926,106 99,106.671573 99,107.5 C99,108.328427 99.7023926,109 100.568838,109 L132.431162,109 C133.297607,109 134,108.328427 134,107.5 C134,106.671573 133.297607,106 132.431162,106 Z" id="Path" fill="#FFFFFF"></path>
                <path d="M211.856671,87 L89.1433294,87 C87.4080316,86.9979096 86.001864,85.5714708 86,83.8113566 L86,29.1884607 C86.001939,27.4284076 87.4080918,26.0020656 89.1433294,26 L211.856671,26 C213.591908,26.0020656 214.998061,27.4284076 215,29.1884607 L215,83.8113491 C214.99814,85.5714662 213.591971,86.9979096 211.856671,87 Z M89.1433294,27.1188484 C88.017001,27.1201762 87.1030735,28.0460247 87.1030735,29.1884607 L87.1030735,83.8113491 C87.1030735,84.9538199 88.0169668,85.8797279 89.1433294,85.8811441 L211.856671,85.8811441 C212.983033,85.8797279 213.896926,84.9538199 213.896926,83.8113491 L213.896926,29.1884607 C213.896926,28.0460247 212.982999,27.1201762 211.856671,27.1188484 L89.1433294,27.1188484 Z" id="Shape" fill="#FFFFFF"></path>
                <path d="M114.54651,45 C113.692396,45 113,45.6715729 113,46.5 C113,47.3284271 113.692396,48 114.54651,48 L187.45349,48 C188.307604,48 189,47.3284271 189,46.5 C189,45.6715729 188.307604,45 187.45349,45 L114.54651,45 Z" id="Path" fill="#FFFFFF"></path>
                <path d="M114.546561,54 C113.692419,54 113,54.6715729 113,55.5 C113,56.3284271 113.692419,57 114.546561,57 L187.455825,57 C188.309035,56.9987225 189,56.3275239 189,55.5 C189,54.6724761 188.309035,54.0012775 187.455825,54 L114.546561,54 Z" id="Path" fill="#FFFFFF"></path>
                <path d="M114.570622,63 C113.703191,63 113,63.6715729 113,64.5 C113,65.3284271 113.703191,66 114.570622,66 L146.431801,66 C147.298285,65.9987225 148,65.3275239 148,64.5 C148,63.6724761 147.298285,63.0012775 146.431801,63 L114.570622,63 Z" id="Path" fill="#FFFFFF"></path>
                <path d="M231.898229,109.162801 L219.544413,92.4304743 L223.543609,93.2302125 C223.737113,93.2688871 223.937418,93.2055526 224.06907,93.0640666 C224.200722,92.9225806 224.243721,92.7244381 224.181869,92.5442774 C224.120017,92.3641168 223.962712,92.2293087 223.769207,92.1906341 L217.809486,91 L217.005075,96.7901706 C216.978337,96.9784981 217.058537,97.1661762 217.215358,97.2822619 C217.372179,97.3983476 217.581697,97.4251314 217.764713,97.3524889 C217.94773,97.2798463 218.076325,97.1188596 218.101889,96.9303821 L218.641152,93.0421426 L230.996283,109.776256 C231.110467,109.930877 231.301932,110.015293 231.498555,109.997705 C231.695178,109.980116 231.867088,109.863196 231.949527,109.690986 C232.031967,109.518777 232.012412,109.31744 231.898229,109.162819 L231.898229,109.162801 Z" id="Path" fill="#FFFFFF"></path>
                <path d="M165.375003,159 L77.624997,159 C76.7279726,158.998947 76.0010533,158.272523 76,157.376109 L76,135.623891 C76.0010533,134.727477 76.7279726,134.001053 77.624997,134 L165.375003,134 C166.272027,134.001053 166.998947,134.727477 167,135.623891 L167,157.376109 C166.998947,158.272523 166.272027,158.998947 165.375003,159 L165.375003,159 Z M77.624997,134.649555 C77.0867627,134.650141 76.6499973,135.086023 76.6499973,135.623891 L76.6499973,157.376109 C76.6499973,157.913975 77.0867641,158.349855 77.624997,158.350441 L165.375003,158.350441 C165.913234,158.349853 166.349999,157.913974 166.349999,157.376109 L166.349999,135.623891 C166.349999,135.086025 165.913236,134.650143 165.375003,134.649555 L77.624997,134.649555 Z" id="Shape" fill="#FC9A00"></path>
                <circle id="Oval" fill="#FFFFFF" cx="91.5" cy="146.5" r="6.5"></circle>
                <path d="M107.100805,141 C106.707765,140.999348 106.344273,141.189804 106.147546,141.499473 C105.950818,141.809142 105.950818,142.190858 106.147546,142.500527 C106.344273,142.810196 106.707765,143.000652 107.100805,143 L158.901205,143 C159.508053,143 160,142.552284 160,142 C160,141.447716 159.508053,141 158.901205,141 L107.100805,141 Z" id="Path" fill="#FFFFFF"></path>
                <path d="M107.078803,149 C106.693618,148.999348 106.337392,149.189804 106.144597,149.499473 C105.951801,149.809142 105.951801,150.190858 106.144597,150.500527 C106.337392,150.810196 106.693618,151.000652 107.078803,151 L128.923167,151 C129.517885,151 130,150.552284 130,150 C130,149.447716 129.517885,149 128.923167,149 L107.078803,149 Z" id="Path" fill="#FFFFFF"></path>
                <path d="M280.615382,82 L319.384622,82 C320.276336,82.0010565 320.998953,82.7301799 321,83.6299242 L321,124.370076 C320.998953,125.26982 320.276336,125.998943 319.384622,126 L280.615382,126 C279.723667,125.998944 279.001049,125.269821 279,124.370076 L279,83.6299242 C279.001049,82.7301793 279.723667,82.0010565 280.615382,82 L280.615382,82 Z M319.384622,125.348028 C319.919669,125.34744 320.353265,124.909941 320.35385,124.370076 L320.35385,83.6299242 C320.353265,83.0900588 319.919669,82.6525586 319.384622,82.6519682 L280.615382,82.6519682 C280.080334,82.6525566 279.646737,83.0900579 279.646154,83.6299242 L279.646154,124.370076 C279.646739,124.909941 280.080335,125.34744 280.615382,125.348028 L319.384622,125.348028 Z" id="Shape" fill="#FC9A00"></path>
                <path d="M310.923077,118 C311.517845,118 312,117.552285 312,117 C312,116.447715 311.517845,116 310.923077,116 L289.076923,116 C288.482155,116 288,116.447715 288,117 C288,117.552285 288.482155,118 289.076923,118 L310.923077,118 Z" id="Path" fill="#FFFFFF"></path>
                <path d="M310.921286,110 C311.306438,110.000652 311.662636,109.810196 311.855415,109.500527 C312.048195,109.190858 312.048195,108.809142 311.855415,108.499473 C311.662636,108.189804 311.306438,107.999348 310.921286,108 L289.078714,108 C288.693562,107.999348 288.337364,108.189804 288.144585,108.499473 C287.951805,108.809142 287.951805,109.190858 288.144585,109.500527 C288.337364,109.810196 288.693562,110.000652 289.078714,110 L310.921286,110 Z" id="Path" fill="#FFFFFF"></path>
                <path d="M301,90 C304.865993,90 308,93.1340068 308,97 C308,100.865993 304.865993,104 301,104 C297.134007,104 294,100.865993 294,97 C294.00437,93.1358184 297.135818,90.0043701 301,90 Z" id="Path" fill="#FFFFFF"></path>
            </g>
        </g>
    </g>
</svg>